<!-- JioGames DLS — 4g icons (10 icons) -->
<svg xmlns="http://www.w3.org/2000/svg" style="display:none">
  <symbol id="ic_4g" viewBox="0 0 24 24">
    <path d="M9.99977 13.96H9.68976C9.56977 13.96 9.53977 13.91 9.53977 13.8V12.7C9.53977 12.03 9.02977 11.79 8.49977 11.79C7.96977 11.79 7.47977 12.03 7.47977 12.7V13.8C7.47977 13.91 7.44977 13.96 7.32977 13.96H5.92977C5.85977 13.96 5.77977 13.93 5.77977 13.85C5.77977 13.8 5.87977 13.56 5.87977 13.56L8.33977 7.60998C8.40977 7.44998 8.43976 7.30998 8.43976 7.17998C8.43976 6.59998 7.77977 6.24998 7.26977 6.24998C6.95977 6.24998 6.64977 6.40998 6.44977 6.86998L3.60977 13.82C3.39977 14.32 3.25977 14.73 3.25977 15C3.25977 15.56 3.68977 15.85 4.33977 15.85H7.30977C7.42977 15.85 7.45977 15.9 7.45977 15.99V16.61C7.45977 17.27 7.96976 17.51 8.47976 17.51C8.98977 17.51 9.51977 17.27 9.51977 16.61V15.99C9.51977 15.89 9.54977 15.85 9.66977 15.85H9.97976C10.5998 15.85 10.8298 15.39 10.8298 14.91C10.8298 14.43 10.5998 13.97 9.97976 13.97L9.99977 13.96ZM19.6698 10.85H17.2398C16.5698 10.85 16.3198 11.35 16.3198 11.84C16.3198 12.33 16.5698 12.85 17.2398 12.85H18.2898C18.3898 12.85 18.4398 12.88 18.4398 12.99V13.6C18.4398 14.11 18.3898 14.38 18.1798 14.69C17.6698 15.44 16.9198 15.49 16.4698 15.49C16.0198 15.49 15.1898 15.49 14.7598 14.69C14.4298 14.08 14.4298 13.14 14.4298 11.87C14.4298 10.6 14.4498 9.65998 14.7598 9.04998C15.1898 8.21998 16.0698 8.21998 16.5998 8.21998C17.3198 8.21998 17.7298 8.32998 18.4098 8.72998C18.5598 8.82998 18.7198 8.88998 18.9498 8.88998C19.4598 8.88998 19.9998 8.32998 19.9998 7.84998C19.9998 7.41998 19.7498 7.18998 19.4398 6.96998C18.7198 6.43998 17.7598 6.22998 16.5598 6.22998C15.1798 6.22998 14.0598 6.43998 13.1798 7.42998C12.5198 8.16998 12.2098 9.69998 12.2098 11.86C12.2098 14.02 12.5198 15.56 13.1798 16.29C14.0698 17.28 15.0998 17.49 16.4698 17.49C17.8398 17.49 18.8998 17.3 19.7598 16.29C20.3998 15.52 20.5498 14.72 20.5498 13.6V11.68C20.5498 11.15 20.1998 10.83 19.6798 10.83L19.6698 10.85Z" fill="currentColor"/>
  </symbol>
  <symbol id="ic_4g_bar_four" viewBox="0 0 24 24">
    <path d="M10 11C9.73478 11 9.48043 11.1054 9.29289 11.2929C9.10536 11.4804 9 11.7348 9 12V20C9 20.2652 9.10536 20.5196 9.29289 20.7071C9.48043 20.8946 9.73478 21 10 21C10.2652 21 10.5196 20.8946 10.7071 20.7071C10.8946 20.5196 11 20.2652 11 20V12C11 11.7348 10.8946 11.4804 10.7071 11.2929C10.5196 11.1054 10.2652 11 10 11ZM18 3C17.7348 3 17.4804 3.10536 17.2929 3.29289C17.1054 3.48043 17 3.73478 17 4V20C17 20.2652 17.1054 20.5196 17.2929 20.7071C17.4804 20.8946 17.7348 21 18 21C18.2652 21 18.5196 20.8946 18.7071 20.7071C18.8946 20.5196 19 20.2652 19 20V4C19 3.73478 18.8946 3.48043 18.7071 3.29289C18.5196 3.10536 18.2652 3 18 3ZM6 15C5.73478 15 5.48043 15.1054 5.29289 15.2929C5.10536 15.4804 5 15.7348 5 16V20C5 20.2652 5.10536 20.5196 5.29289 20.7071C5.48043 20.8946 5.73478 21 6 21C6.26522 21 6.51957 20.8946 6.70711 20.7071C6.89464 20.5196 7 20.2652 7 20V16C7 15.7348 6.89464 15.4804 6.70711 15.2929C6.51957 15.1054 6.26522 15 6 15ZM14 7C13.7348 7 13.4804 7.10536 13.2929 7.29289C13.1054 7.48043 13 7.73478 13 8V20C13 20.2652 13.1054 20.5196 13.2929 20.7071C13.4804 20.8946 13.7348 21 14 21C14.2652 21 14.5196 20.8946 14.7071 20.7071C14.8946 20.5196 15 20.2652 15 20V8C15 7.73478 14.8946 7.48043 14.7071 7.29289C14.5196 7.10536 14.2652 7 14 7Z" fill="currentColor"/>
  </symbol>
  <symbol id="ic_4g_bar_no_network" viewBox="0 0 24 24">
    <path d="M6 15C5.73478 15 5.48043 15.1054 5.29289 15.2929C5.10536 15.4804 5 15.7348 5 16V20C5 20.2652 5.10536 20.5196 5.29289 20.7071C5.48043 20.8946 5.73478 21 6 21C6.26522 21 6.51957 20.8946 6.70711 20.7071C6.89464 20.5196 7 20.2652 7 20V16C7 15.7348 6.89464 15.4804 6.70711 15.2929C6.51957 15.1054 6.26522 15 6 15ZM10 11C9.73478 11 9.48043 11.1054 9.29289 11.2929C9.10536 11.4804 9 11.7348 9 12V20C9 20.2652 9.10536 20.5196 9.29289 20.7071C9.48043 20.8946 9.73478 21 10 21C10.2652 21 10.5196 20.8946 10.7071 20.7071C10.8946 20.5196 11 20.2652 11 20V12C11 11.7348 10.8946 11.4804 10.7071 11.2929C10.5196 11.1054 10.2652 11 10 11ZM7.71 5.29C7.61704 5.19627 7.50644 5.12188 7.38458 5.07111C7.26272 5.02034 7.13201 4.9942 7 4.9942C6.86799 4.9942 6.73728 5.02034 6.61542 5.07111C6.49356 5.12188 6.38296 5.19627 6.29 5.29L6 5.59L5.71 5.29C5.5217 5.1017 5.2663 4.99591 5 4.99591C4.7337 4.99591 4.4783 5.1017 4.29 5.29C4.1017 5.4783 3.99591 5.7337 3.99591 6C3.99591 6.2663 4.1017 6.5217 4.29 6.71L4.59 7L4.29 7.29C4.19627 7.38296 4.12188 7.49356 4.07111 7.61542C4.02034 7.73728 3.9942 7.86799 3.9942 8C3.9942 8.13201 4.02034 8.26272 4.07111 8.38458C4.12188 8.50644 4.19627 8.61704 4.29 8.71C4.38296 8.80373 4.49356 8.87812 4.61542 8.92889C4.73728 8.97966 4.86799 9.0058 5 9.0058C5.13201 9.0058 5.26272 8.97966 5.38458 8.92889C5.50644 8.87812 5.61704 8.80373 5.71 8.71L6 8.41L6.29 8.71C6.38296 8.80373 6.49356 8.87812 6.61542 8.92889C6.73728 8.97966 6.86799 9.0058 7 9.0058C7.13201 9.0058 7.26272 8.97966 7.38458 8.92889C7.50644 8.87812 7.61704 8.80373 7.71 8.71C7.80373 8.61704 7.87812 8.50644 7.92889 8.38458C7.97966 8.26272 8.0058 8.13201 8.0058 8C8.0058 7.86799 7.97966 7.73728 7.92889 7.61542C7.87812 7.49356 7.80373 7.38296 7.71 7.29L7.41 7L7.71 6.71C7.80373 6.61704 7.87812 6.50644 7.92889 6.38458C7.97966 6.26272 8.0058 6.13201 8.0058 6C8.0058 5.86799 7.97966 5.73728 7.92889 5.61542C7.87812 5.49356 7.80373 5.38296 7.71 5.29ZM18 3C17.7348 3 17.4804 3.10536 17.2929 3.29289C17.1054 3.48043 17 3.73478 17 4V20C17 20.2652 17.1054 20.5196 17.2929 20.7071C17.4804 20.8946 17.7348 21 18 21C18.2652 21 18.5196 20.8946 18.7071 20.7071C18.8946 20.5196 19 20.2652 19 20V4C19 3.73478 18.8946 3.48043 18.7071 3.29289C18.5196 3.10536 18.2652 3 18 3ZM14 7C13.7348 7 13.4804 7.10536 13.2929 7.29289C13.1054 7.48043 13 7.73478 13 8V20C13 20.2652 13.1054 20.5196 13.2929 20.7071C13.4804 20.8946 13.7348 21 14 21C14.2652 21 14.5196 20.8946 14.7071 20.7071C14.8946 20.5196 15 20.2652 15 20V8C15 7.73478 14.8946 7.48043 14.7071 7.29289C14.5196 7.10536 14.2652 7 14 7Z" fill="currentColor"/>
  </symbol>
  <symbol id="ic_4g_bar_none" viewBox="0 0 24 24">
    <path d="M10 17C9.73478 17 9.48043 17.1054 9.29289 17.2929C9.10536 17.4804 9 17.7348 9 18V20C9 20.2652 9.10536 20.5196 9.29289 20.7071C9.48043 20.8946 9.73478 21 10 21C10.2652 21 10.5196 20.8946 10.7071 20.7071C10.8946 20.5196 11 20.2652 11 20V18C11 17.7348 10.8946 17.4804 10.7071 17.2929C10.5196 17.1054 10.2652 17 10 17ZM6 17C5.73478 17 5.48043 17.1054 5.29289 17.2929C5.10536 17.4804 5 17.7348 5 18V20C5 20.2652 5.10536 20.5196 5.29289 20.7071C5.48043 20.8946 5.73478 21 6 21C6.26522 21 6.51957 20.8946 6.70711 20.7071C6.89464 20.5196 7 20.2652 7 20V18C7 17.7348 6.89464 17.4804 6.70711 17.2929C6.51957 17.1054 6.26522 17 6 17ZM14 17C13.7348 17 13.4804 17.1054 13.2929 17.2929C13.1054 17.4804 13 17.7348 13 18V20C13 20.2652 13.1054 20.5196 13.2929 20.7071C13.4804 20.8946 13.7348 21 14 21C14.2652 21 14.5196 20.8946 14.7071 20.7071C14.8946 20.5196 15 20.2652 15 20V18C15 17.7348 14.8946 17.4804 14.7071 17.2929C14.5196 17.1054 14.2652 17 14 17ZM18 17C17.7348 17 17.4804 17.1054 17.2929 17.2929C17.1054 17.4804 17 17.7348 17 18V20C17 20.2652 17.1054 20.5196 17.2929 20.7071C17.4804 20.8946 17.7348 21 18 21C18.2652 21 18.5196 20.8946 18.7071 20.7071C18.8946 20.5196 19 20.2652 19 20V18C19 17.7348 18.8946 17.4804 18.7071 17.2929C18.5196 17.1054 18.2652 17 18 17Z" fill="currentColor"/>
  </symbol>
  <symbol id="ic_4g_bar_one" viewBox="0 0 24 24">
    <path d="M6 15C5.73478 15 5.48043 15.1054 5.29289 15.2929C5.10536 15.4804 5 15.7348 5 16V20C5 20.2652 5.10536 20.5196 5.29289 20.7071C5.48043 20.8946 5.73478 21 6 21C6.26522 21 6.51957 20.8946 6.70711 20.7071C6.89464 20.5196 7 20.2652 7 20V16C7 15.7348 6.89464 15.4804 6.70711 15.2929C6.51957 15.1054 6.26522 15 6 15ZM10 17C9.73478 17 9.48043 17.1054 9.29289 17.2929C9.10536 17.4804 9 17.7348 9 18V20C9 20.2652 9.10536 20.5196 9.29289 20.7071C9.48043 20.8946 9.73478 21 10 21C10.2652 21 10.5196 20.8946 10.7071 20.7071C10.8946 20.5196 11 20.2652 11 20V18C11 17.7348 10.8946 17.4804 10.7071 17.2929C10.5196 17.1054 10.2652 17 10 17ZM18 17C17.7348 17 17.4804 17.1054 17.2929 17.2929C17.1054 17.4804 17 17.7348 17 18V20C17 20.2652 17.1054 20.5196 17.2929 20.7071C17.4804 20.8946 17.7348 21 18 21C18.2652 21 18.5196 20.8946 18.7071 20.7071C18.8946 20.5196 19 20.2652 19 20V18C19 17.7348 18.8946 17.4804 18.7071 17.2929C18.5196 17.1054 18.2652 17 18 17ZM14 17C13.7348 17 13.4804 17.1054 13.2929 17.2929C13.1054 17.4804 13 17.7348 13 18V20C13 20.2652 13.1054 20.5196 13.2929 20.7071C13.4804 20.8946 13.7348 21 14 21C14.2652 21 14.5196 20.8946 14.7071 20.7071C14.8946 20.5196 15 20.2652 15 20V18C15 17.7348 14.8946 17.4804 14.7071 17.2929C14.5196 17.1054 14.2652 17 14 17Z" fill="currentColor"/>
  </symbol>
  <symbol id="ic_4g_bar_three" viewBox="0 0 24 24">
    <path d="M6 15C5.73478 15 5.48043 15.1054 5.29289 15.2929C5.10536 15.4804 5 15.7348 5 16V20C5 20.2652 5.10536 20.5196 5.29289 20.7071C5.48043 20.8946 5.73478 21 6 21C6.26522 21 6.51957 20.8946 6.70711 20.7071C6.89464 20.5196 7 20.2652 7 20V16C7 15.7348 6.89464 15.4804 6.70711 15.2929C6.51957 15.1054 6.26522 15 6 15ZM10 11C9.73478 11 9.48043 11.1054 9.29289 11.2929C9.10536 11.4804 9 11.7348 9 12V20C9 20.2652 9.10536 20.5196 9.29289 20.7071C9.48043 20.8946 9.73478 21 10 21C10.2652 21 10.5196 20.8946 10.7071 20.7071C10.8946 20.5196 11 20.2652 11 20V12C11 11.7348 10.8946 11.4804 10.7071 11.2929C10.5196 11.1054 10.2652 11 10 11ZM14 7C13.7348 7 13.4804 7.10536 13.2929 7.29289C13.1054 7.48043 13 7.73478 13 8V20C13 20.2652 13.1054 20.5196 13.2929 20.7071C13.4804 20.8946 13.7348 21 14 21C14.2652 21 14.5196 20.8946 14.7071 20.7071C14.8946 20.5196 15 20.2652 15 20V8C15 7.73478 14.8946 7.48043 14.7071 7.29289C14.5196 7.10536 14.2652 7 14 7ZM18 17C17.7348 17 17.4804 17.1054 17.2929 17.2929C17.1054 17.4804 17 17.7348 17 18V20C17 20.2652 17.1054 20.5196 17.2929 20.7071C17.4804 20.8946 17.7348 21 18 21C18.2652 21 18.5196 20.8946 18.7071 20.7071C18.8946 20.5196 19 20.2652 19 20V18C19 17.7348 18.8946 17.4804 18.7071 17.2929C18.5196 17.1054 18.2652 17 18 17Z" fill="currentColor"/>
  </symbol>
  <symbol id="ic_4g_bar_two" viewBox="0 0 24 24">
    <path d="M10 11C9.73478 11 9.48043 11.1054 9.29289 11.2929C9.10536 11.4804 9 11.7348 9 12V20C9 20.2652 9.10536 20.5196 9.29289 20.7071C9.48043 20.8946 9.73478 21 10 21C10.2652 21 10.5196 20.8946 10.7071 20.7071C10.8946 20.5196 11 20.2652 11 20V12C11 11.7348 10.8946 11.4804 10.7071 11.2929C10.5196 11.1054 10.2652 11 10 11ZM6 15C5.73478 15 5.48043 15.1054 5.29289 15.2929C5.10536 15.4804 5 15.7348 5 16V20C5 20.2652 5.10536 20.5196 5.29289 20.7071C5.48043 20.8946 5.73478 21 6 21C6.26522 21 6.51957 20.8946 6.70711 20.7071C6.89464 20.5196 7 20.2652 7 20V16C7 15.7348 6.89464 15.4804 6.70711 15.2929C6.51957 15.1054 6.26522 15 6 15ZM18 17C17.7348 17 17.4804 17.1054 17.2929 17.2929C17.1054 17.4804 17 17.7348 17 18V20C17 20.2652 17.1054 20.5196 17.2929 20.7071C17.4804 20.8946 17.7348 21 18 21C18.2652 21 18.5196 20.8946 18.7071 20.7071C18.8946 20.5196 19 20.2652 19 20V18C19 17.7348 18.8946 17.4804 18.7071 17.2929C18.5196 17.1054 18.2652 17 18 17ZM14 17C13.7348 17 13.4804 17.1054 13.2929 17.2929C13.1054 17.4804 13 17.7348 13 18V20C13 20.2652 13.1054 20.5196 13.2929 20.7071C13.4804 20.8946 13.7348 21 14 21C14.2652 21 14.5196 20.8946 14.7071 20.7071C14.8946 20.5196 15 20.2652 15 20V18C15 17.7348 14.8946 17.4804 14.7071 17.2929C14.5196 17.1054 14.2652 17 14 17Z" fill="currentColor"/>
  </symbol>
  <symbol id="ic_4g_lte" viewBox="0 0 24 24">
    <path d="M18 3H6C5.20435 3 4.44129 3.31607 3.87868 3.87868C3.31607 4.44129 3 5.20435 3 6V18C3 18.7956 3.31607 19.5587 3.87868 20.1213C4.44129 20.6839 5.20435 21 6 21H18C18.7956 21 19.5587 20.6839 20.1213 20.1213C20.6839 19.5587 21 18.7956 21 18V6C21 5.20435 20.6839 4.44129 20.1213 3.87868C19.5587 3.31607 18.7956 3 18 3ZM11 8C11.0028 7.61441 11.1171 7.23785 11.329 6.91568C11.5408 6.59351 11.8414 6.33946 12.1943 6.18412C12.5472 6.02879 12.9375 5.9788 13.3182 6.04016C13.6989 6.10153 14.0538 6.27163 14.34 6.53C14.4381 6.62017 14.4964 6.74564 14.502 6.87879C14.5077 7.01194 14.4602 7.14187 14.37 7.24C14.2798 7.33813 14.1544 7.39642 14.0212 7.40205C13.8881 7.40767 13.7581 7.36017 13.66 7.27C13.4807 7.10195 13.2457 7.00584 13 7C12.7348 7 12.4804 7.10536 12.2929 7.29289C12.1054 7.48043 12 7.73478 12 8V9C12 9.26522 12.1054 9.51957 12.2929 9.70711C12.4804 9.89464 12.7348 10 13 10C13.2652 10 13.5196 9.89464 13.7071 9.70711C13.8946 9.51957 14 9.26522 14 9H13.5C13.3674 9 13.2402 8.94732 13.1464 8.85355C13.0527 8.75979 13 8.63261 13 8.5C13 8.36739 13.0527 8.24021 13.1464 8.14645C13.2402 8.05268 13.3674 8 13.5 8H14.5C14.6326 8 14.7598 8.05268 14.8536 8.14645C14.9473 8.24021 15 8.36739 15 8.5V9C15 9.53043 14.7893 10.0391 14.4142 10.4142C14.0391 10.7893 13.5304 11 13 11C12.4696 11 11.9609 10.7893 11.5858 10.4142C11.2107 10.0391 11 9.53043 11 9V8ZM6 9.34L7 6.34C7.02101 6.27434 7.05475 6.21346 7.09929 6.16084C7.14383 6.10822 7.1983 6.06488 7.25958 6.03331C7.32087 6.00174 7.38778 5.98255 7.45648 5.97683C7.52518 5.97112 7.59434 5.97899 7.66 6C7.72566 6.02101 7.78654 6.05475 7.83916 6.09929C7.89178 6.14383 7.93512 6.1983 7.96669 6.25958C7.99826 6.32087 8.01745 6.38778 8.02317 6.45648C8.02888 6.52518 8.02101 6.59434 8 6.66L7.19 9H8V8.5C8 8.36739 8.05268 8.24021 8.14645 8.14645C8.24021 8.05268 8.36739 8 8.5 8C8.63261 8 8.75979 8.05268 8.85355 8.14645C8.94732 8.24021 9 8.36739 9 8.5V9H9.5C9.63261 9 9.75979 9.05268 9.85355 9.14645C9.94732 9.24021 10 9.36739 10 9.5C10 9.63261 9.94732 9.75979 9.85355 9.85355C9.75979 9.94732 9.63261 10 9.5 10H9V10.5C9 10.6326 8.94732 10.7598 8.85355 10.8536C8.75979 10.9473 8.63261 11 8.5 11C8.36739 11 8.24021 10.9473 8.14645 10.8536C8.05268 10.7598 8 10.6326 8 10.5V10H6.5C6.42012 9.99884 6.34158 9.9793 6.27048 9.94288C6.19937 9.90646 6.13762 9.85415 6.09 9.79C6.03862 9.72847 6.00346 9.65506 5.98774 9.57645C5.97202 9.49785 5.97623 9.41656 6 9.34ZM8.5 17.5H6.5C6.36739 17.5 6.24021 17.4473 6.14645 17.3536C6.05268 17.2598 6 17.1326 6 17V13C6 12.8674 6.05268 12.7402 6.14645 12.6464C6.24021 12.5527 6.36739 12.5 6.5 12.5C6.63261 12.5 6.75979 12.5527 6.85355 12.6464C6.94732 12.7402 7 12.8674 7 13V16.5H8.5C8.63261 16.5 8.75979 16.5527 8.85355 16.6464C8.94732 16.7402 9 16.8674 9 17C9 17.1326 8.94732 17.2598 8.85355 17.3536C8.75979 17.4473 8.63261 17.5 8.5 17.5ZM12 13.5H11V17C11 17.1326 10.9473 17.2598 10.8536 17.3536C10.7598 17.4473 10.6326 17.5 10.5 17.5C10.3674 17.5 10.2402 17.4473 10.1464 17.3536C10.0527 17.2598 10 17.1326 10 17V13.5H9C8.86739 13.5 8.74021 13.4473 8.64645 13.3536C8.55268 13.2598 8.5 13.1326 8.5 13C8.5 12.8674 8.55268 12.7402 8.64645 12.6464C8.74021 12.5527 8.86739 12.5 9 12.5H12C12.1326 12.5 12.2598 12.5527 12.3536 12.6464C12.4473 12.7402 12.5 12.8674 12.5 13C12.5 13.1326 12.4473 13.2598 12.3536 13.3536C12.2598 13.4473 12.1326 13.5 12 13.5ZM15 14.5C15.1326 14.5 15.2598 14.5527 15.3536 14.6464C15.4473 14.7402 15.5 14.8674 15.5 15C15.5 15.1326 15.4473 15.2598 15.3536 15.3536C15.2598 15.4473 15.1326 15.5 15 15.5H14V16.5H15.5C15.6326 16.5 15.7598 16.5527 15.8536 16.6464C15.9473 16.7402 16 16.8674 16 17C16 17.1326 15.9473 17.2598 15.8536 17.3536C15.7598 17.4473 15.6326 17.5 15.5 17.5H13.5C13.3674 17.5 13.2402 17.4473 13.1464 17.3536C13.0527 17.2598 13 17.1326 13 17V13C13 12.8674 13.0527 12.7402 13.1464 12.6464C13.2402 12.5527 13.3674 12.5 13.5 12.5H15.5C15.6326 12.5 15.7598 12.5527 15.8536 12.6464C15.9473 12.7402 16 12.8674 16 13C16 13.1326 15.9473 13.2598 15.8536 13.3536C15.7598 13.4473 15.6326 13.5 15.5 13.5H14V14.5H15Z" fill="currentColor"/>
  </symbol>
  <symbol id="ic_4g_lte_data" viewBox="0 0 24 24">
    <path d="M4.99991 9.99994H7.99991V10.9999C7.99991 11.5499 8.44991 11.9999 8.99991 11.9999C9.54991 11.9999 9.99991 11.5499 9.99991 10.9999V9.99994C10.5499 9.99994 10.9999 9.54994 10.9999 8.99994C10.9999 8.44994 10.5499 7.99994 9.99991 7.99994V6.99994C9.99991 6.44994 9.54991 5.99994 8.99991 5.99994C8.44991 5.99994 7.99991 6.44994 7.99991 6.99994V7.99994H6.47991L7.92991 4.36994C8.13991 3.85994 7.88991 3.27994 7.36991 3.06994C6.84991 2.85994 6.27991 3.10994 6.06991 3.62994L4.06991 8.62994C3.94991 8.93994 3.97991 9.28994 4.16991 9.55994C4.35991 9.82994 4.66991 9.99994 4.99991 9.99994ZM15.7499 11.9999C17.8199 11.9999 19.4999 10.3199 19.4999 8.24994V7.49994C19.4999 6.94994 19.0499 6.49994 18.4999 6.49994H16.4999C15.9499 6.49994 15.4999 6.94994 15.4999 7.49994C15.4999 8.04994 15.9499 8.49994 16.4999 8.49994H17.4799C17.3599 9.34994 16.6299 9.99994 15.7499 9.99994C14.7899 9.99994 13.9999 9.20994 13.9999 8.24994V6.74994C13.9999 5.78994 14.7899 4.99994 15.7499 4.99994C16.1599 4.99994 16.5499 5.13994 16.8599 5.39994C17.2899 5.74994 17.9199 5.68994 18.2699 5.26994C18.6199 4.83994 18.5599 4.20994 18.1399 3.85994C17.4699 3.30994 16.6199 2.99994 15.7499 2.99994C13.6799 2.99994 11.9999 4.67994 11.9999 6.74994V8.24994C11.9999 10.3199 13.6799 11.9999 15.7499 11.9999ZM7.99991 18.9999H5.99991V13.9999C5.99991 13.4499 5.54991 12.9999 4.99991 12.9999C4.44991 12.9999 3.99991 13.4499 3.99991 13.9999V19.9999C3.99991 20.5499 4.44991 20.9999 4.99991 20.9999H7.99991C8.54991 20.9999 8.99991 20.5499 8.99991 19.9999C8.99991 19.4499 8.54991 18.9999 7.99991 18.9999ZM13.4999 12.9999H8.49991C7.94991 12.9999 7.49991 13.4499 7.49991 13.9999C7.49991 14.5499 7.94991 14.9999 8.49991 14.9999H9.99991V19.9999C9.99991 20.5499 10.4499 20.9999 10.9999 20.9999C11.5499 20.9999 11.9999 20.5499 11.9999 19.9999V14.9999H13.4999C14.0499 14.9999 14.4999 14.5499 14.4999 13.9999C14.4999 13.4499 14.0499 12.9999 13.4999 12.9999ZM18.9999 18.9999H16.9999V17.9999H18.2499C18.7999 17.9999 19.2499 17.5499 19.2499 16.9999C19.2499 16.4499 18.7999 15.9999 18.2499 15.9999H16.9999V14.9999H18.9999C19.5499 14.9999 19.9999 14.5499 19.9999 13.9999C19.9999 13.4499 19.5499 12.9999 18.9999 12.9999H15.9999C15.4499 12.9999 14.9999 13.4499 14.9999 13.9999V19.9999C14.9999 20.5499 15.4499 20.9999 15.9999 20.9999H18.9999C19.5499 20.9999 19.9999 20.5499 19.9999 19.9999C19.9999 19.4499 19.5499 18.9999 18.9999 18.9999Z" fill="currentColor"/>
  </symbol>
  <symbol id="ic_4g_sim" viewBox="0 0 24 24">
    <path d="M9.50001 17.0002V16.7102L9.21001 17.0002H9.50001ZM18.12 2.88022C17.5579 2.31745 16.7954 2.00092 16 2.00022H11C10.5432 1.99005 10.0905 2.08949 9.68001 2.29022C9.26734 2.48589 8.9048 2.77319 8.62001 3.13022L5.62001 6.83022C5.20873 7.36599 4.99027 8.02487 5.00001 8.70022V19.0002C5.00001 19.7959 5.31608 20.5589 5.87869 21.1215C6.4413 21.6842 7.20436 22.0002 8.00001 22.0002H16C16.7957 22.0002 17.5587 21.6842 18.1213 21.1215C18.6839 20.5589 19 19.7959 19 19.0002V5.00022C18.9993 4.20484 18.6828 3.44229 18.12 2.88022ZM11 18.0002H10.5V18.5002C10.5 18.6328 10.4473 18.76 10.3536 18.8538C10.2598 18.9475 10.1326 19.0002 10 19.0002C9.8674 19.0002 9.74022 18.9475 9.64645 18.8538C9.55268 18.76 9.50001 18.6328 9.50001 18.5002V18.0002H8.00001C7.90129 17.9997 7.80494 17.97 7.72308 17.9149C7.64122 17.8597 7.57752 17.7815 7.54001 17.6902C7.49916 17.6001 7.48781 17.4994 7.50756 17.4024C7.52731 17.3054 7.57716 17.2172 7.65001 17.1502L9.65001 15.1502C9.68644 15.0848 9.74237 15.0324 9.81001 15.0002C9.93174 14.9502 10.0683 14.9502 10.19 15.0002C10.3116 15.0519 10.4084 15.1487 10.46 15.2702C10.4742 15.3328 10.4742 15.3977 10.46 15.4602V17.0002H11C11.1326 17.0002 11.2598 17.0529 11.3536 17.1467C11.4473 17.2404 11.5 17.3676 11.5 17.5002C11.5 17.6328 11.4473 17.76 11.3536 17.8538C11.2598 17.9475 11.1326 18.0002 11 18.0002ZM14.5 19.0002C13.9696 19.0002 13.4609 18.7895 13.0858 18.4144C12.7107 18.0394 12.5 17.5307 12.5 17.0002C12.5 16.4698 12.7107 15.9611 13.0858 15.586C13.4609 15.2109 13.9696 15.0002 14.5 15.0002H15C15.1326 15.0002 15.2598 15.0529 15.3536 15.1467C15.4473 15.2404 15.5 15.3676 15.5 15.5002C15.5 15.6328 15.4473 15.76 15.3536 15.8538C15.2598 15.9475 15.1326 16.0002 15 16.0002H14.5C14.3238 15.9974 14.15 16.0412 13.9962 16.1272C13.8424 16.2131 13.714 16.3382 13.6241 16.4897C13.5342 16.6413 13.4859 16.8139 13.4841 16.9901C13.4823 17.1663 13.5272 17.3398 13.614 17.4931C13.7009 17.6464 13.8267 17.774 13.9788 17.8631C14.1309 17.9521 14.3038 17.9994 14.48 18.0001C14.6562 18.0008 14.8294 17.955 14.9822 17.8672C15.135 17.7794 15.2619 17.6528 15.35 17.5002H15C14.8674 17.5002 14.7402 17.4475 14.6465 17.3538C14.5527 17.26 14.5 17.1328 14.5 17.0002C14.5 16.8676 14.5527 16.7404 14.6465 16.6467C14.7402 16.5529 14.8674 16.5002 15 16.5002H16C16.1326 16.5002 16.2598 16.5529 16.3536 16.6467C16.4473 16.7404 16.5 16.8676 16.5 17.0002C16.5 17.5307 16.2893 18.0394 15.9142 18.4144C15.5391 18.7895 15.0304 19.0002 14.5 19.0002Z" fill="currentColor"/>
  </symbol>
</svg>
