<!-- JioGames DLS — 5g icons (3 icons) -->
<svg xmlns="http://www.w3.org/2000/svg" style="display:none">
  <symbol id="ic_5g" viewBox="0 0 24 24">
    <path d="M7.07021 9.86001C6.68021 9.86001 6.28021 9.92001 5.92021 10.12C5.86021 10.15 5.78021 10.22 5.71021 10.22C5.63021 10.22 5.60021 10.17 5.60021 10.11V8.41001C5.60021 8.28001 5.63021 8.27001 5.74021 8.27001H8.60021C9.28021 8.27001 9.53021 7.85001 9.53021 7.33001C9.53021 6.83001 9.28021 6.35001 8.60021 6.35001H4.49021C3.97021 6.35001 3.59021 6.70001 3.59021 7.28001V11.84C3.59021 12.54 4.10021 12.83 4.73021 12.83C5.16021 12.83 5.36021 12.54 5.65021 12.27C5.92021 12.01 6.27021 11.76 6.72021 11.76C7.89021 11.76 8.13021 12.66 8.13021 13.71C8.13021 15.18 7.53021 15.65 6.72021 15.65C5.96021 15.65 5.42021 15.17 5.19021 14.88C4.94021 14.58 4.73022 14.53 4.53022 14.53C3.98022 14.53 3.47021 15.17 3.47021 15.57C3.47021 15.83 3.63021 16.08 3.75021 16.23C4.10021 16.61 4.97021 17.56 6.77021 17.56C8.79021 17.56 10.1702 16.31 10.1702 13.72C10.1702 11.56 9.32022 9.88001 7.07021 9.88001V9.86001ZM18.8402 10.88H16.5002C15.8502 10.88 15.6202 11.38 15.6202 11.87C15.6202 12.36 15.8602 12.88 16.5002 12.88H17.5102C17.6002 12.88 17.6502 12.91 17.6502 13.02V13.63C17.6502 14.14 17.6002 14.41 17.4002 14.72C16.9102 15.47 16.1802 15.52 15.7602 15.52C15.3402 15.52 14.5302 15.52 14.1202 14.72C13.8002 14.11 13.8002 13.17 13.8002 11.9C13.8002 10.63 13.8202 9.69001 14.1202 9.08001C14.5302 8.25001 15.3802 8.25001 15.8902 8.25001C16.5902 8.25001 16.9802 8.36001 17.6302 8.76001C17.7702 8.86001 17.9302 8.92001 18.1502 8.92001C18.6402 8.92001 19.1602 8.36001 19.1602 7.88001C19.1602 7.45001 18.9202 7.22001 18.6202 7.00001C17.9202 6.47001 17.0102 6.26001 15.8602 6.26001C14.5302 6.26001 13.4602 6.47001 12.6102 7.46001C11.9802 8.20001 11.6802 9.73001 11.6802 11.89C11.6802 14.05 11.9802 15.59 12.6102 16.32C13.4602 17.31 14.4602 17.52 15.7702 17.52C17.0802 17.52 18.1102 17.33 18.9302 16.32C19.5502 15.55 19.6902 14.75 19.6902 13.63V11.71C19.6902 11.18 19.3602 10.86 18.8502 10.86L18.8402 10.88Z" fill="currentColor"/>
  </symbol>
  <symbol id="ic_5g_double_plus" viewBox="0 0 24 24">
    <path d="M6.07992 9.88004C5.72992 9.88004 5.38992 9.94004 5.06992 10.1C5.00992 10.13 4.94992 10.18 4.88992 10.18C4.81992 10.18 4.78992 10.14 4.78992 10.08V8.59004C4.78992 8.48004 4.81992 8.46004 4.90992 8.46004H7.40992C7.99992 8.46004 8.22992 8.10004 8.22992 7.63004C8.22992 7.20004 8.00992 6.78004 7.40992 6.78004H3.81992C3.35992 6.78004 3.02992 7.09004 3.02992 7.59004V11.58C3.02992 12.2 3.46992 12.45 4.02992 12.45C4.39992 12.45 4.57992 12.2 4.82992 11.96C5.06992 11.74 5.36992 11.51 5.76992 11.51C6.78992 11.51 6.99992 12.29 6.99992 13.22C6.99992 14.51 6.46992 14.91 5.76992 14.91C5.10992 14.91 4.63992 14.49 4.42992 14.24C4.20992 13.97 4.02992 13.93 3.84992 13.93C3.36992 13.93 2.91992 14.49 2.91992 14.84C2.91992 15.06 3.05992 15.29 3.16992 15.41C3.46992 15.75 4.22992 16.57 5.80992 16.57C7.57992 16.57 8.77992 15.48 8.77992 13.21C8.77992 11.32 8.02992 9.85004 6.06992 9.85004L6.07992 9.88004ZM15.9099 10.78H13.8599C13.2899 10.78 13.0899 11.21 13.0899 11.65C13.0899 12.09 13.2999 12.53 13.8599 12.53H14.7399C14.8199 12.53 14.8599 12.56 14.8599 12.66V13.19C14.8599 13.64 14.8199 13.88 14.6399 14.14C14.2099 14.8 13.5799 14.84 13.1999 14.84C12.8199 14.84 12.1199 14.84 11.7599 14.14C11.4799 13.61 11.4799 12.78 11.4799 11.67C11.4799 10.56 11.4899 9.74004 11.7599 9.21004C12.1199 8.48004 12.8699 8.48004 13.3099 8.48004C13.9199 8.48004 14.2599 8.58004 14.8299 8.93004C14.9499 9.01004 15.0899 9.07004 15.2899 9.07004C15.7199 9.07004 16.1699 8.58004 16.1699 8.16004C16.1699 7.78004 15.9599 7.59004 15.6999 7.39004C15.0899 6.93004 14.2899 6.75004 13.2799 6.75004C12.1199 6.75004 11.1799 6.93004 10.4299 7.80004C9.87992 8.44004 9.60992 9.79004 9.60992 11.68C9.60992 13.57 9.86992 14.92 10.4299 15.56C11.1799 16.43 12.0499 16.61 13.1899 16.61C14.3299 16.61 15.2399 16.44 15.9499 15.56C16.4899 14.89 16.6099 14.19 16.6099 13.21V11.53C16.6099 11.07 16.3199 10.79 15.8799 10.79L15.9099 10.78ZM21.6299 7.84004H20.1999C20.1299 7.84004 20.0899 7.80004 20.0899 7.73004V6.33004C20.0899 5.93004 19.8099 5.79004 19.4999 5.79004C19.1899 5.79004 18.9099 5.93004 18.9099 6.33004V7.73004C18.9099 7.80004 18.8899 7.84004 18.7999 7.84004H17.3599C16.9799 7.84004 16.8399 8.09004 16.8399 8.40004C16.8399 8.71004 16.9799 8.98004 17.3599 8.98004H18.7999C18.8799 8.98004 18.9099 9.00004 18.9099 9.09004V10.55C18.9099 10.93 19.2099 11.08 19.4999 11.08C19.7899 11.08 20.0899 10.94 20.0899 10.55V9.09004C20.0899 9.01004 20.1299 8.98004 20.1999 8.98004H21.6299C22.0199 8.98004 22.1599 8.70004 22.1599 8.40004C22.1599 8.10004 22.0199 7.84004 21.6299 7.84004ZM21.5099 13.92H20.1099C20.0399 13.92 20.0099 13.88 20.0099 13.81V12.41C20.0099 12.01 19.7299 11.87 19.4299 11.87C19.1299 11.87 18.8499 12.01 18.8499 12.41V13.81C18.8499 13.88 18.8299 13.92 18.7499 13.92H17.3399C16.9699 13.92 16.8299 14.17 16.8299 14.48C16.8299 14.79 16.9699 15.06 17.3399 15.06H18.7499C18.8299 15.06 18.8499 15.08 18.8499 15.17V16.63C18.8499 17.01 19.1399 17.16 19.4299 17.16C19.7199 17.16 20.0099 17.02 20.0099 16.63V15.17C20.0099 15.09 20.0499 15.06 20.1099 15.06H21.5099C21.8899 15.06 22.0299 14.78 22.0299 14.48C22.0299 14.18 21.8899 13.92 21.5099 13.92Z" fill="currentColor"/>
  </symbol>
  <symbol id="ic_5g_plus" viewBox="0 0 24 24">
    <path d="M5.07992 9.88C4.72992 9.88 4.38992 9.94 4.06992 10.1C4.01992 10.13 3.94992 10.18 3.88992 10.18C3.81992 10.18 3.78992 10.14 3.78992 10.08V8.59C3.78992 8.48 3.81992 8.46 3.90992 8.46H6.40992C6.99992 8.46 7.22992 8.1 7.22992 7.63C7.22992 7.2 7.00992 6.78 6.40992 6.78H2.81992C2.35992 6.78 2.02992 7.09 2.02992 7.59V11.58C2.02992 12.2 2.46992 12.45 3.02992 12.45C3.39992 12.45 3.57992 12.2 3.82992 11.96C4.05992 11.74 4.36992 11.51 4.76992 11.51C5.78992 11.51 5.99992 12.29 5.99992 13.22C5.99992 14.51 5.46992 14.91 4.76992 14.91C4.10992 14.91 3.63992 14.49 3.42992 14.24C3.20992 13.97 3.02992 13.93 2.84992 13.93C2.36992 13.93 1.91992 14.49 1.91992 14.84C1.91992 15.06 2.05992 15.29 2.16992 15.41C2.46992 15.75 3.22992 16.57 4.80992 16.57C6.57992 16.57 7.77992 15.48 7.77992 13.21C7.77992 11.32 7.02992 9.85 5.06992 9.85L5.07992 9.88ZM14.9099 10.78H12.8599C12.2899 10.78 12.0899 11.21 12.0899 11.65C12.0899 12.09 12.2999 12.53 12.8599 12.53H13.7399C13.8199 12.53 13.8599 12.56 13.8599 12.66V13.19C13.8599 13.64 13.8199 13.88 13.6399 14.14C13.2099 14.8 12.5799 14.84 12.1999 14.84C11.8199 14.84 11.1199 14.84 10.7599 14.14C10.4799 13.61 10.4799 12.78 10.4799 11.67C10.4799 10.56 10.4899 9.74 10.7599 9.21C11.1199 8.48 11.8699 8.48 12.3099 8.48C12.9199 8.48 13.2599 8.58 13.8299 8.93C13.9499 9.01 14.0899 9.07 14.2899 9.07C14.7199 9.07 15.1699 8.58 15.1699 8.16C15.1699 7.78 14.9599 7.59 14.6999 7.39C14.0899 6.93 13.2899 6.75 12.2799 6.75C11.1199 6.75 10.1799 6.93 9.42992 7.8C8.87992 8.44 8.60992 9.79 8.60992 11.68C8.60992 13.57 8.86992 14.92 9.42992 15.56C10.1799 16.43 11.0499 16.61 12.1899 16.61C13.3299 16.61 14.2399 16.44 14.9499 15.56C15.4899 14.89 15.6099 14.19 15.6099 13.21V11.53C15.6099 11.07 15.3199 10.79 14.8799 10.79L14.9099 10.78ZM21.2599 11.62H19.8299C19.7599 11.62 19.7199 11.58 19.7199 11.51V10.11C19.7199 9.71 19.4399 9.57 19.1299 9.57C18.8199 9.57 18.5399 9.71 18.5399 10.11V11.51C18.5399 11.58 18.5199 11.62 18.4299 11.62H16.9899C16.6099 11.62 16.4699 11.87 16.4699 12.18C16.4699 12.49 16.6099 12.76 16.9899 12.76H18.4299C18.5099 12.76 18.5399 12.78 18.5399 12.87V14.33C18.5399 14.71 18.8399 14.86 19.1299 14.86C19.4199 14.86 19.7199 14.72 19.7199 14.33V12.87C19.7199 12.79 19.7599 12.76 19.8299 12.76H21.2599C21.6499 12.76 21.7899 12.48 21.7899 12.18C21.7899 11.88 21.6499 11.62 21.2599 11.62Z" fill="currentColor"/>
  </symbol>
</svg>
