<!-- JioGames DLS — able icons (3 icons) -->
<svg xmlns="http://www.w3.org/2000/svg" style="display:none">
  <symbol id="ic_cable_box" viewBox="0 0 24 24">
    <path d="M20 16C20.2652 16 20.5196 15.8946 20.7071 15.7071C20.8946 15.5196 21 15.2652 21 15C21 14.7348 20.8946 14.4804 20.7071 14.2929C20.5196 14.1054 20.2652 14 20 14H18C18 13.7348 17.8946 13.4804 17.7071 13.2929C17.5196 13.1054 17.2652 13 17 13H16C15.2044 13 14.4413 13.3161 13.8787 13.8787C13.3161 14.4413 13 15.2044 13 16H6.19C5.88632 16.011 5.59011 15.9044 5.36305 15.7025C5.13599 15.5005 4.9956 15.2188 4.97111 14.9159C4.94662 14.613 5.03992 14.3123 5.23159 14.0765C5.42325 13.8407 5.6985 13.6879 6 13.65L18.4 11.32C19.183 11.1669 19.8812 10.7285 20.3594 10.0899C20.8376 9.45122 21.0617 8.6578 20.9882 7.86337C20.9148 7.06894 20.549 6.33006 19.9618 5.78995C19.3746 5.24984 18.6078 4.94696 17.81 4.94H14C13.9844 4.42004 13.7668 3.92661 13.3934 3.56442C13.02 3.20222 12.5202 2.99977 12 3H5C4.46957 3 3.96086 3.21071 3.58579 3.58579C3.21071 3.96086 3 4.46957 3 5V7C3 7.53043 3.21071 8.03914 3.58579 8.41421C3.96086 8.78929 4.46957 9 5 9H12C12.5304 9 13.0391 8.78929 13.4142 8.41421C13.7893 8.03914 14 7.53043 14 7V6.94H17.81C17.971 6.9412 18.1302 6.97481 18.278 7.03881C18.4257 7.10282 18.5591 7.19591 18.6702 7.31255C18.7812 7.42919 18.8676 7.56699 18.9243 7.71774C18.981 7.86849 19.0067 8.0291 19 8.19C18.9985 8.47069 18.897 8.74167 18.7138 8.95428C18.5305 9.16688 18.2774 9.30719 18 9.35L5.6 11.68C4.82449 11.8324 4.13318 12.2673 3.66005 12.9004C3.18691 13.5335 2.96563 14.3197 3.03909 15.1066C3.11256 15.8935 3.47553 16.6252 4.05767 17.1597C4.63982 17.6943 5.39968 17.9937 6.19 18H13C13 18.7956 13.3161 19.5587 13.8787 20.1213C14.4413 20.6839 15.2044 21 16 21H17C17.2652 21 17.5196 20.8946 17.7071 20.7071C17.8946 20.5196 18 20.2652 18 20H20C20.2652 20 20.5196 19.8946 20.7071 19.7071C20.8946 19.5196 21 19.2652 21 19C21 18.7348 20.8946 18.4804 20.7071 18.2929C20.5196 18.1054 20.2652 18 20 18H18V16H20Z" fill="currentColor"/>
  </symbol>
  <symbol id="ic_cable_plug" viewBox="0 0 24 24">
    <path d="M18 6H16V3C16 2.73478 15.8946 2.48043 15.7071 2.29289C15.5196 2.10536 15.2652 2 15 2C14.7348 2 14.4804 2.10536 14.2929 2.29289C14.1054 2.48043 14 2.73478 14 3V6H10V3C10 2.73478 9.89464 2.48043 9.70711 2.29289C9.51957 2.10536 9.26522 2 9 2C8.73478 2 8.48043 2.10536 8.29289 2.29289C8.10536 2.48043 8 2.73478 8 3V6H6C5.46957 6 4.96086 6.21071 4.58579 6.58579C4.21071 6.96086 4 7.46957 4 8V15C4 15.5304 4.21071 16.0391 4.58579 16.4142C4.96086 16.7893 5.46957 17 6 17H11V21C11 21.2652 11.1054 21.5196 11.2929 21.7071C11.4804 21.8946 11.7348 22 12 22C12.2652 22 12.5196 21.8946 12.7071 21.7071C12.8946 21.5196 13 21.2652 13 21V17H18C18.5304 17 19.0391 16.7893 19.4142 16.4142C19.7893 16.0391 20 15.5304 20 15V8C20 7.46957 19.7893 6.96086 19.4142 6.58579C19.0391 6.21071 18.5304 6 18 6Z" fill="currentColor"/>
  </symbol>
  <symbol id="ic_cable_wires" viewBox="0 0 24 24">
    <path d="M17 12.9998V11.9998C17 11.4498 16.55 10.9998 16 10.9998V9.23977C16 8.70977 16.21 8.20977 16.59 7.82977L17.71 6.70977C18.1 6.31977 18.1 5.68977 17.71 5.29977C17.32 4.90977 16.69 4.90977 16.3 5.29977L15.18 6.41977C14.42 7.17977 14.01 8.17977 14.01 9.24977V11.0098H13.01V4.00977C13.01 3.45977 12.56 3.00977 12.01 3.00977C11.46 3.00977 11.01 3.45977 11.01 4.00977V11.0098H10.01V9.24977C10.01 8.17977 9.59002 7.17977 8.84002 6.41977L7.72002 5.29977C7.33002 4.90977 6.70002 4.90977 6.31002 5.29977C5.92002 5.68977 5.92002 6.31977 6.31002 6.70977L7.43002 7.82977C7.81002 8.20977 8.02002 8.70977 8.02002 9.23977V10.9998C7.47002 10.9998 7.02002 11.4498 7.02002 11.9998V12.9998H6.02002C4.92002 12.9998 4.02002 13.8998 4.02002 14.9998V18.9998C4.02002 20.0998 4.92002 20.9998 6.02002 20.9998H18.02C19.12 20.9998 20.02 20.0998 20.02 18.9998V14.9998C20.02 13.8998 19.12 12.9998 18.02 12.9998H17Z" fill="currentColor"/>
  </symbol>
</svg>
