<!-- JioGames DLS — account icons (2 icons) -->
<svg xmlns="http://www.w3.org/2000/svg" style="display:none">
  <symbol id="ic_account_close" viewBox="0 0 24 24">
    <path d="M7.81 9.70003C8.36 10.25 9.04 10.64 9.78 10.85C10.55 11.07 11.37 11.07 12.14 10.87C12.91 10.67 13.62 10.26 14.19 9.70003C14.76 9.13003 15.16 8.43003 15.36 7.65003C15.56 6.88003 15.56 6.06003 15.34 5.29003C15.14 4.54003 14.74 3.86003 14.19 3.32003C13.64 2.77003 12.96 2.38003 12.22 2.17003C11.45 1.95003 10.63 1.95003 9.86 2.15003C9.09 2.35003 8.38 2.76003 7.81 3.32003C7.24 3.88003 6.84 4.59003 6.64 5.37003C6.44 6.14003 6.44 6.96003 6.66 7.73003C6.86 8.48003 7.26 9.16003 7.81 9.70003Z" fill="currentColor"/>
<path d="M14.42 12.77C13.38 12.28 12.22 12 11 12C6.58 12 3 15.58 3 20V20.03C3 21.12 3.88 22 4.97 22H12.02C11.38 20.99 11 19.79 11 18.5C11 16.02 12.38 13.87 14.42 12.77Z" fill="currentColor"/>
<path d="M18.92 18.5L20.71 16.71C21.1 16.32 21.1 15.68 20.71 15.29C20.32 14.9 19.69 14.9 19.3 15.29L17.5 17.09L15.71 15.29C15.32 14.9 14.69 14.9 14.3 15.29C13.91 15.68 13.91 16.32 14.3 16.71L16.09 18.5L14.3 20.29C13.91 20.68 13.91 21.32 14.3 21.71C14.49 21.9 14.75 22 15 22C15.25 22 15.52 21.9 15.71 21.71L17.5 19.91L19.3 21.71C19.49 21.9 19.75 22 20 22C20.25 22 20.52 21.9 20.71 21.71C21.1 21.32 21.1 20.68 20.71 20.29L18.92 18.5Z" fill="currentColor"/>
  </symbol>
  <symbol id="ic_account_info" viewBox="0 0 24 24">
    <path d="M7 12C5.67392 12 4.40215 12.5268 3.46447 13.4645C2.52678 14.4021 2 15.6739 2 17C2 17.5304 2.21071 18.0391 2.58579 18.4142C2.96086 18.7893 3.46957 19 4 19H10C10.5304 19 11.0391 18.7893 11.4142 18.4142C11.7893 18.0391 12 17.5304 12 17C12 16.3434 11.8707 15.6932 11.6194 15.0866C11.3681 14.48 10.9998 13.9288 10.5355 13.4645C10.0712 13.0002 9.52004 12.6319 8.91342 12.3806C8.30679 12.1293 7.65661 12 7 12ZM7 11C7.59334 11 8.17336 10.8241 8.66671 10.4944C9.16006 10.1648 9.54458 9.69623 9.77164 9.14805C9.9987 8.59987 10.0581 7.99667 9.94236 7.41473C9.8266 6.83279 9.54088 6.29824 9.12132 5.87868C8.70176 5.45912 8.16721 5.1734 7.58527 5.05765C7.00333 4.94189 6.40013 5.0013 5.85195 5.22836C5.30377 5.45543 4.83524 5.83994 4.50559 6.33329C4.17595 6.82664 4 7.40666 4 8C4 8.79565 4.31607 9.55871 4.87868 10.1213C5.44129 10.6839 6.20435 11 7 11ZM21 15H16C15.7348 15 15.4804 15.1054 15.2929 15.2929C15.1054 15.4804 15 15.7348 15 16C15 16.2652 15.1054 16.5196 15.2929 16.7071C15.4804 16.8946 15.7348 17 16 17H21C21.2652 17 21.5196 16.8946 21.7071 16.7071C21.8946 16.5196 22 16.2652 22 16C22 15.7348 21.8946 15.4804 21.7071 15.2929C21.5196 15.1054 21.2652 15 21 15ZM21 9C21.2652 9 21.5196 8.89464 21.7071 8.70711C21.8946 8.51957 22 8.26522 22 8C22 7.73478 21.8946 7.48043 21.7071 7.29289C21.5196 7.10536 21.2652 7 21 7H13C12.7348 7 12.4804 7.10536 12.2929 7.29289C12.1054 7.48043 12 7.73478 12 8C12 8.26522 12.1054 8.51957 12.2929 8.70711C12.4804 8.89464 12.7348 9 13 9H21ZM21 11H14C13.7348 11 13.4804 11.1054 13.2929 11.2929C13.1054 11.4804 13 11.7348 13 12C13 12.2652 13.1054 12.5196 13.2929 12.7071C13.4804 12.8946 13.7348 13 14 13H21C21.2652 13 21.5196 12.8946 21.7071 12.7071C21.8946 12.5196 22 12.2652 22 12C22 11.7348 21.8946 11.4804 21.7071 11.2929C21.5196 11.1054 21.2652 11 21 11Z" fill="currentColor"/>
  </symbol>
</svg>
