<!-- JioGames DLS — air icons (4 icons) -->
<svg xmlns="http://www.w3.org/2000/svg" style="display:none">
  <symbol id="ic_air_conditioner" viewBox="0 0 24 24">
    <path d="M12 15C11.7348 15 11.4804 15.1054 11.2929 15.2929C11.1054 15.4804 11 15.7348 11 16V19C11 19.2652 11.1054 19.5196 11.2929 19.7071C11.4804 19.8946 11.7348 20 12 20C12.2652 20 12.5196 19.8946 12.7071 19.7071C12.8946 19.5196 13 19.2652 13 19V16C13 15.7348 12.8946 15.4804 12.7071 15.2929C12.5196 15.1054 12.2652 15 12 15ZM8 15C7.73478 15 7.48043 15.1054 7.29289 15.2929C7.10536 15.4804 7 15.7348 7 16V17C7 17.2652 6.89464 17.5196 6.70711 17.7071C6.51957 17.8946 6.26522 18 6 18C5.73478 18 5.48043 18.1054 5.29289 18.2929C5.10536 18.4804 5 18.7348 5 19C5 19.2652 5.10536 19.5196 5.29289 19.7071C5.48043 19.8946 5.73478 20 6 20C6.79565 20 7.55871 19.6839 8.12132 19.1213C8.68393 18.5587 9 17.7956 9 17V16C9 15.7348 8.89464 15.4804 8.70711 15.2929C8.51957 15.1054 8.26522 15 8 15ZM18 18C17.7348 18 17.4804 17.8946 17.2929 17.7071C17.1054 17.5196 17 17.2652 17 17V16C17 15.7348 16.8946 15.4804 16.7071 15.2929C16.5196 15.1054 16.2652 15 16 15C15.7348 15 15.4804 15.1054 15.2929 15.2929C15.1054 15.4804 15 15.7348 15 16V17C15 17.7956 15.3161 18.5587 15.8787 19.1213C16.4413 19.6839 17.2044 20 18 20C18.2652 20 18.5196 19.8946 18.7071 19.7071C18.8946 19.5196 19 19.2652 19 19C19 18.7348 18.8946 18.4804 18.7071 18.2929C18.5196 18.1054 18.2652 18 18 18ZM18 4H6C5.20435 4 4.44129 4.31607 3.87868 4.87868C3.31607 5.44129 3 6.20435 3 7V10C3 10.7956 3.31607 11.5587 3.87868 12.1213C4.44129 12.6839 5.20435 13 6 13H18C18.7956 13 19.5587 12.6839 20.1213 12.1213C20.6839 11.5587 21 10.7956 21 10V7C21 6.20435 20.6839 5.44129 20.1213 4.87868C19.5587 4.31607 18.7956 4 18 4ZM17 10H7C6.73478 10 6.48043 9.89464 6.29289 9.70711C6.10536 9.51957 6 9.26522 6 9C6 8.73478 6.10536 8.48043 6.29289 8.29289C6.48043 8.10536 6.73478 8 7 8H17C17.2652 8 17.5196 8.10536 17.7071 8.29289C17.8946 8.48043 18 8.73478 18 9C18 9.26522 17.8946 9.51957 17.7071 9.70711C17.5196 9.89464 17.2652 10 17 10Z" fill="currentColor"/>
  </symbol>
  <symbol id="ic_air_dry" viewBox="0 0 24 24">
    <path d="M11 9.00008C11 9.26529 11.1054 9.51965 11.2929 9.70718C11.4804 9.89472 11.7348 10.0001 12 10.0001C13.5558 10.0338 15.0923 9.65052 16.45 8.89008C17.5292 8.27312 18.7574 7.9652 20 8.00008C20.2652 8.00008 20.5196 7.89472 20.7071 7.70718C20.8946 7.51965 21 7.26529 21 7.00008C21 6.73486 20.8946 6.48051 20.7071 6.29297C20.5196 6.10543 20.2652 6.00008 20 6.00008C18.4442 5.96638 16.9077 6.34963 15.55 7.11008C14.4708 7.72704 13.2426 8.03496 12 8.00008C11.7348 8.00008 11.4804 8.10543 11.2929 8.29297C11.1054 8.48051 11 8.73486 11 9.00008ZM9 17.0001V9.00008C8.99979 8.21641 9.30623 7.46377 9.85379 6.90313C10.4013 6.34249 11.1465 6.01836 11.93 6.00008L10.29 3.40008C10.1965 3.27963 10.0767 3.18216 9.93983 3.1151C9.8029 3.04804 9.65246 3.01318 9.5 3.01318C9.34754 3.01318 9.1971 3.04804 9.06017 3.1151C8.92325 3.18216 8.80347 3.27963 8.71 3.40008L4.2 10.5401C3.41974 11.784 3.004 13.2217 3 14.6901C3.02895 16.3876 3.72911 18.0045 4.94727 19.187C6.16542 20.3696 7.80239 21.0215 9.5 21.0001C10.7373 21.0014 11.9501 20.6549 13 20.0001H12C11.2044 20.0001 10.4413 19.684 9.87868 19.1214C9.31607 18.5588 9 17.7957 9 17.0001ZM20 10.0001C18.4442 9.96638 16.9077 10.3496 15.55 11.1101C14.4708 11.727 13.2426 12.035 12 12.0001C11.7348 12.0001 11.4804 12.1054 11.2929 12.293C11.1054 12.4805 11 12.7349 11 13.0001C11 13.2653 11.1054 13.5196 11.2929 13.7072C11.4804 13.8947 11.7348 14.0001 12 14.0001C13.5558 14.0338 15.0923 13.6505 16.45 12.8901C17.5292 12.2731 18.7574 11.9652 20 12.0001C20.2652 12.0001 20.5196 11.8947 20.7071 11.7072C20.8946 11.5196 21 11.2653 21 11.0001C21 10.7349 20.8946 10.4805 20.7071 10.293C20.5196 10.1054 20.2652 10.0001 20 10.0001ZM20 14.0001C18.4442 13.9664 16.9077 14.3496 15.55 15.1101C14.4708 15.727 13.2426 16.035 12 16.0001C11.7348 16.0001 11.4804 16.1054 11.2929 16.293C11.1054 16.4805 11 16.7349 11 17.0001C11 17.2653 11.1054 17.5196 11.2929 17.7072C11.4804 17.8947 11.7348 18.0001 12 18.0001C13.5558 18.0338 15.0923 17.6505 16.45 16.8901C17.5292 16.2731 18.7574 15.9652 20 16.0001C20.2652 16.0001 20.5196 15.8947 20.7071 15.7072C20.8946 15.5196 21 15.2653 21 15.0001C21 14.7349 20.8946 14.4805 20.7071 14.293C20.5196 14.1054 20.2652 14.0001 20 14.0001Z" fill="currentColor"/>
  </symbol>
  <symbol id="ic_air_filter_clean" viewBox="0 0 24 24">
    <path d="M14 17.82C14.36 16.74 14.58 15.48 12.6 14.17C12.4916 14.0827 12.3663 14.019 12.2319 13.9829C12.0975 13.9469 11.9571 13.9393 11.8196 13.9606C11.6821 13.9819 11.5505 14.0316 11.4333 14.1067C11.3162 14.1817 11.216 14.2804 11.1391 14.3964C11.0622 14.5124 11.0104 14.6431 10.987 14.7803C10.9635 14.9174 10.969 15.058 11.003 15.1929C11.0369 15.3278 11.0987 15.4542 11.1843 15.5639C11.2698 15.6736 11.3774 15.7642 11.5 15.83C12.36 16.41 12.31 16.56 12.1 17.18C11.74 18.26 11.52 19.52 13.5 20.83C13.647 20.9333 13.8205 20.9923 14 21C14.2136 20.9984 14.4212 20.9283 14.5921 20.8002C14.7631 20.672 14.8885 20.4925 14.95 20.2879C15.0115 20.0832 15.0058 19.8643 14.9338 19.6631C14.8619 19.462 14.7273 19.2892 14.55 19.17C13.69 18.59 13.74 18.44 14 17.82ZM9 17.82C9.36 16.74 9.58 15.48 7.6 14.17C7.38043 14.0522 7.1248 14.0207 6.88318 14.0815C6.64156 14.1423 6.43134 14.2911 6.29371 14.4988C6.15608 14.7065 6.10094 14.9581 6.1391 15.2044C6.17726 15.4506 6.30596 15.6737 6.5 15.83C7.36 16.41 7.31 16.56 7.1 17.18C6.74 18.26 6.52 19.52 8.5 20.83C8.647 20.9333 8.82051 20.9923 9 21C9.21365 20.9984 9.42115 20.9283 9.5921 20.8002C9.76305 20.672 9.88847 20.4925 9.94996 20.2879C10.0115 20.0832 10.0058 19.8643 9.93383 19.6631C9.86185 19.462 9.72734 19.2892 9.55 19.17C8.69 18.59 8.74 18.44 9 17.82ZM18 3H6C5.20435 3 4.44129 3.31607 3.87868 3.87868C3.31607 4.44129 3 5.20435 3 6V9C3 9.79565 3.31607 10.5587 3.87868 11.1213C4.44129 11.6839 5.20435 12 6 12H18C18.7956 12 19.5587 11.6839 20.1213 11.1213C20.6839 10.5587 21 9.79565 21 9V6C21 5.20435 20.6839 4.44129 20.1213 3.87868C19.5587 3.31607 18.7956 3 18 3ZM17 9H7C6.73478 9 6.48043 8.89464 6.29289 8.70711C6.10536 8.51957 6 8.26522 6 8C6 7.73478 6.10536 7.48043 6.29289 7.29289C6.48043 7.10536 6.73478 7 7 7H17C17.2652 7 17.5196 7.10536 17.7071 7.29289C17.8946 7.48043 18 7.73478 18 8C18 8.26522 17.8946 8.51957 17.7071 8.70711C17.5196 8.89464 17.2652 9 17 9ZM19 17.82C19.36 16.74 19.58 15.48 17.6 14.17C17.4916 14.0827 17.3663 14.019 17.2319 13.9829C17.0975 13.9469 16.9571 13.9393 16.8196 13.9606C16.6821 13.9819 16.5505 14.0316 16.4333 14.1067C16.3162 14.1817 16.216 14.2804 16.1391 14.3964C16.0622 14.5124 16.0104 14.6431 15.987 14.7803C15.9635 14.9174 15.969 15.058 16.003 15.1929C16.0369 15.3278 16.0987 15.4542 16.1843 15.5639C16.2698 15.6736 16.3774 15.7642 16.5 15.83C17.36 16.41 17.31 16.56 17.1 17.18C16.74 18.26 16.52 19.52 18.5 20.83C18.647 20.9333 18.8205 20.9923 19 21C19.2136 20.9984 19.4212 20.9283 19.5921 20.8002C19.7631 20.672 19.8885 20.4925 19.95 20.2879C20.0115 20.0832 20.0058 19.8643 19.9338 19.6631C19.8619 19.462 19.7273 19.2892 19.55 19.17C18.69 18.59 18.74 18.44 19 17.82Z" fill="currentColor"/>
  </symbol>
  <symbol id="ic_air_purification_mode" viewBox="0 0 24 24">
    <path d="M4 7C4.19778 7 4.39112 6.94135 4.55557 6.83147C4.72002 6.72159 4.84819 6.56541 4.92388 6.38268C4.99957 6.19996 5.01937 5.99889 4.98079 5.80491C4.9422 5.61093 4.84696 5.43275 4.70711 5.29289C4.56725 5.15304 4.38907 5.0578 4.19509 5.01921C4.00111 4.98063 3.80004 5.00043 3.61732 5.07612C3.43459 5.15181 3.27841 5.27998 3.16853 5.44443C3.05865 5.60888 3 5.80222 3 6C3 6.26522 3.10536 6.51957 3.29289 6.70711C3.48043 6.89464 3.73478 7 4 7ZM4 17C3.80222 17 3.60888 17.0586 3.44443 17.1685C3.27998 17.2784 3.15181 17.4346 3.07612 17.6173C3.00043 17.8 2.98063 18.0011 3.01922 18.1951C3.0578 18.3891 3.15304 18.5673 3.29289 18.7071C3.43275 18.847 3.61093 18.9422 3.80491 18.9808C3.99889 19.0194 4.19996 18.9996 4.38268 18.9239C4.56541 18.8482 4.72159 18.72 4.83147 18.5556C4.94135 18.3911 5 18.1978 5 18C5 17.7348 4.89464 17.4804 4.70711 17.2929C4.51957 17.1054 4.26522 17 4 17ZM4 13C4.19778 13 4.39112 12.9414 4.55557 12.8315C4.72002 12.7216 4.84819 12.5654 4.92388 12.3827C4.99957 12.2 5.01937 11.9989 4.98079 11.8049C4.9422 11.6109 4.84696 11.4327 4.70711 11.2929C4.56725 11.153 4.38907 11.0578 4.19509 11.0192C4.00111 10.9806 3.80004 11.0004 3.61732 11.0761C3.43459 11.1518 3.27841 11.28 3.16853 11.4444C3.05865 11.6089 3 11.8022 3 12C3 12.2652 3.10536 12.5196 3.29289 12.7071C3.48043 12.8946 3.73478 13 4 13ZM6 14C5.80222 14 5.60888 14.0586 5.44443 14.1685C5.27998 14.2784 5.15181 14.4346 5.07612 14.6173C5.00043 14.8 4.98063 15.0011 5.01922 15.1951C5.0578 15.3891 5.15304 15.5673 5.29289 15.7071C5.43275 15.847 5.61093 15.9422 5.80491 15.9808C5.99889 16.0194 6.19996 15.9996 6.38268 15.9239C6.56541 15.8482 6.72159 15.72 6.83147 15.5556C6.94135 15.3911 7 15.1978 7 15C7 14.7348 6.89464 14.4804 6.70711 14.2929C6.51957 14.1054 6.26522 14 6 14ZM6 8C5.80222 8 5.60888 8.05865 5.44443 8.16853C5.27998 8.27841 5.15181 8.43459 5.07612 8.61732C5.00043 8.80004 4.98063 9.00111 5.01922 9.19509C5.0578 9.38907 5.15304 9.56725 5.29289 9.70711C5.43275 9.84696 5.61093 9.9422 5.80491 9.98079C5.99889 10.0194 6.19996 9.99957 6.38268 9.92388C6.56541 9.84819 6.72159 9.72002 6.83147 9.55557C6.94135 9.39112 7 9.19778 7 9C7 8.73478 6.89464 8.48043 6.70711 8.29289C6.51957 8.10536 6.26522 8 6 8ZM18.71 13.29C18.5217 13.1017 18.2663 12.9959 18 12.9959C17.7337 12.9959 17.4783 13.1017 17.29 13.29C17.1017 13.4783 16.9959 13.7337 16.9959 14C16.9959 14.2663 17.1017 14.5217 17.29 14.71L17.59 15H13V9H17.59L17.29 9.29C17.1963 9.38296 17.1219 9.49356 17.0711 9.61542C17.0203 9.73728 16.9942 9.86799 16.9942 10C16.9942 10.132 17.0203 10.2627 17.0711 10.3846C17.1219 10.5064 17.1963 10.617 17.29 10.71C17.383 10.8037 17.4936 10.8781 17.6154 10.9289C17.7373 10.9797 17.868 11.0058 18 11.0058C18.132 11.0058 18.2627 10.9797 18.3846 10.9289C18.5064 10.8781 18.617 10.8037 18.71 10.71L20.71 8.71C20.8037 8.61704 20.8781 8.50644 20.9289 8.38458C20.9797 8.26272 21.0058 8.13201 21.0058 8C21.0058 7.86799 20.9797 7.73728 20.9289 7.61542C20.8781 7.49356 20.8037 7.38296 20.71 7.29L18.71 5.29C18.6168 5.19676 18.5061 5.1228 18.3842 5.07234C18.2624 5.02188 18.1319 4.99591 18 4.99591C17.7337 4.99591 17.4783 5.1017 17.29 5.29C17.1017 5.4783 16.9959 5.7337 16.9959 6C16.9959 6.2663 17.1017 6.5217 17.29 6.71L17.59 7H13V4C13 3.73478 12.8946 3.48043 12.7071 3.29289C12.5196 3.10536 12.2652 3 12 3H10C9.73478 3 9.48043 3.10536 9.29289 3.29289C9.10536 3.48043 9 3.73478 9 4V20C9 20.2652 9.10536 20.5196 9.29289 20.7071C9.48043 20.8946 9.73478 21 10 21H12C12.2652 21 12.5196 20.8946 12.7071 20.7071C12.8946 20.5196 13 20.2652 13 20V17H17.59L17.29 17.29C17.1963 17.383 17.1219 17.4936 17.0711 17.6154C17.0203 17.7373 16.9942 17.868 16.9942 18C16.9942 18.132 17.0203 18.2627 17.0711 18.3846C17.1219 18.5064 17.1963 18.617 17.29 18.71C17.383 18.8037 17.4936 18.8781 17.6154 18.9289C17.7373 18.9797 17.868 19.0058 18 19.0058C18.132 19.0058 18.2627 18.9797 18.3846 18.9289C18.5064 18.8781 18.617 18.8037 18.71 18.71L20.71 16.71C20.8037 16.617 20.8781 16.5064 20.9289 16.3846C20.9797 16.2627 21.0058 16.132 21.0058 16C21.0058 15.868 20.9797 15.7373 20.9289 15.6154C20.8781 15.4936 20.8037 15.383 20.71 15.29L18.71 13.29Z" fill="currentColor"/>
  </symbol>
</svg>
