<!-- JioGames DLS — alarm icons (3 icons) -->
<svg xmlns="http://www.w3.org/2000/svg" style="display:none">
  <symbol id="ic_alarm" viewBox="0 0 24 24">
    <path d="M3.88011 6.71011L6.71011 3.88011C6.89841 3.6918 7.0042 3.43641 7.0042 3.17011C7.0042 2.90381 6.89841 2.64841 6.71011 2.46011C6.5218 2.2718 6.26641 2.16602 6.00011 2.16602C5.73381 2.16602 5.47841 2.2718 5.29011 2.46011L2.46011 5.29011C2.2718 5.47841 2.16602 5.73381 2.16602 6.00011C2.16602 6.26641 2.2718 6.5218 2.46011 6.71011C2.64841 6.89841 2.90381 7.0042 3.17011 7.0042C3.43641 7.0042 3.6918 6.89841 3.88011 6.71011ZM21.5401 5.29011L18.7101 2.46011C18.6169 2.36687 18.5062 2.29291 18.3844 2.24245C18.2625 2.19199 18.132 2.16602 18.0001 2.16602C17.7338 2.16602 17.4784 2.2718 17.2901 2.46011C17.1018 2.64841 16.996 2.90381 16.996 3.17011C16.996 3.43641 17.1018 3.6918 17.2901 3.88011L20.1201 6.71011C20.3084 6.89841 20.5638 7.0042 20.8301 7.0042C21.0964 7.0042 21.3518 6.89841 21.5401 6.71011C21.7284 6.5218 21.8342 6.26641 21.8342 6.00011C21.8342 5.73381 21.7284 5.47841 21.5401 5.29011ZM12.0001 4.00011C10.3723 4.00432 8.77612 4.44994 7.38153 5.2895C5.98693 6.12906 4.84615 7.33114 4.08066 8.76773C3.31516 10.2043 2.95362 11.8216 3.03453 13.4474C3.11543 15.0732 3.63576 16.6466 4.54011 18.0001L3.29011 19.2901C3.1018 19.4784 2.99602 19.7338 2.99602 20.0001C2.99602 20.2664 3.1018 20.5218 3.29011 20.7101C3.47841 20.8984 3.73381 21.0042 4.00011 21.0042C4.26641 21.0042 4.5218 20.8984 4.71011 20.7101L5.85011 19.5601C7.51763 21.1208 9.71616 21.9891 12.0001 21.9891C14.2841 21.9891 16.4826 21.1208 18.1501 19.5601L19.2901 20.7101C19.4784 20.8984 19.7338 21.0042 20.0001 21.0042C20.2664 21.0042 20.5218 20.8984 20.7101 20.7101C20.8984 20.5218 21.0042 20.2664 21.0042 20.0001C21.0042 19.7338 20.8984 19.4784 20.7101 19.2901L19.4601 18.0001C20.3644 16.6466 20.8848 15.0732 20.9657 13.4474C21.0466 11.8216 20.6851 10.2043 19.9196 8.76773C19.1541 7.33114 18.0133 6.12906 16.6187 5.2895C15.2241 4.44994 13.6279 4.00432 12.0001 4.00011ZM14.1201 15.1201C13.9327 15.3064 13.6793 15.4109 13.4151 15.4109C13.1509 15.4109 12.8975 15.3064 12.7101 15.1201L11.2901 13.7101C11.2018 13.6129 11.1307 13.5013 11.0801 13.3801C11.0289 13.2599 11.0017 13.1308 11.0001 13.0001V8.00011C11.0001 7.73489 11.1055 7.48054 11.293 7.293C11.4805 7.10546 11.7349 7.00011 12.0001 7.00011C12.2653 7.00011 12.5197 7.10546 12.7072 7.293C12.8948 7.48054 13.0001 7.73489 13.0001 8.00011V12.5901L14.1201 13.7101C14.3064 13.8975 14.4109 14.1509 14.4109 14.4151C14.4109 14.6793 14.3064 14.9327 14.1201 15.1201Z" fill="currentColor"/>
  </symbol>
  <symbol id="ic_alarm_off" viewBox="0 0 24 24">
    <path d="M11.0001 8.76011V8.00011C11.0001 7.73489 11.1055 7.48054 11.293 7.293C11.4805 7.10546 11.7349 7.00011 12.0001 7.00011C12.2036 7.00369 12.4004 7.07395 12.5601 7.20011L15.1701 4.59011C14.1589 4.19966 13.0841 3.99962 12.0001 4.00011C9.61316 4.00011 7.32397 4.94832 5.63615 6.63615C3.94832 8.32397 3.00011 10.6132 3.00011 13.0001C3.00313 14.0815 3.20656 15.1529 3.60011 16.1601L11.0001 8.76011ZM3.88011 6.76011L6.71011 3.88011C6.89841 3.6918 7.0042 3.43641 7.0042 3.17011C7.0042 2.90381 6.89841 2.64841 6.71011 2.46011C6.5218 2.2718 6.26641 2.16602 6.00011 2.16602C5.73381 2.16602 5.47841 2.2718 5.29011 2.46011L2.46011 5.29011C2.2718 5.47841 2.16602 5.73381 2.16602 6.00011C2.16602 6.26641 2.2718 6.5218 2.46011 6.71011C2.64841 6.89841 2.90381 7.0042 3.17011 7.0042C3.43641 7.0042 3.6918 6.89841 3.88011 6.71011V6.76011ZM19.4601 18.0001C20.5965 16.3119 21.1271 14.2883 20.9655 12.2597C20.8039 10.2311 19.9595 8.3171 18.5701 6.83011L20.4901 5.00011C20.5879 4.90227 20.6655 4.78613 20.7185 4.6583C20.7714 4.53047 20.7987 4.39347 20.7987 4.25511C20.7987 4.11675 20.7714 3.97974 20.7185 3.85192C20.6655 3.72409 20.5879 3.60794 20.4901 3.51011C20.3923 3.41227 20.2761 3.33467 20.1483 3.28172C20.0205 3.22877 19.8835 3.20152 19.7451 3.20152C19.6067 3.20152 19.4697 3.22877 19.3419 3.28172C19.2141 3.33467 19.0979 3.41227 19.0001 3.51011L3.51011 19.0001C3.41227 19.0979 3.33467 19.2141 3.28172 19.3419C3.22877 19.4697 3.20152 19.6067 3.20152 19.7451C3.20152 19.8835 3.22877 20.0205 3.28172 20.1483C3.33467 20.2761 3.41227 20.3923 3.51011 20.4901C3.70769 20.6877 3.97568 20.7987 4.25511 20.7987C4.39347 20.7987 4.53047 20.7714 4.6583 20.7185C4.78613 20.6655 4.90227 20.5879 5.00011 20.4901L5.91011 19.5701C7.57655 21.125 9.77089 21.9898 12.0501 21.9898C14.3293 21.9898 16.5237 21.125 18.1901 19.5701L19.3301 20.7201C19.5184 20.9084 19.7738 21.0142 20.0401 21.0142C20.3064 21.0142 20.5618 20.9084 20.7501 20.7201C20.9384 20.5318 21.0442 20.2764 21.0442 20.0101C21.0442 19.7438 20.9384 19.4884 20.7501 19.3001L19.4601 18.0001ZM14.1201 15.0801C13.9327 15.2664 13.6793 15.3709 13.4151 15.3709C13.1509 15.3709 12.8975 15.2664 12.7101 15.0801L11.5101 13.8901L13.0001 12.4401V12.5901L14.1201 13.7101C14.3064 13.8975 14.4109 14.1509 14.4109 14.4151C14.4109 14.6793 14.3064 14.9327 14.1201 15.1201V15.0801Z" fill="currentColor"/>
  </symbol>
  <symbol id="ic_alarm_sensor" viewBox="0 0 24 24">
    <path d="M12 22.0002C12.5304 22.0002 13.0391 21.7895 13.4142 21.4144C13.7893 21.0393 14 20.5306 14 20.0002H10C10 20.5306 10.2107 21.0393 10.5858 21.4144C10.9609 21.7895 11.4696 22.0002 12 22.0002ZM16 17.0002V14.0002C16 12.9393 15.5786 11.9219 14.8284 11.1717C14.0783 10.4216 13.0609 10.0002 12 10.0002C10.9391 10.0002 9.92173 10.4216 9.17158 11.1717C8.42144 11.9219 8.00001 12.9393 8.00001 14.0002V17.0002C7.73479 17.0002 7.48044 17.1055 7.2929 17.2931C7.10537 17.4806 7.00001 17.7349 7.00001 18.0002C7.00001 18.2654 7.10537 18.5197 7.2929 18.7073C7.48044 18.8948 7.73479 19.0002 8.00001 19.0002H16C16.2652 19.0002 16.5196 18.8948 16.7071 18.7073C16.8947 18.5197 17 18.2654 17 18.0002C17 17.7349 16.8947 17.4806 16.7071 17.2931C16.5196 17.1055 16.2652 17.0002 16 17.0002ZM9.61001 8.82016C10.3006 8.30559 11.1388 8.02764 12 8.02764C12.8612 8.02764 13.6994 8.30559 14.39 8.82016C14.6009 8.98195 14.8673 9.05334 15.1308 9.01865C15.3943 8.98396 15.6332 8.84601 15.795 8.63517C15.9568 8.42432 16.0282 8.15784 15.9935 7.89435C15.9588 7.63086 15.8209 7.39195 15.61 7.23017C14.5696 6.44649 13.3025 6.02265 12 6.02265C10.6975 6.02265 9.43038 6.44649 8.39001 7.23017C8.28561 7.31027 8.19801 7.41016 8.13221 7.52412C8.06641 7.63808 8.0237 7.76388 8.00652 7.89435C7.98934 8.02482 7.99803 8.15739 8.03209 8.2845C8.06614 8.41161 8.1249 8.53076 8.20501 8.63517C8.36679 8.84601 8.60571 8.98396 8.86919 9.01865C8.99966 9.03583 9.13223 9.02714 9.25934 8.99309C9.38645 8.95903 9.50561 8.90027 9.61001 8.82016ZM18.67 4.56016C16.8362 2.91847 14.4613 2.01074 12 2.01074C9.53869 2.01074 7.16383 2.91847 5.33001 4.56016C5.13242 4.73786 5.01352 4.98677 4.99945 5.25213C4.98539 5.5175 5.07731 5.77758 5.25501 5.97516C5.4327 6.17275 5.68161 6.29166 5.94698 6.30572C6.21234 6.31979 6.47242 6.22786 6.67001 6.05017C8.13632 4.74013 10.0337 4.01599 12 4.01599C13.9663 4.01599 15.8637 4.74013 17.33 6.05017C17.5149 6.21323 17.7535 6.30227 18 6.30017C18.1373 6.30367 18.2739 6.27885 18.4013 6.22723C18.5286 6.17562 18.6439 6.09832 18.74 6.00016C18.8324 5.90226 18.9041 5.7867 18.9507 5.66041C18.9974 5.53413 19.0181 5.39973 19.0116 5.26526C19.005 5.1308 18.9714 4.99903 18.9127 4.87787C18.854 4.75671 18.7715 4.64865 18.67 4.56016Z" fill="currentColor"/>
  </symbol>
</svg>
