<!-- JioGames DLS — alculator icons (2 icons) -->
<svg xmlns="http://www.w3.org/2000/svg" style="display:none">
  <symbol id="ic_calculator" viewBox="0 0 24 24">
    <path d="M17 2H7C6.20435 2 5.44129 2.31607 4.87868 2.87868C4.31607 3.44129 4 4.20435 4 5V19C4 19.7956 4.31607 20.5587 4.87868 21.1213C5.44129 21.6839 6.20435 22 7 22H17C17.7956 22 18.5587 21.6839 19.1213 21.1213C19.6839 20.5587 20 19.7956 20 19V5C20 4.20435 19.6839 3.44129 19.1213 2.87868C18.5587 2.31607 17.7956 2 17 2ZM8 19C7.80222 19 7.60888 18.9414 7.44443 18.8315C7.27998 18.7216 7.15181 18.5654 7.07612 18.3827C7.00043 18.2 6.98063 17.9989 7.01921 17.8049C7.0578 17.6109 7.15304 17.4327 7.29289 17.2929C7.43275 17.153 7.61093 17.0578 7.80491 17.0192C7.99889 16.9806 8.19996 17.0004 8.38268 17.0761C8.56541 17.1518 8.72159 17.28 8.83147 17.4444C8.94135 17.6089 9 17.8022 9 18C9 18.2652 8.89464 18.5196 8.70711 18.7071C8.51957 18.8946 8.26522 19 8 19ZM8 15.5C7.80222 15.5 7.60888 15.4414 7.44443 15.3315C7.27998 15.2216 7.15181 15.0654 7.07612 14.8827C7.00043 14.7 6.98063 14.4989 7.01921 14.3049C7.0578 14.1109 7.15304 13.9327 7.29289 13.7929C7.43275 13.653 7.61093 13.5578 7.80491 13.5192C7.99889 13.4806 8.19996 13.5004 8.38268 13.5761C8.56541 13.6518 8.72159 13.78 8.83147 13.9444C8.94135 14.1089 9 14.3022 9 14.5C9 14.7652 8.89464 15.0196 8.70711 15.2071C8.51957 15.3946 8.26522 15.5 8 15.5ZM8 12C7.80222 12 7.60888 11.9414 7.44443 11.8315C7.27998 11.7216 7.15181 11.5654 7.07612 11.3827C7.00043 11.2 6.98063 10.9989 7.01921 10.8049C7.0578 10.6109 7.15304 10.4327 7.29289 10.2929C7.43275 10.153 7.61093 10.0578 7.80491 10.0192C7.99889 9.98063 8.19996 10.0004 8.38268 10.0761C8.56541 10.1518 8.72159 10.28 8.83147 10.4444C8.94135 10.6089 9 10.8022 9 11C9 11.2652 8.89464 11.5196 8.70711 11.7071C8.51957 11.8946 8.26522 12 8 12ZM12 19C11.8022 19 11.6089 18.9414 11.4444 18.8315C11.28 18.7216 11.1518 18.5654 11.0761 18.3827C11.0004 18.2 10.9806 17.9989 11.0192 17.8049C11.0578 17.6109 11.153 17.4327 11.2929 17.2929C11.4327 17.153 11.6109 17.0578 11.8049 17.0192C11.9989 16.9806 12.2 17.0004 12.3827 17.0761C12.5654 17.1518 12.7216 17.28 12.8315 17.4444C12.9414 17.6089 13 17.8022 13 18C13 18.2652 12.8946 18.5196 12.7071 18.7071C12.5196 18.8946 12.2652 19 12 19ZM12 15.5C11.8022 15.5 11.6089 15.4414 11.4444 15.3315C11.28 15.2216 11.1518 15.0654 11.0761 14.8827C11.0004 14.7 10.9806 14.4989 11.0192 14.3049C11.0578 14.1109 11.153 13.9327 11.2929 13.7929C11.4327 13.653 11.6109 13.5578 11.8049 13.5192C11.9989 13.4806 12.2 13.5004 12.3827 13.5761C12.5654 13.6518 12.7216 13.78 12.8315 13.9444C12.9414 14.1089 13 14.3022 13 14.5C13 14.7652 12.8946 15.0196 12.7071 15.2071C12.5196 15.3946 12.2652 15.5 12 15.5ZM12 12C11.8022 12 11.6089 11.9414 11.4444 11.8315C11.28 11.7216 11.1518 11.5654 11.0761 11.3827C11.0004 11.2 10.9806 10.9989 11.0192 10.8049C11.0578 10.6109 11.153 10.4327 11.2929 10.2929C11.4327 10.153 11.6109 10.0578 11.8049 10.0192C11.9989 9.98063 12.2 10.0004 12.3827 10.0761C12.5654 10.1518 12.7216 10.28 12.8315 10.4444C12.9414 10.6089 13 10.8022 13 11C13 11.2652 12.8946 11.5196 12.7071 11.7071C12.5196 11.8946 12.2652 12 12 12ZM16 19C15.8022 19 15.6089 18.9414 15.4444 18.8315C15.28 18.7216 15.1518 18.5654 15.0761 18.3827C15.0004 18.2 14.9806 17.9989 15.0192 17.8049C15.0578 17.6109 15.153 17.4327 15.2929 17.2929C15.4327 17.153 15.6109 17.0578 15.8049 17.0192C15.9989 16.9806 16.2 17.0004 16.3827 17.0761C16.5654 17.1518 16.7216 17.28 16.8315 17.4444C16.9414 17.6089 17 17.8022 17 18C17 18.2652 16.8946 18.5196 16.7071 18.7071C16.5196 18.8946 16.2652 19 16 19ZM16 15.5C15.8022 15.5 15.6089 15.4414 15.4444 15.3315C15.28 15.2216 15.1518 15.0654 15.0761 14.8827C15.0004 14.7 14.9806 14.4989 15.0192 14.3049C15.0578 14.1109 15.153 13.9327 15.2929 13.7929C15.4327 13.653 15.6109 13.5578 15.8049 13.5192C15.9989 13.4806 16.2 13.5004 16.3827 13.5761C16.5654 13.6518 16.7216 13.78 16.8315 13.9444C16.9414 14.1089 17 14.3022 17 14.5C17 14.7652 16.8946 15.0196 16.7071 15.2071C16.5196 15.3946 16.2652 15.5 16 15.5ZM16 12C15.8022 12 15.6089 11.9414 15.4444 11.8315C15.28 11.7216 15.1518 11.5654 15.0761 11.3827C15.0004 11.2 14.9806 10.9989 15.0192 10.8049C15.0578 10.6109 15.153 10.4327 15.2929 10.2929C15.4327 10.153 15.6109 10.0578 15.8049 10.0192C15.9989 9.98063 16.2 10.0004 16.3827 10.0761C16.5654 10.1518 16.7216 10.28 16.8315 10.4444C16.9414 10.6089 17 10.8022 17 11C17 11.2652 16.8946 11.5196 16.7071 11.7071C16.5196 11.8946 16.2652 12 16 12ZM17 7C17 7.26522 16.8946 7.51957 16.7071 7.70711C16.5196 7.89464 16.2652 8 16 8H8C7.73478 8 7.48043 7.89464 7.29289 7.70711C7.10536 7.51957 7 7.26522 7 7V6C7 5.73478 7.10536 5.48043 7.29289 5.29289C7.48043 5.10536 7.73478 5 8 5H16C16.2652 5 16.5196 5.10536 16.7071 5.29289C16.8946 5.48043 17 5.73478 17 6V7Z" fill="currentColor"/>
  </symbol>
  <symbol id="ic_calculator_percentage" viewBox="0 0 24 24">
    <path d="M19.12 2.88C18.5579 2.31723 17.7954 2.0007 17 2H7C6.20435 2 5.44129 2.31607 4.87868 2.87868C4.31607 3.44129 4 4.20435 4 5V19C4 19.7956 4.31607 20.5587 4.87868 21.1213C5.44129 21.6839 6.20435 22 7 22H17C17.7956 22 18.5587 21.6839 19.1213 21.1213C19.6839 20.5587 20 19.7956 20 19V5C19.9993 4.20462 19.6828 3.44207 19.12 2.88ZM15.63 18.63C15.5157 18.7477 15.3789 18.8411 15.2277 18.9046C15.0765 18.9682 14.914 19.0007 14.75 19C14.5038 18.9992 14.2633 18.9257 14.0587 18.7887C13.8541 18.6517 13.6945 18.4573 13.6 18.23C13.504 18.0029 13.4762 17.7527 13.52 17.51C13.5724 17.2646 13.6947 17.0396 13.8721 16.8621C14.0496 16.6847 14.2746 16.5624 14.52 16.51C14.7627 16.4662 15.0129 16.494 15.24 16.59C15.467 16.6867 15.6604 16.8485 15.7956 17.0549C15.9309 17.2614 16.002 17.5032 16 17.75C16.0006 17.914 15.9682 18.0765 15.9046 18.2277C15.8411 18.3789 15.7477 18.5157 15.63 18.63ZM15.71 12.71L9.71 18.71C9.61704 18.8037 9.50644 18.8781 9.38458 18.9289C9.26272 18.9797 9.13201 19.0058 9 19.0058C8.86799 19.0058 8.73728 18.9797 8.61542 18.9289C8.49356 18.8781 8.38296 18.8037 8.29 18.71C8.19627 18.617 8.12188 18.5064 8.07111 18.3846C8.02034 18.2627 7.9942 18.132 7.9942 18C7.9942 17.868 8.02034 17.7373 8.07111 17.6154C8.12188 17.4936 8.19627 17.383 8.29 17.29L14.29 11.29C14.4783 11.1017 14.7337 10.9959 15 10.9959C15.2663 10.9959 15.5217 11.1017 15.71 11.29C15.8983 11.4783 16.0041 11.7337 16.0041 12C16.0041 12.2663 15.8983 12.5217 15.71 12.71ZM8 12.25C8.00261 11.9193 8.13515 11.6029 8.36901 11.369C8.60286 11.1351 8.91929 11.0026 9.25 11C9.49621 11.0008 9.7367 11.0743 9.94129 11.2113C10.1459 11.3483 10.3055 11.5427 10.4 11.77C10.496 11.9971 10.5238 12.2473 10.48 12.49C10.4276 12.7354 10.3053 12.9604 10.1279 13.1379C9.95043 13.3153 9.72542 13.4376 9.48 13.49C9.23732 13.5338 8.98714 13.506 8.76 13.41C8.53296 13.3133 8.33963 13.1515 8.20438 12.9451C8.06914 12.7386 7.99802 12.4968 8 12.25ZM17 7C17 7.26522 16.8946 7.51957 16.7071 7.70711C16.5196 7.89464 16.2652 8 16 8H8C7.73478 8 7.48043 7.89464 7.29289 7.70711C7.10536 7.51957 7 7.26522 7 7V6C7 5.73478 7.10536 5.48043 7.29289 5.29289C7.48043 5.10536 7.73478 5 8 5H16C16.2652 5 16.5196 5.10536 16.7071 5.29289C16.8946 5.48043 17 5.73478 17 6V7Z" fill="currentColor"/>
  </symbol>
</svg>
