<!-- JioGames DLS — alignment icons (3 icons) -->
<svg xmlns="http://www.w3.org/2000/svg" style="display:none">
  <symbol id="ic_alignment_filling" viewBox="0 0 24 24">
    <path d="M19.29 8.71C19.48 8.9 19.74 9 20 9C20.13 9 20.26 8.98 20.38 8.92C20.75 8.77 21 8.4 21 8V4C21 3.45 20.55 3 20 3H16C15.6 3 15.23 3.24 15.08 3.62C14.93 4 15.01 4.42 15.3 4.71L16.59 6L12 10.59L7.41 6L8.7 4.71C8.99 4.42 9.07 3.99 8.92 3.62C8.77 3.25 8.4 3 8 3H4C3.45 3 3 3.45 3 4V8C3 8.4 3.24 8.77 3.62 8.92C3.74 8.97 3.87 9 4 9C4.26 9 4.52 8.9 4.71 8.71L6 7.42L10.59 12.01L6 16.6L4.71 15.31C4.42 15.02 3.99 14.94 3.62 15.09C3.25 15.24 3 15.61 3 16.01V20.01C3 20.56 3.45 21.01 4 21.01H8C8.4 21.01 8.77 20.77 8.92 20.39C9.07 20.01 8.99 19.59 8.7 19.3L7.41 18.01L12 13.42L16.59 18.01L15.3 19.3C15.01 19.59 14.93 20.02 15.08 20.39C15.23 20.76 15.6 21.01 16 21.01H20C20.55 21.01 21 20.56 21 20.01V16.01C21 15.61 20.76 15.24 20.38 15.09C20 14.93 19.58 15.02 19.29 15.31L18 16.6L13.41 12.01L18 7.42L19.29 8.71Z" fill="currentColor"/>
  </symbol>
  <symbol id="ic_alignment_horizontal" viewBox="0 0 24 24">
    <path d="M21.7101 11.2902L18.7101 8.29022C18.4201 8.00022 17.9901 7.91022 17.6201 8.07022C17.2501 8.22022 17.0001 8.59022 17.0001 8.99022V10.9902H7.00006V8.99022C7.00006 8.59022 6.76006 8.22022 6.38006 8.07022C6.00006 7.91022 5.58006 8.00022 5.29006 8.29022L2.29006 11.2902C1.90006 11.6802 1.90006 12.3102 2.29006 12.7002L5.29006 15.7002C5.48006 15.8902 5.74006 15.9902 6.00006 15.9902C6.13006 15.9902 6.26006 15.9702 6.38006 15.9102C6.75006 15.7602 7.00006 15.3902 7.00006 14.9902V12.9902H17.0001V14.9902C17.0001 15.3902 17.2401 15.7602 17.6201 15.9102C17.7401 15.9602 17.8701 15.9902 18.0001 15.9902C18.2601 15.9902 18.5201 15.8902 18.7101 15.7002L21.7101 12.7002C22.1001 12.3102 22.1001 11.6802 21.7101 11.2902Z" fill="currentColor"/>
  </symbol>
  <symbol id="ic_alignment_vertical" viewBox="0 0 24 24">
    <path d="M14.9999 17.0001H12.9999V7.00006H14.9999C15.3999 7.00006 15.7699 6.76006 15.9199 6.38006C16.0699 6.00006 15.9899 5.58006 15.6999 5.29006L12.6999 2.29006C12.3099 1.90006 11.6799 1.90006 11.2899 2.29006L8.28993 5.29006C7.99993 5.58006 7.91993 6.01006 8.06993 6.38006C8.21993 6.75006 8.58993 7.00006 8.98993 7.00006H10.9899V17.0001H8.98993C8.58993 17.0001 8.21993 17.2401 8.06993 17.6201C7.91993 18.0001 7.99993 18.4201 8.28993 18.7101L11.2899 21.7101C11.4899 21.9101 11.7399 22.0001 11.9999 22.0001C12.2599 22.0001 12.5099 21.9001 12.7099 21.7101L15.7099 18.7101C15.9999 18.4201 16.0799 17.9901 15.9299 17.6201C15.7799 17.2501 15.4099 17.0001 15.0099 17.0001H14.9999Z" fill="currentColor"/>
  </symbol>
</svg>
