<!-- JioGames DLS — all icons (26 icons) -->
<svg xmlns="http://www.w3.org/2000/svg" style="display:none">
  <symbol id="ic_call" viewBox="0 0 24 24">
    <path d="M8.26994 15.73C12.0099 19.48 15.3399 19.58 16.7499 19.41C17.1809 19.3555 17.58 19.1542 17.8799 18.84L18.8799 17.84C19.0659 17.6543 19.2134 17.4337 19.3141 17.1909C19.4147 16.9481 19.4665 16.6879 19.4665 16.425C19.4665 16.1622 19.4147 15.9019 19.3141 15.6592C19.2134 15.4164 19.0659 15.1958 18.8799 15.01L18.1699 14.3C17.7952 13.9275 17.2883 13.7184 16.7599 13.7184C16.2316 13.7184 15.7247 13.9275 15.3499 14.3L14.6399 15.01C14.547 15.1038 14.4364 15.1782 14.3145 15.2289C14.1927 15.2797 14.0619 15.3058 13.9299 15.3058C13.7979 15.3058 13.6672 15.2797 13.5454 15.2289C13.4235 15.1782 13.3129 15.1038 13.2199 15.01L8.99994 10.79C8.90621 10.6971 8.83181 10.5865 8.78104 10.4646C8.73028 10.3427 8.70414 10.212 8.70414 10.08C8.70414 9.94802 8.73028 9.81731 8.78104 9.69545C8.83181 9.57359 8.90621 9.46299 8.99994 9.37003L9.70994 8.66003C10.0824 8.28531 10.2915 7.7784 10.2915 7.25003C10.2915 6.72166 10.0824 6.21476 9.70994 5.84003L8.99994 5.13003C8.81419 4.94408 8.59361 4.79656 8.35082 4.69591C8.10802 4.59526 7.84777 4.54346 7.58494 4.54346C7.32211 4.54346 7.06185 4.59526 6.81906 4.69591C6.57626 4.79656 6.35568 4.94408 6.16994 5.13003L5.16994 6.13003C4.85572 6.43 4.65443 6.82905 4.59994 7.26003C4.41994 8.66003 4.51994 12 8.26994 15.73Z" fill="currentColor"/>
  </symbol>
  <symbol id="ic_call_add" viewBox="0 0 24 24">
    <path d="M16.3399 15.5702L15.6199 14.8202C15.4299 14.6302 15.2099 14.4902 14.9699 14.3902C14.7299 14.2902 14.4699 14.2402 14.1999 14.2402C13.9299 14.2402 13.6799 14.2902 13.4299 14.3902C13.1899 14.4902 12.9699 14.6402 12.7799 14.8202L12.0799 15.5302C11.9899 15.6202 11.8799 15.7002 11.7499 15.7502C11.6299 15.8002 11.4999 15.8302 11.3699 15.8302C11.2399 15.8302 11.1099 15.8002 10.9899 15.7502C10.8699 15.7002 10.7599 15.6202 10.6599 15.5302L6.41992 11.2902C6.32992 11.2002 6.24992 11.0902 6.19992 10.9602C6.14992 10.8302 6.11992 10.7102 6.11992 10.5802C6.11992 10.4502 6.14992 10.3202 6.19992 10.2002C6.24992 10.0802 6.31992 9.97023 6.41992 9.87023L7.12992 9.17023C7.31992 8.98023 7.45992 8.76023 7.55992 8.52024C7.65992 8.28024 7.70992 8.02023 7.70992 7.75023C7.70992 7.48023 7.65992 7.23023 7.55992 6.98023C7.45992 6.73023 7.30992 6.52023 7.12992 6.33023L6.41992 5.62023C6.22992 5.43023 6.00992 5.29023 5.76992 5.19023C5.52992 5.09023 5.26992 5.04023 4.99992 5.04023C4.72992 5.04023 4.47992 5.09023 4.22992 5.19023C3.98992 5.29023 3.76992 5.44023 3.57992 5.62023L2.57992 6.62023C2.27992 6.93023 2.07992 7.32023 2.01992 7.75023C1.85992 9.15023 1.97992 12.4902 5.69992 16.2302C9.41992 19.9702 12.7799 20.0702 14.1899 19.9502C14.6199 19.8902 15.0099 19.6902 15.3199 19.3902L16.3199 18.3902C16.5099 18.2002 16.6499 17.9802 16.7499 17.7402C16.8499 17.5002 16.8999 17.2402 16.8999 16.9702C16.8999 16.7002 16.8499 16.4502 16.7499 16.2002C16.6499 15.9602 16.4999 15.7402 16.3199 15.5502L16.3399 15.5702Z" fill="currentColor"/>
<path d="M18.9999 6.99023H16.9999V4.99023C16.9999 4.44023 16.5499 3.99023 15.9999 3.99023C15.4499 3.99023 14.9999 4.44023 14.9999 4.99023V6.99023H12.9999C12.4499 6.99023 11.9999 7.44023 11.9999 7.99023C11.9999 8.54023 12.4499 8.99023 12.9999 8.99023H14.9999V10.9902C14.9999 11.5402 15.4499 11.9902 15.9999 11.9902C16.5499 11.9902 16.9999 11.5402 16.9999 10.9902V8.99023H18.9999C19.5499 8.99023 19.9999 8.54023 19.9999 7.99023C19.9999 7.44023 19.5499 6.99023 18.9999 6.99023Z" fill="currentColor"/>
  </symbol>
  <symbol id="ic_call_cancel" viewBox="0 0 24 24">
    <path d="M18.65 6.76982L19.71 5.70982C20.1 5.31982 20.1 4.68982 19.71 4.29982C19.32 3.90982 18.69 3.90982 18.3 4.29982L17.24 5.35982L16.18 4.29982C15.79 3.90982 15.16 3.90982 14.77 4.29982C14.38 4.68982 14.38 5.31982 14.77 5.70982L15.83 6.76982L14.77 7.82982C14.38 8.21982 14.38 8.84982 14.77 9.23982C15.16 9.62982 15.79 9.62982 16.18 9.23982L17.24 8.17982L18.3 9.23982C18.69 9.62982 19.32 9.62982 19.71 9.23982C20.1 8.84982 20.1 8.21982 19.71 7.82982L18.65 6.76982ZM18.17 14.3198C17.39 13.5398 16.12 13.5398 15.34 14.3198L14.63 15.0298C13.92 15.7398 13.22 15.0298 13.22 15.0298L8.97998 10.7898C8.26998 10.0798 8.97998 9.37982 8.97998 9.37982L9.68998 8.66982C10.47 7.88982 10.47 6.61982 9.68998 5.83982L8.97998 5.12982C8.19998 4.34982 6.92998 4.34982 6.14998 5.12982L5.15998 6.11982C4.84998 6.42982 4.64998 6.81982 4.58998 7.25982C4.41998 8.66982 4.52998 11.9998 8.26998 15.7398C12.01 19.4798 15.35 19.5898 16.75 19.4198C17.18 19.3698 17.58 19.1598 17.89 18.8498L18.88 17.8598C19.66 17.0798 19.66 15.8098 18.88 15.0298L18.17 14.3198Z" fill="currentColor"/>
  </symbol>
  <symbol id="ic_call_chat" viewBox="0 0 24 24">
    <path d="M16.6199 15.8601C16.4342 15.6741 16.2136 15.5266 15.9708 15.426C15.728 15.3253 15.4678 15.2735 15.2049 15.2735C14.9421 15.2735 14.6819 15.3253 14.4391 15.426C14.1963 15.5266 13.9757 15.6741 13.7899 15.8601L13.0899 16.5701C12.997 16.6638 12.8864 16.7382 12.7645 16.789C12.6427 16.8398 12.512 16.8659 12.3799 16.8659C12.2479 16.8659 12.1172 16.8398 11.9954 16.789C11.8735 16.7382 11.7629 16.6638 11.6699 16.5701C11.6699 16.5701 8.13994 13.0001 7.42994 12.3301C7.33622 12.2371 7.26182 12.1265 7.21105 12.0047C7.16028 11.8828 7.13415 11.7521 7.13415 11.6201C7.13415 11.4881 7.16028 11.3574 7.21105 11.2355C7.26182 11.1137 7.33622 11.0031 7.42994 10.9101L8.13994 10.2101C8.3259 10.0243 8.47341 9.80377 8.57406 9.56098C8.67471 9.31818 8.72652 9.05793 8.72652 8.7951C8.72652 8.53226 8.67471 8.27201 8.57406 8.02921C8.47341 7.78642 8.3259 7.56584 8.13994 7.3801L7.42994 6.6701C7.2442 6.48414 7.02362 6.33662 6.78082 6.23598C6.53803 6.13533 6.27777 6.08352 6.01494 6.08352C5.75211 6.08352 5.49186 6.13533 5.24906 6.23598C5.00627 6.33662 4.78569 6.48414 4.59994 6.6701L3.59994 7.6701C3.2963 7.97651 3.09986 8.37289 3.03994 8.8001C2.87994 10.2001 2.99994 13.5401 6.71994 17.2801C10.4399 21.0201 13.7999 21.1201 15.2099 21.0001C15.6371 20.9402 16.0335 20.7437 16.3399 20.4401L17.3399 19.4401C17.5259 19.2544 17.6734 19.0338 17.7741 18.791C17.8747 18.5482 17.9265 18.2879 17.9265 18.0251C17.9265 17.7623 17.8747 17.502 17.7741 17.2592C17.6734 17.0164 17.5259 16.7958 17.3399 16.6101L16.6199 15.8601ZM17.4999 3.0001H14.4999C13.6746 2.99399 12.8737 3.28064 12.2397 3.80911C11.6056 4.33759 11.1794 5.07368 11.0367 5.88667C10.894 6.69966 11.0441 7.53691 11.4603 8.24971C11.8765 8.96252 12.5318 9.50475 13.3099 9.7801L12.9999 11.0901C12.9665 11.2362 12.9783 11.389 13.0337 11.5283C13.089 11.6676 13.1854 11.7868 13.3099 11.8701C13.433 11.9562 13.5798 12.0016 13.7299 12.0001C13.8803 12.003 14.0275 11.9574 14.1499 11.8701L16.8999 10.0001H17.4999C18.4282 10.0001 19.3184 9.63135 19.9748 8.97497C20.6312 8.31859 20.9999 7.42835 20.9999 6.5001C20.9999 5.57184 20.6312 4.6816 19.9748 4.02522C19.3184 3.36884 18.4282 3.0001 17.4999 3.0001Z" fill="currentColor"/>
  </symbol>
  <symbol id="ic_call_clear" viewBox="0 0 24 24">
    <path d="M18.1599 14.32C17.7852 13.9475 17.2783 13.7384 16.7499 13.7384C16.2216 13.7384 15.7147 13.9475 15.3399 14.32L14.6299 15.03C14.537 15.1237 14.4264 15.1981 14.3045 15.2489C14.1827 15.2997 14.0519 15.3258 13.9199 15.3258C13.7879 15.3258 13.6572 15.2997 13.5354 15.2489C13.4135 15.1981 13.3029 15.1237 13.2099 15.03L8.99994 10.79C8.90621 10.697 8.83181 10.5864 8.78104 10.4646C8.73028 10.3427 8.70414 10.212 8.70414 10.08C8.70414 9.94799 8.73028 9.81728 8.78104 9.69542C8.83181 9.57356 8.90621 9.46296 8.99994 9.37L9.70994 8.66C10.0824 8.28527 10.2915 7.77837 10.2915 7.25C10.2915 6.72163 10.0824 6.21473 9.70994 5.84L8.99994 5.13C8.81419 4.94405 8.59361 4.79653 8.35082 4.69588C8.10802 4.59523 7.84777 4.54343 7.58494 4.54343C7.32211 4.54343 7.06185 4.59523 6.81906 4.69588C6.57626 4.79653 6.35568 4.94405 6.16994 5.13L5.16994 6.13C4.85572 6.42997 4.65443 6.82902 4.59994 7.26C4.41994 8.66 4.51994 12 8.26994 15.73C12.0199 19.46 15.3399 19.58 16.7499 19.41C17.1809 19.3555 17.58 19.1542 17.8799 18.84L18.8799 17.84C19.0659 17.6543 19.2134 17.4337 19.3141 17.1909C19.4147 16.9481 19.4665 16.6878 19.4665 16.425C19.4665 16.1622 19.4147 15.9019 19.3141 15.6591C19.2134 15.4163 19.0659 15.1957 18.8799 15.01L18.1599 14.32ZM13.4999 10.5C13.7652 10.5 14.0195 10.6054 14.207 10.7929C14.3946 10.9804 14.4999 11.2348 14.4999 11.5C14.4999 11.6326 14.5526 11.7598 14.6464 11.8536C14.7402 11.9473 14.8673 12 14.9999 12C15.1325 12 15.2597 11.9473 15.3535 11.8536C15.4473 11.7598 15.4999 11.6326 15.4999 11.5C15.4999 11.2348 15.6053 10.9804 15.7928 10.7929C15.9804 10.6054 16.2347 10.5 16.4999 10.5C16.6325 10.5 16.7597 10.4473 16.8535 10.3536C16.9473 10.2598 16.9999 10.1326 16.9999 10C16.9999 9.86739 16.9473 9.74021 16.8535 9.64645C16.7597 9.55268 16.6325 9.5 16.4999 9.5C16.2347 9.5 15.9804 9.39464 15.7928 9.20711C15.6053 9.01957 15.4999 8.76522 15.4999 8.5C15.4999 8.36739 15.4473 8.24021 15.3535 8.14645C15.2597 8.05268 15.1325 8 14.9999 8C14.8673 8 14.7402 8.05268 14.6464 8.14645C14.5526 8.24021 14.4999 8.36739 14.4999 8.5C14.4999 8.76522 14.3946 9.01957 14.207 9.20711C14.0195 9.39464 13.7652 9.5 13.4999 9.5C13.3673 9.5 13.2402 9.55268 13.1464 9.64645C13.0526 9.74021 12.9999 9.86739 12.9999 10C12.9999 10.1326 13.0526 10.2598 13.1464 10.3536C13.2402 10.4473 13.3673 10.5 13.4999 10.5ZM20.4999 4.5C19.9695 4.5 19.4608 4.28929 19.0857 3.91421C18.7107 3.53914 18.4999 3.03043 18.4999 2.5C18.4999 2.36739 18.4473 2.24021 18.3535 2.14645C18.2597 2.05268 18.1325 2 17.9999 2C17.8673 2 17.7402 2.05268 17.6464 2.14645C17.5526 2.24021 17.4999 2.36739 17.4999 2.5C17.4999 3.03043 17.2892 3.53914 16.9141 3.91421C16.5391 4.28929 16.0304 4.5 15.4999 4.5C15.3673 4.5 15.2402 4.55268 15.1464 4.64645C15.0526 4.74021 14.9999 4.86739 14.9999 5C14.9999 5.13261 15.0526 5.25979 15.1464 5.35355C15.2402 5.44732 15.3673 5.5 15.4999 5.5C16.0304 5.5 16.5391 5.71071 16.9141 6.08579C17.2892 6.46086 17.4999 6.96957 17.4999 7.5C17.4999 7.63261 17.5526 7.75979 17.6464 7.85355C17.7402 7.94732 17.8673 8 17.9999 8C18.1325 8 18.2597 7.94732 18.3535 7.85355C18.4473 7.75979 18.4999 7.63261 18.4999 7.5C18.4999 6.96957 18.7107 6.46086 19.0857 6.08579C19.4608 5.71071 19.9695 5.5 20.4999 5.5C20.6325 5.5 20.7597 5.44732 20.8535 5.35355C20.9473 5.25979 20.9999 5.13261 20.9999 5C20.9999 4.86739 20.9473 4.74021 20.8535 4.64645C20.7597 4.55268 20.6325 4.5 20.4999 4.5Z" fill="currentColor"/>
  </symbol>
  <symbol id="ic_call_composer" viewBox="0 0 24 24">
    <path d="M9.99994 6H19.9999C20.2652 6 20.5195 5.89464 20.7071 5.70711C20.8946 5.51957 20.9999 5.26522 20.9999 5C20.9999 4.73478 20.8946 4.48043 20.7071 4.29289C20.5195 4.10536 20.2652 4 19.9999 4H9.99994C9.73473 4 9.48037 4.10536 9.29284 4.29289C9.1053 4.48043 8.99994 4.73478 8.99994 5C8.99994 5.26522 9.1053 5.51957 9.29284 5.70711C9.48037 5.89464 9.73473 6 9.99994 6ZM15.6199 15.86C15.4342 15.674 15.2136 15.5265 14.9708 15.4259C14.728 15.3252 14.4678 15.2734 14.2049 15.2734C13.9421 15.2734 13.6819 15.3252 13.4391 15.4259C13.1963 15.5265 12.9757 15.674 12.7899 15.86L12.0899 16.57C11.997 16.6637 11.8864 16.7381 11.7645 16.7889C11.6427 16.8397 11.512 16.8658 11.3799 16.8658C11.2479 16.8658 11.1172 16.8397 10.9954 16.7889C10.8735 16.7381 10.7629 16.6637 10.6699 16.57L6.42994 12.33C6.33622 12.237 6.26182 12.1264 6.21105 12.0046C6.16028 11.8827 6.13415 11.752 6.13415 11.62C6.13415 11.488 6.16028 11.3573 6.21105 11.2354C6.26182 11.1136 6.33622 11.003 6.42994 10.91L7.13994 10.21C7.3259 10.0243 7.47341 9.80368 7.57406 9.56088C7.67471 9.31808 7.72652 9.05783 7.72652 8.795C7.72652 8.53217 7.67471 8.27192 7.57406 8.02912C7.47341 7.78632 7.3259 7.56575 7.13994 7.38L6.42994 6.67C6.2442 6.48405 6.02362 6.33653 5.78082 6.23588C5.53803 6.13523 5.27777 6.08343 5.01494 6.08343C4.75211 6.08343 4.49186 6.13523 4.24906 6.23588C4.00627 6.33653 3.78569 6.48405 3.59994 6.67L2.59994 7.67C2.2963 7.97642 2.09986 8.3728 2.03994 8.8C1.87994 10.2 1.99994 13.54 5.71994 17.28C9.43994 21.02 12.7999 21.12 14.2099 21C14.6371 20.9401 15.0335 20.7436 15.3399 20.44L16.3399 19.44C16.5259 19.2543 16.6734 19.0337 16.7741 18.7909C16.8747 18.5481 16.9265 18.2878 16.9265 18.025C16.9265 17.7622 16.8747 17.5019 16.7741 17.2591C16.6734 17.0163 16.5259 16.7957 16.3399 16.61L15.6199 15.86ZM19.9999 12H17.9999C17.7347 12 17.4804 12.1054 17.2928 12.2929C17.1053 12.4804 16.9999 12.7348 16.9999 13C16.9999 13.2652 17.1053 13.5196 17.2928 13.7071C17.4804 13.8946 17.7347 14 17.9999 14H19.9999C20.2652 14 20.5195 13.8946 20.7071 13.7071C20.8946 13.5196 20.9999 13.2652 20.9999 13C20.9999 12.7348 20.8946 12.4804 20.7071 12.2929C20.5195 12.1054 20.2652 12 19.9999 12ZM19.9999 8H13.9999C13.7347 8 13.4804 8.10536 13.2928 8.29289C13.1053 8.48043 12.9999 8.73478 12.9999 9C12.9999 9.26522 13.1053 9.51957 13.2928 9.70711C13.4804 9.89464 13.7347 10 13.9999 10H19.9999C20.2652 10 20.5195 9.89464 20.7071 9.70711C20.8946 9.51957 20.9999 9.26522 20.9999 9C20.9999 8.73478 20.8946 8.48043 20.7071 8.29289C20.5195 8.10536 20.2652 8 19.9999 8Z" fill="currentColor"/>
  </symbol>
  <symbol id="ic_call_data" viewBox="0 0 24 24">
    <path d="M18.1601 14.32C17.7853 13.9475 17.2784 13.7384 16.7501 13.7384C16.2217 13.7384 15.7148 13.9475 15.3401 14.32L14.6301 15.03C14.5371 15.1237 14.4265 15.1981 14.3046 15.2489C14.1828 15.2997 14.0521 15.3258 13.9201 15.3258C13.788 15.3258 13.6573 15.2997 13.5355 15.2489C13.4136 15.1981 13.303 15.1237 13.2101 15.03L9.00006 10.79C8.90633 10.697 8.83194 10.5864 8.78117 10.4646C8.7304 10.3427 8.70426 10.212 8.70426 10.08C8.70426 9.94799 8.7304 9.81728 8.78117 9.69542C8.83194 9.57356 8.90633 9.46296 9.00006 9.37L9.71006 8.66C10.0826 8.28527 10.2916 7.77837 10.2916 7.25C10.2916 6.72163 10.0826 6.21473 9.71006 5.84L9.00006 5.13C8.81431 4.94405 8.59373 4.79653 8.35094 4.69588C8.10814 4.59523 7.84789 4.54343 7.58506 4.54343C7.32223 4.54343 7.06197 4.59523 6.81918 4.69588C6.57638 4.79653 6.3558 4.94405 6.17006 5.13L5.17006 6.13C4.85584 6.42997 4.65455 6.82902 4.60006 7.26C4.42006 8.66 4.52006 12 8.27006 15.73C12.0201 19.46 15.3401 19.58 16.7501 19.41C17.181 19.3555 17.5801 19.1542 17.8801 18.84L18.8801 17.84C19.066 17.6543 19.2135 17.4337 19.3142 17.1909C19.4148 16.9481 19.4666 16.6878 19.4666 16.425C19.4666 16.1622 19.4148 15.9019 19.3142 15.6591C19.2135 15.4163 19.066 15.1957 18.8801 15.01L18.1601 14.32ZM21.7101 8.32C21.6171 8.22627 21.5065 8.15188 21.3846 8.10111C21.2628 8.05034 21.1321 8.0242 21.0001 8.0242C20.868 8.0242 20.7373 8.05034 20.6155 8.10111C20.4936 8.15188 20.383 8.22627 20.2901 8.32L20.0001 8.62V5C20.0001 4.73478 19.8947 4.48043 19.7072 4.29289C19.5196 4.10536 19.2653 4 19.0001 4C18.7348 4 18.4805 4.10536 18.293 4.29289C18.1054 4.48043 18.0001 4.73478 18.0001 5V11C18.001 11.1974 18.0604 11.3901 18.1708 11.5539C18.2811 11.7176 18.4374 11.845 18.6201 11.92C18.7387 11.976 18.8689 12.0034 19.0001 12C19.1317 12.0008 19.2621 11.9755 19.384 11.9258C19.5058 11.876 19.6166 11.8027 19.7101 11.71L21.7101 9.71C21.8038 9.61704 21.8782 9.50644 21.929 9.38458C21.9797 9.26272 22.0059 9.13201 22.0059 9C22.0059 8.86799 21.9797 8.73728 21.929 8.61542C21.8782 8.49356 21.8038 8.38296 21.7101 8.29V8.32ZM13.7101 7.74L14.0001 7.44V11C14.0001 11.2652 14.1054 11.5196 14.293 11.7071C14.4805 11.8946 14.7348 12 15.0001 12C15.2653 12 15.5196 11.8946 15.7072 11.7071C15.8947 11.5196 16.0001 11.2652 16.0001 11V5C15.9991 4.80257 15.9397 4.60986 15.8293 4.44614C15.719 4.28242 15.5627 4.15502 15.3801 4.08C15.1979 4.00342 14.9972 3.9825 14.8032 4.01987C14.6093 4.05725 14.4307 4.15124 14.2901 4.29L12.2901 6.29C12.1018 6.4783 11.996 6.7337 11.996 7C11.996 7.2663 12.1018 7.5217 12.2901 7.71C12.4784 7.8983 12.7338 8.00409 13.0001 8.00409C13.2664 8.00409 13.5218 7.8983 13.7101 7.71V7.74Z" fill="currentColor"/>
  </symbol>
  <symbol id="ic_call_dids" viewBox="0 0 24 24">
    <path d="M14 7.00014C13.8022 7.00014 13.6089 7.05879 13.4444 7.16867C13.28 7.27855 13.1518 7.43473 13.0761 7.61746C13.0004 7.80018 12.9806 8.00125 13.0192 8.19523C13.0578 8.38921 13.153 8.5674 13.2929 8.70725C13.4327 8.8471 13.6109 8.94234 13.8049 8.98093C13.9989 9.01951 14.2 8.99971 14.3827 8.92402C14.5654 8.84833 14.7216 8.72016 14.8315 8.55571C14.9414 8.39126 15 8.19792 15 8.00014C15 7.73493 14.8946 7.48057 14.7071 7.29304C14.5196 7.1055 14.2652 7.00014 14 7.00014ZM14 15.0001C13.8022 15.0001 13.6089 15.0588 13.4444 15.1687C13.28 15.2786 13.1518 15.4347 13.0761 15.6175C13.0004 15.8002 12.9806 16.0013 13.0192 16.1952C13.0578 16.3892 13.153 16.5674 13.2929 16.7072C13.4327 16.8471 13.6109 16.9423 13.8049 16.9809C13.9989 17.0195 14.2 16.9997 14.3827 16.924C14.5654 16.8483 14.7216 16.7202 14.8315 16.5557C14.9414 16.3913 15 16.1979 15 16.0001C15 15.7349 14.8946 15.4806 14.7071 15.293C14.5196 15.1055 14.2652 15.0001 14 15.0001ZM9 3.00014H7.6C7.16642 2.99489 6.74371 3.13579 6.4 3.40014C5.28 4.28014 3 6.71014 3 12.0001C3 17.2901 5.28 19.7201 6.4 20.6001C6.74371 20.8645 7.16642 21.0054 7.6 21.0001H9C9.53043 21.0001 10.0391 20.7894 10.4142 20.4144C10.7893 20.0393 11 19.5306 11 19.0001V18.0001C11 17.4697 10.7893 16.961 10.4142 16.5859C10.0391 16.2109 9.53043 16.0001 9 16.0001H8C7.73478 16.0001 7.48043 15.8948 7.29289 15.7072C7.10536 15.5197 7 15.2654 7 15.0001V9.00014C7 8.73493 7.10536 8.48057 7.29289 8.29304C7.48043 8.1055 7.73478 8.00014 8 8.00014H9C9.53043 8.00014 10.0391 7.78943 10.4142 7.41436C10.7893 7.03928 11 6.53057 11 6.00014V5.00014C11 4.46971 10.7893 3.961 10.4142 3.58593C10.0391 3.21086 9.53043 3.00014 9 3.00014ZM14 11.0001C13.8022 11.0001 13.6089 11.0588 13.4444 11.1687C13.28 11.2786 13.1518 11.4347 13.0761 11.6175C13.0004 11.8002 12.9806 12.0013 13.0192 12.1952C13.0578 12.3892 13.153 12.5674 13.2929 12.7072C13.4327 12.8471 13.6109 12.9423 13.8049 12.9809C13.9989 13.0195 14.2 12.9997 14.3827 12.924C14.5654 12.8483 14.7216 12.7202 14.8315 12.5557C14.9414 12.3913 15 12.1979 15 12.0001C15 11.7349 14.8946 11.4806 14.7071 11.293C14.5196 11.1055 14.2652 11.0001 14 11.0001ZM17 15.0001C16.8022 15.0001 16.6089 15.0588 16.4444 15.1687C16.28 15.2786 16.1518 15.4347 16.0761 15.6175C16.0004 15.8002 15.9806 16.0013 16.0192 16.1952C16.0578 16.3892 16.153 16.5674 16.2929 16.7072C16.4327 16.8471 16.6109 16.9423 16.8049 16.9809C16.9989 17.0195 17.2 16.9997 17.3827 16.924C17.5654 16.8483 17.7216 16.7202 17.8315 16.5557C17.9414 16.3913 18 16.1979 18 16.0001C18 15.7349 17.8946 15.4806 17.7071 15.293C17.5196 15.1055 17.2652 15.0001 17 15.0001ZM20 15.0001C19.8022 15.0001 19.6089 15.0588 19.4444 15.1687C19.28 15.2786 19.1518 15.4347 19.0761 15.6175C19.0004 15.8002 18.9806 16.0013 19.0192 16.1952C19.0578 16.3892 19.153 16.5674 19.2929 16.7072C19.4327 16.8471 19.6109 16.9423 19.8049 16.9809C19.9989 17.0195 20.2 16.9997 20.3827 16.924C20.5654 16.8483 20.7216 16.7202 20.8315 16.5557C20.9414 16.3913 21 16.1979 21 16.0001C21 15.7349 20.8946 15.4806 20.7071 15.293C20.5196 15.1055 20.2652 15.0001 20 15.0001ZM17 11.0001C16.8022 11.0001 16.6089 11.0588 16.4444 11.1687C16.28 11.2786 16.1518 11.4347 16.0761 11.6175C16.0004 11.8002 15.9806 12.0013 16.0192 12.1952C16.0578 12.3892 16.153 12.5674 16.2929 12.7072C16.4327 12.8471 16.6109 12.9423 16.8049 12.9809C16.9989 13.0195 17.2 12.9997 17.3827 12.924C17.5654 12.8483 17.7216 12.7202 17.8315 12.5557C17.9414 12.3913 18 12.1979 18 12.0001C18 11.7349 17.8946 11.4806 17.7071 11.293C17.5196 11.1055 17.2652 11.0001 17 11.0001Z" fill="currentColor"/>
  </symbol>
  <symbol id="ic_call_emergency" viewBox="0 0 24 24">
    <path d="M15.6201 15.86C14.8401 15.08 13.5701 15.08 12.7901 15.86L12.0801 16.57C11.3701 17.28 10.6701 16.57 10.6701 16.57L6.43005 12.33C5.72005 11.62 6.43005 10.92 6.43005 10.92L7.14005 10.21C7.92005 9.43 7.92005 8.16 7.14005 7.38L6.43005 6.67C5.65005 5.89 4.38005 5.89 3.60005 6.67L2.61005 7.66C2.30005 7.97 2.10005 8.36 2.04005 8.8C1.87005 10.21 1.98005 13.54 5.72005 17.28C9.46005 21.02 12.8001 21.13 14.2001 20.96C14.6301 20.91 15.0301 20.7 15.3401 20.39L16.3301 19.4C17.1101 18.62 17.1101 17.35 16.3301 16.57L15.6201 15.86ZM16.5001 2C13.4601 2 11.0001 4.46 11.0001 7.5V13H16.5001C19.5401 13 22.0001 10.54 22.0001 7.5C22.0001 4.46 19.5401 2 16.5001 2ZM19.5001 8C19.5001 8.28 19.2801 8.5 19.0001 8.5H17.5001V10C17.5001 10.28 17.2801 10.5 17.0001 10.5H16.0001C15.7201 10.5 15.5001 10.28 15.5001 10V8.5H14.0001C13.7201 8.5 13.5001 8.28 13.5001 8V7C13.5001 6.72 13.7201 6.5 14.0001 6.5H15.5001V5C15.5001 4.72 15.7201 4.5 16.0001 4.5H17.0001C17.2801 4.5 17.5001 4.72 17.5001 5V6.5H19.0001C19.2801 6.5 19.5001 6.72 19.5001 7V8Z" fill="currentColor"/>
  </symbol>
  <symbol id="ic_call_end" viewBox="0 0 24 24">
    <path d="M11.9999 8C6.7099 8 4.2799 10.28 3.3999 11.4C3.13555 11.7437 2.99464 12.1664 2.9999 12.6V14C2.9999 14.5304 3.21061 15.0391 3.58568 15.4142C3.96076 15.7893 4.46946 16 4.9999 16H5.9999C6.53033 16 7.03904 15.7893 7.41411 15.4142C7.78918 15.0391 7.9999 14.5304 7.9999 14V13C7.9999 12.7348 8.10525 12.4804 8.29279 12.2929C8.48033 12.1054 8.73468 12 8.9999 12H14.9999C15.2651 12 15.5195 12.1054 15.707 12.2929C15.8945 12.4804 15.9999 12.7348 15.9999 13V14C15.9999 14.5304 16.2106 15.0391 16.5857 15.4142C16.9608 15.7893 17.4695 16 17.9999 16H18.9999C19.5303 16 20.039 15.7893 20.4141 15.4142C20.7892 15.0391 20.9999 14.5304 20.9999 14V12.6C21.0051 12.1664 20.8642 11.7437 20.5999 11.4C19.7199 10.28 17.2899 8 11.9999 8Z" fill="currentColor"/>
  </symbol>
  <symbol id="ic_call_forward" viewBox="0 0 24 24">
    <path d="M18.1601 14.3202C17.7853 13.9477 17.2784 13.7386 16.7501 13.7386C16.2217 13.7386 15.7148 13.9477 15.3401 14.3202L14.6301 15.0302C14.5371 15.1239 14.4265 15.1983 14.3046 15.2491C14.1828 15.2998 14.0521 15.326 13.9201 15.326C13.788 15.326 13.6573 15.2998 13.5355 15.2491C13.4136 15.1983 13.303 15.1239 13.2101 15.0302L9.00006 10.7902C8.90633 10.6972 8.83194 10.5866 8.78117 10.4648C8.7304 10.3429 8.70426 10.2122 8.70426 10.0802C8.70426 9.94817 8.7304 9.81747 8.78117 9.69561C8.83194 9.57375 8.90633 9.46315 9.00006 9.37019L9.71006 8.66019C10.0826 8.28546 10.2916 7.77856 10.2916 7.25019C10.2916 6.72181 10.0826 6.21491 9.71006 5.84019L9.00006 5.13019C8.81431 4.94423 8.59373 4.79671 8.35094 4.69607C8.10814 4.59542 7.84789 4.54361 7.58506 4.54361C7.32223 4.54361 7.06197 4.59542 6.81918 4.69607C6.57638 4.79671 6.3558 4.94423 6.17006 5.13019L5.17006 6.13019C4.85584 6.43015 4.65455 6.82921 4.60006 7.26019C4.42006 8.66019 4.52006 12.0002 8.27006 15.7302C12.0201 19.4602 15.3401 19.5802 16.7501 19.4102C17.181 19.3557 17.5801 19.1544 17.8801 18.8402L18.8801 17.8402C19.066 17.6544 19.2135 17.4339 19.3142 17.1911C19.4148 16.9483 19.4666 16.688 19.4666 16.4252C19.4666 16.1624 19.4148 15.9021 19.3142 15.6593C19.2135 15.4165 19.066 15.1959 18.8801 15.0102L18.1601 14.3202ZM20.7101 6.32019L18.7101 4.32019C18.6168 4.22695 18.5061 4.15299 18.3843 4.10253C18.2625 4.05207 18.1319 4.02609 18.0001 4.02609C17.7338 4.02609 17.4784 4.13188 17.2901 4.32019C17.1018 4.50849 16.996 4.76388 16.996 5.03019C16.996 5.16204 17.0219 5.29261 17.0724 5.41443C17.1229 5.53626 17.1968 5.64695 17.2901 5.74019L18.5901 7.00019L17.2901 8.29019C17.1963 8.38315 17.1219 8.49375 17.0712 8.61561C17.0204 8.73747 16.9943 8.86817 16.9943 9.00019C16.9943 9.1322 17.0204 9.2629 17.0712 9.38476C17.1219 9.50662 17.1963 9.61722 17.2901 9.71019C17.383 9.80391 17.4936 9.87831 17.6155 9.92908C17.7373 9.97985 17.868 10.006 18.0001 10.006C18.1321 10.006 18.2628 9.97985 18.3846 9.92908C18.5065 9.87831 18.6171 9.80391 18.7101 9.71019L20.7101 7.71019C20.8038 7.61722 20.8782 7.50662 20.929 7.38476C20.9797 7.2629 21.0059 7.1322 21.0059 7.00019C21.0059 6.86817 20.9797 6.73747 20.929 6.61561C20.8782 6.49375 20.8038 6.38315 20.7101 6.29019V6.32019ZM13.2901 9.71019C13.383 9.80391 13.4936 9.87831 13.6155 9.92908C13.7373 9.97985 13.868 10.006 14.0001 10.006C14.1321 10.006 14.2628 9.97985 14.3846 9.92908C14.5065 9.87831 14.6171 9.80391 14.7101 9.71019L16.7101 7.71019C16.8038 7.61722 16.8782 7.50662 16.929 7.38476C16.9797 7.2629 17.0059 7.1322 17.0059 7.00019C17.0059 6.86817 16.9797 6.73747 16.929 6.61561C16.8782 6.49375 16.8038 6.38315 16.7101 6.29019L14.7101 4.29019C14.6168 4.19695 14.5061 4.12299 14.3843 4.07253C14.2625 4.02207 14.1319 3.99609 14.0001 3.99609C13.7338 3.99609 13.4784 4.10188 13.2901 4.29019C13.1968 4.38342 13.1229 4.49411 13.0724 4.61594C13.0219 4.73776 12.996 4.86833 12.996 5.00019C12.996 5.26649 13.1018 5.52188 13.2901 5.71019L14.5901 7.00019L13.2901 8.29019C13.1963 8.38315 13.1219 8.49375 13.0712 8.61561C13.0204 8.73747 12.9943 8.86817 12.9943 9.00019C12.9943 9.1322 13.0204 9.2629 13.0712 9.38476C13.1219 9.50662 13.1963 9.61722 13.2901 9.71019Z" fill="currentColor"/>
  </symbol>
  <symbol id="ic_call_group" viewBox="0 0 24 24">
    <path d="M13.9999 7C14.2966 7 14.5866 6.91203 14.8333 6.7472C15.08 6.58238 15.2722 6.34811 15.3858 6.07403C15.4993 5.79994 15.529 5.49834 15.4711 5.20737C15.4132 4.91639 15.2704 4.64912 15.0606 4.43934C14.8508 4.22956 14.5836 4.0867 14.2926 4.02882C14.0016 3.97094 13.7 4.00065 13.4259 4.11418C13.1518 4.22771 12.9176 4.41997 12.7527 4.66665C12.5879 4.91332 12.4999 5.20333 12.4999 5.5C12.4999 5.89783 12.658 6.27936 12.9393 6.56066C13.2206 6.84197 13.6021 7 13.9999 7ZM17.9999 6C18.2966 6 18.5866 5.91203 18.8333 5.7472C19.08 5.58238 19.2722 5.34811 19.3858 5.07403C19.4993 4.79994 19.529 4.49834 19.4711 4.20737C19.4132 3.91639 19.2704 3.64912 19.0606 3.43934C18.8508 3.22956 18.5835 3.0867 18.2926 3.02882C18.0016 2.97094 17.7 3.00065 17.4259 3.11418C17.1518 3.22771 16.9176 3.41997 16.7527 3.66665C16.5879 3.91332 16.4999 4.20333 16.4999 4.5C16.4999 4.89783 16.658 5.27936 16.9393 5.56066C17.2206 5.84197 17.6021 6 17.9999 6ZM17.9999 7C17.4944 7.0013 16.9974 7.13032 16.5551 7.37508C16.1128 7.61983 15.7395 7.97238 15.4699 8.4C15.0146 8.14402 14.5002 8.01138 13.9778 8.01523C13.4554 8.01907 12.9431 8.15926 12.4915 8.42192C12.04 8.68458 11.6648 9.0606 11.4032 9.51277C11.1416 9.96495 11.0026 10.4776 10.9999 11C10.9999 11.2652 11.1053 11.5196 11.2928 11.7071C11.4804 11.8946 11.7347 12 11.9999 12H15.9999C16.2652 12 16.5195 11.8946 16.7071 11.7071C16.8946 11.5196 16.9999 11.2652 16.9999 11H19.9999C20.2652 11 20.5195 10.8946 20.7071 10.7071C20.8946 10.5196 20.9999 10.2652 20.9999 10C20.9999 9.20435 20.6839 8.44129 20.1213 7.87868C19.5587 7.31607 18.7956 7 17.9999 7ZM15.6099 15.86C15.4242 15.674 15.2036 15.5265 14.9608 15.4259C14.718 15.3252 14.4578 15.2734 14.1949 15.2734C13.9321 15.2734 13.6719 15.3252 13.4291 15.4259C13.1863 15.5265 12.9657 15.674 12.7799 15.86L12.0799 16.57C11.987 16.6637 11.8764 16.7381 11.7545 16.7889C11.6327 16.8397 11.502 16.8658 11.3699 16.8658C11.2379 16.8658 11.1072 16.8397 10.9854 16.7889C10.8635 16.7381 10.7529 16.6637 10.6599 16.57L6.42994 12.33C6.33622 12.237 6.26182 12.1264 6.21105 12.0046C6.16028 11.8827 6.13415 11.752 6.13415 11.62C6.13415 11.488 6.16028 11.3573 6.21105 11.2354C6.26182 11.1136 6.33622 11.003 6.42994 10.91L7.13994 10.21C7.3259 10.0243 7.47341 9.80368 7.57406 9.56088C7.67471 9.31809 7.72652 9.05783 7.72652 8.795C7.72652 8.53217 7.67471 8.27192 7.57406 8.02912C7.47341 7.78632 7.3259 7.56575 7.13994 7.38L6.42994 6.67C6.2442 6.48405 6.02362 6.33653 5.78082 6.23588C5.53803 6.13523 5.27777 6.08343 5.01494 6.08343C4.75211 6.08343 4.49186 6.13523 4.24906 6.23588C4.00627 6.33653 3.78569 6.48405 3.59994 6.67L2.59994 7.67C2.2963 7.97642 2.09986 8.3728 2.03994 8.8C1.87994 10.2 1.99994 13.54 5.71994 17.28C9.43994 21.02 12.7999 21.12 14.2099 21C14.6371 20.9401 15.0335 20.7436 15.3399 20.44L16.3399 19.44C16.5259 19.2543 16.6734 19.0337 16.7741 18.7909C16.8747 18.5481 16.9265 18.2878 16.9265 18.025C16.9265 17.7622 16.8747 17.5019 16.7741 17.2591C16.6734 17.0163 16.5259 16.7957 16.3399 16.61L15.6099 15.86Z" fill="currentColor"/>
  </symbol>
  <symbol id="ic_call_hd" viewBox="0 0 24 24">
    <path d="M15.5599 15.86C15.3742 15.674 15.1536 15.5265 14.9108 15.4259C14.668 15.3252 14.4078 15.2734 14.1449 15.2734C13.8821 15.2734 13.6219 15.3252 13.3791 15.4259C13.1363 15.5265 12.9157 15.674 12.7299 15.86L12.0299 16.57C11.937 16.6637 11.8264 16.7381 11.7045 16.7889C11.5827 16.8397 11.452 16.8658 11.3199 16.8658C11.1879 16.8658 11.0572 16.8397 10.9354 16.7889C10.8135 16.7381 10.7029 16.6637 10.6099 16.57L6.36995 12.33C6.27622 12.237 6.20183 12.1264 6.15106 12.0046C6.10029 11.8827 6.07415 11.752 6.07415 11.62C6.07415 11.488 6.10029 11.3573 6.15106 11.2354C6.20183 11.1136 6.27622 11.003 6.36995 10.91L7.07995 10.21C7.2659 10.0243 7.41342 9.80368 7.51407 9.56088C7.61472 9.31808 7.66652 9.05783 7.66652 8.795C7.66652 8.53217 7.61472 8.27192 7.51407 8.02912C7.41342 7.78632 7.2659 7.56575 7.07995 7.38L6.36995 6.67C6.1842 6.48405 5.96362 6.33653 5.72083 6.23588C5.47803 6.13523 5.21778 6.08343 4.95495 6.08343C4.69212 6.08343 4.43186 6.13523 4.18907 6.23588C3.94627 6.33653 3.72569 6.48405 3.53995 6.67L2.53995 7.67C2.24552 7.97648 2.05638 8.36878 1.99995 8.79C1.82995 10.2 1.92995 13.54 5.66995 17.28C9.40995 21.02 12.7499 21.12 14.1599 20.95C14.5872 20.8901 14.9835 20.6936 15.2899 20.39L16.2899 19.39C16.4759 19.2043 16.6234 18.9837 16.7241 18.7409C16.8247 18.4981 16.8765 18.2378 16.8765 17.975C16.8765 17.7122 16.8247 17.4519 16.7241 17.2091C16.6234 16.9663 16.4759 16.7457 16.2899 16.56L15.5599 15.86ZM18.2499 7.5H17.7499V10.5H18.2499C18.6478 10.5 19.0293 10.342 19.3106 10.0607C19.5919 9.77936 19.7499 9.39782 19.7499 9C19.7499 8.60218 19.5919 8.22064 19.3106 7.93934C19.0293 7.65804 18.6478 7.5 18.2499 7.5ZM19.9999 5H11.9999C11.4695 5 10.9608 5.21071 10.5857 5.58579C10.2107 5.96086 9.99995 6.46957 9.99995 7V11C9.99995 11.5304 10.2107 12.0391 10.5857 12.4142C10.9608 12.7893 11.4695 13 11.9999 13H19.9999C20.5304 13 21.0391 12.7893 21.4142 12.4142C21.7892 12.0391 21.9999 11.5304 21.9999 11V7C21.9999 6.46957 21.7892 5.96086 21.4142 5.58579C21.0391 5.21071 20.5304 5 19.9999 5ZM15.7499 11C15.7499 11.1326 15.6973 11.2598 15.6035 11.3536C15.5097 11.4473 15.3826 11.5 15.2499 11.5C15.1173 11.5 14.9902 11.4473 14.8964 11.3536C14.8026 11.2598 14.7499 11.1326 14.7499 11V9.5H12.7499V11C12.7499 11.1326 12.6973 11.2598 12.6035 11.3536C12.5097 11.4473 12.3826 11.5 12.2499 11.5C12.1173 11.5 11.9902 11.4473 11.8964 11.3536C11.8026 11.2598 11.7499 11.1326 11.7499 11V7C11.7499 6.86739 11.8026 6.74021 11.8964 6.64645C11.9902 6.55268 12.1173 6.5 12.2499 6.5C12.3826 6.5 12.5097 6.55268 12.6035 6.64645C12.6973 6.74021 12.7499 6.86739 12.7499 7V8.5H14.7499V7C14.7499 6.86739 14.8026 6.74021 14.8964 6.64645C14.9902 6.55268 15.1173 6.5 15.2499 6.5C15.3826 6.5 15.5097 6.55268 15.6035 6.64645C15.6973 6.74021 15.7499 6.86739 15.7499 7V11ZM18.2499 11.5H17.2499C17.1173 11.5 16.9902 11.4473 16.8964 11.3536C16.8026 11.2598 16.7499 11.1326 16.7499 11V7C16.7499 6.86739 16.8026 6.74021 16.8964 6.64645C16.9902 6.55268 17.1173 6.5 17.2499 6.5H18.2499C18.913 6.5 19.5489 6.76339 20.0177 7.23223C20.4866 7.70107 20.7499 8.33696 20.7499 9C20.7499 9.66304 20.4866 10.2989 20.0177 10.7678C19.5489 11.2366 18.913 11.5 18.2499 11.5Z" fill="currentColor"/>
  </symbol>
  <symbol id="ic_call_hold" viewBox="0 0 24 24">
    <path d="M16.0001 10C16.2653 10 16.5196 9.89464 16.7072 9.70711C16.8947 9.51957 17.0001 9.26522 17.0001 9V5C17.0001 4.73478 16.8947 4.48043 16.7072 4.29289C16.5196 4.10536 16.2653 4 16.0001 4C15.7348 4 15.4805 4.10536 15.293 4.29289C15.1054 4.48043 15.0001 4.73478 15.0001 5V9C15.0001 9.26522 15.1054 9.51957 15.293 9.70711C15.4805 9.89464 15.7348 10 16.0001 10ZM18.1601 14.32C17.7853 13.9475 17.2784 13.7384 16.7501 13.7384C16.2217 13.7384 15.7148 13.9475 15.3401 14.32L14.6301 15.03C14.5371 15.1237 14.4265 15.1981 14.3046 15.2489C14.1828 15.2997 14.0521 15.3258 13.9201 15.3258C13.788 15.3258 13.6573 15.2997 13.5355 15.2489C13.4136 15.1981 13.303 15.1237 13.2101 15.03L9.00006 10.79C8.90633 10.697 8.83194 10.5864 8.78117 10.4646C8.7304 10.3427 8.70426 10.212 8.70426 10.08C8.70426 9.94799 8.7304 9.81728 8.78117 9.69542C8.83194 9.57356 8.90633 9.46296 9.00006 9.37L9.71006 8.66C10.0826 8.28527 10.2916 7.77837 10.2916 7.25C10.2916 6.72163 10.0826 6.21473 9.71006 5.84L9.00006 5.13C8.81431 4.94405 8.59373 4.79653 8.35094 4.69588C8.10814 4.59523 7.84789 4.54343 7.58506 4.54343C7.32223 4.54343 7.06197 4.59523 6.81918 4.69588C6.57638 4.79653 6.3558 4.94405 6.17006 5.13L5.17006 6.13C4.85584 6.42997 4.65455 6.82902 4.60006 7.26C4.42006 8.66 4.52006 12 8.27006 15.73C12.0201 19.46 15.3401 19.58 16.7501 19.41C17.181 19.3555 17.5801 19.1542 17.8801 18.84L18.8801 17.84C19.066 17.6543 19.2135 17.4337 19.3142 17.1909C19.4148 16.9481 19.4666 16.6878 19.4666 16.425C19.4666 16.1622 19.4148 15.9019 19.3142 15.6591C19.2135 15.4163 19.066 15.1957 18.8801 15.01L18.1601 14.32ZM19.0001 4C18.7348 4 18.4805 4.10536 18.293 4.29289C18.1054 4.48043 18.0001 4.73478 18.0001 5V9C18.0001 9.26522 18.1054 9.51957 18.293 9.70711C18.4805 9.89464 18.7348 10 19.0001 10C19.2653 10 19.5196 9.89464 19.7072 9.70711C19.8947 9.51957 20.0001 9.26522 20.0001 9V5C20.0001 4.73478 19.8947 4.48043 19.7072 4.29289C19.5196 4.10536 19.2653 4 19.0001 4Z" fill="currentColor"/>
  </symbol>
  <symbol id="ic_call_hunting" viewBox="0 0 24 24">
    <path d="M9 16.0001H8C7.73478 16.0001 7.48043 15.8948 7.29289 15.7072C7.10536 15.5197 7 15.2654 7 15.0001V9.00014C7 8.73493 7.10536 8.48057 7.29289 8.29304C7.48043 8.1055 7.73478 8.00014 8 8.00014H9C9.53043 8.00014 10.0391 7.78943 10.4142 7.41436C10.7893 7.03928 11 6.53057 11 6.00014V5.00014C11 4.46971 10.7893 3.961 10.4142 3.58593C10.0391 3.21086 9.53043 3.00014 9 3.00014H7.6C7.16642 2.99489 6.74371 3.13579 6.4 3.40014C5.28 4.28014 3 6.71014 3 12.0001C3 17.2901 5.28 19.7201 6.4 20.6001C6.74371 20.8645 7.16642 21.0054 7.6 21.0001H9C9.53043 21.0001 10.0391 20.7894 10.4142 20.4144C10.7893 20.0393 11 19.5306 11 19.0001V18.0001C11 17.4697 10.7893 16.961 10.4142 16.5859C10.0391 16.2109 9.53043 16.0001 9 16.0001ZM20 16.0001C19.7348 16.0001 19.4804 16.1055 19.2929 16.293C19.1054 16.4806 19 16.7349 19 17.0001V17.6001C17.8929 16.5738 16.4396 16.0025 14.93 16.0001H14C13.7348 16.0001 13.4804 16.1055 13.2929 16.293C13.1054 16.4806 13 16.7349 13 17.0001C13 17.2654 13.1054 17.5197 13.2929 17.7072C13.4804 17.8948 13.7348 18.0001 14 18.0001H14.93C15.8964 18.0009 16.8289 18.3568 17.55 19.0001H17C16.7348 19.0001 16.4804 19.1055 16.2929 19.293C16.1054 19.4806 16 19.7349 16 20.0001C16 20.2654 16.1054 20.5197 16.2929 20.7072C16.4804 20.8948 16.7348 21.0001 17 21.0001H20C20.2652 21.0001 20.5196 20.8948 20.7071 20.7072C20.8946 20.5197 21 20.2654 21 20.0001V17.0001C21 16.7349 20.8946 16.4806 20.7071 16.293C20.5196 16.1055 20.2652 16.0001 20 16.0001ZM20 3.00014H17C16.7348 3.00014 16.4804 3.1055 16.2929 3.29303C16.1054 3.48057 16 3.73493 16 4.00014C16 4.26536 16.1054 4.51971 16.2929 4.70725C16.4804 4.89478 16.7348 5.00014 17 5.00014H17.55C16.8289 5.64352 15.8964 5.99941 14.93 6.00014H14C13.7348 6.00014 13.4804 6.1055 13.2929 6.29304C13.1054 6.48057 13 6.73493 13 7.00014C13 7.26536 13.1054 7.51971 13.2929 7.70725C13.4804 7.89478 13.7348 8.00014 14 8.00014H14.93C16.4396 7.99782 17.8929 7.4265 19 6.40014V7.00014C19 7.26536 19.1054 7.51971 19.2929 7.70725C19.4804 7.89478 19.7348 8.00014 20 8.00014C20.2652 8.00014 20.5196 7.89478 20.7071 7.70725C20.8946 7.51971 21 7.26536 21 7.00014V4.00014C21 3.73493 20.8946 3.48057 20.7071 3.29303C20.5196 3.1055 20.2652 3.00014 20 3.00014ZM18.71 9.29014C18.5217 9.10184 18.2663 8.99605 18 8.99605C17.7337 8.99605 17.4783 9.10184 17.29 9.29014C17.1017 9.47845 16.9959 9.73384 16.9959 10.0001C16.9959 10.2664 17.1017 10.5218 17.29 10.7101L17.59 11.0001H11C10.7348 11.0001 10.4804 11.1055 10.2929 11.293C10.1054 11.4806 10 11.7349 10 12.0001C10 12.2654 10.1054 12.5197 10.2929 12.7072C10.4804 12.8948 10.7348 13.0001 11 13.0001H17.59L17.29 13.2901C17.1963 13.3831 17.1219 13.4937 17.0711 13.6156C17.0203 13.7374 16.9942 13.8681 16.9942 14.0001C16.9942 14.1322 17.0203 14.2629 17.0711 14.3847C17.1219 14.5066 17.1963 14.6172 17.29 14.7101C17.383 14.8039 17.4936 14.8783 17.6154 14.929C17.7373 14.9798 17.868 15.0059 18 15.0059C18.132 15.0059 18.2627 14.9798 18.3846 14.929C18.5064 14.8783 18.617 14.8039 18.71 14.7101L20.71 12.7101C20.8037 12.6172 20.8781 12.5066 20.9289 12.3847C20.9797 12.2629 21.0058 12.1322 21.0058 12.0001C21.0058 11.8681 20.9797 11.7374 20.9289 11.6156C20.8781 11.4937 20.8037 11.3831 20.71 11.2901L18.71 9.29014Z" fill="currentColor"/>
  </symbol>
  <symbol id="ic_call_incoming" viewBox="0 0 24 24">
    <path d="M18.1599 14.3202C17.7852 13.9477 17.2783 13.7386 16.7499 13.7386C16.2216 13.7386 15.7147 13.9477 15.3399 14.3202L14.6299 15.0302C14.537 15.1239 14.4264 15.1983 14.3045 15.2491C14.1827 15.2999 14.0519 15.326 13.9199 15.326C13.7879 15.326 13.6572 15.2999 13.5354 15.2491C13.4135 15.1983 13.3029 15.1239 13.2099 15.0302L8.99994 10.7902C8.90621 10.6972 8.83181 10.5866 8.78104 10.4648C8.73028 10.3429 8.70414 10.2122 8.70414 10.0802C8.70414 9.9482 8.73028 9.81749 8.78104 9.69564C8.83181 9.57378 8.90621 9.46318 8.99994 9.37021L9.70994 8.66021C10.0824 8.28549 10.2915 7.77858 10.2915 7.25021C10.2915 6.72184 10.0824 6.21494 9.70994 5.84021L8.99994 5.13021C8.81419 4.94426 8.59361 4.79674 8.35082 4.69609C8.10802 4.59544 7.84777 4.54364 7.58494 4.54364C7.32211 4.54364 7.06185 4.59544 6.81906 4.69609C6.57626 4.79674 6.35568 4.94426 6.16994 5.13021L5.16994 6.13021C4.85572 6.43018 4.65443 6.82923 4.59994 7.26021C4.41994 8.66021 4.51994 12.0002 8.26994 15.7302C12.0199 19.4602 15.3399 19.5802 16.7499 19.4102C17.1809 19.3557 17.58 19.1544 17.8799 18.8402L18.8799 17.8402C19.0659 17.6545 19.2134 17.4339 19.3141 17.1911C19.4147 16.9483 19.4665 16.688 19.4665 16.4252C19.4665 16.1624 19.4147 15.9021 19.3141 15.6593C19.2134 15.4165 19.0659 15.196 18.8799 15.0102L18.1599 14.3202ZM19.7099 4.32021C19.617 4.22648 19.5064 4.15209 19.3845 4.10132C19.2627 4.05055 19.1319 4.02441 18.9999 4.02441C18.8679 4.02441 18.7372 4.05055 18.6154 4.10132C18.4935 4.15209 18.3829 4.22648 18.2899 4.32021L15.9999 6.59021V6.00021C15.9999 5.735 15.8946 5.48064 15.707 5.29311C15.5195 5.10557 15.2652 5.00021 14.9999 5.00021C14.7347 5.00021 14.4804 5.10557 14.2928 5.29311C14.1053 5.48064 13.9999 5.735 13.9999 6.00021V9.00021C14.0015 9.13089 14.0287 9.25999 14.0799 9.38021C14.1814 9.62456 14.3756 9.81874 14.6199 9.92021C14.7402 9.97145 14.8693 9.99863 14.9999 10.0002H17.9999C18.2652 10.0002 18.5195 9.89486 18.707 9.70732C18.8946 9.51978 18.9999 9.26543 18.9999 9.00021C18.9999 8.735 18.8946 8.48064 18.707 8.29311C18.5195 8.10557 18.2652 8.00021 17.9999 8.00021H17.4099L19.7099 5.71021C19.8037 5.61725 19.8781 5.50665 19.9288 5.38479C19.9796 5.26293 20.0057 5.13222 20.0057 5.00021C20.0057 4.8682 19.9796 4.73749 19.9288 4.61564C19.8781 4.49378 19.8037 4.38318 19.7099 4.29021V4.32021Z" fill="currentColor"/>
  </symbol>
  <symbol id="ic_call_incoming_outgoing" viewBox="0 0 24 24">
    <path d="M10.9999 9C11.1316 9.00076 11.262 8.97554 11.3839 8.92577C11.5057 8.87601 11.6165 8.80268 11.7099 8.71L13.9999 6.41V7C13.9999 7.26522 14.1053 7.51957 14.2928 7.70711C14.4804 7.89464 14.7347 8 14.9999 8C15.2652 8 15.5195 7.89464 15.7071 7.70711C15.8946 7.51957 15.9999 7.26522 15.9999 7V4C15.9984 3.86932 15.9712 3.74022 15.9199 3.62C15.8185 3.37565 15.6243 3.18147 15.3799 3.08C15.2597 3.02876 15.1306 3.00158 14.9999 3H11.9999C11.7347 3 11.4804 3.10536 11.2928 3.29289C11.1053 3.48043 10.9999 3.73478 10.9999 4C10.9999 4.26522 11.1053 4.51957 11.2928 4.70711C11.4804 4.89464 11.7347 5 11.9999 5H12.5899L10.2899 7.29C10.1962 7.38296 10.1218 7.49356 10.0711 7.61542C10.0203 7.73728 9.99415 7.86799 9.99415 8C9.99415 8.13201 10.0203 8.26272 10.0711 8.38458C10.1218 8.50644 10.1962 8.61704 10.2899 8.71C10.3834 8.80268 10.4942 8.87601 10.616 8.92577C10.7379 8.97554 10.8683 9.00076 10.9999 9ZM21.7099 8.29C21.617 8.19627 21.5064 8.12188 21.3845 8.07111C21.2627 8.02034 21.132 7.9942 20.9999 7.9942C20.8679 7.9942 20.7372 8.02034 20.6154 8.07111C20.4935 8.12188 20.3829 8.19627 20.2899 8.29L17.9999 10.59V10C17.9999 9.73478 17.8946 9.48043 17.7071 9.29289C17.5195 9.10536 17.2652 9 16.9999 9C16.7347 9 16.4804 9.10536 16.2928 9.29289C16.1053 9.48043 15.9999 9.73478 15.9999 10V13C16.0015 13.1307 16.0287 13.2598 16.0799 13.38C16.1814 13.6243 16.3756 13.8185 16.6199 13.92C16.7402 13.9712 16.8693 13.9984 16.9999 14H19.9999C20.2652 14 20.5195 13.8946 20.7071 13.7071C20.8946 13.5196 20.9999 13.2652 20.9999 13C20.9999 12.7348 20.8946 12.4804 20.7071 12.2929C20.5195 12.1054 20.2652 12 19.9999 12H19.4099L21.7099 9.71C21.8037 9.61704 21.8781 9.50644 21.9288 9.38458C21.9796 9.26272 22.0057 9.13201 22.0057 9C22.0057 8.86799 21.9796 8.73728 21.9288 8.61542C21.8781 8.49356 21.8037 8.38296 21.7099 8.29ZM15.6199 15.86C15.4342 15.674 15.2136 15.5265 14.9708 15.4259C14.728 15.3252 14.4678 15.2734 14.2049 15.2734C13.9421 15.2734 13.6819 15.3252 13.4391 15.4259C13.1963 15.5265 12.9757 15.674 12.7899 15.86L12.0899 16.57C11.997 16.6637 11.8864 16.7381 11.7645 16.7889C11.6427 16.8397 11.512 16.8658 11.3799 16.8658C11.2479 16.8658 11.1172 16.8397 10.9954 16.7889C10.8735 16.7381 10.7629 16.6637 10.6699 16.57L6.42994 12.33C6.33622 12.237 6.26182 12.1264 6.21105 12.0046C6.16028 11.8827 6.13415 11.752 6.13415 11.62C6.13415 11.488 6.16028 11.3573 6.21105 11.2354C6.26182 11.1136 6.33622 11.003 6.42994 10.91L7.13994 10.21C7.3259 10.0243 7.47341 9.80368 7.57406 9.56088C7.67471 9.31808 7.72652 9.05783 7.72652 8.795C7.72652 8.53217 7.67471 8.27192 7.57406 8.02912C7.47341 7.78632 7.3259 7.56575 7.13994 7.38L6.42994 6.67C6.2442 6.48405 6.02362 6.33653 5.78082 6.23588C5.53803 6.13523 5.27777 6.08343 5.01494 6.08343C4.75211 6.08343 4.49186 6.13523 4.24906 6.23588C4.00627 6.33653 3.78569 6.48405 3.59994 6.67L2.59994 7.67C2.2963 7.97642 2.09986 8.3728 2.03994 8.8C1.87994 10.2 1.99994 13.54 5.71994 17.28C9.43994 21.02 12.7999 21.12 14.2099 21C14.6371 20.9401 15.0335 20.7436 15.3399 20.44L16.3399 19.44C16.5259 19.2543 16.6734 19.0337 16.7741 18.7909C16.8747 18.5481 16.9265 18.2878 16.9265 18.025C16.9265 17.7622 16.8747 17.5019 16.7741 17.2591C16.6734 17.0163 16.5259 16.7957 16.3399 16.61L15.6199 15.86Z" fill="currentColor"/>
  </symbol>
  <symbol id="ic_call_missed" viewBox="0 0 24 24">
    <path d="M20.6 16.4002C19.73 15.2802 17.29 13.0002 12 13.0002C6.71 13.0002 4.28 15.2802 3.4 16.4002C3.13 16.7402 3 17.1702 3 17.6002V19.0002C3 20.1002 3.9 21.0002 5 21.0002H6C7.1 21.0002 8 20.1002 8 19.0002V18.0002C8 18.0002 8 17.0002 9 17.0002H15C15 17.0002 16 17.0002 16 18.0002V19.0002C16 20.1002 16.9 21.0002 18 21.0002H19C20.1 21.0002 21 20.1002 21 19.0002V17.6002C21 17.1602 20.87 16.7402 20.6 16.4002ZM7 8.00023C7.55 8.00023 8 7.55023 8 7.00023V6.41023L12.29 10.7002C12.49 10.9002 12.74 10.9902 13 10.9902C13.26 10.9902 13.51 10.8902 13.71 10.7002L17.71 6.70023C18.1 6.31023 18.1 5.68023 17.71 5.29023C17.32 4.90023 16.69 4.90023 16.3 5.29023L13.01 8.58023L9.42 4.99023H10.01C10.56 4.99023 11.01 4.54023 11.01 3.99023C11.01 3.44023 10.56 2.99023 10.01 2.99023H7.01C6.46 2.99023 6.01 3.44023 6.01 3.99023V6.99023C6.01 7.54023 6.46 7.99023 7.01 7.99023L7 8.00023Z" fill="currentColor"/>
  </symbol>
  <symbol id="ic_call_notification" viewBox="0 0 24 24">
    <path d="M17.7901 16.7602L17.0701 16.0702C16.6901 15.7002 16.1901 15.4902 15.6601 15.4902C15.1301 15.4902 14.6201 15.7002 14.2501 16.0702L13.5401 16.7802C13.4501 16.8702 13.3401 16.9502 13.2101 17.0002C13.0901 17.0502 12.9601 17.0802 12.8301 17.0802C12.7001 17.0802 12.5701 17.0502 12.4501 17.0002C12.3301 16.9502 12.2201 16.8802 12.1201 16.7802L7.91008 12.5402C7.82008 12.4502 7.74008 12.3402 7.69008 12.2102C7.64008 12.0902 7.61008 11.9602 7.61008 11.8302C7.61008 11.7002 7.64008 11.5702 7.69008 11.4502C7.74008 11.3302 7.81008 11.2202 7.91008 11.1202L8.62008 10.4102C8.99008 10.0402 9.20008 9.53023 9.20008 9.00023C9.20008 8.47023 8.99008 7.96023 8.62008 7.59023L7.91008 6.88023C7.72008 6.69023 7.50008 6.55023 7.26008 6.45023C7.02008 6.35023 6.76008 6.30023 6.49008 6.30023C6.22008 6.30023 5.97008 6.35023 5.72008 6.45023C5.48008 6.55023 5.26008 6.70023 5.07008 6.88023L4.07008 7.88023C3.76008 8.18023 3.55008 8.58023 3.50008 9.01023C3.32008 10.4102 3.42008 13.7502 7.17008 17.4802C10.9201 21.2102 14.2401 21.3302 15.6501 21.1602C16.0801 21.1102 16.4801 20.9002 16.7801 20.5902L17.7801 19.5902C17.9701 19.4002 18.1101 19.1802 18.2101 18.9402C18.3101 18.7002 18.3601 18.4402 18.3601 18.1702C18.3601 17.9002 18.3101 17.6502 18.2101 17.4002C18.1101 17.1602 17.9601 16.9402 17.7801 16.7502L17.7901 16.7602Z" fill="currentColor"/>
<path d="M20.5701 8.12023H20.1301V5.49023C20.1301 4.56023 19.7601 3.67023 19.1001 3.02023C18.4401 2.36023 17.5501 1.99023 16.6201 1.99023C15.6901 1.99023 14.8001 2.36023 14.1401 3.02023C13.4801 3.68023 13.1101 4.57023 13.1101 5.49023V8.12023H12.6701C12.5501 8.12023 12.4401 8.17024 12.3601 8.25024C12.2801 8.33024 12.2301 8.44024 12.2301 8.56024C12.2301 8.68024 12.2801 8.79024 12.3601 8.87023C12.4401 8.95023 12.5501 9.00024 12.6701 9.00024H20.5701C20.6901 9.00024 20.8001 8.95023 20.8801 8.87023C20.9601 8.79024 21.0101 8.68024 21.0101 8.56024C21.0101 8.44024 20.9601 8.33024 20.8801 8.25024C20.8001 8.17024 20.6901 8.12023 20.5701 8.12023ZM16.6201 11.3102C16.9701 11.3102 17.3001 11.1702 17.5501 10.9202C17.8001 10.6702 17.9401 10.3402 17.9401 9.99024H15.3101C15.3101 10.3402 15.4501 10.6702 15.7001 10.9202C15.9501 11.1702 16.2801 11.3102 16.6301 11.3102H16.6201Z" fill="currentColor"/>
  </symbol>
  <symbol id="ic_call_number" viewBox="0 0 24 24">
    <path d="M15.6199 15.8601C15.4342 15.6742 15.2136 15.5266 14.9708 15.426C14.728 15.3253 14.4678 15.2735 14.2049 15.2735C13.9421 15.2735 13.6819 15.3253 13.4391 15.426C13.1963 15.5266 12.9757 15.6742 12.7899 15.8601L12.0899 16.5701C11.997 16.6638 11.8864 16.7382 11.7645 16.789C11.6427 16.8398 11.512 16.8659 11.3799 16.8659C11.2479 16.8659 11.1172 16.8398 10.9954 16.789C10.8735 16.7382 10.7629 16.6638 10.6699 16.5701L6.42994 12.3301C6.33622 12.2372 6.26182 12.1266 6.21105 12.0047C6.16028 11.8828 6.13415 11.7521 6.13415 11.6201C6.13415 11.4881 6.16028 11.3574 6.21105 11.2355C6.26182 11.1137 6.33622 11.0031 6.42994 10.9101L7.13994 10.2101C7.3259 10.0244 7.47341 9.80379 7.57406 9.561C7.67471 9.3182 7.72652 9.05795 7.72652 8.79512C7.72652 8.53228 7.67471 8.27203 7.57406 8.02924C7.47341 7.78644 7.3259 7.56586 7.13994 7.38012L6.42994 6.67012C6.2442 6.48416 6.02362 6.33664 5.78082 6.236C5.53803 6.13535 5.27777 6.08354 5.01494 6.08354C4.75211 6.08354 4.49186 6.13535 4.24906 6.236C4.00627 6.33664 3.78569 6.48416 3.59994 6.67012L2.59994 7.67012C2.2963 7.97653 2.09986 8.37291 2.03994 8.80012C1.87994 10.2001 1.99994 13.5401 5.71994 17.2801C9.43994 21.0201 12.7999 21.1201 14.2099 21.0001C14.6371 20.9402 15.0335 20.7438 15.3399 20.4401L16.3399 19.4401C16.5259 19.2544 16.6734 19.0338 16.7741 18.791C16.8747 18.5482 16.9265 18.2879 16.9265 18.0251C16.9265 17.7623 16.8747 17.502 16.7741 17.2592C16.6734 17.0164 16.5259 16.7959 16.3399 16.6101L15.6199 15.8601ZM20.9999 6.00012H20.6899L20.9399 5.35012C21.0328 5.10081 21.0228 4.82484 20.9121 4.58292C20.8015 4.341 20.5992 4.15294 20.3499 4.06012C20.1006 3.96729 19.8247 3.9773 19.5828 4.08795C19.3408 4.19859 19.1528 4.40081 19.0599 4.65012L18.5599 6.00012H16.6899L16.9399 5.35012C17.0328 5.10081 17.0228 4.82484 16.9121 4.58292C16.8015 4.341 16.5992 4.15294 16.3499 4.06012C16.1006 3.96729 15.8247 3.9773 15.5828 4.08795C15.3408 4.19859 15.1528 4.40081 15.0599 4.65012L14.5599 6.00012H12.9999C12.7347 6.00012 12.4804 6.10547 12.2928 6.29301C12.1053 6.48055 11.9999 6.7349 11.9999 7.00012C11.9999 7.26533 12.1053 7.51969 12.2928 7.70722C12.4804 7.89476 12.7347 8.00012 12.9999 8.00012H13.8099L13.0599 10.0001H11.9999C11.7347 10.0001 11.4804 10.1055 11.2928 10.293C11.1053 10.4805 10.9999 10.7349 10.9999 11.0001C10.9999 11.2653 11.1053 11.5197 11.2928 11.7072C11.4804 11.8948 11.7347 12.0001 11.9999 12.0001H12.3099L12.0599 12.6501C12.0136 12.7735 11.992 12.9049 11.9966 13.0366C12.0012 13.1684 12.0318 13.2979 12.0866 13.4178C12.1415 13.5377 12.2195 13.6456 12.3161 13.7352C12.4128 13.8249 12.5263 13.8945 12.6499 13.9401C12.7621 13.9808 12.8806 14.0012 12.9999 14.0001C13.2043 14.0008 13.4039 13.9388 13.5719 13.8226C13.74 13.7064 13.8684 13.5415 13.9399 13.3501L14.4399 12.0001H16.3099L16.0599 12.6501C16.0136 12.7735 15.992 12.9049 15.9966 13.0366C16.0012 13.1684 16.0318 13.2979 16.0866 13.4178C16.1415 13.5377 16.2195 13.6456 16.3161 13.7352C16.4128 13.8249 16.5263 13.8945 16.6499 13.9401C16.7621 13.9808 16.8806 14.0012 16.9999 14.0001C17.2043 14.0008 17.4039 13.9388 17.5719 13.8226C17.74 13.7064 17.8684 13.5415 17.9399 13.3501L18.4399 12.0001H19.9999C20.2652 12.0001 20.5195 11.8948 20.7071 11.7072C20.8946 11.5197 20.9999 11.2653 20.9999 11.0001C20.9999 10.7349 20.8946 10.4805 20.7071 10.293C20.5195 10.1055 20.2652 10.0001 19.9999 10.0001H19.1899L19.9399 8.00012H20.9999C21.2652 8.00012 21.5195 7.89476 21.7071 7.70722C21.8946 7.51969 21.9999 7.26533 21.9999 7.00012C21.9999 6.7349 21.8946 6.48055 21.7071 6.29301C21.5195 6.10547 21.2652 6.00012 20.9999 6.00012ZM17.0599 10.0001H15.1899L15.9399 8.00012H17.8099L17.0599 10.0001Z" fill="currentColor"/>
  </symbol>
  <symbol id="ic_call_off" viewBox="0 0 24 24">
    <path d="M20.7099 3.28994C20.617 3.19621 20.5064 3.12182 20.3845 3.07105C20.2627 3.02028 20.132 2.99414 19.9999 2.99414C19.8679 2.99414 19.7372 3.02028 19.6154 3.07105C19.4935 3.12182 19.3829 3.19621 19.2899 3.28994L3.28994 19.2899C3.19621 19.3829 3.12182 19.4935 3.07105 19.6154C3.02028 19.7372 2.99414 19.8679 2.99414 19.9999C2.99414 20.132 3.02028 20.2627 3.07105 20.3845C3.12182 20.5064 3.19621 20.617 3.28994 20.7099C3.3829 20.8037 3.4935 20.8781 3.61536 20.9288C3.73722 20.9796 3.86793 21.0057 3.99994 21.0057C4.13195 21.0057 4.26266 20.9796 4.38452 20.9288C4.50638 20.8781 4.61698 20.8037 4.70994 20.7099L8.99994 16.4199C12.4399 19.4899 15.4399 19.5699 16.7599 19.4199C17.1909 19.3654 17.59 19.1642 17.8899 18.8499L18.8899 17.8499C19.0759 17.6642 19.2234 17.4436 19.3241 17.2008C19.4247 16.958 19.4765 16.6978 19.4765 16.4349C19.4765 16.1721 19.4247 15.9119 19.3241 15.6691C19.2234 15.4263 19.0759 15.2057 18.8899 15.0199L18.1799 14.3099C17.8052 13.9374 17.2983 13.7284 16.7699 13.7284C16.2416 13.7284 15.7347 13.9374 15.3599 14.3099L14.6499 15.0199C14.557 15.1137 14.4464 15.1881 14.3245 15.2388C14.2027 15.2896 14.0719 15.3157 13.9399 15.3157C13.8079 15.3157 13.6772 15.2896 13.5554 15.2388C13.4335 15.1881 13.3229 15.1137 13.2299 15.0199L11.7999 13.6099L20.7099 4.70994C20.8037 4.61698 20.8781 4.50638 20.9288 4.38452C20.9796 4.26266 21.0057 4.13195 21.0057 3.99994C21.0057 3.86793 20.9796 3.73722 20.9288 3.61536C20.8781 3.4935 20.8037 3.3829 20.7099 3.28994ZM8.99994 10.7899C8.90621 10.697 8.83182 10.5864 8.78105 10.4645C8.73028 10.3427 8.70414 10.212 8.70414 10.0799C8.70414 9.94793 8.73028 9.81722 8.78105 9.69536C8.83182 9.5735 8.90621 9.4629 8.99994 9.36994L9.70994 8.65994C10.0824 8.28521 10.2915 7.77831 10.2915 7.24994C10.2915 6.72157 10.0824 6.21466 9.70994 5.83994L8.99994 5.12994C8.81419 4.94399 8.59362 4.79647 8.35082 4.69582C8.10802 4.59517 7.84777 4.54337 7.58494 4.54337C7.32211 4.54337 7.06185 4.59517 6.81906 4.69582C6.57626 4.79647 6.35569 4.94399 6.16994 5.12994L5.16994 6.12994C4.85572 6.42991 4.65443 6.82896 4.59994 7.25994C4.41951 9.4573 5.04119 11.6456 6.34994 13.4199L8.99994 10.7899Z" fill="currentColor"/>
  </symbol>
  <symbol id="ic_call_outgoing" viewBox="0 0 24 24">
    <path d="M19.9199 4.62C19.8185 4.37565 19.6243 4.18147 19.3799 4.08C19.2597 4.02876 19.1306 4.00158 18.9999 4H15.9999C15.7347 4 15.4804 4.10536 15.2928 4.29289C15.1053 4.48043 14.9999 4.73478 14.9999 5C14.9999 5.26522 15.1053 5.51957 15.2928 5.70711C15.4804 5.89464 15.7347 6 15.9999 6H16.5899L14.2899 8.29C14.1962 8.38296 14.1218 8.49356 14.071 8.61542C14.0203 8.73728 13.9941 8.86799 13.9941 9C13.9941 9.13201 14.0203 9.26272 14.071 9.38458C14.1218 9.50644 14.1962 9.61704 14.2899 9.71C14.3829 9.80373 14.4935 9.87812 14.6154 9.92889C14.7372 9.97966 14.8679 10.0058 14.9999 10.0058C15.1319 10.0058 15.2627 9.97966 15.3845 9.92889C15.5064 9.87812 15.617 9.80373 15.7099 9.71L17.9999 7.41V8C17.9999 8.26522 18.1053 8.51957 18.2928 8.70711C18.4804 8.89464 18.7347 9 18.9999 9C19.2652 9 19.5195 8.89464 19.707 8.70711C19.8946 8.51957 19.9999 8.26522 19.9999 8V5C19.9984 4.86932 19.9712 4.74022 19.9199 4.62ZM18.1599 14.32C17.7852 13.9475 17.2783 13.7384 16.7499 13.7384C16.2216 13.7384 15.7147 13.9475 15.3399 14.32L14.6299 15.03C14.537 15.1237 14.4264 15.1981 14.3045 15.2489C14.1827 15.2997 14.0519 15.3258 13.9199 15.3258C13.7879 15.3258 13.6572 15.2997 13.5354 15.2489C13.4135 15.1981 13.3029 15.1237 13.2099 15.03L8.99994 10.79C8.90621 10.697 8.83181 10.5864 8.78104 10.4646C8.73028 10.3427 8.70414 10.212 8.70414 10.08C8.70414 9.94799 8.73028 9.81728 8.78104 9.69542C8.83181 9.57356 8.90621 9.46296 8.99994 9.37L9.70994 8.66C10.0824 8.28527 10.2915 7.77837 10.2915 7.25C10.2915 6.72163 10.0824 6.21473 9.70994 5.84L8.99994 5.13C8.81419 4.94405 8.59361 4.79653 8.35082 4.69588C8.10802 4.59523 7.84777 4.54343 7.58494 4.54343C7.32211 4.54343 7.06185 4.59523 6.81906 4.69588C6.57626 4.79653 6.35568 4.94405 6.16994 5.13L5.16994 6.13C4.85572 6.42997 4.65443 6.82902 4.59994 7.26C4.41994 8.66 4.51994 12 8.26994 15.73C12.0199 19.46 15.3399 19.58 16.7499 19.41C17.1809 19.3555 17.58 19.1542 17.8799 18.84L18.8799 17.84C19.0659 17.6543 19.2134 17.4337 19.3141 17.1909C19.4147 16.9481 19.4665 16.6878 19.4665 16.425C19.4665 16.1622 19.4147 15.9019 19.3141 15.6591C19.2134 15.4163 19.0659 15.1957 18.8799 15.01L18.1599 14.32Z" fill="currentColor"/>
  </symbol>
  <symbol id="ic_call_settings " viewBox="0 0 24 24">
    <path d="M17.22 16.9101L16.5 16.2201C16.12 15.8501 15.62 15.6401 15.09 15.6401C14.56 15.6401 14.05 15.8501 13.68 16.2201L12.97 16.9301C12.88 17.0201 12.77 17.1001 12.64 17.1501C12.52 17.2001 12.39 17.2301 12.26 17.2301C12.13 17.2301 12 17.2001 11.88 17.1501C11.76 17.1001 11.65 17.0301 11.55 16.9301L7.34001 12.6901C7.25001 12.6001 7.17001 12.4901 7.12001 12.3601C7.07001 12.2401 7.04001 12.1101 7.04001 11.9801C7.04001 11.8501 7.07001 11.7201 7.12001 11.6001C7.17001 11.4801 7.24002 11.3701 7.34001 11.2701L8.05001 10.5601C8.42001 10.1901 8.63001 9.68014 8.63001 9.15014C8.63001 8.62014 8.42001 8.11014 8.05001 7.74014L7.34001 7.03014C7.15001 6.84014 6.93001 6.70014 6.69001 6.60014C6.45001 6.50014 6.19001 6.45014 5.92001 6.45014C5.65001 6.45014 5.40001 6.50014 5.15001 6.60014C4.91001 6.70014 4.69001 6.85014 4.50001 7.03014L3.50001 8.03014C3.19001 8.33014 2.98001 8.73014 2.93001 9.16014C2.75001 10.5601 2.85001 13.9001 6.60001 17.6301C10.35 21.3601 13.67 21.4801 15.08 21.3101C15.51 21.2601 15.91 21.0501 16.21 20.7401L17.21 19.7401C17.4 19.5501 17.54 19.3301 17.64 19.0901C17.74 18.8501 17.79 18.5901 17.79 18.3201C17.79 18.0501 17.74 17.8001 17.64 17.5501C17.54 17.3101 17.39 17.0901 17.21 16.9001L17.22 16.9101Z" fill="currentColor"/>
<path d="M20.57 8.89014L19.79 8.44014V7.80014L20.57 7.35014C20.82 7.20014 21 6.97014 21.08 6.68014C21.15 6.40014 21.12 6.10014 20.97 5.85014L20.42 4.90014C20.27 4.65014 20.04 4.47014 19.75 4.39014C19.46 4.31014 19.17 4.35014 18.92 4.50014L18.27 4.87014L18.13 4.95014L17.58 4.63014V3.73014C17.58 3.44014 17.46 3.16014 17.26 2.96014C17.05 2.75014 16.78 2.64014 16.49 2.64014H15.39C15.1 2.64014 14.82 2.76014 14.62 2.96014C14.41 3.17014 14.3 3.44014 14.3 3.73014V4.63014L14.16 4.71014L13.75 4.95014L13.61 4.87014L12.96 4.50014C12.71 4.35014 12.41 4.32014 12.13 4.39014C11.85 4.46014 11.61 4.65014 11.46 4.90014L10.91 5.85014C10.76 6.10014 10.73 6.40014 10.8 6.68014C10.88 6.96014 11.06 7.20014 11.31 7.35014L12.09 7.80014V8.44014L11.31 8.89014C11.06 9.04014 10.88 9.27014 10.8 9.56014C10.73 9.84014 10.76 10.1401 10.91 10.3901L11.46 11.3401C11.61 11.5901 11.84 11.7701 12.13 11.8501C12.41 11.9201 12.71 11.8901 12.96 11.7401L13.74 11.2901L14.29 11.6101V12.5101C14.29 12.8001 14.41 13.0801 14.61 13.2801C14.81 13.4801 15.09 13.6001 15.38 13.6001H16.48C16.77 13.6001 17.05 13.4801 17.25 13.2801C17.45 13.0801 17.57 12.8001 17.57 12.5101V11.6101L18.12 11.2901L18.9 11.7401C19.15 11.8901 19.45 11.9201 19.73 11.8501C20.01 11.7801 20.25 11.5901 20.4 11.3401L20.95 10.3901C21.1 10.1401 21.13 9.84014 21.06 9.56014C20.98 9.28014 20.8 9.04014 20.55 8.89014H20.57ZM17.11 9.28014C16.8 9.59014 16.38 9.76014 15.95 9.76014C15.63 9.76014 15.31 9.66014 15.04 9.48014C14.77 9.30014 14.56 9.04014 14.44 8.74014C14.32 8.44014 14.28 8.11014 14.35 7.79014C14.41 7.47014 14.57 7.18014 14.8 6.95014C15.03 6.72014 15.32 6.56014 15.64 6.50014C15.96 6.44014 16.29 6.47014 16.59 6.59014C16.89 6.71014 17.15 6.93014 17.33 7.20014C17.51 7.47014 17.61 7.79014 17.61 8.11014C17.61 8.55014 17.44 8.96014 17.13 9.27014L17.11 9.28014Z" fill="currentColor"/>
  </symbol>
  <symbol id="ic_call_sound" viewBox="0 0 24 24">
    <path d="M18.1601 14.3202C17.7853 13.9477 17.2784 13.7386 16.7501 13.7386C16.2217 13.7386 15.7148 13.9477 15.3401 14.3202L14.6301 15.0302C14.5371 15.1239 14.4265 15.1983 14.3046 15.2491C14.1828 15.2999 14.0521 15.326 13.9201 15.326C13.788 15.326 13.6573 15.2999 13.5355 15.2491C13.4136 15.1983 13.303 15.1239 13.2101 15.0302L9.00006 10.7902C8.90633 10.6972 8.83194 10.5866 8.78117 10.4648C8.7304 10.3429 8.70426 10.2122 8.70426 10.0802C8.70426 9.94819 8.7304 9.81749 8.78117 9.69563C8.83194 9.57377 8.90633 9.46317 9.00006 9.3702L9.71006 8.6602C10.0826 8.28548 10.2916 7.77858 10.2916 7.25021C10.2916 6.72183 10.0826 6.21493 9.71006 5.84021L9.00006 5.13021C8.81431 4.94425 8.59373 4.79673 8.35094 4.69609C8.10814 4.59544 7.84789 4.54363 7.58506 4.54363C7.32223 4.54363 7.06197 4.59544 6.81918 4.69609C6.57638 4.79673 6.3558 4.94425 6.17006 5.13021L5.17006 6.13021C4.85584 6.43017 4.65455 6.82923 4.60006 7.26021C4.42006 8.66021 4.52006 12.0002 8.27006 15.7302C12.0201 19.4602 15.3401 19.5802 16.7501 19.4102C17.181 19.3557 17.5801 19.1544 17.8801 18.8402L18.8801 17.8402C19.066 17.6545 19.2135 17.4339 19.3142 17.1911C19.4148 16.9483 19.4666 16.688 19.4666 16.4252C19.4666 16.1624 19.4148 15.9021 19.3142 15.6593C19.2135 15.4165 19.066 15.196 18.8801 15.0102L18.1601 14.3202ZM13.6701 9.1102C13.9516 9.20961 14.2073 9.37077 14.4184 9.58188C14.6295 9.79299 14.7907 10.0487 14.8901 10.3302C14.9583 10.5253 15.0853 10.6945 15.2536 10.8145C15.422 10.9345 15.6233 10.9994 15.8301 11.0002C15.9427 10.9989 16.0542 10.9786 16.1601 10.9402C16.4087 10.8519 16.6124 10.6688 16.7267 10.4309C16.841 10.193 16.8565 9.91955 16.7701 9.67021C16.5751 9.10503 16.2541 8.59162 15.8314 8.16888C15.4086 7.74614 14.8952 7.42514 14.3301 7.23021C14.0877 7.16808 13.8308 7.19908 13.6101 7.31709C13.3895 7.4351 13.2211 7.63155 13.1382 7.86765C13.0553 8.10375 13.064 8.36234 13.1624 8.59238C13.2609 8.82242 13.442 9.00718 13.6701 9.1102ZM14.1701 4.11021C13.9048 4.06644 13.6331 4.12983 13.4146 4.28643C13.1961 4.44302 13.0488 4.67999 13.0051 4.94521C12.9613 5.21042 13.0247 5.48216 13.1813 5.70064C13.3379 5.91912 13.5748 6.06644 13.8401 6.11021C14.863 6.28471 15.8062 6.77314 16.5391 7.50778C17.2719 8.24243 17.7581 9.18688 17.9301 10.2102C17.9705 10.445 18.0935 10.6576 18.2769 10.8098C18.4602 10.962 18.6918 11.0437 18.9301 11.0402H19.0901C19.2203 11.0184 19.345 10.9711 19.4569 10.9009C19.5687 10.8306 19.6656 10.739 19.7418 10.6311C19.8181 10.5233 19.8722 10.4014 19.9011 10.2725C19.9299 10.1436 19.933 10.0103 19.9101 9.88021C19.676 8.43832 18.9967 7.10577 17.9674 6.06928C16.9381 5.03278 15.6103 4.34427 14.1701 4.1002V4.11021Z" fill="currentColor"/>
  </symbol>
  <symbol id="ic_call_video" viewBox="0 0 24 24">
    <path d="M16.8399 16.6002L16.1099 15.8502C15.9199 15.6602 15.6999 15.5202 15.4599 15.4202C15.2199 15.3202 14.9599 15.2702 14.6899 15.2702C14.4199 15.2702 14.1699 15.3202 13.9199 15.4202C13.6699 15.5202 13.4599 15.6702 13.2699 15.8502L12.5699 16.5602C12.4799 16.6502 12.3699 16.7302 12.2399 16.7802C12.1199 16.8302 11.9899 16.8602 11.8599 16.8602C11.7299 16.8602 11.5999 16.8302 11.4799 16.7802C11.3599 16.7302 11.2499 16.6502 11.1499 16.5602L6.91992 12.3202C6.82992 12.2302 6.74992 12.1202 6.69992 11.9902C6.64992 11.8702 6.61992 11.7402 6.61992 11.6102C6.61992 11.4802 6.64992 11.3502 6.69992 11.2302C6.74992 11.1102 6.82992 11.0002 6.91992 10.9002L7.62992 10.2002C7.81992 10.0102 7.95992 9.7902 8.05992 9.5502C8.15992 9.3102 8.20992 9.05019 8.20992 8.78019C8.20992 8.51019 8.15992 8.2602 8.05992 8.0102C7.95992 7.7602 7.80992 7.5502 7.62992 7.3602L6.91992 6.6502C6.72992 6.4602 6.50992 6.32019 6.26992 6.2202C6.02992 6.1202 5.76992 6.0702 5.49992 6.0702C5.22992 6.0702 4.97992 6.1202 4.72992 6.2202C4.48992 6.32019 4.26992 6.4702 4.07992 6.6502L3.07992 7.6502C2.77992 7.9602 2.57992 8.35019 2.51992 8.78019C2.35992 10.1802 2.47992 13.5202 6.19992 17.2602C9.91992 21.0002 13.2799 21.1002 14.6899 20.9802C15.1199 20.9202 15.5099 20.7202 15.8199 20.4202L16.8199 19.4202C17.0099 19.2302 17.1499 19.0102 17.2499 18.7702C17.3499 18.5302 17.3999 18.2702 17.3999 18.0002C17.3999 17.7302 17.3499 17.4802 17.2499 17.2302C17.1499 16.9902 16.9999 16.7702 16.8199 16.5802L16.8399 16.6002Z" fill="currentColor"/>
<path d="M21.8699 4.2602C21.7799 4.1202 21.6599 4.0102 21.5099 3.9302C21.3599 3.8602 21.1999 3.8302 21.0399 3.8402C20.8799 3.8502 20.7199 3.9102 20.5899 4.0102L19.0599 5.1902V4.7202C19.0599 4.2502 18.8699 3.8002 18.5399 3.4702C18.2099 3.1402 17.7599 2.9502 17.2899 2.9502H11.9899C11.5199 2.9502 11.0699 3.1402 10.7399 3.4702C10.4099 3.8002 10.2199 4.2502 10.2199 4.7202V8.2502C10.2199 8.7202 10.4099 9.1702 10.7399 9.5002C11.0699 9.8302 11.5199 10.0202 11.9899 10.0202H17.2899C17.7599 10.0202 18.2099 9.8302 18.5399 9.5002C18.8699 9.1702 19.0599 8.7202 19.0599 8.2502V7.81019L20.5899 8.9602C20.7199 9.0602 20.8799 9.1202 21.0399 9.1302C21.1999 9.1402 21.3699 9.1102 21.5099 9.0402C21.6599 8.9702 21.7799 8.8502 21.8699 8.7102C21.9599 8.5702 21.9999 8.4102 21.9999 8.2502V4.7202C21.9999 4.5602 21.9499 4.4002 21.8699 4.2602Z" fill="currentColor"/>
  </symbol>
  <symbol id="ic_call_wifi" viewBox="0 0 24 24">
    <path d="M15.9999 12.0002C15.8022 12.0002 15.6088 12.0588 15.4444 12.1687C15.2799 12.2786 15.1518 12.4348 15.0761 12.6175C15.0004 12.8002 14.9806 13.0013 15.0192 13.1953C15.0577 13.3893 15.153 13.5674 15.2928 13.7073C15.4327 13.8471 15.6109 13.9424 15.8049 13.981C15.9988 14.0196 16.1999 13.9998 16.3826 13.9241C16.5654 13.8484 16.7215 13.7202 16.8314 13.5558C16.9413 13.3913 16.9999 13.198 16.9999 13.0002C16.9999 12.735 16.8946 12.4806 16.7071 12.2931C16.5195 12.1055 16.2652 12.0002 15.9999 12.0002ZM15.6199 15.8602C15.4342 15.6742 15.2136 15.5267 14.9708 15.4261C14.728 15.3254 14.4678 15.2736 14.2049 15.2736C13.9421 15.2736 13.6819 15.3254 13.4391 15.4261C13.1963 15.5267 12.9757 15.6742 12.7899 15.8602L12.0899 16.5702C11.997 16.6639 11.8864 16.7383 11.7645 16.7891C11.6427 16.8398 11.512 16.866 11.3799 16.866C11.2479 16.866 11.1172 16.8398 10.9954 16.7891C10.8735 16.7383 10.7629 16.6639 10.6699 16.5702L6.42994 12.3302C6.33622 12.2372 6.26182 12.1266 6.21105 12.0048C6.16028 11.8829 6.13415 11.7522 6.13415 11.6202C6.13415 11.4882 6.16028 11.3575 6.21105 11.2356C6.26182 11.1138 6.33622 11.0031 6.42994 10.9102L7.13994 10.2102C7.3259 10.0244 7.47341 9.80386 7.57406 9.56107C7.67471 9.31827 7.72652 9.05802 7.72652 8.79519C7.72652 8.53236 7.67471 8.2721 7.57406 8.02931C7.47341 7.78651 7.3259 7.56593 7.13994 7.38019L6.42994 6.67019C6.2442 6.48423 6.02362 6.33672 5.78082 6.23607C5.53803 6.13542 5.27777 6.08361 5.01494 6.08361C4.75211 6.08361 4.49186 6.13542 4.24906 6.23607C4.00627 6.33672 3.78569 6.48423 3.59994 6.67019L2.59994 7.67019C2.2963 7.9766 2.09986 8.37298 2.03994 8.80019C1.87994 10.2002 1.99994 13.5402 5.71994 17.2802C9.43994 21.0202 12.7999 21.1202 14.2099 21.0002C14.6371 20.9403 15.0335 20.7438 15.3399 20.4402L16.3399 19.4402C16.5259 19.2544 16.6734 19.0339 16.7741 18.7911C16.8747 18.5483 16.9265 18.288 16.9265 18.0252C16.9265 17.7624 16.8747 17.5021 16.7741 17.2593C16.6734 17.0165 16.5259 16.7959 16.3399 16.6102L15.6199 15.8602ZM21.5599 5.69019C19.909 4.60907 17.9784 4.0332 16.0049 4.0332C14.0315 4.0332 12.1009 4.60907 10.4499 5.69019C10.2726 5.80935 10.1381 5.98217 10.0661 6.18334C9.99414 6.3845 9.98849 6.60343 10.05 6.80804C10.1115 7.01266 10.2369 7.1922 10.4078 7.32035C10.5788 7.4485 10.7863 7.51854 10.9999 7.52019C11.1965 7.52243 11.3889 7.46298 11.5499 7.35019C12.8708 6.48463 14.4157 6.02355 15.9949 6.02355C17.5742 6.02355 19.119 6.48463 20.4399 7.35019C20.6592 7.49588 20.9271 7.54925 21.1854 7.4987C21.4438 7.44816 21.6718 7.29777 21.8199 7.08019C21.9698 6.86138 22.0265 6.59201 21.9778 6.33134C21.929 6.07068 21.7787 5.84005 21.5599 5.69019ZM18.9999 8.86019C18.0865 8.30061 17.0362 8.00446 15.9649 8.00446C14.8937 8.00446 13.8434 8.30061 12.9299 8.86019C12.7297 9.00579 12.5906 9.22049 12.5396 9.46273C12.4886 9.70497 12.5292 9.95753 12.6536 10.1715C12.778 10.3856 12.9774 10.5458 13.2132 10.6213C13.449 10.6968 13.7044 10.6821 13.9299 10.5802C14.5308 10.2083 15.2234 10.0113 15.9299 10.0113C16.6365 10.0113 17.3291 10.2083 17.9299 10.5802C18.0843 10.6718 18.2605 10.7201 18.4399 10.7202C18.6135 10.7202 18.784 10.675 18.9348 10.5891C19.0856 10.5031 19.2114 10.3795 19.2999 10.2302C19.4396 10.0081 19.4865 9.74006 19.4304 9.48378C19.3742 9.2275 19.2197 9.00354 18.9999 8.86019Z" fill="currentColor"/>
  </symbol>
</svg>
