<!-- JioGames DLS — amera icons (9 icons) -->
<svg xmlns="http://www.w3.org/2000/svg" style="display:none">
  <symbol id="ic_camera" viewBox="0 0 24 24">
    <path d="M19 7.00003H18.1C17.9318 6.99868 17.7666 6.9549 17.6197 6.87274C17.4729 6.79059 17.3492 6.67271 17.26 6.53003L16.26 4.93003C16.0787 4.64366 15.8275 4.40807 15.5302 4.24539C15.2328 4.08272 14.899 3.99828 14.56 4.00003H9.44C9.10274 3.99998 8.77094 4.08521 8.47547 4.24781C8.17999 4.41041 7.93043 4.64509 7.75 4.93003L6.75 6.53003C6.65993 6.67414 6.53462 6.79292 6.38589 6.87516C6.23717 6.95739 6.06994 7.00037 5.9 7.00003H5C4.20435 7.00003 3.44129 7.3161 2.87868 7.87871C2.31607 8.44132 2 9.20438 2 10V17C2 17.7957 2.31607 18.5587 2.87868 19.1213C3.44129 19.684 4.20435 20 5 20H19C19.7956 20 20.5587 19.684 21.1213 19.1213C21.6839 18.5587 22 17.7957 22 17V10C22 9.20438 21.6839 8.44132 21.1213 7.87871C20.5587 7.3161 19.7956 7.00003 19 7.00003ZM12 16C11.4067 16 10.8266 15.8241 10.3333 15.4944C9.83994 15.1648 9.45542 14.6963 9.22836 14.1481C9.0013 13.5999 8.94189 12.9967 9.05764 12.4148C9.1734 11.8328 9.45912 11.2983 9.87868 10.8787C10.2982 10.4591 10.8328 10.1734 11.4147 10.0577C11.9967 9.94191 12.5999 10.0013 13.1481 10.2284C13.6962 10.4555 14.1648 10.84 14.4944 11.3333C14.8241 11.8267 15 12.4067 15 13C15 13.7957 14.6839 14.5587 14.1213 15.1213C13.5587 15.684 12.7956 16 12 16Z" fill="currentColor"/>
  </symbol>
  <symbol id="ic_camera_auto" viewBox="0 0 24 24">
    <path d="M11.12 14H12.88L12 12.24L11.12 14ZM19 7.00003H18.1C17.9318 6.99868 17.7666 6.9549 17.6197 6.87274C17.4729 6.79059 17.3492 6.67271 17.26 6.53003L16.26 4.93003C16.0787 4.64366 15.8275 4.40807 15.5302 4.24539C15.2328 4.08272 14.899 3.99828 14.56 4.00003H9.44C9.10274 3.99998 8.77094 4.08521 8.47547 4.24781C8.17999 4.41041 7.93043 4.64509 7.75 4.93003L6.75 6.53003C6.65993 6.67414 6.53462 6.79292 6.38589 6.87516C6.23717 6.95739 6.06994 7.00037 5.9 7.00003H5C4.20435 7.00003 3.44129 7.3161 2.87868 7.87871C2.31607 8.44132 2 9.20438 2 10V17C2 17.7957 2.31607 18.5587 2.87868 19.1213C3.44129 19.684 4.20435 20 5 20H19C19.7956 20 20.5587 19.684 21.1213 19.1213C21.6839 18.5587 22 17.7957 22 17V10C22 9.20438 21.6839 8.44132 21.1213 7.87871C20.5587 7.3161 19.7956 7.00003 19 7.00003ZM15.45 16.89C15.3117 16.9641 15.1569 17.0019 15 17C14.8153 16.9995 14.6344 16.9478 14.4773 16.8507C14.3202 16.7536 14.1931 16.6149 14.11 16.45L13.88 16H10.12L9.89 16.45C9.75982 16.6664 9.55261 16.8255 9.30999 16.8954C9.06736 16.9653 8.80727 16.9408 8.58194 16.8269C8.35661 16.7129 8.18272 16.518 8.09518 16.2811C8.00764 16.0443 8.01293 15.7831 8.11 15.55L11.11 9.55003C11.1939 9.38622 11.3214 9.24876 11.4784 9.15277C11.6355 9.05678 11.816 9.00599 12 9.00599C12.184 9.00599 12.3645 9.05678 12.5216 9.15277C12.6786 9.24876 12.8061 9.38622 12.89 9.55003L15.89 15.55C16.0086 15.7862 16.0289 16.0597 15.9465 16.3108C15.864 16.5619 15.6855 16.7701 15.45 16.89Z" fill="currentColor"/>
  </symbol>
  <symbol id="ic_camera_dome" viewBox="0 0 24 24">
    <path d="M12 7C11.8022 7 11.6089 7.05865 11.4444 7.16853C11.28 7.27841 11.1518 7.43459 11.0761 7.61732C11.0004 7.80004 10.9806 8.00111 11.0192 8.19509C11.0578 8.38907 11.153 8.56725 11.2929 8.70711C11.4327 8.84696 11.6109 8.9422 11.8049 8.98079C11.9989 9.01937 12.2 8.99957 12.3827 8.92388C12.5654 8.84819 12.7216 8.72002 12.8315 8.55557C12.9414 8.39112 13 8.19778 13 8C13 7.73478 12.8946 7.48043 12.7071 7.29289C12.5196 7.10536 12.2652 7 12 7ZM5 19C5 19.7956 5.31607 20.5587 5.87868 21.1213C6.44129 21.6839 7.20435 22 8 22H16C16.7956 22 17.5587 21.6839 18.1213 21.1213C18.6839 20.5587 19 19.7956 19 19V17H5V19ZM16 2H8C7.20435 2 6.44129 2.31607 5.87868 2.87868C5.31607 3.44129 5 4.20435 5 5V14H19V5C19 4.20435 18.6839 3.44129 18.1213 2.87868C17.5587 2.31607 16.7956 2 16 2ZM12 11C11.4067 11 10.8266 10.8241 10.3333 10.4944C9.83994 10.1648 9.45542 9.69623 9.22836 9.14805C9.0013 8.59987 8.94189 7.99667 9.05764 7.41473C9.1734 6.83279 9.45912 6.29824 9.87868 5.87868C10.2982 5.45912 10.8328 5.1734 11.4147 5.05764C11.9967 4.94189 12.5999 5.0013 13.1481 5.22836C13.6962 5.45542 14.1648 5.83994 14.4944 6.33329C14.8241 6.82664 15 7.40666 15 8C15 8.79565 14.6839 9.55871 14.1213 10.1213C13.5587 10.6839 12.7956 11 12 11Z" fill="currentColor"/>
  </symbol>
  <symbol id="ic_camera_filter" viewBox="0 0 24 24">
    <path d="M7.56 13.41C6.52 13.11 6.39 12.99 6.09 11.95C6.02 11.69 5.77 11.5 5.5 11.5C5.23 11.5 4.98 11.68 4.91 11.94C4.61 12.98 4.49 13.11 3.45 13.41C3.19 13.48 3 13.73 3 14C3 14.27 3.18 14.52 3.44 14.59C4.48 14.89 4.61 15.01 4.91 16.05C4.98 16.31 5.23 16.5 5.5 16.5C5.77 16.5 6.02 16.32 6.09 16.06C6.39 15.02 6.51 14.89 7.55 14.59C7.81 14.52 8 14.27 8 14C8 13.73 7.82 13.49 7.56 13.41ZM11.94 6.09C12.98 6.39 13.11 6.51 13.41 7.55C13.48 7.81 13.73 8 14 8C14.27 8 14.52 7.82 14.59 7.56C14.89 6.52 15.01 6.39 16.05 6.09C16.31 6.02 16.5 5.77 16.5 5.5C16.5 5.23 16.32 4.99 16.06 4.91C15.02 4.61 14.89 4.49 14.59 3.45C14.52 3.19 14.27 3 14 3C13.73 3 13.48 3.18 13.41 3.44C13.11 4.48 12.99 4.61 11.95 4.91C11.69 4.98 11.5 5.23 11.5 5.5C11.5 5.77 11.68 6.02 11.94 6.09ZM8.99 5.99C8.99 5.7 8.8 5.44 8.51 5.36C7.18 4.98 7.01 4.8 6.62 3.47C6.54 3.19 6.28 3 5.99 3C5.7 3 5.44 3.19 5.36 3.48C4.98 4.81 4.8 4.98 3.48 5.37C3.2 5.45 3 5.71 3 6.01C3 6.31 3.2 6.56 3.48 6.64C4.81 7.02 4.99 7.2 5.37 8.53C5.45 8.81 5.71 9 6 9C6.29 8.99 6.55 8.8 6.63 8.51C7.01 7.18 7.19 7.01 8.51 6.62C8.79 6.54 8.99 6.28 8.99 5.99ZM19.71 18.29L10.42 9C10.03 8.61 9.4 8.61 9.01 9C8.62 9.39 8.62 10.02 9.01 10.41L18.3 19.7C18.69 20.09 19.32 20.09 19.71 19.7C20.1 19.31 20.1 18.68 19.71 18.29Z" fill="currentColor"/>
  </symbol>
  <symbol id="ic_camera_focus" viewBox="0 0 24 24">
    <path d="M12 8C11.2089 8 10.4355 8.2346 9.77772 8.67412C9.11992 9.11365 8.60723 9.73836 8.30448 10.4693C8.00173 11.2002 7.92252 12.0044 8.07686 12.7804C8.2312 13.5563 8.61216 14.269 9.17157 14.8284C9.73098 15.3878 10.4437 15.7688 11.2196 15.9231C11.9956 16.0775 12.7998 15.9983 13.5307 15.6955C14.2616 15.3928 14.8864 14.8801 15.3259 14.2223C15.7654 13.5645 16 12.7911 16 12C16 10.9391 15.5786 9.92172 14.8284 9.17157C14.0783 8.42143 13.0609 8 12 8ZM21 11H19.93C19.7068 9.23998 18.9049 7.60408 17.6504 6.34959C16.3959 5.0951 14.76 4.29319 13 4.07V4V3C13 2.73478 12.8946 2.48043 12.7071 2.29289C12.5196 2.10536 12.2652 2 12 2C11.7348 2 11.4804 2.10536 11.2929 2.29289C11.1054 2.48043 11 2.73478 11 3V4C11 4 11 4 11 4.07C9.23998 4.29319 7.60408 5.0951 6.34959 6.34959C5.0951 7.60408 4.29319 9.23998 4.07 11H3C2.73478 11 2.48043 11.1054 2.29289 11.2929C2.10536 11.4804 2 11.7348 2 12C2 12.2652 2.10536 12.5196 2.29289 12.7071C2.48043 12.8946 2.73478 13 3 13H4.07C4.29319 14.76 5.0951 16.3959 6.34959 17.6504C7.60408 18.9049 9.23998 19.7068 11 19.93V20V21C11 21.2652 11.1054 21.5196 11.2929 21.7071C11.4804 21.8946 11.7348 22 12 22C12.2652 22 12.5196 21.8946 12.7071 21.7071C12.8946 21.5196 13 21.2652 13 21V20C13 20 13 20 13 19.93C14.76 19.7068 16.3959 18.9049 17.6504 17.6504C18.9049 16.3959 19.7068 14.76 19.93 13H21C21.2652 13 21.5196 12.8946 21.7071 12.7071C21.8946 12.5196 22 12.2652 22 12C22 11.7348 21.8946 11.4804 21.7071 11.2929C21.5196 11.1054 21.2652 11 21 11ZM12 18C10.8133 18 9.65327 17.6481 8.66658 16.9888C7.67988 16.3295 6.91085 15.3925 6.45672 14.2961C6.0026 13.1997 5.88378 11.9933 6.11529 10.8295C6.3468 9.66557 6.91824 8.59647 7.75736 7.75736C8.59647 6.91824 9.66557 6.3468 10.8295 6.11529C11.9933 5.88378 13.1997 6.0026 14.2961 6.45672C15.3925 6.91085 16.3295 7.67988 16.9888 8.66658C17.6481 9.65327 18 10.8133 18 12C18 13.5913 17.3679 15.1174 16.2426 16.2426C15.1174 17.3679 13.5913 18 12 18Z" fill="currentColor"/>
  </symbol>
  <symbol id="ic_camera_high_end" viewBox="0 0 24 24">
    <path d="M19 7.00003H18.1C17.9318 6.99868 17.7666 6.9549 17.6197 6.87274C17.4729 6.79059 17.3492 6.67271 17.26 6.53003L16.26 4.93003C16.0787 4.64366 15.8275 4.40807 15.5302 4.24539C15.2328 4.08272 14.899 3.99828 14.56 4.00003H9.44C9.10274 3.99998 8.77094 4.08521 8.47547 4.24781C8.17999 4.41041 7.93043 4.64509 7.75 4.93003L6.75 6.53003C6.65993 6.67414 6.53462 6.79292 6.38589 6.87516C6.23717 6.95739 6.06994 7.00037 5.9 7.00003H5C4.20435 7.00003 3.44129 7.3161 2.87868 7.87871C2.31607 8.44132 2 9.20438 2 10V17C2 17.7957 2.31607 18.5587 2.87868 19.1213C3.44129 19.684 4.20435 20 5 20H19C19.7956 20 20.5587 19.684 21.1213 19.1213C21.6839 18.5587 22 17.7957 22 17V10C22 9.20438 21.6839 8.44132 21.1213 7.87871C20.5587 7.3161 19.7956 7.00003 19 7.00003ZM12 16C11.4067 16 10.8266 15.8241 10.3333 15.4944C9.83994 15.1648 9.45542 14.6963 9.22836 14.1481C9.0013 13.5999 8.94189 12.9967 9.05764 12.4148C9.1734 11.8328 9.45912 11.2983 9.87868 10.8787C10.2982 10.4591 10.8328 10.1734 11.4147 10.0577C11.9967 9.94191 12.5999 10.0013 13.1481 10.2284C13.6962 10.4555 14.1648 10.84 14.4944 11.3333C14.8241 11.8267 15 12.4067 15 13C15 13.7957 14.6839 14.5587 14.1213 15.1213C13.5587 15.684 12.7956 16 12 16ZM18 12C17.8022 12 17.6089 11.9414 17.4444 11.8315C17.28 11.7216 17.1518 11.5654 17.0761 11.3827C17.0004 11.2 16.9806 10.9989 17.0192 10.8049C17.0578 10.611 17.153 10.4328 17.2929 10.2929C17.4327 10.1531 17.6109 10.0578 17.8049 10.0192C17.9989 9.98066 18.2 10.0005 18.3827 10.0761C18.5654 10.1518 18.7216 10.28 18.8315 10.4445C18.9414 10.6089 19 10.8022 19 11C19 11.2652 18.8946 11.5196 18.7071 11.7071C18.5196 11.8947 18.2652 12 18 12Z" fill="currentColor"/>
  </symbol>
  <symbol id="ic_camera_manual" viewBox="0 0 24 24">
    <path d="M19 7.00003H18.1C17.9318 6.99868 17.7666 6.9549 17.6197 6.87274C17.4729 6.79059 17.3492 6.67271 17.26 6.53003L16.26 4.93003C16.0787 4.64366 15.8275 4.40807 15.5302 4.24539C15.2328 4.08272 14.899 3.99828 14.56 4.00003H9.44C9.10274 3.99998 8.77094 4.08521 8.47547 4.24781C8.17999 4.41041 7.93043 4.64509 7.75 4.93003L6.75 6.53003C6.65993 6.67414 6.53462 6.79292 6.38589 6.87516C6.23717 6.95739 6.06994 7.00037 5.9 7.00003H5C4.20435 7.00003 3.44129 7.3161 2.87868 7.87871C2.31607 8.44132 2 9.20438 2 10V17C2 17.7957 2.31607 18.5587 2.87868 19.1213C3.44129 19.684 4.20435 20 5 20H19C19.7956 20 20.5587 19.684 21.1213 19.1213C21.6839 18.5587 22 17.7957 22 17V10C22 9.20438 21.6839 8.44132 21.1213 7.87871C20.5587 7.3161 19.7956 7.00003 19 7.00003ZM17 16C17 16.2652 16.8946 16.5196 16.7071 16.7071C16.5196 16.8947 16.2652 17 16 17C15.7348 17 15.4804 16.8947 15.2929 16.7071C15.1054 16.5196 15 16.2652 15 16V12.24L12.89 16.45C12.8061 16.6138 12.6786 16.7513 12.5216 16.8473C12.3645 16.9433 12.184 16.9941 12 16.9941C11.816 16.9941 11.6355 16.9433 11.4784 16.8473C11.3214 16.7513 11.1939 16.6138 11.11 16.45L9 12.24V16C9 16.2652 8.89464 16.5196 8.70711 16.7071C8.51957 16.8947 8.26522 17 8 17C7.73478 17 7.48043 16.8947 7.29289 16.7071C7.10536 16.5196 7 16.2652 7 16V10C7 9.73481 7.10536 9.48046 7.29289 9.29292C7.48043 9.10538 7.73478 9.00003 8 9.00003H9C9.18467 9.00059 9.36557 9.05227 9.52267 9.14935C9.67976 9.24643 9.8069 9.38511 9.89 9.55003L12 13.76L14.11 9.55003C14.1931 9.38511 14.3202 9.24643 14.4773 9.14935C14.6344 9.05227 14.8153 9.00059 15 9.00003H16C16.2652 9.00003 16.5196 9.10538 16.7071 9.29292C16.8946 9.48046 17 9.73481 17 10V16Z" fill="currentColor"/>
  </symbol>
  <symbol id="ic_camera_varifocal_bullet" viewBox="0 0 24 24">
    <path d="M11.9779 13C11.7802 13 11.5868 13.0586 11.4224 13.1685C11.2579 13.2784 11.1298 13.4346 11.0541 13.6173C10.9784 13.8 10.9586 14.0011 10.9972 14.1951C11.0357 14.3891 11.131 14.5673 11.2708 14.7071C11.4107 14.847 11.5889 14.9422 11.7829 14.9808C11.9768 15.0194 12.1779 14.9996 12.3606 14.9239C12.5434 14.8482 12.6995 14.72 12.8094 14.5556C12.9193 14.3911 12.9779 14.1978 12.9779 14C12.9779 13.7348 12.8726 13.4804 12.6851 13.2929C12.4975 13.1054 12.2432 13 11.9779 13ZM21.6879 10L18.6879 5C18.5143 4.69918 18.2653 4.44876 17.9655 4.27342C17.6656 4.09807 17.3253 4.00384 16.9779 4H6.97795C6.63062 4.00384 6.29029 4.09807 5.99045 4.27342C5.69061 4.44876 5.4416 4.69918 5.26795 5L2.26795 10C2.09241 10.304 2 10.6489 2 11C2 11.3511 2.09241 11.696 2.26795 12C2.4416 12.3008 2.69061 12.5512 2.99045 12.7266C3.29029 12.9019 3.63062 12.9962 3.97795 13H4.97795V17C4.97795 17.7956 5.29402 18.5587 5.85663 19.1213C6.41924 19.6839 7.1823 20 7.97795 20H15.9779C16.7736 20 17.5367 19.6839 18.0993 19.1213C18.6619 18.5587 18.9779 17.7956 18.9779 17V13H19.9779C20.3304 13.0014 20.6769 12.9097 20.9825 12.734C21.288 12.5584 21.5417 12.3052 21.7179 12C21.8889 11.6933 21.9762 11.3471 21.9709 10.996C21.9657 10.6449 21.8681 10.3014 21.6879 10ZM11.9779 17C11.3846 17 10.8046 16.8241 10.3112 16.4944C9.81789 16.1648 9.43337 15.6962 9.20631 15.1481C8.97925 14.5999 8.91984 13.9967 9.03559 13.4147C9.15135 12.8328 9.43707 12.2982 9.85663 11.8787C10.2762 11.4591 10.8107 11.1734 11.3927 11.0576C11.9746 10.9419 12.5778 11.0013 13.126 11.2284C13.6742 11.4554 14.1427 11.8399 14.4724 12.3333C14.802 12.8266 14.9779 13.4067 14.9779 14C14.9779 14.7956 14.6619 15.5587 14.0993 16.1213C13.5367 16.6839 12.7736 17 11.9779 17Z" fill="currentColor"/>
  </symbol>
  <symbol id="ic_camera_varifocal_dome" viewBox="0 0 24 24">
    <path d="M18 3H6C5.20435 3 4.44129 3.31607 3.87868 3.87868C3.31607 4.44129 3 5.20435 3 6V18C3 18.7956 3.31607 19.5587 3.87868 20.1213C4.44129 20.6839 5.20435 21 6 21H18C18.7956 21 19.5587 20.6839 20.1213 20.1213C20.6839 19.5587 21 18.7956 21 18V6C21 5.20435 20.6839 4.44129 20.1213 3.87868C19.5587 3.31607 18.7956 3 18 3ZM16 7C16.1978 7 16.3911 7.05865 16.5556 7.16853C16.72 7.27841 16.8482 7.43459 16.9239 7.61732C16.9996 7.80004 17.0194 8.00111 16.9808 8.19509C16.9422 8.38907 16.847 8.56725 16.7071 8.70711C16.5673 8.84696 16.3891 8.9422 16.1951 8.98079C16.0011 9.01937 15.8 8.99957 15.6173 8.92388C15.4346 8.84819 15.2784 8.72002 15.1685 8.55557C15.0586 8.39112 15 8.19778 15 8C15 7.73478 15.1054 7.48043 15.2929 7.29289C15.4804 7.10536 15.7348 7 16 7ZM12 5C12.1978 5 12.3911 5.05865 12.5556 5.16853C12.72 5.27841 12.8482 5.43459 12.9239 5.61732C12.9996 5.80004 13.0194 6.00111 12.9808 6.19509C12.9422 6.38907 12.847 6.56725 12.7071 6.70711C12.5673 6.84696 12.3891 6.9422 12.1951 6.98079C12.0011 7.01937 11.8 6.99957 11.6173 6.92388C11.4346 6.84819 11.2784 6.72002 11.1685 6.55557C11.0586 6.39112 11 6.19778 11 6C11 5.73478 11.1054 5.48043 11.2929 5.29289C11.4804 5.10536 11.7348 5 12 5ZM8 7C8.19778 7 8.39112 7.05865 8.55557 7.16853C8.72002 7.27841 8.84819 7.43459 8.92388 7.61732C8.99957 7.80004 9.01937 8.00111 8.98079 8.19509C8.9422 8.38907 8.84696 8.56725 8.70711 8.70711C8.56725 8.84696 8.38907 8.9422 8.19509 8.98079C8.00111 9.01937 7.80004 8.99957 7.61732 8.92388C7.43459 8.84819 7.27841 8.72002 7.16853 8.55557C7.05865 8.39112 7 8.19778 7 8C7 7.73478 7.10536 7.48043 7.29289 7.29289C7.48043 7.10536 7.73478 7 8 7ZM6 13C5.80222 13 5.60888 12.9414 5.44443 12.8315C5.27998 12.7216 5.15181 12.5654 5.07612 12.3827C5.00043 12.2 4.98063 11.9989 5.01921 11.8049C5.0578 11.6109 5.15304 11.4327 5.29289 11.2929C5.43275 11.153 5.61093 11.0578 5.80491 11.0192C5.99889 10.9806 6.19996 11.0004 6.38268 11.0761C6.56541 11.1518 6.72159 11.28 6.83147 11.4444C6.94135 11.6089 7 11.8022 7 12C7 12.2652 6.89464 12.5196 6.70711 12.7071C6.51957 12.8946 6.26522 13 6 13ZM8 17C7.80222 17 7.60888 16.9414 7.44443 16.8315C7.27998 16.7216 7.15181 16.5654 7.07612 16.3827C7.00043 16.2 6.98063 15.9989 7.01921 15.8049C7.0578 15.6109 7.15304 15.4327 7.29289 15.2929C7.43275 15.153 7.61093 15.0578 7.80491 15.0192C7.99889 14.9806 8.19996 15.0004 8.38268 15.0761C8.56541 15.1518 8.72159 15.28 8.83147 15.4444C8.94135 15.6089 9 15.8022 9 16C9 16.2652 8.89464 16.5196 8.70711 16.7071C8.51957 16.8946 8.26522 17 8 17ZM12 19C11.8022 19 11.6089 18.9414 11.4444 18.8315C11.28 18.7216 11.1518 18.5654 11.0761 18.3827C11.0004 18.2 10.9806 17.9989 11.0192 17.8049C11.0578 17.6109 11.153 17.4327 11.2929 17.2929C11.4327 17.153 11.6109 17.0578 11.8049 17.0192C11.9989 16.9806 12.2 17.0004 12.3827 17.0761C12.5654 17.1518 12.7216 17.28 12.8315 17.4444C12.9414 17.6089 13 17.8022 13 18C13 18.2652 12.8946 18.5196 12.7071 18.7071C12.5196 18.8946 12.2652 19 12 19ZM12 15C11.4067 15 10.8266 14.8241 10.3333 14.4944C9.83994 14.1648 9.45542 13.6962 9.22836 13.1481C9.0013 12.5999 8.94189 11.9967 9.05764 11.4147C9.1734 10.8328 9.45912 10.2982 9.87868 9.87868C10.2982 9.45912 10.8328 9.1734 11.4147 9.05764C11.9967 8.94189 12.5999 9.0013 13.1481 9.22836C13.6962 9.45542 14.1648 9.83994 14.4944 10.3333C14.8241 10.8266 15 11.4067 15 12C15 12.7956 14.6839 13.5587 14.1213 14.1213C13.5587 14.6839 12.7956 15 12 15ZM16 17C15.8022 17 15.6089 16.9414 15.4444 16.8315C15.28 16.7216 15.1518 16.5654 15.0761 16.3827C15.0004 16.2 14.9806 15.9989 15.0192 15.8049C15.0578 15.6109 15.153 15.4327 15.2929 15.2929C15.4327 15.153 15.6109 15.0578 15.8049 15.0192C15.9989 14.9806 16.2 15.0004 16.3827 15.0761C16.5654 15.1518 16.7216 15.28 16.8315 15.4444C16.9414 15.6089 17 15.8022 17 16C17 16.2652 16.8946 16.5196 16.7071 16.7071C16.5196 16.8946 16.2652 17 16 17ZM18 13C17.8022 13 17.6089 12.9414 17.4444 12.8315C17.28 12.7216 17.1518 12.5654 17.0761 12.3827C17.0004 12.2 16.9806 11.9989 17.0192 11.8049C17.0578 11.6109 17.153 11.4327 17.2929 11.2929C17.4327 11.153 17.6109 11.0578 17.8049 11.0192C17.9989 10.9806 18.2 11.0004 18.3827 11.0761C18.5654 11.1518 18.7216 11.28 18.8315 11.4444C18.9414 11.6089 19 11.8022 19 12C19 12.2652 18.8946 12.5196 18.7071 12.7071C18.5196 12.8946 18.2652 13 18 13ZM12 11C11.8022 11 11.6089 11.0586 11.4444 11.1685C11.28 11.2784 11.1518 11.4346 11.0761 11.6173C11.0004 11.8 10.9806 12.0011 11.0192 12.1951C11.0578 12.3891 11.153 12.5673 11.2929 12.7071C11.4327 12.847 11.6109 12.9422 11.8049 12.9808C11.9989 13.0194 12.2 12.9996 12.3827 12.9239C12.5654 12.8482 12.7216 12.72 12.8315 12.5556C12.9414 12.3911 13 12.1978 13 12C13 11.7348 12.8946 11.4804 12.7071 11.2929C12.5196 11.1054 12.2652 11 12 11Z" fill="currentColor"/>
  </symbol>
</svg>
