<!-- JioGames DLS — analytics icons (5 icons) -->
<svg xmlns="http://www.w3.org/2000/svg" style="display:none">
  <symbol id="ic_analytics" viewBox="0 0 24 24">
    <path d="M14.0001 10.9998H22.0001C21.7675 8.69691 20.7433 6.54601 19.1021 4.9139C17.4608 3.28179 15.3043 2.26955 13.0001 2.0498V10.0498C13.013 10.3063 13.124 10.5479 13.3101 10.7248C13.4963 10.9017 13.7433 11.0001 14.0001 10.9998ZM11.0001 9.9998V2.0498C9.12039 2.2484 7.33544 2.97568 5.85219 4.14733C4.36893 5.31898 3.24812 6.88702 2.61967 8.66968C1.99123 10.4523 1.88089 12.3766 2.30144 14.2194C2.722 16.0622 3.65623 17.7481 4.99584 19.0816C6.33545 20.4151 8.02556 21.3417 9.87027 21.7538C11.715 22.166 13.6387 22.0469 15.4185 21.4103C17.1983 20.7738 18.7612 19.6458 19.9261 18.1572C21.091 16.6687 21.8101 14.8804 22.0001 12.9998H14.0001C13.2045 12.9998 12.4414 12.6837 11.8788 12.1211C11.3162 11.5585 11.0001 10.7955 11.0001 9.9998Z" fill="currentColor"/>
  </symbol>
  <symbol id="ic_analytics_data" viewBox="0 0 24 24">
    <path d="M12 11.5C12.2652 11.5 12.5196 11.3946 12.7071 11.2071C12.8946 11.0196 13 10.7652 13 10.5C13 10.2348 12.8946 9.98043 12.7071 9.79289C12.5196 9.60536 12.2652 9.5 12 9.5C11.337 9.5 10.7011 9.76339 10.2322 10.2322C9.76339 10.7011 9.5 11.337 9.5 12C9.5 12.663 9.76339 13.2989 10.2322 13.7678C10.7011 14.2366 11.337 14.5 12 14.5C12.2652 14.5 12.5196 14.3946 12.7071 14.2071C12.8946 14.0196 13 13.7652 13 13.5C13 13.2348 12.8946 12.9804 12.7071 12.7929C12.5196 12.6054 12.2652 12.5 12 12.5C11.8674 12.5 11.7402 12.4473 11.6464 12.3536C11.5527 12.2598 11.5 12.1326 11.5 12C11.5 11.8674 11.5527 11.7402 11.6464 11.6464C11.7402 11.5527 11.8674 11.5 12 11.5ZM7.76 14.83C7.57375 15.0174 7.46921 15.2708 7.46921 15.535C7.46921 15.7992 7.57375 16.0526 7.76 16.24C8.31429 16.8004 8.97476 17.2447 9.70278 17.5469C10.4308 17.8491 11.2118 18.0032 12 18C13.5913 18 15.1174 17.3679 16.2426 16.2426C17.3679 15.1174 18 13.5913 18 12C18 10.4087 17.3679 8.88258 16.2426 7.75736C15.1174 6.63214 13.5913 6 12 6C11.2118 5.99684 10.4308 6.15086 9.70278 6.45305C8.97476 6.75525 8.31429 7.19956 7.76 7.76C7.59617 7.9513 7.51057 8.19738 7.52029 8.44905C7.53001 8.70073 7.63434 8.93947 7.81244 9.11756C7.99053 9.29566 8.22927 9.39999 8.48095 9.40971C8.73262 9.41943 8.9787 9.33383 9.17 9.17C9.72959 8.61104 10.4423 8.23051 11.2181 8.07653C11.9939 7.92255 12.798 8.00203 13.5286 8.30491C14.2593 8.60779 14.8837 9.12048 15.323 9.77818C15.7624 10.4359 15.9969 11.2091 15.9969 12C15.9969 12.7909 15.7624 13.5641 15.323 14.2218C14.8837 14.8795 14.2593 15.3922 13.5286 15.6951C12.798 15.998 11.9939 16.0774 11.2181 15.9235C10.4423 15.7695 9.72959 15.389 9.17 14.83C8.98264 14.6437 8.72919 14.5392 8.465 14.5392C8.20081 14.5392 7.94736 14.6437 7.76 14.83ZM12 2C11.7348 2 11.4804 2.10536 11.2929 2.29289C11.1054 2.48043 11 2.73478 11 3C11 3.26522 11.1054 3.51957 11.2929 3.70711C11.4804 3.89464 11.7348 4 12 4C13.5823 4 15.129 4.46919 16.4446 5.34824C17.7602 6.22729 18.7855 7.47672 19.391 8.93853C19.9965 10.4003 20.155 12.0089 19.8463 13.5607C19.5376 15.1126 18.7757 16.538 17.6569 17.6569C16.538 18.7757 15.1126 19.5376 13.5607 19.8463C12.0089 20.155 10.4003 19.9965 8.93853 19.391C7.47672 18.7855 6.22729 17.7602 5.34824 16.4446C4.46919 15.129 4 13.5823 4 12C4 11.7348 3.89464 11.4804 3.70711 11.2929C3.51957 11.1054 3.26522 11 3 11C2.73478 11 2.48043 11.1054 2.29289 11.2929C2.10536 11.4804 2 11.7348 2 12C2 13.9778 2.58649 15.9112 3.6853 17.5557C4.78412 19.2002 6.3459 20.4819 8.17317 21.2388C10.0004 21.9957 12.0111 22.1937 13.9509 21.8079C15.8907 21.422 17.6725 20.4696 19.0711 19.0711C20.4696 17.6725 21.422 15.8907 21.8079 13.9509C22.1937 12.0111 21.9957 10.0004 21.2388 8.17317C20.4819 6.3459 19.2002 4.78412 17.5557 3.6853C15.9112 2.58649 13.9778 2 12 2Z" fill="currentColor"/>
  </symbol>
  <symbol id="ic_analytics_pie_chart" viewBox="0 0 24 24">
    <path d="M12.0001 17C10.8565 16.9935 9.74973 16.5952 8.86427 15.8715C7.9788 15.1477 7.36819 14.1423 7.13425 13.0229C6.9003 11.9035 7.05717 10.7377 7.57868 9.71994C8.1002 8.70217 8.95485 7.89393 10.0001 7.43V2.2C8.2303 2.56175 6.59152 3.39613 5.25786 4.61453C3.9242 5.83292 2.94548 7.38981 2.42567 9.11981C1.90585 10.8498 1.86435 12.6883 2.30558 14.44C2.74681 16.1917 3.65429 17.7912 4.93162 19.0685C6.20894 20.3458 7.80841 21.2533 9.56011 21.6945C11.3118 22.1358 13.1503 22.0943 14.8803 21.5745C16.6103 21.0546 18.1672 20.0759 19.3856 18.7423C20.604 17.4086 21.4384 15.7698 21.8001 14H16.5701C16.1818 14.8897 15.5429 15.6471 14.7314 16.1799C13.9199 16.7126 12.9709 16.9976 12.0001 17ZM14.0001 12H22.0001C22.0001 10.6868 21.7415 9.38642 21.2389 8.17317C20.7364 6.95991 19.9998 5.85752 19.0712 4.92893C18.1426 4.00035 17.0402 3.26375 15.827 2.7612C14.6137 2.25866 13.3133 2 12.0001 2V10C12.0001 10.5304 12.2108 11.0391 12.5859 11.4142C12.961 11.7893 13.4697 12 14.0001 12Z" fill="currentColor"/>
  </symbol>
  <symbol id="ic_analytics_pie_chart_tree" viewBox="0 0 24 24">
    <path d="M16.9001 10.9998H22.0001C21.7675 8.69691 20.7433 6.54601 19.1021 4.9139C17.4609 3.28179 15.3043 2.26955 13.0001 2.0498V7.0998C13.961 7.29577 14.8431 7.76998 15.5365 8.46342C16.2299 9.15686 16.7042 10.0389 16.9001 10.9998ZM13.0001 16.8898V21.9998C15.312 21.7782 17.4746 20.7587 19.1168 19.1165C20.7591 17.4743 21.7785 15.3117 22.0001 12.9998H16.9001C16.7024 13.9589 16.2274 14.8388 15.5341 15.5303C14.8408 16.2218 13.9597 16.6945 13.0001 16.8898ZM2.00013 11.9998C1.98766 14.4875 2.90288 16.8905 4.56706 18.7396C6.23124 20.5887 8.52489 21.7511 11.0001 21.9998V16.8998C9.86984 16.6703 8.85365 16.0571 8.12375 15.1641C7.39384 14.2711 6.99511 13.1532 6.99511 11.9998C6.99511 10.8464 7.39384 9.72856 8.12375 8.83555C8.85365 7.94253 9.86984 7.32932 11.0001 7.0998V2.0998C8.54205 2.34682 6.26241 3.49497 4.6006 5.32296C2.93879 7.15095 2.01245 9.52938 2.00013 11.9998Z" fill="currentColor"/>
  </symbol>
  <symbol id="ic_analytics_pie_chart_two" viewBox="0 0 24 24">
    <path d="M19.7201 5.66L16.1501 9.23C16.6468 9.98378 16.9302 10.858 16.9702 11.7598C17.0102 12.6617 16.8052 13.5575 16.3772 14.3523C15.9491 15.1471 15.3138 15.8111 14.5388 16.274C13.7637 16.7369 12.8778 16.9813 11.9751 16.9813C11.0724 16.9813 10.1865 16.7369 9.41144 16.274C8.6364 15.8111 8.00113 15.1471 7.57304 14.3523C7.14496 13.5575 6.94003 12.6617 6.98001 11.7598C7.01999 10.858 7.30338 9.98378 7.8001 9.23L4.2301 5.66C3.0331 7.12557 2.27649 8.90069 2.04816 10.7791C1.81984 12.6576 2.12918 14.5623 2.94024 16.2719C3.75131 17.9816 5.0308 19.426 6.63009 20.4374C8.22939 21.4488 10.0828 21.9857 11.9751 21.9857C13.8674 21.9857 15.7208 21.4488 17.3201 20.4374C18.9194 19.426 20.1989 17.9816 21.01 16.2719C21.821 14.5623 22.1304 12.6576 21.902 10.7791C21.6737 8.90069 20.9171 7.12557 19.7201 5.66ZM14.7201 7.82L18.3001 4.25C16.5146 2.79199 14.2803 1.99561 11.9751 1.99561C9.66995 1.99561 7.43558 2.79199 5.6501 4.25L9.2201 7.82C10.0376 7.28026 10.9955 6.99253 11.9751 6.99253C12.9547 6.99253 13.9127 7.28026 14.7301 7.82H14.7201Z" fill="currentColor"/>
  </symbol>
</svg>
