<!-- JioGames DLS — ar icons (6 icons) -->
<svg xmlns="http://www.w3.org/2000/svg" style="display:none">
  <symbol id="ic_car_driver" viewBox="0 0 24 24">
    <path d="M12 12C9.87827 12 7.84344 12.8429 6.34315 14.3431C4.84285 15.8434 4 17.8783 4 20V21C4 21.2652 4.10536 21.5196 4.29289 21.7071C4.48043 21.8946 4.73478 22 5 22C5.26522 22 5.51957 21.8946 5.70711 21.7071C5.89464 21.5196 6 21.2652 6 21V20C6.00039 19.3541 6.10507 18.7125 6.31 18.1H6.36C7.90005 18.8373 9.2001 19.9952 10.11 21.44C10.1917 21.6068 10.3183 21.7475 10.4755 21.8464C10.6326 21.9453 10.8143 21.9985 11 22H13C13.1847 21.9994 13.3656 21.9478 13.5227 21.8507C13.6798 21.7536 13.8069 21.6149 13.89 21.45C14.7965 20.0085 16.0934 18.8538 17.63 18.12H17.69C17.8928 18.7262 17.9975 19.3608 18 20V21C18 21.2652 18.1054 21.5196 18.2929 21.7071C18.4804 21.8946 18.7348 22 19 22C19.2652 22 19.5196 21.8946 19.7071 21.7071C19.8946 21.5196 20 21.2652 20 21V20C20 17.8783 19.1571 15.8434 17.6569 14.3431C16.1566 12.8429 14.1217 12 12 12ZM12 17C10.4157 16.8943 8.84331 16.6534 7.3 16.28C7.86182 15.572 8.57633 15.0001 9.39018 14.6069C10.204 14.2138 11.0962 14.0096 12 14.0096C12.9038 14.0096 13.796 14.2138 14.6098 14.6069C15.4237 15.0001 16.1382 15.572 16.7 16.28C15.1567 16.6534 13.5843 16.8943 12 17ZM12 11C12.89 11 13.76 10.7361 14.5001 10.2416C15.2401 9.74715 15.8169 9.04434 16.1575 8.22208C16.4981 7.39981 16.5872 6.49501 16.4135 5.6221C16.2399 4.74918 15.8113 3.94736 15.182 3.31802C14.5526 2.68868 13.7508 2.2601 12.8779 2.08647C12.005 1.91283 11.1002 2.00195 10.2779 2.34254C9.45566 2.68314 8.75285 3.25991 8.25839 3.99994C7.76392 4.73996 7.5 5.60999 7.5 6.5C7.50264 7.69266 7.9776 8.83572 8.82094 9.67906C9.66428 10.5224 10.8073 10.9974 12 11Z" fill="currentColor"/>
  </symbol>
  <symbol id="ic_car_fleet" viewBox="0 0 24 24">
    <path d="M20.79 7.34001L19.45 4.66001C19.2006 4.16036 18.8166 3.74026 18.3414 3.44698C17.8661 3.15371 17.3185 2.99891 16.76 3.00001H11.24C10.6816 2.99891 10.1339 3.15371 9.65865 3.44698C9.18341 3.74026 8.79946 4.16036 8.55002 4.66001L7.88002 6.00001H12.76C13.6895 5.99818 14.6011 6.25548 15.3925 6.74301C16.1838 7.23054 16.8236 7.92902 17.24 8.76001L18.58 11.45C18.8541 12.0071 18.9977 12.6192 19 13.24V15C19 15.2652 19.1054 15.5196 19.2929 15.7071C19.4804 15.8946 19.7348 16 20 16C20.2652 16 20.5196 15.8946 20.7071 15.7071C20.8947 15.5196 21 15.2652 21 15V8.24001C21.0012 7.92772 20.9293 7.6195 20.79 7.34001ZM15.45 9.66001C15.2006 9.16036 14.8166 8.74026 14.3414 8.44698C13.8661 8.15371 13.3185 7.99891 12.76 8.00001H7.24002C6.68157 7.99891 6.1339 8.15371 5.65865 8.44698C5.18341 8.74026 4.79946 9.16036 4.55002 9.66001L3.21002 12.34C3.07071 12.6195 2.99879 12.9277 3.00002 13.24V20C3.00002 20.2652 3.10537 20.5196 3.29291 20.7071C3.48044 20.8946 3.7348 21 4.00002 21C4.26523 21 4.51959 20.8946 4.70712 20.7071C4.89466 20.5196 5.00002 20.2652 5.00002 20V19H15V20C15 20.2652 15.1054 20.5196 15.2929 20.7071C15.4804 20.8946 15.7348 21 16 21C16.2652 21 16.5196 20.8946 16.7071 20.7071C16.8947 20.5196 17 20.2652 17 20V13.24C17.0012 12.9277 16.9293 12.6195 16.79 12.34L15.45 9.66001ZM6.34002 10.55C6.42388 10.3836 6.55258 10.2439 6.71161 10.1467C6.87063 10.0495 7.05365 9.99871 7.24002 10H12.76C12.9464 9.99871 13.1294 10.0495 13.2884 10.1467C13.4474 10.2439 13.5762 10.3836 13.66 10.55L14.88 13H5.12002L6.34002 10.55ZM6.71002 16.71C6.54542 16.8748 6.32849 16.9769 6.09663 16.9988C5.86478 17.0207 5.63256 16.961 5.44002 16.83C5.27586 16.7214 5.14994 16.564 5.08002 16.38C4.99608 16.199 4.96822 15.997 5.00002 15.8C5.03699 15.6015 5.13321 15.4188 5.276 15.276C5.4188 15.1332 5.60148 15.037 5.80002 15C5.99502 14.9619 6.19694 14.9828 6.38002 15.06C6.56401 15.1299 6.72141 15.2559 6.83002 15.42C6.96102 15.6125 7.02072 15.8448 6.99882 16.0766C6.97691 16.3085 6.87477 16.5254 6.71002 16.69V16.71ZM14.71 16.71C14.5454 16.8748 14.3285 16.9769 14.0966 16.9988C13.8648 17.0207 13.6326 16.961 13.44 16.83C13.2759 16.7214 13.1499 16.564 13.08 16.38C12.9961 16.199 12.9682 15.997 13 15.8C13.037 15.6015 13.1332 15.4188 13.276 15.276C13.4188 15.1332 13.6015 15.037 13.8 15C13.995 14.9619 14.1969 14.9828 14.38 15.06C14.564 15.1299 14.7214 15.2559 14.83 15.42C14.961 15.6125 15.0207 15.8448 14.9988 16.0766C14.9769 16.3085 14.8748 16.5254 14.71 16.69V16.71Z" fill="currentColor"/>
  </symbol>
  <symbol id="ic_car_front" viewBox="0 0 24 24">
    <path d="M20.77 11.1598L19.4 7.04984C19.1926 6.46307 18.8077 5.95534 18.2989 5.597C17.7901 5.23866 17.1824 5.04744 16.56 5.04984H7.41C6.78351 5.0468 6.17179 5.23996 5.66066 5.60224C5.14954 5.96451 4.76465 6.47771 4.56 7.06984L3.22 11.1598C2.8585 11.3129 2.55006 11.5691 2.33312 11.8963C2.11617 12.2234 2.00032 12.6073 2 12.9998V15.9998C2.00211 16.3489 2.09552 16.6913 2.27095 16.993C2.44638 17.2948 2.69772 17.5453 3 17.7198V18.9998C3 19.2651 3.10536 19.5194 3.29289 19.7069C3.48043 19.8945 3.73478 19.9998 4 19.9998C4.26522 19.9998 4.51957 19.8945 4.70711 19.7069C4.89464 19.5194 5 19.2651 5 18.9998V17.9998H19V18.9998C19 19.2651 19.1054 19.5194 19.2929 19.7069C19.4804 19.8945 19.7348 19.9998 20 19.9998C20.2652 19.9998 20.5196 19.8945 20.7071 19.7069C20.8946 19.5194 21 19.2651 21 18.9998V17.7198C21.3023 17.5453 21.5536 17.2948 21.7291 16.993C21.9045 16.6913 21.9979 16.3489 22 15.9998V12.9998C21.9989 12.6061 21.8815 12.2215 21.6627 11.8942C21.4439 11.5669 21.1334 11.3114 20.77 11.1598ZM6.46 7.68984C6.52781 7.48099 6.66247 7.30027 6.8432 7.17556C7.02393 7.05086 7.24068 6.98911 7.46 6.99984H16.61C16.8281 6.98846 17.0439 7.04877 17.2244 7.17155C17.405 7.29434 17.5404 7.47286 17.61 7.67984L18.61 10.9998H5.38L6.46 7.68984ZM6.71 14.6898C6.54541 14.8546 6.32847 14.9567 6.09662 14.9786C5.86477 15.0005 5.63254 14.9408 5.44 14.8098C5.27585 14.7012 5.14993 14.5438 5.08 14.3598C4.99999 14.1848 4.97221 13.9903 5 13.7998C5.03698 13.6013 5.13319 13.4186 5.27599 13.2758C5.41879 13.133 5.60147 13.0368 5.8 12.9998C5.995 12.9618 6.19692 12.9827 6.38 13.0598C6.56399 13.1298 6.72139 13.2557 6.83 13.4198C6.96101 13.6124 7.02071 13.8446 6.9988 14.0765C6.97689 14.3083 6.87475 14.5252 6.71 14.6898ZM18.71 14.6898C18.5454 14.8546 18.3285 14.9567 18.0966 14.9786C17.8648 15.0005 17.6325 14.9408 17.44 14.8098C17.2758 14.7012 17.1499 14.5438 17.08 14.3598C17 14.1848 16.9722 13.9903 17 13.7998C17.037 13.6013 17.1332 13.4186 17.276 13.2758C17.4188 13.133 17.6015 13.0368 17.8 12.9998C17.995 12.9618 18.1969 12.9827 18.38 13.0598C18.564 13.1298 18.7214 13.2557 18.83 13.4198C18.961 13.6124 19.0207 13.8446 18.9988 14.0765C18.9769 14.3083 18.8748 14.5252 18.71 14.6898Z" fill="currentColor"/>
  </symbol>
  <symbol id="ic_car_share_ride" viewBox="0 0 24 24">
    <path d="M20.5 16.9998C20.3113 17.0006 20.1245 17.038 19.95 17.1098L17.74 15.9998L20 14.8898C20.1745 14.9617 20.3613 14.9991 20.55 14.9998C20.8297 15.0009 21.1041 14.9237 21.3423 14.7771C21.5804 14.6304 21.7728 14.4201 21.8977 14.1698C22.0227 13.9196 22.0751 13.6394 22.0492 13.3609C22.0233 13.0824 21.9201 12.8167 21.7511 12.5938C21.5822 12.3709 21.3543 12.1997 21.0932 12.0995C20.8321 11.9992 20.5481 11.974 20.2734 12.0266C19.9987 12.0793 19.7442 12.2077 19.5386 12.3973C19.3331 12.5869 19.1846 12.8303 19.11 13.0998L16.11 14.6098C15.9355 14.538 15.7487 14.5006 15.56 14.4998C15.1622 14.4998 14.7806 14.6579 14.4993 14.9392C14.218 15.2205 14.06 15.602 14.06 15.9998C14.06 16.3977 14.218 16.7792 14.4993 17.0605C14.7806 17.3418 15.1622 17.4998 15.56 17.4998C15.7487 17.4991 15.9355 17.4617 16.11 17.3898L19.11 18.8998C19.1853 19.1713 19.3356 19.4161 19.5436 19.6062C19.7516 19.7962 20.009 19.9239 20.2861 19.9745C20.5633 20.025 20.8492 19.9965 21.1109 19.8922C21.3726 19.7878 21.5997 19.6119 21.766 19.3845C21.9324 19.1571 22.0313 18.8874 22.0515 18.6064C22.0717 18.3253 22.0124 18.0443 21.8803 17.7954C21.7481 17.5466 21.5486 17.34 21.3045 17.1993C21.0604 17.0585 20.7816 16.9894 20.5 16.9998ZM6.5 7.68984C6.56781 7.48099 6.70247 7.30027 6.8832 7.17556C7.06393 7.05086 7.28068 6.98911 7.5 6.99984H16.65C16.8681 6.98846 17.0839 7.04877 17.2644 7.17155C17.445 7.29434 17.5804 7.47286 17.65 7.67984L18.28 9.99984H20.39L19.39 7.04984C19.1826 6.46307 18.7977 5.95534 18.2889 5.597C17.7801 5.23866 17.1724 5.04744 16.55 5.04984H7.41C6.78351 5.0468 6.17179 5.23996 5.66066 5.60224C5.14954 5.96451 4.76465 6.47771 4.56 7.06984L3.22 11.1598C2.8585 11.3129 2.55006 11.5691 2.33312 11.8963C2.11617 12.2234 2.00032 12.6073 2 12.9998V15.9998C2.00211 16.3489 2.09552 16.6913 2.27095 16.993C2.44638 17.2948 2.69772 17.5453 3 17.7198V18.9998C3 19.2651 3.10536 19.5194 3.29289 19.7069C3.48043 19.8945 3.73478 19.9998 4 19.9998C4.26522 19.9998 4.51957 19.8945 4.70711 19.7069C4.89464 19.5194 5 19.2651 5 18.9998V17.9998H12V12.9998C12.0044 12.2598 12.2822 11.5475 12.78 10.9998H5.38L6.5 7.68984ZM5.8 12.9998C5.995 12.9618 6.19692 12.9827 6.38 13.0598C6.56399 13.1298 6.72139 13.2557 6.83 13.4198C6.96172 13.6123 7.022 13.8448 7.00042 14.0771C6.97884 14.3093 6.87675 14.5267 6.71182 14.6917C6.54689 14.8566 6.32949 14.9587 6.09724 14.9803C5.86499 15.0018 5.6325 14.9416 5.44 14.8098C5.27585 14.7012 5.14993 14.5438 5.08 14.3598C4.99999 14.1848 4.97221 13.9903 5 13.7998C5.03698 13.6013 5.13319 13.4186 5.27599 13.2758C5.41879 13.133 5.60147 13.0368 5.8 12.9998Z" fill="currentColor"/>
  </symbol>
  <symbol id="ic_car_side" viewBox="0 0 24 24">
    <path d="M20 10H17.59L16.22 7.54C15.96 7.07326 15.58 6.68443 15.1194 6.41369C14.6588 6.14295 14.1343 6.00014 13.6 6H8.46C7.93306 5.99966 7.41533 6.13812 6.95891 6.40144C6.50249 6.66477 6.12347 7.04366 5.86 7.5L4.39 10.06C3.71423 10.2003 3.10751 10.5694 2.67214 11.105C2.23677 11.6405 1.99939 12.3098 2 13V14C2 14.5304 2.21071 15.0391 2.58579 15.4142C2.96086 15.7893 3.46957 16 4 16H4.18C4.39021 16.5792 4.77363 17.0795 5.27817 17.4332C5.7827 17.7868 6.38388 17.9765 7 17.9765C7.61612 17.9765 8.2173 17.7868 8.72184 17.4332C9.22637 17.0795 9.6098 16.5792 9.82 16H14.18C14.3902 16.5792 14.7736 17.0795 15.2782 17.4332C15.7827 17.7868 16.3839 17.9765 17 17.9765C17.6161 17.9765 18.2173 17.7868 18.7218 17.4332C19.2264 17.0795 19.6098 16.5792 19.82 16H20C20.5304 16 21.0391 15.7893 21.4142 15.4142C21.7893 15.0391 22 14.5304 22 14V12C22 11.4696 21.7893 10.9609 21.4142 10.5858C21.0391 10.2107 20.5304 10 20 10ZM7 16C6.80222 16 6.60888 15.9414 6.44443 15.8315C6.27998 15.7216 6.15181 15.5654 6.07612 15.3827C6.00043 15.2 5.98063 14.9989 6.01922 14.8049C6.0578 14.6109 6.15304 14.4327 6.29289 14.2929C6.43275 14.153 6.61093 14.0578 6.80491 14.0192C6.99889 13.9806 7.19996 14.0004 7.38268 14.0761C7.56541 14.1518 7.72159 14.28 7.83147 14.4444C7.94135 14.6089 8 14.8022 8 15C8 15.2652 7.89464 15.5196 7.70711 15.7071C7.51957 15.8946 7.26522 16 7 16ZM9 10H7L7.72 8.55C7.80386 8.38357 7.93257 8.24388 8.09159 8.14669C8.25062 8.04951 8.43364 7.9987 8.62 8H9V10ZM11 10V8H13.38C13.5664 7.9987 13.7494 8.04951 13.9084 8.14669C14.0674 8.24388 14.1961 8.38357 14.28 8.55L15 10H11ZM17 16C16.8022 16 16.6089 15.9414 16.4444 15.8315C16.28 15.7216 16.1518 15.5654 16.0761 15.3827C16.0004 15.2 15.9806 14.9989 16.0192 14.8049C16.0578 14.6109 16.153 14.4327 16.2929 14.2929C16.4327 14.153 16.6109 14.0578 16.8049 14.0192C16.9989 13.9806 17.2 14.0004 17.3827 14.0761C17.5654 14.1518 17.7216 14.28 17.8315 14.4444C17.9414 14.6089 18 14.8022 18 15C18 15.2652 17.8946 15.5196 17.7071 15.7071C17.5196 15.8946 17.2652 16 17 16Z" fill="currentColor"/>
  </symbol>
  <symbol id="ic_car_top" viewBox="0 0 24 24">
    <path d="M19 8H18V6C18 4.93913 17.5786 3.92172 16.8284 3.17157C16.0783 2.42143 15.0609 2 14 2H10C8.93913 2 7.92172 2.42143 7.17157 3.17157C6.42143 3.92172 6 4.93913 6 6V8H5C4.73478 8 4.48043 8.10536 4.29289 8.29289C4.10536 8.48043 4 8.73478 4 9C4 9.26522 4.10536 9.51957 4.29289 9.70711C4.48043 9.89464 4.73478 10 5 10H6V18C6 19.0609 6.42143 20.0783 7.17157 20.8284C7.92172 21.5786 8.93913 22 10 22H14C15.0609 22 16.0783 21.5786 16.8284 20.8284C17.5786 20.0783 18 19.0609 18 18V10H19C19.2652 10 19.5196 9.89464 19.7071 9.70711C19.8946 9.51957 20 9.26522 20 9C20 8.73478 19.8946 8.48043 19.7071 8.29289C19.5196 8.10536 19.2652 8 19 8ZM14.5 19H9.5C9.10218 19 8.72064 18.842 8.43934 18.5607C8.15804 18.2794 8 17.8978 8 17.5C8 17.3674 8.05268 17.2402 8.14645 17.1464C8.24021 17.0527 8.36739 17 8.5 17H15.5C15.6326 17 15.7598 17.0527 15.8536 17.1464C15.9473 17.2402 16 17.3674 16 17.5C16 17.8978 15.842 18.2794 15.5607 18.5607C15.2794 18.842 14.8978 19 14.5 19ZM15.5 11H8.5C8.36739 11 8.24021 10.9473 8.14645 10.8536C8.05268 10.7598 8 10.6326 8 10.5C8 9.57174 8.36875 8.6815 9.02513 8.02513C9.6815 7.36875 10.5717 7 11.5 7H12.5C13.4283 7 14.3185 7.36875 14.9749 8.02513C15.6313 8.6815 16 9.57174 16 10.5C16 10.6326 15.9473 10.7598 15.8536 10.8536C15.7598 10.9473 15.6326 11 15.5 11Z" fill="currentColor"/>
  </symbol>
</svg>
