<!-- JioGames DLS — armed icons (3 icons) -->
<svg xmlns="http://www.w3.org/2000/svg" style="display:none">
  <symbol id="ic_armed" viewBox="0 0 24 24">
    <path d="M18.61 6.15C18.35 5.84 17.99 5.65 17.6 5.61C15.88 5.43 14.2 4.93 12.65 4.15C12.45 4.05 12.23 4 12.01 4C11.79 4 11.57 4.05 11.37 4.15C9.82998 4.93 8.15998 5.43 6.44998 5.61C6.05998 5.65 5.68998 5.83 5.41998 6.12C5.14998 6.41 4.98998 6.8 4.97998 7.21V11.21C4.97998 16.6 10.25 20 12 20C13.75 20 19.02 16.6 19.02 11.21V7.21C19.02 6.82 18.86 6.44 18.6 6.16L18.61 6.15Z" fill="currentColor"/>
  </symbol>
  <symbol id="ic_armed_off" viewBox="0 0 24 24">
    <path d="M16.2999 3.46C15.0999 3.14684 13.9341 2.7147 12.8199 2.17C12.5648 2.04466 12.2842 1.97949 11.9999 1.97949C11.7156 1.97949 11.4351 2.04466 11.1799 2.17C9.20573 3.15045 7.07219 3.77019 4.87994 4C4.37556 4.04408 3.90508 4.27236 3.55831 4.64127C3.21153 5.01017 3.01276 5.49386 2.99994 6V11C3.00494 12.611 3.39222 14.1978 4.12994 15.63L16.2999 3.46ZM20.7099 4.71C20.8982 4.5217 21.004 4.2663 21.004 4C21.004 3.7337 20.8982 3.4783 20.7099 3.29C20.5216 3.1017 20.2662 2.99591 19.9999 2.99591C19.7336 2.99591 19.4782 3.1017 19.2899 3.29L3.28994 19.29C3.19621 19.383 3.12182 19.4936 3.07105 19.6154C3.02028 19.7373 2.99414 19.868 2.99414 20C2.99414 20.132 3.02028 20.2627 3.07105 20.3846C3.12182 20.5064 3.19621 20.617 3.28994 20.71C3.3829 20.8037 3.4935 20.8781 3.61536 20.9289C3.73722 20.9797 3.86793 21.0058 3.99994 21.0058C4.13195 21.0058 4.26266 20.9797 4.38452 20.9289C4.50638 20.8781 4.61698 20.8037 4.70994 20.71L6.52994 18.89C8.52994 20.89 10.8499 22 11.9999 22C14.2499 22 20.9999 17.75 20.9999 11V6C20.9878 5.57529 20.8407 5.16549 20.5799 4.83L20.7099 4.71Z" fill="currentColor"/>
  </symbol>
  <symbol id="ic_armed_partially" viewBox="0 0 24 24">
    <path d="M20.46 4.68C20.1284 4.29684 19.6638 4.05381 19.16 4C16.9552 3.76898 14.8088 3.14942 12.82 2.17C12.5648 2.04466 12.2843 1.97949 12 1.97949C11.7157 1.97949 11.4352 2.04466 11.18 2.17C9.20579 3.15045 7.07225 3.77019 4.88 4C4.37562 4.04408 3.90514 4.27236 3.55837 4.64127C3.21159 5.01017 3.01282 5.49386 3 6V11C3 17.74 9.75 22 12 22C14.25 22 21 17.75 21 11V6C20.9883 5.50859 20.7961 5.03869 20.46 4.68ZM12 20C10.85 19.95 5 16.71 5 11V6C7.43198 5.74595 9.8009 5.06912 12 4V20Z" fill="currentColor"/>
  </symbol>
</svg>
