<!-- JioGames DLS — arrow icons (7 icons) -->
<svg xmlns="http://www.w3.org/2000/svg" style="display:none">
  <symbol id="ic_arrow_back" viewBox="0 0 24 24">
    <path d="M2.28994 12.7099L8.28994 18.7099C8.38318 18.8032 8.49387 18.8771 8.61569 18.9276C8.73751 18.9781 8.86808 19.004 8.99994 19.004C9.1318 19.004 9.26237 18.9781 9.38419 18.9276C9.50601 18.8771 9.6167 18.8032 9.70994 18.7099C9.80318 18.6167 9.87714 18.506 9.9276 18.3842C9.97806 18.2624 10.004 18.1318 10.004 17.9999C10.004 17.8681 9.97806 17.7375 9.9276 17.6157C9.87714 17.4939 9.80318 17.3832 9.70994 17.2899L5.40994 12.9999H20.9999C21.2652 12.9999 21.5195 12.8946 21.707 12.707C21.8946 12.5195 21.9999 12.2652 21.9999 11.9999C21.9999 11.7347 21.8946 11.4804 21.707 11.2928C21.5195 11.1053 21.2652 10.9999 20.9999 10.9999H5.40994L9.70994 6.70994C9.80367 6.61698 9.87806 6.50638 9.92883 6.38452C9.9796 6.26266 10.0057 6.13195 10.0057 5.99994C10.0057 5.86793 9.9796 5.73722 9.92883 5.61536C9.87806 5.4935 9.80367 5.3829 9.70994 5.28994C9.61698 5.19621 9.50637 5.12182 9.38452 5.07105C9.26266 5.02028 9.13195 4.99414 8.99994 4.99414C8.86793 4.99414 8.73722 5.02028 8.61536 5.07105C8.4935 5.12182 8.3829 5.19621 8.28994 5.28994L2.28994 11.2899C2.19621 11.3829 2.12182 11.4935 2.07105 11.6154C2.02028 11.7372 1.99414 11.8679 1.99414 11.9999C1.99414 12.132 2.02028 12.2627 2.07105 12.3845C2.12182 12.5064 2.19621 12.617 2.28994 12.7099Z" fill="currentColor"/>
  </symbol>
  <symbol id="ic_arrow_down" viewBox="0 0 24 24">
    <path d="M18.7099 14.29C18.617 14.1963 18.5064 14.1219 18.3845 14.0711C18.2627 14.0203 18.132 13.9942 17.9999 13.9942C17.8679 13.9942 17.7372 14.0203 17.6154 14.0711C17.4935 14.1219 17.3829 14.1963 17.2899 14.29L12.9999 18.59V3C12.9999 2.73478 12.8946 2.48043 12.707 2.29289C12.5195 2.10536 12.2652 2 11.9999 2C11.7347 2 11.4804 2.10536 11.2928 2.29289C11.1053 2.48043 10.9999 2.73478 10.9999 3V18.59L6.70994 14.29C6.52164 14.1017 6.26624 13.9959 5.99994 13.9959C5.73364 13.9959 5.47825 14.1017 5.28994 14.29C5.10164 14.4783 4.99585 14.7337 4.99585 15C4.99585 15.1319 5.02182 15.2624 5.07228 15.3842C5.12274 15.5061 5.1967 15.6168 5.28994 15.71L11.2899 21.71C11.3829 21.8037 11.4935 21.8781 11.6154 21.9289C11.7372 21.9797 11.8679 22.0058 11.9999 22.0058C12.132 22.0058 12.2627 21.9797 12.3845 21.9289C12.5064 21.8781 12.617 21.8037 12.7099 21.71L18.7099 15.71C18.8037 15.617 18.8781 15.5064 18.9288 15.3846C18.9796 15.2627 19.0057 15.132 19.0057 15C19.0057 14.868 18.9796 14.7373 18.9288 14.6154C18.8781 14.4936 18.8037 14.383 18.7099 14.29Z" fill="currentColor"/>
  </symbol>
  <symbol id="ic_arrow_line" viewBox="0 0 24 24">
    <path d="M20.0001 15.0001C19.4501 15.0001 19.0001 15.4501 19.0001 16.0001V17.5901L4.71007 3.29006C4.32007 2.90006 3.69007 2.90006 3.30007 3.29006C2.91007 3.68006 2.91007 4.31006 3.30007 4.70006L17.5901 18.9901H16.0001C15.4501 18.9901 15.0001 19.4401 15.0001 19.9901C15.0001 20.5401 15.4501 20.9901 16.0001 20.9901H20.0001C20.5501 20.9901 21.0001 20.5401 21.0001 19.9901V15.9901C21.0001 15.4401 20.5501 14.9901 20.0001 14.9901V15.0001Z" fill="currentColor"/>
  </symbol>
  <symbol id="ic_arrow_line_diagonal" viewBox="0 0 24 24">
    <path d="M20 15C19.45 15 19 15.45 19 16V17.59L6.41 5H8C8.55 5 9 4.55 9 4C9 3.45 8.55 3 8 3H4C3.45 3 3 3.45 3 4V8C3 8.55 3.45 9 4 9C4.55 9 5 8.55 5 8V6.41L17.59 19H16C15.45 19 15 19.45 15 20C15 20.55 15.45 21 16 21H20C20.55 21 21 20.55 21 20V16C21 15.45 20.55 15 20 15Z" fill="currentColor"/>
  </symbol>
  <symbol id="ic_arrow_line_dot" viewBox="0 0 24 24">
    <path d="M20 15C19.45 15 19 15.45 19 16V17.59L7.82 6.41C7.93 6.13 8 5.82 8 5.5C8 4.12 6.88 3 5.5 3C4.12 3 3 4.12 3 5.5C3 6.88 4.12 8 5.5 8C5.82 8 6.13 7.93 6.41 7.82L17.59 19H16C15.45 19 15 19.45 15 20C15 20.55 15.45 21 16 21H20C20.55 21 21 20.55 21 20V16C21 15.45 20.55 15 20 15Z" fill="currentColor"/>
  </symbol>
  <symbol id="ic_arrow_next" viewBox="0 0 24 24">
    <path d="M21.71 11.2902L15.71 5.29019C15.5217 5.10188 15.2663 4.99609 15 4.99609C14.7337 4.99609 14.4783 5.10188 14.29 5.29019C14.1017 5.47849 13.9959 5.73388 13.9959 6.00019C13.9959 6.26649 14.1017 6.52188 14.29 6.71019L18.59 11.0002H3C2.73478 11.0002 2.48043 11.1055 2.29289 11.2931C2.10536 11.4806 2 11.735 2 12.0002C2 12.2654 2.10536 12.5198 2.29289 12.7073C2.48043 12.8948 2.73478 13.0002 3 13.0002H18.59L14.29 17.2902C14.1963 17.3831 14.1219 17.4937 14.0711 17.6156C14.0203 17.7375 13.9942 17.8682 13.9942 18.0002C13.9942 18.1322 14.0203 18.2629 14.0711 18.3848C14.1219 18.5066 14.1963 18.6172 14.29 18.7102C14.383 18.8039 14.4936 18.8783 14.6154 18.9291C14.7373 18.9798 14.868 19.006 15 19.006C15.132 19.006 15.2627 18.9798 15.3846 18.9291C15.5064 18.8783 15.617 18.8039 15.71 18.7102L21.71 12.7102C21.8037 12.6172 21.8781 12.5066 21.9289 12.3848C21.9797 12.2629 22.0058 12.1322 22.0058 12.0002C22.0058 11.8682 21.9797 11.7375 21.9289 11.6156C21.8781 11.4937 21.8037 11.3831 21.71 11.2902Z" fill="currentColor"/>
  </symbol>
  <symbol id="ic_arrow_up" viewBox="0 0 24 24">
    <path d="M18.7099 8.28994L12.7099 2.28994C12.617 2.19621 12.5064 2.12182 12.3845 2.07105C12.2627 2.02028 12.132 1.99414 11.9999 1.99414C11.8679 1.99414 11.7372 2.02028 11.6154 2.07105C11.4935 2.12182 11.3829 2.19621 11.2899 2.28994L5.28994 8.28994C5.10164 8.47824 4.99585 8.73364 4.99585 8.99994C4.99585 9.26624 5.10164 9.52164 5.28994 9.70994C5.47825 9.89824 5.73364 10.004 5.99994 10.004C6.26624 10.004 6.52164 9.89824 6.70994 9.70994L10.9999 5.40994V20.9999C10.9999 21.2652 11.1053 21.5195 11.2928 21.707C11.4804 21.8946 11.7347 21.9999 11.9999 21.9999C12.2652 21.9999 12.5195 21.8946 12.707 21.707C12.8946 21.5195 12.9999 21.2652 12.9999 20.9999V5.40994L17.2899 9.70994C17.3829 9.80367 17.4935 9.87806 17.6154 9.92883C17.7372 9.9796 17.8679 10.0057 17.9999 10.0057C18.132 10.0057 18.2627 9.9796 18.3845 9.92883C18.5064 9.87806 18.617 9.80367 18.7099 9.70994C18.8037 9.61698 18.8781 9.50637 18.9288 9.38452C18.9796 9.26266 19.0057 9.13195 19.0057 8.99994C19.0057 8.86793 18.9796 8.73722 18.9288 8.61536C18.8781 8.4935 18.8037 8.3829 18.7099 8.28994Z" fill="currentColor"/>
  </symbol>
</svg>
