<!-- JioGames DLS — ast icons (3 icons) -->
<svg xmlns="http://www.w3.org/2000/svg" style="display:none">
  <symbol id="ic_cast" viewBox="0 0 24 24">
    <path d="M11.9999 7C10.6738 7 9.40202 7.52678 8.46434 8.46447C7.52666 9.40215 6.99987 10.6739 6.99987 12C6.99841 13.0201 7.3128 14.0157 7.89987 14.85C8.05685 15.0525 8.28557 15.187 8.53884 15.2258C8.79211 15.2646 9.0506 15.2047 9.26099 15.0584C9.47137 14.9122 9.6176 14.6908 9.66949 14.4399C9.72138 14.189 9.67499 13.9277 9.53987 13.71C9.22596 13.2603 9.04134 12.7331 9.00608 12.1858C8.97082 11.6385 9.08626 11.092 9.33987 10.6057C9.59347 10.1194 9.97553 9.71194 10.4445 9.4276C10.9135 9.14325 11.4514 8.99291 11.9999 8.99291C12.5483 8.99291 13.0863 9.14325 13.5552 9.4276C14.0242 9.71194 14.4063 10.1194 14.6599 10.6057C14.9135 11.092 15.0289 11.6385 14.9937 12.1858C14.9584 12.7331 14.7738 13.2603 14.4599 13.71C14.3559 13.8599 14.2949 14.0354 14.2835 14.2175C14.2721 14.3995 14.3107 14.5812 14.3951 14.743C14.4796 14.9047 14.6067 15.0402 14.7626 15.1348C14.9186 15.2295 15.0974 15.2797 15.2799 15.28C15.4411 15.2797 15.5999 15.2405 15.7426 15.1656C15.8854 15.0907 16.008 14.9825 16.0999 14.85C16.6869 14.0157 17.0013 13.0201 16.9999 12C16.9999 10.6739 16.4731 9.40215 15.5354 8.46447C14.5977 7.52678 13.326 7 11.9999 7ZM12.7099 15.29C12.6169 15.1963 12.5063 15.1219 12.3845 15.0711C12.2626 15.0203 12.1319 14.9942 11.9999 14.9942C11.8679 14.9942 11.7372 15.0203 11.6153 15.0711C11.4934 15.1219 11.3828 15.1963 11.2899 15.29L7.28987 19.29C7.15112 19.4306 7.05712 19.6092 7.01975 19.8032C6.98237 19.9972 7.00329 20.1979 7.07987 20.38C7.15489 20.5626 7.28229 20.7189 7.44601 20.8293C7.60973 20.9396 7.80245 20.999 7.99987 21H15.9999C16.1973 20.999 16.39 20.9396 16.5537 20.8293C16.7175 20.7189 16.8449 20.5626 16.9199 20.38C16.9965 20.1979 17.0174 19.9972 16.98 19.8032C16.9426 19.6092 16.8486 19.4306 16.7099 19.29L12.7099 15.29ZM11.9999 3C10.2871 2.99975 8.60987 3.48822 7.16509 4.40805C5.7203 5.32788 4.56798 6.64087 3.84346 8.19282C3.11893 9.74477 2.85229 11.4712 3.07484 13.1695C3.2974 14.8677 3.99991 16.4672 5.09987 17.78C5.27094 17.9829 5.51559 18.1095 5.78002 18.132C6.04445 18.1545 6.30698 18.0711 6.50987 17.9C6.71276 17.7289 6.83939 17.4843 6.86189 17.2199C6.8844 16.9554 6.80094 16.6929 6.62987 16.49C5.77577 15.4686 5.23069 14.2247 5.05859 12.9044C4.8865 11.5841 5.09452 10.2422 5.65825 9.03591C6.22199 7.82968 7.11805 6.80923 8.2413 6.09432C9.36456 5.3794 10.6684 4.99967 11.9999 4.99967C13.3313 4.99967 14.6352 5.3794 15.7584 6.09432C16.8817 6.80923 17.7778 7.82968 18.3415 9.03591C18.9052 10.2422 19.1133 11.5841 18.9412 12.9044C18.7691 14.2247 18.224 15.4686 17.3699 16.49C17.2851 16.5904 17.2209 16.7066 17.1811 16.8318C17.1412 16.9571 17.1265 17.0889 17.1376 17.2199C17.1487 17.3508 17.1856 17.4783 17.246 17.595C17.3065 17.7117 17.3893 17.8153 17.4899 17.9C17.6698 18.0491 17.8962 18.1305 18.1299 18.13C18.276 18.1315 18.4207 18.1009 18.5537 18.0404C18.6867 17.9799 18.8049 17.8911 18.8999 17.78C19.9998 16.4672 20.7023 14.8677 20.9249 13.1695C21.1475 11.4712 20.8808 9.74477 20.1563 8.19282C19.4318 6.64087 18.2794 5.32788 16.8347 4.40805C15.3899 3.48822 13.7126 2.99975 11.9999 3Z" fill="currentColor"/>
  </symbol>
  <symbol id="ic_cast_media" viewBox="0 0 24 24">
    <path d="M3.5 16C3.20333 16 2.91332 16.088 2.66665 16.2528C2.41997 16.4176 2.22771 16.6519 2.11418 16.926C2.00065 17.2001 1.97094 17.5017 2.02882 17.7926C2.0867 18.0836 2.22956 18.3509 2.43934 18.5607C2.64912 18.7704 2.91639 18.9133 3.20737 18.9712C3.49834 19.0291 3.79994 18.9993 4.07403 18.8858C4.34811 18.7723 4.58238 18.58 4.7472 18.3334C4.91203 18.0867 5 17.7967 5 17.5C5 17.1022 4.84197 16.7206 4.56066 16.4393C4.27936 16.158 3.89783 16 3.5 16ZM3.5 13H3C2.73478 13 2.48043 13.1054 2.29289 13.2929C2.10536 13.4804 2 13.7348 2 14C2 14.2652 2.10536 14.5196 2.29289 14.7071C2.48043 14.8946 2.73478 15 3 15H3.5C3.82831 15 4.15339 15.0647 4.45671 15.1903C4.76002 15.3159 5.03562 15.5001 5.26777 15.7322C5.49991 15.9644 5.68406 16.24 5.8097 16.5433C5.93534 16.8466 6 17.1717 6 17.5V18C6 18.2652 6.10536 18.5196 6.29289 18.7071C6.48043 18.8946 6.73478 19 7 19C7.26522 19 7.51957 18.8946 7.70711 18.7071C7.89464 18.5196 8 18.2652 8 18V17.5C7.99736 16.3073 7.52241 15.1643 6.67906 14.3209C5.83572 13.4776 4.69266 13.0026 3.5 13ZM19 5H5C4.20435 5 3.44129 5.31607 2.87868 5.87868C2.31607 6.44129 2 7.20435 2 8C2 8.26522 2.10536 8.51957 2.29289 8.70711C2.48043 8.89464 2.73478 9 3 9C3.26522 9 3.51957 8.89464 3.70711 8.70711C3.89464 8.51957 4 8.26522 4 8C4 7.73478 4.10536 7.48043 4.29289 7.29289C4.48043 7.10536 4.73478 7 5 7H19C19.2652 7 19.5196 7.10536 19.7071 7.29289C19.8946 7.48043 20 7.73478 20 8V16C20 16.2652 19.8946 16.5196 19.7071 16.7071C19.5196 16.8946 19.2652 17 19 17H13C12.7348 17 12.4804 17.1054 12.2929 17.2929C12.1054 17.4804 12 17.7348 12 18C12 18.2652 12.1054 18.5196 12.2929 18.7071C12.4804 18.8946 12.7348 19 13 19H19C19.7956 19 20.5587 18.6839 21.1213 18.1213C21.6839 17.5587 22 16.7956 22 16V8C22 7.20435 21.6839 6.44129 21.1213 5.87868C20.5587 5.31607 19.7956 5 19 5ZM3.5 10H3C2.73478 10 2.48043 10.1054 2.29289 10.2929C2.10536 10.4804 2 10.7348 2 11C2 11.2652 2.10536 11.5196 2.29289 11.7071C2.48043 11.8946 2.73478 12 3 12H3.5C4.95788 12.0026 6.35529 12.583 7.38617 13.6138C8.41705 14.6447 8.99736 16.0421 9 17.5V18C9 18.2652 9.10536 18.5196 9.29289 18.7071C9.48043 18.8946 9.73478 19 10 19C10.2652 19 10.5196 18.8946 10.7071 18.7071C10.8946 18.5196 11 18.2652 11 18V17.5C11 15.5109 10.2098 13.6032 8.8033 12.1967C7.39678 10.7902 5.48912 10 3.5 10Z" fill="currentColor"/>
  </symbol>
  <symbol id="ic_cast_screen" viewBox="0 0 24 24">
    <path d="M12.71 14.29C12.617 14.1963 12.5064 14.1219 12.3846 14.0711C12.2627 14.0203 12.132 13.9942 12 13.9942C11.868 13.9942 11.7373 14.0203 11.6154 14.0711C11.4936 14.1219 11.383 14.1963 11.29 14.29L7.29 18.29C7.15124 18.4306 7.05725 18.6092 7.01987 18.8032C6.9825 18.9972 7.00342 19.1979 7.08 19.38C7.15502 19.5626 7.28242 19.7189 7.44614 19.8293C7.60986 19.9396 7.80257 19.999 8 20H16C16.1974 19.999 16.3901 19.9396 16.5539 19.8293C16.7176 19.7189 16.845 19.5626 16.92 19.38C16.9966 19.1979 17.0175 18.9972 16.9801 18.8032C16.9428 18.6092 16.8488 18.4306 16.71 18.29L12.71 14.29ZM19 5H5C4.20435 5 3.44129 5.31607 2.87868 5.87868C2.31607 6.44129 2 7.20435 2 8V15C2 15.7956 2.31607 16.5587 2.87868 17.1213C3.44129 17.6839 4.20435 18 5 18C5.26522 18 5.51957 17.8946 5.70711 17.7071C5.89464 17.5196 6 17.2652 6 17C6 16.7348 5.89464 16.4804 5.70711 16.2929C5.51957 16.1054 5.26522 16 5 16C4.73478 16 4.48043 15.8946 4.29289 15.7071C4.10536 15.5196 4 15.2652 4 15V8C4 7.73478 4.10536 7.48043 4.29289 7.29289C4.48043 7.10536 4.73478 7 5 7H19C19.2652 7 19.5196 7.10536 19.7071 7.29289C19.8946 7.48043 20 7.73478 20 8V15C20 15.2652 19.8946 15.5196 19.7071 15.7071C19.5196 15.8946 19.2652 16 19 16C18.7348 16 18.4804 16.1054 18.2929 16.2929C18.1054 16.4804 18 16.7348 18 17C18 17.2652 18.1054 17.5196 18.2929 17.7071C18.4804 17.8946 18.7348 18 19 18C19.7956 18 20.5587 17.6839 21.1213 17.1213C21.6839 16.5587 22 15.7956 22 15V8C22 7.20435 21.6839 6.44129 21.1213 5.87868C20.5587 5.31607 19.7956 5 19 5Z" fill="currentColor"/>
  </symbol>
</svg>
