<!-- JioGames DLS — at icons (2 icons) -->
<svg xmlns="http://www.w3.org/2000/svg" style="display:none">
  <symbol id="ic_at_home" viewBox="0 0 24 24">
    <path d="M22.0001 10.0701C21.9198 9.77441 21.7526 9.50965 21.5201 9.31009L13.8501 2.70009C13.3398 2.24809 12.6817 1.99854 12.0001 1.99854C11.3184 1.99854 10.6603 2.24809 10.1501 2.70009L2.53007 9.31009C2.29135 9.51205 2.12025 9.7823 2.0398 10.0845C1.95934 10.3866 1.97339 10.7062 2.08007 11.0001C2.1777 11.2893 2.36293 11.5409 2.61007 11.7201C2.85166 11.9071 3.14491 12.0153 3.45007 12.0301H4.00007V19.0301C4.00007 19.8257 4.31614 20.5888 4.87875 21.1514C5.44135 21.714 6.20442 22.0301 7.00007 22.0301H17.0001C17.7957 22.0301 18.5588 21.714 19.1214 21.1514C19.684 20.5888 20.0001 19.8257 20.0001 19.0301V12.0001H20.5501C20.8552 11.9853 21.1485 11.8771 21.3901 11.6901C21.6372 11.5109 21.8224 11.2593 21.9201 10.9701C22.0361 10.6848 22.064 10.3713 22.0001 10.0701ZM12.0001 10.0001C12.2967 10.0001 12.5867 10.0881 12.8334 10.2529C13.0801 10.4177 13.2724 10.652 13.3859 10.9261C13.4994 11.2002 13.5291 11.5018 13.4712 11.7927C13.4134 12.0837 13.2705 12.351 13.0607 12.5608C12.8509 12.7705 12.5837 12.9134 12.2927 12.9713C12.0017 13.0291 11.7001 12.9994 11.426 12.8859C11.152 12.7724 10.9177 12.5801 10.7529 12.3334C10.588 12.0868 10.5001 11.7968 10.5001 11.5001C10.5001 11.1023 10.6581 10.7207 10.9394 10.4394C11.2207 10.1581 11.6022 10.0001 12.0001 10.0001ZM14.0001 18.0001H10.0001C9.73485 18.0001 9.4805 17.8947 9.29296 17.7072C9.10542 17.5197 9.00007 17.2653 9.00007 17.0001C9.00007 16.2044 9.31614 15.4414 9.87875 14.8788C10.4414 14.3162 11.2044 14.0001 12.0001 14.0001C12.7957 14.0001 13.5588 14.3162 14.1214 14.8788C14.684 15.4414 15.0001 16.2044 15.0001 17.0001C15.0001 17.2653 14.8947 17.5197 14.7072 17.7072C14.5196 17.8947 14.2653 18.0001 14.0001 18.0001Z" fill="currentColor"/>
  </symbol>
  <symbol id="ic_at_home_hazard" viewBox="0 0 24 24">
    <path d="M22.0001 10.0701C21.9198 9.77441 21.7526 9.50965 21.5201 9.31009L13.8501 2.70009C13.3398 2.24809 12.6817 1.99854 12.0001 1.99854C11.3184 1.99854 10.6603 2.24809 10.1501 2.70009L2.53007 9.31009C2.29135 9.51205 2.12025 9.7823 2.0398 10.0845C1.95934 10.3866 1.97339 10.7062 2.08007 11.0001C2.1777 11.2893 2.36293 11.5409 2.61007 11.7201C2.85166 11.9071 3.14491 12.0153 3.45007 12.0301H4.00007V19.0301C4.00007 19.8257 4.31614 20.5888 4.87875 21.1514C5.44135 21.714 6.20442 22.0301 7.00007 22.0301H17.0001C17.7957 22.0301 18.5588 21.714 19.1214 21.1514C19.684 20.5888 20.0001 19.8257 20.0001 19.0301V12.0001H20.5501C20.8552 11.9853 21.1485 11.8771 21.3901 11.6901C21.6372 11.5109 21.8224 11.2593 21.9201 10.9701C22.0361 10.6848 22.064 10.3713 22.0001 10.0701ZM11.0001 7.00009C11.0001 6.73487 11.1054 6.48052 11.293 6.29298C11.4805 6.10545 11.7348 6.00009 12.0001 6.00009C12.2653 6.00009 12.5196 6.10545 12.7072 6.29298C12.8947 6.48052 13.0001 6.73487 13.0001 7.00009V13.0001C13.0001 13.2653 12.8947 13.5197 12.7072 13.7072C12.5196 13.8947 12.2653 14.0001 12.0001 14.0001C11.7348 14.0001 11.4805 13.8947 11.293 13.7072C11.1054 13.5197 11.0001 13.2653 11.0001 13.0001V7.00009ZM13.0601 18.5601C12.8154 18.805 12.4935 18.9577 12.149 18.9924C11.8045 19.027 11.4586 18.9414 11.1701 18.7501C10.9216 18.5824 10.727 18.3461 10.6101 18.0701C10.4991 17.7976 10.4712 17.4984 10.5301 17.2101C10.5811 16.9126 10.7212 16.6377 10.9319 16.4216C11.1426 16.2055 11.414 16.0585 11.7101 16.0001C11.9983 15.9413 12.2976 15.9691 12.5701 16.0801C12.8461 16.1971 13.0823 16.3916 13.2501 16.6401C13.4414 16.9287 13.527 17.2745 13.4924 17.619C13.4577 17.9635 13.305 18.2854 13.0601 18.5301V18.5601Z" fill="currentColor"/>
  </symbol>
</svg>
