<!-- JioGames DLS — av icons (1 icons) -->
<svg xmlns="http://www.w3.org/2000/svg" style="display:none">
  <symbol id="ic_av" viewBox="0 0 24 24">
    <path d="M12 9C10.4 9 9 10.4 9 12C9 13.6 10.4 15 12 15C13.6 15 15 13.6 15 12C15 10.4 13.6 9 12 9ZM12 13C11.4 13 11 12.6 11 12C11 11.4 11.4 11 12 11C12.6 11 13 11.4 13 12C13 12.6 12.6 13 12 13ZM19 9C17.4 9 16 10.4 16 12C16 13.6 17.4 15 19 15C20.6 15 22 13.6 22 12C22 10.4 20.6 9 19 9ZM19 13C18.5 13 18 12.6 18 12C18 11.4 18.5 11 19 11C19.5 11 20 11.4 20 12C20 12.6 19.5 13 19 13ZM5 9C3.3 9 2 10.4 2 12C2 13.6 3.3 15 5 15C6.7 15 8 13.6 8 12C8 10.4 6.7 9 5 9ZM5 13C4.4 13 4 12.6 4 12C4 11.4 4.4 11 5 11C5.6 11 6 11.4 6 12C6 12.6 5.6 13 5 13Z" fill="currentColor"/>
  </symbol>
</svg>
