<!-- JioGames DLS — award icons (2 icons) -->
<svg xmlns="http://www.w3.org/2000/svg" style="display:none">
  <symbol id="ic_award" viewBox="0 0 24 24">
    <path d="M20 9.99996C20.0007 8.62207 19.6454 7.26736 18.9687 6.06709C18.292 4.86682 17.3167 3.86168 16.1374 3.14907C14.9581 2.43645 13.6147 2.04051 12.2374 1.99962C10.8601 1.95872 9.49564 2.27426 8.27613 2.91565C7.05661 3.55703 6.02343 4.50254 5.27669 5.66054C4.52994 6.81854 4.09496 8.14979 4.01387 9.5253C3.93278 10.9008 4.20834 12.2739 4.81385 13.5117C5.41936 14.7494 6.33429 15.8097 7.47 16.59L7 19.72C6.94687 20.1017 7.00519 20.4908 7.16796 20.8402C7.33073 21.1896 7.591 21.4845 7.91746 21.6895C8.24392 21.8945 8.62266 22.0007 9.00809 21.9955C9.39353 21.9902 9.76923 21.8737 10.09 21.66L12 20.4L13.89 21.66C14.2182 21.8805 14.6045 21.9989 15 22C15.3788 22 15.7499 21.8925 16.07 21.69C16.4004 21.4818 16.6626 21.1815 16.8243 20.8261C16.986 20.4707 17.0401 20.0758 16.98 19.69L16.53 16.56C17.5953 15.8281 18.4674 14.8491 19.0717 13.7067C19.676 12.5642 19.9945 11.2924 20 9.99996ZM12 16C10.8133 16 9.65327 15.6481 8.66658 14.9888C7.67988 14.3295 6.91085 13.3924 6.45672 12.2961C6.0026 11.1997 5.88378 9.99331 6.11529 8.82942C6.3468 7.66553 6.91825 6.59644 7.75736 5.75732C8.59648 4.91821 9.66557 4.34676 10.8295 4.11525C11.9933 3.88374 13.1997 4.00256 14.2961 4.45668C15.3925 4.91081 16.3295 5.67985 16.9888 6.66654C17.6481 7.65324 18 8.81327 18 9.99996C18 11.5913 17.3679 13.1174 16.2426 14.2426C15.1174 15.3678 13.5913 16 12 16ZM14.49 8.83996L13.15 8.63996L12.54 7.34996C12.4939 7.24518 12.4183 7.15608 12.3224 7.09352C12.2265 7.03097 12.1145 6.99766 12 6.99766C11.8855 6.99766 11.7735 7.03097 11.6776 7.09352C11.5817 7.15608 11.5061 7.24518 11.46 7.34996L10.85 8.63996L9.51 8.83996C9.40323 8.85794 9.3033 8.90448 9.22083 8.97464C9.13836 9.0448 9.07642 9.13598 9.04156 9.23849C9.0067 9.34101 9.00024 9.45104 9.02285 9.55694C9.04547 9.66283 9.09631 9.76063 9.17 9.83996L10.17 10.84L9.92 12.3C9.90284 12.4118 9.91714 12.5262 9.96129 12.6304C10.0054 12.7346 10.0777 12.8245 10.17 12.89C10.2732 12.9605 10.395 12.9988 10.52 13C10.6211 13.0019 10.7209 12.9778 10.81 12.93L12 12.27L13.19 12.93C13.2791 12.9778 13.3789 13.0019 13.48 13C13.605 12.9988 13.7268 12.9605 13.83 12.89C13.9223 12.8245 13.9946 12.7346 14.0387 12.6304C14.0829 12.5262 14.0972 12.4118 14.08 12.3L13.84 10.87L14.84 9.86996C14.9137 9.79063 14.9645 9.69283 14.9871 9.58694C15.0098 9.48105 15.0033 9.37101 14.9684 9.26849C14.9336 9.16598 14.8716 9.0748 14.7892 9.00464C14.7067 8.93448 14.6068 8.88794 14.5 8.86996L14.49 8.83996Z" fill="currentColor"/>
  </symbol>
  <symbol id="ic_award_badge" viewBox="0 0 24 24">
    <path d="M19.7702 9.36016L18.9502 8.36016L19.2702 7.12016C19.3183 6.89761 19.289 6.66531 19.1872 6.46166C19.0853 6.25801 18.9171 6.0952 18.7102 6.00016L17.5802 5.49016L17.3502 4.24016C17.3076 4.0072 17.1837 3.79692 17.0005 3.64676C16.8174 3.4966 16.5869 3.4163 16.3502 3.42016H15.1202L14.3902 2.42016C14.2487 2.22143 14.0395 2.08125 13.8019 2.02599C13.5644 1.97074 13.3148 2.00423 13.1002 2.12016L12.0002 2.71016L10.9202 2.12016C10.7055 2.00423 10.456 1.97074 10.2184 2.02599C9.98079 2.08125 9.7716 2.22143 9.63016 2.42016L8.90016 3.42016H7.67016C7.43337 3.4163 7.2029 3.4966 7.01977 3.64676C6.83665 3.79692 6.71276 4.0072 6.67016 4.24016L6.42016 5.46016L5.29016 6.00016C5.07299 6.0968 4.89735 6.26764 4.79473 6.48205C4.69211 6.69646 4.66922 6.94041 4.73016 7.17016L5.05016 8.41016L4.23016 9.41016C4.08049 9.58985 3.99854 9.81631 3.99854 10.0502C3.99854 10.284 4.08049 10.5105 4.23016 10.6902L5.05016 11.6902L4.73016 12.9302C4.6941 13.1452 4.7293 13.3661 4.8304 13.5592C4.93149 13.7524 5.09294 13.9072 5.29016 14.0002L6.42016 14.5102L6.65016 15.7602C6.68842 15.9615 6.78759 16.1461 6.93425 16.2892C7.08091 16.4323 7.26798 16.5269 7.47016 16.5602L7.00016 19.7202C6.94702 20.1019 7.00535 20.491 7.16812 20.8404C7.33089 21.1898 7.59116 21.4847 7.91762 21.6897C8.24408 21.8947 8.62282 22.0009 9.00825 21.9957C9.39368 21.9904 9.76939 21.8739 10.0902 21.6602L12.0002 20.4002L13.8902 21.6602C14.2184 21.8807 14.6047 21.9991 15.0002 22.0002C15.379 22.0002 15.7501 21.8927 16.0702 21.6902C16.4005 21.482 16.6627 21.1817 16.8244 20.8263C16.9861 20.4709 17.0403 20.076 16.9802 19.6902L16.5302 16.5602C16.7323 16.5269 16.9194 16.4323 17.0661 16.2892C17.2127 16.1461 17.3119 15.9615 17.3502 15.7602L17.5802 14.5102L18.7102 14.0002C18.9273 13.9035 19.103 13.7327 19.2056 13.5183C19.3082 13.3039 19.3311 13.0599 19.2702 12.8302L19.0002 11.6202L19.8202 10.6202C19.9578 10.4363 20.0279 10.2107 20.0188 9.98129C20.0097 9.75184 19.9219 9.53252 19.7702 9.36016ZM17.0802 10.7302C16.9786 10.852 16.9075 10.9963 16.8728 11.151C16.838 11.3058 16.8405 11.4666 16.8802 11.6202L17.1202 12.5502L16.2802 12.9202C16.1321 12.9878 16.0028 13.0906 15.9035 13.2195C15.8041 13.3485 15.7378 13.4997 15.7102 13.6602L15.5402 14.5802H14.6402C14.4757 14.5733 14.312 14.6071 14.1638 14.6786C14.0155 14.7501 13.8871 14.8571 13.7902 14.9902L13.2602 15.7302L12.4802 15.3102C12.3281 15.2224 12.1557 15.1762 11.9802 15.1762C11.8046 15.1762 11.6322 15.2224 11.4802 15.3102L10.7002 15.7302L10.2102 15.0002C10.1195 14.8606 9.99232 14.7487 9.84246 14.6764C9.6926 14.6041 9.52578 14.5743 9.36016 14.5902H8.46016L8.29016 13.6702C8.26255 13.5097 8.1962 13.3585 8.09687 13.2295C7.99754 13.1006 7.86822 12.9978 7.72016 12.9302L6.88016 12.5602L7.12016 11.6302C7.15979 11.4766 7.16233 11.3158 7.12755 11.161C7.09278 11.0063 7.02169 10.862 6.92016 10.7402L6.31016 10.0002L6.92016 9.27016C7.02169 9.14831 7.09278 9.00405 7.12755 8.8493C7.16233 8.69454 7.15979 8.53374 7.12016 8.38016L6.88016 7.45016L7.72016 7.08016C7.86822 7.01252 7.99754 6.90976 8.09687 6.7808C8.1962 6.65184 8.26255 6.50059 8.29016 6.34016L8.46016 5.42016H9.36016C9.52635 5.43176 9.69264 5.39898 9.84199 5.32518C9.99135 5.25138 10.1184 5.13921 10.2102 5.00016L10.7402 4.26016L11.5202 4.68016C11.6722 4.76793 11.8446 4.81414 12.0202 4.81414C12.1957 4.81414 12.3681 4.76793 12.5202 4.68016L13.3002 4.26016L13.8302 5.00016C13.9271 5.13319 14.0555 5.24021 14.2038 5.31174C14.352 5.38326 14.5157 5.41707 14.6802 5.41016H15.5802L15.7502 6.33016C15.7778 6.49058 15.8441 6.64184 15.9434 6.7708C16.0428 6.89976 16.1721 7.00252 16.3202 7.07016L17.1602 7.44016L16.9202 8.37016C16.8805 8.52374 16.878 8.68454 16.9128 8.83929C16.9475 8.99405 17.0186 9.13831 17.1202 9.26016L17.7302 9.99016L17.0802 10.7302ZM12.0002 7.00016C11.4068 7.00016 10.8268 7.17611 10.3334 7.50575C9.8401 7.8354 9.45558 8.30393 9.22852 8.85211C9.00146 9.40029 8.94205 10.0035 9.0578 10.5854C9.17356 11.1674 9.45928 11.7019 9.87884 12.1215C10.2984 12.541 10.8329 12.8268 11.4149 12.9425C11.9968 13.0583 12.6 12.9989 13.1482 12.7718C13.6964 12.5447 14.1649 12.1602 14.4946 11.6669C14.8242 11.1735 15.0002 10.5935 15.0002 10.0002C15.0002 9.20451 14.6841 8.44145 14.1215 7.87884C13.5589 7.31623 12.7958 7.00016 12.0002 7.00016Z" fill="currentColor"/>
  </symbol>
</svg>
