<!-- JioGames DLS — baby icons (3 icons) -->
<svg xmlns="http://www.w3.org/2000/svg" style="display:none">
  <symbol id="ic_baby_bottle" viewBox="0 0 24 24">
    <path d="M19 9H17.56V8.67C17.56 8.07857 17.3251 7.51136 16.9068 7.09315C16.4886 6.67495 15.9214 6.44 15.33 6.44H14.22V4.22C14.22 3.63122 13.9861 3.06655 13.5698 2.65022C13.1534 2.23389 12.5888 2 12 2C11.4112 2 10.8466 2.23389 10.4302 2.65022C10.0139 3.06655 9.78 3.63122 9.78 4.22V6.44H8.67C8.07857 6.44 7.51136 6.67495 7.09315 7.09315C6.67495 7.51136 6.44 8.07857 6.44 8.67V9H5C4.73478 9 4.48043 9.10536 4.29289 9.29289C4.10536 9.48043 4 9.73478 4 10C4 10.2652 4.10536 10.5196 4.29289 10.7071C4.48043 10.8946 4.73478 11 5 11H19C19.2652 11 19.5196 10.8946 19.7071 10.7071C19.8946 10.5196 20 10.2652 20 10C20 9.73478 19.8946 9.48043 19.7071 9.29289C19.5196 9.10536 19.2652 9 19 9ZM6.44 19.78C6.44264 20.3697 6.67876 20.9343 7.09668 21.3504C7.5146 21.7664 8.0803 22 8.67 22H15.33C15.9197 22 16.4854 21.7664 16.9033 21.3504C17.3212 20.9343 17.5574 20.3697 17.56 19.78V13H6.44V19.78Z" fill="currentColor"/>
  </symbol>
  <symbol id="ic_baby_changing_room" viewBox="0 0 24 24">
    <path d="M19.5 16C19.7967 16 20.0867 15.912 20.3334 15.7472C20.58 15.5824 20.7723 15.3481 20.8858 15.074C20.9993 14.7999 21.0291 14.4983 20.9712 14.2074C20.9133 13.9164 20.7704 13.6491 20.5607 13.4393C20.3509 13.2296 20.0836 13.0867 19.7926 13.0288C19.5017 12.9709 19.2001 13.0007 18.926 13.1142C18.6519 13.2277 18.4176 13.42 18.2528 13.6666C18.088 13.9133 18 14.2033 18 14.5C18 14.8978 18.158 15.2794 18.4393 15.5607C18.7206 15.842 19.1022 16 19.5 16ZM8.5 6C8.79667 6 9.08668 5.91203 9.33335 5.7472C9.58003 5.58238 9.77228 5.34811 9.88582 5.07403C9.99935 4.79994 10.0291 4.49834 9.97117 4.20737C9.9133 3.91639 9.77044 3.64912 9.56066 3.43934C9.35088 3.22956 9.0836 3.0867 8.79263 3.02882C8.50166 2.97094 8.20006 3.00065 7.92597 3.11418C7.65188 3.22771 7.41761 3.41997 7.25279 3.66665C7.08797 3.91332 7 4.20333 7 4.5C7 4.89783 7.15803 5.27936 7.43934 5.56066C7.72064 5.84197 8.10217 6 8.5 6ZM12 9C12 8.73478 11.8946 8.48043 11.7071 8.29289C11.5196 8.10536 11.2652 8 11 8H8.42L6.71 6.29C6.59555 6.17117 6.45347 6.0825 6.29644 6.0319C6.13941 5.98131 5.97229 5.97035 5.81 6C5.64723 6.03306 5.49526 6.10614 5.36781 6.21263C5.24036 6.31913 5.14145 6.4557 5.08 6.61L3.08 11.61C3.02579 11.7328 2.99851 11.8658 3 12V20C3 20.2652 3.10535 20.5196 3.29289 20.7071C3.48043 20.8946 3.73478 21 4 21C4.26521 21 4.51957 20.8946 4.7071 20.7071C4.89464 20.5196 5 20.2652 5 20V12.19L6.37 8.78L7.3 9.71C7.48626 9.89474 7.73766 9.9989 8 10H11C11.2652 10 11.5196 9.89464 11.7071 9.70711C11.8946 9.51957 12 9.26522 12 9ZM12 16H16C16.2652 16 16.5196 15.8946 16.7071 15.7071C16.8946 15.5196 17 15.2652 17 15V13C17 12.7348 16.8946 12.4804 16.7071 12.2929C16.5196 12.1054 16.2652 12 16 12C15.7348 12 15.4804 12.1054 15.2929 12.2929C15.1054 12.4804 15 12.7348 15 13V14H12.41L10.71 12.29C10.5217 12.1017 10.2663 11.9959 10 11.9959C9.7337 11.9959 9.4783 12.1017 9.29 12.29C9.10169 12.4783 8.99591 12.7337 8.99591 13C8.99591 13.2663 9.10169 13.5217 9.29 13.71L11.29 15.71C11.3834 15.8027 11.4943 15.876 11.6161 15.9258C11.7379 15.9755 11.8684 16.0008 12 16ZM20 18H12C11.7348 18 11.4804 18.1054 11.2929 18.2929C11.1054 18.4804 11 18.7348 11 19C11 19.2652 11.1054 19.5196 11.2929 19.7071C11.4804 19.8946 11.7348 20 12 20H20C20.2652 20 20.5196 19.8946 20.7071 19.7071C20.8946 19.5196 21 19.2652 21 19C21 18.7348 20.8946 18.4804 20.7071 18.2929C20.5196 18.1054 20.2652 18 20 18Z" fill="currentColor"/>
  </symbol>
  <symbol id="ic_baby_monitor" viewBox="0 0 24 24">
    <path d="M12.0001 9C11.6045 9 11.2178 9.1173 10.889 9.33706C10.5601 9.55682 10.3037 9.86918 10.1523 10.2346C10.001 10.6001 9.96135 11.0022 10.0385 11.3902C10.1157 11.7781 10.3062 12.1345 10.5859 12.4142C10.8656 12.6939 11.2219 12.8844 11.6099 12.9616C11.9979 13.0387 12.4 12.9991 12.7655 12.8478C13.1309 12.6964 13.4433 12.44 13.663 12.1111C13.8828 11.7822 14.0001 11.3956 14.0001 11C14.0001 10.4696 13.7894 9.96086 13.4143 9.58579C13.0392 9.21071 12.5305 9 12.0001 9ZM12.0001 4C10.962 4.00142 9.9373 4.2337 9.00009 4.68V3C9.00009 2.73478 8.89473 2.48043 8.7072 2.29289C8.51966 2.10536 8.26531 2 8.00009 2C7.73487 2 7.48052 2.10536 7.29298 2.29289C7.10545 2.48043 7.00009 2.73478 7.00009 3V6C6.99541 6.02982 6.99541 6.06018 7.00009 6.09C5.70991 7.39749 4.9907 9.16315 5.00009 11V19C5.00009 19.7956 5.31616 20.5587 5.87877 21.1213C6.44138 21.6839 7.20444 22 8.00009 22H16.0001C16.7957 22 17.5588 21.6839 18.1214 21.1213C18.684 20.5587 19.0001 19.7956 19.0001 19V11C19.0001 9.14348 18.2626 7.36301 16.9498 6.05025C15.6371 4.7375 13.8566 4 12.0001 4ZM9.00009 19C8.80231 19 8.60897 18.9414 8.44452 18.8315C8.28007 18.7216 8.1519 18.5654 8.07621 18.3827C8.00052 18.2 7.98072 17.9989 8.01931 17.8049C8.05789 17.6109 8.15313 17.4327 8.29298 17.2929C8.43284 17.153 8.61102 17.0578 8.805 17.0192C8.99898 16.9806 9.20005 17.0004 9.38277 17.0761C9.5655 17.1518 9.72168 17.28 9.83156 17.4444C9.94144 17.6089 10.0001 17.8022 10.0001 18C10.0001 18.2652 9.89473 18.5196 9.7072 18.7071C9.51966 18.8946 9.26531 19 9.00009 19ZM15.0001 19H13.0001C12.7349 19 12.4805 18.8946 12.293 18.7071C12.1054 18.5196 12.0001 18.2652 12.0001 18C12.0001 17.7348 12.1054 17.4804 12.293 17.2929C12.4805 17.1054 12.7349 17 13.0001 17H15.0001C15.2653 17 15.5197 17.1054 15.7072 17.2929C15.8947 17.4804 16.0001 17.7348 16.0001 18C16.0001 18.2652 15.8947 18.5196 15.7072 18.7071C15.5197 18.8946 15.2653 19 15.0001 19ZM12.0001 15C11.209 15 10.4356 14.7654 9.77781 14.3259C9.12001 13.8864 8.60732 13.2616 8.30457 12.5307C8.00182 11.7998 7.92261 10.9956 8.07695 10.2196C8.23129 9.44371 8.61225 8.73098 9.17166 8.17157C9.73107 7.61216 10.4438 7.2312 11.2197 7.07686C11.9957 6.92252 12.7999 7.00173 13.5308 7.30448C14.2617 7.60723 14.8864 8.11992 15.326 8.77772C15.7655 9.43552 16.0001 10.2089 16.0001 11C16.0001 12.0609 15.5787 13.0783 14.8285 13.8284C14.0784 14.5786 13.061 15 12.0001 15Z" fill="currentColor"/>
  </symbol>
</svg>
