<!-- JioGames DLS — bank icons (3 icons) -->
<svg xmlns="http://www.w3.org/2000/svg" style="display:none">
  <symbol id="ic_bank_account" viewBox="0 0 24 24">
    <path d="M4.82 11.04C5.19 11.2 5.61 11.24 6.02 11.15C6.43 11.06 6.79 10.87 7.08 10.58C7.37 10.29 7.57 9.93004 7.65 9.52004C7.73 9.11004 7.69 8.70004 7.54 8.32004C7.39 7.94004 7.12 7.62004 6.78 7.39004C6.44 7.16004 6.03 7.04004 5.63 7.04004H5.62C5.07 7.05004 4.54 7.27004 4.15 7.65004C3.77 8.03004 3.55 8.56004 3.55 9.12004C3.55 9.54004 3.67 9.93004 3.9 10.27C4.12 10.6 4.45 10.87 4.83 11.03L4.82 11.04Z" fill="currentColor"/>
<path d="M5.63 12.21C4.66 12.21 3.74 12.62 3.06 13.35C2.38 14.09 2 15.08 2 16.11C2 16.46 2.12 16.79 2.35 17.04C2.58 17.29 2.88 17.42 3.2 17.42H8.04C8.36 17.42 8.66 17.28 8.89 17.04C9.12 16.79 9.24 16.46 9.24 16.11C9.24 15.07 8.86 14.08 8.18 13.35C7.49 12.62 6.58 12.21 5.61 12.21H5.63Z" fill="currentColor"/>
<path d="M12.36 11.18C12.08 11.18 11.82 11.28 11.62 11.48C11.43 11.68 11.32 11.94 11.32 12.22V16.38C11.32 16.66 11.42 16.92 11.62 17.12C11.82 17.31 12.08 17.42 12.36 17.42C12.64 17.42 12.9 17.32 13.1 17.12C13.29 16.92 13.4 16.66 13.4 16.38V12.22C13.4 11.94 13.3 11.68 13.1 11.48C12.9 11.29 12.64 11.18 12.36 11.18Z" fill="currentColor"/>
<path d="M16.54 11.18C16.26 11.18 16 11.28 15.8 11.48C15.61 11.68 15.5 11.94 15.5 12.22V16.38C15.5 16.66 15.6 16.92 15.8 17.12C16 17.31 16.26 17.42 16.54 17.42C16.82 17.42 17.08 17.32 17.28 17.12C17.47 16.92 17.58 16.66 17.58 16.38V12.22C17.58 11.94 17.48 11.68 17.28 11.48C17.08 11.29 16.82 11.18 16.54 11.18Z" fill="currentColor"/>
<path d="M20.7 11.18C20.42 11.18 20.16 11.28 19.96 11.48C19.77 11.68 19.66 11.94 19.66 12.22V16.38C19.66 16.66 19.76 16.92 19.96 17.12C20.16 17.31 20.42 17.42 20.7 17.42C20.98 17.42 21.24 17.32 21.44 17.12C21.63 16.92 21.74 16.66 21.74 16.38V12.22C21.74 11.94 21.64 11.68 21.44 11.48C21.24 11.29 20.98 11.18 20.7 11.18Z" fill="currentColor"/>
<path d="M12.15 10.15H20.96C22.2 10.15 22.39 8.37004 21.2 8.10004L17.26 7.19004C16.8 7.09004 16.31 7.09004 15.86 7.19004H15.85L11.91 8.10004C10.7 8.38004 10.91 10.15 12.15 10.15Z" fill="currentColor"/>
  </symbol>
  <symbol id="ic_bank_branch" viewBox="0 0 24 24">
    <path d="M20 18.9999H18V9.99994H19C19.4615 10.0014 19.9093 9.84314 20.2675 9.55207C20.6257 9.26101 20.8722 8.85503 20.9652 8.40297C21.0582 7.95091 20.9919 7.4806 20.7778 7.07179C20.5636 6.66298 20.2146 6.34082 19.79 6.15994L12.79 3.15994C12.5396 3.05597 12.2711 3.00244 12 3.00244C11.7289 3.00244 11.4604 3.05597 11.21 3.15994L4.20999 6.15994C3.78539 6.34082 3.43641 6.66298 3.22222 7.07179C3.00804 7.4806 2.94183 7.95091 3.03483 8.40297C3.12784 8.85503 3.37432 9.26101 3.73249 9.55207C4.09066 9.84314 4.53847 10.0014 4.99999 9.99994H5.99999V18.9999H3.99999C3.73478 18.9999 3.48042 19.1053 3.29289 19.2928C3.10535 19.4804 2.99999 19.7347 2.99999 19.9999C2.99999 20.2652 3.10535 20.5195 3.29289 20.7071C3.48042 20.8946 3.73478 20.9999 3.99999 20.9999H20C20.2652 20.9999 20.5196 20.8946 20.7071 20.7071C20.8946 20.5195 21 20.2652 21 19.9999C21 19.7347 20.8946 19.4804 20.7071 19.2928C20.5196 19.1053 20.2652 18.9999 20 18.9999ZM16 18.9999H13V9.99994H16V18.9999ZM7.99999 9.99994H11V18.9999H7.99999V9.99994Z" fill="currentColor"/>
  </symbol>
  <symbol id="ic_bank_main_branch" viewBox="0 0 24 24">
    <path d="M21.6299 6.10014L12.6299 3.10014C12.22 2.96987 11.7798 2.96987 11.3699 3.10014L2.36991 6.10014C1.91762 6.2488 1.53319 6.55393 1.28574 6.96067C1.03829 7.36741 0.94406 7.84909 1.01998 8.31909C1.09591 8.7891 1.33701 9.21661 1.69994 9.52475C2.06287 9.83289 2.52382 10.0015 2.99991 10.0001V19.0001C2.7347 19.0001 2.48034 19.1055 2.29281 19.293C2.10527 19.4806 1.99991 19.7349 1.99991 20.0001C1.99991 20.2654 2.10527 20.5197 2.29281 20.7073C2.48034 20.8948 2.7347 21.0001 2.99991 21.0001H20.9999C21.2651 21.0001 21.5195 20.8948 21.707 20.7073C21.8946 20.5197 21.9999 20.2654 21.9999 20.0001C21.9999 19.7349 21.8946 19.4806 21.707 19.293C21.5195 19.1055 21.2651 19.0001 20.9999 19.0001V10.0001C21.476 10.0015 21.937 9.83289 22.2999 9.52475C22.6628 9.21661 22.9039 8.7891 22.9798 8.31909C23.0558 7.84909 22.9615 7.36741 22.7141 6.96067C22.4666 6.55393 22.0822 6.2488 21.6299 6.10014ZM10.9999 10.0001V19.0001H8.99991V10.0001H10.9999ZM12.9999 10.0001H14.9999V19.0001H12.9999V10.0001ZM4.99991 10.0001H6.99991V19.0001H4.99991V10.0001ZM18.9999 19.0001H16.9999V10.0001H18.9999V19.0001Z" fill="currentColor"/>
  </symbol>
</svg>
