<!-- JioGames DLS — battery icons (25 icons) -->
<svg xmlns="http://www.w3.org/2000/svg" style="display:none">
  <symbol id="ic_battery_10" viewBox="0 0 24 24">
    <path d="M16 4C16 3.46957 15.7893 2.96086 15.4142 2.58579C15.0391 2.21071 14.5304 2 14 2H10C9.46957 2 8.96086 2.21071 8.58579 2.58579C8.21071 2.96086 8 3.46957 8 4C7.20435 4 6.44129 4.31607 5.87868 4.87868C5.31607 5.44129 5 6.20435 5 7V19C5 19.7956 5.31607 20.5587 5.87868 21.1213C6.44129 21.6839 7.20435 22 8 22H16C16.7956 22 17.5587 21.6839 18.1213 21.1213C18.6839 20.5587 19 19.7956 19 19V7C19 6.20435 18.6839 5.44129 18.1213 4.87868C17.5587 4.31607 16.7956 4 16 4ZM17 19C17 19.2652 16.8946 19.5196 16.7071 19.7071C16.5196 19.8946 16.2652 20 16 20H8C7.73478 20 7.48043 19.8946 7.29289 19.7071C7.10536 19.5196 7 19.2652 7 19V7C7 6.73478 7.10536 6.48043 7.29289 6.29289C7.48043 6.10536 7.73478 6 8 6H9C9.26522 6 9.51957 5.89464 9.70711 5.70711C9.89464 5.51957 10 5.26522 10 5V4H14V5C14 5.26522 14.1054 5.51957 14.2929 5.70711C14.4804 5.89464 14.7348 6 15 6H16C16.2652 6 16.5196 6.10536 16.7071 6.29289C16.8946 6.48043 17 6.73478 17 7V19ZM15.5 16H8.5C8.36739 16 8.24021 16.0527 8.14645 16.1464C8.05268 16.2402 8 16.3674 8 16.5V18.5C8 18.6326 8.05268 18.7598 8.14645 18.8536C8.24021 18.9473 8.36739 19 8.5 19H15.5C15.6326 19 15.7598 18.9473 15.8536 18.8536C15.9473 18.7598 16 18.6326 16 18.5V16.5C16 16.3674 15.9473 16.2402 15.8536 16.1464C15.7598 16.0527 15.6326 16 15.5 16Z" fill="currentColor"/>
  </symbol>
  <symbol id="ic_battery_100" viewBox="0 0 24 24">
    <path d="M16 4C16 3.46957 15.7893 2.96086 15.4142 2.58579C15.0391 2.21071 14.5304 2 14 2H10C9.46957 2 8.96086 2.21071 8.58579 2.58579C8.21071 2.96086 8 3.46957 8 4C7.20435 4 6.44129 4.31607 5.87868 4.87868C5.31607 5.44129 5 6.20435 5 7V19C5 19.7956 5.31607 20.5587 5.87868 21.1213C6.44129 21.6839 7.20435 22 8 22H16C16.7956 22 17.5587 21.6839 18.1213 21.1213C18.6839 20.5587 19 19.7956 19 19V7C19 6.20435 18.6839 5.44129 18.1213 4.87868C17.5587 4.31607 16.7956 4 16 4ZM17 19C17 19.2652 16.8946 19.5196 16.7071 19.7071C16.5196 19.8946 16.2652 20 16 20H8C7.73478 20 7.48043 19.8946 7.29289 19.7071C7.10536 19.5196 7 19.2652 7 19V7C7 6.73478 7.10536 6.48043 7.29289 6.29289C7.48043 6.10536 7.73478 6 8 6H9C9.26522 6 9.51957 5.89464 9.70711 5.70711C9.89464 5.51957 10 5.26522 10 5V4H14V5C14 5.26522 14.1054 5.51957 14.2929 5.70711C14.4804 5.89464 14.7348 6 15 6H16C16.2652 6 16.5196 6.10536 16.7071 6.29289C16.8946 6.48043 17 6.73478 17 7V19ZM15.5 7H8.5C8.36739 7 8.24021 7.05268 8.14645 7.14645C8.05268 7.24021 8 7.36739 8 7.5V18.5C8 18.6326 8.05268 18.7598 8.14645 18.8536C8.24021 18.9473 8.36739 19 8.5 19H15.5C15.6326 19 15.7598 18.9473 15.8536 18.8536C15.9473 18.7598 16 18.6326 16 18.5V7.5C16 7.36739 15.9473 7.24021 15.8536 7.14645C15.7598 7.05268 15.6326 7 15.5 7Z" fill="currentColor"/>
  </symbol>
  <symbol id="ic_battery_20" viewBox="0 0 24 24">
    <path d="M16 4C16 3.46957 15.7893 2.96086 15.4142 2.58579C15.0391 2.21071 14.5304 2 14 2H10C9.46957 2 8.96086 2.21071 8.58579 2.58579C8.21071 2.96086 8 3.46957 8 4C7.20435 4 6.44129 4.31607 5.87868 4.87868C5.31607 5.44129 5 6.20435 5 7V19C5 19.7956 5.31607 20.5587 5.87868 21.1213C6.44129 21.6839 7.20435 22 8 22H16C16.7956 22 17.5587 21.6839 18.1213 21.1213C18.6839 20.5587 19 19.7956 19 19V7C19 6.20435 18.6839 5.44129 18.1213 4.87868C17.5587 4.31607 16.7956 4 16 4ZM17 19C17 19.2652 16.8946 19.5196 16.7071 19.7071C16.5196 19.8946 16.2652 20 16 20H8C7.73478 20 7.48043 19.8946 7.29289 19.7071C7.10536 19.5196 7 19.2652 7 19V7C7 6.73478 7.10536 6.48043 7.29289 6.29289C7.48043 6.10536 7.73478 6 8 6H9C9.26522 6 9.51957 5.89464 9.70711 5.70711C9.89464 5.51957 10 5.26522 10 5V4H14V5C14 5.26522 14.1054 5.51957 14.2929 5.70711C14.4804 5.89464 14.7348 6 15 6H16C16.2652 6 16.5196 6.10536 16.7071 6.29289C16.8946 6.48043 17 6.73478 17 7V19ZM15.5 15H8.5C8.36739 15 8.24021 15.0527 8.14645 15.1464C8.05268 15.2402 8 15.3674 8 15.5V18.5C8 18.6326 8.05268 18.7598 8.14645 18.8536C8.24021 18.9473 8.36739 19 8.5 19H15.5C15.6326 19 15.7598 18.9473 15.8536 18.8536C15.9473 18.7598 16 18.6326 16 18.5V15.5C16 15.3674 15.9473 15.2402 15.8536 15.1464C15.7598 15.0527 15.6326 15 15.5 15Z" fill="currentColor"/>
  </symbol>
  <symbol id="ic_battery_30" viewBox="0 0 24 24">
    <path d="M16 4C16 3.46957 15.7893 2.96086 15.4142 2.58579C15.0391 2.21071 14.5304 2 14 2H10C9.46957 2 8.96086 2.21071 8.58579 2.58579C8.21071 2.96086 8 3.46957 8 4C7.20435 4 6.44129 4.31607 5.87868 4.87868C5.31607 5.44129 5 6.20435 5 7V19C5 19.7956 5.31607 20.5587 5.87868 21.1213C6.44129 21.6839 7.20435 22 8 22H16C16.7956 22 17.5587 21.6839 18.1213 21.1213C18.6839 20.5587 19 19.7956 19 19V7C19 6.20435 18.6839 5.44129 18.1213 4.87868C17.5587 4.31607 16.7956 4 16 4ZM17 19C17 19.2652 16.8946 19.5196 16.7071 19.7071C16.5196 19.8946 16.2652 20 16 20H8C7.73478 20 7.48043 19.8946 7.29289 19.7071C7.10536 19.5196 7 19.2652 7 19V7C7 6.73478 7.10536 6.48043 7.29289 6.29289C7.48043 6.10536 7.73478 6 8 6H9C9.26522 6 9.51957 5.89464 9.70711 5.70711C9.89464 5.51957 10 5.26522 10 5V4H14V5C14 5.26522 14.1054 5.51957 14.2929 5.70711C14.4804 5.89464 14.7348 6 15 6H16C16.2652 6 16.5196 6.10536 16.7071 6.29289C16.8946 6.48043 17 6.73478 17 7V19ZM15.5 14H8.5C8.36739 14 8.24021 14.0527 8.14645 14.1464C8.05268 14.2402 8 14.3674 8 14.5V18.5C8 18.6326 8.05268 18.7598 8.14645 18.8536C8.24021 18.9473 8.36739 19 8.5 19H15.5C15.6326 19 15.7598 18.9473 15.8536 18.8536C15.9473 18.7598 16 18.6326 16 18.5V14.5C16 14.3674 15.9473 14.2402 15.8536 14.1464C15.7598 14.0527 15.6326 14 15.5 14Z" fill="currentColor"/>
  </symbol>
  <symbol id="ic_battery_40" viewBox="0 0 24 24">
    <path d="M16 4C16 3.46957 15.7893 2.96086 15.4142 2.58579C15.0391 2.21071 14.5304 2 14 2H10C9.46957 2 8.96086 2.21071 8.58579 2.58579C8.21071 2.96086 8 3.46957 8 4C7.20435 4 6.44129 4.31607 5.87868 4.87868C5.31607 5.44129 5 6.20435 5 7V19C5 19.7956 5.31607 20.5587 5.87868 21.1213C6.44129 21.6839 7.20435 22 8 22H16C16.7956 22 17.5587 21.6839 18.1213 21.1213C18.6839 20.5587 19 19.7956 19 19V7C19 6.20435 18.6839 5.44129 18.1213 4.87868C17.5587 4.31607 16.7956 4 16 4ZM17 19C17 19.2652 16.8946 19.5196 16.7071 19.7071C16.5196 19.8946 16.2652 20 16 20H8C7.73478 20 7.48043 19.8946 7.29289 19.7071C7.10536 19.5196 7 19.2652 7 19V7C7 6.73478 7.10536 6.48043 7.29289 6.29289C7.48043 6.10536 7.73478 6 8 6H9C9.26522 6 9.51957 5.89464 9.70711 5.70711C9.89464 5.51957 10 5.26522 10 5V4H14V5C14 5.26522 14.1054 5.51957 14.2929 5.70711C14.4804 5.89464 14.7348 6 15 6H16C16.2652 6 16.5196 6.10536 16.7071 6.29289C16.8946 6.48043 17 6.73478 17 7V19ZM15.5 13H8.5C8.36739 13 8.24021 13.0527 8.14645 13.1464C8.05268 13.2402 8 13.3674 8 13.5V18.5C8 18.6326 8.05268 18.7598 8.14645 18.8536C8.24021 18.9473 8.36739 19 8.5 19H15.5C15.6326 19 15.7598 18.9473 15.8536 18.8536C15.9473 18.7598 16 18.6326 16 18.5V13.5C16 13.3674 15.9473 13.2402 15.8536 13.1464C15.7598 13.0527 15.6326 13 15.5 13Z" fill="currentColor"/>
  </symbol>
  <symbol id="ic_battery_5" viewBox="0 0 24 24">
    <path d="M16 4C16 3.46957 15.7893 2.96086 15.4142 2.58579C15.0391 2.21071 14.5304 2 14 2H10C9.46957 2 8.96086 2.21071 8.58579 2.58579C8.21071 2.96086 8 3.46957 8 4C7.20435 4 6.44129 4.31607 5.87868 4.87868C5.31607 5.44129 5 6.20435 5 7V19C5 19.7956 5.31607 20.5587 5.87868 21.1213C6.44129 21.6839 7.20435 22 8 22H16C16.7956 22 17.5587 21.6839 18.1213 21.1213C18.6839 20.5587 19 19.7956 19 19V7C19 6.20435 18.6839 5.44129 18.1213 4.87868C17.5587 4.31607 16.7956 4 16 4ZM17 19C17 19.2652 16.8946 19.5196 16.7071 19.7071C16.5196 19.8946 16.2652 20 16 20H8C7.73478 20 7.48043 19.8946 7.29289 19.7071C7.10536 19.5196 7 19.2652 7 19V7C7 6.73478 7.10536 6.48043 7.29289 6.29289C7.48043 6.10536 7.73478 6 8 6H9C9.26522 6 9.51957 5.89464 9.70711 5.70711C9.89464 5.51957 10 5.26522 10 5V4H14V5C14 5.26522 14.1054 5.51957 14.2929 5.70711C14.4804 5.89464 14.7348 6 15 6H16C16.2652 6 16.5196 6.10536 16.7071 6.29289C16.8946 6.48043 17 6.73478 17 7V19ZM15.5 17H8.5C8.36739 17 8.24021 17.0527 8.14645 17.1464C8.05268 17.2402 8 17.3674 8 17.5V18.5C8 18.6326 8.05268 18.7598 8.14645 18.8536C8.24021 18.9473 8.36739 19 8.5 19H15.5C15.6326 19 15.7598 18.9473 15.8536 18.8536C15.9473 18.7598 16 18.6326 16 18.5V17.5C16 17.3674 15.9473 17.2402 15.8536 17.1464C15.7598 17.0527 15.6326 17 15.5 17Z" fill="currentColor"/>
  </symbol>
  <symbol id="ic_battery_50" viewBox="0 0 24 24">
    <path d="M16 4C16 3.46957 15.7893 2.96086 15.4142 2.58579C15.0391 2.21071 14.5304 2 14 2H10C9.46957 2 8.96086 2.21071 8.58579 2.58579C8.21071 2.96086 8 3.46957 8 4C7.20435 4 6.44129 4.31607 5.87868 4.87868C5.31607 5.44129 5 6.20435 5 7V19C5 19.7956 5.31607 20.5587 5.87868 21.1213C6.44129 21.6839 7.20435 22 8 22H16C16.7956 22 17.5587 21.6839 18.1213 21.1213C18.6839 20.5587 19 19.7956 19 19V7C19 6.20435 18.6839 5.44129 18.1213 4.87868C17.5587 4.31607 16.7956 4 16 4ZM17 19C17 19.2652 16.8946 19.5196 16.7071 19.7071C16.5196 19.8946 16.2652 20 16 20H8C7.73478 20 7.48043 19.8946 7.29289 19.7071C7.10536 19.5196 7 19.2652 7 19V7C7 6.73478 7.10536 6.48043 7.29289 6.29289C7.48043 6.10536 7.73478 6 8 6H9C9.26522 6 9.51957 5.89464 9.70711 5.70711C9.89464 5.51957 10 5.26522 10 5V4H14V5C14 5.26522 14.1054 5.51957 14.2929 5.70711C14.4804 5.89464 14.7348 6 15 6H16C16.2652 6 16.5196 6.10536 16.7071 6.29289C16.8946 6.48043 17 6.73478 17 7V19ZM15.5 12H8.5C8.36739 12 8.24021 12.0527 8.14645 12.1464C8.05268 12.2402 8 12.3674 8 12.5V18.5C8 18.6326 8.05268 18.7598 8.14645 18.8536C8.24021 18.9473 8.36739 19 8.5 19H15.5C15.6326 19 15.7598 18.9473 15.8536 18.8536C15.9473 18.7598 16 18.6326 16 18.5V12.5C16 12.3674 15.9473 12.2402 15.8536 12.1464C15.7598 12.0527 15.6326 12 15.5 12Z" fill="currentColor"/>
  </symbol>
  <symbol id="ic_battery_60" viewBox="0 0 24 24">
    <path d="M16 4C16 3.46957 15.7893 2.96086 15.4142 2.58579C15.0391 2.21071 14.5304 2 14 2H10C9.46957 2 8.96086 2.21071 8.58579 2.58579C8.21071 2.96086 8 3.46957 8 4C7.20435 4 6.44129 4.31607 5.87868 4.87868C5.31607 5.44129 5 6.20435 5 7V19C5 19.7956 5.31607 20.5587 5.87868 21.1213C6.44129 21.6839 7.20435 22 8 22H16C16.7956 22 17.5587 21.6839 18.1213 21.1213C18.6839 20.5587 19 19.7956 19 19V7C19 6.20435 18.6839 5.44129 18.1213 4.87868C17.5587 4.31607 16.7956 4 16 4ZM17 19C17 19.2652 16.8946 19.5196 16.7071 19.7071C16.5196 19.8946 16.2652 20 16 20H8C7.73478 20 7.48043 19.8946 7.29289 19.7071C7.10536 19.5196 7 19.2652 7 19V7C7 6.73478 7.10536 6.48043 7.29289 6.29289C7.48043 6.10536 7.73478 6 8 6H9C9.26522 6 9.51957 5.89464 9.70711 5.70711C9.89464 5.51957 10 5.26522 10 5V4H14V5C14 5.26522 14.1054 5.51957 14.2929 5.70711C14.4804 5.89464 14.7348 6 15 6H16C16.2652 6 16.5196 6.10536 16.7071 6.29289C16.8946 6.48043 17 6.73478 17 7V19ZM15.5 11H8.5C8.36739 11 8.24021 11.0527 8.14645 11.1464C8.05268 11.2402 8 11.3674 8 11.5V18.5C8 18.6326 8.05268 18.7598 8.14645 18.8536C8.24021 18.9473 8.36739 19 8.5 19H15.5C15.6326 19 15.7598 18.9473 15.8536 18.8536C15.9473 18.7598 16 18.6326 16 18.5V11.5C16 11.3674 15.9473 11.2402 15.8536 11.1464C15.7598 11.0527 15.6326 11 15.5 11Z" fill="currentColor"/>
  </symbol>
  <symbol id="ic_battery_70" viewBox="0 0 24 24">
    <path d="M16 4C16 3.46957 15.7893 2.96086 15.4142 2.58579C15.0391 2.21071 14.5304 2 14 2H10C9.46957 2 8.96086 2.21071 8.58579 2.58579C8.21071 2.96086 8 3.46957 8 4C7.20435 4 6.44129 4.31607 5.87868 4.87868C5.31607 5.44129 5 6.20435 5 7V19C5 19.7956 5.31607 20.5587 5.87868 21.1213C6.44129 21.6839 7.20435 22 8 22H16C16.7956 22 17.5587 21.6839 18.1213 21.1213C18.6839 20.5587 19 19.7956 19 19V7C19 6.20435 18.6839 5.44129 18.1213 4.87868C17.5587 4.31607 16.7956 4 16 4ZM17 19C17 19.2652 16.8946 19.5196 16.7071 19.7071C16.5196 19.8946 16.2652 20 16 20H8C7.73478 20 7.48043 19.8946 7.29289 19.7071C7.10536 19.5196 7 19.2652 7 19V7C7 6.73478 7.10536 6.48043 7.29289 6.29289C7.48043 6.10536 7.73478 6 8 6H9C9.26522 6 9.51957 5.89464 9.70711 5.70711C9.89464 5.51957 10 5.26522 10 5V4H14V5C14 5.26522 14.1054 5.51957 14.2929 5.70711C14.4804 5.89464 14.7348 6 15 6H16C16.2652 6 16.5196 6.10536 16.7071 6.29289C16.8946 6.48043 17 6.73478 17 7V19ZM15.5 10H8.5C8.36739 10 8.24021 10.0527 8.14645 10.1464C8.05268 10.2402 8 10.3674 8 10.5V18.5C8 18.6326 8.05268 18.7598 8.14645 18.8536C8.24021 18.9473 8.36739 19 8.5 19H15.5C15.6326 19 15.7598 18.9473 15.8536 18.8536C15.9473 18.7598 16 18.6326 16 18.5V10.5C16 10.3674 15.9473 10.2402 15.8536 10.1464C15.7598 10.0527 15.6326 10 15.5 10Z" fill="currentColor"/>
  </symbol>
  <symbol id="ic_battery_80" viewBox="0 0 24 24">
    <path d="M16 4C16 3.46957 15.7893 2.96086 15.4142 2.58579C15.0391 2.21071 14.5304 2 14 2H10C9.46957 2 8.96086 2.21071 8.58579 2.58579C8.21071 2.96086 8 3.46957 8 4C7.20435 4 6.44129 4.31607 5.87868 4.87868C5.31607 5.44129 5 6.20435 5 7V19C5 19.7956 5.31607 20.5587 5.87868 21.1213C6.44129 21.6839 7.20435 22 8 22H16C16.7956 22 17.5587 21.6839 18.1213 21.1213C18.6839 20.5587 19 19.7956 19 19V7C19 6.20435 18.6839 5.44129 18.1213 4.87868C17.5587 4.31607 16.7956 4 16 4ZM17 19C17 19.2652 16.8946 19.5196 16.7071 19.7071C16.5196 19.8946 16.2652 20 16 20H8C7.73478 20 7.48043 19.8946 7.29289 19.7071C7.10536 19.5196 7 19.2652 7 19V7C7 6.73478 7.10536 6.48043 7.29289 6.29289C7.48043 6.10536 7.73478 6 8 6H9C9.26522 6 9.51957 5.89464 9.70711 5.70711C9.89464 5.51957 10 5.26522 10 5V4H14V5C14 5.26522 14.1054 5.51957 14.2929 5.70711C14.4804 5.89464 14.7348 6 15 6H16C16.2652 6 16.5196 6.10536 16.7071 6.29289C16.8946 6.48043 17 6.73478 17 7V19ZM15.5 9H8.5C8.36739 9 8.24021 9.05268 8.14645 9.14645C8.05268 9.24021 8 9.36739 8 9.5V18.5C8 18.6326 8.05268 18.7598 8.14645 18.8536C8.24021 18.9473 8.36739 19 8.5 19H15.5C15.6326 19 15.7598 18.9473 15.8536 18.8536C15.9473 18.7598 16 18.6326 16 18.5V9.5C16 9.36739 15.9473 9.24021 15.8536 9.14645C15.7598 9.05268 15.6326 9 15.5 9Z" fill="currentColor"/>
  </symbol>
  <symbol id="ic_battery_90" viewBox="0 0 24 24">
    <path d="M16 4C16 3.46957 15.7893 2.96086 15.4142 2.58579C15.0391 2.21071 14.5304 2 14 2H10C9.46957 2 8.96086 2.21071 8.58579 2.58579C8.21071 2.96086 8 3.46957 8 4C7.20435 4 6.44129 4.31607 5.87868 4.87868C5.31607 5.44129 5 6.20435 5 7V19C5 19.7956 5.31607 20.5587 5.87868 21.1213C6.44129 21.6839 7.20435 22 8 22H16C16.7956 22 17.5587 21.6839 18.1213 21.1213C18.6839 20.5587 19 19.7956 19 19V7C19 6.20435 18.6839 5.44129 18.1213 4.87868C17.5587 4.31607 16.7956 4 16 4ZM17 19C17 19.2652 16.8946 19.5196 16.7071 19.7071C16.5196 19.8946 16.2652 20 16 20H8C7.73478 20 7.48043 19.8946 7.29289 19.7071C7.10536 19.5196 7 19.2652 7 19V7C7 6.73478 7.10536 6.48043 7.29289 6.29289C7.48043 6.10536 7.73478 6 8 6H9C9.26522 6 9.51957 5.89464 9.70711 5.70711C9.89464 5.51957 10 5.26522 10 5V4H14V5C14 5.26522 14.1054 5.51957 14.2929 5.70711C14.4804 5.89464 14.7348 6 15 6H16C16.2652 6 16.5196 6.10536 16.7071 6.29289C16.8946 6.48043 17 6.73478 17 7V19ZM15.5 8H8.5C8.36739 8 8.24021 8.05268 8.14645 8.14645C8.05268 8.24021 8 8.36739 8 8.5V18.5C8 18.6326 8.05268 18.7598 8.14645 18.8536C8.24021 18.9473 8.36739 19 8.5 19H15.5C15.6326 19 15.7598 18.9473 15.8536 18.8536C15.9473 18.7598 16 18.6326 16 18.5V8.5C16 8.36739 15.9473 8.24021 15.8536 8.14645C15.7598 8.05268 15.6326 8 15.5 8Z" fill="currentColor"/>
  </symbol>
  <symbol id="ic_battery_empty" viewBox="0 0 24 24">
    <path d="M16 22H8C7.20435 22 6.44129 21.6839 5.87868 21.1213C5.31607 20.5587 5 19.7956 5 19V7C5 6.20435 5.31607 5.44129 5.87868 4.87868C6.44129 4.31607 7.20435 4 8 4C8 3.46957 8.21071 2.96086 8.58579 2.58579C8.96086 2.21071 9.46957 2 10 2H14C14.5304 2 15.0391 2.21071 15.4142 2.58579C15.7893 2.96086 16 3.46957 16 4C16.7956 4 17.5587 4.31607 18.1213 4.87868C18.6839 5.44129 19 6.20435 19 7V19C19 19.7956 18.6839 20.5587 18.1213 21.1213C17.5587 21.6839 16.7956 22 16 22ZM8 6C7.73478 6 7.48043 6.10536 7.29289 6.29289C7.10536 6.48043 7 6.73478 7 7V19C7 19.2652 7.10536 19.5196 7.29289 19.7071C7.48043 19.8946 7.73478 20 8 20H16C16.2652 20 16.5196 19.8946 16.7071 19.7071C16.8946 19.5196 17 19.2652 17 19V7C17 6.73478 16.8946 6.48043 16.7071 6.29289C16.5196 6.10536 16.2652 6 16 6H15C14.7348 6 14.4804 5.89464 14.2929 5.70711C14.1054 5.51957 14 5.26522 14 5V4H10V5C10 5.26522 9.89464 5.51957 9.70711 5.70711C9.51957 5.89464 9.26522 6 9 6H8Z" fill="currentColor"/>
  </symbol>
  <symbol id="ic_battery_empty_loading" viewBox="0 0 24 24">
    <path d="M16 4C16 3.46957 15.7893 2.96086 15.4142 2.58579C15.0391 2.21071 14.5304 2 14 2H10C9.46957 2 8.96086 2.21071 8.58579 2.58579C8.21071 2.96086 8 3.46957 8 4C7.20435 4 6.44129 4.31607 5.87868 4.87868C5.31607 5.44129 5 6.20435 5 7V19C5 19.7956 5.31607 20.5587 5.87868 21.1213C6.44129 21.6839 7.20435 22 8 22H16C16.7956 22 17.5587 21.6839 18.1213 21.1213C18.6839 20.5587 19 19.7956 19 19V7C19 6.20435 18.6839 5.44129 18.1213 4.87868C17.5587 4.31607 16.7956 4 16 4ZM17 19C17 19.2652 16.8946 19.5196 16.7071 19.7071C16.5196 19.8946 16.2652 20 16 20H8C7.73478 20 7.48043 19.8946 7.29289 19.7071C7.10536 19.5196 7 19.2652 7 19V7C7 6.73478 7.10536 6.48043 7.29289 6.29289C7.48043 6.10536 7.73478 6 8 6H9C9.26522 6 9.51957 5.89464 9.70711 5.70711C9.89464 5.51957 10 5.26522 10 5V4H14V5C14 5.26522 14.1054 5.51957 14.2929 5.70711C14.4804 5.89464 14.7348 6 15 6H16C16.2652 6 16.5196 6.10536 16.7071 6.29289C16.8946 6.48043 17 6.73478 17 7V19ZM14 12H12L13.8 9.6C13.8788 9.49494 13.9361 9.37539 13.9687 9.24818C14.0013 9.12097 14.0085 8.98858 13.9899 8.85858C13.9714 8.72858 13.9274 8.60351 13.8605 8.49051C13.7936 8.37751 13.7051 8.27879 13.6 8.2C13.4949 8.12121 13.3754 8.06388 13.2482 8.03129C13.121 7.99869 12.9886 7.99148 12.8586 8.01005C12.7286 8.02862 12.6035 8.07262 12.4905 8.13953C12.3775 8.20643 12.2788 8.29494 12.2 8.4L9.2 12.4C9.09817 12.544 9.0362 12.7123 9.0204 12.8879C9.00459 13.0635 9.0355 13.2402 9.11 13.4C9.18597 13.5743 9.31005 13.7233 9.46768 13.8295C9.62531 13.9358 9.80996 13.9949 10 14H12L10.2 16.4C10.0409 16.6122 9.97254 16.8789 10.0101 17.1414C10.0476 17.404 10.1878 17.6409 10.4 17.8C10.5731 17.9298 10.7836 18 11 18C11.1552 18 11.3084 17.9639 11.4472 17.8944C11.5861 17.825 11.7069 17.7242 11.8 17.6L14.8 13.6C14.9114 13.4514 14.9793 13.2748 14.996 13.0898C15.0126 12.9048 14.9775 12.7189 14.8944 12.5528C14.8114 12.3867 14.6837 12.247 14.5257 12.1493C14.3678 12.0517 14.1857 12 14 12Z" fill="currentColor"/>
  </symbol>
  <symbol id="ic_battery_full" viewBox="0 0 24 24">
    <path d="M15.5 7H8.5C8.36739 7 8.24021 7.05268 8.14645 7.14645C8.05268 7.24021 8 7.36739 8 7.5V18.5C8 18.6326 8.05268 18.7598 8.14645 18.8536C8.24021 18.9473 8.36739 19 8.5 19H15.5C15.6326 19 15.7598 18.9473 15.8536 18.8536C15.9473 18.7598 16 18.6326 16 18.5V7.5C16 7.36739 15.9473 7.24021 15.8536 7.14645C15.7598 7.05268 15.6326 7 15.5 7ZM16 4C16 3.46957 15.7893 2.96086 15.4142 2.58579C15.0391 2.21071 14.5304 2 14 2H10C9.46957 2 8.96086 2.21071 8.58579 2.58579C8.21071 2.96086 8 3.46957 8 4C7.20435 4 6.44129 4.31607 5.87868 4.87868C5.31607 5.44129 5 6.20435 5 7V19C5 19.7956 5.31607 20.5587 5.87868 21.1213C6.44129 21.6839 7.20435 22 8 22H16C16.7956 22 17.5587 21.6839 18.1213 21.1213C18.6839 20.5587 19 19.7956 19 19V7C19 6.20435 18.6839 5.44129 18.1213 4.87868C17.5587 4.31607 16.7956 4 16 4ZM17 19C17 19.2652 16.8946 19.5196 16.7071 19.7071C16.5196 19.8946 16.2652 20 16 20H8C7.73478 20 7.48043 19.8946 7.29289 19.7071C7.10536 19.5196 7 19.2652 7 19V7C7 6.73478 7.10536 6.48043 7.29289 6.29289C7.48043 6.10536 7.73478 6 8 6H9C9.26522 6 9.51957 5.89464 9.70711 5.70711C9.89464 5.51957 10 5.26522 10 5V4H14V5C14 5.26522 14.1054 5.51957 14.2929 5.70711C14.4804 5.89464 14.7348 6 15 6H16C16.2652 6 16.5196 6.10536 16.7071 6.29289C16.8946 6.48043 17 6.73478 17 7V19Z" fill="currentColor"/>
  </symbol>
  <symbol id="ic_battery_full_loading" viewBox="0 0 24 24">
    <path d="M16 4C16 3.46957 15.7893 2.96086 15.4142 2.58579C15.0391 2.21071 14.5304 2 14 2H10C9.46957 2 8.96086 2.21071 8.58579 2.58579C8.21071 2.96086 8 3.46957 8 4C7.20435 4 6.44129 4.31607 5.87868 4.87868C5.31607 5.44129 5 6.20435 5 7V19C5 19.7956 5.31607 20.5587 5.87868 21.1213C6.44129 21.6839 7.20435 22 8 22H16C16.7956 22 17.5587 21.6839 18.1213 21.1213C18.6839 20.5587 19 19.7956 19 19V7C19 6.20435 18.6839 5.44129 18.1213 4.87868C17.5587 4.31607 16.7956 4 16 4ZM14.8 13.6L11.8 17.6C11.7069 17.7242 11.5861 17.825 11.4472 17.8944C11.3084 17.9639 11.1552 18 11 18C10.7836 18 10.5731 17.9298 10.4 17.8C10.1878 17.6409 10.0476 17.404 10.0101 17.1414C9.97254 16.8789 10.0409 16.6122 10.2 16.4L12 14H10C9.81533 13.9994 9.63443 13.9478 9.47733 13.8507C9.32024 13.7536 9.1931 13.6149 9.11 13.45C9.0355 13.2902 9.00459 13.1135 9.0204 12.9379C9.0362 12.7623 9.09817 12.594 9.2 12.45L12.2 8.45C12.2788 8.34494 12.3775 8.25643 12.4905 8.18953C12.6035 8.12262 12.7286 8.07862 12.8586 8.06005C12.9886 8.04148 13.121 8.04869 13.2482 8.08129C13.3754 8.11388 13.4949 8.17121 13.6 8.25C13.7051 8.32879 13.7936 8.42751 13.8605 8.54051C13.9274 8.65351 13.9714 8.77858 13.9899 8.90858C14.0085 9.03858 14.0013 9.17097 13.9687 9.29818C13.9361 9.42539 13.8788 9.54494 13.8 9.65L12 12H14C14.1847 12.0006 14.3656 12.0522 14.5227 12.1493C14.6798 12.2464 14.8069 12.3851 14.89 12.55C14.9742 12.716 15.0104 12.9023 14.9945 13.0878C14.9786 13.2733 14.9113 13.4507 14.8 13.6Z" fill="currentColor"/>
  </symbol>
  <symbol id="ic_battery_horizontal_1_bar" viewBox="0 0 24 24">
    <path d="M20 8C20 7.20435 19.6839 6.44129 19.1213 5.87868C18.5587 5.31607 17.7956 5 17 5H5C4.20435 5 3.44129 5.31607 2.87868 5.87868C2.31607 6.44129 2 7.20435 2 8V16C2 16.7956 2.31607 17.5587 2.87868 18.1213C3.44129 18.6839 4.20435 19 5 19H17C17.7956 19 18.5587 18.6839 19.1213 18.1213C19.6839 17.5587 20 16.7956 20 16C20.5304 16 21.0391 15.7893 21.4142 15.4142C21.7893 15.0391 22 14.5304 22 14V10C22 9.46957 21.7893 8.96086 21.4142 8.58579C21.0391 8.21071 20.5304 8 20 8ZM20 14H19C18.7348 14 18.4804 14.1054 18.2929 14.2929C18.1054 14.4804 18 14.7348 18 15V16C18 16.2652 17.8946 16.5196 17.7071 16.7071C17.5196 16.8946 17.2652 17 17 17H5C4.73478 17 4.48043 16.8946 4.29289 16.7071C4.10536 16.5196 4 16.2652 4 16V8C4 7.73478 4.10536 7.48043 4.29289 7.29289C4.48043 7.10536 4.73478 7 5 7H17C17.2652 7 17.5196 7.10536 17.7071 7.29289C17.8946 7.48043 18 7.73478 18 8V9C18 9.26522 18.1054 9.51957 18.2929 9.70711C18.4804 9.89464 18.7348 10 19 10H20V14ZM7.5 9H6.5C6.36739 9 6.24021 9.05268 6.14645 9.14645C6.05268 9.24021 6 9.36739 6 9.5V14.5C6 14.6326 6.05268 14.7598 6.14645 14.8536C6.24021 14.9473 6.36739 15 6.5 15H7.5C7.63261 15 7.75979 14.9473 7.85355 14.8536C7.94732 14.7598 8 14.6326 8 14.5V9.5C8 9.36739 7.94732 9.24021 7.85355 9.14645C7.75979 9.05268 7.63261 9 7.5 9Z" fill="currentColor"/>
  </symbol>
  <symbol id="ic_battery_horizontal_2_bar" viewBox="0 0 24 24">
    <path d="M20 8C20 7.20435 19.6839 6.44129 19.1213 5.87868C18.5587 5.31607 17.7956 5 17 5H5C4.20435 5 3.44129 5.31607 2.87868 5.87868C2.31607 6.44129 2 7.20435 2 8V16C2 16.7956 2.31607 17.5587 2.87868 18.1213C3.44129 18.6839 4.20435 19 5 19H17C17.7956 19 18.5587 18.6839 19.1213 18.1213C19.6839 17.5587 20 16.7956 20 16C20.5304 16 21.0391 15.7893 21.4142 15.4142C21.7893 15.0391 22 14.5304 22 14V10C22 9.46957 21.7893 8.96086 21.4142 8.58579C21.0391 8.21071 20.5304 8 20 8ZM20 14H19C18.7348 14 18.4804 14.1054 18.2929 14.2929C18.1054 14.4804 18 14.7348 18 15V16C18 16.2652 17.8946 16.5196 17.7071 16.7071C17.5196 16.8946 17.2652 17 17 17H5C4.73478 17 4.48043 16.8946 4.29289 16.7071C4.10536 16.5196 4 16.2652 4 16V8C4 7.73478 4.10536 7.48043 4.29289 7.29289C4.48043 7.10536 4.73478 7 5 7H17C17.2652 7 17.5196 7.10536 17.7071 7.29289C17.8946 7.48043 18 7.73478 18 8V9C18 9.26522 18.1054 9.51957 18.2929 9.70711C18.4804 9.89464 18.7348 10 19 10H20V14ZM7.5 9H6.5C6.36739 9 6.24021 9.05268 6.14645 9.14645C6.05268 9.24021 6 9.36739 6 9.5V14.5C6 14.6326 6.05268 14.7598 6.14645 14.8536C6.24021 14.9473 6.36739 15 6.5 15H7.5C7.63261 15 7.75979 14.9473 7.85355 14.8536C7.94732 14.7598 8 14.6326 8 14.5V9.5C8 9.36739 7.94732 9.24021 7.85355 9.14645C7.75979 9.05268 7.63261 9 7.5 9ZM11.5 9H10.5C10.3674 9 10.2402 9.05268 10.1464 9.14645C10.0527 9.24021 10 9.36739 10 9.5V14.5C10 14.6326 10.0527 14.7598 10.1464 14.8536C10.2402 14.9473 10.3674 15 10.5 15H11.5C11.6326 15 11.7598 14.9473 11.8536 14.8536C11.9473 14.7598 12 14.6326 12 14.5V9.5C12 9.36739 11.9473 9.24021 11.8536 9.14645C11.7598 9.05268 11.6326 9 11.5 9Z" fill="currentColor"/>
  </symbol>
  <symbol id="ic_battery_horizontal_3_bar" viewBox="0 0 24 24">
    <path d="M20 8C20 7.20435 19.6839 6.44129 19.1213 5.87868C18.5587 5.31607 17.7956 5 17 5H5C4.20435 5 3.44129 5.31607 2.87868 5.87868C2.31607 6.44129 2 7.20435 2 8V16C2 16.7956 2.31607 17.5587 2.87868 18.1213C3.44129 18.6839 4.20435 19 5 19H17C17.7956 19 18.5587 18.6839 19.1213 18.1213C19.6839 17.5587 20 16.7956 20 16C20.5304 16 21.0391 15.7893 21.4142 15.4142C21.7893 15.0391 22 14.5304 22 14V10C22 9.46957 21.7893 8.96086 21.4142 8.58579C21.0391 8.21071 20.5304 8 20 8ZM20 14H19C18.7348 14 18.4804 14.1054 18.2929 14.2929C18.1054 14.4804 18 14.7348 18 15V16C18 16.2652 17.8946 16.5196 17.7071 16.7071C17.5196 16.8946 17.2652 17 17 17H5C4.73478 17 4.48043 16.8946 4.29289 16.7071C4.10536 16.5196 4 16.2652 4 16V8C4 7.73478 4.10536 7.48043 4.29289 7.29289C4.48043 7.10536 4.73478 7 5 7H17C17.2652 7 17.5196 7.10536 17.7071 7.29289C17.8946 7.48043 18 7.73478 18 8V9C18 9.26522 18.1054 9.51957 18.2929 9.70711C18.4804 9.89464 18.7348 10 19 10H20V14ZM7.5 9H6.5C6.36739 9 6.24021 9.05268 6.14645 9.14645C6.05268 9.24021 6 9.36739 6 9.5V14.5C6 14.6326 6.05268 14.7598 6.14645 14.8536C6.24021 14.9473 6.36739 15 6.5 15H7.5C7.63261 15 7.75979 14.9473 7.85355 14.8536C7.94732 14.7598 8 14.6326 8 14.5V9.5C8 9.36739 7.94732 9.24021 7.85355 9.14645C7.75979 9.05268 7.63261 9 7.5 9ZM11.5 9H10.5C10.3674 9 10.2402 9.05268 10.1464 9.14645C10.0527 9.24021 10 9.36739 10 9.5V14.5C10 14.6326 10.0527 14.7598 10.1464 14.8536C10.2402 14.9473 10.3674 15 10.5 15H11.5C11.6326 15 11.7598 14.9473 11.8536 14.8536C11.9473 14.7598 12 14.6326 12 14.5V9.5C12 9.36739 11.9473 9.24021 11.8536 9.14645C11.7598 9.05268 11.6326 9 11.5 9ZM15.5 9H14.5C14.3674 9 14.2402 9.05268 14.1464 9.14645C14.0527 9.24021 14 9.36739 14 9.5V14.5C14 14.6326 14.0527 14.7598 14.1464 14.8536C14.2402 14.9473 14.3674 15 14.5 15H15.5C15.6326 15 15.7598 14.9473 15.8536 14.8536C15.9473 14.7598 16 14.6326 16 14.5V9.5C16 9.36739 15.9473 9.24021 15.8536 9.14645C15.7598 9.05268 15.6326 9 15.5 9Z" fill="currentColor"/>
  </symbol>
  <symbol id="ic_battery_horizontal_empty" viewBox="0 0 24 24">
    <path d="M20 8C20 7.20435 19.6839 6.44129 19.1213 5.87868C18.5587 5.31607 17.7956 5 17 5H5C4.20435 5 3.44129 5.31607 2.87868 5.87868C2.31607 6.44129 2 7.20435 2 8V16C2 16.7956 2.31607 17.5587 2.87868 18.1213C3.44129 18.6839 4.20435 19 5 19H17C17.7956 19 18.5587 18.6839 19.1213 18.1213C19.6839 17.5587 20 16.7956 20 16C20.5304 16 21.0391 15.7893 21.4142 15.4142C21.7893 15.0391 22 14.5304 22 14V10C22 9.46957 21.7893 8.96086 21.4142 8.58579C21.0391 8.21071 20.5304 8 20 8ZM20 14H19C18.7348 14 18.4804 14.1054 18.2929 14.2929C18.1054 14.4804 18 14.7348 18 15V16C18 16.2652 17.8946 16.5196 17.7071 16.7071C17.5196 16.8946 17.2652 17 17 17H5C4.73478 17 4.48043 16.8946 4.29289 16.7071C4.10536 16.5196 4 16.2652 4 16V8C4 7.73478 4.10536 7.48043 4.29289 7.29289C4.48043 7.10536 4.73478 7 5 7H17C17.2652 7 17.5196 7.10536 17.7071 7.29289C17.8946 7.48043 18 7.73478 18 8V9C18 9.26522 18.1054 9.51957 18.2929 9.70711C18.4804 9.89464 18.7348 10 19 10H20V14Z" fill="currentColor"/>
  </symbol>
  <symbol id="ic_battery_low" viewBox="0 0 24 24">
    <path d="M15.5 15H8.5C8.36739 15 8.24021 15.0527 8.14645 15.1464C8.05268 15.2402 8 15.3674 8 15.5V18.5C8 18.6326 8.05268 18.7598 8.14645 18.8536C8.24021 18.9473 8.36739 19 8.5 19H15.5C15.6326 19 15.7598 18.9473 15.8536 18.8536C15.9473 18.7598 16 18.6326 16 18.5V15.5C16 15.3674 15.9473 15.2402 15.8536 15.1464C15.7598 15.0527 15.6326 15 15.5 15ZM16 4C16 3.46957 15.7893 2.96086 15.4142 2.58579C15.0391 2.21071 14.5304 2 14 2H10C9.46957 2 8.96086 2.21071 8.58579 2.58579C8.21071 2.96086 8 3.46957 8 4C7.20435 4 6.44129 4.31607 5.87868 4.87868C5.31607 5.44129 5 6.20435 5 7V19C5 19.7956 5.31607 20.5587 5.87868 21.1213C6.44129 21.6839 7.20435 22 8 22H16C16.7956 22 17.5587 21.6839 18.1213 21.1213C18.6839 20.5587 19 19.7956 19 19V7C19 6.20435 18.6839 5.44129 18.1213 4.87868C17.5587 4.31607 16.7956 4 16 4ZM17 19C17 19.2652 16.8946 19.5196 16.7071 19.7071C16.5196 19.8946 16.2652 20 16 20H8C7.73478 20 7.48043 19.8946 7.29289 19.7071C7.10536 19.5196 7 19.2652 7 19V7C7 6.73478 7.10536 6.48043 7.29289 6.29289C7.48043 6.10536 7.73478 6 8 6H9C9.26522 6 9.51957 5.89464 9.70711 5.70711C9.89464 5.51957 10 5.26522 10 5V4H14V5C14 5.26522 14.1054 5.51957 14.2929 5.70711C14.4804 5.89464 14.7348 6 15 6H16C16.2652 6 16.5196 6.10536 16.7071 6.29289C16.8946 6.48043 17 6.73478 17 7V19Z" fill="currentColor"/>
  </symbol>
  <symbol id="ic_battery_mid" viewBox="0 0 24 24">
    <path d="M15.5 10H8.5C8.36739 10 8.24021 10.0527 8.14645 10.1464C8.05268 10.2402 8 10.3674 8 10.5V18.5C8 18.6326 8.05268 18.7598 8.14645 18.8536C8.24021 18.9473 8.36739 19 8.5 19H15.5C15.6326 19 15.7598 18.9473 15.8536 18.8536C15.9473 18.7598 16 18.6326 16 18.5V10.5C16 10.3674 15.9473 10.2402 15.8536 10.1464C15.7598 10.0527 15.6326 10 15.5 10ZM16 4C16 3.46957 15.7893 2.96086 15.4142 2.58579C15.0391 2.21071 14.5304 2 14 2H10C9.46957 2 8.96086 2.21071 8.58579 2.58579C8.21071 2.96086 8 3.46957 8 4C7.20435 4 6.44129 4.31607 5.87868 4.87868C5.31607 5.44129 5 6.20435 5 7V19C5 19.7956 5.31607 20.5587 5.87868 21.1213C6.44129 21.6839 7.20435 22 8 22H16C16.7956 22 17.5587 21.6839 18.1213 21.1213C18.6839 20.5587 19 19.7956 19 19V7C19 6.20435 18.6839 5.44129 18.1213 4.87868C17.5587 4.31607 16.7956 4 16 4ZM17 19C17 19.2652 16.8946 19.5196 16.7071 19.7071C16.5196 19.8946 16.2652 20 16 20H8C7.73478 20 7.48043 19.8946 7.29289 19.7071C7.10536 19.5196 7 19.2652 7 19V7C7 6.73478 7.10536 6.48043 7.29289 6.29289C7.48043 6.10536 7.73478 6 8 6H9C9.26522 6 9.51957 5.89464 9.70711 5.70711C9.89464 5.51957 10 5.26522 10 5V4H14V5C14 5.26522 14.1054 5.51957 14.2929 5.70711C14.4804 5.89464 14.7348 6 15 6H16C16.2652 6 16.5196 6.10536 16.7071 6.29289C16.8946 6.48043 17 6.73478 17 7V19Z" fill="currentColor"/>
  </symbol>
  <symbol id="ic_battery_off" viewBox="0 0 24 24">
    <path d="M20.49 3.51C20.09 3.11 19.45 3.11 19.05 3.51L3.50996 19.04C3.10996 19.44 3.10996 20.08 3.50996 20.48C3.90996 20.88 4.54996 20.88 4.94996 20.48L5.23996 20.19C5.69996 21.25 6.75996 22 7.98996 22H15.99C17.64 22 18.99 20.65 18.99 19V7C18.99 6.83 18.97 6.66 18.94 6.49L20.48 4.95C20.88 4.55 20.88 3.91 20.48 3.51H20.49ZM17 19C17 19.55 16.55 20 16 20H7.99996C7.44996 20 6.99996 19.55 6.99996 19V18.44L7.99996 17.44V18.5C7.99996 18.78 8.21996 19 8.49996 19H15.5C15.78 19 16 18.78 16 18.5V9.44L17 8.44V19ZM6.99996 7C6.99996 6.45 7.44996 6 7.99996 6H8.99996C9.54996 6 9.99996 5.55 9.99996 5V4H14V5C14 5.21 14.08 5.4 14.2 5.56L15.98 3.78C15.87 2.78 15.03 2 14 2H9.99996C8.89996 2 7.99996 2.9 7.99996 4C6.34996 4 4.99996 5.35 4.99996 7V14.76L6.99996 12.76V7ZM7.99996 8.5V11.76L11.76 8H8.49996C8.21996 8 7.99996 8.22 7.99996 8.5Z" fill="currentColor"/>
  </symbol>
  <symbol id="ic_battery_saver_off" viewBox="0 0 24 24">
    <path d="M8.95006 4H12.9501V5C12.9501 5.27 13.0601 5.52 13.2501 5.71C13.4301 5.9 13.6901 6 13.9501 6H14.9501C15.2201 6 15.4701 6.11 15.6601 6.29C15.8501 6.48 15.9501 6.74 15.9501 7V9H17.9501V7C17.9501 6.21 17.6401 5.44 17.0701 4.88C16.5101 4.32 15.7501 4 14.9501 4C14.9501 3.47 14.7401 2.96 14.3701 2.59C14.0001 2.22 13.4801 2 12.9501 2H8.95006C8.42006 2 7.91006 2.21 7.54006 2.59C7.42006 2.71 7.31006 2.85 7.23006 3L8.95006 4.72V4ZM14.2601 10.03L19.3201 15.09C19.3501 12.2 19.9601 10.99 19.9701 10.96C20.0301 10.86 20.0501 10.75 20.0501 10.63C20.0401 10.52 20.0001 10.41 19.9401 10.31C19.8701 10.22 19.7801 10.14 19.6701 10.08C19.5701 10.03 19.4501 10 19.3201 10H14.9901C14.7401 10 14.5001 10.01 14.2601 10.03ZM14.9501 7.5C14.9501 7.37 14.9001 7.24 14.8101 7.15C14.7101 7.05 14.5901 7 14.4501 7H11.2301L13.3401 9.11C13.8401 9.04 14.3601 9 14.9001 9H14.9501V7.5ZM9.64006 21.45C9.64006 21.45 9.65006 21.43 9.66006 21.42L9.58006 21.49C9.58006 21.49 9.62006 21.47 9.64006 21.45ZM20.8401 19.44C20.8401 19.44 20.7601 19.34 20.7101 19.29L18.8801 17.46L15.5701 14.15L14.5401 13.12L11.1101 9.69L9.03006 7.61L7.42006 6L5.70006 4.28L4.71006 3.29C4.66006 3.24 4.61006 3.2 4.56006 3.16C4.16006 2.91 3.63006 2.95 3.29006 3.29C2.90006 3.68 2.90006 4.32 3.29006 4.71L4.26006 5.68C4.06006 6.09 3.95006 6.54 3.95006 7V19C3.95006 19.8 4.27006 20.56 4.83006 21.12C5.39006 21.69 6.16006 22 6.95006 22H7.32006C6.68006 21.39 5.95006 20 5.95006 19V7.37L6.95006 8.37V13.45C7.51006 12.34 8.29006 11.41 9.27006 10.69L10.0301 11.45C8.13006 12.79 7.05006 15.07 7.05006 18C7.05006 19.87 7.57006 20.89 8.22006 21.42C8.25006 21.43 8.27006 21.44 8.30006 21.44C8.33006 21.45 8.35006 21.44 8.38006 21.44C8.41006 21.43 8.43006 21.41 8.45006 21.4C8.47006 21.38 8.48006 21.36 8.49006 21.33C8.67006 18.25 10.0901 15.85 12.7101 14.13L13.7001 15.12C11.2201 16.68 9.99006 18.9 9.94006 21.82C9.94006 21.85 9.96006 21.88 9.98006 21.91C9.99006 21.92 9.98006 21.94 9.99006 21.95C10.0001 21.95 10.0201 21.95 10.0301 21.96C10.0601 21.98 10.0901 22 10.1301 22C10.4201 22 10.7001 21.98 10.9801 21.96C13.8401 21.78 15.9201 20.89 17.2901 19.65C17.4601 19.5 17.6101 19.34 17.7601 19.18L19.2901 20.71C19.4901 20.9 19.7401 21 20.0001 21C20.2601 21 20.5101 20.9 20.7101 20.71C21.0501 20.37 21.0901 19.84 20.8401 19.44Z" fill="currentColor"/>
  </symbol>
  <symbol id="ic_battery_saver_on" viewBox="0 0 24 24">
    <path d="M9.69 21.45C9.69 21.45 9.7 21.43 9.71 21.42L9.63 21.49C9.63 21.49 9.67 21.47 9.69 21.45ZM7.5 7C7.37 7 7.24 7.05 7.15 7.15C7.06 7.25 7 7.37 7 7.5V13.45C8.41 10.65 11.22 9 14.94 9H15V7.5C15 7.37 14.95 7.24 14.85 7.15C14.75 7.06 14.63 7 14.5 7H7.5ZM6 7C6 6.73 6.11 6.48 6.29 6.29C6.47 6.1 6.73 6 7 6H8C8.27 6 8.52 5.89 8.71 5.71C8.9 5.52 9 5.27 9 5V4H13V5C13 5.27 13.11 5.52 13.29 5.71C13.47 5.9 13.73 6 14 6H15C15.27 6 15.52 6.11 15.71 6.29C15.9 6.48 16 6.73 16 7V9H18V7C18 6.2 17.68 5.44 17.12 4.88C16.56 4.32 15.79 4 15 4C15 3.47 14.79 2.96 14.41 2.59C14.03 2.22 13.53 2 13 2H9C8.47 2 7.96 2.21 7.59 2.59C7.22 2.97 7 3.47 7 4C6.2 4 5.44 4.32 4.88 4.88C4.32 5.44 4 6.21 4 7V19C4 19.8 4.32 20.56 4.88 21.12C5.44 21.68 6.21 22 7 22H7.37C6.73 21.39 6 20 6 19V7ZM19.98 10.31C19.91 10.21 19.82 10.13 19.72 10.08C19.61 10.03 19.49 10 19.37 10H15.04C10.14 10 7.1 13.07 7.1 18C7.1 19.87 7.63 20.89 8.28 21.42C8.3 21.43 8.33 21.44 8.36 21.44C8.39 21.44 8.41 21.44 8.44 21.44C8.47 21.44 8.49 21.42 8.51 21.4C8.53 21.38 8.54 21.36 8.55 21.34C8.79 17.34 11.11 14.48 15.46 12.76C15.55 12.72 15.64 12.7 15.74 12.7C15.84 12.7 15.93 12.71 16.02 12.74C16.11 12.77 16.19 12.82 16.26 12.88C16.33 12.94 16.39 13.02 16.42 13.1C16.46 13.18 16.48 13.27 16.48 13.36C16.48 13.45 16.46 13.54 16.42 13.62C16.38 13.7 16.33 13.78 16.26 13.84C16.19 13.9 16.11 13.95 16.02 13.98C12.03 15.53 10.06 18.11 9.99 21.82C9.99 21.85 10.01 21.88 10.03 21.91C10.03 21.92 10.03 21.94 10.05 21.95C10.05 21.95 10.08 21.95 10.09 21.96C10.12 21.98 10.15 22 10.19 22C10.48 22 10.76 21.98 11.04 21.96C16.75 21.61 19.39 18.36 19.39 15.33C19.39 12.3 20.03 10.99 20.04 10.96C20.09 10.86 20.12 10.75 20.11 10.63C20.11 10.52 20.07 10.41 20 10.31H19.98ZM9.94 21.94C9.94 21.94 9.97 21.94 9.98 21.95C9.97 21.95 9.95 21.95 9.94 21.94ZM9.88 21.81C9.88 21.81 9.9 21.87 9.92 21.9C9.9 21.87 9.88 21.84 9.88 21.81Z" fill="currentColor"/>
  </symbol>
  <symbol id="ic_battery_warning" viewBox="0 0 24 24">
    <path d="M12 9C11.45 9 11 9.45 11 10V13C11 13.55 11.45 14 12 14C12.55 14 13 13.55 13 13V10C13 9.45 12.55 9 12 9ZM11.29 15.29C11.11 15.48 11 15.73 11 16C11 16.13 11.03 16.26 11.08 16.38C11.13 16.5 11.2 16.61 11.29 16.71C11.39 16.8 11.5 16.87 11.62 16.92C11.74 16.98 11.87 17 12 17C12.13 17 12.26 16.98 12.38 16.92C12.5 16.87 12.61 16.8 12.71 16.71C12.9 16.52 13 16.27 13 16C13 15.73 12.89 15.48 12.71 15.29C12.34 14.92 11.66 14.92 11.29 15.29ZM16 4C16 2.9 15.1 2 14 2H10C8.9 2 8 2.9 8 4C6.35 4 5 5.35 5 7V19C5 20.65 6.35 22 8 22H16C17.65 22 19 20.65 19 19V7C19 5.35 17.65 4 16 4ZM17 19C17 19.55 16.55 20 16 20H8C7.45 20 7 19.55 7 19V7C7 6.45 7.45 6 8 6H9C9.55 6 10 5.55 10 5V4H14V5C14 5.55 14.45 6 15 6H16C16.55 6 17 6.45 17 7V19Z" fill="currentColor"/>
  </symbol>
</svg>
