<!-- JioGames DLS — bed icons (4 icons) -->
<svg xmlns="http://www.w3.org/2000/svg" style="display:none">
  <symbol id="ic_bed_double" viewBox="0 0 24 24">
    <path d="M6 9C6 8.73478 6.10536 8.48043 6.29289 8.29289C6.48043 8.10536 6.73478 8 7 8H10C10.2652 8 10.5196 8.10536 10.7071 8.29289C10.8946 8.48043 11 8.73478 11 9V11H13V9C13 8.73478 13.1054 8.48043 13.2929 8.29289C13.4804 8.10536 13.7348 8 14 8H17C17.2652 8 17.5196 8.10536 17.7071 8.29289C17.8946 8.48043 18 8.73478 18 9V11H20V7C20 6.46957 19.7893 5.96086 19.4142 5.58579C19.0391 5.21071 18.5304 5 18 5H6C5.46957 5 4.96086 5.21071 4.58579 5.58579C4.21071 5.96086 4 6.46957 4 7V11H6V9ZM20 12H4C3.46957 12 2.96086 12.2107 2.58579 12.5858C2.21071 12.9609 2 13.4696 2 14V19C2 19.2652 2.10536 19.5196 2.29289 19.7071C2.48043 19.8946 2.73478 20 3 20C3.26522 20 3.51957 19.8946 3.70711 19.7071C3.89464 19.5196 4 19.2652 4 19V18H20V19C20 19.2652 20.1054 19.5196 20.2929 19.7071C20.4804 19.8946 20.7348 20 21 20C21.2652 20 21.5196 19.8946 21.7071 19.7071C21.8946 19.5196 22 19.2652 22 19V14C22 13.4696 21.7893 12.9609 21.4142 12.5858C21.0391 12.2107 20.5304 12 20 12Z" fill="currentColor"/>
  </symbol>
  <symbol id="ic_bed_medical" viewBox="0 0 24 24">
    <path d="M17 8H18V9C18 9.26522 18.1054 9.51957 18.2929 9.70711C18.4804 9.89464 18.7348 10 19 10C19.2652 10 19.5196 9.89464 19.7071 9.70711C19.8946 9.51957 20 9.26522 20 9V8H21C21.2652 8 21.5196 7.89464 21.7071 7.70711C21.8946 7.51957 22 7.26522 22 7C22 6.73478 21.8946 6.48043 21.7071 6.29289C21.5196 6.10536 21.2652 6 21 6H20V5C20 4.73478 19.8946 4.48043 19.7071 4.29289C19.5196 4.10536 19.2652 4 19 4C18.7348 4 18.4804 4.10536 18.2929 4.29289C18.1054 4.48043 18 4.73478 18 5V6H17C16.7348 6 16.4804 6.10536 16.2929 6.29289C16.1054 6.48043 16 6.73478 16 7C16 7.26522 16.1054 7.51957 16.2929 7.70711C16.4804 7.89464 16.7348 8 17 8ZM19 12H8V11C8 10.2044 7.68393 9.44129 7.12132 8.87868C6.55871 8.31607 5.79565 8 5 8H4V5C4 4.73478 3.89464 4.48043 3.70711 4.29289C3.51957 4.10536 3.26522 4 3 4C2.73478 4 2.48043 4.10536 2.29289 4.29289C2.10536 4.48043 2 4.73478 2 5V19C2 19.2652 2.10536 19.5196 2.29289 19.7071C2.48043 19.8946 2.73478 20 3 20C3.26522 20 3.51957 19.8946 3.70711 19.7071C3.89464 19.5196 4 19.2652 4 19V18H20V19C20 19.2652 20.1054 19.5196 20.2929 19.7071C20.4804 19.8946 20.7348 20 21 20C21.2652 20 21.5196 19.8946 21.7071 19.7071C21.8946 19.5196 22 19.2652 22 19V15C22 14.2044 21.6839 13.4413 21.1213 12.8787C20.5587 12.3161 19.7956 12 19 12Z" fill="currentColor"/>
  </symbol>
  <symbol id="ic_bed_single" viewBox="0 0 24 24">
    <path d="M19 8H12C11.2044 8 10.4413 8.31607 9.87868 8.87868C9.31607 9.44129 9 10.2044 9 11V12H7V11C7 10.2044 6.68393 9.44129 6.12132 8.87868C5.55871 8.31607 4.79565 8 4 8V5C4 4.73478 3.89464 4.48043 3.70711 4.29289C3.51957 4.10536 3.26522 4 3 4C2.73478 4 2.48043 4.10536 2.29289 4.29289C2.10536 4.48043 2 4.73478 2 5V19C2 19.2652 2.10536 19.5196 2.29289 19.7071C2.48043 19.8946 2.73478 20 3 20C3.26522 20 3.51957 19.8946 3.70711 19.7071C3.89464 19.5196 4 19.2652 4 19V18H20V19C20 19.2652 20.1054 19.5196 20.2929 19.7071C20.4804 19.8946 20.7348 20 21 20C21.2652 20 21.5196 19.8946 21.7071 19.7071C21.8946 19.5196 22 19.2652 22 19V11C22 10.2044 21.6839 9.44129 21.1213 8.87868C20.5587 8.31607 19.7956 8 19 8Z" fill="currentColor"/>
  </symbol>
  <symbol id="ic_bed_sleeping" viewBox="0 0 24 24">
    <path d="M14 3H14.79L13.65 4.15C13.5772 4.21697 13.5273 4.30522 13.5076 4.40219C13.4878 4.49915 13.4992 4.59987 13.54 4.69C13.5775 4.78131 13.6412 4.85947 13.7231 4.91464C13.8049 4.96981 13.9013 4.99951 14 5H16C16.1326 5 16.2598 4.94732 16.3536 4.85355C16.4473 4.75979 16.5 4.63261 16.5 4.5C16.5 4.36739 16.4473 4.24021 16.3536 4.14645C16.2598 4.05268 16.1326 4 16 4H15.21L16.35 2.85C16.4228 2.78303 16.4727 2.69478 16.4924 2.59781C16.5122 2.50085 16.5008 2.40013 16.46 2.31C16.4225 2.21869 16.3588 2.14053 16.2769 2.08536C16.1951 2.03019 16.0987 2.00049 16 2H14C13.8674 2 13.7402 2.05268 13.6464 2.14645C13.5527 2.24021 13.5 2.36739 13.5 2.5C13.5 2.63261 13.5527 2.75979 13.6464 2.85355C13.7402 2.94732 13.8674 3 14 3ZM10.5 6H11.29L10.15 7.15C10.0772 7.21697 10.0273 7.30522 10.0076 7.40219C9.9878 7.49915 9.99916 7.59987 10.04 7.69C10.0775 7.78131 10.1412 7.85947 10.2231 7.91464C10.3049 7.96981 10.4013 7.99951 10.5 8H12.5C12.6326 8 12.7598 7.94732 12.8536 7.85355C12.9473 7.75979 13 7.63261 13 7.5C13 7.36739 12.9473 7.24021 12.8536 7.14645C12.7598 7.05268 12.6326 7 12.5 7H11.71L12.85 5.85C12.9297 5.78803 12.9873 5.70206 13.0143 5.6048C13.0413 5.50755 13.0363 5.40418 13 5.31C12.9601 5.21211 12.8903 5.12938 12.8004 5.07368C12.7106 5.01798 12.6054 4.99219 12.5 5H10.5C10.3674 5 10.2402 5.05268 10.1464 5.14645C10.0527 5.24021 10 5.36739 10 5.5C10 5.63261 10.0527 5.75979 10.1464 5.85355C10.2402 5.94732 10.3674 6 10.5 6ZM7 12C7.39556 12 7.78224 11.8827 8.11114 11.6629C8.44004 11.4432 8.69638 11.1308 8.84776 10.7654C8.99913 10.3999 9.03874 9.99778 8.96157 9.60982C8.8844 9.22186 8.69392 8.86549 8.41421 8.58579C8.13451 8.30608 7.77814 8.1156 7.39018 8.03843C7.00222 7.96126 6.60009 8.00087 6.23463 8.15224C5.86918 8.30362 5.55682 8.55996 5.33706 8.88886C5.1173 9.21776 5 9.60444 5 10C5 10.5304 5.21071 11.0391 5.58579 11.4142C5.96086 11.7893 6.46957 12 7 12ZM19 9H13C12.2044 9 11.4413 9.31607 10.8787 9.87868C10.3161 10.4413 10 11.2044 10 12V13C10 13.2652 10.1054 13.5196 10.2929 13.7071C10.4804 13.8946 10.7348 14 11 14H22V12C22 11.2044 21.6839 10.4413 21.1213 9.87868C20.5587 9.31607 19.7956 9 19 9ZM8 13H4V6C4 5.73478 3.89464 5.48043 3.70711 5.29289C3.51957 5.10536 3.26522 5 3 5C2.73478 5 2.48043 5.10536 2.29289 5.29289C2.10536 5.48043 2 5.73478 2 6V19C2 19.2652 2.10536 19.5196 2.29289 19.7071C2.48043 19.8946 2.73478 20 3 20C3.26522 20 3.51957 19.8946 3.70711 19.7071C3.89464 19.5196 4 19.2652 4 19V18H20V19C20 19.2652 20.1054 19.5196 20.2929 19.7071C20.4804 19.8946 20.7348 20 21 20C21.2652 20 21.5196 19.8946 21.7071 19.7071C21.8946 19.5196 22 19.2652 22 19V18V16H11C10.2044 16 9.44129 15.6839 8.87868 15.1213C8.31607 14.5587 8 13.7956 8 13Z" fill="currentColor"/>
  </symbol>
</svg>
