<!-- JioGames DLS — blood icons (8 icons) -->
<svg xmlns="http://www.w3.org/2000/svg" style="display:none">
  <symbol id="ic_blood" viewBox="0 0 24 24">
    <path d="M17.7002 10.3996L12.8502 2.47961C12.4902 1.88961 11.5102 1.88961 11.1402 2.47961L6.29023 10.3996C5.44023 11.7796 4.99023 13.3696 4.99023 14.9996C4.99023 18.8596 8.13023 21.9996 11.9902 21.9996C15.8502 21.9996 18.9902 18.8596 18.9902 14.9996C18.9902 13.3796 18.5402 11.7896 17.6902 10.3996H17.7002ZM16.0002 15.9996H15.0002V16.9996C15.0002 17.5496 14.5502 17.9996 14.0002 17.9996C13.4502 17.9996 13.0002 17.5496 13.0002 16.9996V15.9996H12.0002C11.4502 15.9996 11.0002 15.5496 11.0002 14.9996C11.0002 14.4496 11.4502 13.9996 12.0002 13.9996H13.0002V12.9996C13.0002 12.4496 13.4502 11.9996 14.0002 11.9996C14.5502 11.9996 15.0002 12.4496 15.0002 12.9996V13.9996H16.0002C16.5502 13.9996 17.0002 14.4496 17.0002 14.9996C17.0002 15.5496 16.5502 15.9996 16.0002 15.9996Z" fill="currentColor"/>
  </symbol>
  <symbol id="ic_blood_bag" viewBox="0 0 24 24">
    <path d="M17 16C15.35 16 14 17.35 14 19C14 19.55 13.55 20 13 20H12C11.45 20 11 19.55 11 19V18C12.1 18 13 17.1 13 16V15.72L14.63 15.18C15.45 14.91 16 14.14 16 13.28V4C16 2.9 15.1 2 14 2H6C4.9 2 4 2.9 4 4V13.28C4 14.14 4.55 14.9 5.37 15.18L7 15.72V16C7 17.1 7.9 18 9 18V19C9 20.65 10.35 22 12 22H13C14.65 22 16 20.65 16 19C16 18.45 16.45 18 17 18C17.55 18 18 18.45 18 19V21C18 21.55 18.45 22 19 22C19.55 22 20 21.55 20 21V19C20 17.35 18.65 16 17 16ZM10 12C9.45 12 9 11.55 9 11V10H8C7.45 10 7 9.55 7 9C7 8.45 7.45 8 8 8H9V7C9 6.45 9.45 6 10 6C10.55 6 11 6.45 11 7V8H12C12.55 8 13 8.45 13 9C13 9.55 12.55 10 12 10H11V11C11 11.55 10.55 12 10 12Z" fill="currentColor"/>
  </symbol>
  <symbol id="ic_blood_bank" viewBox="0 0 24 24">
    <path d="M21 16.5499L19.24 14.7899C19.147 14.6962 19.0364 14.6218 18.9145 14.5711C18.7927 14.5203 18.662 14.4941 18.53 14.4941C18.398 14.4941 18.2672 14.5203 18.1454 14.5711C18.0235 14.6218 17.9129 14.6962 17.82 14.7899L16 16.5499C15.3552 17.2018 14.9955 18.083 15 18.9999C14.9931 19.4561 15.0781 19.909 15.2499 20.3316C15.4217 20.7542 15.6768 21.138 16 21.4599C16.6559 22.1133 17.5441 22.4802 18.47 22.4802C19.3958 22.4802 20.284 22.1133 20.94 21.4599C21.274 21.143 21.5402 20.7616 21.7224 20.3387C21.9046 19.9159 21.9991 19.4604 22 18.9999C22.0044 18.083 21.6448 17.2018 21 16.5499ZM13 18.9999V9.99994H16V13.7599L16.38 13.3699C16.8223 12.9358 17.3882 12.6494 18 12.5499V9.99994H19C19.4615 10.0014 19.9093 9.84314 20.2675 9.55207C20.6256 9.26101 20.8721 8.85503 20.9651 8.40297C21.0581 7.95091 20.9919 7.4806 20.7777 7.07179C20.5636 6.66298 20.2146 6.34082 19.79 6.15994L12.79 3.15994C12.5396 3.05597 12.2711 3.00244 12 3.00244C11.7288 3.00244 11.4604 3.05597 11.21 3.15994L4.20996 6.15994C3.78536 6.34082 3.43638 6.66298 3.22219 7.07179C3.00801 7.4806 2.9418 7.95091 3.0348 8.40297C3.12781 8.85503 3.37429 9.26101 3.73246 9.55207C4.09063 9.84314 4.53844 10.0014 4.99996 9.99994H5.99996V18.9999H3.99996C3.73475 18.9999 3.48039 19.1053 3.29286 19.2928C3.10532 19.4804 2.99996 19.7347 2.99996 19.9999C2.99996 20.2652 3.10532 20.5195 3.29286 20.7071C3.48039 20.8946 3.73475 20.9999 3.99996 20.9999H13.38C13.1306 20.3625 13.0018 19.6844 13 18.9999ZM11 18.9999H7.99996V9.99994H11V18.9999Z" fill="currentColor"/>
  </symbol>
  <symbol id="ic_blood_cells" viewBox="0 0 24 24">
    <path d="M7 9C9.21 9 11 7.66 11 6C11 4.34 9.21 3 7 3C4.79 3 3 4.34 3 6C3 7.66 4.79 9 7 9ZM18 17C16.34 17 15 17.9 15 19C15 20.1 16.34 21 18 21C19.66 21 21 20.1 21 19C21 17.9 19.66 17 18 17ZM16.15 6.15C16.73 5.57 16.57 4.47 15.8 3.7C15.03 2.93 13.93 2.77 13.35 3.35C12.77 3.93 12.93 5.03 13.7 5.8C14.47 6.57 15.57 6.73 16.15 6.15ZM3.95 12.45C2.38 14.02 2.8 17 4.9 19.1C7 21.2 9.98 21.62 11.55 20.05C13.12 18.48 12.7 15.5 10.6 13.4C8.5 11.3 5.52 10.88 3.95 12.45ZM19.3 13.8C21.18 11.92 21.56 9.26 20.15 7.85C18.74 6.44 16.08 6.82 14.2 8.7C12.32 10.58 11.94 13.24 13.35 14.65C14.76 16.06 17.42 15.68 19.3 13.8Z" fill="currentColor"/>
  </symbol>
  <symbol id="ic_blood_glucose_meter" viewBox="0 0 24 24">
    <path d="M10 22C10 22.55 10.45 23 11 23H13C13.55 23 14 22.55 14 22V21H10V22ZM17 3H7C5.34 3 4 4.34 4 6V14C4 17.31 6.69 20 10 20H14C17.31 20 20 17.31 20 14V6C20 4.34 18.66 3 17 3ZM13 16H11C10.45 16 10 15.55 10 15C10 14.45 10.45 14 11 14H13C13.55 14 14 14.45 14 15C14 15.55 13.55 16 13 16ZM16 10C16 10.55 15.55 11 15 11H9C8.45 11 8 10.55 8 10V8C8 7.45 8.45 7 9 7H15C15.55 7 16 7.45 16 8V10Z" fill="currentColor"/>
  </symbol>
  <symbol id="ic_blood_pressure_cuff" viewBox="0 0 24 24">
    <path d="M20 4H14C12.9 4 12 4.9 12 6V11C12 12.1 12.9 13 14 13H16V16.5C16 17.88 14.88 19 13.5 19C12.12 19 11 17.88 11 16.5V11C11 8.79 9.21 7 7 7C4.79 7 3 8.79 3 11V11.28C2.4 11.63 2 12.26 2 13V16C2 17.1 2.9 18 4 18C5.1 18 6 17.1 6 16V13C6 12.26 5.6 11.62 5 11.28V11C5 9.9 5.9 9 7 9C8.1 9 9 9.9 9 11V16.5C9 18.98 11.02 21 13.5 21C15.98 21 18 18.98 18 16.5V13H20C21.1 13 22 12.1 22 11V6C22 4.9 21.1 4 20 4ZM18 9V8.5C18 7.95 17.55 7.5 17 7.5C16.45 7.5 16 7.95 16 8.5V9H14C14 7.35 15.35 6 17 6C18.65 6 20 7.35 20 9H18Z" fill="currentColor"/>
  </symbol>
  <symbol id="ic_blood_test" viewBox="0 0 24 24">
    <path d="M11 14.52C10.9972 13.7964 11.1391 13.0795 11.4173 12.4114C11.6955 11.7434 12.1044 11.1377 12.62 10.63L14 9.26V5H14.5C14.8978 5 15.2794 4.84196 15.5607 4.56066C15.842 4.27936 16 3.89782 16 3.5C16 3.10218 15.842 2.72064 15.5607 2.43934C15.2794 2.15804 14.8978 2 14.5 2H5.5C5.10218 2 4.72064 2.15804 4.43934 2.43934C4.15804 2.72064 4 3.10218 4 3.5C4 3.89782 4.15804 4.27936 4.43934 4.56066C4.72064 4.84196 5.10218 5 5.5 5H6V18C6.01118 18.9418 6.35433 19.8494 6.96902 20.5631C7.5837 21.2767 8.43049 21.7505 9.36024 21.9011C10.29 22.0517 11.243 21.8693 12.0515 21.3862C12.86 20.9031 13.4721 20.1501 13.78 19.26C12.9327 18.7935 12.2271 18.1068 11.7378 17.2725C11.2485 16.4382 10.9936 15.4872 11 14.52ZM8 9V5H12V9H8ZM19 12.05L17.24 10.29C17.147 10.1963 17.0364 10.1219 16.9146 10.0711C16.7927 10.0203 16.662 9.9942 16.53 9.9942C16.398 9.9942 16.2673 10.0203 16.1454 10.0711C16.0236 10.1219 15.913 10.1963 15.82 10.29L14 12.05C13.6726 12.3737 13.4126 12.7591 13.2352 13.1839C13.0577 13.6088 12.9664 14.0646 12.9664 14.525C12.9664 14.9854 13.0577 15.4412 13.2352 15.8661C13.4126 16.2909 13.6726 16.6763 14 17C14.3266 17.3314 14.7158 17.5945 15.145 17.7741C15.5741 17.9537 16.0347 18.0462 16.5 18.0462C16.9653 18.0462 17.4259 17.9537 17.855 17.7741C18.2842 17.5945 18.6734 17.3314 19 17C19.3232 16.678 19.5783 16.2943 19.7501 15.8717C19.9219 15.449 20.0069 14.9962 20 14.54C20.0075 14.0793 19.9229 13.6217 19.7512 13.1941C19.5795 12.7665 19.3241 12.3775 19 12.05Z" fill="currentColor"/>
  </symbol>
  <symbol id="ic_blood_vessels" viewBox="0 0 24 24">
    <path d="M19 13C19.55 13 20 12.55 20 12C20 11.45 19.55 11 19 11H18V9H19C19.55 9 20 8.55 20 8C20 7.45 19.55 7 19 7H18C18 7 17.91 7.02 17.87 7.03C17.43 5.3 15.87 4 14 4V3C14 2.45 13.55 2 13 2H11C10.45 2 10 2.45 10 3V8C7.79 8 6 9.79 6 12V15H5C4.45 15 4 15.45 4 16C4 16.55 4.45 17 5 17H6V18C6 18.55 5.55 19 5 19C4.45 19 4 19.45 4 20C4 20.55 4.45 21 5 21C6.65 21 8 19.65 8 18V12C8 10.9 8.9 10 10 10V21C10 21.55 10.45 22 11 22H13C13.55 22 14 21.55 14 21V6C15.1 6 16 6.9 16 8V14C16 15.65 17.35 17 19 17C19.55 17 20 16.55 20 16C20 15.45 19.55 15 19 15C18.45 15 18 14.55 18 14V13H19Z" fill="currentColor"/>
  </symbol>
</svg>
