<!-- JioGames DLS — body icons (2 icons) -->
<svg xmlns="http://www.w3.org/2000/svg" style="display:none">
  <symbol id="ic_body_care" viewBox="0 0 24 24">
    <path d="M7.18997 20C7.18997 20.5304 7.40069 21.0391 7.77576 21.4142C8.15083 21.7893 8.65954 22 9.18997 22H14.81C15.3404 22 15.8491 21.7893 16.2242 21.4142C16.5993 21.0391 16.81 20.5304 16.81 20V19H7.18997V20ZM18.51 2.65C18.3337 2.44623 18.1157 2.28272 17.8707 2.17058C17.6257 2.05843 17.3594 2.00026 17.09 2H6.90997C6.64053 2.00026 6.37428 2.05843 6.12929 2.17058C5.88429 2.28272 5.66626 2.44623 5.48997 2.65C5.31218 2.85312 5.18072 3.0925 5.10474 3.35153C5.02876 3.61056 5.01007 3.88302 5.04997 4.15L6.99997 17H17L19 4.15C19.0332 3.87934 19.0066 3.60468 18.9219 3.34546C18.8372 3.08625 18.6966 2.84882 18.51 2.65Z" fill="currentColor"/>
  </symbol>
  <symbol id="ic_body_scale" viewBox="0 0 24 24">
    <path d="M18 4H16.46C15.36 2.78 13.77 2 12 2C10.23 2 8.64 2.78 7.54 4H6C4.34 4 3 5.34 3 7V18C3 19.66 4.34 21 6 21H18C19.66 21 21 19.66 21 18V7C21 5.34 19.66 4 18 4ZM13 11.86V18C13 18.55 12.55 19 12 19C11.45 19 11 18.55 11 18V11.86C9.28 11.41 8 9.86 8 8C8 5.79 9.79 4 12 4C14.21 4 16 5.79 16 8C16 9.86 14.72 11.41 13 11.86ZM12 6C11.45 6 11 6.45 11 7V8C11 8.55 11.45 9 12 9C12.55 9 13 8.55 13 8V7C13 6.45 12.55 6 12 6Z" fill="currentColor"/>
  </symbol>
</svg>
