<!-- JioGames DLS — bookmark icons (3 icons) -->
<svg xmlns="http://www.w3.org/2000/svg" style="display:none">
  <symbol id="ic_bookmark" viewBox="0 0 24 24">
    <path d="M17 2H7C6.20435 2 5.44129 2.31607 4.87868 2.87868C4.31607 3.44129 4 4.20435 4 5V20C4.00036 20.3507 4.09294 20.6952 4.26846 20.9988C4.44398 21.3025 4.69626 21.5546 5 21.73C5.30384 21.9063 5.64874 21.9994 6 22C6.35126 21.9994 6.69616 21.9063 7 21.73L12 18.85L17 21.73C17.3038 21.9063 17.6487 21.9994 18 22C18.3513 21.9994 18.6962 21.9063 19 21.73C19.3037 21.5546 19.556 21.3025 19.7315 20.9988C19.9071 20.6952 19.9996 20.3507 20 20V5C20 4.20435 19.6839 3.44129 19.1213 2.87868C18.5587 2.31607 17.7956 2 17 2Z" fill="currentColor"/>
  </symbol>
  <symbol id="ic_bookmark_add" viewBox="0 0 24 24">
    <path d="M18 2H6C5.46957 2 4.96086 2.21071 4.58579 2.58579C4.21071 2.96086 4 3.46957 4 4V20C4.00036 20.3507 4.09294 20.6952 4.26846 20.9988C4.44398 21.3025 4.69626 21.5546 5 21.73C5.30384 21.9063 5.64874 21.9994 6 22C6.35126 21.9994 6.69616 21.9063 7 21.73L12 18.85L17 21.73C17.3038 21.9063 17.6487 21.9994 18 22C18.3513 21.9994 18.6962 21.9063 19 21.73C19.3037 21.5546 19.556 21.3025 19.7315 20.9988C19.9071 20.6952 19.9996 20.3507 20 20V4C20 3.46957 19.7893 2.96086 19.4142 2.58579C19.0391 2.21071 18.5304 2 18 2ZM14 11H13V12C13 12.2652 12.8946 12.5196 12.7071 12.7071C12.5196 12.8946 12.2652 13 12 13C11.7348 13 11.4804 12.8946 11.2929 12.7071C11.1054 12.5196 11 12.2652 11 12V11H10C9.73478 11 9.48043 10.8946 9.29289 10.7071C9.10536 10.5196 9 10.2652 9 10C9 9.73478 9.10536 9.48043 9.29289 9.29289C9.48043 9.10536 9.73478 9 10 9H11V8C11 7.73478 11.1054 7.48043 11.2929 7.29289C11.4804 7.10536 11.7348 7 12 7C12.2652 7 12.5196 7.10536 12.7071 7.29289C12.8946 7.48043 13 7.73478 13 8V9H14C14.2652 9 14.5196 9.10536 14.7071 9.29289C14.8946 9.48043 15 9.73478 15 10C15 10.2652 14.8946 10.5196 14.7071 10.7071C14.5196 10.8946 14.2652 11 14 11Z" fill="currentColor"/>
  </symbol>
  <symbol id="ic_bookmark_off" viewBox="0 0 24 24">
    <path d="M17.6599 2.08006C17.4499 2.03006 17.2299 2.00006 16.9999 2.00006H6.99995C6.19995 2.00006 5.43995 2.32006 4.87995 2.88006C4.31995 3.44006 3.99995 4.21006 3.99995 5.00006V15.7301L17.6599 2.08006Z" fill="currentColor"/>
<path d="M20.2899 2.28006L4.00995 18.5601V18.5801L2.29995 20.2901C1.90995 20.6801 1.90995 21.3101 2.29995 21.7001C2.49995 21.9001 2.74995 21.9901 3.00995 21.9901C3.26995 21.9901 3.51995 21.8901 3.71995 21.7001L4.33995 21.0801C4.50995 21.3501 4.73995 21.5701 5.00995 21.7301C5.30995 21.9101 5.65995 22.0001 6.00995 22.0001C6.35995 22.0001 6.70995 21.9101 7.00995 21.7301L12.0099 18.8501L17.0099 21.7301C17.3099 21.9101 17.6599 22.0001 18.0099 22.0001C18.3599 22.0001 18.7099 21.9101 19.0099 21.7301C19.3099 21.5501 19.5699 21.3001 19.7399 21.0001C19.9199 20.7001 20.0099 20.3501 20.0099 20.0001V5.41006L21.7199 3.70006C22.1099 3.31006 22.1099 2.68006 21.7199 2.29006C21.3299 1.90006 20.6999 1.90006 20.3099 2.29006L20.2899 2.28006Z" fill="currentColor"/>
  </symbol>
</svg>
