<!-- JioGames DLS — brain icons (4 icons) -->
<svg xmlns="http://www.w3.org/2000/svg" style="display:none">
  <symbol id="ic_brain" viewBox="0 0 24 24">
    <path d="M9 3C7.9 3 7 3.9 7 5C5.55 5 4.34 6.03 4.06 7.39C4.66 7.14 5.31 7 6 7C6.96 7 7.85 7.27 8.61 7.74C9.13 8.06 9.21 8.78 8.78 9.21L8.7 9.29C8.38 9.61 7.9 9.63 7.51 9.4C7.07 9.14 6.55 8.99 6 8.99C5.41 8.99 4.86 9.17 4.4 9.46C4.19 9.59 4 9.75 3.83 9.93H3.82C3.67 10.1 3.54 10.28 3.43 10.47C3.4 10.52 3.37 10.57 3.35 10.62C3.27 10.77 3.2 10.94 3.15 11.11C3.13 11.17 3.11 11.23 3.09 11.29C3.03 11.52 3 11.75 3 12C3 13.07 3.56 14 4.4 14.53C4.15 14.97 4 15.46 4 16C4 17.66 5.34 19 7 19C7 20.1 7.9 21 9 21C10.1 21 11 20.1 11 19V5C11 3.9 10.1 3 9 3ZM19.6 9.47C19.85 9.03 20 8.54 20 8C20 6.34 18.66 5 17 5C17 3.9 16.1 3 15 3C13.9 3 13 3.9 13 5V13.5C13 14.6 13.9 15.5 15 15.5C15.38 15.5 15.74 15.39 16.05 15.2C16.44 14.96 16.95 15.01 17.27 15.34C17.72 15.79 17.64 16.55 17.1 16.89C16.49 17.28 15.77 17.5 14.99 17.5C14.26 17.5 13.58 17.29 12.99 16.94V19C12.99 20.1 13.89 21 14.99 21C16.09 21 16.99 20.1 16.99 19C18.65 19 19.99 17.66 19.99 16C19.99 15.85 19.97 15.71 19.95 15.56C19.94 15.47 19.92 15.39 19.9 15.31C19.9 15.27 19.88 15.23 19.87 15.19C19.8 14.96 19.71 14.74 19.59 14.53C19.2 13.84 18.56 13.32 17.78 13.11C17.32 12.98 16.98 12.61 16.98 12.13C16.98 11.48 17.6 10.99 18.23 11.16C19.28 11.43 20.19 12.04 20.85 12.85C20.93 12.58 20.98 12.3 20.98 12C20.98 10.93 20.42 10 19.58 9.47H19.6Z" fill="currentColor"/>
  </symbol>
  <symbol id="ic_brain_add" viewBox="0 0 24 24">
    <path d="M19.6 9.47C19.85 9.03 20 8.54 20 8C20 6.34 18.66 5 17 5C17 3.9 16.1 3 15 3C13.9 3 13 3.9 13 5V13.5C13 14.6 13.9 15.5 15 15.5C15.38 15.5 15.74 15.39 16.05 15.2C16.44 14.96 16.95 15.01 17.27 15.34C17.72 15.79 17.64 16.55 17.1 16.89C16.49 17.28 15.77 17.5 14.99 17.5C14.26 17.5 13.58 17.29 12.99 16.94V19C12.99 20.1 13.89 21 14.99 21C16.09 21 16.99 20.1 16.99 19C18.65 19 19.99 17.66 19.99 16C19.99 15.85 19.97 15.71 19.95 15.56C19.94 15.47 19.92 15.39 19.9 15.31C19.9 15.27 19.88 15.23 19.87 15.19C19.8 14.96 19.71 14.74 19.59 14.53C19.2 13.84 18.56 13.32 17.78 13.11C17.32 12.98 16.98 12.61 16.98 12.13C16.98 11.48 17.6 10.99 18.23 11.16C19.28 11.43 20.19 12.04 20.85 12.85C20.93 12.58 20.98 12.3 20.98 12C20.98 10.93 20.42 10 19.58 9.47H19.6ZM9 17H8V16C8 15.45 7.55 15 7 15C6.45 15 6 15.45 6 16V17H5C4.45 17 4 17.45 4 18C4 18.55 4.45 19 5 19H6V20C6 20.55 6.45 21 7 21C7.55 21 8 20.55 8 20V19H9C9.55 19 10 18.55 10 18C10 17.45 9.55 17 9 17ZM9 3C7.9 3 7 3.9 7 5C5.55 5 4.34 6.03 4.06 7.39C4.66 7.14 5.31 7 6 7C6.96 7 7.85 7.27 8.61 7.74C9.13 8.06 9.21 8.78 8.78 9.21L8.7 9.29C8.38 9.61 7.9 9.63 7.51 9.4C7.07 9.14 6.55 8.99 6 8.99C5.41 8.99 4.86 9.17 4.4 9.46C4.19 9.59 4 9.75 3.83 9.93H3.82C3.67 10.1 3.54 10.28 3.43 10.47C3.4 10.52 3.37 10.57 3.35 10.62C3.27 10.77 3.2 10.94 3.15 11.11C3.13 11.17 3.11 11.23 3.09 11.29C3.03 11.52 3 11.75 3 12C3 12.83 3.35 13.57 3.89 14.11C4.75 13.42 5.82 13 7 13C8.64 13 10.09 13.8 11 15.03V5C11 3.9 10.1 3 9 3Z" fill="currentColor"/>
  </symbol>
  <symbol id="ic_brain_stroke" viewBox="0 0 24 24">
    <path d="M22 12C22 10.69 21.15 9.59 19.98 9.18C19.98 9.12 20 9.06 20 9C20 7.34 18.66 6 17 6C16.76 6 16.52 6.04 16.3 6.09C15.75 5.43 14.93 5 14 5C13.23 5 12.53 5.3 12 5.78C11.47 5.3 10.77 5 10 5C9.07 5 8.25 5.43 7.7 6.09C7.47 6.04 7.24 6 7 6C5.34 6 4 7.34 4 9C4 9.06 4.01 9.12 4.02 9.18C2.85 9.59 2 10.69 2 12C2 13.66 3.34 15 5 15H9.01C9.01 16.66 10.34 18 12 18H13V20C13 20.55 13.45 21 14 21C14.55 21 15 20.55 15 20V19.83C15 18.82 15.82 18 16.83 18C18.45 18 19.91 16.78 20 15.16C20 15.04 19.99 14.93 19.98 14.82C21.15 14.41 22 13.31 22 12ZM16.45 12.11C16.74 12.25 16.94 12.53 16.99 12.84C17.04 13.16 16.94 13.48 16.71 13.71L14.71 15.71C14.51 15.91 14.26 16 14 16C13.74 16 13.49 15.9 13.29 15.71C12.9 15.32 12.9 14.69 13.29 14.3L14.31 13.28L13.55 12.9C13.26 12.76 13.06 12.48 13.01 12.17C12.96 11.85 13.06 11.53 13.29 11.3L15.29 9.3C15.68 8.91 16.31 8.91 16.7 9.3C17.09 9.69 17.09 10.32 16.7 10.71L15.68 11.73L16.44 12.11H16.45Z" fill="currentColor"/>
  </symbol>
  <symbol id="ic_brain_surgery" viewBox="0 0 24 24">
    <path d="M12.9998 2C8.67982 2 5.14982 5.45 5.00982 9.74L3.09982 13.56C2.84982 14.05 3.04982 14.65 3.54982 14.9L4.99982 15.62V17C4.99982 18.1 5.89982 19 6.99982 19H8.99982V20C8.99982 21.1 9.89982 22 10.9998 22H15.9998C17.0998 22 17.9998 21.1 17.9998 20V16.24C19.8298 14.77 20.9998 12.52 20.9998 10C20.9998 5.59 17.4098 2 12.9998 2ZM17.9998 10C17.9998 10.74 17.5998 11.38 16.9998 11.72V13C16.9998 13.55 16.5498 14 15.9998 14C15.4498 14 14.9998 13.55 14.9998 13V12H12.9998C11.8998 12 10.9998 11.1 10.9998 10H8.99982C8.44982 10 7.99982 9.55 7.99982 9C7.99982 8.45 8.44982 8 8.99982 8C8.99982 7.19 9.48982 6.49 10.1798 6.18C10.4898 5.49 11.1898 5 11.9998 5C12.3698 5 12.6998 5.11 12.9998 5.28C13.2998 5.11 13.6298 5 13.9998 5C14.7498 5 15.3898 5.42 15.7398 6.03C15.8298 6.02 15.9098 6 15.9998 6C17.0998 6 17.9998 6.9 17.9998 8C17.9998 8.37 17.8898 8.7 17.7198 9C17.8898 9.3 17.9998 9.63 17.9998 10Z" fill="currentColor"/>
  </symbol>
</svg>
