<!-- JioGames DLS — brightness icons (4 icons) -->
<svg xmlns="http://www.w3.org/2000/svg" style="display:none">
  <symbol id="ic_brightness" viewBox="0 0 24 24">
    <path d="M7.05 15.54L6.34 16.24C6.1517 16.4283 6.04591 16.6837 6.04591 16.95C6.04591 17.2163 6.1517 17.4717 6.34 17.66C6.5283 17.8483 6.7837 17.9541 7.05 17.9541C7.3163 17.9541 7.5717 17.8483 7.76 17.66L8.46 16.95C8.56468 16.8604 8.6497 16.75 8.70973 16.626C8.76975 16.5019 8.80348 16.3668 8.8088 16.2291C8.81412 16.0913 8.79091 15.954 8.74064 15.8257C8.69036 15.6974 8.6141 15.5808 8.51665 15.4833C8.4192 15.3859 8.30265 15.3096 8.17432 15.2594C8.046 15.2091 7.90867 15.1859 7.77095 15.1912C7.63323 15.1965 7.49809 15.2303 7.37403 15.2903C7.24997 15.3503 7.13965 15.4353 7.05 15.54ZM7 12C7 11.7348 6.89464 11.4804 6.70711 11.2929C6.51957 11.1054 6.26522 11 6 11H5C4.73478 11 4.48043 11.1054 4.29289 11.2929C4.10536 11.4804 4 11.7348 4 12C4 12.2652 4.10536 12.5196 4.29289 12.7071C4.48043 12.8946 4.73478 13 5 13H6C6.26522 13 6.51957 12.8946 6.70711 12.7071C6.89464 12.5196 7 12.2652 7 12ZM17 8.46L17.71 7.76C17.8983 7.5717 18.0041 7.3163 18.0041 7.05C18.0041 6.7837 17.8983 6.5283 17.71 6.34C17.5217 6.1517 17.2663 6.04591 17 6.04591C16.7337 6.04591 16.4783 6.1517 16.29 6.34L15.59 7.05C15.4853 7.13965 15.4003 7.24997 15.3403 7.37403C15.2803 7.49809 15.2465 7.63323 15.2412 7.77095C15.2359 7.90867 15.2591 8.046 15.3094 8.17432C15.3596 8.30265 15.4359 8.4192 15.5333 8.51665C15.6308 8.6141 15.7474 8.69036 15.8757 8.74064C16.004 8.79091 16.1413 8.81412 16.2791 8.8088C16.4168 8.80348 16.5519 8.76975 16.676 8.70973C16.8 8.6497 16.9104 8.56468 17 8.46ZM12 7C12.2652 7 12.5196 6.89464 12.7071 6.70711C12.8946 6.51957 13 6.26522 13 6V5C13 4.73478 12.8946 4.48043 12.7071 4.29289C12.5196 4.10536 12.2652 4 12 4C11.7348 4 11.4804 4.10536 11.2929 4.29289C11.1054 4.48043 11 4.73478 11 5V6C11 6.26522 11.1054 6.51957 11.2929 6.70711C11.4804 6.89464 11.7348 7 12 7ZM7.05 8.46C7.13965 8.56468 7.24997 8.6497 7.37403 8.70973C7.49809 8.76975 7.63323 8.80348 7.77095 8.8088C7.90867 8.81412 8.046 8.79091 8.17432 8.74064C8.30265 8.69036 8.4192 8.6141 8.51665 8.51665C8.6141 8.4192 8.69036 8.30265 8.74064 8.17432C8.79091 8.046 8.81412 7.90867 8.8088 7.77095C8.80348 7.63323 8.76975 7.49809 8.70973 7.37403C8.6497 7.24997 8.56468 7.13965 8.46 7.05L7.76 6.34C7.66676 6.24676 7.55607 6.1728 7.43425 6.12234C7.31243 6.07188 7.18186 6.04591 7.05 6.04591C6.7837 6.04591 6.5283 6.1517 6.34 6.34C6.24676 6.43324 6.1728 6.54393 6.12234 6.66575C6.07188 6.78757 6.04591 6.91814 6.04591 7.05C6.04591 7.3163 6.1517 7.5717 6.34 7.76L7.05 8.46ZM12 17C11.7348 17 11.4804 17.1054 11.2929 17.2929C11.1054 17.4804 11 17.7348 11 18V19C11 19.2652 11.1054 19.5196 11.2929 19.7071C11.4804 19.8946 11.7348 20 12 20C12.2652 20 12.5196 19.8946 12.7071 19.7071C12.8946 19.5196 13 19.2652 13 19V18C13 17.7348 12.8946 17.4804 12.7071 17.2929C12.5196 17.1054 12.2652 17 12 17ZM19 11H18C17.7348 11 17.4804 11.1054 17.2929 11.2929C17.1054 11.4804 17 11.7348 17 12C17 12.2652 17.1054 12.5196 17.2929 12.7071C17.4804 12.8946 17.7348 13 18 13H19C19.2652 13 19.5196 12.8946 19.7071 12.7071C19.8946 12.5196 20 12.2652 20 12C20 11.7348 19.8946 11.4804 19.7071 11.2929C19.5196 11.1054 19.2652 11 19 11ZM17 15.54C16.9041 15.4441 16.7903 15.3681 16.6651 15.3162C16.5398 15.2643 16.4056 15.2376 16.27 15.2376C16.1344 15.2376 16.0002 15.2643 15.8749 15.3162C15.7497 15.3681 15.6359 15.4441 15.54 15.54C15.4441 15.6359 15.3681 15.7497 15.3162 15.8749C15.2643 16.0002 15.2376 16.1344 15.2376 16.27C15.2376 16.4056 15.2643 16.5398 15.3162 16.6651C15.3681 16.7903 15.4441 16.9041 15.54 17L16.24 17.71C16.4283 17.8983 16.6837 18.0041 16.95 18.0041C17.2163 18.0041 17.4717 17.8983 17.66 17.71C17.8483 17.5217 17.9541 17.2663 17.9541 17C17.9541 16.7337 17.8483 16.4783 17.66 16.29L17 15.54ZM12 8C11.2089 8 10.4355 8.2346 9.77772 8.67412C9.11992 9.11365 8.60723 9.73836 8.30448 10.4693C8.00173 11.2002 7.92252 12.0044 8.07686 12.7804C8.2312 13.5563 8.61216 14.269 9.17157 14.8284C9.73098 15.3878 10.4437 15.7688 11.2196 15.9231C11.9956 16.0775 12.7998 15.9983 13.5307 15.6955C14.2616 15.3928 14.8864 14.8801 15.3259 14.2223C15.7654 13.5645 16 12.7911 16 12C16 10.9391 15.5786 9.92172 14.8284 9.17157C14.0783 8.42143 13.0609 8 12 8Z" fill="currentColor"/>
  </symbol>
  <symbol id="ic_brightness_display" viewBox="0 0 24 24">
    <path d="M16.24 8.76C16.3723 8.75945 16.5032 8.73265 16.6251 8.68116C16.7469 8.62966 16.8574 8.55449 16.95 8.46L19.07 6.34C19.1747 6.25035 19.2597 6.14004 19.3197 6.01597C19.3797 5.89191 19.4135 5.75677 19.4188 5.61905C19.4241 5.48133 19.4009 5.344 19.3506 5.21568C19.3004 5.08735 19.2241 4.9708 19.1266 4.87335C19.0292 4.77589 18.9126 4.69964 18.7843 4.64936C18.656 4.59909 18.5187 4.57588 18.3809 4.5812C18.2432 4.58652 18.1081 4.62025 17.984 4.68027C17.86 4.7403 17.7496 4.82532 17.66 4.93L15.54 7.05C15.3537 7.23736 15.2492 7.49081 15.2492 7.755C15.2492 8.01919 15.3537 8.27264 15.54 8.46C15.7246 8.64841 15.9762 8.75624 16.24 8.76ZM7.05 15.54L4.93 17.66C4.74375 17.8474 4.63921 18.1008 4.63921 18.365C4.63921 18.6292 4.74375 18.8826 4.93 19.07C5.11736 19.2563 5.37081 19.3608 5.635 19.3608C5.89919 19.3608 6.15264 19.2563 6.34 19.07L8.46 17C8.64625 16.8126 8.75079 16.5592 8.75079 16.295C8.75079 16.0308 8.64625 15.7774 8.46 15.59C8.27933 15.397 8.02956 15.2833 7.76532 15.2739C7.50108 15.2646 7.24389 15.3602 7.05 15.54ZM7 12C7 11.7348 6.89464 11.4804 6.70711 11.2929C6.51957 11.1054 6.26522 11 6 11H3C2.73478 11 2.48043 11.1054 2.29289 11.2929C2.10536 11.4804 2 11.7348 2 12C2 12.2652 2.10536 12.5196 2.29289 12.7071C2.48043 12.8946 2.73478 13 3 13H6C6.26522 13 6.51957 12.8946 6.70711 12.7071C6.89464 12.5196 7 12.2652 7 12ZM7 8.46C7.09261 8.55449 7.20306 8.62966 7.32493 8.68116C7.44681 8.73265 7.57769 8.75945 7.71 8.76C7.97377 8.75624 8.22537 8.64841 8.41 8.46C8.59625 8.27264 8.70079 8.01919 8.70079 7.755C8.70079 7.49081 8.59625 7.23736 8.41 7.05L6.34 4.93C6.1487 4.76617 5.90262 4.68057 5.65095 4.69029C5.39927 4.70001 5.16053 4.80434 4.98244 4.98244C4.80434 5.16053 4.70001 5.39927 4.69029 5.65095C4.68057 5.90262 4.76617 6.1487 4.93 6.34L7 8.46ZM12 7C12.2652 7 12.5196 6.89464 12.7071 6.70711C12.8946 6.51957 13 6.26522 13 6V3C13 2.73478 12.8946 2.48043 12.7071 2.29289C12.5196 2.10536 12.2652 2 12 2C11.7348 2 11.4804 2.10536 11.2929 2.29289C11.1054 2.48043 11 2.73478 11 3V6C11 6.26522 11.1054 6.51957 11.2929 6.70711C11.4804 6.89464 11.7348 7 12 7ZM17 15.54C16.8126 15.3537 16.5592 15.2492 16.295 15.2492C16.0308 15.2492 15.7774 15.3537 15.59 15.54C15.4037 15.7274 15.2992 15.9808 15.2992 16.245C15.2992 16.5092 15.4037 16.7626 15.59 16.95L17.71 19.07C17.8974 19.2563 18.1508 19.3608 18.415 19.3608C18.6792 19.3608 18.9326 19.2563 19.12 19.07C19.3063 18.8826 19.4108 18.6292 19.4108 18.365C19.4108 18.1008 19.3063 17.8474 19.12 17.66L17 15.54ZM21 11H18C17.7348 11 17.4804 11.1054 17.2929 11.2929C17.1054 11.4804 17 11.7348 17 12C17 12.2652 17.1054 12.5196 17.2929 12.7071C17.4804 12.8946 17.7348 13 18 13H21C21.2652 13 21.5196 12.8946 21.7071 12.7071C21.8946 12.5196 22 12.2652 22 12C22 11.7348 21.8946 11.4804 21.7071 11.2929C21.5196 11.1054 21.2652 11 21 11ZM12 8C11.2089 8 10.4355 8.2346 9.77772 8.67412C9.11992 9.11365 8.60723 9.73836 8.30448 10.4693C8.00173 11.2002 7.92252 12.0044 8.07686 12.7804C8.2312 13.5563 8.61216 14.269 9.17157 14.8284C9.73098 15.3878 10.4437 15.7688 11.2196 15.9231C11.9956 16.0775 12.7998 15.9983 13.5307 15.6955C14.2616 15.3928 14.8864 14.8801 15.3259 14.2223C15.7654 13.5645 16 12.7911 16 12C16 10.9391 15.5786 9.92172 14.8284 9.17157C14.0783 8.42143 13.0609 8 12 8ZM12 14V10C12.5304 10 13.0391 10.2107 13.4142 10.5858C13.7893 10.9609 14 11.4696 14 12C14 12.5304 13.7893 13.0391 13.4142 13.4142C13.0391 13.7893 12.5304 14 12 14ZM12 17C11.7348 17 11.4804 17.1054 11.2929 17.2929C11.1054 17.4804 11 17.7348 11 18V21C11 21.2652 11.1054 21.5196 11.2929 21.7071C11.4804 21.8946 11.7348 22 12 22C12.2652 22 12.5196 21.8946 12.7071 21.7071C12.8946 21.5196 13 21.2652 13 21V18C13 17.7348 12.8946 17.4804 12.7071 17.2929C12.5196 17.1054 12.2652 17 12 17Z" fill="currentColor"/>
  </symbol>
  <symbol id="ic_brightness_full" viewBox="0 0 24 24">
    <path d="M12 7C12.2652 7 12.5196 6.89464 12.7071 6.70711C12.8946 6.51957 13 6.26522 13 6V3C13 2.73478 12.8946 2.48043 12.7071 2.29289C12.5196 2.10536 12.2652 2 12 2C11.7348 2 11.4804 2.10536 11.2929 2.29289C11.1054 2.48043 11 2.73478 11 3V6C11 6.26522 11.1054 6.51957 11.2929 6.70711C11.4804 6.89464 11.7348 7 12 7ZM7.05 8.46C7.14261 8.55449 7.25306 8.62966 7.37493 8.68116C7.49681 8.73265 7.62769 8.75945 7.76 8.76C8.02377 8.75624 8.27537 8.64841 8.46 8.46C8.64625 8.27264 8.75079 8.01919 8.75079 7.755C8.75079 7.49081 8.64625 7.23736 8.46 7.05L6.34 4.93C6.1487 4.76617 5.90262 4.68057 5.65095 4.69029C5.39927 4.70001 5.16053 4.80434 4.98244 4.98244C4.80434 5.16053 4.70001 5.39927 4.69029 5.65095C4.68057 5.90262 4.76617 6.1487 4.93 6.34L7.05 8.46ZM16.24 8.76C16.3723 8.75945 16.5032 8.73265 16.6251 8.68116C16.7469 8.62966 16.8574 8.55449 16.95 8.46L19.07 6.34C19.1747 6.25035 19.2597 6.14004 19.3197 6.01597C19.3797 5.89191 19.4135 5.75677 19.4188 5.61905C19.4241 5.48133 19.4009 5.344 19.3506 5.21568C19.3004 5.08735 19.2241 4.9708 19.1266 4.87335C19.0292 4.77589 18.9126 4.69964 18.7843 4.64936C18.656 4.59909 18.5187 4.57588 18.3809 4.5812C18.2432 4.58652 18.1081 4.62025 17.984 4.68027C17.86 4.7403 17.7496 4.82532 17.66 4.93L15.54 7.05C15.3537 7.23736 15.2492 7.49081 15.2492 7.755C15.2492 8.01919 15.3537 8.27264 15.54 8.46C15.7246 8.64841 15.9762 8.75624 16.24 8.76ZM7 12C7 11.7348 6.89464 11.4804 6.70711 11.2929C6.51957 11.1054 6.26522 11 6 11H3C2.73478 11 2.48043 11.1054 2.29289 11.2929C2.10536 11.4804 2 11.7348 2 12C2 12.2652 2.10536 12.5196 2.29289 12.7071C2.48043 12.8946 2.73478 13 3 13H6C6.26522 13 6.51957 12.8946 6.70711 12.7071C6.89464 12.5196 7 12.2652 7 12ZM17 15.54C16.8126 15.3537 16.5592 15.2492 16.295 15.2492C16.0308 15.2492 15.7774 15.3537 15.59 15.54C15.4037 15.7274 15.2992 15.9808 15.2992 16.245C15.2992 16.5092 15.4037 16.7626 15.59 16.95L17.71 19.07C17.8974 19.2563 18.1508 19.3608 18.415 19.3608C18.6792 19.3608 18.9326 19.2563 19.12 19.07C19.3063 18.8826 19.4108 18.6292 19.4108 18.365C19.4108 18.1008 19.3063 17.8474 19.12 17.66L17 15.54ZM12 8C11.2089 8 10.4355 8.2346 9.77772 8.67412C9.11992 9.11365 8.60723 9.73836 8.30448 10.4693C8.00173 11.2002 7.92252 12.0044 8.07686 12.7804C8.2312 13.5563 8.61216 14.269 9.17157 14.8284C9.73098 15.3878 10.4437 15.7688 11.2196 15.9231C11.9956 16.0775 12.7998 15.9983 13.5307 15.6955C14.2616 15.3928 14.8864 14.8801 15.3259 14.2223C15.7654 13.5645 16 12.7911 16 12C16 10.9391 15.5786 9.92172 14.8284 9.17157C14.0783 8.42143 13.0609 8 12 8ZM21 11H18C17.7348 11 17.4804 11.1054 17.2929 11.2929C17.1054 11.4804 17 11.7348 17 12C17 12.2652 17.1054 12.5196 17.2929 12.7071C17.4804 12.8946 17.7348 13 18 13H21C21.2652 13 21.5196 12.8946 21.7071 12.7071C21.8946 12.5196 22 12.2652 22 12C22 11.7348 21.8946 11.4804 21.7071 11.2929C21.5196 11.1054 21.2652 11 21 11ZM12 17C11.7348 17 11.4804 17.1054 11.2929 17.2929C11.1054 17.4804 11 17.7348 11 18V21C11 21.2652 11.1054 21.5196 11.2929 21.7071C11.4804 21.8946 11.7348 22 12 22C12.2652 22 12.5196 21.8946 12.7071 21.7071C12.8946 21.5196 13 21.2652 13 21V18C13 17.7348 12.8946 17.4804 12.7071 17.2929C12.5196 17.1054 12.2652 17 12 17ZM7.05 15.54L4.93 17.66C4.74375 17.8474 4.63921 18.1008 4.63921 18.365C4.63921 18.6292 4.74375 18.8826 4.93 19.07C5.11736 19.2563 5.37081 19.3608 5.635 19.3608C5.89919 19.3608 6.15264 19.2563 6.34 19.07L8.46 17C8.64625 16.8126 8.75079 16.5592 8.75079 16.295C8.75079 16.0308 8.64625 15.7774 8.46 15.59C8.27933 15.397 8.02956 15.2833 7.76532 15.2739C7.50108 15.2646 7.24389 15.3602 7.05 15.54Z" fill="currentColor"/>
  </symbol>
  <symbol id="ic_brightness_half" viewBox="0 0 24 24">
    <path d="M20 11H18C17.7348 11 17.4804 11.1054 17.2929 11.2929C17.1054 11.4804 17 11.7348 17 12C17 12.2652 17.1054 12.5196 17.2929 12.7071C17.4804 12.8946 17.7348 13 18 13H20C20.2652 13 20.5196 12.8946 20.7071 12.7071C20.8946 12.5196 21 12.2652 21 12C21 11.7348 20.8946 11.4804 20.7071 11.2929C20.5196 11.1054 20.2652 11 20 11ZM7.05 8.46C7.13965 8.56468 7.24997 8.6497 7.37403 8.70973C7.4981 8.76975 7.63323 8.80348 7.77095 8.8088C7.90867 8.81412 8.046 8.79091 8.17432 8.74064C8.30265 8.69036 8.4192 8.6141 8.51665 8.51665C8.6141 8.4192 8.69036 8.30265 8.74064 8.17432C8.79091 8.046 8.81412 7.90867 8.8088 7.77095C8.80348 7.63323 8.76975 7.4981 8.70973 7.37403C8.6497 7.24997 8.56468 7.13965 8.46 7.05L7.05 5.64C6.8587 5.47617 6.61262 5.39057 6.36095 5.40029C6.10927 5.41001 5.87053 5.51434 5.69244 5.69244C5.51434 5.87053 5.41001 6.10927 5.40029 6.36095C5.39057 6.61262 5.47617 6.8587 5.64 7.05L7.05 8.46ZM12 7C12.2652 7 12.5196 6.89464 12.7071 6.70711C12.8946 6.51957 13 6.26522 13 6V4C13 3.73478 12.8946 3.48043 12.7071 3.29289C12.5196 3.10536 12.2652 3 12 3C11.7348 3 11.4804 3.10536 11.2929 3.29289C11.1054 3.48043 11 3.73478 11 4V6C11 6.26522 11.1054 6.51957 11.2929 6.70711C11.4804 6.89464 11.7348 7 12 7ZM17 8.46L18.41 7.05C18.5147 6.96035 18.5997 6.85003 18.6597 6.72597C18.7197 6.60191 18.7535 6.46677 18.7588 6.32905C18.7641 6.19133 18.7409 6.054 18.6906 5.92568C18.6404 5.79735 18.5641 5.6808 18.4667 5.58335C18.3692 5.48589 18.2526 5.40964 18.1243 5.35936C17.996 5.30909 17.8587 5.28588 17.7209 5.2912C17.5832 5.29652 17.4481 5.33025 17.324 5.39027C17.2 5.4503 17.0896 5.53532 17 5.64L15.54 7.05C15.353 7.24361 15.2506 7.50356 15.2553 7.77268C15.26 8.04179 15.3714 8.29802 15.565 8.485C15.7586 8.67198 16.0186 8.77439 16.2877 8.7697C16.5568 8.76501 16.813 8.65361 17 8.46ZM7 12C7 11.7348 6.89464 11.4804 6.70711 11.2929C6.51957 11.1054 6.26522 11 6 11H4C3.73478 11 3.48043 11.1054 3.29289 11.2929C3.10536 11.4804 3 11.7348 3 12C3 12.2652 3.10536 12.5196 3.29289 12.7071C3.48043 12.8946 3.73478 13 4 13H6C6.26522 13 6.51957 12.8946 6.70711 12.7071C6.89464 12.5196 7 12.2652 7 12ZM17 15.54C16.9041 15.4441 16.7903 15.3681 16.6651 15.3162C16.5398 15.2643 16.4056 15.2376 16.27 15.2376C16.1344 15.2376 16.0002 15.2643 15.8749 15.3162C15.7497 15.3681 15.6359 15.4441 15.54 15.54C15.4441 15.6359 15.3681 15.7497 15.3162 15.8749C15.2643 16.0002 15.2376 16.1344 15.2376 16.27C15.2376 16.4056 15.2643 16.5398 15.3162 16.6651C15.3681 16.7903 15.4441 16.9041 15.54 17L17 18.36C17.0752 18.4952 17.1808 18.6112 17.3084 18.6987C17.436 18.7862 17.5822 18.8429 17.7355 18.8643C17.8887 18.8857 18.0448 18.8713 18.1916 18.8221C18.3383 18.773 18.4716 18.6904 18.581 18.581C18.6904 18.4716 18.773 18.3383 18.8221 18.1916C18.8713 18.0448 18.8857 17.8887 18.8643 17.7355C18.8429 17.5822 18.7862 17.436 18.6987 17.3084C18.6112 17.1808 18.4952 17.0752 18.36 17L17 15.54ZM12 8C11.2089 8 10.4355 8.2346 9.77772 8.67412C9.11992 9.11365 8.60723 9.73836 8.30448 10.4693C8.00173 11.2002 7.92252 12.0044 8.07686 12.7804C8.2312 13.5563 8.61216 14.269 9.17157 14.8284C9.73098 15.3878 10.4437 15.7688 11.2196 15.9231C11.9956 16.0775 12.7998 15.9983 13.5307 15.6955C14.2616 15.3928 14.8864 14.8801 15.3259 14.2223C15.7654 13.5645 16 12.7911 16 12C16 10.9391 15.5786 9.92172 14.8284 9.17157C14.0783 8.42143 13.0609 8 12 8ZM12 17C11.7348 17 11.4804 17.1054 11.2929 17.2929C11.1054 17.4804 11 17.7348 11 18V20C11 20.2652 11.1054 20.5196 11.2929 20.7071C11.4804 20.8946 11.7348 21 12 21C12.2652 21 12.5196 20.8946 12.7071 20.7071C12.8946 20.5196 13 20.2652 13 20V18C13 17.7348 12.8946 17.4804 12.7071 17.2929C12.5196 17.1054 12.2652 17 12 17ZM7.05 15.54L5.64 17C5.53532 17.0896 5.4503 17.2 5.39027 17.324C5.33025 17.4481 5.29652 17.5832 5.2912 17.7209C5.28588 17.8587 5.30909 17.996 5.35936 18.1243C5.40964 18.2526 5.48589 18.3692 5.58335 18.4667C5.6808 18.5641 5.79735 18.6404 5.92568 18.6906C6.054 18.7409 6.19133 18.7641 6.32905 18.7588C6.46677 18.7535 6.60191 18.7197 6.72597 18.6597C6.85003 18.5997 6.96035 18.5147 7.05 18.41L8.46 17C8.56468 16.9104 8.6497 16.8 8.70973 16.676C8.76975 16.5519 8.80348 16.4168 8.8088 16.2791C8.81412 16.1413 8.79091 16.004 8.74064 15.8757C8.69036 15.7474 8.6141 15.6308 8.51665 15.5333C8.4192 15.4359 8.30265 15.3596 8.17432 15.3094C8.046 15.2591 7.90867 15.2359 7.77095 15.2412C7.63323 15.2465 7.4981 15.2803 7.37403 15.3403C7.24997 15.4003 7.13965 15.4853 7.05 15.59V15.54Z" fill="currentColor"/>
  </symbol>
</svg>
