<!-- JioGames DLS — bus icons (3 icons) -->
<svg xmlns="http://www.w3.org/2000/svg" style="display:none">
  <symbol id="ic_bus_front" viewBox="0 0 24 24">
    <path d="M16 2H8C6.93913 2 5.92172 2.42143 5.17157 3.17157C4.42143 3.92172 4 4.93913 4 6V19C4 19.2652 4.10536 19.5196 4.29289 19.7071C4.48043 19.8946 4.73478 20 5 20V21C5 21.2652 5.10536 21.5196 5.29289 21.7071C5.48043 21.8946 5.73478 22 6 22C6.26522 22 6.51957 21.8946 6.70711 21.7071C6.89464 21.5196 7 21.2652 7 21V20H17V21C17 21.2652 17.1054 21.5196 17.2929 21.7071C17.4804 21.8946 17.7348 22 18 22C18.2652 22 18.5196 21.8946 18.7071 21.7071C18.8946 21.5196 19 21.2652 19 21V20C19.2652 20 19.5196 19.8946 19.7071 19.7071C19.8946 19.5196 20 19.2652 20 19V6C20 4.93913 19.5786 3.92172 18.8284 3.17157C18.0783 2.42143 17.0609 2 16 2ZM7 17C6.80222 17 6.60888 16.9414 6.44443 16.8315C6.27998 16.7216 6.15181 16.5654 6.07612 16.3827C6.00043 16.2 5.98063 15.9989 6.01921 15.8049C6.0578 15.6109 6.15304 15.4327 6.29289 15.2929C6.43275 15.153 6.61093 15.0578 6.80491 15.0192C6.99889 14.9806 7.19996 15.0004 7.38268 15.0761C7.56541 15.1518 7.72159 15.28 7.83147 15.4444C7.94135 15.6089 8 15.8022 8 16C8 16.2652 7.89464 16.5196 7.70711 16.7071C7.51957 16.8946 7.26522 17 7 17ZM17 17C16.8022 17 16.6089 16.9414 16.4444 16.8315C16.28 16.7216 16.1518 16.5654 16.0761 16.3827C16.0004 16.2 15.9806 15.9989 16.0192 15.8049C16.0578 15.6109 16.153 15.4327 16.2929 15.2929C16.4327 15.153 16.6109 15.0578 16.8049 15.0192C16.9989 14.9806 17.2 15.0004 17.3827 15.0761C17.5654 15.1518 17.7216 15.28 17.8315 15.4444C17.9414 15.6089 18 15.8022 18 16C18 16.2652 17.8946 16.5196 17.7071 16.7071C17.5196 16.8946 17.2652 17 17 17ZM18 12C18 12.2652 17.8946 12.5196 17.7071 12.7071C17.5196 12.8946 17.2652 13 17 13H7C6.73478 13 6.48043 12.8946 6.29289 12.7071C6.10536 12.5196 6 12.2652 6 12V7C6 6.73478 6.10536 6.48043 6.29289 6.29289C6.48043 6.10536 6.73478 6 7 6H17C17.2652 6 17.5196 6.10536 17.7071 6.29289C17.8946 6.48043 18 6.73478 18 7V12Z" fill="currentColor"/>
  </symbol>
  <symbol id="ic_bus_shuttle" viewBox="0 0 24 24">
    <path d="M3 18.0002C2.73478 18.0002 2.48043 18.1056 2.29289 18.2931C2.10536 18.4807 2 18.735 2 19.0002C2 19.2654 2.10536 19.5198 2.29289 19.7073C2.48043 19.8949 2.73478 20.0002 3 20.0002H21C21.2652 20.0002 21.5196 19.8949 21.7071 19.7073C21.8946 19.5198 22 19.2654 22 19.0002C22 18.735 21.8946 18.4807 21.7071 18.2931C21.5196 18.1056 21.2652 18.0002 21 18.0002H3ZM20.82 16.0002H21C21.2652 16.0002 21.5196 15.8949 21.7071 15.7073C21.8946 15.5198 22 15.2654 22 15.0002V12.3802C22.0024 12.0425 21.9586 11.7061 21.87 11.3802L20.47 6.00023C20.4743 5.96034 20.4743 5.92011 20.47 5.88023C20.2442 5.31912 19.8542 4.83934 19.3509 4.50385C18.8477 4.16835 18.2548 3.9928 17.65 4.00023H5C4.20435 4.00023 3.44129 4.3163 2.87868 4.87891C2.31607 5.44151 2 6.20458 2 7.00023V15.0002C2 15.2654 2.10536 15.5198 2.29289 15.7073C2.48043 15.8949 2.73478 16.0002 3 16.0002H3.18C3.3902 16.5794 3.77363 17.0798 4.27817 17.4334C4.7827 17.787 5.38388 17.9767 6 17.9767C6.61612 17.9767 7.2173 17.787 7.72183 17.4334C8.22637 17.0798 8.6098 16.5794 8.82 16.0002H15.18C15.3902 16.5794 15.7736 17.0798 16.2782 17.4334C16.7827 17.787 17.3839 17.9767 18 17.9767C18.6161 17.9767 19.2173 17.787 19.7218 17.4334C20.2264 17.0798 20.6098 16.5794 20.82 16.0002ZM6 16.0002C5.80222 16.0002 5.60888 15.9416 5.44443 15.8317C5.27998 15.7218 5.15181 15.5656 5.07612 15.3829C5.00043 15.2002 4.98063 14.9991 5.01921 14.8051C5.0578 14.6112 5.15304 14.433 5.29289 14.2931C5.43275 14.1533 5.61093 14.058 5.80491 14.0194C5.99889 13.9809 6.19996 14.0007 6.38268 14.0763C6.56541 14.152 6.72159 14.2802 6.83147 14.4447C6.94135 14.6091 7 14.8024 7 15.0002C7 15.2654 6.89464 15.5198 6.70711 15.7073C6.51957 15.8949 6.26522 16.0002 6 16.0002ZM8 9.00023H4V7.00023C4 6.73501 4.10536 6.48066 4.29289 6.29312C4.48043 6.10558 4.73478 6.00023 5 6.00023H8V9.00023ZM14 9.00023H10V6.00023H14V9.00023ZM18 16.0002C17.8022 16.0002 17.6089 15.9416 17.4444 15.8317C17.28 15.7218 17.1518 15.5656 17.0761 15.3829C17.0004 15.2002 16.9806 14.9991 17.0192 14.8051C17.0578 14.6112 17.153 14.433 17.2929 14.2931C17.4327 14.1533 17.6109 14.058 17.8049 14.0194C17.9989 13.9809 18.2 14.0007 18.3827 14.0763C18.5654 14.152 18.7216 14.2802 18.8315 14.4447C18.9414 14.6091 19 14.8024 19 15.0002C19 15.2654 18.8946 15.5198 18.7071 15.7073C18.5196 15.8949 18.2652 16.0002 18 16.0002ZM18 11.0002L16 9.00023V6.00023H17.65C17.8396 6.00165 18.0248 6.05694 18.1842 6.15963C18.3435 6.26232 18.4704 6.40818 18.55 6.58023L20 11.0002H18Z" fill="currentColor"/>
  </symbol>
  <symbol id="ic_bus_side" viewBox="0 0 24 24">
    <path d="M21.87 11.3802L20.47 6.00023C20.4743 5.96034 20.4743 5.92011 20.47 5.88023C20.2442 5.31912 19.8542 4.83934 19.3509 4.50385C18.8477 4.16835 18.2548 3.9928 17.65 4.00023H5C4.20435 4.00023 3.44129 4.3163 2.87868 4.87891C2.31607 5.44151 2 6.20458 2 7.00023V17.0002C2 17.2654 2.10536 17.5198 2.29289 17.7073C2.48043 17.8949 2.73478 18.0002 3 18.0002H3.18C3.3902 18.5794 3.77363 19.0798 4.27817 19.4334C4.7827 19.787 5.38388 19.9767 6 19.9767C6.61612 19.9767 7.2173 19.787 7.72183 19.4334C8.22637 19.0798 8.6098 18.5794 8.82 18.0002H15.18C15.3902 18.5794 15.7736 19.0798 16.2782 19.4334C16.7827 19.787 17.3839 19.9767 18 19.9767C18.6161 19.9767 19.2173 19.787 19.7218 19.4334C20.2264 19.0798 20.6098 18.5794 20.82 18.0002H21C21.2652 18.0002 21.5196 17.8949 21.7071 17.7073C21.8946 17.5198 22 17.2654 22 17.0002V12.3802C22.0024 12.0425 21.9586 11.7061 21.87 11.3802ZM6 18.0002C5.80222 18.0002 5.60888 17.9416 5.44443 17.8317C5.27998 17.7218 5.15181 17.5656 5.07612 17.3829C5.00043 17.2002 4.98063 16.9991 5.01921 16.8051C5.0578 16.6112 5.15304 16.433 5.29289 16.2931C5.43275 16.1533 5.61093 16.058 5.80491 16.0194C5.99889 15.9809 6.19996 16.0007 6.38268 16.0763C6.56541 16.152 6.72159 16.2802 6.83147 16.4447C6.94135 16.6091 7 16.8024 7 17.0002C7 17.2654 6.89464 17.5198 6.70711 17.7073C6.51957 17.8949 6.26522 18.0002 6 18.0002ZM8 10.0002H4V7.00023C4 6.73501 4.10536 6.48066 4.29289 6.29312C4.48043 6.10558 4.73478 6.00023 5 6.00023H8V10.0002ZM14 10.0002H10V6.00023H14V10.0002ZM18 18.0002C17.8022 18.0002 17.6089 17.9416 17.4444 17.8317C17.28 17.7218 17.1518 17.5656 17.0761 17.3829C17.0004 17.2002 16.9806 16.9991 17.0192 16.8051C17.0578 16.6112 17.153 16.433 17.2929 16.2931C17.4327 16.1533 17.6109 16.058 17.8049 16.0194C17.9989 15.9809 18.2 16.0007 18.3827 16.0763C18.5654 16.152 18.7216 16.2802 18.8315 16.4447C18.9414 16.6091 19 16.8024 19 17.0002C19 17.2654 18.8946 17.5198 18.7071 17.7073C18.5196 17.8949 18.2652 18.0002 18 18.0002ZM18 12.0002L16 10.0002V6.00023H17.65C17.8396 6.00165 18.0248 6.05694 18.1842 6.15963C18.3435 6.26232 18.4704 6.40818 18.55 6.58023L19.94 11.8802C19.94 11.8802 19.94 11.9602 19.94 12.0002H18Z" fill="currentColor"/>
  </symbol>
</svg>
