<!-- JioGames DLS — businessman icons (1 icons) -->
<svg xmlns="http://www.w3.org/2000/svg" style="display:none">
  <symbol id="ic_businessman" viewBox="0 0 24 24">
    <path d="M8.81 9.70003C9.36 10.25 10.04 10.64 10.78 10.85C11.55 11.07 12.37 11.07 13.14 10.87C13.91 10.67 14.62 10.26 15.19 9.70003C15.76 9.13003 16.16 8.43003 16.36 7.65003C16.56 6.88003 16.56 6.06003 16.34 5.29003C16.14 4.54003 15.74 3.86003 15.19 3.32003C14.64 2.77003 13.96 2.38003 13.22 2.17003C12.45 1.95003 11.63 1.95003 10.86 2.15003C10.09 2.35003 9.38 2.76003 8.81 3.32003C8.24 3.88003 7.84 4.59003 7.64 5.37003C7.44 6.14003 7.44 6.96003 7.66 7.73003C7.86 8.48003 8.26 9.16003 8.81 9.70003Z" fill="currentColor"/>
<path d="M15.7 12.91L13.24 18L12.51 14.16C14.16 12 12.35 12 12 12C11.62 12 9.84 12 11.49 14.16L10.76 18L8.3 12.91C5.74 14.25 4 16.92 4 20V20.03C4 21.12 4.88 22 5.97 22H18.03C19.12 22 20 21.12 20 20.03V20C20 16.92 18.25 14.24 15.7 12.91Z" fill="currentColor"/>
  </symbol>
</svg>
