<!-- JioGames DLS — data icons (9 icons) -->
<svg xmlns="http://www.w3.org/2000/svg" style="display:none">
  <symbol id="ic_data_card" viewBox="0 0 24 24">
    <path d="M19 5H5C4.20435 5 3.44129 5.31607 2.87868 5.87868C2.31607 6.44129 2 7.20435 2 8V16C2 16.7956 2.31607 17.5587 2.87868 18.1213C3.44129 18.6839 4.20435 19 5 19H19C19.7956 19 20.5587 18.6839 21.1213 18.1213C21.6839 17.5587 22 16.7956 22 16V8C22 7.20435 21.6839 6.44129 21.1213 5.87868C20.5587 5.31607 19.7956 5 19 5ZM14 15C14 15.2652 13.8946 15.5196 13.7071 15.7071C13.5196 15.8946 13.2652 16 13 16C12.7348 16 12.4804 15.8946 12.2929 15.7071C12.1054 15.5196 12 15.2652 12 15V11.41L11.71 11.71C11.5217 11.8983 11.2663 12.0041 11 12.0041C10.7337 12.0041 10.4783 11.8983 10.29 11.71C10.1017 11.5217 9.99591 11.2663 9.99591 11C9.99591 10.7337 10.1017 10.4783 10.29 10.29L12.29 8.29C12.4306 8.15124 12.6092 8.05725 12.8032 8.01987C12.9972 7.9825 13.1979 8.00342 13.38 8.08C13.5626 8.15502 13.7189 8.28242 13.8293 8.44614C13.9396 8.60986 13.999 8.80257 14 9V15ZM19.71 13.71L17.71 15.71C17.6166 15.8027 17.5057 15.876 17.3839 15.9258C17.2621 15.9755 17.1316 16.0008 17 16C16.8688 16.0034 16.7387 15.976 16.62 15.92C16.4374 15.845 16.2811 15.7176 16.1707 15.5539C16.0604 15.3901 16.001 15.1974 16 15V9C16 8.73478 16.1054 8.48043 16.2929 8.29289C16.4804 8.10536 16.7348 8 17 8C17.2652 8 17.5196 8.10536 17.7071 8.29289C17.8946 8.48043 18 8.73478 18 9V12.59L18.29 12.29C18.4783 12.1017 18.7337 11.9959 19 11.9959C19.2663 11.9959 19.5217 12.1017 19.71 12.29C19.8983 12.4783 20.0041 12.7337 20.0041 13C20.0041 13.2663 19.8983 13.5217 19.71 13.71Z" fill="currentColor"/>
  </symbol>
  <symbol id="ic_data_circle" viewBox="0 0 24 24">
    <path d="M12 2C10.0222 2 8.08879 2.58649 6.4443 3.6853C4.79981 4.78412 3.51809 6.3459 2.76121 8.17317C2.00433 10.0004 1.8063 12.0111 2.19215 13.9509C2.578 15.8907 3.53041 17.6725 4.92894 19.0711C6.32746 20.4696 8.10929 21.422 10.0491 21.8079C11.9889 22.1937 13.9996 21.9957 15.8268 21.2388C17.6541 20.4819 19.2159 19.2002 20.3147 17.5557C21.4135 15.9112 22 13.9778 22 12C22 10.6868 21.7413 9.38642 21.2388 8.17317C20.7363 6.95991 19.9997 5.85752 19.0711 4.92893C18.1425 4.00035 17.0401 3.26375 15.8268 2.7612C14.6136 2.25866 13.3132 2 12 2ZM11 15.75C11 16.0152 10.8946 16.2696 10.7071 16.4571C10.5196 16.6446 10.2652 16.75 10 16.75C9.73479 16.75 9.48043 16.6446 9.2929 16.4571C9.10536 16.2696 9 16.0152 9 15.75V11.1L7.78 12.62C7.70335 12.7353 7.60358 12.8335 7.48701 12.9082C7.37045 12.983 7.23963 13.0327 7.10284 13.0542C6.96605 13.0758 6.82628 13.0687 6.69238 13.0334C6.55848 12.9981 6.43336 12.9354 6.32496 12.8492C6.21656 12.7631 6.12724 12.6553 6.06265 12.5329C5.99806 12.4104 5.95961 12.2758 5.94975 12.1377C5.93988 11.9996 5.95881 11.8609 6.00533 11.7305C6.05185 11.6 6.12495 11.4807 6.22 11.38L9.22 7.62C9.34983 7.45818 9.52676 7.34074 9.7263 7.28396C9.92584 7.22717 10.1381 7.23385 10.3337 7.30307C10.5292 7.37229 10.6984 7.50062 10.8178 7.67028C10.9372 7.83995 11.0009 8.04254 11 8.25V15.75ZM17.78 12.62L14.78 16.38C14.6859 16.496 14.567 16.5895 14.432 16.6535C14.297 16.7175 14.1494 16.7505 14 16.75C13.8874 16.7487 13.7758 16.7284 13.67 16.69C13.4749 16.6218 13.3057 16.4948 13.1857 16.3264C13.0657 16.1581 13.0008 15.9567 13 15.75V8.25C13 7.98478 13.1054 7.73043 13.2929 7.54289C13.4804 7.35536 13.7348 7.25 14 7.25C14.2652 7.25 14.5196 7.35536 14.7071 7.54289C14.8946 7.73043 15 7.98478 15 8.25V12.9L16.22 11.38C16.392 11.1978 16.6261 11.0868 16.876 11.069C17.1258 11.0511 17.3733 11.1277 17.5694 11.2836C17.7656 11.4395 17.896 11.6633 17.935 11.9108C17.974 12.1583 17.9187 12.4114 17.78 12.62Z" fill="currentColor"/>
  </symbol>
  <symbol id="ic_data_in" viewBox="0 0 24 24">
    <path opacity="0.2" d="M10.2899 14.2899L7.99994 16.5899V5.99994C7.99994 5.73472 7.89458 5.48037 7.70705 5.29283C7.51951 5.1053 7.26516 4.99994 6.99994 4.99994C6.73472 4.99994 6.48037 5.1053 6.29283 5.29283C6.1053 5.48037 5.99994 5.73472 5.99994 5.99994V16.5899L3.70994 14.2899C3.52164 14.1016 3.26624 13.9958 2.99994 13.9958C2.73364 13.9958 2.47824 14.1016 2.28994 14.2899C2.10164 14.4782 1.99585 14.7336 1.99585 14.9999C1.99585 15.2662 2.10164 15.5216 2.28994 15.7099L6.28994 19.7099C6.3829 19.8037 6.49351 19.8781 6.61536 19.9288C6.73722 19.9796 6.86793 20.0057 6.99994 20.0057C7.13195 20.0057 7.26266 19.9796 7.38452 19.9288C7.50638 19.8781 7.61698 19.8037 7.70994 19.7099L11.7099 15.7099C11.8037 15.617 11.8781 15.5064 11.9288 15.3845C11.9796 15.2627 12.0057 15.132 12.0057 14.9999C12.0057 14.8679 11.9796 14.7372 11.9288 14.6154C11.8781 14.4935 11.8037 14.3829 11.7099 14.2899C11.617 14.1962 11.5064 14.1218 11.3845 14.071C11.2627 14.0203 11.132 13.9941 10.9999 13.9941C10.8679 13.9941 10.7372 14.0203 10.6154 14.071C10.4935 14.1218 10.3829 14.1962 10.2899 14.2899ZM21.7099 8.28994L17.7099 4.28994C17.617 4.19621 17.5064 4.12182 17.3845 4.07105C17.2627 4.02028 17.132 3.99414 16.9999 3.99414C16.8679 3.99414 16.7372 4.02028 16.6154 4.07105C16.4935 4.12182 16.3829 4.19621 16.2899 4.28994L12.2899 8.28994C12.1962 8.3829 12.1218 8.4935 12.071 8.61536C12.0203 8.73722 11.9941 8.86793 11.9941 8.99994C11.9941 9.13195 12.0203 9.26266 12.071 9.38452C12.1218 9.50637 12.1962 9.61698 12.2899 9.70994C12.3829 9.80367 12.4935 9.87806 12.6154 9.92883C12.7372 9.9796 12.8679 10.0057 12.9999 10.0057C13.132 10.0057 13.2627 9.9796 13.3845 9.92883C13.5064 9.87806 13.617 9.80367 13.7099 9.70994L15.9999 7.40994V17.9999C15.9999 18.2652 16.1053 18.5195 16.2928 18.707C16.4804 18.8946 16.7347 18.9999 16.9999 18.9999C17.2652 18.9999 17.5195 18.8946 17.707 18.707C17.8946 18.5195 17.9999 18.2652 17.9999 17.9999V7.40994L20.2899 9.70994C20.4782 9.89824 20.7336 10.004 20.9999 10.004C21.2662 10.004 21.5216 9.89824 21.7099 9.70994C21.8982 9.52164 22.004 9.26624 22.004 8.99994C22.004 8.73364 21.8982 8.47824 21.7099 8.28994Z" fill="currentColor"/>
<path d="M11.7099 14.29C11.617 14.1963 11.5064 14.1219 11.3845 14.0711C11.2627 14.0203 11.132 13.9942 10.9999 13.9942C10.8679 13.9942 10.7372 14.0203 10.6154 14.0711C10.4935 14.1219 10.3829 14.1963 10.2899 14.29L7.99994 16.59V6C7.99994 5.73478 7.89458 5.48043 7.70705 5.29289C7.51951 5.10536 7.26516 5 6.99994 5C6.73472 5 6.48037 5.10536 6.29283 5.29289C6.1053 5.48043 5.99994 5.73478 5.99994 6V16.59L3.70994 14.29C3.52164 14.1017 3.26624 13.9959 2.99994 13.9959C2.73364 13.9959 2.47824 14.1017 2.28994 14.29C2.10164 14.4783 1.99585 14.7337 1.99585 15C1.99585 15.2663 2.10164 15.5217 2.28994 15.71L6.28994 19.71C6.3829 19.8037 6.49351 19.8781 6.61536 19.9289C6.73722 19.9797 6.86793 20.0058 6.99994 20.0058C7.13195 20.0058 7.26266 19.9797 7.38452 19.9289C7.50638 19.8781 7.61698 19.8037 7.70994 19.71L11.7099 15.71C11.8037 15.617 11.8781 15.5064 11.9288 15.3846C11.9796 15.2627 12.0057 15.132 12.0057 15C12.0057 14.868 11.9796 14.7373 11.9288 14.6154C11.8781 14.4936 11.8037 14.383 11.7099 14.29Z" fill="currentColor"/>
  </symbol>
  <symbol id="ic_data_in_out" viewBox="0 0 24 24">
    <path d="M10.2899 14.2899L7.99994 16.5899V5.99994C7.99994 5.73472 7.89458 5.48037 7.70705 5.29283C7.51951 5.1053 7.26516 4.99994 6.99994 4.99994C6.73472 4.99994 6.48037 5.1053 6.29283 5.29283C6.1053 5.48037 5.99994 5.73472 5.99994 5.99994V16.5899L3.70994 14.2899C3.52164 14.1016 3.26624 13.9958 2.99994 13.9958C2.73364 13.9958 2.47824 14.1016 2.28994 14.2899C2.10164 14.4782 1.99585 14.7336 1.99585 14.9999C1.99585 15.2662 2.10164 15.5216 2.28994 15.7099L6.28994 19.7099C6.3829 19.8037 6.49351 19.8781 6.61536 19.9288C6.73722 19.9796 6.86793 20.0057 6.99994 20.0057C7.13195 20.0057 7.26266 19.9796 7.38452 19.9288C7.50638 19.8781 7.61698 19.8037 7.70994 19.7099L11.7099 15.7099C11.8037 15.617 11.8781 15.5064 11.9288 15.3845C11.9796 15.2627 12.0057 15.132 12.0057 14.9999C12.0057 14.8679 11.9796 14.7372 11.9288 14.6154C11.8781 14.4935 11.8037 14.3829 11.7099 14.2899C11.617 14.1962 11.5064 14.1218 11.3845 14.071C11.2627 14.0203 11.132 13.9941 10.9999 13.9941C10.8679 13.9941 10.7372 14.0203 10.6154 14.071C10.4935 14.1218 10.3829 14.1962 10.2899 14.2899ZM21.7099 8.28994L17.7099 4.28994C17.617 4.19621 17.5064 4.12182 17.3845 4.07105C17.2627 4.02028 17.132 3.99414 16.9999 3.99414C16.8679 3.99414 16.7372 4.02028 16.6154 4.07105C16.4935 4.12182 16.3829 4.19621 16.2899 4.28994L12.2899 8.28994C12.1962 8.3829 12.1218 8.4935 12.071 8.61536C12.0203 8.73722 11.9941 8.86793 11.9941 8.99994C11.9941 9.13195 12.0203 9.26266 12.071 9.38452C12.1218 9.50637 12.1962 9.61698 12.2899 9.70994C12.3829 9.80367 12.4935 9.87806 12.6154 9.92883C12.7372 9.9796 12.8679 10.0057 12.9999 10.0057C13.132 10.0057 13.2627 9.9796 13.3845 9.92883C13.5064 9.87806 13.617 9.80367 13.7099 9.70994L15.9999 7.40994V17.9999C15.9999 18.2652 16.1053 18.5195 16.2928 18.707C16.4804 18.8946 16.7347 18.9999 16.9999 18.9999C17.2652 18.9999 17.5195 18.8946 17.707 18.707C17.8946 18.5195 17.9999 18.2652 17.9999 17.9999V7.40994L20.2899 9.70994C20.4782 9.89824 20.7336 10.004 20.9999 10.004C21.2662 10.004 21.5216 9.89824 21.7099 9.70994C21.8982 9.52164 22.004 9.26624 22.004 8.99994C22.004 8.73364 21.8982 8.47824 21.7099 8.28994Z" fill="currentColor"/>
  </symbol>
  <symbol id="ic_data_in_out_none" viewBox="0 0 24 24">
    <path opacity="0.2" d="M10.2899 14.2899L7.99994 16.5899V5.99994C7.99994 5.73472 7.89458 5.48037 7.70705 5.29283C7.51951 5.1053 7.26516 4.99994 6.99994 4.99994C6.73472 4.99994 6.48037 5.1053 6.29283 5.29283C6.1053 5.48037 5.99994 5.73472 5.99994 5.99994V16.5899L3.70994 14.2899C3.52164 14.1016 3.26624 13.9958 2.99994 13.9958C2.73364 13.9958 2.47824 14.1016 2.28994 14.2899C2.10164 14.4782 1.99585 14.7336 1.99585 14.9999C1.99585 15.2662 2.10164 15.5216 2.28994 15.7099L6.28994 19.7099C6.3829 19.8037 6.49351 19.8781 6.61536 19.9288C6.73722 19.9796 6.86793 20.0057 6.99994 20.0057C7.13195 20.0057 7.26266 19.9796 7.38452 19.9288C7.50638 19.8781 7.61698 19.8037 7.70994 19.7099L11.7099 15.7099C11.8037 15.617 11.8781 15.5064 11.9288 15.3845C11.9796 15.2627 12.0057 15.132 12.0057 14.9999C12.0057 14.8679 11.9796 14.7372 11.9288 14.6154C11.8781 14.4935 11.8037 14.3829 11.7099 14.2899C11.617 14.1962 11.5064 14.1218 11.3845 14.071C11.2627 14.0203 11.132 13.9941 10.9999 13.9941C10.8679 13.9941 10.7372 14.0203 10.6154 14.071C10.4935 14.1218 10.3829 14.1962 10.2899 14.2899ZM21.7099 8.28994L17.7099 4.28994C17.617 4.19621 17.5064 4.12182 17.3845 4.07105C17.2627 4.02028 17.132 3.99414 16.9999 3.99414C16.8679 3.99414 16.7372 4.02028 16.6154 4.07105C16.4935 4.12182 16.3829 4.19621 16.2899 4.28994L12.2899 8.28994C12.1962 8.3829 12.1218 8.4935 12.071 8.61536C12.0203 8.73722 11.9941 8.86793 11.9941 8.99994C11.9941 9.13195 12.0203 9.26266 12.071 9.38452C12.1218 9.50637 12.1962 9.61698 12.2899 9.70994C12.3829 9.80367 12.4935 9.87806 12.6154 9.92883C12.7372 9.9796 12.8679 10.0057 12.9999 10.0057C13.132 10.0057 13.2627 9.9796 13.3845 9.92883C13.5064 9.87806 13.617 9.80367 13.7099 9.70994L15.9999 7.40994V17.9999C15.9999 18.2652 16.1053 18.5195 16.2928 18.707C16.4804 18.8946 16.7347 18.9999 16.9999 18.9999C17.2652 18.9999 17.5195 18.8946 17.707 18.707C17.8946 18.5195 17.9999 18.2652 17.9999 17.9999V7.40994L20.2899 9.70994C20.4782 9.89824 20.7336 10.004 20.9999 10.004C21.2662 10.004 21.5216 9.89824 21.7099 9.70994C21.8982 9.52164 22.004 9.26624 22.004 8.99994C22.004 8.73364 21.8982 8.47824 21.7099 8.28994Z" fill="currentColor"/>
  </symbol>
  <symbol id="ic_data_loan" viewBox="0 0 24 24">
    <path d="M7.71 7.71L9 6.41V12C9 12.2652 9.10536 12.5196 9.29289 12.7071C9.48043 12.8946 9.73478 13 10 13C10.2652 13 10.5196 12.8946 10.7071 12.7071C10.8946 12.5196 11 12.2652 11 12V4C10.999 3.80257 10.9396 3.60986 10.8293 3.44614C10.7189 3.28242 10.5626 3.15502 10.38 3.08C10.1979 3.00342 9.99718 2.9825 9.80319 3.01987C9.6092 3.05725 9.43062 3.15124 9.29 3.29L6.29 6.29C6.1017 6.4783 5.99591 6.7337 5.99591 7C5.99591 7.2663 6.1017 7.5217 6.29 7.71C6.4783 7.8983 6.7337 8.00409 7 8.00409C7.2663 8.00409 7.5217 7.8983 7.71 7.71ZM13.62 12.92C13.7387 12.976 13.8688 13.0034 14 13C14.1316 13.0008 14.2621 12.9755 14.3839 12.9258C14.5057 12.876 14.6166 12.8027 14.71 12.71L17.71 9.71C17.8032 9.61676 17.8772 9.50607 17.9277 9.38425C17.9781 9.26243 18.0041 9.13186 18.0041 9C18.0041 8.86814 17.9781 8.73757 17.9277 8.61575C17.8772 8.49393 17.8032 8.38324 17.71 8.29C17.6168 8.19676 17.5061 8.1228 17.3842 8.07234C17.2624 8.02188 17.1319 7.99591 17 7.99591C16.8681 7.99591 16.7376 8.02188 16.6158 8.07234C16.4939 8.1228 16.3832 8.19676 16.29 8.29L15 9.59V4C15 3.73478 14.8946 3.48043 14.7071 3.29289C14.5196 3.10536 14.2652 3 14 3C13.7348 3 13.4804 3.10536 13.2929 3.29289C13.1054 3.48043 13 3.73478 13 4V12C13.001 12.1974 13.0604 12.3901 13.1707 12.5539C13.2811 12.7176 13.4374 12.845 13.62 12.92ZM20.69 16.06C20.5026 15.8737 20.2492 15.7692 19.985 15.7692C19.7208 15.7692 19.4674 15.8737 19.28 16.06L17.11 18.34C16.9229 18.5362 16.698 18.6924 16.4487 18.7989C16.1994 18.9055 15.9311 18.9603 15.66 18.96H12C11.7348 18.96 11.4804 18.8546 11.2929 18.6671C11.1054 18.4796 11 18.2252 11 17.96C11 17.6948 11.1054 17.4404 11.2929 17.2529C11.4804 17.0654 11.7348 16.96 12 16.96H13.66C13.9252 16.96 14.1796 16.8546 14.3671 16.6671C14.5546 16.4796 14.66 16.2252 14.66 15.96C14.66 15.6948 14.5546 15.4404 14.3671 15.2529C14.1796 15.0654 13.9252 14.96 13.66 14.96H8C7.46957 14.96 6.96086 15.1707 6.58579 15.5458C6.21071 15.9209 6 16.4296 6 16.96H4C3.73478 16.96 3.48043 17.0654 3.29289 17.2529C3.10536 17.4404 3 17.6948 3 17.96V19.96C3 20.2252 3.10536 20.4796 3.29289 20.6671C3.48043 20.8546 3.73478 20.96 4 20.96H15.66C16.2005 20.9593 16.7353 20.849 17.232 20.6359C17.7287 20.4228 18.1771 20.1112 18.55 19.72L20.72 17.44C20.8933 17.2502 20.9869 17.001 20.9813 16.744C20.9757 16.487 20.8714 16.2421 20.69 16.06Z" fill="currentColor"/>
  </symbol>
  <symbol id="ic_data_out" viewBox="0 0 24 24">
    <path d="M21.7099 8.28994L17.7099 4.28994C17.617 4.19621 17.5064 4.12182 17.3845 4.07105C17.2627 4.02028 17.132 3.99414 16.9999 3.99414C16.8679 3.99414 16.7372 4.02028 16.6154 4.07105C16.4935 4.12182 16.3829 4.19621 16.2899 4.28994L12.2899 8.28994C12.1962 8.3829 12.1218 8.4935 12.071 8.61536C12.0203 8.73722 11.9941 8.86793 11.9941 8.99994C11.9941 9.13195 12.0203 9.26266 12.071 9.38452C12.1218 9.50637 12.1962 9.61698 12.2899 9.70994C12.3829 9.80367 12.4935 9.87806 12.6154 9.92883C12.7372 9.9796 12.8679 10.0057 12.9999 10.0057C13.132 10.0057 13.2627 9.9796 13.3845 9.92883C13.5064 9.87806 13.617 9.80367 13.7099 9.70994L15.9999 7.40994V17.9999C15.9999 18.2652 16.1053 18.5195 16.2928 18.707C16.4804 18.8946 16.7347 18.9999 16.9999 18.9999C17.2652 18.9999 17.5195 18.8946 17.707 18.707C17.8946 18.5195 17.9999 18.2652 17.9999 17.9999V7.40994L20.2899 9.70994C20.4782 9.89824 20.7336 10.004 20.9999 10.004C21.2662 10.004 21.5216 9.89824 21.7099 9.70994C21.8982 9.52164 22.004 9.26624 22.004 8.99994C22.004 8.73364 21.8982 8.47824 21.7099 8.28994Z" fill="currentColor"/>
<path opacity="0.2" d="M10.2899 14.2899L7.99994 16.5899V5.99994C7.99994 5.73472 7.89458 5.48037 7.70705 5.29283C7.51951 5.1053 7.26516 4.99994 6.99994 4.99994C6.73472 4.99994 6.48037 5.1053 6.29283 5.29283C6.1053 5.48037 5.99994 5.73472 5.99994 5.99994V16.5899L3.70994 14.2899C3.52164 14.1016 3.26624 13.9958 2.99994 13.9958C2.73364 13.9958 2.47824 14.1016 2.28994 14.2899C2.10164 14.4782 1.99585 14.7336 1.99585 14.9999C1.99585 15.2662 2.10164 15.5216 2.28994 15.7099L6.28994 19.7099C6.3829 19.8037 6.49351 19.8781 6.61536 19.9288C6.73722 19.9796 6.86793 20.0057 6.99994 20.0057C7.13195 20.0057 7.26266 19.9796 7.38452 19.9288C7.50638 19.8781 7.61698 19.8037 7.70994 19.7099L11.7099 15.7099C11.8037 15.617 11.8781 15.5064 11.9288 15.3845C11.9796 15.2627 12.0057 15.132 12.0057 14.9999C12.0057 14.8679 11.9796 14.7372 11.9288 14.6154C11.8781 14.4935 11.8037 14.3829 11.7099 14.2899C11.617 14.1962 11.5064 14.1218 11.3845 14.071C11.2627 14.0203 11.132 13.9941 10.9999 13.9941C10.8679 13.9941 10.7372 14.0203 10.6154 14.071C10.4935 14.1218 10.3829 14.1962 10.2899 14.2899ZM21.7099 8.28994L17.7099 4.28994C17.617 4.19621 17.5064 4.12182 17.3845 4.07105C17.2627 4.02028 17.132 3.99414 16.9999 3.99414C16.8679 3.99414 16.7372 4.02028 16.6154 4.07105C16.4935 4.12182 16.3829 4.19621 16.2899 4.28994L12.2899 8.28994C12.1962 8.3829 12.1218 8.4935 12.071 8.61536C12.0203 8.73722 11.9941 8.86793 11.9941 8.99994C11.9941 9.13195 12.0203 9.26266 12.071 9.38452C12.1218 9.50637 12.1962 9.61698 12.2899 9.70994C12.3829 9.80367 12.4935 9.87806 12.6154 9.92883C12.7372 9.9796 12.8679 10.0057 12.9999 10.0057C13.132 10.0057 13.2627 9.9796 13.3845 9.92883C13.5064 9.87806 13.617 9.80367 13.7099 9.70994L15.9999 7.40994V17.9999C15.9999 18.2652 16.1053 18.5195 16.2928 18.707C16.4804 18.8946 16.7347 18.9999 16.9999 18.9999C17.2652 18.9999 17.5195 18.8946 17.707 18.707C17.8946 18.5195 17.9999 18.2652 17.9999 17.9999V7.40994L20.2899 9.70994C20.4782 9.89824 20.7336 10.004 20.9999 10.004C21.2662 10.004 21.5216 9.89824 21.7099 9.70994C21.8982 9.52164 22.004 9.26624 22.004 8.99994C22.004 8.73364 21.8982 8.47824 21.7099 8.28994Z" fill="currentColor"/>
  </symbol>
  <symbol id="ic_data_pack" viewBox="0 0 24 24">
    <path d="M18 3H6C5.20435 3 4.44129 3.31607 3.87868 3.87868C3.31607 4.44129 3 5.20435 3 6V18C3 18.7956 3.31607 19.5587 3.87868 20.1213C4.44129 20.6839 5.20435 21 6 21H18C18.7956 21 19.5587 20.6839 20.1213 20.1213C20.6839 19.5587 21 18.7956 21 18V6C21 5.20435 20.6839 4.44129 20.1213 3.87868C19.5587 3.31607 18.7956 3 18 3ZM11 15.75C11 16.0152 10.8946 16.2696 10.7071 16.4571C10.5196 16.6446 10.2652 16.75 10 16.75C9.73478 16.75 9.48043 16.6446 9.29289 16.4571C9.10536 16.2696 9 16.0152 9 15.75V11.1L7.78 12.62C7.70334 12.7353 7.60357 12.8335 7.48701 12.9082C7.37044 12.983 7.23962 13.0327 7.10284 13.0542C6.96605 13.0758 6.82628 13.0687 6.69237 13.0334C6.55847 12.9981 6.43336 12.9354 6.32496 12.8492C6.21656 12.7631 6.12723 12.6553 6.06264 12.5329C5.99805 12.4104 5.95961 12.2758 5.94974 12.1377C5.93988 11.9996 5.9588 11.8609 6.00532 11.7305C6.05185 11.6 6.12495 11.4807 6.22 11.38L9.22 7.62C9.34982 7.45818 9.52676 7.34074 9.72629 7.28396C9.92583 7.22717 10.1381 7.23385 10.3337 7.30307C10.5292 7.37229 10.6984 7.50062 10.8178 7.67028C10.9372 7.83995 11.0009 8.04254 11 8.25V15.75ZM17.78 12.62L14.78 16.38C14.6859 16.496 14.567 16.5895 14.432 16.6535C14.297 16.7175 14.1494 16.7505 14 16.75C13.8874 16.7487 13.7758 16.7284 13.67 16.69C13.4749 16.6218 13.3057 16.4948 13.1857 16.3264C13.0657 16.1581 13.0008 15.9567 13 15.75V8.25C13 7.98478 13.1054 7.73043 13.2929 7.54289C13.4804 7.35536 13.7348 7.25 14 7.25C14.2652 7.25 14.5196 7.35536 14.7071 7.54289C14.8946 7.73043 15 7.98478 15 8.25V12.9L16.22 11.38C16.392 11.1978 16.6261 11.0868 16.8759 11.069C17.1258 11.0511 17.3733 11.1277 17.5694 11.2836C17.7656 11.4395 17.896 11.6633 17.935 11.9108C17.974 12.1583 17.9187 12.4114 17.78 12.62Z" fill="currentColor"/>
  </symbol>
  <symbol id="ic_data_saver" viewBox="0 0 24 24">
    <path d="M21.7401 18.01L13.7401 4.01C13.3801 3.39 12.7201 3 12.0001 3C11.2801 3 10.6201 3.38 10.2601 4.01L2.26006 18.01C1.91006 18.63 1.91006 19.39 2.26006 20.01C2.62006 20.63 3.28006 21.01 3.99006 21.01H20.0001C20.7101 21.01 21.3701 20.63 21.7301 20.01C22.0901 19.39 22.0901 18.63 21.7301 18.01H21.7401ZM11.0001 16C11.0001 16.55 10.5501 17 10.0001 17C9.45006 17 9.00006 16.55 9.00006 16V13.41L8.71006 13.7C8.32006 14.09 7.69006 14.09 7.30006 13.7C6.91006 13.31 6.91006 12.68 7.30006 12.29L9.30006 10.29C9.59006 10 10.0201 9.92 10.3901 10.07C10.7601 10.22 11.0101 10.59 11.0101 10.99V15.99L11.0001 16ZM16.7101 14.71L14.7101 16.71C14.5201 16.9 14.2601 17 14.0001 17C13.8701 17 13.7401 16.98 13.6201 16.92C13.2501 16.77 13.0001 16.4 13.0001 16V11C13.0001 10.45 13.4501 10 14.0001 10C14.5501 10 15.0001 10.45 15.0001 11V13.59L15.2901 13.3C15.6801 12.91 16.3101 12.91 16.7001 13.3C17.0901 13.69 17.0901 14.32 16.7001 14.71H16.7101Z" fill="currentColor"/>
  </symbol>
</svg>
