<!-- JioGames DLS — distribute icons (2 icons) -->
<svg xmlns="http://www.w3.org/2000/svg" style="display:none">
  <symbol id="ic_distribute_horizontal_spacing" viewBox="0 0 24 24">
    <path d="M20 3C19.45 3 19 3.45 19 4V20C19 20.55 19.45 21 20 21C20.55 21 21 20.55 21 20V4C21 3.45 20.55 3 20 3ZM4 3.5C3.45 3.5 3 3.95 3 4.5V19.5C3 20.05 3.45 20.5 4 20.5C4.55 20.5 5 20.05 5 19.5V4.5C5 3.95 4.55 3.5 4 3.5ZM14 5H10C8.34 5 7 6.34 7 8V16C7 17.66 8.34 19 10 19H14C15.66 19 17 17.66 17 16V8C17 6.34 15.66 5 14 5Z" fill="currentColor"/>
  </symbol>
  <symbol id="ic_distribute_vertical_spacing" viewBox="0 0 24 24">
    <path d="M20 3H4C3.45 3 3 3.45 3 4C3 4.55 3.45 5 4 5H20C20.55 5 21 4.55 21 4C21 3.45 20.55 3 20 3ZM19.5 19H4.5C3.95 19 3.5 19.45 3.5 20C3.5 20.55 3.95 21 4.5 21H19.5C20.05 21 20.5 20.55 20.5 20C20.5 19.45 20.05 19 19.5 19ZM16 17C17.66 17 19 15.66 19 14V10C19 8.34 17.66 7 16 7H8C6.34 7 5 8.34 5 10V14C5 15.66 6.34 17 8 17H16Z" fill="currentColor"/>
  </symbol>
</svg>
