<!-- JioGames DLS — document icons (15 icons) -->
<svg xmlns="http://www.w3.org/2000/svg" style="display:none">
  <symbol id="ic_document" viewBox="0 0 24 24">
    <path d="M13 6V2H7.5C6.83696 2 6.20107 2.26339 5.73223 2.73223C5.26339 3.20107 5 3.83696 5 4.5V19.5C5 20.163 5.26339 20.7989 5.73223 21.2678C6.20107 21.7366 6.83696 22 7.5 22H17.5C18.163 22 18.7989 21.7366 19.2678 21.2678C19.7366 20.7989 20 20.163 20 19.5V9H16C15.2044 9 14.4413 8.68393 13.8787 8.12132C13.3161 7.55871 13 6.79565 13 6ZM16 7H20C19.9978 6.47042 19.7856 5.96335 19.41 5.59L16.41 2.59C16.0366 2.21441 15.5296 2.00223 15 2V6C15 6.26522 15.1054 6.51957 15.2929 6.70711C15.4804 6.89464 15.7348 7 16 7Z" fill="currentColor"/>
  </symbol>
  <symbol id="ic_document_doc" viewBox="0 0 24 24">
    <path d="M8.86 15.53H8.32C8.32 15.53 8.26 15.54 8.26 15.59V17.89C8.26 17.89 8.27 17.95 8.32 17.95H8.86C9.05 17.95 9.24 17.88 9.35 17.71C9.45 17.54 9.46 17.15 9.46 16.74C9.46 16.33 9.46 15.95 9.35 15.77C9.25 15.6 9.06 15.53 8.86 15.53Z" fill="currentColor"/>
<path d="M12.76 15.5C12.56 15.5 12.38 15.58 12.27 15.77C12.17 15.95 12.16 16.33 12.16 16.74C12.16 17.15 12.17 17.53 12.27 17.71C12.37 17.9 12.56 17.98 12.76 17.98C12.96 17.98 13.14 17.9 13.25 17.71C13.35 17.54 13.36 17.15 13.36 16.74C13.36 16.33 13.35 15.95 13.25 15.77C13.15 15.58 12.96 15.5 12.76 15.5Z" fill="currentColor"/>
<path d="M19.27 2.73C18.8 2.26 18.17 2 17.5 2H10C9.47 2 8.96 2.21 8.59 2.59L5.59 5.59C5.21 5.96 5 6.47 5 7V19.5C5 20.16 5.26 20.8 5.73 21.27C6.2 21.74 6.83 22 7.5 22H17.5C18.16 22 18.8 21.74 19.27 21.27C19.74 20.8 20 20.17 20 19.5V4.5C20 3.84 19.74 3.2 19.27 2.73ZM10.27 18.45C9.91 18.89 9.42 19 8.9 19H7.67C7.4 19 7.15 18.88 7.15 18.51V14.97C7.15 14.6 7.4 14.47 7.67 14.47H8.9C9.42 14.47 9.91 14.58 10.27 15.02C10.54 15.35 10.6 15.94 10.6 16.73C10.6 17.52 10.54 18.12 10.27 18.45ZM14.17 18.45C13.81 18.91 13.28 19.03 12.76 19.03C12.24 19.03 11.71 18.91 11.35 18.45C11.08 18.11 11.02 17.53 11.02 16.74C11.02 15.95 11.08 15.37 11.35 15.03C11.71 14.57 12.24 14.45 12.76 14.45C13.28 14.45 13.81 14.57 14.17 15.03C14.44 15.37 14.5 15.95 14.5 16.74C14.5 17.53 14.44 18.11 14.17 18.45ZM17.99 18.45C17.83 18.65 17.37 19.02 16.62 19.02C16.18 19.02 15.59 18.89 15.25 18.44C14.98 18.08 14.92 17.48 14.92 16.73C14.92 15.98 14.97 15.36 15.25 15.02C15.61 14.56 16.13 14.44 16.62 14.44C17.07 14.44 17.47 14.56 17.78 14.82C17.92 14.94 18.03 15.05 18.03 15.27C18.03 15.52 17.76 15.82 17.5 15.82C17.38 15.82 17.29 15.8 17.22 15.74C17 15.54 16.87 15.5 16.64 15.5C16.46 15.5 16.26 15.58 16.16 15.77C16.06 15.97 16.05 16.29 16.05 16.74C16.05 17.19 16.05 17.51 16.16 17.71C16.26 17.91 16.44 17.98 16.64 17.98C16.81 17.98 17.04 17.9 17.25 17.69C17.34 17.6 17.44 17.53 17.58 17.53C17.84 17.53 18.13 17.85 18.13 18.08C18.13 18.26 18.08 18.34 17.99 18.45Z" fill="currentColor"/>
  </symbol>
  <symbol id="ic_document_jpg" viewBox="0 0 24 24">
    <path d="M12.4 15.54H11.74C11.74 15.54 11.68 15.55 11.68 15.6V16.38C11.68 16.38 11.69 16.44 11.74 16.44H12.4C12.65 16.44 12.82 16.28 12.82 16C12.82 15.72 12.65 15.54 12.4 15.54Z" fill="currentColor"/>
<path d="M19.27 2.73C18.8 2.26 18.17 2 17.5 2H10C9.47 2 8.96 2.21 8.59 2.59L5.59 5.59C5.21 5.96 5 6.47 5 7V19.5C5 20.16 5.26 20.8 5.73 21.27C6.2 21.74 6.83 22 7.5 22H17.5C18.16 22 18.8 21.74 19.27 21.27C19.74 20.8 20 20.17 20 19.5V4.5C20 3.84 19.74 3.2 19.27 2.73ZM9.78 17.69C9.78 18.54 9.24 19.03 8.36 19.03C7.88 19.03 7.48 18.82 7.24 18.41C7.18 18.31 7.16 18.22 7.16 18.14C7.16 17.88 7.44 17.65 7.7 17.65C7.83 17.65 7.96 17.71 8.06 17.86C8.11 17.94 8.2 17.98 8.31 17.98C8.5 17.98 8.67 17.86 8.67 17.6V14.92C8.67 14.55 8.97 14.46 9.22 14.46C9.48 14.46 9.78 14.55 9.78 14.92V17.69ZM12.55 17.48L11.74 17.49C11.74 17.49 11.68 17.5 11.68 17.55V18.56C11.68 18.93 11.38 19.02 11.12 19.02C10.86 19.02 10.57 18.93 10.57 18.56V14.97C10.57 14.6 10.82 14.47 11.09 14.47H12.55C13.33 14.47 13.95 14.96 13.95 15.98C13.95 17 13.33 17.48 12.55 17.48ZM17.7 17.4C17.7 17.87 17.55 18.25 17.39 18.46C17.03 18.91 16.54 19.03 16.03 19.03C15.52 19.03 14.98 18.91 14.62 18.45C14.35 18.11 14.29 17.53 14.29 16.74C14.29 15.95 14.35 15.37 14.62 15.03C14.98 14.57 15.5 14.45 16.04 14.45C16.51 14.45 16.91 14.55 17.22 14.77C17.36 14.87 17.45 14.97 17.45 15.2C17.45 15.46 17.18 15.75 16.92 15.75C16.8 15.75 16.72 15.71 16.65 15.67C16.42 15.54 16.29 15.49 16.05 15.49C15.83 15.49 15.64 15.57 15.54 15.76C15.44 15.94 15.43 16.32 15.43 16.73C15.43 17.14 15.44 17.52 15.54 17.7C15.64 17.89 15.83 17.97 16.03 17.97C16.23 17.97 16.35 17.9 16.47 17.78C16.52 17.74 16.59 17.59 16.59 17.47V17.43C16.59 17.43 16.57 17.37 16.53 17.37H16.45C16.09 17.37 15.98 17.12 15.98 16.85C15.98 16.58 16.09 16.32 16.45 16.32H17.29C17.55 16.32 17.69 16.49 17.69 16.72L17.7 17.4Z" fill="currentColor"/>
  </symbol>
  <symbol id="ic_document_odt" viewBox="0 0 24 24">
    <path d="M18.27 2.73C17.8 2.26 17.17 2 16.5 2H9C8.47 2 7.96 2.21 7.59 2.59L4.59 5.59C4.21 5.96 4 6.47 4 7V19.5C4 20.16 4.26 20.8 4.73 21.27C5.2 21.74 5.83 22 6.5 22H16.5C17.16 22 17.8 21.74 18.27 21.27C18.74 20.8 19 20.17 19 19.5V4.5C19 3.84 18.74 3.2 18.27 2.73ZM8.98 18.41C8.61 18.87 8.07 19 7.55 19C7.03 19 6.49 18.88 6.12 18.41C5.85 18.07 5.78 17.47 5.78 16.67C5.78 15.87 5.85 15.28 6.12 14.93C6.49 14.47 7.02 14.34 7.55 14.34C8.08 14.34 8.61 14.47 8.98 14.93C9.25 15.27 9.32 15.87 9.32 16.67C9.32 17.47 9.25 18.06 8.98 18.41ZM13.13 18.41C12.77 18.86 12.27 18.97 11.74 18.97H10.49C10.21 18.97 9.96 18.85 9.96 18.47V14.88C9.96 14.5 10.21 14.37 10.49 14.37H11.74C12.27 14.37 12.76 14.48 13.13 14.93C13.41 15.27 13.47 15.87 13.47 16.67C13.47 17.47 13.41 18.07 13.13 18.41ZM16.74 15.44H16.07C16.07 15.44 16.01 15.45 16.01 15.5V18.53C16.01 18.91 15.71 19 15.45 19C15.19 19 14.88 18.91 14.88 18.53V15.5C14.88 15.5 14.87 15.44 14.82 15.44H14.17C13.8 15.44 13.69 15.18 13.69 14.91C13.69 14.63 13.8 14.37 14.17 14.37H16.73C17.1 14.37 17.21 14.63 17.21 14.91C17.21 15.19 17.1 15.44 16.73 15.44H16.74Z" fill="currentColor"/>
<path d="M11.7 15.44H11.15C11.15 15.44 11.09 15.45 11.09 15.5V17.84C11.09 17.84 11.1 17.9 11.15 17.9H11.7C11.9 17.9 12.09 17.83 12.2 17.66C12.3 17.49 12.31 17.09 12.31 16.68C12.31 16.27 12.31 15.87 12.2 15.69C12.1 15.52 11.9 15.45 11.7 15.45V15.44Z" fill="currentColor"/>
<path d="M7.54 15.42C7.34 15.42 7.15 15.5 7.04 15.69C6.94 15.87 6.93 16.26 6.93 16.68C6.93 17.1 6.94 17.49 7.04 17.66C7.15 17.85 7.34 17.93 7.54 17.93C7.74 17.93 7.93 17.85 8.04 17.66C8.14 17.48 8.15 17.09 8.15 16.68C8.15 16.27 8.14 15.87 8.04 15.69C7.93 15.5 7.74 15.42 7.54 15.42Z" fill="currentColor"/>
  </symbol>
  <symbol id="ic_document_pdf" viewBox="0 0 24 24">
    <path d="M19.27 2.73C18.8 2.26 18.17 2 17.5 2H10C9.47 2 8.96 2.21 8.59 2.59L5.59 5.59C5.21 5.96 5 6.47 5 7V19.5C5 20.16 5.26 20.8 5.73 21.27C6.2 21.74 6.83 22 7.5 22H17.5C18.16 22 18.8 21.74 19.27 21.27C19.74 20.8 20 20.17 20 19.5V4.5C20 3.84 19.74 3.2 19.27 2.73ZM9.08 17.47H8.26C8.26 17.47 8.2 17.48 8.2 17.53V18.54C8.2 18.91 7.9 19 7.64 19C7.38 19 7.09 18.91 7.09 18.54V14.95C7.09 14.58 7.34 14.45 7.61 14.45H9.07C9.85 14.45 10.47 14.94 10.47 15.96C10.47 16.98 9.86 17.47 9.08 17.47ZM14.15 18.43C13.79 18.87 13.31 18.98 12.79 18.98H11.56C11.29 18.98 11.04 18.86 11.04 18.49V14.95C11.04 14.58 11.29 14.45 11.56 14.45H12.79C13.31 14.45 13.8 14.56 14.15 15C14.42 15.33 14.48 15.92 14.48 16.71C14.48 17.5 14.42 18.1 14.15 18.43ZM17.72 15.51H16.28C16.28 15.51 16.22 15.52 16.22 15.57V16.06C16.22 16.06 16.23 16.12 16.28 16.12H17.31C17.67 16.12 17.78 16.37 17.78 16.65C17.78 16.93 17.67 17.17 17.31 17.17H16.28C16.28 17.17 16.22 17.18 16.22 17.23V18.54C16.22 18.91 15.92 19 15.66 19C15.4 19 15.11 18.91 15.11 18.54V14.95C15.11 14.58 15.36 14.45 15.63 14.45H17.71C18.07 14.45 18.18 14.7 18.18 14.98C18.18 15.26 18.08 15.51 17.72 15.51Z" fill="currentColor"/>
<path d="M8.92 15.51H8.26C8.26 15.51 8.2 15.52 8.2 15.57V16.35C8.2 16.35 8.21 16.41 8.26 16.41H8.92C9.17 16.41 9.34 16.25 9.34 15.97C9.34 15.69 9.17 15.51 8.92 15.51Z" fill="currentColor"/>
<path d="M12.74 15.51H12.2C12.2 15.51 12.14 15.52 12.14 15.57V17.87C12.14 17.87 12.15 17.93 12.2 17.93H12.74C12.94 17.93 13.12 17.86 13.23 17.69C13.33 17.52 13.34 17.13 13.34 16.72C13.34 16.31 13.34 15.93 13.23 15.75C13.13 15.58 12.94 15.51 12.74 15.51Z" fill="currentColor"/>
  </symbol>
  <symbol id="ic_document_png" viewBox="0 0 24 24">
    <path d="M8.75 15.54H8.09C8.09 15.54 8.03 15.55 8.03 15.6V16.38C8.03 16.38 8.04 16.44 8.09 16.44H8.75C9 16.44 9.17 16.28 9.17 16C9.17 15.72 9 15.54 8.75 15.54Z" fill="currentColor"/>
<path d="M19.27 2.73C18.8 2.26 18.17 2 17.5 2H10C9.47 2 8.96 2.21 8.59 2.59L5.59 5.59C5.21 5.96 5 6.47 5 7V19.5C5 20.16 5.26 20.8 5.73 21.27C6.2 21.74 6.83 22 7.5 22H17.5C18.16 22 18.8 21.74 19.27 21.27C19.74 20.8 20 20.17 20 19.5V4.5C20 3.84 19.74 3.2 19.27 2.73ZM8.91 17.49H8.09C8.09 17.49 8.03 17.5 8.03 17.55V18.56C8.03 18.93 7.73 19.02 7.47 19.02C7.21 19.02 6.92 18.93 6.92 18.56V14.97C6.92 14.6 7.17 14.47 7.44 14.47H8.9C9.68 14.47 10.3 14.96 10.3 15.98C10.3 17 9.69 17.49 8.91 17.49ZM14.25 18.45C14.25 18.89 14.03 19.02 13.67 19.02C13.42 19.02 13.25 18.94 13.08 18.62L12.06 16.74C12.06 16.74 12.04 16.7 12.01 16.7C11.98 16.7 11.98 16.75 11.98 16.75V18.56C11.98 18.93 11.68 19.02 11.42 19.02C11.16 19.02 10.87 18.93 10.87 18.56V15.02C10.87 14.58 11.09 14.45 11.45 14.45C11.7 14.45 11.87 14.53 12.04 14.85L13.06 16.7C13.06 16.7 13.08 16.74 13.11 16.74C13.14 16.74 13.14 16.69 13.14 16.69V14.92C13.14 14.55 13.44 14.46 13.7 14.46C13.96 14.46 14.25 14.55 14.25 14.92V18.46V18.45ZM18.31 17.4C18.31 17.87 18.16 18.25 18 18.46C17.64 18.91 17.15 19.03 16.64 19.03C16.13 19.03 15.59 18.91 15.23 18.45C14.96 18.11 14.9 17.53 14.9 16.74C14.9 15.95 14.96 15.37 15.23 15.03C15.59 14.57 16.11 14.45 16.65 14.45C17.12 14.45 17.52 14.55 17.83 14.77C17.97 14.87 18.06 14.97 18.06 15.2C18.06 15.46 17.79 15.75 17.53 15.75C17.41 15.75 17.34 15.71 17.26 15.67C17.03 15.54 16.9 15.49 16.66 15.49C16.44 15.49 16.25 15.57 16.15 15.76C16.05 15.94 16.04 16.32 16.04 16.73C16.04 17.14 16.05 17.52 16.15 17.7C16.25 17.89 16.44 17.97 16.64 17.97C16.84 17.97 16.96 17.9 17.08 17.78C17.13 17.74 17.2 17.59 17.2 17.47V17.43C17.2 17.43 17.18 17.37 17.14 17.37H17.06C16.7 17.37 16.59 17.12 16.59 16.85C16.59 16.58 16.7 16.32 17.06 16.32H17.9C18.16 16.32 18.3 16.49 18.3 16.72L18.31 17.4Z" fill="currentColor"/>
  </symbol>
  <symbol id="ic_document_raw" viewBox="0 0 24 24">
    <path d="M19.27 2.73C18.8 2.26 18.17 2 17.5 2H10C9.47 2 8.96 2.21 8.59 2.59L5.59 5.59C5.21 5.96 5 6.47 5 7V19.5C5 20.16 5.26 20.8 5.73 21.27C6.2 21.74 6.83 22 7.5 22H17.5C18.16 22 18.8 21.74 19.27 21.27C19.74 20.8 20 20.17 20 19.5V4.5C20 3.84 19.74 3.2 19.27 2.73ZM9.01 19.05C8.87 19.05 8.72 18.98 8.6 18.78L7.84 17.45C7.81 17.39 7.79 17.39 7.74 17.39H7.39C7.39 17.39 7.33 17.39 7.33 17.45V18.59C7.33 18.96 7.03 19.05 6.77 19.05C6.51 19.05 6.23 18.96 6.23 18.59V15.01C6.23 14.64 6.48 14.51 6.75 14.51H8.2C8.98 14.51 9.59 14.98 9.59 15.96C9.59 16.58 9.38 16.98 8.97 17.19C8.94 17.2 8.94 17.22 8.94 17.23C8.94 17.23 8.94 17.25 8.95 17.27L9.51 18.24C9.58 18.35 9.6 18.45 9.6 18.53C9.6 18.81 9.28 19.05 9 19.05H9.01ZM13.22 19.05C13.03 19.05 12.82 18.96 12.74 18.69L12.62 18.29C12.6 18.24 12.57 18.21 12.53 18.21H11.26C11.26 18.21 11.19 18.24 11.17 18.29L11.05 18.69C10.97 18.96 10.76 19.05 10.57 19.05C10.3 19.05 10 18.89 10 18.57C10 18.51 10.01 18.43 10.04 18.35L11.16 15.08C11.34 14.57 11.66 14.49 11.91 14.49C12.16 14.49 12.48 14.57 12.66 15.08L13.78 18.35C13.81 18.43 13.82 18.51 13.82 18.57C13.82 18.87 13.54 19.05 13.25 19.05H13.22ZM19.19 15.15L18.3 18.59C18.25 18.78 18.11 19.04 17.8 19.04C17.51 19.04 17.33 18.88 17.24 18.62L16.54 16.5C16.54 16.5 16.5 16.32 16.46 16.32C16.42 16.32 16.39 16.46 16.38 16.5L15.68 18.62C15.59 18.89 15.4 19.04 15.12 19.04C14.81 19.04 14.67 18.78 14.62 18.59L13.73 15.15C13.71 15.08 13.7 15.03 13.7 14.97C13.7 14.65 13.99 14.48 14.29 14.48C14.48 14.48 14.68 14.57 14.75 14.87L15.21 16.72C15.24 16.85 15.24 16.95 15.28 16.95C15.32 16.95 15.34 16.84 15.38 16.71L15.89 14.99C15.97 14.72 16.08 14.48 16.46 14.48C16.84 14.48 16.95 14.72 17.03 14.99L17.54 16.71C17.58 16.84 17.59 16.95 17.64 16.95C17.69 16.95 17.68 16.85 17.71 16.72L18.17 14.87C18.24 14.57 18.44 14.48 18.63 14.48C18.88 14.48 19.22 14.63 19.22 14.97C19.22 15.02 19.22 15.08 19.19 15.15Z" fill="currentColor"/>
<path d="M8.05 15.56H7.4C7.4 15.56 7.34 15.57 7.34 15.62V16.27C7.34 16.33 7.35 16.33 7.4 16.33H8.05C8.3 16.33 8.47 16.19 8.47 15.95C8.47 15.71 8.3 15.56 8.05 15.56Z" fill="currentColor"/>
<path d="M11.97 15.86C11.94 15.76 11.94 15.68 11.89 15.68C11.84 15.68 11.84 15.76 11.81 15.86L11.45 17.14C11.45 17.14 11.45 17.16 11.45 17.17C11.45 17.2 11.47 17.22 11.5 17.22H12.32C12.32 17.22 12.37 17.2 12.37 17.17C12.37 17.16 12.37 17.14 12.37 17.14L11.97 15.86Z" fill="currentColor"/>
  </symbol>
  <symbol id="ic_document_rtf" viewBox="0 0 24 24">
    <path d="M7.79 15.45H7.12C7.12 15.45 7.06 15.46 7.06 15.51V16.17C7.06 16.23 7.07 16.23 7.12 16.23H7.79C8.04 16.23 8.21 16.09 8.21 15.85C8.21 15.61 8.04 15.45 7.79 15.45Z" fill="currentColor"/>
<path d="M18.27 2.73C17.8 2.26 17.17 2 16.5 2H9C8.47 2 7.96 2.21 7.59 2.59L4.59 5.59C4.21 5.96 4 6.47 4 7V19.5C4 20.16 4.26 20.8 4.73 21.27C5.2 21.74 5.83 22 6.5 22H16.5C17.16 22 17.8 21.74 18.27 21.27C18.74 20.8 19 20.17 19 19.5V4.5C19 3.84 18.74 3.2 18.27 2.73ZM8.75 18.99C8.6 18.99 8.47 18.93 8.35 18.72L7.58 17.37C7.55 17.31 7.53 17.31 7.47 17.31H7.11C7.11 17.31 7.05 17.31 7.05 17.37V18.53C7.05 18.91 6.75 19 6.48 19C6.21 19 5.92 18.91 5.92 18.53V14.88C5.92 14.5 6.17 14.37 6.45 14.37H7.93C8.72 14.37 9.35 14.85 9.35 15.84C9.35 16.47 9.14 16.88 8.72 17.09C8.69 17.1 8.69 17.12 8.69 17.14C8.69 17.14 8.69 17.16 8.7 17.18L9.27 18.16C9.34 18.27 9.36 18.37 9.36 18.46C9.36 18.74 9.03 18.99 8.75 18.99ZM12.87 15.45H12.2C12.2 15.45 12.14 15.46 12.14 15.51V18.54C12.14 18.92 11.84 19.01 11.58 19.01C11.32 19.01 11.01 18.92 11.01 18.54V15.51C11.01 15.51 11 15.45 10.95 15.45H10.3C9.93 15.45 9.82 15.19 9.82 14.92C9.82 14.64 9.93 14.38 10.3 14.38H12.86C13.23 14.38 13.34 14.64 13.34 14.92C13.34 15.2 13.24 15.45 12.87 15.45ZM16.58 15.45H15.12C15.12 15.45 15.06 15.46 15.06 15.51V16.01C15.06 16.01 15.07 16.07 15.12 16.07H16.16C16.53 16.07 16.64 16.33 16.64 16.61C16.64 16.89 16.53 17.14 16.16 17.14H15.12C15.12 17.14 15.06 17.15 15.06 17.2V18.53C15.06 18.91 14.76 19 14.49 19C14.22 19 13.93 18.91 13.93 18.53V14.88C13.93 14.5 14.18 14.37 14.46 14.37H16.57C16.94 14.37 17.05 14.63 17.05 14.91C17.05 15.19 16.95 15.45 16.58 15.45Z" fill="currentColor"/>
  </symbol>
  <symbol id="ic_document_settings" viewBox="0 0 24 24">
    <path d="M16 7H20C20 6.47 19.79 5.96 19.41 5.59L16.41 2.59C16.03 2.21 15.53 2 15 2V6C15 6.55 15.45 7 16 7ZM12 13C10.9 13 10 13.9 10 15C10 16.1 10.9 17 12 17C13.1 17 14 16.1 14 15C14 13.9 13.1 13 12 13ZM13 6V2H7.5C6.12 2 5 3.12 5 4.5V19.5C5 20.88 6.12 22 7.5 22H17.5C18.88 22 20 20.88 20 19.5V9H16C14.35 9 13 7.65 13 6ZM16.58 12.93C16.86 13.41 16.69 14.02 16.21 14.3L15.94 14.46C15.96 14.64 16 14.82 16 15.01C16 15.2 15.97 15.38 15.94 15.56L16.21 15.72C16.69 16 16.85 16.61 16.58 17.09L16.08 17.96C15.8 18.44 15.19 18.6 14.71 18.33L14.44 18.17C14.15 18.4 13.84 18.59 13.5 18.73V19.03C13.5 19.58 13.05 20.03 12.5 20.03H11.5C10.95 20.03 10.5 19.58 10.5 19.03V18.73C10.16 18.59 9.84 18.4 9.56 18.17L9.29 18.33C8.81 18.61 8.2 18.44 7.92 17.96L7.42 17.09C7.14 16.61 7.31 16 7.79 15.72L8.06 15.56C8.04 15.38 8 15.2 8 15.01C8 14.82 8.03 14.64 8.06 14.46L7.79 14.3C7.31 14.02 7.15 13.41 7.42 12.93L7.92 12.06C8.2 11.58 8.81 11.42 9.29 11.69L9.56 11.85C9.85 11.62 10.16 11.43 10.5 11.29V10.99C10.5 10.44 10.95 9.99 11.5 9.99H12.5C13.05 9.99 13.5 10.44 13.5 10.99V11.29C13.84 11.43 14.16 11.62 14.44 11.85L14.71 11.69C15.19 11.41 15.8 11.58 16.08 12.06L16.58 12.93Z" fill="currentColor"/>
  </symbol>
  <symbol id="ic_document_tif" viewBox="0 0 24 24">
    <path d="M19.27 2.73C18.8 2.26 18.17 2 17.5 2H10C9.47 2 8.96 2.21 8.59 2.59L5.59 5.59C5.21 5.96 5 6.47 5 7V19.5C5 20.16 5.26 20.8 5.73 21.27C6.2 21.74 6.83 22 7.5 22H17.5C18.16 22 18.8 21.74 19.27 21.27C19.74 20.8 20 20.17 20 19.5V4.5C20 3.84 19.74 3.2 19.27 2.73ZM10.95 15.53H10.29C10.29 15.53 10.23 15.54 10.23 15.59V18.57C10.23 18.95 9.93 19.03 9.68 19.03C9.42 19.03 9.12 18.95 9.12 18.57V15.59C9.12 15.59 9.11 15.53 9.06 15.53H8.42C8.06 15.53 7.95 15.28 7.95 15.01C7.95 14.74 8.06 14.48 8.42 14.48H10.94C11.3 14.48 11.41 14.73 11.41 15.01C11.41 15.29 11.3 15.53 10.94 15.53H10.95ZM13.11 18.57C13.11 18.94 12.81 19.03 12.55 19.03C12.29 19.03 12 18.94 12 18.57V14.92C12 14.55 12.3 14.46 12.55 14.46C12.81 14.46 13.11 14.55 13.11 14.92V18.57ZM16.58 15.53H15.14C15.14 15.53 15.08 15.54 15.08 15.59V16.08C15.08 16.08 15.09 16.14 15.14 16.14H16.17C16.53 16.14 16.64 16.39 16.64 16.67C16.64 16.95 16.53 17.19 16.17 17.19H15.14C15.14 17.19 15.08 17.2 15.08 17.25V18.56C15.08 18.93 14.78 19.02 14.52 19.02C14.26 19.02 13.97 18.93 13.97 18.56V14.97C13.97 14.6 14.22 14.47 14.49 14.47H16.57C16.93 14.47 17.04 14.72 17.04 15C17.04 15.28 16.93 15.52 16.57 15.52L16.58 15.53Z" fill="currentColor"/>
  </symbol>
  <symbol id="ic_document_txt" viewBox="0 0 24 24">
    <path d="M19.27 2.73C18.8 2.26 18.17 2 17.5 2H10C9.47 2 8.96 2.21 8.59 2.59L5.59 5.59C5.21 5.96 5 6.47 5 7V19.5C5 20.16 5.26 20.8 5.73 21.27C6.2 21.74 6.83 22 7.5 22H17.5C18.16 22 18.8 21.74 19.27 21.27C19.74 20.8 20 20.17 20 19.5V4.5C20 3.84 19.74 3.2 19.27 2.73ZM10.08 15.53H9.42C9.42 15.53 9.36 15.54 9.36 15.59V18.57C9.36 18.95 9.06 19.03 8.81 19.03C8.55 19.03 8.25 18.95 8.25 18.57V15.59C8.25 15.59 8.24 15.53 8.19 15.53H7.55C7.19 15.53 7.08 15.28 7.08 15.01C7.08 14.74 7.19 14.48 7.55 14.48H10.07C10.43 14.48 10.54 14.73 10.54 15.01C10.54 15.29 10.43 15.53 10.07 15.53H10.08ZM13.62 19.03C13.48 19.03 13.34 18.96 13.22 18.79L12.53 17.74C12.53 17.74 12.52 17.71 12.49 17.71C12.46 17.71 12.45 17.74 12.45 17.74L11.76 18.79C11.64 18.97 11.5 19.03 11.36 19.03C11.1 19.03 10.77 18.79 10.77 18.5C10.77 18.41 10.8 18.3 10.88 18.19L11.84 16.8C11.84 16.8 11.86 16.77 11.86 16.75C11.86 16.73 11.84 16.69 11.84 16.69L10.9 15.3C10.82 15.18 10.79 15.08 10.79 14.99C10.79 14.71 11.1 14.46 11.38 14.46C11.52 14.46 11.66 14.53 11.78 14.71L12.46 15.76C12.46 15.76 12.47 15.79 12.5 15.79C12.53 15.79 12.54 15.76 12.54 15.76L13.22 14.71C13.34 14.53 13.48 14.46 13.62 14.46C13.88 14.46 14.21 14.7 14.21 14.99C14.21 15.08 14.18 15.18 14.1 15.3L13.16 16.69C13.16 16.69 13.14 16.72 13.14 16.75C13.14 16.78 13.16 16.8 13.16 16.8L14.12 18.19C14.2 18.31 14.23 18.41 14.23 18.5C14.23 18.78 13.92 19.03 13.64 19.03H13.62ZM17.44 15.53H16.78C16.78 15.53 16.72 15.54 16.72 15.59V18.57C16.72 18.95 16.42 19.03 16.17 19.03C15.91 19.03 15.61 18.95 15.61 18.57V15.59C15.61 15.59 15.6 15.53 15.55 15.53H14.91C14.55 15.53 14.44 15.28 14.44 15.01C14.44 14.74 14.55 14.48 14.91 14.48H17.43C17.79 14.48 17.9 14.73 17.9 15.01C17.9 15.29 17.79 15.53 17.43 15.53H17.44Z" fill="currentColor"/>
  </symbol>
  <symbol id="ic_document_unknown" viewBox="0 0 24 24">
    <path d="M13 6V2H7.5C6.83696 2 6.20107 2.26339 5.73223 2.73223C5.26339 3.20107 5 3.83696 5 4.5V19.5C5 20.163 5.26339 20.7989 5.73223 21.2678C6.20107 21.7366 6.83696 22 7.5 22H17.5C18.163 22 18.7989 21.7366 19.2678 21.2678C19.7366 20.7989 20 20.163 20 19.5V9H16C15.2044 9 14.4413 8.68393 13.8787 8.12132C13.3161 7.55871 13 6.79565 13 6ZM11 19C10.7884 19 10.5815 18.9372 10.4055 18.8197C10.2296 18.7021 10.0924 18.535 10.0114 18.3395C9.93046 18.144 9.90927 17.9288 9.95056 17.7213C9.99185 17.5137 10.0938 17.323 10.2434 17.1734C10.393 17.0238 10.5837 16.9218 10.7913 16.8806C10.9988 16.8393 11.214 16.8605 11.4095 16.9414C11.605 17.0224 11.7721 17.1596 11.8897 17.3355C12.0072 17.5115 12.07 17.7184 12.07 17.93C12.07 18.0705 12.0423 18.2097 11.9886 18.3395C11.9348 18.4693 11.856 18.5872 11.7566 18.6866C11.6572 18.786 11.5393 18.8648 11.4095 18.9186C11.2797 18.9723 11.1405 19 11 19ZM12.13 15L11.85 15.21C11.8176 15.4227 11.7067 15.6156 11.5391 15.7506C11.3714 15.8855 11.1593 15.9527 10.9446 15.9389C10.7298 15.9251 10.5281 15.8312 10.3791 15.6759C10.2302 15.5206 10.1448 15.3151 10.14 15.1C10.1668 14.786 10.2725 14.4838 10.4473 14.2215C10.6221 13.9593 10.8604 13.7455 11.14 13.6C11.63 13.26 11.86 13.07 11.86 12.53C11.8311 12.312 11.7312 12.1097 11.5758 11.9542C11.4203 11.7988 11.2179 11.6989 11 11.67C10.7821 11.6989 10.5797 11.7988 10.4242 11.9542C10.2688 12.1097 10.1689 12.312 10.14 12.53C10.153 12.65 10.1406 12.7715 10.1035 12.8864C10.0665 13.0013 10.0057 13.1072 9.92501 13.197C9.84436 13.2869 9.74569 13.3588 9.63542 13.408C9.52514 13.4572 9.40575 13.4826 9.285 13.4826C9.16425 13.4826 9.04486 13.4572 8.93458 13.408C8.82431 13.3588 8.72564 13.2869 8.64499 13.197C8.56433 13.1072 8.5035 13.0013 8.46646 12.8864C8.42942 12.7715 8.417 12.65 8.43 12.53C8.47335 11.8664 8.75917 11.242 9.23306 10.7754C9.70695 10.3089 10.3358 10.0329 11 10C11.6707 10.0338 12.3049 10.3155 12.7797 10.7903C13.2545 11.2651 13.5362 11.8993 13.57 12.57C13.5638 13.0657 13.4276 13.551 13.1748 13.9775C12.9221 14.404 12.5618 14.7566 12.13 15ZM16 7H20C19.9978 6.47042 19.7856 5.96335 19.41 5.59L16.41 2.59C16.0366 2.21441 15.5296 2.00223 15 2V6C15 6.26522 15.1054 6.51957 15.2929 6.70711C15.4804 6.89464 15.7348 7 16 7Z" fill="currentColor"/>
  </symbol>
  <symbol id="ic_document_viewer" viewBox="0 0 24 24">
    <path d="M9.5 10C9.20333 10 8.91332 10.088 8.66665 10.2528C8.41997 10.4176 8.22771 10.6519 8.11418 10.926C8.00065 11.2001 7.97094 11.5017 8.02882 11.7926C8.0867 12.0836 8.22956 12.3509 8.43934 12.5607C8.64912 12.7704 8.91639 12.9133 9.20736 12.9712C9.49834 13.0291 9.79994 12.9994 10.074 12.8858C10.3481 12.7723 10.5824 12.58 10.7472 12.3334C10.912 12.0867 11 11.7967 11 11.5C11 11.1022 10.842 10.7206 10.5607 10.4393C10.2794 10.158 9.89782 10 9.5 10ZM16 7H20C19.9978 6.47042 19.7856 5.96335 19.41 5.59L16.41 2.59C16.0366 2.21441 15.5296 2.00223 15 2V6C15 6.26522 15.1054 6.51957 15.2929 6.70711C15.4804 6.89464 15.7348 7 16 7ZM13 6V2H6.5C5.83696 2 5.20107 2.26339 4.73223 2.73223C4.26339 3.20107 4 3.83696 4 4.5V19.5C4 20.163 4.26339 20.7989 4.73223 21.2678C5.20107 21.7366 5.83696 22 6.5 22H17.5C18.163 22 18.7989 21.7366 19.2678 21.2678C19.7366 20.7989 20 20.163 20 19.5V9H16C15.2044 9 14.4413 8.68393 13.8787 8.12132C13.3161 7.55871 13 6.79565 13 6ZM13.62 16.78C13.4441 16.9212 13.2256 16.9987 13 17C12.8498 16.9993 12.7017 16.9648 12.5666 16.899C12.4316 16.8332 12.3131 16.7379 12.22 16.62L10.73 14.76C10.3386 14.9162 9.9214 14.9976 9.5 15C8.70548 15.0073 7.93176 14.7462 7.30398 14.2592C6.67621 13.7722 6.2311 13.0876 6.04067 12.3162C5.85024 11.5448 5.92562 10.7317 6.25462 10.0085C6.58362 9.28525 7.14699 8.69416 7.8536 8.33083C8.56021 7.9675 9.36874 7.85319 10.1484 8.00638C10.928 8.15957 11.6332 8.5713 12.1498 9.17498C12.6664 9.77866 12.9642 10.539 12.9951 11.3329C13.026 12.1269 12.7881 12.908 12.32 13.55L13.78 15.38C13.9435 15.5872 14.0184 15.8507 13.9885 16.113C13.9585 16.3752 13.826 16.615 13.62 16.78Z" fill="currentColor"/>
  </symbol>
  <symbol id="ic_document_xls" viewBox="0 0 24 24">
    <path d="M19.27 2.73C18.8 2.26 18.17 2 17.5 2H10C9.47 2 8.96 2.21 8.59 2.59L5.59 5.59C5.21 5.96 5 6.47 5 7V19.5C5 20.16 5.26 20.8 5.73 21.27C6.2 21.74 6.83 22 7.5 22H17.5C18.16 22 18.8 21.74 19.27 21.27C19.74 20.8 20 20.17 20 19.5V4.5C20 3.84 19.74 3.2 19.27 2.73ZM10.05 19.02C9.91 19.02 9.77 18.95 9.65 18.78L8.96 17.73C8.96 17.73 8.95 17.7 8.92 17.7C8.89 17.7 8.88 17.73 8.88 17.73L8.19 18.78C8.07 18.96 7.93 19.02 7.79 19.02C7.53 19.02 7.2 18.78 7.2 18.49C7.2 18.4 7.23 18.29 7.31 18.18L8.27 16.79C8.27 16.79 8.29 16.76 8.29 16.74C8.29 16.72 8.27 16.68 8.27 16.68L7.33 15.29C7.25 15.17 7.22 15.07 7.22 14.98C7.22 14.7 7.53 14.45 7.81 14.45C7.95 14.45 8.09 14.52 8.21 14.7L8.89 15.75C8.89 15.75 8.9 15.78 8.93 15.78C8.96 15.78 8.97 15.75 8.97 15.75L9.65 14.7C9.77 14.52 9.91 14.45 10.05 14.45C10.31 14.45 10.64 14.69 10.64 14.98C10.64 15.07 10.61 15.17 10.53 15.29L9.59 16.68C9.59 16.68 9.57 16.71 9.57 16.74C9.57 16.77 9.59 16.79 9.59 16.79L10.55 18.18C10.63 18.3 10.66 18.4 10.66 18.49C10.66 18.77 10.35 19.02 10.07 19.02H10.05ZM13.48 18.99H11.69C11.4 18.99 11.16 18.89 11.16 18.5V14.9C11.16 14.53 11.46 14.44 11.71 14.44C11.97 14.44 12.27 14.53 12.27 14.9V17.88C12.27 17.88 12.27 17.94 12.32 17.94H13.48C13.84 17.94 13.95 18.19 13.95 18.47C13.95 18.74 13.84 18.99 13.48 18.99ZM16.04 19.02C15.38 19.02 14.79 18.81 14.47 18.45C14.4 18.37 14.3 18.25 14.3 18.09C14.3 17.83 14.57 17.56 14.84 17.56C14.96 17.56 15.08 17.64 15.2 17.72C15.49 17.91 15.75 17.97 16.04 17.97C16.35 17.97 16.57 17.85 16.57 17.64C16.57 17.49 16.42 17.42 16.16 17.33L15.58 17.14C14.84 16.89 14.38 16.53 14.38 15.78C14.38 15.03 15.04 14.45 16.04 14.45C16.64 14.45 17.03 14.64 17.32 14.85C17.47 14.96 17.55 15.09 17.55 15.25C17.55 15.52 17.27 15.8 17.04 15.8C16.9 15.8 16.83 15.75 16.75 15.7C16.53 15.58 16.26 15.49 16.05 15.49C15.74 15.49 15.53 15.6 15.53 15.76C15.53 15.88 15.67 15.99 15.92 16.07L16.5 16.27C17.29 16.54 17.72 16.95 17.72 17.63C17.72 18.49 17.04 19.01 16.05 19.01L16.04 19.02Z" fill="currentColor"/>
  </symbol>
  <symbol id="ic_document_xlsx" viewBox="0 0 24 24">
    <path d="M18.77 2.73C18.3 2.26 17.67 2 17 2H9.5C8.97 2 8.46 2.21 8.09 2.59L5.09 5.59C4.71 5.96 4.5 6.47 4.5 7V19.5C4.5 20.16 4.76 20.8 5.23 21.27C5.7 21.74 6.33 22 7 22H17C17.66 22 18.3 21.74 18.77 21.27C19.24 20.8 19.5 20.17 19.5 19.5V4.5C19.5 3.84 19.24 3.2 18.77 2.73ZM8.4 19C8.28 19 8.16 18.94 8.06 18.8L7.45 17.88L6.84 18.8C6.74 18.95 6.62 19 6.51 19C6.29 19 6.01 18.8 6.01 18.55C6.01 18.47 6.04 18.39 6.1 18.29L6.91 17.11C6.91 17.11 6.93 17.09 6.93 17.07C6.93 17.05 6.91 17.02 6.91 17.02L6.11 15.84C6.04 15.74 6.02 15.65 6.02 15.58C6.02 15.34 6.28 15.13 6.52 15.13C6.64 15.13 6.76 15.19 6.86 15.34L7.46 16.26L8.06 15.34C8.16 15.19 8.28 15.13 8.4 15.13C8.62 15.13 8.9 15.33 8.9 15.58C8.9 15.66 8.87 15.74 8.81 15.84L8.01 17.02C8.01 17.02 7.99 17.05 7.99 17.07C7.99 17.09 8.01 17.11 8.01 17.11L8.82 18.29C8.89 18.39 8.91 18.48 8.91 18.55C8.91 18.79 8.64 19 8.4 19ZM11.3 18.98H9.79C9.55 18.98 9.34 18.89 9.34 18.57V15.52C9.34 15.21 9.59 15.13 9.8 15.13C10.02 15.13 10.27 15.21 10.27 15.52V18.04C10.27 18.04 10.27 18.09 10.31 18.09H11.29C11.6 18.09 11.69 18.3 11.69 18.54C11.69 18.78 11.61 18.98 11.3 18.98ZM13.46 19C12.9 19 12.4 18.82 12.13 18.52C12.07 18.45 11.99 18.36 11.99 18.21C11.99 17.99 12.22 17.76 12.45 17.76C12.55 17.76 12.65 17.83 12.75 17.9C12.99 18.07 13.22 18.11 13.46 18.11C13.72 18.11 13.91 18.01 13.91 17.83C13.91 17.7 13.78 17.64 13.56 17.57L13.07 17.41C12.44 17.2 12.05 16.89 12.05 16.26C12.05 15.63 12.6 15.14 13.46 15.14C13.97 15.14 14.3 15.3 14.54 15.48C14.67 15.57 14.73 15.68 14.73 15.82C14.73 16.05 14.49 16.29 14.3 16.29C14.18 16.29 14.12 16.25 14.05 16.21C13.86 16.11 13.63 16.03 13.46 16.03C13.2 16.03 13.02 16.12 13.02 16.26C13.02 16.36 13.14 16.45 13.35 16.52L13.84 16.68C14.51 16.91 14.87 17.25 14.87 17.83C14.87 18.56 14.29 19 13.46 19ZM17.5 19C17.38 19 17.26 18.94 17.16 18.8L16.55 17.88L15.94 18.8C15.84 18.95 15.72 19 15.61 19C15.39 19 15.11 18.8 15.11 18.55C15.11 18.47 15.14 18.39 15.2 18.29L16.01 17.11C16.01 17.11 16.03 17.09 16.03 17.07C16.03 17.05 16.01 17.02 16.01 17.02L15.21 15.84C15.14 15.74 15.12 15.65 15.12 15.58C15.12 15.34 15.38 15.13 15.62 15.13C15.74 15.13 15.86 15.19 15.96 15.34L16.56 16.26L17.16 15.34C17.26 15.19 17.38 15.13 17.5 15.13C17.72 15.13 18 15.33 18 15.58C18 15.66 17.97 15.74 17.91 15.84L17.11 17.02C17.11 17.02 17.09 17.05 17.09 17.07C17.09 17.09 17.11 17.11 17.11 17.11L17.92 18.29C17.99 18.39 18.01 18.48 18.01 18.55C18.01 18.79 17.74 19 17.5 19Z" fill="currentColor"/>
  </symbol>
</svg>
