<!-- JioGames DLS — dongle icons (2 icons) -->
<svg xmlns="http://www.w3.org/2000/svg" style="display:none">
  <symbol id="ic_dongle_audio" viewBox="0 0 24 24">
    <path d="M9 2H7C6.20435 2 5.44129 2.31607 4.87868 2.87868C4.31607 3.44129 4 4.20435 4 5V7H12V5C12 4.20435 11.6839 3.44129 11.1213 2.87868C10.5587 2.31607 9.79565 2 9 2ZM4 19C4 19.7956 4.31607 20.5587 4.87868 21.1213C5.44129 21.6839 6.20435 22 7 22H9C9.79565 22 10.5587 21.6839 11.1213 21.1213C11.6839 20.5587 12 19.7956 12 19V9H4V19ZM19.9 6.57C19.8291 6.42569 19.7265 6.29922 19.6 6.2C19.4748 6.09982 19.3273 6.03122 19.17 6C19.0188 5.96425 18.8612 5.96425 18.71 6L14 7.44V9.57L18 8.38V13C17.6034 13 17.2158 13.1179 16.8864 13.3387C16.557 13.5595 16.3007 13.8732 16.15 14.24C15.9993 14.6061 15.9607 15.0087 16.0391 15.3968C16.1174 15.7849 16.3091 16.141 16.59 16.42C16.8596 16.6989 17.2089 16.8875 17.59 16.96C17.9774 17.0366 18.3789 16.9967 18.7437 16.8454C19.1085 16.6941 19.4204 16.4383 19.64 16.11C19.8677 15.784 19.993 15.3976 20 15V7C19.9991 6.85101 19.965 6.70409 19.9 6.57Z" fill="currentColor"/>
  </symbol>
  <symbol id="ic_dongle_video" viewBox="0 0 24 24">
    <path d="M4 19C4 19.7956 4.31607 20.5587 4.87868 21.1213C5.44129 21.6839 6.20435 22 7 22H9C9.79565 22 10.5587 21.6839 11.1213 21.1213C11.6839 20.5587 12 19.7956 12 19V9H4V19ZM9 2H7C6.20435 2 5.44129 2.31607 4.87868 2.87868C4.31607 3.44129 4 4.20435 4 5V7H12V5C12 4.20435 11.6839 3.44129 11.1213 2.87868C10.5587 2.31607 9.79565 2 9 2ZM19.6 11.2L15.6 8.2C15.456 8.09817 15.2877 8.0362 15.1121 8.0204C14.9365 8.00459 14.7598 8.0355 14.6 8.11C14.4257 8.18597 14.2767 8.31005 14.1705 8.46768C14.0642 8.62531 14.0051 8.80996 14 9V15C14.0006 15.1847 14.0522 15.3656 14.1493 15.5227C14.2464 15.6798 14.3851 15.8069 14.55 15.89C14.7098 15.9645 14.8865 15.9954 15.0621 15.9796C15.2377 15.9638 15.406 15.9018 15.55 15.8L19.55 12.8C19.6742 12.7069 19.775 12.5861 19.8444 12.4472C19.9139 12.3084 19.95 12.1552 19.95 12C19.95 11.8448 19.9139 11.6916 19.8444 11.5528C19.775 11.4139 19.6742 11.2931 19.55 11.2H19.6Z" fill="currentColor"/>
  </symbol>
</svg>
