<!-- JioGames DLS — door icons (7 icons) -->
<svg xmlns="http://www.w3.org/2000/svg" style="display:none">
  <symbol id="ic_door" viewBox="0 0 24 24">
    <path d="M16 2H8C7.20435 2 6.44129 2.31607 5.87868 2.87868C5.31607 3.44129 5 4.20435 5 5V19C5 19.7956 5.31607 20.5587 5.87868 21.1213C6.44129 21.6839 7.20435 22 8 22H16C16.7956 22 17.5587 21.6839 18.1213 21.1213C18.6839 20.5587 19 19.7956 19 19V5C19 4.20435 18.6839 3.44129 18.1213 2.87868C17.5587 2.31607 16.7956 2 16 2ZM16 13C15.8022 13 15.6089 12.9414 15.4444 12.8315C15.28 12.7216 15.1518 12.5654 15.0761 12.3827C15.0004 12.2 14.9806 11.9989 15.0192 11.8049C15.0578 11.6109 15.153 11.4327 15.2929 11.2929C15.4327 11.153 15.6109 11.0578 15.8049 11.0192C15.9989 10.9806 16.2 11.0004 16.3827 11.0761C16.5654 11.1518 16.7216 11.28 16.8315 11.4444C16.9414 11.6089 17 11.8022 17 12C17 12.2652 16.8946 12.5196 16.7071 12.7071C16.5196 12.8946 16.2652 13 16 13Z" fill="currentColor"/>
  </symbol>
  <symbol id="ic_door_bell" viewBox="0 0 24 24">
    <path d="M16 9C17.0538 9.00187 18.0885 9.28124 19 9.81V5C19 4.20435 18.6839 3.44129 18.1213 2.87868C17.5587 2.31607 16.7956 2 16 2H8C7.20435 2 6.44129 2.31607 5.87868 2.87868C5.31607 3.44129 5 4.20435 5 5V19C5 19.7956 5.31607 20.5587 5.87868 21.1213C6.44129 21.6839 7.20435 22 8 22H10.09C10.0348 21.6694 10.0047 21.3351 10 21V15C10 13.4087 10.6321 11.8826 11.7574 10.7574C12.8826 9.63214 14.4087 9 16 9ZM8 13C7.80222 13 7.60888 12.9414 7.44443 12.8315C7.27998 12.7216 7.15181 12.5654 7.07612 12.3827C7.00043 12.2 6.98063 11.9989 7.01921 11.8049C7.0578 11.6109 7.15304 11.4327 7.29289 11.2929C7.43275 11.153 7.61093 11.0578 7.80491 11.0192C7.99889 10.9806 8.19996 11.0004 8.38268 11.0761C8.56541 11.1518 8.72159 11.28 8.83147 11.4444C8.94135 11.6089 9 11.8022 9 12C9 12.2652 8.89464 12.5196 8.70711 12.7071C8.51957 12.8946 8.26522 13 8 13ZM16 22C16.5304 22 17.0391 21.7893 17.4142 21.4142C17.7893 21.0391 18 20.5304 18 20H14C14 20.5304 14.2107 21.0391 14.5858 21.4142C14.9609 21.7893 15.4696 22 16 22ZM19 17V15C19 14.2044 18.6839 13.4413 18.1213 12.8787C17.5587 12.3161 16.7956 12 16 12C15.2044 12 14.4413 12.3161 13.8787 12.8787C13.3161 13.4413 13 14.2044 13 15V17C12.7348 17 12.4804 17.1054 12.2929 17.2929C12.1054 17.4804 12 17.7348 12 18C12 18.2652 12.1054 18.5196 12.2929 18.7071C12.4804 18.8946 12.7348 19 13 19H19C19.2652 19 19.5196 18.8946 19.7071 18.7071C19.8946 18.5196 20 18.2652 20 18C20 17.7348 19.8946 17.4804 19.7071 17.2929C19.5196 17.1054 19.2652 17 19 17Z" fill="currentColor"/>
  </symbol>
  <symbol id="ic_door_camera" viewBox="0 0 24 24">
    <path d="M5 19C5 19.7956 5.31607 20.5587 5.87868 21.1213C6.44129 21.6839 7.20435 22 8 22H16C16.7956 22 17.5587 21.6839 18.1213 21.1213C18.6839 20.5587 19 19.7956 19 19V16H5V19ZM12 18C12.1978 18 12.3911 18.0586 12.5556 18.1685C12.72 18.2784 12.8482 18.4346 12.9239 18.6173C12.9996 18.8 13.0194 19.0011 12.9808 19.1951C12.9422 19.3891 12.847 19.5673 12.7071 19.7071C12.5673 19.847 12.3891 19.9422 12.1951 19.9808C12.0011 20.0194 11.8 19.9996 11.6173 19.9239C11.4346 19.8482 11.2784 19.72 11.1685 19.5556C11.0586 19.3911 11 19.1978 11 19C11 18.7348 11.1054 18.4804 11.2929 18.2929C11.4804 18.1054 11.7348 18 12 18ZM16 2H8C7.20435 2 6.44129 2.31607 5.87868 2.87868C5.31607 3.44129 5 4.20435 5 5V14H19V5C19 4.20435 18.6839 3.44129 18.1213 2.87868C17.5587 2.31607 16.7956 2 16 2ZM12 12C11.2089 12 10.4355 11.7654 9.77772 11.3259C9.11992 10.8864 8.60723 10.2616 8.30448 9.53073C8.00173 8.79983 7.92252 7.99556 8.07686 7.21964C8.2312 6.44371 8.61216 5.73098 9.17157 5.17157C9.73098 4.61216 10.4437 4.2312 11.2196 4.07686C11.9956 3.92252 12.7998 4.00173 13.5307 4.30448C14.2616 4.60723 14.8864 5.11992 15.3259 5.77772C15.7654 6.43552 16 7.20887 16 8C16 9.06087 15.5786 10.0783 14.8284 10.8284C14.0783 11.5786 13.0609 12 12 12ZM12 6C11.6044 6 11.2178 6.1173 10.8889 6.33706C10.56 6.55682 10.3036 6.86918 10.1522 7.23463C10.0009 7.60009 9.96126 8.00222 10.0384 8.39018C10.1156 8.77814 10.3061 9.13451 10.5858 9.41421C10.8655 9.69392 11.2219 9.8844 11.6098 9.96157C11.9978 10.0387 12.3999 9.99913 12.7654 9.84776C13.1308 9.69638 13.4432 9.44004 13.6629 9.11114C13.8827 8.78224 14 8.39556 14 8C14 7.46957 13.7893 6.96086 13.4142 6.58579C13.0391 6.21071 12.5304 6 12 6Z" fill="currentColor"/>
  </symbol>
  <symbol id="ic_door_locked" viewBox="0 0 24 24">
    <path d="M16 9C17.0538 9.00187 18.0885 9.28124 19 9.81V5C19 4.20435 18.6839 3.44129 18.1213 2.87868C17.5587 2.31607 16.7956 2 16 2H8C7.20435 2 6.44129 2.31607 5.87868 2.87868C5.31607 3.44129 5 4.20435 5 5V19C5 19.7956 5.31607 20.5587 5.87868 21.1213C6.44129 21.6839 7.20435 22 8 22H10.09C10.0348 21.6694 10.0047 21.3351 10 21V15C10 13.4087 10.6321 11.8826 11.7574 10.7574C12.8826 9.63214 14.4087 9 16 9ZM8 13C7.80222 13 7.60888 12.9414 7.44443 12.8315C7.27998 12.7216 7.15181 12.5654 7.07612 12.3827C7.00043 12.2 6.98063 11.9989 7.01921 11.8049C7.0578 11.6109 7.15304 11.4327 7.29289 11.2929C7.43275 11.153 7.61093 11.0578 7.80491 11.0192C7.99889 10.9806 8.19996 11.0004 8.38268 11.0761C8.56541 11.1518 8.72159 11.28 8.83147 11.4444C8.94135 11.6089 9 11.8022 9 12C9 12.2652 8.89464 12.5196 8.70711 12.7071C8.51957 12.8946 8.26522 13 8 13ZM19 14.28V14C19 13.2044 18.6839 12.4413 18.1213 11.8787C17.5587 11.3161 16.7956 11 16 11C15.2044 11 14.4413 11.3161 13.8787 11.8787C13.3161 12.4413 13 13.2044 13 14V14.27C12.6963 14.4454 12.444 14.6975 12.2685 15.0012C12.0929 15.3048 12.0004 15.6493 12 16V20C12 20.5304 12.2107 21.0391 12.5858 21.4142C12.9609 21.7893 13.4696 22 14 22H18C18.5304 22 19.0391 21.7893 19.4142 21.4142C19.7893 21.0391 20 20.5304 20 20V16C19.9979 15.651 19.9045 15.3086 19.7291 15.0068C19.5536 14.7051 19.3023 14.4545 19 14.28ZM16 19C15.8022 19 15.6089 18.9414 15.4444 18.8315C15.28 18.7216 15.1518 18.5654 15.0761 18.3827C15.0004 18.2 14.9806 17.9989 15.0192 17.8049C15.0578 17.6109 15.153 17.4327 15.2929 17.2929C15.4327 17.153 15.6109 17.0578 15.8049 17.0192C15.9989 16.9806 16.2 17.0004 16.3827 17.0761C16.5654 17.1518 16.7216 17.28 16.8315 17.4444C16.9414 17.6089 17 17.8022 17 18C17 18.2652 16.8946 18.5196 16.7071 18.7071C16.5196 18.8946 16.2652 19 16 19ZM15 14C15 13.7348 15.1054 13.4804 15.2929 13.2929C15.4804 13.1054 15.7348 13 16 13C16.2652 13 16.5196 13.1054 16.7071 13.2929C16.8946 13.4804 17 13.7348 17 14H15Z" fill="currentColor"/>
  </symbol>
  <symbol id="ic_door_open" viewBox="0 0 24 24">
    <path d="M18 2.00001H11.47L14.73 3.22001C15.3958 3.47291 15.9692 3.92181 16.3745 4.50743C16.7797 5.09305 16.9979 5.78783 17 6.50001V20H18C18.5304 20 19.0391 19.7893 19.4142 19.4142C19.7893 19.0391 20 18.5304 20 18V4.00001C20 3.46957 19.7893 2.96086 19.4142 2.58579C19.0391 2.21072 18.5304 2.00001 18 2.00001ZM14 5.10001L6 2.10001C5.84093 2.03613 5.67141 2.00222 5.5 2.00001C5.19544 1.99915 4.89824 2.09355 4.65 2.27001C4.44977 2.40668 4.28591 2.59015 4.17264 2.80449C4.05936 3.01883 4.00011 3.25757 4 3.50001V16.8C4.00025 17.0861 4.08228 17.3661 4.23642 17.607C4.39057 17.848 4.6104 18.0399 4.87 18.16L12.87 21.86C13.0679 21.9501 13.2825 21.9978 13.5 22C13.897 21.9974 14.277 21.8385 14.5578 21.5578C14.8385 21.277 14.9974 20.897 15 20.5V6.50001C14.9971 6.19225 14.8996 5.89283 14.7207 5.64239C14.5418 5.39194 14.2902 5.20258 14 5.10001ZM12 13.5C11.8022 13.5 11.6089 13.4414 11.4444 13.3315C11.28 13.2216 11.1518 13.0654 11.0761 12.8827C11.0004 12.7 10.9806 12.4989 11.0192 12.3049C11.0578 12.1109 11.153 11.9328 11.2929 11.7929C11.4327 11.653 11.6109 11.5578 11.8049 11.5192C11.9989 11.4806 12.2 11.5004 12.3827 11.5761C12.5654 11.6518 12.7216 11.78 12.8315 11.9444C12.9414 12.1089 13 12.3022 13 12.5C13 12.7652 12.8946 13.0196 12.7071 13.2071C12.5196 13.3946 12.2652 13.5 12 13.5Z" fill="currentColor"/>
  </symbol>
  <symbol id="ic_door_sensor" viewBox="0 0 24 24">
    <path d="M15.23 2.41998C14.9896 2.23298 14.7097 2.10334 14.4117 2.04095C14.1136 1.97857 13.8052 1.98507 13.51 2.05998L5.51 4.05998C5.07825 4.16908 4.69526 4.41916 4.42173 4.77058C4.14821 5.122 3.99979 5.55465 4 5.99998V18C3.99979 18.4453 4.14821 18.878 4.42173 19.2294C4.69526 19.5808 5.07825 19.8309 5.51 19.94L13.51 21.94C13.6703 21.9796 13.8348 21.9998 14 22C14.4453 22.0008 14.8782 21.853 15.23 21.58C15.4702 21.3926 15.6644 21.1529 15.7979 20.8791C15.9313 20.6053 16.0004 20.3046 16 20V3.99998C16.0004 3.69537 15.9313 3.39468 15.7979 3.12086C15.6644 2.84704 15.4702 2.60731 15.23 2.41998ZM13 13C12.8022 13 12.6089 12.9413 12.4444 12.8314C12.28 12.7216 12.1518 12.5654 12.0761 12.3827C12.0004 12.1999 11.9806 11.9989 12.0192 11.8049C12.0578 11.6109 12.153 11.4327 12.2929 11.2929C12.4327 11.153 12.6109 11.0578 12.8049 11.0192C12.9989 10.9806 13.2 11.0004 13.3827 11.0761C13.5654 11.1518 13.7216 11.28 13.8315 11.4444C13.9414 11.6089 14 11.8022 14 12C14 12.2652 13.8946 12.5195 13.7071 12.7071C13.5196 12.8946 13.2652 13 13 13ZM19 3.99998C18.7348 3.99998 18.4804 4.10533 18.2929 4.29287C18.1054 4.48041 18 4.73476 18 4.99998V19C18 19.2652 18.1054 19.5195 18.2929 19.7071C18.4804 19.8946 18.7348 20 19 20C19.2652 20 19.5196 19.8946 19.7071 19.7071C19.8946 19.5195 20 19.2652 20 19V4.99998C20 4.73476 19.8946 4.48041 19.7071 4.29287C19.5196 4.10533 19.2652 3.99998 19 3.99998Z" fill="currentColor"/>
  </symbol>
  <symbol id="ic_door_unlocked" viewBox="0 0 24 24">
    <path d="M16 9C17.0538 9.00187 18.0885 9.28124 19 9.81V5C19 4.20435 18.6839 3.44129 18.1213 2.87868C17.5587 2.31607 16.7956 2 16 2H8C7.20435 2 6.44129 2.31607 5.87868 2.87868C5.31607 3.44129 5 4.20435 5 5V19C5 19.7956 5.31607 20.5587 5.87868 21.1213C6.44129 21.6839 7.20435 22 8 22H10.09C10.0348 21.6694 10.0047 21.3351 10 21V15C10 13.4087 10.6321 11.8826 11.7574 10.7574C12.8826 9.63214 14.4087 9 16 9ZM8 13C7.80222 13 7.60888 12.9414 7.44443 12.8315C7.27998 12.7216 7.15181 12.5654 7.07612 12.3827C7.00043 12.2 6.98063 11.9989 7.01921 11.8049C7.0578 11.6109 7.15304 11.4327 7.29289 11.2929C7.43275 11.153 7.61093 11.0578 7.80491 11.0192C7.99889 10.9806 8.19996 11.0004 8.38268 11.0761C8.56541 11.1518 8.72159 11.28 8.83147 11.4444C8.94135 11.6089 9 11.8022 9 12C9 12.2652 8.89464 12.5196 8.70711 12.7071C8.51957 12.8946 8.26522 13 8 13ZM18 14H15C14.9992 13.8684 15.0245 13.7379 15.0742 13.6161C15.124 13.4943 15.1973 13.3834 15.29 13.29C15.4469 13.1351 15.6507 13.0364 15.8695 13.0093C16.0883 12.9821 16.31 13.0281 16.5 13.14C16.6138 13.2124 16.7411 13.2609 16.8742 13.2828C17.0073 13.3047 17.1434 13.2995 17.2744 13.2674C17.4054 13.2353 17.5285 13.177 17.6364 13.0961C17.7443 13.0152 17.8348 12.9133 17.9022 12.7965C17.9697 12.6798 18.0129 12.5506 18.0292 12.4167C18.0454 12.2828 18.0345 12.147 17.9969 12.0175C17.9593 11.8879 17.8959 11.7673 17.8105 11.663C17.7251 11.5586 17.6195 11.4725 17.5 11.41C16.9289 11.0793 16.2647 10.9461 15.6103 11.0311C14.9559 11.116 14.3477 11.4144 13.88 11.88C13.5683 12.1883 13.328 12.5612 13.176 12.9724C13.0239 13.3836 12.9639 13.8231 13 14.26C12.6948 14.4362 12.4416 14.6899 12.266 14.9955C12.0903 15.301 11.9986 15.6476 12 16V20C12 20.5304 12.2107 21.0391 12.5858 21.4142C12.9609 21.7893 13.4696 22 14 22H18C18.5304 22 19.0391 21.7893 19.4142 21.4142C19.7893 21.0391 20 20.5304 20 20V16C20 15.4696 19.7893 14.9609 19.4142 14.5858C19.0391 14.2107 18.5304 14 18 14ZM16 19C15.8022 19 15.6089 18.9414 15.4444 18.8315C15.28 18.7216 15.1518 18.5654 15.0761 18.3827C15.0004 18.2 14.9806 17.9989 15.0192 17.8049C15.0578 17.6109 15.153 17.4327 15.2929 17.2929C15.4327 17.153 15.6109 17.0578 15.8049 17.0192C15.9989 16.9806 16.2 17.0004 16.3827 17.0761C16.5654 17.1518 16.7216 17.28 16.8315 17.4444C16.9414 17.6089 17 17.8022 17 18C17 18.2652 16.8946 18.5196 16.7071 18.7071C16.5196 18.8946 16.2652 19 16 19Z" fill="currentColor"/>
  </symbol>
</svg>
