<!-- JioGames DLS — download icons (6 icons) -->
<svg xmlns="http://www.w3.org/2000/svg" style="display:none">
  <symbol id="ic_download" viewBox="0 0 24 24">
    <path d="M16 20.0002H8C7.45 20.0002 7 19.5502 7 19.0002C7 18.4502 7.45 18.0002 8 18.0002H16C16.55 18.0002 17 18.4502 17 19.0002C17 19.5502 16.55 20.0002 16 20.0002Z" fill="currentColor"/>
<path d="M16.71 10.2902C16.32 9.90023 15.69 9.90023 15.3 10.2902L13.01 12.5802V4.99023C13.01 4.44023 12.56 3.99023 12.01 3.99023C11.46 3.99023 11.01 4.44023 11.01 4.99023V12.5802L8.71996 10.2902C8.32996 9.90023 7.69996 9.90023 7.30996 10.2902C6.91996 10.6802 6.91996 11.3102 7.30996 11.7002L11.31 15.7002C11.51 15.9002 11.76 15.9902 12.02 15.9902C12.28 15.9902 12.53 15.8902 12.73 15.7002L16.73 11.7002C17.12 11.3102 17.12 10.6802 16.73 10.2902H16.71Z" fill="currentColor"/>
  </symbol>
  <symbol id="ic_download_fast" viewBox="0 0 24 24">
    <path d="M7.71409 7.71C7.9024 7.5217 8.00818 7.2663 8.00818 7C8.00818 6.7337 7.9024 6.4783 7.71409 6.29C7.52579 6.1017 7.27039 5.99591 7.00409 5.99591C6.73779 5.99591 6.4824 6.1017 6.29409 6.29L6.00409 6.59V3C6.00409 2.73478 5.89873 2.48043 5.7112 2.29289C5.52366 2.10536 5.26931 2 5.00409 2C4.73888 2 4.48452 2.10536 4.29699 2.29289C4.10945 2.48043 4.00409 2.73478 4.00409 3V6.59L3.71409 6.29C3.52579 6.1017 3.27039 5.99591 3.00409 5.99591C2.73779 5.99591 2.4824 6.1017 2.29409 6.29C2.10579 6.4783 2 6.7337 2 7C2 7.2663 2.10579 7.5217 2.29409 7.71L4.29409 9.71C4.38705 9.80373 4.49766 9.87812 4.61951 9.92889C4.74137 9.97966 4.87208 10.0058 5.00409 10.0058C5.1361 10.0058 5.26681 9.97966 5.38867 9.92889C5.51053 9.87812 5.62113 9.80373 5.71409 9.71L7.71409 7.71ZM16.5441 9.47H13.8741L15.8741 3.99C15.9894 3.6618 15.9855 3.30346 15.8629 2.97789C15.7403 2.65232 15.507 2.38033 15.2039 2.20967C14.9007 2.03901 14.5472 1.98058 14.2052 2.04464C13.8633 2.10871 13.5549 2.29117 13.3341 2.56L5.63409 12.18C5.41404 12.4731 5.27875 12.8209 5.24298 13.1857C5.20721 13.5504 5.27234 13.9179 5.43126 14.2482C5.59019 14.5784 5.83679 14.8586 6.14414 15.0582C6.45149 15.2578 6.80778 15.3691 7.17409 15.38H9.97409L8.16409 20C8.03635 20.3278 8.02954 20.6904 8.1449 21.0227C8.26025 21.355 8.49022 21.6354 8.79357 21.8136C9.09692 21.9917 9.45381 22.056 9.80025 21.9949C10.1467 21.9338 10.46 21.7512 10.6841 21.48L18.0541 12.73C18.29 12.4394 18.4396 12.0884 18.4859 11.717C18.5322 11.3456 18.4734 10.9686 18.316 10.629C18.1587 10.2893 17.9093 10.0006 17.596 9.79576C17.2828 9.59088 16.9183 9.47801 16.5441 9.47Z" fill="currentColor"/>
  </symbol>
  <symbol id="ic_download_queue" viewBox="0 0 24 24">
    <path d="M21.2399 8.16986C20.225 5.72069 18.2791 3.77477 15.8299 2.75986C13.6923 1.8734 11.3135 1.75575 9.09882 2.42695C6.88418 3.09815 4.97088 4.51666 3.68506 6.44066C2.39924 8.36467 1.82051 10.6751 2.04751 12.978C2.27452 15.281 3.29321 17.4339 4.92993 19.0699C6.32845 20.468 8.11009 21.42 10.0496 21.8057C11.9891 22.1914 13.9995 21.9933 15.8265 21.2366C17.6535 20.4799 19.2151 19.1985 20.314 17.5544C21.4128 15.9103 21.9995 13.9774 21.9999 11.9999C21.9981 10.6859 21.74 9.38494 21.2399 8.16986ZM13.9999 18.9999H9.99994C9.73472 18.9999 9.48036 18.8945 9.29283 18.707C9.10529 18.5194 8.99993 18.2651 8.99993 17.9999C8.99993 17.7346 9.10529 17.4803 9.29283 17.2928C9.48036 17.1052 9.73472 16.9999 9.99994 16.9999H13.9999C14.2652 16.9999 14.5195 17.1052 14.707 17.2928C14.8946 17.4803 14.9999 17.7346 14.9999 17.9999C14.9999 18.2651 14.8946 18.5194 14.707 18.707C14.5195 18.8945 14.2652 18.9999 13.9999 18.9999ZM15.7099 11.7099L12.7099 14.7099C12.6148 14.8009 12.5027 14.8723 12.3799 14.9199C12.2602 14.9728 12.1308 15.0001 11.9999 15.0001C11.8691 15.0001 11.7396 14.9728 11.6199 14.9199C11.4972 14.8723 11.385 14.8009 11.2899 14.7099L8.28993 11.7099C8.10163 11.5216 7.99584 11.2662 7.99584 10.9999C7.99584 10.7336 8.10163 10.4782 8.28993 10.2899C8.47824 10.1016 8.73363 9.99577 8.99993 9.99577C9.26624 9.99577 9.52163 10.1016 9.70993 10.2899L10.9999 11.5899V5.99986C10.9999 5.73464 11.1053 5.48029 11.2928 5.29275C11.4804 5.10522 11.7347 4.99986 11.9999 4.99986C12.2652 4.99986 12.5195 5.10522 12.707 5.29275C12.8946 5.48029 12.9999 5.73464 12.9999 5.99986V11.5899L14.2899 10.2899C14.4782 10.1016 14.7336 9.99577 14.9999 9.99577C15.2662 9.99577 15.5216 10.1016 15.7099 10.2899C15.8982 10.4782 16.004 10.7336 16.004 10.9999C16.004 11.2662 15.8982 11.5216 15.7099 11.7099Z" fill="currentColor"/>
  </symbol>
  <symbol id="ic_download_queue_bottom" viewBox="0 0 24 24">
    <path d="M4 7H10C10.2652 7 10.5196 6.89464 10.7071 6.70711C10.8946 6.51957 11 6.26522 11 6C11 5.73478 10.8946 5.48043 10.7071 5.29289C10.5196 5.10536 10.2652 5 10 5H4C3.73478 5 3.48043 5.10536 3.29289 5.29289C3.10536 5.48043 3 5.73478 3 6C3 6.26522 3.10536 6.51957 3.29289 6.70711C3.48043 6.89464 3.73478 7 4 7ZM4 13H10C10.2652 13 10.5196 12.8946 10.7071 12.7071C10.8946 12.5196 11 12.2652 11 12C11 11.7348 10.8946 11.4804 10.7071 11.2929C10.5196 11.1054 10.2652 11 10 11H4C3.73478 11 3.48043 11.1054 3.29289 11.2929C3.10536 11.4804 3 11.7348 3 12C3 12.2652 3.10536 12.5196 3.29289 12.7071C3.48043 12.8946 3.73478 13 4 13ZM20.21 10.29C20.117 10.1963 20.0064 10.1219 19.8846 10.0711C19.7627 10.0203 19.632 9.9942 19.5 9.9942C19.368 9.9942 19.2373 10.0203 19.1154 10.0711C18.9936 10.1219 18.883 10.1963 18.79 10.29L17.5 11.59V6C17.5 5.73478 17.3946 5.48043 17.2071 5.29289C17.0196 5.10536 16.7652 5 16.5 5C16.2348 5 15.9804 5.10536 15.7929 5.29289C15.6054 5.48043 15.5 5.73478 15.5 6V11.59L14.21 10.29C14.0217 10.1017 13.7663 9.99591 13.5 9.99591C13.2337 9.99591 12.9783 10.1017 12.79 10.29C12.6017 10.4783 12.4959 10.7337 12.4959 11C12.4959 11.2663 12.6017 11.5217 12.79 11.71L15.79 14.71C15.883 14.8037 15.9936 14.8781 16.1154 14.9289C16.2373 14.9797 16.368 15.0058 16.5 15.0058C16.632 15.0058 16.7627 14.9797 16.8846 14.9289C17.0064 14.8781 17.117 14.8037 17.21 14.71L20.21 11.71C20.3037 11.617 20.3781 11.5064 20.4289 11.3846C20.4797 11.2627 20.5058 11.132 20.5058 11C20.5058 10.868 20.4797 10.7373 20.4289 10.6154C20.3781 10.4936 20.3037 10.383 20.21 10.29ZM19 17H4C3.73478 17 3.48043 17.1054 3.29289 17.2929C3.10536 17.4804 3 17.7348 3 18C3 18.2652 3.10536 18.5196 3.29289 18.7071C3.48043 18.8946 3.73478 19 4 19H19C19.2652 19 19.5196 18.8946 19.7071 18.7071C19.8946 18.5196 20 18.2652 20 18C20 17.7348 19.8946 17.4804 19.7071 17.2929C19.5196 17.1054 19.2652 17 19 17Z" fill="currentColor"/>
  </symbol>
  <symbol id="ic_download_queue_top" viewBox="0 0 24 24">
    <path d="M10 17H4C3.73478 17 3.48043 17.1054 3.29289 17.2929C3.10536 17.4804 3 17.7348 3 18C3 18.2652 3.10536 18.5196 3.29289 18.7071C3.48043 18.8946 3.73478 19 4 19H10C10.2652 19 10.5196 18.8946 10.7071 18.7071C10.8946 18.5196 11 18.2652 11 18C11 17.7348 10.8946 17.4804 10.7071 17.2929C10.5196 17.1054 10.2652 17 10 17ZM10 11H4C3.73478 11 3.48043 11.1054 3.29289 11.2929C3.10536 11.4804 3 11.7348 3 12C3 12.2652 3.10536 12.5196 3.29289 12.7071C3.48043 12.8946 3.73478 13 4 13H10C10.2652 13 10.5196 12.8946 10.7071 12.7071C10.8946 12.5196 11 12.2652 11 12C11 11.7348 10.8946 11.4804 10.7071 11.2929C10.5196 11.1054 10.2652 11 10 11ZM18.79 14.29L17.5 15.59V11.5C17.5 11.2348 17.3946 10.9804 17.2071 10.7929C17.0196 10.6054 16.7652 10.5 16.5 10.5C16.2348 10.5 15.9804 10.6054 15.7929 10.7929C15.6054 10.9804 15.5 11.2348 15.5 11.5V15.59L14.21 14.29C14.0217 14.1017 13.7663 13.9959 13.5 13.9959C13.2337 13.9959 12.9783 14.1017 12.79 14.29C12.6017 14.4783 12.4959 14.7337 12.4959 15C12.4959 15.2663 12.6017 15.5217 12.79 15.71L15.79 18.71C15.883 18.8037 15.9936 18.8781 16.1154 18.9289C16.2373 18.9797 16.368 19.0058 16.5 19.0058C16.632 19.0058 16.7627 18.9797 16.8846 18.9289C17.0064 18.8781 17.117 18.8037 17.21 18.71L20.21 15.71C20.3032 15.6168 20.3772 15.5061 20.4277 15.3842C20.4781 15.2624 20.5041 15.1319 20.5041 15C20.5041 14.8681 20.4781 14.7376 20.4277 14.6158C20.3772 14.4939 20.3032 14.3832 20.21 14.29C20.1168 14.1968 20.0061 14.1228 19.8842 14.0723C19.7624 14.0219 19.6319 13.9959 19.5 13.9959C19.3681 13.9959 19.2376 14.0219 19.1158 14.0723C18.9939 14.1228 18.8832 14.1968 18.79 14.29ZM20 5H4C3.73478 5 3.48043 5.10536 3.29289 5.29289C3.10536 5.48043 3 5.73478 3 6C3 6.26522 3.10536 6.51957 3.29289 6.70711C3.48043 6.89464 3.73478 7 4 7H20C20.2652 7 20.5196 6.89464 20.7071 6.70711C20.8946 6.51957 21 6.26522 21 6C21 5.73478 20.8946 5.48043 20.7071 5.29289C20.5196 5.10536 20.2652 5 20 5Z" fill="currentColor"/>
  </symbol>
  <symbol id="ic_download_remove" viewBox="0 0 24 24">
    <path d="M16 18.9998H8C7.45 18.9998 7 18.5498 7 17.9998C7 17.4498 7.45 16.9998 8 16.9998H16C16.55 16.9998 17 17.4498 17 17.9998C17 18.5498 16.55 18.9998 16 18.9998Z" fill="currentColor"/>
<path d="M13.41 9.99982L16.7 6.70982C17.09 6.31982 17.09 5.68982 16.7 5.29982C16.31 4.90982 15.68 4.90982 15.29 5.29982L12 8.58982L8.71 5.29982C8.32 4.90982 7.69 4.90982 7.3 5.29982C6.91 5.68982 6.91 6.31982 7.3 6.70982L10.59 9.99982L7.3 13.2898C6.91 13.6798 6.91 14.3098 7.3 14.6998C7.5 14.8998 7.75 14.9898 8.01 14.9898C8.27 14.9898 8.52 14.8898 8.72 14.6998L12.01 11.4098L15.3 14.6998C15.5 14.8998 15.75 14.9898 16.01 14.9898C16.27 14.9898 16.52 14.8898 16.72 14.6998C17.11 14.3098 17.11 13.6798 16.72 13.2898L13.43 9.99982H13.41Z" fill="currentColor"/>
  </symbol>
</svg>
