<!-- JioGames DLS — dual icons (4 icons) -->
<svg xmlns="http://www.w3.org/2000/svg" style="display:none">
  <symbol id="ic_dual_band" viewBox="0 0 24 24">
    <path d="M14.1039 9.07292C14.1039 7.9053 13.1486 6.94997 11.981 6.94997C10.8133 6.94997 9.85801 7.9053 9.85801 9.07292C9.85801 9.72042 10.1552 10.2936 10.6117 10.6864L8.81776 20.5475C8.71162 21.1207 9.09375 21.6726 9.66694 21.7788C9.73063 21.7894 9.79432 21.8 9.85801 21.8C10.3569 21.8 10.8027 21.4391 10.8983 20.9296L11.981 15.0066L13.0637 20.9296C13.1592 21.4391 13.605 21.8 14.1039 21.8C14.1676 21.8 14.2313 21.8 14.295 21.7788C14.8682 21.6726 15.2503 21.1207 15.1442 20.5475L13.3503 10.6864C13.8067 10.2936 14.1039 9.72042 14.1039 9.07292Z" fill="currentColor"/>
<path d="M20.2392 2.39624C19.8677 1.93981 19.199 1.86551 18.7425 2.23702C18.2861 2.60854 18.2118 3.27727 18.5833 3.7337C19.804 5.241 20.4728 7.13042 20.4728 9.07292C20.4728 11.0154 19.8253 12.8836 18.5833 14.4121C18.2118 14.8686 18.2861 15.5373 18.7425 15.9088C18.9336 16.068 19.1778 16.1423 19.4113 16.1423C19.7191 16.1423 20.0269 16.0043 20.2392 15.7496C21.7571 13.8708 22.5957 11.5037 22.5957 9.07292C22.5957 6.64214 21.7571 4.27505 20.2392 2.39624Z" fill="currentColor"/>
<path d="M15.59 5.03932C15.1229 5.3896 15.0274 6.05833 15.3777 6.52538C15.9296 7.26841 16.2269 8.14944 16.2269 9.07292C16.2269 9.9964 15.9296 10.8774 15.3777 11.6205C15.0274 12.0875 15.1229 12.7562 15.59 13.1065C15.781 13.2551 16.0039 13.3188 16.2269 13.3188C16.5453 13.3188 16.8637 13.1702 17.076 12.8942C17.9146 11.7903 18.3498 10.4635 18.3498 9.07292C18.3498 7.68239 17.904 6.35555 17.076 5.25161C16.7257 4.78456 16.057 4.68903 15.59 5.03932Z" fill="currentColor"/>
<path d="M5.21936 2.23702C4.76293 1.86551 4.0942 1.93981 3.72268 2.39624C2.20478 4.27505 1.36621 6.65276 1.36621 9.07292C1.36621 11.4931 2.20478 13.8708 3.72268 15.7496C3.93498 16.0043 4.24281 16.1423 4.55063 16.1423C4.78416 16.1423 5.01768 16.068 5.21936 15.9088C5.6758 15.5373 5.7501 14.8686 5.37858 14.4121C4.15789 12.9048 3.48916 11.0154 3.48916 9.07292C3.48916 7.13042 4.13666 5.26223 5.37858 3.7337C5.7501 3.27727 5.6758 2.60854 5.21936 2.23702Z" fill="currentColor"/>
<path d="M8.37194 5.03932C7.90489 4.68903 7.23617 4.78456 6.88588 5.25161C6.04731 6.35555 5.61211 7.68239 5.61211 9.07292C5.61211 10.4635 6.05793 11.7903 6.88588 12.8942C7.09817 13.1702 7.41662 13.3188 7.73506 13.3188C7.95797 13.3188 8.18088 13.2445 8.37194 13.1065C8.83899 12.7562 8.93453 12.0875 8.58424 11.6205C8.03227 10.8774 7.73506 9.9964 7.73506 9.07292C7.73506 8.14944 8.03227 7.26841 8.58424 6.52538C8.93453 6.05833 8.83899 5.3896 8.37194 5.03932Z" fill="currentColor"/>
  </symbol>
  <symbol id="ic_dual_camera" viewBox="0 0 24 24">
    <path d="M12 15C11.8022 15 11.6089 15.0586 11.4444 15.1685C11.28 15.2784 11.1518 15.4346 11.0761 15.6173C11.0004 15.8 10.9806 16.0011 11.0192 16.1951C11.0578 16.3891 11.153 16.5673 11.2929 16.7071C11.4327 16.847 11.6109 16.9422 11.8049 16.9808C11.9989 17.0194 12.2 16.9996 12.3827 16.9239C12.5654 16.8482 12.7216 16.72 12.8315 16.5556C12.9414 16.3911 13 16.1978 13 16C13 15.7348 12.8946 15.4804 12.7071 15.2929C12.5196 15.1054 12.2652 15 12 15ZM12 2C10.4087 2 8.88258 2.63214 7.75736 3.75736C6.63214 4.88258 6 6.4087 6 8V16C6 17.5913 6.63214 19.1174 7.75736 20.2426C8.88258 21.3679 10.4087 22 12 22C13.5913 22 15.1174 21.3679 16.2426 20.2426C17.3679 19.1174 18 17.5913 18 16V8C18 6.4087 17.3679 4.88258 16.2426 3.75736C15.1174 2.63214 13.5913 2 12 2ZM12 19C11.4067 19 10.8266 18.8241 10.3333 18.4944C9.83994 18.1648 9.45542 17.6962 9.22836 17.1481C9.0013 16.5999 8.94189 15.9967 9.05764 15.4147C9.1734 14.8328 9.45912 14.2982 9.87868 13.8787C10.2982 13.4591 10.8328 13.1734 11.4147 13.0576C11.9967 12.9419 12.5999 13.0013 13.1481 13.2284C13.6962 13.4554 14.1648 13.8399 14.4944 14.3333C14.8241 14.8266 15 15.4067 15 16C15 16.7956 14.6839 17.5587 14.1213 18.1213C13.5587 18.6839 12.7956 19 12 19ZM12 11C11.4067 11 10.8266 10.8241 10.3333 10.4944C9.83994 10.1648 9.45542 9.69623 9.22836 9.14805C9.0013 8.59987 8.94189 7.99667 9.05764 7.41473C9.1734 6.83279 9.45912 6.29824 9.87868 5.87868C10.2982 5.45912 10.8328 5.1734 11.4147 5.05764C11.9967 4.94189 12.5999 5.0013 13.1481 5.22836C13.6962 5.45542 14.1648 5.83994 14.4944 6.33329C14.8241 6.82664 15 7.40666 15 8C15 8.79565 14.6839 9.55871 14.1213 10.1213C13.5587 10.6839 12.7956 11 12 11ZM12 7C11.8022 7 11.6089 7.05865 11.4444 7.16853C11.28 7.27841 11.1518 7.43459 11.0761 7.61732C11.0004 7.80004 10.9806 8.00111 11.0192 8.19509C11.0578 8.38907 11.153 8.56725 11.2929 8.70711C11.4327 8.84696 11.6109 8.9422 11.8049 8.98079C11.9989 9.01937 12.2 8.99957 12.3827 8.92388C12.5654 8.84819 12.7216 8.72002 12.8315 8.55557C12.9414 8.39112 13 8.19778 13 8C13 7.73478 12.8946 7.48043 12.7071 7.29289C12.5196 7.10536 12.2652 7 12 7Z" fill="currentColor"/>
  </symbol>
  <symbol id="ic_dual_camera_horizontal" viewBox="0 0 24 24">
    <path d="M8 11C7.80222 11 7.60888 11.0586 7.44443 11.1685C7.27998 11.2784 7.15181 11.4346 7.07612 11.6173C7.00043 11.8 6.98063 12.0011 7.01921 12.1951C7.0578 12.3891 7.15304 12.5673 7.29289 12.7071C7.43275 12.847 7.61093 12.9422 7.80491 12.9808C7.99889 13.0194 8.19996 12.9996 8.38268 12.9239C8.56541 12.8482 8.72159 12.72 8.83147 12.5556C8.94135 12.3911 9 12.1978 9 12C9 11.7348 8.89464 11.4804 8.70711 11.2929C8.51957 11.1054 8.26522 11 8 11ZM16 6H8C6.4087 6 4.88258 6.63214 3.75736 7.75736C2.63214 8.88258 2 10.4087 2 12C2 13.5913 2.63214 15.1174 3.75736 16.2426C4.88258 17.3679 6.4087 18 8 18H16C17.5913 18 19.1174 17.3679 20.2426 16.2426C21.3679 15.1174 22 13.5913 22 12C22 10.4087 21.3679 8.88258 20.2426 7.75736C19.1174 6.63214 17.5913 6 16 6ZM8 15C7.40666 15 6.82664 14.8241 6.33329 14.4944C5.83994 14.1648 5.45542 13.6962 5.22836 13.1481C5.0013 12.5999 4.94189 11.9967 5.05764 11.4147C5.1734 10.8328 5.45912 10.2982 5.87868 9.87868C6.29824 9.45912 6.83279 9.1734 7.41473 9.05764C7.99667 8.94189 8.59987 9.0013 9.14805 9.22836C9.69623 9.45542 10.1648 9.83994 10.4944 10.3333C10.8241 10.8266 11 11.4067 11 12C11 12.7956 10.6839 13.5587 10.1213 14.1213C9.55871 14.6839 8.79565 15 8 15ZM16 15C15.4067 15 14.8266 14.8241 14.3333 14.4944C13.8399 14.1648 13.4554 13.6962 13.2284 13.1481C13.0013 12.5999 12.9419 11.9967 13.0576 11.4147C13.1734 10.8328 13.4591 10.2982 13.8787 9.87868C14.2982 9.45912 14.8328 9.1734 15.4147 9.05764C15.9967 8.94189 16.5999 9.0013 17.1481 9.22836C17.6962 9.45542 18.1648 9.83994 18.4944 10.3333C18.8241 10.8266 19 11.4067 19 12C19 12.7956 18.6839 13.5587 18.1213 14.1213C17.5587 14.6839 16.7956 15 16 15ZM16 11C15.8022 11 15.6089 11.0586 15.4444 11.1685C15.28 11.2784 15.1518 11.4346 15.0761 11.6173C15.0004 11.8 14.9806 12.0011 15.0192 12.1951C15.0578 12.3891 15.153 12.5673 15.2929 12.7071C15.4327 12.847 15.6109 12.9422 15.8049 12.9808C15.9989 13.0194 16.2 12.9996 16.3827 12.9239C16.5654 12.8482 16.7216 12.72 16.8315 12.5556C16.9414 12.3911 17 12.1978 17 12C17 11.7348 16.8946 11.4804 16.7071 11.2929C16.5196 11.1054 16.2652 11 16 11Z" fill="currentColor"/>
  </symbol>
  <symbol id="ic_dual_sim" viewBox="0 0 24 24">
    <path d="M18 6V16C18 17.0609 17.5786 18.0783 16.8284 18.8284C16.0783 19.5786 15.0609 20 14 20H8C8 20.5304 8.21071 21.0391 8.58579 21.4142C8.96086 21.7893 9.46957 22 10 22H15C16.3261 22 17.5979 21.4732 18.5355 20.5355C19.4732 19.5979 20 18.3261 20 17V8C20 7.46957 19.7893 6.96086 19.4142 6.58579C19.0391 6.21071 18.5304 6 18 6ZM16 16V4C16 3.46957 15.7893 2.96086 15.4142 2.58579C15.0391 2.21071 14.5304 2 14 2H9.79C9.389 2.00029 8.99213 2.08097 8.62285 2.23727C8.25356 2.39358 7.91936 2.62233 7.64 2.91L4.85 5.78C4.30551 6.33952 4.00059 7.08927 4 7.87V16C4 16.5304 4.21071 17.0391 4.58579 17.4142C4.96086 17.7893 5.46957 18 6 18H14C14.5304 18 15.0391 17.7893 15.4142 17.4142C15.7893 17.0391 16 16.5304 16 16ZM6 10H8V12H6V10ZM10 16H6.5C6.36739 16 6.24021 15.9473 6.14645 15.8536C6.05268 15.7598 6 15.6326 6 15.5V14H10V16ZM10 10H14V12H10V10ZM13.5 16H12V14H14V15.5C14 15.6326 13.9473 15.7598 13.8536 15.8536C13.7598 15.9473 13.6326 16 13.5 16Z" fill="currentColor"/>
  </symbol>
</svg>
