<!-- JioGames DLS — e icons (5 icons) -->
<svg xmlns="http://www.w3.org/2000/svg" style="display:none">
  <symbol id="ic_e_book_reader" viewBox="0 0 24 24">
    <path d="M17 2H7C6.20435 2 5.44129 2.31607 4.87868 2.87868C4.31607 3.44129 4 4.20435 4 5V19C4 19.7956 4.31607 20.5587 4.87868 21.1213C5.44129 21.6839 6.20435 22 7 22H17C17.7956 22 18.5587 21.6839 19.1213 21.1213C19.6839 20.5587 20 19.7956 20 19V5C20 4.20435 19.6839 3.44129 19.1213 2.87868C18.5587 2.31607 17.7956 2 17 2ZM12 20C11.8022 20 11.6089 19.9414 11.4444 19.8315C11.28 19.7216 11.1518 19.5654 11.0761 19.3827C11.0004 19.2 10.9806 18.9989 11.0192 18.8049C11.0578 18.6109 11.153 18.4327 11.2929 18.2929C11.4327 18.153 11.6109 18.0578 11.8049 18.0192C11.9989 17.9806 12.2 18.0004 12.3827 18.0761C12.5654 18.1518 12.7216 18.28 12.8315 18.4444C12.9414 18.6089 13 18.8022 13 19C13 19.2652 12.8946 19.5196 12.7071 19.7071C12.5196 19.8946 12.2652 20 12 20ZM14 11H8C7.73478 11 7.48043 10.8946 7.29289 10.7071C7.10536 10.5196 7 10.2652 7 10C7 9.73478 7.10536 9.48043 7.29289 9.29289C7.48043 9.10536 7.73478 9 8 9H14C14.2652 9 14.5196 9.10536 14.7071 9.29289C14.8946 9.48043 15 9.73478 15 10C15 10.2652 14.8946 10.5196 14.7071 10.7071C14.5196 10.8946 14.2652 11 14 11ZM16 7H8C7.73478 7 7.48043 6.89464 7.29289 6.70711C7.10536 6.51957 7 6.26522 7 6C7 5.73478 7.10536 5.48043 7.29289 5.29289C7.48043 5.10536 7.73478 5 8 5H16C16.2652 5 16.5196 5.10536 16.7071 5.29289C16.8946 5.48043 17 5.73478 17 6C17 6.26522 16.8946 6.51957 16.7071 6.70711C16.5196 6.89464 16.2652 7 16 7Z" fill="currentColor"/>
  </symbol>
  <symbol id="ic_e_mail" viewBox="0 0 24 24">
    <path d="M12.59 11.34L20.59 5.49C20.1168 5.18003 19.5656 5.01016 19 5H5C4.42076 5.00255 3.85463 5.17273 3.37 5.49L11.37 11.34C11.5449 11.4746 11.7593 11.5476 11.98 11.5476C12.2007 11.5476 12.4151 11.4746 12.59 11.34ZM21.84 7.08L13.76 13C13.2481 13.3708 12.6321 13.5705 12 13.5705C11.3679 13.5705 10.7519 13.3708 10.24 13L2.16 7.08C2.05591 7.37564 2.00184 7.68657 2 8V16C2 16.7956 2.31607 17.5587 2.87868 18.1213C3.44129 18.6839 4.20435 19 5 19H19C19.7956 19 20.5587 18.6839 21.1213 18.1213C21.6839 17.5587 22 16.7956 22 16V8C21.9982 7.68657 21.9441 7.37564 21.84 7.08Z" fill="currentColor"/>
  </symbol>
  <symbol id="ic_e_sim" viewBox="0 0 24 24">
    <path d="M18.12 2.88C17.56 2.32 16.79 2 16 2H11C10.54 2 10.09 2.09 9.68 2.29C9.27 2.49 8.91 2.77 8.62 3.13L5.62 6.83C5.21 7.37 5 8.02 5 8.7V19C5 19.8 5.32 20.56 5.88 21.12C6.44 21.68 7.21 22 8 22H16C16.8 22 17.56 21.68 18.12 21.12C18.68 20.56 19 19.79 19 19V5C19 4.2 18.68 3.44 18.12 2.88ZM8.27 5.44C9.29 4.52 10.63 4 12.01 4C13.39 4 14.72 4.51 15.75 5.44C15.83 5.51 15.88 5.61 15.88 5.72C15.88 5.83 15.85 5.93 15.78 6.01C15.74 6.05 15.7 6.08 15.65 6.11C15.6 6.13 15.54 6.14 15.49 6.14C15.39 6.14 15.3 6.11 15.22 6.04C14.34 5.25 13.2 4.81 12.02 4.81C10.84 4.81 9.7 5.25 8.82 6.04C8.74 6.11 8.64 6.15 8.53 6.14C8.42 6.13 8.32 6.09 8.25 6.01C8.18 5.93 8.14 5.83 8.15 5.72C8.16 5.61 8.2 5.51 8.28 5.44H8.27ZM12 8.01C11.66 8.01 11.32 8.12 11.04 8.33C10.96 8.39 10.85 8.42 10.74 8.41C10.63 8.39 10.54 8.34 10.48 8.25C10.42 8.17 10.39 8.06 10.4 7.95C10.42 7.84 10.47 7.75 10.56 7.69C10.97 7.38 11.48 7.21 12 7.21C12.52 7.21 13.02 7.38 13.44 7.69C13.52 7.74905 13.54 7.81 13.54 7.81C13.54 7.81 13.59 7.875 13.59 7.96C13.59 7.96 13.6047 8.04671 13.59 8.12C13.58 8.17 13.55 8.22 13.52 8.26C13.48 8.31 13.43 8.35 13.38 8.38C13.33 8.41 13.26 8.42 13.2 8.42C13.11 8.42 13.03 8.39 12.96 8.34C12.68 8.13 12.35 8.01 12 8.01ZM12.6 9.4C12.6 9.52 12.56 9.63 12.5 9.73C12.44 9.83 12.34 9.91 12.23 9.95C12.12 10 12 10.01 11.88 9.98C11.76 9.96 11.66 9.9 11.57 9.82C11.49 9.74 11.43 9.63 11.41 9.51C11.39 9.39 11.4 9.27 11.44 9.16C11.49 9.05 11.56 8.96 11.66 8.89C11.76 8.82 11.87 8.79 11.99 8.79C12.15 8.79 12.3 8.85 12.41 8.97C12.52 9.08 12.59 9.24 12.59 9.39L12.6 9.4ZM12 6.4C11.24 6.4 10.5 6.67 9.92 7.16C9.84 7.23 9.73 7.26 9.63 7.25C9.52 7.25 9.43 7.19 9.36 7.11C9.29 7.03 9.26 6.92 9.27 6.82C9.27 6.71 9.33 6.62 9.41 6.55C10.13 5.93 11.05 5.59 12.01 5.59C12.96 5.59 13.88 5.93 14.61 6.55C14.69 6.62 14.74 6.72 14.75 6.82C14.75 6.93 14.72 7.03 14.66 7.11C14.59 7.19 14.49 7.24 14.39 7.25C14.28 7.25 14.18 7.22 14.1 7.16C13.52 6.67 12.77 6.4 12 6.4ZM7 12H10V15H7V12ZM12 20H8C7.73 20 7.48 19.89 7.29 19.71C7.1 19.52 7 19.27 7 19V17H12V20ZM17 19C17 19.27 16.89 19.52 16.71 19.71C16.52 19.9 16.27 20 16 20H14V17H17V19ZM17 15H12V12H17V15Z" fill="currentColor"/>
  </symbol>
  <symbol id="ic_ice" viewBox="0 0 24 24">
    <path d="M20.2901 15.63L18.9201 14.84L20.0001 14.55C20.5301 14.41 20.8501 13.86 20.7101 13.33C20.5701 12.8 20.0201 12.48 19.4901 12.62L16.4801 13.43L14.0101 12L16.4801 10.57L19.4901 11.38C19.5801 11.4 19.6601 11.41 19.7501 11.41C20.1901 11.41 20.6001 11.12 20.7201 10.67C20.8601 10.14 20.5501 9.59 20.0101 9.45L18.9301 9.16L20.3001 8.37C20.7801 8.09 20.9401 7.48 20.6701 7C20.3901 6.52 19.7801 6.36 19.3001 6.63L17.9301 7.42L18.2201 6.34C18.3601 5.81 18.0501 5.26 17.5101 5.12C16.9801 4.98 16.4301 5.29 16.2901 5.83L15.4801 8.84L13.0101 10.27V7.42L15.2201 5.21C15.6101 4.82 15.6101 4.19 15.2201 3.8C14.8301 3.41 14.2001 3.41 13.8101 3.8L13.0201 4.59V3C13.0201 2.45 12.5701 2 12.0201 2C11.4701 2 11.0201 2.45 11.0201 3V4.59L10.2301 3.8C9.84009 3.41 9.21008 3.41 8.82009 3.8C8.43009 4.19 8.43009 4.82 8.82009 5.21L11.0301 7.42V10.27L8.56009 8.84L7.75009 5.83C7.61009 5.3 7.06009 4.98 6.53009 5.12C6.00009 5.26 5.68009 5.81 5.82009 6.34L6.11009 7.42L4.74009 6.63C4.26008 6.35 3.65009 6.52 3.37009 7C3.09009 7.48 3.26009 8.09 3.74009 8.37L5.11009 9.16L4.03009 9.45C3.50009 9.59 3.18009 10.14 3.32009 10.67C3.44009 11.12 3.84009 11.41 4.29009 11.41C4.38009 11.41 4.46009 11.4 4.55009 11.38L7.56009 10.57L10.0301 12L7.56009 13.43L4.55009 12.62C4.02009 12.48 3.47009 12.79 3.33009 13.33C3.19009 13.86 3.50009 14.41 4.04009 14.55L5.12009 14.84L3.75009 15.63C3.27009 15.91 3.11009 16.52 3.38009 17C3.57009 17.32 3.90009 17.5 4.25009 17.5C4.42009 17.5 4.59009 17.46 4.75009 17.37L6.12009 16.58L5.83009 17.66C5.69009 18.19 6.00009 18.74 6.54009 18.88C6.63009 18.9 6.71009 18.91 6.80009 18.91C7.24009 18.91 7.65009 18.62 7.77009 18.17L8.58009 15.16L11.0501 13.73V16.58L8.84009 18.79C8.45009 19.18 8.45009 19.81 8.84009 20.2C9.23009 20.59 9.86009 20.59 10.2501 20.2L11.0401 19.41V21C11.0401 21.55 11.4901 22 12.0401 22C12.5901 22 13.0401 21.55 13.0401 21V19.41L13.8301 20.2C14.0301 20.4 14.2801 20.49 14.5401 20.49C14.8001 20.49 15.0501 20.39 15.2501 20.2C15.6401 19.81 15.6401 19.18 15.2501 18.79L13.0401 16.58V13.73L15.5101 15.16L16.3201 18.17C16.4401 18.62 16.8401 18.91 17.2901 18.91C17.3801 18.91 17.4601 18.9 17.5501 18.88C18.0801 18.74 18.4001 18.19 18.2601 17.66L17.9701 16.58L19.3401 17.37C19.5001 17.46 19.6701 17.5 19.8401 17.5C20.1901 17.5 20.5201 17.32 20.7101 17C20.9901 16.52 20.8201 15.91 20.3401 15.63H20.2901Z" fill="currentColor"/>
  </symbol>
  <symbol id="ic_ice_skating" viewBox="0 0 24 24">
    <path d="M17.5 6C17.7967 6 18.0867 5.91203 18.3334 5.7472C18.58 5.58238 18.7723 5.34811 18.8858 5.07403C18.9993 4.79994 19.0291 4.49834 18.9712 4.20737C18.9133 3.91639 18.7704 3.64912 18.5607 3.43934C18.3509 3.22956 18.0836 3.0867 17.7926 3.02882C17.5017 2.97094 17.2001 3.00065 16.926 3.11418C16.6519 3.22771 16.4176 3.41997 16.2528 3.66665C16.088 3.91332 16 4.20333 16 4.5C16 4.89783 16.158 5.27936 16.4393 5.56066C16.7206 5.84197 17.1022 6 17.5 6ZM20 17C19.7348 17 19.4804 17.1054 19.2929 17.2929C19.1054 17.4804 19 17.7348 19 18V19H17V14C16.9991 13.8353 16.9576 13.6733 16.8791 13.5286C16.8006 13.3838 16.6876 13.2606 16.55 13.17L13.77 11.31L15.77 8.6C15.8718 8.45605 15.9338 8.28773 15.9496 8.11211C15.9654 7.9365 15.9345 7.75982 15.86 7.6C15.7862 7.43018 15.6668 7.28417 15.515 7.17823C15.3631 7.0723 15.1848 7.0106 15 7H8C7.73478 7 7.48043 7.10536 7.29289 7.29289C7.10536 7.48043 7 7.73478 7 8C7 8.26522 7.10536 8.51957 7.29289 8.70711C7.48043 8.89464 7.73478 9 8 9H13L8.5 15H5V13C5 12.7348 4.89464 12.4804 4.70711 12.2929C4.51957 12.1054 4.26522 12 4 12C3.73478 12 3.48043 12.1054 3.29289 12.2929C3.10536 12.4804 3 12.7348 3 13V19C3 19.5304 3.21071 20.0391 3.58579 20.4142C3.96086 20.7893 4.46957 21 5 21H6C6.26522 21 6.51957 20.8946 6.70711 20.7071C6.89464 20.5196 7 20.2652 7 20C7 19.7348 6.89464 19.4804 6.70711 19.2929C6.51957 19.1054 6.26522 19 6 19H5V17H9C9.15525 17 9.30836 16.9639 9.44721 16.8944C9.58607 16.825 9.70685 16.7242 9.8 16.6L12.57 12.91L15 14.54V19H13C12.7348 19 12.4804 19.1054 12.2929 19.2929C12.1054 19.4804 12 19.7348 12 20C12 20.2652 12.1054 20.5196 12.2929 20.7071C12.4804 20.8946 12.7348 21 13 21H19C19.5304 21 20.0391 20.7893 20.4142 20.4142C20.7893 20.0391 21 19.5304 21 19V18C21 17.7348 20.8946 17.4804 20.7071 17.2929C20.5196 17.1054 20.2652 17 20 17Z" fill="currentColor"/>
  </symbol>
</svg>
