<!-- JioGames DLS — ear icons (2 icons) -->
<svg xmlns="http://www.w3.org/2000/svg" style="display:none">
  <symbol id="ic_ear" viewBox="0 0 24 24">
    <path d="M13 2C8.58 2 5 5.58 5 10V17C5 19.76 7.24 22 10 22C12.5 22 14.56 20.16 14.92 17.76C18.41 16.9 21 13.76 21 10C21 5.58 17.42 2 13 2ZM10 20C9.45 20 9 19.55 9 19C9 18.45 9.45 18 10 18C10.55 18 11 17.55 11 17C11 16.45 11.45 16 12 16C12.55 16 13 16.45 13 17C13 18.65 11.65 20 10 20ZM17.24 14.24C17.04 14.44 16.79 14.53 16.53 14.53C16.27 14.53 16.02 14.43 15.82 14.24C15.43 13.85 15.43 13.22 15.82 12.83C16.58 12.07 16.99 11.07 16.99 10C16.99 7.79 15.2 6 12.99 6C11.06 6 9.44 7.38 9.07 9.21C10.19 9.65 10.99 10.73 10.99 12C10.99 13.65 9.64 15 7.99 15C7.44 15 6.99 14.55 6.99 14C6.99 13.45 7.44 13 7.99 13C8.54 13 8.99 12.55 8.99 12C8.99 11.45 8.54 11 7.99 11C7.44 11 6.99 10.55 6.99 10C6.99 6.69 9.68 4 12.99 4C16.3 4 18.99 6.69 18.99 10C18.99 11.6 18.37 13.11 17.23 14.24H17.24Z" fill="currentColor"/>
  </symbol>
  <symbol id="ic_ear_pain" viewBox="0 0 24 24">
    <path d="M12.9998 2C8.67982 2 5.14982 5.45 5.00982 9.74L3.09982 13.56C2.84982 14.05 3.04982 14.65 3.54982 14.9L4.99982 15.62V17C4.99982 18.1 5.89982 19 6.99982 19H8.99982V20C8.99982 21.1 9.89982 22 10.9998 22H15.9998C17.0998 22 17.9998 21.1 17.9998 20V16.24C19.8298 14.77 20.9998 12.52 20.9998 10C20.9998 5.59 17.4098 2 12.9998 2ZM15.4498 10.11C15.7398 10.25 15.9398 10.53 15.9898 10.84C16.0398 11.16 15.9398 11.48 15.7098 11.71L13.7098 13.71C13.5098 13.91 13.2598 14 12.9998 14C12.7398 14 12.4898 13.9 12.2898 13.71C11.8998 13.32 11.8998 12.69 12.2898 12.3L13.3098 11.28L12.5498 10.9C12.2598 10.76 12.0598 10.48 12.0098 10.17C11.9598 9.85 12.0598 9.53 12.2898 9.3L14.2898 7.3C14.6798 6.91 15.3098 6.91 15.6998 7.3C16.0898 7.69 16.0898 8.32 15.6998 8.71L14.6798 9.73L15.4398 10.11H15.4498Z" fill="currentColor"/>
  </symbol>
</svg>
