<!-- JioGames DLS — edit icons (2 icons) -->
<svg xmlns="http://www.w3.org/2000/svg" style="display:none">
  <symbol id="ic_edit" viewBox="0 0 24 24">
    <path d="M11.06 10.8198L10.44 11.4398C10.1595 11.7215 10.0014 12.1023 10 12.4998V13.9998H11.5C11.8975 13.9984 12.2783 13.8403 12.56 13.5598L13.18 12.9398L20.56 5.55982C20.7074 5.42249 20.8256 5.25689 20.9076 5.0729C20.9895 4.8889 21.0336 4.69027 21.0372 4.48886C21.0407 4.28746 21.0037 4.0874 20.9282 3.90062C20.8528 3.71385 20.7405 3.54418 20.5981 3.40174C20.4556 3.2593 20.286 3.14702 20.0992 3.07157C19.9124 2.99613 19.7124 2.95908 19.511 2.96264C19.3095 2.96619 19.1109 3.01027 18.9269 3.09226C18.7429 3.17424 18.5773 3.29245 18.44 3.43982L11.06 10.8198ZM11.5 15.9998H8V12.4998C7.99283 12.0377 8.07753 11.5787 8.2492 11.1495C8.42086 10.7203 8.67607 10.3295 9 9.99982L16 2.99982H6C5.20435 2.99982 4.44129 3.31589 3.87868 3.8785C3.31607 4.44111 3 5.20417 3 5.99982V17.9998C3 18.7955 3.31607 19.5585 3.87868 20.1211C4.44129 20.6837 5.20435 20.9998 6 20.9998H18C18.7956 20.9998 19.5587 20.6837 20.1213 20.1211C20.6839 19.5585 21 18.7955 21 17.9998V7.99982L14 14.9998C13.6703 15.3238 13.2795 15.579 12.8503 15.7506C12.4212 15.9223 11.9622 16.007 11.5 15.9998Z" fill="currentColor"/>
  </symbol>
  <symbol id="ic_edit_pen" viewBox="0 0 24 24">
    <path d="M19.4999 4.5C18.8363 3.83805 17.9372 3.46631 16.9999 3.46631C16.0626 3.46631 15.1635 3.83805 14.4999 4.5L14.2099 4.79L19.2099 9.79L19.4999 9.5C20.1618 8.83638 20.5336 7.93732 20.5336 7C20.5336 6.06268 20.1618 5.16362 19.4999 4.5ZM5.5499 13.5C5.19016 13.8617 4.92859 14.3091 4.7899 14.8L3.7899 18.45C3.72963 18.6998 3.73453 18.9608 3.80413 19.2082C3.87373 19.4555 4.0057 19.6808 4.18739 19.8625C4.36907 20.0442 4.59438 20.1762 4.84172 20.2458C5.08905 20.3154 5.35012 20.3203 5.5999 20.26L9.2499 19.21C9.7408 19.0713 10.1882 18.8097 10.5499 18.45L17.7899 11.21L12.7899 6.21L5.5499 13.5Z" fill="currentColor"/>
  </symbol>
</svg>
