<!-- JioGames DLS — energy icons (2 icons) -->
<svg xmlns="http://www.w3.org/2000/svg" style="display:none">
  <symbol id="ic_energy_others" viewBox="0 0 24 24">
    <path d="M12 2C10.0222 2 8.08879 2.58649 6.4443 3.6853C4.79981 4.78412 3.51809 6.3459 2.76121 8.17317C2.00433 10.0004 1.8063 12.0111 2.19215 13.9509C2.578 15.8907 3.53041 17.6725 4.92894 19.0711C6.32746 20.4696 8.10929 21.422 10.0491 21.8079C11.9889 22.1937 13.9996 21.9957 15.8268 21.2388C17.6541 20.4819 19.2159 19.2002 20.3147 17.5557C21.4135 15.9112 22 13.9778 22 12C22 10.6868 21.7413 9.38642 21.2388 8.17317C20.7363 6.95991 19.9997 5.85752 19.0711 4.92893C18.1425 4.00035 17.0401 3.26375 15.8268 2.7612C14.6136 2.25866 13.3132 2 12 2ZM4 12C4 11.7033 4.08798 11.4133 4.2528 11.1666C4.41762 10.92 4.65189 10.7277 4.92598 10.6142C5.20007 10.5006 5.50167 10.4709 5.79264 10.5288C6.08361 10.5867 6.35089 10.7296 6.56066 10.9393C6.77044 11.1491 6.9133 11.4164 6.97118 11.7074C7.02906 11.9983 6.99936 12.2999 6.88582 12.574C6.77229 12.8481 6.58003 13.0824 6.33336 13.2472C6.08669 13.412 5.79668 13.5 5.5 13.5C5.10218 13.5 4.72065 13.342 4.43934 13.0607C4.15804 12.7794 4 12.3978 4 12ZM18 12C17.9986 13.2438 17.6107 14.4563 16.89 15.47L17.71 16.29C17.8037 16.383 17.8781 16.4936 17.9289 16.6154C17.9797 16.7373 18.0058 16.868 18.0058 17C18.0058 17.132 17.9797 17.2627 17.9289 17.3846C17.8781 17.5064 17.8037 17.617 17.71 17.71C17.617 17.8037 17.5064 17.8781 17.3846 17.9289C17.2627 17.9797 17.132 18.0058 17 18.0058C16.868 18.0058 16.7373 17.9797 16.6154 17.9289C16.4936 17.8781 16.383 17.8037 16.29 17.71L15.47 16.89C14.45 17.6226 13.2258 18.0166 11.97 18.0166C10.7142 18.0166 9.49002 17.6226 8.47 16.89L7.66 17.71C7.56704 17.8037 7.45644 17.8781 7.33458 17.9289C7.21272 17.9797 7.08202 18.0058 6.95 18.0058C6.81799 18.0058 6.68729 17.9797 6.56543 17.9289C6.44357 17.8781 6.33297 17.8037 6.24 17.71C6.14628 17.617 6.07188 17.5064 6.02111 17.3846C5.97034 17.2627 5.94421 17.132 5.94421 17C5.94421 16.868 5.97034 16.7373 6.02111 16.6154C6.07188 16.4936 6.14628 16.383 6.24 16.29L7.71 14.83C7.89737 14.6437 8.15082 14.5392 8.415 14.5392C8.67919 14.5392 8.93264 14.6437 9.12 14.83C9.67959 15.389 10.3923 15.7695 11.1681 15.9235C11.9439 16.0774 12.748 15.998 13.4786 15.6951C14.2093 15.3922 14.8337 14.8795 15.273 14.2218C15.7124 13.5641 15.9469 12.7909 15.9469 12C15.9469 11.2091 15.7124 10.4359 15.273 9.77818C14.8337 9.12048 14.2093 8.60779 13.4786 8.30491C12.748 8.00203 11.9439 7.92255 11.1681 8.07653C10.3923 8.23051 9.67959 8.61104 9.12 9.17C8.93264 9.35625 8.67919 9.46079 8.415 9.46079C8.15082 9.46079 7.89737 9.35625 7.71 9.17L6.29 7.71C6.1017 7.5217 5.99591 7.2663 5.99591 7C5.99591 6.7337 6.1017 6.4783 6.29 6.29C6.47831 6.1017 6.7337 5.99591 7 5.99591C7.26631 5.99591 7.5217 6.1017 7.71 6.29L8.52 7.11C9.54002 6.37744 10.7642 5.9834 12.02 5.9834C13.2758 5.9834 14.5 6.37744 15.52 7.11L16.34 6.29C16.4332 6.19676 16.5439 6.1228 16.6658 6.07234C16.7876 6.02188 16.9181 5.99591 17.05 5.99591C17.1819 5.99591 17.3124 6.02188 17.4343 6.07234C17.5561 6.1228 17.6668 6.19676 17.76 6.29C17.8532 6.38324 17.9272 6.49393 17.9777 6.61575C18.0281 6.73757 18.0541 6.86814 18.0541 7C18.0541 7.13186 18.0281 7.26243 17.9777 7.38425C17.9272 7.50607 17.8532 7.61676 17.76 7.71L16.94 8.53C17.643 9.54956 18.0132 10.7617 18 12Z" fill="currentColor"/>
  </symbol>
  <symbol id="ic_energy_total" viewBox="0 0 24 24">
    <path d="M12 2C10.0222 2 8.08879 2.58649 6.4443 3.6853C4.79981 4.78412 3.51809 6.3459 2.76121 8.17317C2.00433 10.0004 1.8063 12.0111 2.19215 13.9509C2.578 15.8907 3.53041 17.6725 4.92894 19.0711C6.32746 20.4696 8.10929 21.422 10.0491 21.8079C11.9889 22.1937 13.9996 21.9957 15.8268 21.2388C17.6541 20.4819 19.2159 19.2002 20.3147 17.5557C21.4135 15.9112 22 13.9778 22 12C22 10.6868 21.7413 9.38642 21.2388 8.17317C20.7363 6.95991 19.9997 5.85752 19.0711 4.92893C18.1425 4.00035 17.0401 3.26375 15.8268 2.7612C14.6136 2.25866 13.3132 2 12 2ZM14.8 12.6L11.8 16.6C11.7069 16.7242 11.5861 16.825 11.4472 16.8944C11.3084 16.9639 11.1552 17 11 17C10.7836 17 10.5731 16.9298 10.4 16.8C10.2949 16.7212 10.2064 16.6225 10.1395 16.5095C10.0726 16.3965 10.0286 16.2714 10.0101 16.1414C9.99148 16.0114 9.9987 15.879 10.0313 15.7518C10.0639 15.6246 10.1212 15.5051 10.2 15.4L12 13H10C9.81534 12.9994 9.63443 12.9478 9.47734 12.8507C9.32025 12.7536 9.1931 12.6149 9.11 12.45C9.03551 12.2902 9.0046 12.1135 9.0204 11.9379C9.03621 11.7623 9.09817 11.594 9.2 11.45L12.2 7.45C12.3591 7.23783 12.596 7.09756 12.8586 7.06005C13.1211 7.02254 13.3878 7.09087 13.6 7.25C13.8122 7.40913 13.9524 7.64603 13.99 7.90858C14.0275 8.17113 13.9591 8.43783 13.8 8.65L12 11H14C14.1847 11.0006 14.3656 11.0522 14.5227 11.1493C14.6798 11.2464 14.8069 11.3851 14.89 11.55C14.9742 11.716 15.0104 11.9023 14.9945 12.0878C14.9786 12.2733 14.9113 12.4507 14.8 12.6Z" fill="currentColor"/>
  </symbol>
</svg>
