<!-- JioGames DLS — entertainment icons (2 icons) -->
<svg xmlns="http://www.w3.org/2000/svg" style="display:none">
  <symbol id="ic_entertainment" viewBox="0 0 24 24">
    <path d="M12.46 8L15.13 4H11.54L8.87 8H12.46ZM9.13 4H7C6.20435 4 5.44129 4.31607 4.87868 4.87868C4.31607 5.44129 4 6.20435 4 7V8H6.46L9.13 4ZM4 17C4 17.7956 4.31607 18.5587 4.87868 19.1213C5.44129 19.6839 6.20435 20 7 20H17C17.7956 20 18.5587 19.6839 19.1213 19.1213C19.6839 18.5587 20 17.7956 20 17V10H4V17ZM19.29 5.07C18.8293 4.53678 18.1956 4.18276 17.5 4.07L14.87 8H20V7C19.9981 6.29311 19.7467 5.60959 19.29 5.07Z" fill="currentColor"/>
  </symbol>
  <symbol id="ic_entertainment_play" viewBox="0 0 24 24">
    <path d="M9.13 3H6C5.20435 3 4.44129 3.31607 3.87868 3.87868C3.31607 4.44129 3 5.20435 3 6V7H6.46L9.13 3ZM12.46 7L15.13 3H11.54L8.87 7H12.46ZM20.12 3.88C19.5579 3.31723 18.7954 3.0007 18 3H17.54L14.87 7H21V6C20.9993 5.20462 20.6828 4.44207 20.12 3.88ZM3 18C3 18.7956 3.31607 19.5587 3.87868 20.1213C4.44129 20.6839 5.20435 21 6 21H18C18.7956 21 19.5587 20.6839 20.1213 20.1213C20.6839 19.5587 21 18.7956 21 18V9H3V18ZM10 13C10.0001 12.8205 10.0484 12.6444 10.14 12.49C10.236 12.3352 10.3704 12.2078 10.53 12.12C10.6744 12.042 10.8359 12.0008 11 12C11.1745 12.0096 11.3435 12.0648 11.49 12.16L14.49 14.16C14.6267 14.2495 14.7372 14.3737 14.81 14.52C14.887 14.6647 14.9273 14.8261 14.9273 14.99C14.9273 15.1539 14.887 15.3153 14.81 15.46C14.7372 15.6063 14.6267 15.7305 14.49 15.82L11.49 17.82C11.3455 17.9223 11.1764 17.9844 11 18C10.822 18.0103 10.6448 17.9686 10.49 17.88C10.3373 17.7945 10.2097 17.6703 10.12 17.52C10.0278 17.363 9.98587 17.1815 10 17V13Z" fill="currentColor"/>
  </symbol>
</svg>
