<!-- JioGames DLS — ethernet icons (2 icons) -->
<svg xmlns="http://www.w3.org/2000/svg" style="display:none">
  <symbol id="ic_ethernet" viewBox="0 0 24 24">
    <path d="M7.99994 11.0002C7.80216 11.0002 7.60882 11.0588 7.44437 11.1687C7.27992 11.2786 7.15175 11.4348 7.07606 11.6175C7.00037 11.8002 6.98057 12.0013 7.01915 12.1953C7.05774 12.3893 7.15298 12.5674 7.29283 12.7073C7.43268 12.8471 7.61087 12.9424 7.80485 12.981C7.99883 13.0196 8.1999 12.9998 8.38262 12.9241C8.56535 12.8484 8.72153 12.7202 8.83141 12.5558C8.94129 12.3913 8.99994 12.198 8.99994 12.0002C8.99994 11.735 8.89458 11.4806 8.70705 11.2931C8.51951 11.1055 8.26516 11.0002 7.99994 11.0002ZM11.9999 11.0002C11.8022 11.0002 11.6088 11.0588 11.4444 11.1687C11.2799 11.2786 11.1517 11.4348 11.0761 11.6175C11.0004 11.8002 10.9806 12.0013 11.0192 12.1953C11.0577 12.3893 11.153 12.5674 11.2928 12.7073C11.4327 12.8471 11.6109 12.9424 11.8048 12.981C11.9988 13.0196 12.1999 12.9998 12.3826 12.9241C12.5653 12.8484 12.7215 12.7202 12.8314 12.5558C12.9413 12.3913 12.9999 12.198 12.9999 12.0002C12.9999 11.735 12.8946 11.4806 12.707 11.2931C12.5195 11.1055 12.2652 11.0002 11.9999 11.0002ZM4.40994 12.0002L7.70994 8.71019C7.80318 8.61695 7.87714 8.50626 7.9276 8.38444C7.97806 8.26261 8.00403 8.13204 8.00403 8.00019C8.00403 7.86833 7.97806 7.73776 7.9276 7.61594C7.87714 7.49411 7.80318 7.38342 7.70994 7.29019C7.6167 7.19695 7.50601 7.12299 7.38419 7.07253C7.26237 7.02207 7.1318 6.99609 6.99994 6.99609C6.86808 6.99609 6.73751 7.02207 6.61569 7.07253C6.49387 7.12299 6.38318 7.19695 6.28994 7.29019L2.28994 11.2902C2.19621 11.3831 2.12182 11.4937 2.07105 11.6156C2.02028 11.7375 1.99414 11.8682 1.99414 12.0002C1.99414 12.1322 2.02028 12.2629 2.07105 12.3848C2.12182 12.5066 2.19621 12.6172 2.28994 12.7102L6.28994 16.7102C6.3829 16.8039 6.4935 16.8783 6.61536 16.9291C6.73722 16.9798 6.86793 17.006 6.99994 17.006C7.13195 17.006 7.26266 16.9798 7.38452 16.9291C7.50637 16.8783 7.61698 16.8039 7.70994 16.7102C7.80367 16.6172 7.87806 16.5066 7.92883 16.3848C7.9796 16.2629 8.00574 16.1322 8.00574 16.0002C8.00574 15.8682 7.9796 15.7375 7.92883 15.6156C7.87806 15.4937 7.80367 15.3831 7.70994 15.2902L4.40994 12.0002ZM21.7099 11.2902L17.7099 7.29019C17.6167 7.19695 17.506 7.12299 17.3842 7.07253C17.2624 7.02207 17.1318 6.99609 16.9999 6.99609C16.7336 6.99609 16.4782 7.10188 16.2899 7.29019C16.1016 7.47849 15.9958 7.73388 15.9958 8.00019C15.9958 8.26649 16.1016 8.52188 16.2899 8.71019L19.5899 12.0002L16.2899 15.2902C16.1962 15.3831 16.1218 15.4937 16.071 15.6156C16.0203 15.7375 15.9941 15.8682 15.9941 16.0002C15.9941 16.1322 16.0203 16.2629 16.071 16.3848C16.1218 16.5066 16.1962 16.6172 16.2899 16.7102C16.3829 16.8039 16.4935 16.8783 16.6154 16.9291C16.7372 16.9798 16.8679 17.006 16.9999 17.006C17.132 17.006 17.2627 16.9798 17.3845 16.9291C17.5064 16.8783 17.617 16.8039 17.7099 16.7102L21.7099 12.7102C21.8037 12.6172 21.8781 12.5066 21.9288 12.3848C21.9796 12.2629 22.0057 12.1322 22.0057 12.0002C22.0057 11.8682 21.9796 11.7375 21.9288 11.6156C21.8781 11.4937 21.8037 11.3831 21.7099 11.2902ZM16.9999 12.0002C16.9999 11.8024 16.9413 11.6091 16.8314 11.4446C16.7215 11.2802 16.5653 11.152 16.3826 11.0763C16.1999 11.0006 15.9988 10.9808 15.8048 11.0194C15.6109 11.058 15.4327 11.1532 15.2928 11.2931C15.153 11.4329 15.0577 11.6111 15.0192 11.8051C14.9806 11.9991 15.0004 12.2001 15.0761 12.3829C15.1517 12.5656 15.2799 12.7218 15.4444 12.8317C15.6088 12.9415 15.8022 13.0002 15.9999 13.0002C16.2652 13.0002 16.5195 12.8948 16.707 12.7073C16.8946 12.5198 16.9999 12.2654 16.9999 12.0002Z" fill="currentColor"/>
  </symbol>
  <symbol id="ic_ethernet_off" viewBox="0 0 24 24">
    <path opacity="0.2" d="M7.7125 7.28859C7.3225 6.89859 6.6925 6.89859 6.3025 7.28859L2.2925 11.2886C1.9025 11.6786 1.9025 12.3086 2.2925 12.6986L6.2925 16.6986C6.4925 16.8986 6.7425 16.9886 7.0025 16.9886C7.2625 16.9886 7.5125 16.8886 7.7125 16.6986C8.1025 16.3086 8.1025 15.6786 7.7125 15.2886L4.4225 11.9986L7.7125 8.70859C8.1025 8.31859 8.1025 7.68859 7.7125 7.29859V7.28859ZM21.7125 11.2886L17.7125 7.28859C17.3225 6.89859 16.6925 6.89859 16.3025 7.28859C15.9125 7.67859 15.9125 8.30859 16.3025 8.69859L19.5925 11.9886L16.3025 15.2786C15.9125 15.6686 15.9125 16.2986 16.3025 16.6886C16.5025 16.8886 16.7525 16.9786 17.0125 16.9786C17.2725 16.9786 17.5225 16.8786 17.7225 16.6886L21.7225 12.6886C22.1125 12.2986 22.1125 11.6686 21.7225 11.2786L21.7125 11.2886Z" fill="currentColor"/>
<path d="M13.25 16.17C13.09 15.92 12.85 15.73 12.58 15.62C12.31 15.51 12 15.48 11.71 15.53C11.42 15.59 11.15 15.73 10.94 15.94C10.73 16.15 10.59 16.42 10.53 16.71C10.47 17 10.5 17.3 10.62 17.58C10.74 17.86 10.93 18.09 11.17 18.25C11.42 18.41 11.71 18.5 12 18.5C12.4 18.5 12.78 18.34 13.06 18.06C13.34 17.78 13.5 17.4 13.5 17C13.5 16.7 13.41 16.41 13.25 16.17ZM12 13.5C12.27 13.5 12.52 13.39 12.71 13.21C12.9 13.03 13 12.77 13 12.5V6.5C13 6.23 12.89 5.98 12.71 5.79C12.52 5.6 12.27 5.5 12 5.5C11.73 5.5 11.48 5.61 11.29 5.79C11.1 5.98 11 6.23 11 6.5V12.5C11 12.77 11.11 13.02 11.29 13.21C11.47 13.4 11.73 13.5 12 13.5Z" fill="currentColor"/>
  </symbol>
</svg>
