<!-- JioGames DLS — exchange icons (2 icons) -->
<svg xmlns="http://www.w3.org/2000/svg" style="display:none">
  <symbol id="ic_exchange" viewBox="0 0 24 24">
    <path d="M18.7099 15.2902C18.5216 15.1019 18.2662 14.9961 17.9999 14.9961C17.7336 14.9961 17.4782 15.1019 17.2899 15.2902C17.1016 15.4785 16.9958 15.7339 16.9958 16.0002C16.9958 16.2665 17.1016 16.5219 17.2899 16.7102L17.5899 17.0002H6.99994C6.46951 17.0002 5.9608 16.7895 5.58573 16.4144C5.21065 16.0393 4.99994 15.5306 4.99994 15.0002C4.99994 14.735 4.89458 14.4806 4.70705 14.2931C4.51951 14.1055 4.26516 14.0002 3.99994 14.0002C3.73472 14.0002 3.48037 14.1055 3.29283 14.2931C3.1053 14.4806 2.99994 14.735 2.99994 15.0002C2.99994 16.0611 3.42137 17.0785 4.17151 17.8286C4.92166 18.5788 5.93907 19.0002 6.99994 19.0002H17.5899L17.2899 19.2902C17.1962 19.3831 17.1218 19.4937 17.071 19.6156C17.0203 19.7375 16.9941 19.8682 16.9941 20.0002C16.9941 20.1322 17.0203 20.2629 17.071 20.3848C17.1218 20.5066 17.1962 20.6172 17.2899 20.7102C17.3829 20.8039 17.4935 20.8783 17.6154 20.9291C17.7372 20.9798 17.8679 21.006 17.9999 21.006C18.132 21.006 18.2627 20.9798 18.3845 20.9291C18.5064 20.8783 18.617 20.8039 18.7099 20.7102L20.7099 18.7102C20.8037 18.6172 20.8781 18.5066 20.9288 18.3848C20.9796 18.2629 21.0057 18.1322 21.0057 18.0002C21.0057 17.8682 20.9796 17.7375 20.9288 17.6156C20.8781 17.4937 20.8037 17.3831 20.7099 17.2902L18.7099 15.2902ZM5.28994 8.71019C5.3829 8.80391 5.4935 8.87831 5.61536 8.92908C5.73722 8.97985 5.86793 9.00598 5.99994 9.00598C6.13195 9.00598 6.26266 8.97985 6.38452 8.92908C6.50638 8.87831 6.61698 8.80391 6.70994 8.71019C6.80367 8.61722 6.87806 8.50662 6.92883 8.38476C6.9796 8.2629 7.00574 8.1322 7.00574 8.00019C7.00574 7.86817 6.9796 7.73747 6.92883 7.61561C6.87806 7.49375 6.80367 7.38315 6.70994 7.29019L6.40994 7.00019H16.9999C17.5304 7.00019 18.0391 7.2109 18.4142 7.58597C18.7892 7.96104 18.9999 8.46975 18.9999 9.00019C18.9999 9.2654 19.1053 9.51976 19.2928 9.70729C19.4804 9.89483 19.7347 10.0002 19.9999 10.0002C20.2652 10.0002 20.5195 9.89483 20.707 9.70729C20.8946 9.51976 20.9999 9.2654 20.9999 9.00019C20.9999 7.93932 20.5785 6.9219 19.8284 6.17176C19.0782 5.42161 18.0608 5.00019 16.9999 5.00019H6.40994L6.70994 4.71019C6.89824 4.52188 7.00403 4.26649 7.00403 4.00019C7.00403 3.73388 6.89824 3.47849 6.70994 3.29019C6.52164 3.10188 6.26624 2.99609 5.99994 2.99609C5.73364 2.99609 5.47824 3.10188 5.28994 3.29019L3.28994 5.29019C3.19621 5.38315 3.12182 5.49375 3.07105 5.61561C3.02028 5.73747 2.99414 5.86817 2.99414 6.00019C2.99414 6.1322 3.02028 6.2629 3.07105 6.38476C3.12182 6.50662 3.19621 6.61722 3.28994 6.71019L5.28994 8.71019Z" fill="currentColor"/>
  </symbol>
  <symbol id="ic_exchange_data" viewBox="0 0 24 24">
    <path d="M9 9.00019H5C4.46957 9.00019 3.96086 9.2109 3.58579 9.58597C3.21071 9.96105 3 10.4698 3 11.0002V20.0002C3 20.5306 3.21071 21.0393 3.58579 21.4144C3.96086 21.7895 4.46957 22.0002 5 22.0002H9C9.53043 22.0002 10.0391 21.7895 10.4142 21.4144C10.7893 21.0393 11 20.5306 11 20.0002V11.0002C11 10.4698 10.7893 9.96105 10.4142 9.58597C10.0391 9.2109 9.53043 9.00019 9 9.00019ZM7 20.0002C6.80222 20.0002 6.60888 19.9415 6.44443 19.8317C6.27998 19.7218 6.15181 19.5656 6.07612 19.3829C6.00043 19.2001 5.98063 18.9991 6.01921 18.8051C6.0578 18.6111 6.15304 18.4329 6.29289 18.2931C6.43275 18.1532 6.61093 18.058 6.80491 18.0194C6.99889 17.9808 7.19996 18.0006 7.38268 18.0763C7.56541 18.152 7.72159 18.2802 7.83147 18.4446C7.94135 18.6091 8 18.8024 8 19.0002C8 19.2654 7.89464 19.5198 7.70711 19.7073C7.51957 19.8948 7.26522 20.0002 7 20.0002ZM19 2.00019H15C14.4696 2.00019 13.9609 2.2109 13.5858 2.58597C13.2107 2.96104 13 3.46975 13 4.00019V13.0002C13 13.5306 13.2107 14.0393 13.5858 14.4144C13.9609 14.7895 14.4696 15.0002 15 15.0002H19C19.5304 15.0002 20.0391 14.7895 20.4142 14.4144C20.7893 14.0393 21 13.5306 21 13.0002V4.00019C21 3.46975 20.7893 2.96104 20.4142 2.58597C20.0391 2.2109 19.5304 2.00019 19 2.00019ZM17 13.0002C16.8022 13.0002 16.6089 12.9415 16.4444 12.8317C16.28 12.7218 16.1518 12.5656 16.0761 12.3829C16.0004 12.2001 15.9806 11.9991 16.0192 11.8051C16.0578 11.6111 16.153 11.4329 16.2929 11.2931C16.4327 11.1532 16.6109 11.058 16.8049 11.0194C16.9989 10.9808 17.2 11.0006 17.3827 11.0763C17.5654 11.152 17.7216 11.2802 17.8315 11.4446C17.9414 11.6091 18 11.8024 18 12.0002C18 12.2654 17.8946 12.5198 17.7071 12.7073C17.5196 12.8948 17.2652 13.0002 17 13.0002ZM20 18.0002H16.41L16.71 17.7102C16.8983 17.5219 17.0041 17.2665 17.0041 17.0002C17.0041 16.7339 16.8983 16.4785 16.71 16.2902C16.6168 16.1969 16.5061 16.123 16.3842 16.0725C16.2624 16.0221 16.1319 15.9961 16 15.9961C15.7337 15.9961 15.4783 16.1019 15.29 16.2902L13.29 18.2902C13.1963 18.3831 13.1219 18.4937 13.0711 18.6156C13.0203 18.7375 12.9942 18.8682 12.9942 19.0002C12.9942 19.1322 13.0203 19.2629 13.0711 19.3848C13.1219 19.5066 13.1963 19.6172 13.29 19.7102L15.29 21.7102C15.383 21.8039 15.4936 21.8783 15.6154 21.9291C15.7373 21.9798 15.868 22.006 16 22.006C16.132 22.006 16.2627 21.9798 16.3846 21.9291C16.5064 21.8783 16.617 21.8039 16.71 21.7102C16.8037 21.6172 16.8781 21.5066 16.9289 21.3848C16.9797 21.2629 17.0058 21.1322 17.0058 21.0002C17.0058 20.8682 16.9797 20.7375 16.9289 20.6156C16.8781 20.4937 16.8037 20.3831 16.71 20.2902L16.41 20.0002H20C20.2652 20.0002 20.5196 19.8948 20.7071 19.7073C20.8946 19.5198 21 19.2654 21 19.0002C21 18.735 20.8946 18.4806 20.7071 18.2931C20.5196 18.1055 20.2652 18.0002 20 18.0002ZM8.71 2.29019C8.61676 2.19695 8.50607 2.12299 8.38425 2.07253C8.26243 2.02207 8.13186 1.99609 8 1.99609C7.86814 1.99609 7.73757 2.02207 7.61575 2.07253C7.49393 2.12299 7.38324 2.19695 7.29 2.29019C7.19676 2.38342 7.1228 2.49411 7.07234 2.61594C7.02188 2.73776 6.99591 2.86833 6.99591 3.00019C6.99591 3.13204 7.02188 3.26261 7.07234 3.38443C7.1228 3.50626 7.19676 3.61695 7.29 3.71019L7.59 4.00019H4C3.73478 4.00019 3.48043 4.10554 3.29289 4.29308C3.10536 4.48062 3 4.73497 3 5.00019C3 5.2654 3.10536 5.51976 3.29289 5.70729C3.48043 5.89483 3.73478 6.00019 4 6.00019H7.59L7.29 6.29019C7.19627 6.38315 7.12188 6.49375 7.07111 6.61561C7.02034 6.73747 6.9942 6.86817 6.9942 7.00019C6.9942 7.1322 7.02034 7.2629 7.07111 7.38476C7.12188 7.50662 7.19627 7.61722 7.29 7.71019C7.38296 7.80391 7.49356 7.87831 7.61542 7.92908C7.73728 7.97985 7.86799 8.00598 8 8.00598C8.13201 8.00598 8.26272 7.97985 8.38458 7.92908C8.50644 7.87831 8.61704 7.80391 8.71 7.71019L10.71 5.71019C10.8037 5.61722 10.8781 5.50662 10.9289 5.38476C10.9797 5.2629 11.0058 5.1322 11.0058 5.00019C11.0058 4.86817 10.9797 4.73747 10.9289 4.61561C10.8781 4.49375 10.8037 4.38315 10.71 4.29019L8.71 2.29019Z" fill="currentColor"/>
  </symbol>
</svg>
