<!-- JioGames DLS — fan icons (6 icons) -->
<svg xmlns="http://www.w3.org/2000/svg" style="display:none">
  <symbol id="ic_fan" viewBox="0 0 24 24">
    <path d="M11 13C10 13 8 13.84 8 17C8 20.16 10 21 11 21C11.2652 21 11.5196 20.8946 11.7071 20.7071C11.8946 20.5196 12 20.2652 12 20V14C12 13.7348 11.8946 13.4804 11.7071 13.2929C11.5196 13.1054 11.2652 13 11 13ZM11 11C11 10 10.16 8 7 8C3.84 8 3 10 3 11C3 11.2652 3.10536 11.5196 3.29289 11.7071C3.48043 11.8946 3.73478 12 4 12H10C10.2652 12 10.5196 11.8946 10.7071 11.7071C10.8946 11.5196 11 11.2652 11 11ZM16 7C16 3.84 14 3 13 3C12.7348 3 12.4804 3.10536 12.2929 3.29289C12.1054 3.48043 12 3.73478 12 4V10C12 10.2652 12.1054 10.5196 12.2929 10.7071C12.4804 10.8946 12.7348 11 13 11C14 11 16 10.16 16 7ZM20 12H14C13.7348 12 13.4804 12.1054 13.2929 12.2929C13.1054 12.4804 13 12.7348 13 13C13 14 13.84 16 17 16C20.16 16 21 14 21 13C21 12.7348 20.8946 12.4804 20.7071 12.2929C20.5196 12.1054 20.2652 12 20 12Z" fill="currentColor"/>
  </symbol>
  <symbol id="ic_fan_auto_speed" viewBox="0 0 24 24">
    <path d="M16 7C16 3.84 14 3 13 3C12.7348 3 12.4804 3.10536 12.2929 3.29289C12.1054 3.48043 12 3.73478 12 4V10C12 10.2652 12.1054 10.5196 12.2929 10.7071C12.4804 10.8946 12.7348 11 13 11C14 11 16 10.16 16 7ZM20 12H14C13.7348 12 13.4804 12.1054 13.2929 12.2929C13.1054 12.4804 13 12.7348 13 13C13 14 13.84 16 17 16C20.16 16 21 14 21 13C21 12.7348 20.8946 12.4804 20.7071 12.2929C20.5196 12.1054 20.2652 12 20 12ZM17.32 10C17.3854 10.0268 17.4556 10.0396 17.5263 10.0378C17.5969 10.036 17.6664 10.0195 17.7303 9.98946C17.7943 9.95937 17.8513 9.91633 17.8977 9.86306C17.9441 9.80979 17.9789 9.74745 18 9.68L18.22 9H19.78L20.03 9.68C20.0677 9.77397 20.1326 9.85459 20.2163 9.91158C20.3 9.96856 20.3987 9.99935 20.5 10H20.68C20.7474 9.97894 20.8098 9.9441 20.8631 9.89767C20.9163 9.85125 20.9594 9.79427 20.9895 9.73033C21.0195 9.6664 21.036 9.59691 21.0378 9.52627C21.0396 9.45564 21.0268 9.38539 21 9.32L19.5 5.32C19.4579 5.231 19.3913 5.15578 19.3081 5.10312C19.2249 5.05045 19.1285 5.02249 19.03 5.02249C18.9315 5.02249 18.8351 5.05045 18.7519 5.10312C18.6687 5.15578 18.6021 5.231 18.56 5.32L17.06 9.32C17.0318 9.38162 17.0161 9.44826 17.0139 9.516C17.0117 9.58375 17.0231 9.65125 17.0473 9.71457C17.0715 9.77788 17.1081 9.83573 17.1549 9.88474C17.2017 9.93375 17.2579 9.97293 17.32 10ZM19 6.92L19.4 8H18.6L19 6.92ZM11 13C10 13 8 13.84 8 17C8 20.16 10 21 11 21C11.2652 21 11.5196 20.8946 11.7071 20.7071C11.8946 20.5196 12 20.2652 12 20V14C12 13.7348 11.8946 13.4804 11.7071 13.2929C11.5196 13.1054 11.2652 13 11 13ZM11 11C11 10 10.16 8 7 8C3.84 8 3 10 3 11C3 11.2652 3.10536 11.5196 3.29289 11.7071C3.48043 11.8946 3.73478 12 4 12H10C10.2652 12 10.5196 11.8946 10.7071 11.7071C10.8946 11.5196 11 11.2652 11 11Z" fill="currentColor"/>
  </symbol>
  <symbol id="ic_fan_speed_high" viewBox="0 0 24 24">
    <path d="M3.99997 12H9.99997C10.2652 12 10.5195 11.8946 10.7071 11.7071C10.8946 11.5195 11 11.2652 11 11C11 9.99997 10.16 7.99997 6.99997 7.99997C3.83997 7.99997 2.99997 9.99997 2.99997 11C2.99997 11.2652 3.10533 11.5195 3.29287 11.7071C3.4804 11.8946 3.73476 12 3.99997 12ZM4.99997 6.99997C5.19775 6.99997 5.39109 6.94132 5.55554 6.83144C5.71999 6.72156 5.84816 6.56538 5.92385 6.38266C5.99954 6.19993 6.01934 5.99886 5.98076 5.80488C5.94217 5.6109 5.84693 5.43272 5.70708 5.29287C5.56723 5.15301 5.38904 5.05777 5.19506 5.01919C5.00108 4.9806 4.80001 5.0004 4.61729 5.07609C4.43456 5.15178 4.27838 5.27995 4.1685 5.4444C4.05862 5.60885 3.99997 5.80219 3.99997 5.99997C3.99997 6.26519 4.10533 6.51954 4.29287 6.70708C4.4804 6.89462 4.73476 6.99997 4.99997 6.99997ZM7.99997 4.99997C8.13437 4.98768 8.26983 5.0051 8.39674 5.051C8.52365 5.09691 8.63891 5.17018 8.73434 5.26561C8.82977 5.36104 8.90303 5.47629 8.94894 5.60321C8.99485 5.73012 9.01227 5.86557 8.99997 5.99997C8.99997 6.26519 9.10533 6.51954 9.29287 6.70708C9.4804 6.89462 9.73476 6.99997 9.99997 6.99997C10.2652 6.99997 10.5195 6.89462 10.7071 6.70708C10.8946 6.51954 11 6.26519 11 5.99997C11.0125 5.60263 10.9434 5.20693 10.7971 4.83731C10.6507 4.46768 10.4302 4.13196 10.1491 3.85085C9.86798 3.56975 9.53226 3.34922 9.16264 3.20288C8.79301 3.05654 8.39732 2.98748 7.99997 2.99997C7.73476 2.99997 7.4804 3.10533 7.29287 3.29287C7.10533 3.4804 6.99997 3.73476 6.99997 3.99997C6.99997 4.26519 7.10533 4.51954 7.29287 4.70708C7.4804 4.89462 7.73476 4.99997 7.99997 4.99997ZM5.99997 18C5.80219 18 5.60885 18.0586 5.4444 18.1685C5.27995 18.2784 5.15178 18.4346 5.07609 18.6173C5.0004 18.8 4.9806 19.0011 5.01919 19.1951C5.05777 19.389 5.15301 19.5672 5.29287 19.7071C5.43272 19.8469 5.6109 19.9422 5.80488 19.9808C5.99886 20.0193 6.19993 19.9995 6.38266 19.9239C6.56538 19.8482 6.72156 19.72 6.83144 19.5555C6.94132 19.3911 6.99997 19.1978 6.99997 19C6.99997 18.7348 6.89462 18.4804 6.70708 18.2929C6.51954 18.1053 6.26519 18 5.99997 18ZM18 11C18.3973 11.0125 18.793 10.9434 19.1626 10.7971C19.5323 10.6507 19.868 10.4302 20.1491 10.1491C20.4302 9.86798 20.6507 9.53226 20.7971 9.16264C20.9434 8.79301 21.0125 8.39732 21 7.99997C21 7.73476 20.8946 7.4804 20.7071 7.29287C20.5195 7.10533 20.2652 6.99997 20 6.99997C19.7348 6.99997 19.4804 7.10533 19.2929 7.29287C19.1053 7.4804 19 7.73476 19 7.99997C19.0123 8.13437 18.9948 8.26983 18.9489 8.39674C18.903 8.52365 18.8298 8.63891 18.7343 8.73434C18.6389 8.82977 18.5237 8.90303 18.3967 8.94894C18.2698 8.99485 18.1344 9.01227 18 8.99997C17.7348 8.99997 17.4804 9.10533 17.2929 9.29287C17.1053 9.4804 17 9.73476 17 9.99997C17 10.2652 17.1053 10.5195 17.2929 10.7071C17.4804 10.8946 17.7348 11 18 11ZM18 5.99997C18.1978 5.99997 18.3911 5.94132 18.5555 5.83144C18.72 5.72156 18.8482 5.56538 18.9239 5.38266C18.9995 5.19993 19.0193 4.99886 18.9808 4.80488C18.9422 4.6109 18.8469 4.43272 18.7071 4.29287C18.5672 4.15301 18.389 4.05777 18.1951 4.01919C18.0011 3.9806 17.8 4.0004 17.6173 4.07609C17.4346 4.15178 17.2784 4.27995 17.1685 4.4444C17.0586 4.60885 17 4.80219 17 4.99997C17 5.26519 17.1053 5.51954 17.2929 5.70708C17.4804 5.89462 17.7348 5.99997 18 5.99997ZM16 19C15.8656 19.0123 15.7301 18.9948 15.6032 18.9489C15.4763 18.903 15.361 18.8298 15.2656 18.7343C15.1702 18.6389 15.0969 18.5237 15.051 18.3967C15.0051 18.2698 14.9877 18.1344 15 18C15 17.7348 14.8946 17.4804 14.7071 17.2929C14.5195 17.1053 14.2652 17 14 17C13.7348 17 13.4804 17.1053 13.2929 17.2929C13.1053 17.4804 13 17.7348 13 18C12.9875 18.3973 13.0565 18.793 13.2029 19.1626C13.3492 19.5323 13.5697 19.868 13.8509 20.1491C14.132 20.4302 14.4677 20.6507 14.8373 20.7971C15.2069 20.9434 15.6026 21.0125 16 21C16.2652 21 16.5195 20.8946 16.7071 20.7071C16.8946 20.5195 17 20.2652 17 20C17 19.7348 16.8946 19.4804 16.7071 19.2929C16.5195 19.1053 16.2652 19 16 19ZM19 17C18.8022 17 18.6089 17.0586 18.4444 17.1685C18.28 17.2784 18.1518 17.4346 18.0761 17.6173C18.0004 17.8 17.9806 18.0011 18.0192 18.1951C18.0578 18.389 18.153 18.5672 18.2929 18.7071C18.4327 18.8469 18.6109 18.9422 18.8049 18.9808C18.9989 19.0193 19.1999 18.9995 19.3827 18.9239C19.5654 18.8482 19.7216 18.72 19.8314 18.5555C19.9413 18.3911 20 18.1978 20 18C20 17.7348 19.8946 17.4804 19.7071 17.2929C19.5195 17.1053 19.2652 17 19 17ZM5.99997 13C5.60263 12.9875 5.20693 13.0565 4.83731 13.2029C4.46768 13.3492 4.13196 13.5697 3.85085 13.8509C3.56975 14.132 3.34922 14.4677 3.20288 14.8373C3.05654 15.2069 2.98748 15.6026 2.99997 16C2.99997 16.2652 3.10533 16.5195 3.29287 16.7071C3.4804 16.8946 3.73476 17 3.99997 17C4.26519 17 4.51954 16.8946 4.70708 16.7071C4.89462 16.5195 4.99997 16.2652 4.99997 16C4.98768 15.8656 5.0051 15.7301 5.051 15.6032C5.09691 15.4763 5.17018 15.361 5.26561 15.2656C5.36104 15.1702 5.47629 15.0969 5.60321 15.051C5.73012 15.0051 5.86557 14.9877 5.99997 15C6.26519 15 6.51954 14.8946 6.70708 14.7071C6.89462 14.5195 6.99997 14.2652 6.99997 14C6.99997 13.7348 6.89462 13.4804 6.70708 13.2929C6.51954 13.1053 6.26519 13 5.99997 13ZM20 12H14C13.7348 12 13.4804 12.1053 13.2929 12.2929C13.1053 12.4804 13 12.7348 13 13C13 14 13.84 16 17 16C20.16 16 21 14 21 13C21 12.7348 20.8946 12.4804 20.7071 12.2929C20.5195 12.1053 20.2652 12 20 12ZM16 6.99997C16 3.83997 14 2.99997 13 2.99997C12.7348 2.99997 12.4804 3.10533 12.2929 3.29287C12.1053 3.4804 12 3.73476 12 3.99997V9.99997C12 10.2652 12.1053 10.5195 12.2929 10.7071C12.4804 10.8946 12.7348 11 13 11C14 11 16 10.16 16 6.99997ZM11 13C9.99997 13 7.99997 13.84 7.99997 17C7.99997 20.16 9.99997 21 11 21C11.2652 21 11.5195 20.8946 11.7071 20.7071C11.8946 20.5195 12 20.2652 12 20V14C12 13.7348 11.8946 13.4804 11.7071 13.2929C11.5195 13.1053 11.2652 13 11 13Z" fill="currentColor"/>
  </symbol>
  <symbol id="ic_fan_speed_low" viewBox="0 0 24 24">
    <path d="M10 8C10.1978 8 10.3911 7.94135 10.5556 7.83147C10.72 7.72159 10.8482 7.56541 10.9239 7.38268C10.9996 7.19996 11.0194 6.99889 10.9808 6.80491C10.9422 6.61093 10.847 6.43275 10.7071 6.29289C10.5673 6.15304 10.3891 6.0578 10.1951 6.01921C10.0011 5.98063 9.80004 6.00043 9.61732 6.07612C9.43459 6.15181 9.27841 6.27998 9.16853 6.44443C9.05865 6.60888 9 6.80222 9 7C9 7.26522 9.10536 7.51957 9.29289 7.70711C9.48043 7.89464 9.73478 8 10 8ZM7 13C6.80222 13 6.60888 13.0586 6.44443 13.1685C6.27998 13.2784 6.15181 13.4346 6.07612 13.6173C6.00043 13.8 5.98063 14.0011 6.01921 14.1951C6.0578 14.3891 6.15304 14.5673 6.29289 14.7071C6.43275 14.847 6.61093 14.9422 6.80491 14.9808C6.99889 15.0194 7.19996 14.9996 7.38268 14.9239C7.56541 14.8482 7.72159 14.72 7.83147 14.5556C7.94135 14.3911 8 14.1978 8 14C8 13.7348 7.89464 13.4804 7.70711 13.2929C7.51957 13.1054 7.26522 13 7 13ZM11 11C11 10 10.16 8 7 8C3.84 8 3 10 3 11C3 11.2652 3.10536 11.5196 3.29289 11.7071C3.48043 11.8946 3.73478 12 4 12H10C10.2652 12 10.5196 11.8946 10.7071 11.7071C10.8946 11.5196 11 11.2652 11 11ZM17 11C17.1978 11 17.3911 10.9414 17.5556 10.8315C17.72 10.7216 17.8482 10.5654 17.9239 10.3827C17.9996 10.2 18.0194 9.99889 17.9808 9.80491C17.9422 9.61093 17.847 9.43275 17.7071 9.29289C17.5673 9.15304 17.3891 9.0578 17.1951 9.01921C17.0011 8.98063 16.8 9.00043 16.6173 9.07612C16.4346 9.15181 16.2784 9.27998 16.1685 9.44443C16.0586 9.60888 16 9.80222 16 10C16 10.2652 16.1054 10.5196 16.2929 10.7071C16.4804 10.8946 16.7348 11 17 11ZM14 16C13.8022 16 13.6089 16.0586 13.4444 16.1685C13.28 16.2784 13.1518 16.4346 13.0761 16.6173C13.0004 16.8 12.9806 17.0011 13.0192 17.1951C13.0578 17.3891 13.153 17.5673 13.2929 17.7071C13.4327 17.847 13.6109 17.9422 13.8049 17.9808C13.9989 18.0194 14.2 17.9996 14.3827 17.9239C14.5654 17.8482 14.7216 17.72 14.8315 17.5556C14.9414 17.3911 15 17.1978 15 17C15 16.7348 14.8946 16.4804 14.7071 16.2929C14.5196 16.1054 14.2652 16 14 16ZM20 12H14C13.7348 12 13.4804 12.1054 13.2929 12.2929C13.1054 12.4804 13 12.7348 13 13C13 14 13.84 16 17 16C20.16 16 21 14 21 13C21 12.7348 20.8946 12.4804 20.7071 12.2929C20.5196 12.1054 20.2652 12 20 12ZM16 7C16 3.84 14 3 13 3C12.7348 3 12.4804 3.10536 12.2929 3.29289C12.1054 3.48043 12 3.73478 12 4V10C12 10.2652 12.1054 10.5196 12.2929 10.7071C12.4804 10.8946 12.7348 11 13 11C14 11 16 10.16 16 7ZM11 13C10 13 8 13.84 8 17C8 20.16 10 21 11 21C11.2652 21 11.5196 20.8946 11.7071 20.7071C11.8946 20.5196 12 20.2652 12 20V14C12 13.7348 11.8946 13.4804 11.7071 13.2929C11.5196 13.1054 11.2652 13 11 13Z" fill="currentColor"/>
  </symbol>
  <symbol id="ic_fan_speed_medium" viewBox="0 0 24 24">
    <path d="M3.99997 12H9.99997C10.2652 12 10.5195 11.8946 10.7071 11.7071C10.8946 11.5195 11 11.2652 11 11C11 9.99997 10.16 7.99997 6.99997 7.99997C3.83997 7.99997 2.99997 9.99997 2.99997 11C2.99997 11.2652 3.10533 11.5195 3.29287 11.7071C3.4804 11.8946 3.73476 12 3.99997 12ZM7.99997 4.99997C8.13437 4.98768 8.26983 5.0051 8.39674 5.051C8.52365 5.09691 8.63891 5.17018 8.73434 5.26561C8.82977 5.36104 8.90303 5.47629 8.94894 5.60321C8.99485 5.73012 9.01227 5.86557 8.99997 5.99997C8.99997 6.26519 9.10533 6.51954 9.29287 6.70708C9.4804 6.89462 9.73476 6.99997 9.99997 6.99997C10.2652 6.99997 10.5195 6.89462 10.7071 6.70708C10.8946 6.51954 11 6.26519 11 5.99997C11.0125 5.60263 10.9434 5.20693 10.7971 4.83731C10.6507 4.46768 10.4302 4.13196 10.1491 3.85085C9.86798 3.56975 9.53226 3.34922 9.16264 3.20288C8.79301 3.05654 8.39732 2.98748 7.99997 2.99997C7.73476 2.99997 7.4804 3.10533 7.29287 3.29287C7.10533 3.4804 6.99997 3.73476 6.99997 3.99997C6.99997 4.26519 7.10533 4.51954 7.29287 4.70708C7.4804 4.89462 7.73476 4.99997 7.99997 4.99997ZM5.99997 13C5.60263 12.9875 5.20693 13.0565 4.83731 13.2029C4.46768 13.3492 4.13196 13.5697 3.85085 13.8509C3.56975 14.132 3.34922 14.4677 3.20288 14.8373C3.05654 15.2069 2.98748 15.6026 2.99997 16C2.99997 16.2652 3.10533 16.5195 3.29287 16.7071C3.4804 16.8946 3.73476 17 3.99997 17C4.26519 17 4.51954 16.8946 4.70708 16.7071C4.89462 16.5195 4.99997 16.2652 4.99997 16C4.98768 15.8656 5.0051 15.7301 5.051 15.6032C5.09691 15.4763 5.17018 15.361 5.26561 15.2656C5.36104 15.1702 5.47629 15.0969 5.60321 15.051C5.73012 15.0051 5.86557 14.9877 5.99997 15C6.26519 15 6.51954 14.8946 6.70708 14.7071C6.89462 14.5195 6.99997 14.2652 6.99997 14C6.99997 13.7348 6.89462 13.4804 6.70708 13.2929C6.51954 13.1053 6.26519 13 5.99997 13ZM18 9.99997C18.3973 10.0125 18.793 9.94341 19.1626 9.79706C19.5323 9.65072 19.868 9.43019 20.1491 9.14909C20.4302 8.86798 20.6507 8.53226 20.7971 8.16264C20.9434 7.79301 21.0125 7.39732 21 6.99997C21 6.73476 20.8946 6.4804 20.7071 6.29287C20.5195 6.10533 20.2652 5.99997 20 5.99997C19.7348 5.99997 19.4804 6.10533 19.2929 6.29287C19.1053 6.4804 19 6.73476 19 6.99997C19.0123 7.13437 18.9948 7.26983 18.9489 7.39674C18.903 7.52365 18.8298 7.63891 18.7343 7.73434C18.6389 7.82977 18.5237 7.90303 18.3967 7.94894C18.2698 7.99485 18.1344 8.01227 18 7.99997C17.7348 7.99997 17.4804 8.10533 17.2929 8.29287C17.1053 8.4804 17 8.73476 17 8.99997C17 9.26519 17.1053 9.51954 17.2929 9.70708C17.4804 9.89462 17.7348 9.99997 18 9.99997ZM16 19C15.8656 19.0123 15.7301 18.9948 15.6032 18.9489C15.4763 18.903 15.361 18.8298 15.2656 18.7343C15.1702 18.6389 15.0969 18.5237 15.051 18.3967C15.0051 18.2698 14.9877 18.1344 15 18C15 17.7348 14.8946 17.4804 14.7071 17.2929C14.5195 17.1053 14.2652 17 14 17C13.7348 17 13.4804 17.1053 13.2929 17.2929C13.1053 17.4804 13 17.7348 13 18C12.9875 18.3973 13.0565 18.793 13.2029 19.1626C13.3492 19.5323 13.5697 19.868 13.8509 20.1491C14.132 20.4302 14.4677 20.6507 14.8373 20.7971C15.2069 20.9434 15.6026 21.0125 16 21C16.2652 21 16.5195 20.8946 16.7071 20.7071C16.8946 20.5195 17 20.2652 17 20C17 19.7348 16.8946 19.4804 16.7071 19.2929C16.5195 19.1053 16.2652 19 16 19ZM11 13C9.99997 13 7.99997 13.84 7.99997 17C7.99997 20.16 9.99997 21 11 21C11.2652 21 11.5195 20.8946 11.7071 20.7071C11.8946 20.5195 12 20.2652 12 20V14C12 13.7348 11.8946 13.4804 11.7071 13.2929C11.5195 13.1053 11.2652 13 11 13ZM20 12H14C13.7348 12 13.4804 12.1053 13.2929 12.2929C13.1053 12.4804 13 12.7348 13 13C13 14 13.84 16 17 16C20.16 16 21 14 21 13C21 12.7348 20.8946 12.4804 20.7071 12.2929C20.5195 12.1053 20.2652 12 20 12ZM16 6.99997C16 3.83997 14 2.99997 13 2.99997C12.7348 2.99997 12.4804 3.10533 12.2929 3.29287C12.1053 3.4804 12 3.73476 12 3.99997V9.99997C12 10.2652 12.1053 10.5195 12.2929 10.7071C12.4804 10.8946 12.7348 11 13 11C14 11 16 10.16 16 6.99997Z" fill="currentColor"/>
  </symbol>
  <symbol id="ic_fan_speed_turbo" viewBox="0 0 24 24">
    <path d="M5.06982 8L10.2698 11C10.4222 11.0864 10.5946 11.1312 10.7698 11.13C10.9443 11.1289 11.1155 11.0822 11.2664 10.9945C11.4173 10.9068 11.5426 10.7811 11.6298 10.63C11.8985 10.1315 12.0068 9.56229 11.9398 9C11.8365 8.35214 11.5754 7.73964 11.1795 7.21648C10.7837 6.69332 10.2652 6.27555 9.66982 6C6.92982 4.42 5.21982 5.69 4.66982 6.59C4.60399 6.70388 4.56127 6.82962 4.54411 6.96004C4.52695 7.09045 4.53569 7.22297 4.56982 7.35C4.60249 7.48753 4.66394 7.61657 4.75013 7.72861C4.83631 7.84065 4.94527 7.93315 5.06982 8ZM10.7298 12.39C10.764 12.263 10.7727 12.1305 10.7555 12C10.7384 11.8696 10.6957 11.7439 10.6298 11.63C10.1198 10.74 8.40982 9.46 5.62982 11.04C5.04691 11.3169 4.53965 11.7307 4.15134 12.2462C3.76302 12.7616 3.50518 13.3633 3.39982 14C3.32435 14.5754 3.43286 15.16 3.70982 15.67C3.79708 15.8211 3.92237 15.9468 4.07324 16.0345C4.22411 16.1222 4.39531 16.1689 4.56982 16.17C4.745 16.1712 4.91742 16.1264 5.06982 16.04L10.2698 13.04C10.3869 12.9689 10.4882 12.8746 10.5673 12.7628C10.6464 12.6509 10.7018 12.5241 10.7298 12.39ZM10.9998 13C9.99982 13 7.99982 13.84 7.99982 17C7.99982 20.16 9.99982 21 10.9998 21C11.265 21 11.5194 20.8946 11.7069 20.7071C11.8945 20.5196 11.9998 20.2652 11.9998 20V14C11.9998 13.7348 11.8945 13.4804 11.7069 13.2929C11.5194 13.1054 11.265 13 10.9998 13ZM20.2898 8.37C20.1579 8.14127 19.9409 7.974 19.6861 7.90468C19.4313 7.83536 19.1594 7.86963 18.9298 8L13.7298 11C13.5018 11.1344 13.3364 11.3538 13.2698 11.61C13.2357 11.737 13.2269 11.8695 13.2441 12C13.2613 12.1304 13.304 12.2561 13.3698 12.37C13.6356 12.7923 14.0069 13.138 14.4471 13.3729C14.8872 13.6079 15.3811 13.7241 15.8798 13.71C16.7452 13.6962 17.5911 13.451 18.3298 13C18.9252 12.7244 19.4437 12.3067 19.8395 11.7835C20.2354 11.2604 20.4965 10.6479 20.5998 10C20.6668 9.43771 20.5585 8.86846 20.2898 8.37ZM18.9298 16L13.7298 13C13.5002 12.8696 13.2283 12.8354 12.9736 12.9047C12.7188 12.974 12.5017 13.1413 12.3698 13.37C12.1011 13.8685 11.9929 14.4377 12.0598 15C12.1632 15.6479 12.4243 16.2604 12.8201 16.7835C13.216 17.3067 13.7344 17.7244 14.3298 18C15.0645 18.4651 15.9107 18.7241 16.7798 18.75C17.2786 18.7641 17.7724 18.6479 18.2126 18.4129C18.6527 18.178 19.024 17.8323 19.2898 17.41C19.3557 17.2961 19.3984 17.1704 19.4155 17.04C19.4327 16.9095 19.424 16.777 19.3898 16.65C19.3618 16.5159 19.3064 16.3891 19.2273 16.2772C19.1482 16.1654 19.0469 16.0711 18.9298 16ZM12.9998 11C13.9998 11 15.9998 10.16 15.9998 7C15.9998 3.84 13.9998 3 12.9998 3C12.7346 3 12.4803 3.10536 12.2927 3.29289C12.1052 3.48043 11.9998 3.73478 11.9998 4V10C11.9998 10.2652 12.1052 10.5196 12.2927 10.7071C12.4803 10.8946 12.7346 11 12.9998 11Z" fill="currentColor"/>
  </symbol>
</svg>
