<!-- JioGames DLS — fashion icons (3 icons) -->
<svg xmlns="http://www.w3.org/2000/svg" style="display:none">
  <symbol id="ic_fashion" viewBox="0 0 24 24">
    <path d="M20.7002 4.9402L15.7002 3.0702C15.4939 2.9911 15.2672 2.98254 15.0556 3.04586C14.8439 3.10917 14.6592 3.24081 14.5302 3.4202C14.2565 3.83275 13.885 4.17116 13.4488 4.40527C13.0126 4.63937 12.5252 4.76189 12.0302 4.76189C11.5351 4.76189 11.0478 4.63937 10.6116 4.40527C10.1753 4.17116 9.80384 3.83275 9.53019 3.4202C9.40123 3.24081 9.21649 3.10917 9.00482 3.04586C8.79316 2.98254 8.56648 2.9911 8.36019 3.0702L3.36019 4.9402C2.8625 5.1091 2.45129 5.46712 2.2155 5.93683C1.97971 6.40654 1.93829 6.95019 2.10019 7.4502L3.10019 10.4502C3.23265 10.8493 3.48755 11.1965 3.82864 11.4425C4.16973 11.6884 4.57967 11.8206 5.00019 11.8202H5.28019L6.00019 11.6902V19.0002C6.00019 19.5306 6.2109 20.0393 6.58598 20.4144C6.96105 20.7895 7.46976 21.0002 8.00019 21.0002H16.0002C16.5306 21.0002 17.0393 20.7895 17.4144 20.4144C17.7895 20.0393 18.0002 19.5306 18.0002 19.0002V11.6902L18.7202 11.8002H19.0002C19.4207 11.8006 19.8306 11.6684 20.1717 11.4225C20.5128 11.1765 20.7677 10.8293 20.9002 10.4302L21.9002 7.4302C22.0591 6.94049 22.0231 6.40835 21.7995 5.94454C21.576 5.48074 21.1823 5.121 20.7002 4.9402Z" fill="currentColor"/>
  </symbol>
  <symbol id="ic_fashion_child" viewBox="0 0 24 24">
    <path d="M20.89 4.21004L16.89 2.21004C16.6143 2.07012 16.3092 1.99812 16 2.00004H15.88C15.6265 2.00815 15.3805 2.0875 15.17 2.22898C14.9595 2.37047 14.7932 2.56838 14.69 2.80004C14.4422 3.3019 14.059 3.72444 13.5836 4.01989C13.1082 4.31534 12.5597 4.47192 12 4.47192C11.4403 4.47192 10.8918 4.31534 10.4164 4.01989C9.94102 3.72444 9.55778 3.3019 9.31 2.80004C9.20681 2.56838 9.04045 2.37047 8.82999 2.22898C8.61953 2.0875 8.37347 2.00815 8.11999 2.00004H7.99999C7.68771 1.99881 7.37949 2.07073 7.09999 2.21004L3.09999 4.21004C2.67021 4.4258 2.33257 4.78919 2.14891 5.23364C1.96525 5.67809 1.94789 6.17383 2.09999 6.63004L3.09999 9.63004C3.25896 10.1101 3.59387 10.5121 4.03731 10.7552C4.48075 10.9982 4.99981 11.0643 5.48999 10.94L6.99999 10.56V17C6.99999 17.2653 7.10535 17.5196 7.29289 17.7071C7.48042 17.8947 7.73478 18 7.99999 18C8.53043 18 9.03913 18.2108 9.41421 18.5858C9.78928 18.9609 10 19.4696 10 20V21C10 21.2653 10.1054 21.5196 10.2929 21.7071C10.4804 21.8947 10.7348 22 11 22H13C13.2652 22 13.5196 21.8947 13.7071 21.7071C13.8946 21.5196 14 21.2653 14 21V20C14 19.4696 14.2107 18.9609 14.5858 18.5858C14.9609 18.2108 15.4696 18 16 18C16.2652 18 16.5196 17.8947 16.7071 17.7071C16.8946 17.5196 17 17.2653 17 17V10.56L18.51 10.94C19.0002 11.0643 19.5192 10.9982 19.9627 10.7552C20.4061 10.5121 20.741 10.1101 20.9 9.63004L21.9 6.63004C22.0513 6.17266 22.0325 5.67601 21.847 5.23141C21.6614 4.78681 21.3216 4.42412 20.89 4.21004Z" fill="currentColor"/>
  </symbol>
  <symbol id="ic_fashion_woman" viewBox="0 0 24 24">
    <path d="M7.74 8H16.26C16.7994 7.07134 17.045 6.00119 16.9647 4.93027C16.8844 3.85936 16.4818 2.83782 15.81 2L14.4 2.38C14.2706 2.41648 14.1499 2.47867 14.0451 2.56286C13.9403 2.64705 13.8535 2.75152 13.79 2.87C13.6241 3.20281 13.3688 3.48279 13.0526 3.67849C12.7364 3.8742 12.3719 3.97787 12 3.97787C11.6281 3.97787 11.2636 3.8742 10.9474 3.67849C10.6312 3.48279 10.3759 3.20281 10.21 2.87C10.1465 2.75152 10.0597 2.64705 9.95491 2.56286C9.8501 2.47867 9.72939 2.41648 9.6 2.38L8.19 2C7.51816 2.83782 7.11561 3.85936 7.0353 4.93027C6.95498 6.00119 7.20065 7.07134 7.74 8ZM16.4 11C16.2092 10.6927 16.0738 10.3542 16 10H8.05C7.96082 10.3575 7.80842 10.6962 7.6 11C6.12 13.09 4 16.28 4 19C4 23 20 23 20 19C20 16.28 17.88 13.09 16.4 11Z" fill="currentColor"/>
  </symbol>
</svg>
