<!-- JioGames DLS — female icons (3 icons) -->
<svg xmlns="http://www.w3.org/2000/svg" style="display:none">
  <symbol id="ic_female" viewBox="0 0 24 24">
    <path d="M16 16.0002H13V13.9102C14.4834 13.6595 15.8185 12.8606 16.7407 11.672C17.6628 10.4833 18.1048 8.99155 17.979 7.49238C17.8532 5.99321 17.1688 4.59601 16.0614 3.57766C14.954 2.55932 13.5045 1.99414 12 1.99414C10.4956 1.99414 9.04603 2.55932 7.93864 3.57766C6.83125 4.59601 6.14684 5.99321 6.02103 7.49238C5.89522 8.99155 6.33719 10.4833 7.25937 11.672C8.18154 12.8606 9.51661 13.6595 11 13.9102V16.0002H8.00001C7.73479 16.0002 7.48044 16.1056 7.2929 16.2931C7.10537 16.4806 7.00001 16.735 7.00001 17.0002C7.00001 17.2654 7.10537 17.5198 7.2929 17.7073C7.48044 17.8949 7.73479 18.0002 8.00001 18.0002H11V21.0002C11 21.2654 11.1054 21.5198 11.2929 21.7073C11.4804 21.8949 11.7348 22.0002 12 22.0002C12.2652 22.0002 12.5196 21.8949 12.7071 21.7073C12.8947 21.5198 13 21.2654 13 21.0002V18.0002H16C16.2652 18.0002 16.5196 17.8949 16.7071 17.7073C16.8947 17.5198 17 17.2654 17 17.0002C17 16.735 16.8947 16.4806 16.7071 16.2931C16.5196 16.1056 16.2652 16.0002 16 16.0002ZM8.00001 8.00022C8.00001 7.2091 8.23461 6.43574 8.67413 5.77794C9.11366 5.12014 9.73837 4.60745 10.4693 4.3047C11.2002 4.00195 12.0044 3.92274 12.7804 4.07708C13.5563 4.23142 14.269 4.61238 14.8284 5.17179C15.3878 5.7312 15.7688 6.44393 15.9232 7.21986C16.0775 7.99578 15.9983 8.80005 15.6955 9.53095C15.3928 10.2619 14.8801 10.8866 14.2223 11.3261C13.5645 11.7656 12.7911 12.0002 12 12.0002C10.9391 12.0002 9.92173 11.5788 9.17158 10.8286C8.42144 10.0785 8.00001 9.06109 8.00001 8.00022Z" fill="currentColor"/>
  </symbol>
  <symbol id="ic_female_hygiene_products" viewBox="0 0 24 24">
    <path d="M5.05005 18C5.06419 18.1348 5.04805 18.271 5.0028 18.3988C4.95754 18.5266 4.88432 18.6426 4.78849 18.7384C4.69265 18.8343 4.57661 18.9075 4.44885 18.9527C4.3211 18.998 4.18484 19.0141 4.05005 19H3.05005C2.78483 19 2.53048 19.1054 2.34294 19.2929C2.15541 19.4804 2.05005 19.7348 2.05005 20C2.05005 20.2652 2.15541 20.5196 2.34294 20.7071C2.53048 20.8946 2.78483 21 3.05005 21H4.05005C4.44701 21.011 4.84206 20.941 5.21102 20.7941C5.57999 20.6473 5.91512 20.4267 6.19593 20.1459C6.47673 19.8651 6.69731 19.5299 6.84417 19.161C6.99103 18.792 7.06108 18.397 7.05005 18C7.0359 17.8652 7.05205 17.729 7.0973 17.6012C7.14255 17.4734 7.21577 17.3574 7.31161 17.2616C7.40745 17.1657 7.52349 17.0925 7.65124 17.0473C7.779 17.002 7.91525 16.9859 8.05005 17C8.49408 17.0062 8.93197 16.8959 9.32005 16.68L7.66005 15C6.92084 15.0638 6.23537 15.4124 5.74837 15.9722C5.26138 16.532 5.01098 17.2591 5.05005 18ZM20.6201 3.58C20.6028 3.53052 20.5793 3.48347 20.55 3.44C20.4891 3.3427 20.4223 3.24919 20.35 3.16C20.3133 3.10432 20.2732 3.05089 20.23 3L20.17 2.94L20.1201 2.88C20.0579 2.82127 19.991 2.76776 19.92 2.72C19.8513 2.65465 19.7777 2.59448 19.7001 2.54C19.6127 2.47396 19.5189 2.417 19.42 2.37C19.34 2.37 19.26 2.28 19.18 2.25C19.0801 2.20453 18.9763 2.16773 18.8701 2.14L18.6201 2.07H18.2901L18 2H17.7H17.46C17.3439 2.02272 17.23 2.0562 17.12 2.1C17.042 2.11408 16.9651 2.13414 16.89 2.16C16.7683 2.2134 16.6512 2.27696 16.54 2.35L16.36 2.44C16.1867 2.5527 16.0258 2.68343 15.88 2.83L7.29005 11.46C7.19632 11.553 7.12193 11.6636 7.07116 11.7854C7.02039 11.9073 6.99425 12.038 6.99425 12.17C6.99425 12.302 7.02039 12.4327 7.07116 12.5546C7.12193 12.6764 7.19632 12.787 7.29005 12.88L10.12 15.71C10.213 15.8037 10.3236 15.8781 10.4455 15.9289C10.5673 15.9797 10.698 16.0058 10.83 16.0058C10.9621 16.0058 11.0928 15.9797 11.2146 15.9289C11.3365 15.8781 11.4471 15.8037 11.54 15.71L20 7.24L20.1201 7.12C20.5722 6.6617 20.8649 6.07009 20.955 5.43262C21.045 4.79514 20.9276 4.1456 20.6201 3.58Z" fill="currentColor"/>
  </symbol>
  <symbol id="ic_female_male" viewBox="0 0 24 24">
    <path d="M22 8.99994C21.9998 8.05391 21.7312 7.12735 21.2255 6.32786C20.7197 5.52838 19.9975 4.88878 19.1427 4.48337C18.288 4.07795 17.3358 3.92334 16.3966 4.0375C15.4575 4.15166 14.5701 4.5299 13.8373 5.1283C13.1046 5.7267 12.5567 6.52069 12.2572 7.41806C11.9577 8.31543 11.9189 9.27936 12.1454 10.1979C12.3718 11.1164 12.8542 11.9518 13.5366 12.6071C14.2189 13.2624 15.0731 13.7107 16 13.8999V15.9999H15C14.7348 15.9999 14.4804 16.1053 14.2929 16.2928C14.1054 16.4804 14 16.7347 14 16.9999C14 17.2652 14.1054 17.5195 14.2929 17.707C14.4804 17.8946 14.7348 17.9999 15 17.9999H16V19.9999C16 20.2652 16.1054 20.5195 16.2929 20.707C16.4804 20.8946 16.7348 20.9999 17 20.9999C17.2652 20.9999 17.5196 20.8946 17.7071 20.707C17.8946 20.5195 18 20.2652 18 19.9999V17.9999H19C19.2652 17.9999 19.5196 17.8946 19.7071 17.707C19.8946 17.5195 20 17.2652 20 16.9999C20 16.7347 19.8946 16.4804 19.7071 16.2928C19.5196 16.1053 19.2652 15.9999 19 15.9999H18V13.8999C19.1294 13.6694 20.1444 13.0558 20.8733 12.1628C21.6022 11.2699 22.0002 10.1526 22 8.99994ZM17 11.9999C16.4067 11.9999 15.8266 11.824 15.3333 11.4943C14.8399 11.1647 14.4554 10.6962 14.2284 10.148C14.0013 9.59981 13.9419 8.99661 14.0576 8.41467C14.1734 7.83273 14.4591 7.29818 14.8787 6.87862C15.2982 6.45906 15.8328 6.17334 16.4147 6.05758C16.9967 5.94183 17.5999 6.00124 18.1481 6.2283C18.6962 6.45536 19.1648 6.83988 19.4944 7.33323C19.8241 7.82658 20 8.4066 20 8.99994C20 9.79559 19.6839 10.5587 19.1213 11.1213C18.5587 11.6839 17.7957 11.9999 17 11.9999ZM8 11.0999V6.40994L8.29 6.70994C8.38297 6.80367 8.49357 6.87806 8.61543 6.92883C8.73729 6.9796 8.86799 7.00574 9 7.00574C9.13202 7.00574 9.26272 6.9796 9.38458 6.92883C9.50644 6.87806 9.61704 6.80367 9.71 6.70994C9.80373 6.61698 9.87813 6.50638 9.92889 6.38452C9.97966 6.26266 10.0058 6.13195 10.0058 5.99994C10.0058 5.86793 9.97966 5.73722 9.92889 5.61536C9.87813 5.4935 9.80373 5.3829 9.71 5.28994L7.71 3.28994C7.61704 3.19621 7.50644 3.12182 7.38458 3.07105C7.26272 3.02028 7.13202 2.99414 7 2.99414C6.86799 2.99414 6.73729 3.02028 6.61543 3.07105C6.49357 3.12182 6.38297 3.19621 6.29 3.28994L4.29 5.28994C4.1017 5.47824 3.99591 5.73364 3.99591 5.99994C3.99591 6.26624 4.1017 6.52164 4.29 6.70994C4.47831 6.89824 4.7337 7.00403 5 7.00403C5.26631 7.00403 5.5217 6.89824 5.71 6.70994L6 6.40994V11.0999C4.78596 11.3478 3.70718 12.0375 2.97281 13.0355C2.23843 14.0335 1.90078 15.2687 2.02532 16.5015C2.14986 17.7343 2.72771 18.8769 3.64685 19.7079C4.56599 20.5388 5.76093 20.9989 7 20.9989C8.23908 20.9989 9.43402 20.5388 10.3532 19.7079C11.2723 18.8769 11.8501 17.7343 11.9747 16.5015C12.0992 15.2687 11.7616 14.0335 11.0272 13.0355C10.2928 12.0375 9.21405 11.3478 8 11.0999ZM7 18.9999C6.40666 18.9999 5.82664 18.824 5.33329 18.4943C4.83995 18.1647 4.45543 17.6962 4.22837 17.148C4.0013 16.5998 3.94189 15.9966 4.05765 15.4147C4.1734 14.8327 4.45913 14.2982 4.87868 13.8786C5.29824 13.4591 5.83279 13.1733 6.41473 13.0576C6.99668 12.9418 7.59988 13.0012 8.14805 13.2283C8.69623 13.4554 9.16477 13.8399 9.49441 14.3332C9.82406 14.8266 10 15.4066 10 15.9999C10 16.7956 9.68393 17.5587 9.12132 18.1213C8.55871 18.6839 7.79565 18.9999 7 18.9999Z" fill="currentColor"/>
  </symbol>
</svg>
