<!-- JioGames DLS — file icons (3 icons) -->
<svg xmlns="http://www.w3.org/2000/svg" style="display:none">
  <symbol id="ic_file_request" viewBox="0 0 24 24">
    <path d="M15.5 7H19.5C19.5 6.47 19.29 5.96 18.91 5.59L15.91 2.59C15.54 2.21 15.03 2 14.5 2V6C14.5 6.27 14.61 6.52 14.79 6.71C14.97 6.9 15.23 7 15.5 7Z" fill="currentColor"/>
<path d="M13.38 8.12C12.82 7.56 12.5 6.79 12.5 6V2H7C6.34 2 5.7 2.26 5.23 2.73C4.76 3.2 4.5 3.83 4.5 4.5V19.5C4.5 20.16 4.76 20.8 5.23 21.27C5.7 21.74 6.33 22 7 22H17C17.66 22 18.3 21.74 18.77 21.27C19.24 20.8 19.5 20.17 19.5 19.5V9H15.5C14.7 9 13.94 8.68 13.38 8.12ZM15.71 16.7L12.71 19.7C12.62 19.79 12.51 19.87 12.38 19.92C12.26 19.97 12.13 20 12 20C11.87 20 11.74 19.97 11.62 19.92C11.5 19.87 11.39 19.8 11.29 19.7L8.29 16.7C7.9 16.31 7.9 15.68 8.29 15.29C8.68 14.9 9.31 14.9 9.7 15.29L10.99 16.58V10.99C10.99 10.44 11.44 9.99 11.99 9.99C12.54 9.99 12.99 10.44 12.99 10.99V16.58L14.28 15.29C14.67 14.9 15.3 14.9 15.69 15.29C16.08 15.68 16.08 16.31 15.69 16.7H15.71Z" fill="currentColor"/>
  </symbol>
  <symbol id="ic_file_send" viewBox="0 0 24 24">
    <path d="M16 7H20C20 6.47 19.79 5.96 19.41 5.59L16.41 2.59C16.04 2.21 15.53 2 15 2V6C15 6.27 15.11 6.52 15.29 6.71C15.47 6.9 15.73 7 16 7Z" fill="currentColor"/>
<path d="M13.88 8.12C13.32 7.56 13 6.79 13 6V2H7.5C6.84 2 6.2 2.26 5.73 2.73C5.26 3.2 5 3.83 5 4.5V19.5C5 20.16 5.26 20.8 5.73 21.27C6.2 21.74 6.83 22 7.5 22H17.5C18.16 22 18.8 21.74 19.27 21.27C19.74 20.8 20 20.17 20 19.5V9H16C15.2 9 14.44 8.68 13.88 8.12ZM16.92 15.62C17.02 15.86 17.02 16.14 16.92 16.38C16.87 16.5 16.8 16.61 16.7 16.71L13.7 19.71C13.5 19.91 13.25 20 12.99 20C12.73 20 12.48 19.9 12.28 19.71C11.89 19.32 11.89 18.69 12.28 18.3L13.57 17.01H8.98C8.43 17.01 7.98 16.56 7.98 16.01C7.98 15.46 8.43 15.01 8.98 15.01H13.57L12.28 13.72C11.89 13.33 11.89 12.7 12.28 12.31C12.67 11.92 13.3 11.92 13.69 12.31L16.69 15.31C16.78 15.4 16.87 15.49 16.92 15.62Z" fill="currentColor"/>
  </symbol>
  <symbol id="ic_file_share" viewBox="0 0 24 24">
    <path d="M15 7.00001H19C19 6.47001 18.79 5.96001 18.41 5.59001L15.41 2.59001C15.04 2.21001 14.53 2.00001 14 2.00001V6.00001C14 6.27001 14.11 6.52001 14.29 6.71001C14.47 6.90001 14.73 7.00001 15 7.00001Z" fill="currentColor"/>
<path d="M12.88 8.12C12.32 7.56 12 6.79 12 6V2H6.5C5.84 2 5.2 2.26 4.73 2.73C4.26 3.2 4 3.83 4 4.5V19.5C4 20.16 4.26 20.8 4.73 21.27C5.2 21.74 5.83 22 6.5 22H16.5C17.16 22 17.8 21.74 18.27 21.27C18.74 20.8 19 20.17 19 19.5V9H15C14.2 9 13.44 8.68 12.88 8.12ZM15 17.99C15 18.54 14.55 18.99 14 18.99C13.45 18.99 13 18.54 13 17.99V16.41L9.71 19.7C9.51 19.9 9.26 19.99 9 19.99C8.74 19.99 8.49 19.89 8.29 19.7C7.9 19.31 7.9 18.68 8.29 18.29L11.58 15H10C9.45 15 9 14.55 9 14C9 13.45 9.45 13 10 13H14C14.13 13 14.26 13.03 14.38 13.08C14.63 13.18 14.82 13.38 14.92 13.62C14.97 13.74 15 13.87 15 14V17.99Z" fill="currentColor"/>
  </symbol>
</svg>
