<!-- JioGames DLS — fire icons (2 icons) -->
<svg xmlns="http://www.w3.org/2000/svg" style="display:none">
  <symbol id="ic_fire" viewBox="0 0 24 24">
    <path d="M11.73 2.77002L11.21 2.29002C11.0608 2.13757 10.8667 2.03684 10.6562 2.00252C10.4457 1.96821 10.2297 2.00212 10.0398 2.0993C9.84988 2.19648 9.69604 2.35184 9.60073 2.54268C9.50541 2.73351 9.47362 2.94982 9.50999 3.16002C9.6653 4.72262 9.352 6.29608 8.60999 7.68002C8.14748 8.50226 7.60842 9.27903 6.99999 10C5.7414 11.3642 5.0294 13.1442 4.99999 15C4.98093 15.9245 5.14896 16.8433 5.49399 17.7012C5.83902 18.5591 6.35393 19.3384 7.00778 19.9922C7.66163 20.6461 8.44092 21.161 9.29882 21.506C10.1567 21.8511 11.0755 22.0191 12 22C12.9245 22.0191 13.8433 21.8511 14.7012 21.506C15.5591 21.161 16.3384 20.6461 16.9922 19.9922C17.6461 19.3384 18.161 18.5591 18.506 17.7012C18.851 16.8433 19.0191 15.9245 19 15C19 9.26002 13.72 4.54001 11.73 2.77002ZM12 20C11.5173 20.0129 11.0417 19.8817 10.634 19.6231C10.2262 19.3645 9.90468 18.9903 9.71047 18.5483C9.51626 18.1062 9.45815 17.6163 9.54356 17.1411C9.62896 16.6658 9.85401 16.2268 10.19 15.88C10.4014 15.631 10.5733 15.3511 10.7 15.05C10.8739 14.5504 10.9749 14.0284 11 13.5C11.0005 13.4013 11.0302 13.3049 11.0854 13.2231C11.1405 13.1412 11.2187 13.0775 11.31 13.04C11.4001 12.9992 11.5008 12.9878 11.5978 13.0076C11.6948 13.0273 11.783 13.0772 11.85 13.15L12.02 13.3C12.7 13.9 14.5 15.51 14.5 17.5C14.5068 17.8302 14.4468 18.1583 14.3236 18.4647C14.2003 18.7711 14.0164 19.0494 13.7829 19.2829C13.5494 19.5165 13.2711 19.7004 12.9647 19.8236C12.6583 19.9468 12.3302 20.0068 12 20Z" fill="currentColor"/>
  </symbol>
  <symbol id="ic_fire_alarm" viewBox="0 0 24 24">
    <path d="M9.5 16C10.7856 16 12.0423 15.6188 13.1112 14.9046C14.1801 14.1903 15.0132 13.1752 15.5052 11.9874C15.9972 10.7997 16.1259 9.49279 15.8751 8.23192C15.6243 6.97104 15.0052 5.81285 14.0962 4.90381C13.1872 3.99477 12.029 3.3757 10.7681 3.1249C9.50721 2.87409 8.20028 3.00282 7.01256 3.49479C5.82484 3.98676 4.80968 4.81988 4.09545 5.8888C3.38122 6.95772 3 8.21442 3 9.5C3.00264 11.2231 3.68831 12.8749 4.90673 14.0933C6.12514 15.3117 7.77691 15.9974 9.5 16ZM9.5 7.5C9.89556 7.5 10.2822 7.6173 10.6111 7.83706C10.94 8.05683 11.1964 8.36918 11.3478 8.73464C11.4991 9.10009 11.5387 9.50222 11.4616 9.89018C11.3844 10.2781 11.1939 10.6345 10.9142 10.9142C10.6345 11.1939 10.2781 11.3844 9.89018 11.4616C9.50222 11.5387 9.10009 11.4991 8.73463 11.3478C8.36918 11.1964 8.05682 10.94 7.83706 10.6111C7.6173 10.2822 7.5 9.89557 7.5 9.5C7.5 8.96957 7.71071 8.46086 8.08579 8.08579C8.46086 7.71072 8.96957 7.5 9.5 7.5ZM19 7C18.4696 7 17.9609 7.21072 17.5858 7.58579C17.2107 7.96086 17 8.46957 17 9C17 9.53044 17.2107 10.0391 17.5858 10.4142C17.9609 10.7893 18.4696 11 19 11V14C19 15.0609 18.5786 16.0783 17.8284 16.8284C17.0783 17.5786 16.0609 18 15 18H14.5V16.36C13.0507 17.4257 11.2989 18.0005 9.5 18.0005C7.7011 18.0005 5.94925 17.4257 4.5 16.36V19C4.5 19.5304 4.71071 20.0391 5.08579 20.4142C5.46086 20.7893 5.96957 21 6.5 21H12.5C12.849 20.9979 13.1914 20.9045 13.4932 20.7291C13.7949 20.5536 14.0455 20.3023 14.22 20H15C16.5913 20 18.1174 19.3679 19.2426 18.2426C20.3679 17.1174 21 15.5913 21 14V9C21 8.46957 20.7893 7.96086 20.4142 7.58579C20.0391 7.21072 19.5304 7 19 7Z" fill="currentColor"/>
  </symbol>
</svg>
