<!-- JioGames DLS — flash icons (3 icons) -->
<svg xmlns="http://www.w3.org/2000/svg" style="display:none">
  <symbol id="ic_flash" viewBox="0 0 24 24">
    <path d="M5.58989 12.1802L13.2899 2.56024C13.5104 2.28796 13.8204 2.10275 14.1646 2.03756C14.5089 1.97237 14.8651 2.03143 15.1699 2.20423C15.4747 2.37703 15.7083 2.65237 15.8292 2.98124C15.95 3.31011 15.9503 3.6712 15.8299 4.00024L13.8299 9.48024H16.4999C16.8706 9.49109 17.2309 9.60479 17.5407 9.80862C17.8505 10.0125 18.0975 10.2984 18.2542 10.6345C18.4108 10.9707 18.4709 11.3437 18.4278 11.712C18.3847 12.0803 18.24 12.4294 18.0099 12.7202L10.6399 21.4702C10.4088 21.7116 10.1027 21.8676 9.77162 21.9129C9.44051 21.9583 9.10381 21.8902 8.81633 21.7198C8.52884 21.5494 8.30749 21.2867 8.1883 20.9745C8.06911 20.6622 8.0591 20.3189 8.15989 20.0002L9.92989 15.4002H7.12989C6.76015 15.392 6.39992 15.2814 6.08925 15.0808C5.77857 14.8801 5.52962 14.5973 5.37005 14.2636C5.21048 13.93 5.14655 13.5586 5.18536 13.1909C5.22417 12.8231 5.3642 12.4732 5.58989 12.1802Z" fill="currentColor"/>
  </symbol>
  <symbol id="ic_flash_auto" viewBox="0 0 24 24">
    <path d="M16.5401 9.4702H13.8701L15.8701 3.9902C15.9854 3.662 15.9815 3.30366 15.8589 2.9781C15.7363 2.65253 15.503 2.38054 15.1999 2.20987C14.8967 2.03921 14.5432 1.98078 14.2012 2.04485C13.8593 2.10891 13.5509 2.29138 13.3301 2.5602L5.6301 12.1802C5.41005 12.4733 5.27476 12.8212 5.23899 13.1859C5.20322 13.5506 5.26835 13.9181 5.42727 14.2484C5.58619 14.5786 5.8328 14.8588 6.14015 15.0584C6.4475 15.258 6.80378 15.3693 7.1701 15.3802H9.9701L8.1601 20.0002C8.03236 20.328 8.02555 20.6906 8.14091 21.0229C8.25626 21.3552 8.48623 21.6356 8.78958 21.8138C9.09293 21.992 9.44982 22.0562 9.79626 21.9951C10.1427 21.934 10.456 21.7514 10.6801 21.4802L18.0501 12.7302C18.286 12.4396 18.4356 12.0886 18.4819 11.7172C18.5282 11.3458 18.4694 10.9688 18.3121 10.6292C18.1547 10.2895 17.9053 10.0008 17.592 9.79596C17.2788 9.59108 16.9143 9.47822 16.5401 9.4702ZM6.0001 7.6802C6.03962 7.77905 6.10908 7.86306 6.19874 7.92045C6.28841 7.97783 6.39379 8.00572 6.5001 8.0002C6.55972 8.00974 6.62048 8.00974 6.6801 8.0002C6.74669 7.97789 6.80807 7.94231 6.86054 7.89563C6.913 7.84894 6.95547 7.79211 6.98537 7.72857C7.01528 7.66502 7.032 7.59608 7.03453 7.52589C7.03706 7.45571 7.02535 7.38574 7.0001 7.3202L5.5001 3.3202C5.45797 3.2312 5.39143 3.15599 5.30823 3.10332C5.22502 3.05065 5.12857 3.02269 5.0301 3.02269C4.93163 3.02269 4.83518 3.05065 4.75198 3.10332C4.66877 3.15599 4.60223 3.2312 4.5601 3.3202L3.0001 7.3202C2.97485 7.38574 2.96314 7.45571 2.96567 7.52589C2.9682 7.59608 2.98492 7.66502 3.01483 7.72857C3.04473 7.79211 3.0872 7.84894 3.13966 7.89563C3.19213 7.94231 3.25351 7.97789 3.3201 8.0002C3.3855 8.02697 3.45574 8.03985 3.52637 8.03804C3.59701 8.03622 3.6665 8.01975 3.73043 7.98966C3.79437 7.95958 3.85135 7.91653 3.89777 7.86326C3.9442 7.80999 3.97904 7.74765 4.0001 7.6802L4.2201 7.0002H5.7801L6.0001 7.6802ZM4.6001 6.0002L5.0001 4.9202L5.4001 6.0002H4.6001Z" fill="currentColor"/>
  </symbol>
  <symbol id="ic_flash_off" viewBox="0 0 24 24">
    <path d="M18.05 12.7102C18.2801 12.4194 18.4248 12.0703 18.4679 11.702C18.511 11.3337 18.4509 10.9606 18.2943 10.6245C18.1376 10.2884 17.8906 10.0024 17.5808 9.79859C17.271 9.59475 16.9107 9.48106 16.54 9.4702H13.87L15.87 3.9902C15.9853 3.662 15.9814 3.30366 15.8588 2.9781C15.7362 2.65253 15.5029 2.38054 15.1998 2.20987C14.8966 2.03921 14.5431 1.98078 14.2012 2.04485C13.8592 2.10891 13.5508 2.29138 13.33 2.5602L10.45 6.1602L17.59 13.3002L18.05 12.7102ZM20.49 19.0002L5.00001 3.5102C4.90217 3.41237 4.78602 3.33476 4.6582 3.28181C4.53037 3.22887 4.39336 3.20161 4.25501 3.20161C4.11665 3.20161 3.97964 3.22887 3.85181 3.28181C3.72399 3.33476 3.60784 3.41237 3.51001 3.5102C3.41217 3.60804 3.33456 3.72418 3.28162 3.85201C3.22867 3.97984 3.20142 4.11684 3.20142 4.2552C3.20142 4.39356 3.22867 4.53057 3.28162 4.65839C3.33456 4.78622 3.41217 4.90237 3.51001 5.0002L7.88001 9.3202L5.59001 12.1802C5.36996 12.4733 5.23466 12.8212 5.19889 13.1859C5.16312 13.5506 5.22826 13.9181 5.38718 14.2484C5.5461 14.5786 5.7927 14.8588 6.10005 15.0584C6.4074 15.258 6.76369 15.3693 7.13001 15.3802H9.93001L8.16001 20.0002C8.03226 20.328 8.02546 20.6906 8.14081 21.0229C8.25617 21.3552 8.48613 21.6356 8.78948 21.8138C9.09283 21.992 9.44972 22.0562 9.79617 21.9951C10.1426 21.934 10.456 21.7514 10.68 21.4802L15 16.3902L19 20.4902C19.1976 20.6878 19.4656 20.7988 19.745 20.7988C20.0244 20.7988 20.2924 20.6878 20.49 20.4902C20.6876 20.2926 20.7986 20.0246 20.7986 19.7452C20.7986 19.4658 20.6876 19.1978 20.49 19.0002Z" fill="currentColor"/>
  </symbol>
</svg>
