<!-- JioGames DLS — flight icons (3 icons) -->
<svg xmlns="http://www.w3.org/2000/svg" style="display:none">
  <symbol id="ic_flight_game" viewBox="0 0 24 24">
    <path d="M3 13.9999C2.73562 13.9957 2.48034 14.0964 2.29 14.2799C2.19611 14.3745 2.12209 14.487 2.07229 14.6106C2.02249 14.7343 1.99791 14.8666 2 14.9999V15.9999C2.00626 16.2553 2.11002 16.4986 2.29 16.6799C2.38296 16.7736 2.49356 16.848 2.61542 16.8988C2.73728 16.9496 2.86799 16.9757 3 16.9757C3.13201 16.9757 3.26272 16.9496 3.38458 16.8988C3.50644 16.848 3.61704 16.7736 3.71 16.6799C3.88998 16.4986 3.99374 16.2553 4 15.9999V14.9999C3.99374 14.7445 3.88998 14.5012 3.71 14.3199C3.61907 14.2218 3.50939 14.1429 3.38743 14.0879C3.26548 14.033 3.13373 14.003 3 13.9999ZM3 8.9999C3.26438 9.00411 3.51966 8.90343 3.71 8.7199C3.80389 8.62528 3.87791 8.51283 3.92771 8.38919C3.97751 8.26554 4.00209 8.13319 4 7.9999V6.9999C3.99374 6.74451 3.88998 6.50121 3.71 6.3199C3.61704 6.22617 3.50644 6.15178 3.38458 6.10101C3.26272 6.05024 3.13201 6.0241 3 6.0241C2.86799 6.0241 2.73728 6.05024 2.61542 6.10101C2.49356 6.15178 2.38296 6.22617 2.29 6.3199C2.11002 6.50121 2.00626 6.74451 2 6.9999V7.9999C2.00626 8.25529 2.11002 8.4986 2.29 8.6799C2.38093 8.77802 2.49061 8.85689 2.61257 8.91186C2.73452 8.96682 2.86627 8.99676 3 8.9999ZM18 18.9999C17.8022 18.9999 17.6089 19.0586 17.4444 19.1684C17.28 19.2783 17.1518 19.4345 17.0761 19.6172C17.0004 19.7999 16.9806 20.001 17.0192 20.195C17.0578 20.389 17.153 20.5672 17.2929 20.707C17.4327 20.8469 17.6109 20.9421 17.8049 20.9807C17.9989 21.0193 18.2 20.9995 18.3827 20.9238C18.5654 20.8481 18.7216 20.7199 18.8315 20.5555C18.9414 20.391 19 20.1977 19 19.9999C19 19.7347 18.8946 19.4803 18.7071 19.2928C18.5196 19.1053 18.2652 18.9999 18 18.9999ZM15 15.9999C14.8022 15.9999 14.6089 16.0586 14.4444 16.1684C14.28 16.2783 14.1518 16.4345 14.0761 16.6172C14.0004 16.7999 13.9806 17.001 14.0192 17.195C14.0578 17.389 14.153 17.5672 14.2929 17.707C14.4327 17.8469 14.6109 17.9421 14.8049 17.9807C14.9989 18.0193 15.2 17.9995 15.3827 17.9238C15.5654 17.8481 15.7216 17.7199 15.8315 17.5555C15.9414 17.391 16 17.1977 16 16.9999C16 16.7347 15.8946 16.4803 15.7071 16.2928C15.5196 16.1053 15.2652 15.9999 15 15.9999ZM21.81 5.4199C21.6895 5.24824 21.5181 5.1188 21.32 5.0499C21.1193 4.97979 20.9007 4.97979 20.7 5.0499C20.5009 5.11162 20.3261 5.23398 20.2 5.3999L18 8.3999H15.8L14.15 6.7099C13.6492 6.20331 13.0168 5.84684 12.3241 5.68074C11.6314 5.51463 10.9061 5.54552 10.23 5.7699C9.63042 5.95525 9.08932 6.2933 8.6598 6.75087C8.23029 7.20844 7.9271 7.76981 7.78 8.3799H7.72C7.03624 8.38181 6.37051 8.59933 5.81752 9.0015C5.26454 9.40367 4.85249 9.97 4.64 10.6199H3C2.86839 10.6191 2.73793 10.6444 2.61609 10.6941C2.49426 10.7439 2.38344 10.8172 2.29 10.9099C2.10727 11.1015 2.00368 11.3551 2 11.6199C1.99924 11.7515 2.02446 11.882 2.07423 12.0038C2.12399 12.1256 2.19732 12.2365 2.29 12.3299C2.38344 12.4226 2.49426 12.4959 2.61609 12.5457C2.73793 12.5954 2.86839 12.6207 3 12.6199H4.64C4.86142 13.2799 5.2847 13.8536 5.85 14.2599C6.43127 14.678 7.13434 14.8924 7.85 14.8699L21.13 13.7499C21.3811 13.7298 21.6154 13.6156 21.7859 13.4302C21.9565 13.2448 22.0508 13.0018 22.05 12.7499V5.9999C22.0388 5.78478 21.9541 5.58003 21.81 5.4199ZM9.91 8.4199C10.13 8.07997 10.4629 7.82855 10.85 7.7099C11.1773 7.62012 11.5227 7.62012 11.85 7.7099C12.1834 7.78771 12.4883 7.95747 12.73 8.1999L12.98 8.4599L9.91 8.4199Z" fill="currentColor"/>
  </symbol>
  <symbol id="ic_flight_mode" viewBox="0 0 24 24">
    <path d="M20.5 3.50015C20.3143 3.31419 20.0937 3.16668 19.8509 3.06603C19.6081 2.96538 19.3479 2.91357 19.085 2.91357C18.8222 2.91357 18.5619 2.96538 18.3191 3.06603C18.0763 3.16668 17.8558 3.31419 17.67 3.50015L14.13 7.00015L4.70002 5.81015C4.35926 5.76213 4.01234 5.83274 3.71746 6.01015C3.42258 6.18755 3.19766 6.46095 3.08044 6.7845C2.96321 7.10805 2.9608 7.46207 3.07361 7.78719C3.18642 8.1123 3.40759 8.38874 3.70002 8.57015L9.18002 12.0001L7.77002 13.4001L4.77002 13.6701C4.45167 13.6994 4.15099 13.8296 3.91185 14.0418C3.6727 14.2539 3.50759 14.537 3.44061 14.8496C3.37362 15.1622 3.40826 15.488 3.53948 15.7795C3.67069 16.071 3.89161 16.313 4.17002 16.4701L6.31002 17.6801L7.52002 19.8201C7.67716 20.0986 7.91914 20.3195 8.21066 20.4507C8.50219 20.5819 8.82801 20.6166 9.14061 20.5496C9.45321 20.4826 9.73623 20.3175 9.94839 20.0783C10.1606 19.8392 10.2908 19.5385 10.32 19.2201L10.59 16.2201L12 14.8201L15.42 20.2901C15.6014 20.5826 15.8779 20.8038 16.203 20.9166C16.5281 21.0294 16.8821 21.027 17.2057 20.9097C17.5292 20.7925 17.8026 20.5676 17.98 20.2727C18.1574 19.9778 18.228 19.6309 18.18 19.2901L17 9.87015L20.5 6.33015C20.686 6.1444 20.8335 5.92382 20.9341 5.68103C21.0348 5.43823 21.0866 5.17798 21.0866 4.91515C21.0866 4.65232 21.0348 4.39206 20.9341 4.14927C20.8335 3.90647 20.686 3.68589 20.5 3.50015Z" fill="currentColor"/>
  </symbol>
  <symbol id="ic_flight_mode_off" viewBox="0 0 24 24">
    <path d="M3.71 8.56998L8.27 11.49L12.88 6.87998L4.7 5.80998C4.36021 5.76509 4.0153 5.83791 3.72266 6.01632C3.43002 6.19474 3.20731 6.468 3.09159 6.79061C2.97587 7.11322 2.97412 7.46573 3.08664 7.78948C3.19915 8.11322 3.41914 8.38867 3.71 8.56998ZM3.71 16.04L6.21 13.54L4.78 13.67C4.52408 13.6997 4.28012 13.7947 4.07163 13.9461C3.86313 14.0974 3.69713 14.2999 3.58961 14.534C3.4821 14.7681 3.4367 15.026 3.45778 15.2828C3.47887 15.5395 3.56573 15.7865 3.71 16V16.04ZM20.5 3.49998L20.37 3.39998L20.49 3.50998C20.3966 3.41164 20.2841 3.33334 20.1595 3.27983C20.0349 3.22632 19.9006 3.19873 19.765 3.19873C19.6294 3.19873 19.4951 3.22632 19.3705 3.27983C19.2459 3.33334 19.1334 3.41164 19.04 3.50998L3.51 19C3.41216 19.0978 3.33456 19.214 3.28161 19.3418C3.22866 19.4696 3.20141 19.6066 3.20141 19.745C3.20141 19.8833 3.22866 20.0203 3.28161 20.1482C3.33456 20.276 3.41216 20.3921 3.51 20.49C3.70758 20.6876 3.97557 20.7986 4.255 20.7986C4.39336 20.7986 4.53036 20.7713 4.65819 20.7184C4.78602 20.6654 4.90216 20.5878 5 20.49L6.84 18.6L7.53 19.82C7.68713 20.0984 7.92911 20.3193 8.22064 20.4505C8.51216 20.5817 8.83799 20.6164 9.15059 20.5494C9.46318 20.4824 9.7462 20.3173 9.95837 20.0782C10.1705 19.839 10.3007 19.5383 10.33 19.22L10.6 16.22L12 14.82L15.42 20.29C15.6014 20.5824 15.8778 20.8036 16.203 20.9164C16.5281 21.0292 16.8821 21.0268 17.2056 20.9096C17.5292 20.7923 17.8026 20.5674 17.98 20.2725C18.1574 19.9777 18.228 19.6307 18.18 19.29L17 9.86998L20.5 6.32998C20.6859 6.14424 20.8335 5.92366 20.9341 5.68086C21.0348 5.43807 21.0866 5.17781 21.0866 4.91498C21.0866 4.65215 21.0348 4.3919 20.9341 4.1491C20.8335 3.9063 20.6859 3.68573 20.5 3.49998Z" fill="currentColor"/>
  </symbol>
</svg>
