<!-- JioGames DLS — flip icons (4 icons) -->
<svg xmlns="http://www.w3.org/2000/svg" style="display:none">
  <symbol id="ic_flip_camera" viewBox="0 0 24 24">
    <path d="M21.12 7.88C20.55 7.31 19.79 7 19 7H18.1C17.93 7 17.76 6.95 17.62 6.87C17.47 6.79 17.34 6.67 17.26 6.53L16.26 4.93C16.07 4.64 15.82 4.41 15.53 4.24C15.23 4.08 14.89 4 14.56 4H9.44C9.1 4 8.77 4.08 8.47 4.25C8.18 4.41 7.93 4.64 7.75 4.93L6.75 6.53C6.66 6.67 6.53 6.79 6.38 6.87C6.23 6.96 6.07 7 5.9 7H5C4.2 7 3.44 7.31 2.87 7.88C2.3 8.45 2 9.2 2 10V17C2 17.79 2.31 18.56 2.87 19.12C3.44 19.68 4.2 20 5 20H19C19.79 20 20.55 19.68 21.12 19.12C21.68 18.56 22 17.79 22 17V10C22 9.2 21.68 8.44 21.12 7.88ZM8 16C7.74 16 7.49 15.9 7.29 15.71L5.29 13.71C4.9 13.32 4.9 12.69 5.29 12.3C5.68 11.91 6.31 11.91 6.7 12.3L7.03 12.63C7.23 10.05 9.36 8.01 11.99 8.01C12.38 8.01 12.79 8.07 13.24 8.18C13.77 8.32 14.09 8.86 13.96 9.4C13.82 9.94 13.27 10.25 12.74 10.12C12.45 10.05 12.22 10.01 11.99 10.01C10.49 10.01 9.26 11.11 9.04 12.55L9.29 12.3C9.68 11.91 10.31 11.91 10.7 12.3C11.09 12.69 11.09 13.32 10.7 13.71L8.7 15.71C8.5 15.91 8.25 16 7.99 16H8ZM18.71 13.71C18.51 13.91 18.26 14 18 14C17.74 14 17.49 13.9 17.29 13.71L16.96 13.38C16.76 15.96 14.63 18 12 18C11.61 18 11.2 17.94 10.75 17.83C10.22 17.69 9.9 17.15 10.03 16.61C10.17 16.07 10.71 15.76 11.25 15.89C11.54 15.96 11.77 16 12 16C13.5 16 14.73 14.9 14.95 13.46L14.7 13.71C14.31 14.1 13.68 14.1 13.29 13.71C12.9 13.32 12.9 12.69 13.29 12.3L15.29 10.3C15.68 9.91 16.31 9.91 16.7 10.3L18.7 12.3C19.09 12.69 19.09 13.32 18.7 13.71H18.71Z" fill="currentColor"/>
  </symbol>
  <symbol id="ic_flip_horizontal" viewBox="0 0 24 24">
    <path d="M3.64 6.23C3.34 5.98 2.93 5.93 2.58 6.09C2.23 6.25 2 6.61 2 7V17C2 17.39 2.22 17.74 2.58 17.91C2.72 17.97 2.86 18 3 18C3.23 18 3.46 17.92 3.64 17.77L9.64 12.77C9.87 12.58 10 12.3 10 12C10 11.7 9.87 11.42 9.64 11.23L3.64 6.23ZM4 14.86V9.13L7.44 12L4 14.87V14.86ZM12 3C11.45 3 11 3.45 11 4V20C11 20.55 11.45 21 12 21C12.55 21 13 20.55 13 20V4C13 3.45 12.55 3 12 3ZM21.42 6.09C21.07 5.92 20.65 5.98 20.36 6.23L14.36 11.23C14.13 11.42 14 11.7 14 12C14 12.3 14.13 12.58 14.36 12.77L20.36 17.77C20.54 17.92 20.77 18 21 18C21.14 18 21.29 17.97 21.42 17.91C21.77 17.75 22 17.39 22 17V7C22 6.61 21.78 6.26 21.42 6.09Z" fill="currentColor"/>
  </symbol>
  <symbol id="ic_flip_phone" viewBox="0 0 24 24">
    <path d="M9.75 16.99H14.25C14.85 16.99 15.42 16.75 15.84 16.33C16.26 15.91 16.5 15.34 16.5 14.74V4.25C16.5 3.65 16.26 3.08 15.84 2.66C15.42 2.24 14.85 2 14.25 2H9.75C9.15 2 8.58 2.24 8.16 2.66C7.74 3.08 7.5 3.65 7.5 4.25V14.74C7.5 15.34 7.74 15.91 8.16 16.33C8.58 16.75 9.15 16.99 9.75 16.99ZM11.02 13.79C11.06 13.6 11.15 13.42 11.29 13.28C11.43 13.14 11.61 13.04 11.8 13.01C11.99 12.97 12.2 12.99 12.38 13.07C12.56 13.15 12.72 13.27 12.83 13.44C12.94 13.6 13 13.8 13 14C13 14.27 12.89 14.52 12.71 14.71C12.53 14.9 12.27 15 12 15C11.8 15 11.61 14.94 11.44 14.83C11.28 14.72 11.15 14.56 11.07 14.38C10.99 14.2 10.97 14 11.01 13.8L11.02 13.79Z" fill="currentColor"/>
<path d="M18.04 14.26L17.83 14.24C17.39 14.24 17.02 14.53 16.91 14.96C16.85 15.2 16.89 15.46 17.02 15.67C17.15 15.88 17.36 16.03 17.61 16.09C19.35 16.51 19.99 17 20.12 17.18C19.94 17.47 18.34 18.38 14.51 18.7C13.99 18.74 13.61 19.2 13.65 19.71C13.69 20.2 14.1 20.57 14.59 20.57H14.68C16.88 20.38 22.01 19.67 22.01 17.15C22.01 16.26 21.33 15.03 18.05 14.25L18.04 14.26Z" fill="currentColor"/>
<path d="M12.86 19.39H12.87L12.85 19.34C12.82 19.28 12.78 19.22 12.74 19.16L12.59 19L11.37 17.78C11.19 17.6 10.96 17.51 10.71 17.51C10.46 17.51 10.22 17.61 10.05 17.78C9.87 17.96 9.78 18.19 9.78 18.44C9.78 18.54 9.78 18.63 9.82 18.72C6.11 18.45 4.12 17.53 3.9 17.16C4.04 16.97 4.68 16.49 6.41 16.08C6.65 16.02 6.86 15.88 6.99 15.66C7.12 15.45 7.17 15.19 7.1 14.95C7 14.53 6.62 14.23 6.18 14.23C6.1 14.23 6.03 14.23 5.96 14.26C2.69 15.05 2 16.27 2 17.16C2 19.32 5.98 20.36 9.87 20.62C9.8 20.75 9.77 20.89 9.77 21.04C9.77 21.29 9.87 21.53 10.04 21.7C10.22 21.88 10.45 21.97 10.7 21.97C10.95 21.97 11.19 21.87 11.36 21.7L12.66 20.4C12.75 20.31 12.82 20.21 12.87 20.1C12.92 19.98 12.94 19.86 12.94 19.74C12.94 19.63 12.92 19.53 12.88 19.43L12.86 19.38V19.39Z" fill="currentColor"/>
  </symbol>
  <symbol id="ic_flip_vertical" viewBox="0 0 24 24">
    <path d="M11.23 9.64C11.42 9.87 11.7 10 12 10C12.3 10 12.58 9.87 12.77 9.64L17.77 3.64C18.02 3.34 18.07 2.93 17.91 2.58C17.75 2.23 17.39 2 17 2H7C6.61 2 6.26 2.22 6.09 2.58C5.93 2.93 5.98 3.35 6.23 3.64L11.23 9.64ZM14.86 4L12 7.44L9.14 4H14.87H14.86ZM20 11H4C3.45 11 3 11.45 3 12C3 12.55 3.45 13 4 13H20C20.55 13 21 12.55 21 12C21 11.45 20.55 11 20 11ZM12.77 14.36C12.39 13.9 11.61 13.9 11.23 14.36L6.23 20.36C5.98 20.66 5.93 21.07 6.09 21.42C6.25 21.77 6.61 22 7 22H17C17.39 22 17.74 21.78 17.91 21.42C18.07 21.07 18.02 20.65 17.77 20.36L12.77 14.36Z" fill="currentColor"/>
  </symbol>
</svg>
