<!-- JioGames DLS — folder icons (9 icons) -->
<svg xmlns="http://www.w3.org/2000/svg" style="display:none">
  <symbol id="ic_folder" viewBox="0 0 24 24">
    <path d="M19 20H5C4.20435 20 3.44129 19.6839 2.87868 19.1213C2.31607 18.5587 2 17.7956 2 17V7C2 6.20435 2.31607 5.44129 2.87868 4.87868C3.44129 4.31607 4.20435 4 5 4H9.17C9.96538 4.0007 10.7279 4.31723 11.29 4.88L12.41 6H19C19.7956 6 20.5587 6.31607 21.1213 6.87868C21.6839 7.44129 22 8.20435 22 9V17C22 17.7956 21.6839 18.5587 21.1213 19.1213C20.5587 19.6839 19.7956 20 19 20Z" fill="currentColor"/>
  </symbol>
  <symbol id="ic_folder_bookmarks" viewBox="0 0 24 24">
    <path d="M19 6H12.41L11.29 4.88C10.73 4.32 9.96 4 9.17 4H5C3.34 4 2 5.34 2 7V17C2 18.66 3.34 20 5 20H19C20.66 20 22 18.66 22 17V9C22 7.34 20.66 6 19 6ZM14.22 16.48L12 15L9.78 16.48C9.45 16.7 9 16.46 9 16.06V9.99C9 9.44 9.45 8.99 10 8.99H14C14.55 8.99 15 9.44 15 9.99V16.06C15 16.46 14.55 16.7 14.22 16.48Z" fill="currentColor"/>
  </symbol>
  <symbol id="ic_folder_favorites" viewBox="0 0 24 24">
    <path d="M19 6H12.41L11.29 4.88C10.7279 4.31723 9.96538 4.0007 9.17 4H5C4.20435 4 3.44129 4.31607 2.87868 4.87868C2.31607 5.44129 2 6.20435 2 7V17C2 17.7956 2.31607 18.5587 2.87868 19.1213C3.44129 19.6839 4.20435 20 5 20H19C19.7956 20 20.5587 19.6839 21.1213 19.1213C21.6839 18.5587 22 17.7956 22 17V9C22 8.20435 21.6839 7.44129 21.1213 6.87868C20.5587 6.31607 19.7956 6 19 6ZM12.76 16.1L12.56 16.28C12.4081 16.422 12.2079 16.501 12 16.501C11.7921 16.501 11.5919 16.422 11.44 16.28L11.24 16.1C9.38 14.39 8.24 13.1 8.24 11.74C8.23579 11.4413 8.2922 11.1448 8.4058 10.8685C8.51941 10.5922 8.68785 10.3418 8.90096 10.1324C9.11407 9.92304 9.36742 9.75905 9.6457 9.65035C9.92397 9.54166 10.2214 9.49051 10.52 9.5C11.069 9.51769 11.5937 9.73041 12 10.1C12.4063 9.73041 12.931 9.51769 13.48 9.5C13.7744 9.49731 14.0665 9.55348 14.3389 9.66523C14.6113 9.77697 14.8587 9.94203 15.0664 10.1507C15.2741 10.3594 15.4381 10.6075 15.5486 10.8804C15.6591 11.1533 15.714 11.4456 15.71 11.74C15.71 13.12 14.62 14.39 12.76 16.1Z" fill="currentColor"/>
  </symbol>
  <symbol id="ic_folder_locked" viewBox="0 0 24 24">
    <path d="M12.31 13.47C12.16 13.41 12 13.39 11.84 13.42C11.68 13.45 11.54 13.53 11.42 13.64C11.31 13.75 11.23 13.9 11.2 14.06C11.17 14.22 11.18 14.38 11.25 14.53C11.31 14.68 11.42 14.81 11.55 14.9C11.68 14.99 11.84 15.04 12 15.04C12.22 15.04 12.42 14.95 12.58 14.8C12.73 14.65 12.82 14.44 12.82 14.22C12.82 14.06 12.77 13.9 12.68 13.77C12.59 13.64 12.46 13.53 12.31 13.47Z" fill="currentColor"/>
<path d="M12 10.14C11.78 10.14 11.57 10.23 11.42 10.38C11.27 10.53 11.18 10.74 11.18 10.96H12.82C12.82 10.74 12.73 10.53 12.58 10.38C12.43 10.23 12.22 10.14 12 10.14Z" fill="currentColor"/>
<path d="M21.12 6.88C20.56 6.32 19.79 6 19 6H12.41L11.29 4.88C10.73 4.32 9.97 4 9.17 4H5C4.2 4 3.44 4.32 2.88 4.88C2.32 5.44 2 6.21 2 7V17C2 17.8 2.32 18.56 2.88 19.12C3.44 19.68 4.21 20 5 20H19C19.8 20 20.56 19.68 21.12 19.12C21.68 18.56 22 17.79 22 17V9C22 8.2 21.68 7.44 21.12 6.88ZM15.27 15.86C15.27 16.29 15.1 16.71 14.79 17.02C14.48 17.33 14.07 17.5 13.63 17.5H10.36C9.93 17.5 9.51 17.33 9.2 17.02C8.89 16.71 8.72 16.3 8.72 15.86V12.59C8.72 12.3 8.8 12.02 8.94 11.78C9.08 11.53 9.29 11.33 9.54 11.19V10.96C9.54 10.31 9.8 9.68 10.26 9.22C10.72 8.76 11.34 8.5 12 8.5C12.66 8.5 13.28 8.76 13.74 9.22C14.2 9.68 14.46 10.3 14.46 10.96V11.19C14.71 11.33 14.91 11.54 15.06 11.78C15.2 12.03 15.28 12.31 15.28 12.59V15.86H15.27Z" fill="currentColor"/>
  </symbol>
  <symbol id="ic_folder_move_files" viewBox="0 0 24 24">
    <path d="M19 6H12.41L11.29 4.88C10.7279 4.31723 9.96538 4.0007 9.17 4H5C4.20435 4 3.44129 4.31607 2.87868 4.87868C2.31607 5.44129 2 6.20435 2 7V17C2 17.7956 2.31607 18.5587 2.87868 19.1213C3.44129 19.6839 4.20435 20 5 20H19C19.7956 20 20.5587 19.6839 21.1213 19.1213C21.6839 18.5587 22 17.7956 22 17V9C22 8.20435 21.6839 7.44129 21.1213 6.87868C20.5587 6.31607 19.7956 6 19 6ZM16.71 13.71L13.71 16.71C13.5217 16.8983 13.2663 17.0041 13 17.0041C12.7337 17.0041 12.4783 16.8983 12.29 16.71C12.1017 16.5217 11.9959 16.2663 11.9959 16C11.9959 15.7337 12.1017 15.4783 12.29 15.29L13.59 14H8C7.73478 14 7.48043 13.8946 7.29289 13.7071C7.10536 13.5196 7 13.2652 7 13C7 12.7348 7.10536 12.4804 7.29289 12.2929C7.48043 12.1054 7.73478 12 8 12H13.59L12.29 10.71C12.1963 10.617 12.1219 10.5064 12.0711 10.3846C12.0203 10.2627 11.9942 10.132 11.9942 10C11.9942 9.86799 12.0203 9.73728 12.0711 9.61542C12.1219 9.49356 12.1963 9.38296 12.29 9.29C12.383 9.19627 12.4936 9.12188 12.6154 9.07111C12.7373 9.02034 12.868 8.9942 13 8.9942C13.132 8.9942 13.2627 9.02034 13.3846 9.07111C13.5064 9.12188 13.617 9.19627 13.71 9.29L16.71 12.29C16.8037 12.383 16.8781 12.4936 16.9289 12.6154C16.9797 12.7373 17.0058 12.868 17.0058 13C17.0058 13.132 16.9797 13.2627 16.9289 13.3846C16.8781 13.5064 16.8037 13.617 16.71 13.71Z" fill="currentColor"/>
  </symbol>
  <symbol id="ic_folder_public" viewBox="0 0 24 24">
    <path d="M12 16.99C12.42 16.99 13 16.25 13.27 14.99H10.72C11.02 16.25 11.57 16.99 11.99 16.99H12Z" fill="currentColor"/>
<path d="M9.69 10.99C9.8 10.44 9.97 9.91 10.21 9.42C9.51 9.77 8.93 10.32 8.53 10.99H9.69Z" fill="currentColor"/>
<path d="M8.54 14.99C8.93 15.66 9.5 16.21 10.19 16.56C9.96 16.06 9.79 15.53 9.69 14.99H8.54Z" fill="currentColor"/>
<path d="M12 8.99C11.58 8.99 11.02 9.73 10.73 10.99H13.28C12.98 9.73 12.43 8.99 12.01 8.99H12Z" fill="currentColor"/>
<path d="M9.5 12.99C9.5 12.65 9.5 12.31 9.54 11.99H8.12C8.04 12.32 7.99 12.65 7.99 12.99C7.99 13.33 8.04 13.66 8.12 13.99H9.54C9.5 13.67 9.5 13.33 9.5 12.99Z" fill="currentColor"/>
<path d="M15.46 10.99C15.07 10.32 14.5 9.77 13.81 9.42C14.04 9.92 14.21 10.45 14.31 10.99H15.46Z" fill="currentColor"/>
<path d="M10.56 11.99C10.49 12.65 10.49 13.33 10.56 13.99H13.45C13.49 13.66 13.51 13.32 13.51 12.99C13.51 12.66 13.49 12.32 13.45 11.99H10.56Z" fill="currentColor"/>
<path d="M21.12 6.88C20.56 6.32 19.79 6 19 6H12.41L11.29 4.88C10.73 4.32 9.97 4 9.17 4H5C4.2 4 3.44 4.32 2.88 4.88C2.32 5.44 2 6.21 2 7V17C2 17.8 2.32 18.56 2.88 19.12C3.44 19.68 4.21 20 5 20H19C19.8 20 20.56 19.68 21.12 19.12C21.68 18.56 22 17.79 22 17V9C22 8.2 21.68 7.44 21.12 6.88ZM16.16 15.77C15.61 16.59 14.83 17.23 13.92 17.61C13.01 17.99 12 18.09 11.03 17.89C10.06 17.7 9.17 17.22 8.47 16.52C7.77 15.82 7.29 14.93 7.1 13.96C6.91 12.99 7.01 11.98 7.38 11.07C7.76 10.16 8.4 9.38 9.22 8.83C10.04 8.28 11.01 7.99 12 7.99C12.66 7.99 13.31 8.12 13.91 8.37C14.52 8.62 15.07 8.99 15.53 9.45C15.99 9.91 16.36 10.47 16.61 11.07C16.86 11.68 16.99 12.33 16.99 12.98C16.99 13.97 16.7 14.94 16.15 15.76L16.16 15.77Z" fill="currentColor"/>
<path d="M14.46 11.99C14.5 12.31 14.5 12.65 14.5 12.99C14.5 13.33 14.48 13.67 14.46 13.99H15.88C16.05 13.33 16.05 12.65 15.88 11.99H14.46Z" fill="currentColor"/>
<path d="M13.78 16.57C14.47 16.21 15.05 15.67 15.43 15H14.28C14.18 15.54 14.01 16.07 13.78 16.57Z" fill="currentColor"/>
  </symbol>
  <symbol id="ic_folder_rated" viewBox="0 0 24 24">
    <path d="M19 6H12.41L11.29 4.88C10.7279 4.31723 9.96538 4.0007 9.17 4H5C4.20435 4 3.44129 4.31607 2.87868 4.87868C2.31607 5.44129 2 6.20435 2 7V17C2 17.7956 2.31607 18.5587 2.87868 19.1213C3.44129 19.6839 4.20435 20 5 20H19C19.7956 20 20.5587 19.6839 21.1213 19.1213C21.6839 18.5587 22 17.7956 22 17V9C22 8.20435 21.6839 7.44129 21.1213 6.87868C20.5587 6.31607 19.7956 6 19 6ZM15.38 12.49L14.31 13.49L14.56 15C14.5886 15.1575 14.5722 15.3199 14.5126 15.4685C14.4529 15.6171 14.3526 15.7458 14.223 15.8399C14.0934 15.9339 13.9399 15.9895 13.7802 16.0001C13.6204 16.0107 13.4609 15.976 13.32 15.9L12 15.21L10.68 15.9C10.5391 15.976 10.3796 16.0107 10.2198 16.0001C10.0601 15.9895 9.90659 15.9339 9.77702 15.8399C9.64744 15.7458 9.54706 15.6171 9.48744 15.4685C9.42782 15.3199 9.41137 15.1575 9.44 15L9.69 13.53L8.62 12.53C8.48453 12.4218 8.38494 12.2751 8.33431 12.1093C8.28367 11.9434 8.28435 11.7661 8.33626 11.6007C8.38816 11.4352 8.48887 11.2893 8.62516 11.1821C8.76146 11.0749 8.92698 11.0115 9.1 11L10.57 10.78L11.23 9.45C11.3013 9.30673 11.4111 9.18619 11.5471 9.10192C11.6831 9.01766 11.84 8.97301 12 8.97301C12.16 8.97301 12.3169 9.01766 12.4529 9.10192C12.5889 9.18619 12.6987 9.30673 12.77 9.45L13.43 10.78L14.9 11C15.0639 11.019 15.2189 11.0848 15.3465 11.1895C15.4741 11.2943 15.5688 11.4335 15.6194 11.5906C15.67 11.7476 15.6743 11.916 15.6319 12.0755C15.5894 12.235 15.502 12.3789 15.38 12.49Z" fill="currentColor"/>
  </symbol>
  <symbol id="ic_folder_remove" viewBox="0 0 24 24">
    <path d="M21.12 6.88C20.5579 6.31723 19.7954 6.0007 19 6H12.41L11.29 4.88C10.7279 4.31723 9.96538 4.0007 9.17 4H5C4.20435 4 3.44129 4.31607 2.87868 4.87868C2.31607 5.44129 2 6.20435 2 7V17C2 17.7956 2.31607 18.5587 2.87868 19.1213C3.44129 19.6839 4.20435 20 5 20H19C19.7956 20 20.5587 19.6839 21.1213 19.1213C21.6839 18.5587 22 17.7956 22 17V9C21.9993 8.20462 21.6828 7.44207 21.12 6.88ZM14 14H10C9.73478 14 9.48043 13.8946 9.29289 13.7071C9.10536 13.5196 9 13.2652 9 13C9 12.7348 9.10536 12.4804 9.29289 12.2929C9.48043 12.1054 9.73478 12 10 12H14C14.2652 12 14.5196 12.1054 14.7071 12.2929C14.8946 12.4804 15 12.7348 15 13C15 13.2652 14.8946 13.5196 14.7071 13.7071C14.5196 13.8946 14.2652 14 14 14Z" fill="currentColor"/>
  </symbol>
  <symbol id="ic_folder_request" viewBox="0 0 24 24">
    <path d="M21.12 6.88C20.56 6.32 19.79 6 19 6H12.41L11.29 4.88C10.73 4.32 9.97 4 9.17 4H5C4.2 4 3.44 4.32 2.88 4.88C2.32 5.44 2 6.21 2 7V17C2 17.8 2.32 18.56 2.88 19.12C3.44 19.68 4.21 20 5 20H19C19.8 20 20.56 19.68 21.12 19.12C21.68 18.56 22 17.79 22 17V9C22 8.2 21.68 7.44 21.12 6.88ZM10.71 11.7L8.71 13.7C8.51 13.9 8.26 13.99 8 13.99C7.74 13.99 7.49 13.89 7.29 13.7L5.29 11.7C4.9 11.31 4.9 10.68 5.29 10.29C5.68 9.9 6.31 9.9 6.7 10.29L6.99 10.58V7.99C6.99 7.44 7.44 6.99 7.99 6.99C8.54 6.99 8.99 7.44 8.99 7.99V10.58L9.28 10.29C9.67 9.9 10.3 9.9 10.69 10.29C11.08 10.68 11.08 11.31 10.69 11.7H10.71Z" fill="currentColor"/>
  </symbol>
</svg>
