<!-- JioGames DLS — fullscreen icons (2 icons) -->
<svg xmlns="http://www.w3.org/2000/svg" style="display:none">
  <symbol id="ic_fullscreen_mode" viewBox="0 0 24 24">
    <path d="M12 2C6.48 2 2 6.48 2 12C2 17.52 6.48 22 12 22C17.52 22 22 17.52 22 12C22 6.48 17.52 2 12 2ZM12.92 15.38C12.77 15.75 12.4 16 12 16H9C8.45 16 8 15.55 8 15V12C8 11.6 8.24 11.23 8.62 11.08C9 10.92 9.42 11.01 9.71 11.3L12.71 14.3C13 14.59 13.08 15.02 12.93 15.39L12.92 15.38ZM16 12C16 12.4 15.76 12.77 15.38 12.92C15.26 12.97 15.13 13 15 13C14.74 13 14.48 12.9 14.29 12.71L11.29 9.71C11 9.42 10.92 8.99 11.07 8.62C11.22 8.25 11.59 8 11.99 8H14.99C15.54 8 15.99 8.45 15.99 9V12H16Z" fill="currentColor"/>
  </symbol>
  <symbol id="ic_fullscreen_mode_off" viewBox="0 0 24 24">
    <path d="M12 2C6.48 2 2 6.48 2 12C2 17.52 6.48 22 12 22C17.52 22 22 17.52 22 12C22 6.48 17.52 2 12 2ZM11.5 16.5C11.5 16.9 11.26 17.27 10.88 17.42C10.76 17.47 10.63 17.5 10.5 17.5C10.24 17.5 9.98 17.4 9.79 17.21L6.79 14.21C6.5 13.92 6.42 13.49 6.57 13.12C6.72 12.75 7.09 12.5 7.49 12.5H10.49C11.04 12.5 11.49 12.95 11.49 13.5V16.5H11.5ZM17.42 10.88C17.27 11.25 16.9 11.5 16.5 11.5H13.5C12.95 11.5 12.5 11.05 12.5 10.5V7.5C12.5 7.1 12.74 6.73 13.12 6.58C13.5 6.42 13.92 6.51 14.21 6.8L17.21 9.8C17.5 10.09 17.58 10.52 17.43 10.89L17.42 10.88Z" fill="currentColor"/>
  </symbol>
</svg>
