<!-- JioGames DLS — gaming icons (4 icons) -->
<svg xmlns="http://www.w3.org/2000/svg" style="display:none">
  <symbol id="ic_gaming" viewBox="0 0 24 24">
    <path d="M22 16.5099C21.842 15.2456 21.2209 14.0848 20.2567 13.2518C19.2926 12.4188 18.0539 11.9728 16.78 11.9999H13V10.9999C13 10.7347 13.1054 10.4804 13.2929 10.2928C13.4805 10.1053 13.7348 9.99994 14 9.99994H15.88C16.5883 10.0128 17.2793 9.78112 17.8367 9.34396C18.3941 8.90679 18.7837 8.29086 18.94 7.59994C19.029 7.16402 19.0199 6.71376 18.9134 6.28179C18.8069 5.84981 18.6057 5.44693 18.3242 5.10233C18.0428 4.75774 17.6883 4.48005 17.2863 4.28938C16.8843 4.09872 16.4449 3.99985 16 3.99994H14C13.7348 3.99994 13.4805 3.89458 13.2929 3.70705C13.1054 3.51951 13 3.26516 13 2.99994C12.9963 2.73517 12.8928 2.48157 12.71 2.28994C12.6171 2.19621 12.5065 2.12182 12.3846 2.07105C12.2627 2.02028 12.132 1.99414 12 1.99414C11.868 1.99414 11.7373 2.02028 11.6154 2.07105C11.4936 2.12182 11.383 2.19621 11.29 2.28994C11.1073 2.48157 11.0037 2.73517 11 2.99994C11 3.79559 11.3161 4.55865 11.8787 5.12126C12.4413 5.68387 13.2044 5.99994 14 5.99994H16C16.2652 5.99994 16.5196 6.1053 16.7071 6.29283C16.8947 6.48037 17 6.73472 17 6.99994C17 7.26516 16.8947 7.51951 16.7071 7.70705C16.5196 7.89458 16.2652 7.99994 16 7.99994H14C13.2044 7.99994 12.4413 8.31601 11.8787 8.87862C11.3161 9.44123 11 10.2043 11 10.9999V11.9999H7.22002C5.94617 11.9728 4.70746 12.4188 3.74333 13.2518C2.77919 14.0848 2.15807 15.2456 2.00002 16.5099C1.90222 17.5522 2.13402 18.5989 2.66273 19.5024C3.19145 20.4059 3.99041 21.1206 4.94697 21.5459C5.90354 21.9712 6.96945 22.0855 7.99443 21.8727C9.01941 21.6599 9.95176 21.1308 10.66 20.3599C10.754 20.2471 10.8718 20.1563 11.0049 20.0941C11.138 20.0318 11.2831 19.9997 11.43 19.9999H12.53C12.6769 19.9997 12.8221 20.0318 12.9552 20.0941C13.0883 20.1563 13.206 20.2471 13.3 20.3599C14.0046 21.1476 14.9405 21.6918 15.9736 21.9144C17.0067 22.137 18.0838 22.0265 19.0502 21.5989C20.0166 21.1712 20.8226 20.4484 21.3526 19.5341C21.8826 18.6198 22.1092 17.5611 22 16.5099ZM9.00002 17.9999H8.00002V18.9999C8.00002 19.2652 7.89467 19.5195 7.70713 19.707C7.51959 19.8946 7.26524 19.9999 7.00002 19.9999C6.73481 19.9999 6.48045 19.8946 6.29292 19.707C6.10538 19.5195 6.00002 19.2652 6.00002 18.9999V17.9999H5.00002C4.73481 17.9999 4.48045 17.8946 4.29292 17.707C4.10538 17.5195 4.00002 17.2652 4.00002 16.9999C4.00002 16.7347 4.10538 16.4804 4.29292 16.2928C4.48045 16.1053 4.73481 15.9999 5.00002 15.9999H6.00002V14.9999C6.00002 14.7347 6.10538 14.4804 6.29292 14.2928C6.48045 14.1053 6.73481 13.9999 7.00002 13.9999C7.26524 13.9999 7.51959 14.1053 7.70713 14.2928C7.89467 14.4804 8.00002 14.7347 8.00002 14.9999V15.9999H9.00002C9.26524 15.9999 9.51959 16.1053 9.70713 16.2928C9.89467 16.4804 10 16.7347 10 16.9999C10 17.2652 9.89467 17.5195 9.70713 17.707C9.51959 17.8946 9.26524 17.9999 9.00002 17.9999ZM17 13.9999C17.1978 13.9999 17.3911 14.0586 17.5556 14.1685C17.72 14.2784 17.8482 14.4345 17.9239 14.6173C17.9996 14.8 18.0194 15.001 17.9808 15.195C17.9422 15.389 17.847 15.5672 17.7071 15.707C17.5673 15.8469 17.3891 15.9421 17.1951 15.9807C17.0011 16.0193 16.8001 15.9995 16.6173 15.9238C16.4346 15.8481 16.2784 15.72 16.1686 15.5555C16.0587 15.3911 16 15.1977 16 14.9999C16 14.7347 16.1054 14.4804 16.2929 14.2928C16.4805 14.1053 16.7348 13.9999 17 13.9999ZM15 17.9999C14.8022 17.9999 14.6089 17.9413 14.4445 17.8314C14.28 17.7215 14.1518 17.5653 14.0761 17.3826C14.0005 17.1999 13.9807 16.9988 14.0192 16.8048C14.0578 16.6109 14.1531 16.4327 14.2929 16.2928C14.4328 16.153 14.611 16.0577 14.8049 16.0192C14.9989 15.9806 15.2 16.0004 15.3827 16.0761C15.5654 16.1517 15.7216 16.2799 15.8315 16.4444C15.9414 16.6088 16 16.8022 16 16.9999C16 17.2652 15.8947 17.5195 15.7071 17.707C15.5196 17.8946 15.2652 17.9999 15 17.9999ZM17 19.9999C16.8022 19.9999 16.6089 19.9413 16.4445 19.8314C16.28 19.7215 16.1518 19.5653 16.0761 19.3826C16.0005 19.1999 15.9807 18.9988 16.0192 18.8048C16.0578 18.6109 16.1531 18.4327 16.2929 18.2928C16.4328 18.153 16.6109 18.0577 16.8049 18.0192C16.9989 17.9806 17.2 18.0004 17.3827 18.0761C17.5654 18.1517 17.7216 18.2799 17.8315 18.4444C17.9414 18.6088 18 18.8022 18 18.9999C18 19.2652 17.8947 19.5195 17.7071 19.707C17.5196 19.8946 17.2652 19.9999 17 19.9999ZM19 17.9999C18.8022 17.9999 18.6089 17.9413 18.4445 17.8314C18.28 17.7215 18.1518 17.5653 18.0761 17.3826C18.0005 17.1999 17.9807 16.9988 18.0192 16.8048C18.0578 16.6109 18.1531 16.4327 18.2929 16.2928C18.4328 16.153 18.611 16.0577 18.8049 16.0192C18.9989 15.9806 19.2 16.0004 19.3827 16.0761C19.5654 16.1517 19.7216 16.2799 19.8315 16.4444C19.9414 16.6088 20 16.8022 20 16.9999C20 17.2652 19.8947 17.5195 19.7071 17.707C19.5196 17.8946 19.2652 17.9999 19 17.9999Z" fill="currentColor"/>
  </symbol>
  <symbol id="ic_gaming_cloud" viewBox="0 0 24 24">
    <path d="M7.00002 9.99999H17C17.5305 9.99999 18.0392 9.78927 18.4142 9.4142C18.7893 9.03913 19 8.53042 19 7.99999C19 7.46955 18.7893 6.96085 18.4142 6.58577C18.0392 6.2107 17.5305 5.99999 17 5.99999C16.9925 5.1179 16.6936 4.26304 16.1498 3.56845C15.606 2.87386 14.8479 2.3785 13.9934 2.15946C13.1389 1.94042 12.236 2.00998 11.4251 2.35732C10.6143 2.70467 9.94098 3.3103 9.51002 4.07999C9.34509 4.02751 9.1731 4.00054 9.00002 3.99999C8.46959 3.99999 7.96088 4.2107 7.58581 4.58577C7.21074 4.96085 7.00002 5.46955 7.00002 5.99999C6.46959 5.99999 5.96088 6.2107 5.58581 6.58577C5.21074 6.96085 5.00002 7.46955 5.00002 7.99999C5.00002 8.53042 5.21074 9.03913 5.58581 9.4142C5.96088 9.78927 6.46959 9.99999 7.00002 9.99999ZM22 16.51C21.842 15.2457 21.2209 14.0848 20.2567 13.2518C19.2926 12.4188 18.0539 11.9728 16.78 12H7.22002C5.94617 11.9728 4.70746 12.4188 3.74333 13.2518C2.77919 14.0848 2.15807 15.2457 2.00002 16.51C1.90222 17.5522 2.13402 18.5989 2.66273 19.5024C3.19145 20.4059 3.99041 21.1207 4.94697 21.546C5.90354 21.9712 6.96945 22.0855 7.99443 21.8727C9.01941 21.66 9.95176 21.1308 10.66 20.36C10.754 20.2471 10.8718 20.1563 11.0049 20.0941C11.138 20.0319 11.2831 19.9997 11.43 20H12.53C12.6769 19.9997 12.8221 20.0319 12.9552 20.0941C13.0883 20.1563 13.206 20.2471 13.3 20.36C14.0046 21.1477 14.9405 21.6919 15.9736 21.9145C17.0067 22.1371 18.0838 22.0266 19.0502 21.5989C20.0166 21.1713 20.8226 20.4484 21.3526 19.5341C21.8826 18.6198 22.1092 17.5611 22 16.51ZM9.00002 18H8.00002V19C8.00002 19.2652 7.89467 19.5196 7.70713 19.7071C7.51959 19.8946 7.26524 20 7.00002 20C6.73481 20 6.48045 19.8946 6.29292 19.7071C6.10538 19.5196 6.00002 19.2652 6.00002 19V18H5.00002C4.73481 18 4.48045 17.8946 4.29292 17.7071C4.10538 17.5196 4.00002 17.2652 4.00002 17C4.00002 16.7348 4.10538 16.4804 4.29292 16.2929C4.48045 16.1053 4.73481 16 5.00002 16H6.00002V15C6.00002 14.7348 6.10538 14.4804 6.29292 14.2929C6.48045 14.1053 6.73481 14 7.00002 14C7.26524 14 7.51959 14.1053 7.70713 14.2929C7.89467 14.4804 8.00002 14.7348 8.00002 15V16H9.00002C9.26524 16 9.51959 16.1053 9.70713 16.2929C9.89467 16.4804 10 16.7348 10 17C10 17.2652 9.89467 17.5196 9.70713 17.7071C9.51959 17.8946 9.26524 18 9.00002 18ZM17 14C17.1978 14 17.3911 14.0586 17.5556 14.1685C17.72 14.2784 17.8482 14.4346 17.9239 14.6173C17.9996 14.8 18.0194 15.0011 17.9808 15.1951C17.9422 15.3891 17.847 15.5672 17.7071 15.7071C17.5673 15.8469 17.3891 15.9422 17.1951 15.9808C17.0011 16.0194 16.8001 15.9996 16.6173 15.9239C16.4346 15.8482 16.2784 15.72 16.1686 15.5556C16.0587 15.3911 16 15.1978 16 15C16 14.7348 16.1054 14.4804 16.2929 14.2929C16.4805 14.1053 16.7348 14 17 14ZM15 18C14.8022 18 14.6089 17.9413 14.4445 17.8315C14.28 17.7216 14.1518 17.5654 14.0761 17.3827C14.0005 17.1999 13.9807 16.9989 14.0192 16.8049C14.0578 16.6109 14.1531 16.4327 14.2929 16.2929C14.4328 16.153 14.611 16.0578 14.8049 16.0192C14.9989 15.9806 15.2 16.0004 15.3827 16.0761C15.5654 16.1518 15.7216 16.28 15.8315 16.4444C15.9414 16.6089 16 16.8022 16 17C16 17.2652 15.8947 17.5196 15.7071 17.7071C15.5196 17.8946 15.2652 18 15 18ZM17 20C16.8022 20 16.6089 19.9413 16.4445 19.8315C16.28 19.7216 16.1518 19.5654 16.0761 19.3827C16.0005 19.1999 15.9807 18.9989 16.0192 18.8049C16.0578 18.6109 16.1531 18.4327 16.2929 18.2929C16.4328 18.153 16.6109 18.0578 16.8049 18.0192C16.9989 17.9806 17.2 18.0004 17.3827 18.0761C17.5654 18.1518 17.7216 18.28 17.8315 18.4444C17.9414 18.6089 18 18.8022 18 19C18 19.2652 17.8947 19.5196 17.7071 19.7071C17.5196 19.8946 17.2652 20 17 20ZM19 18C18.8022 18 18.6089 17.9413 18.4445 17.8315C18.28 17.7216 18.1518 17.5654 18.0761 17.3827C18.0005 17.1999 17.9807 16.9989 18.0192 16.8049C18.0578 16.6109 18.1531 16.4327 18.2929 16.2929C18.4328 16.153 18.611 16.0578 18.8049 16.0192C18.9989 15.9806 19.2 16.0004 19.3827 16.0761C19.5654 16.1518 19.7216 16.28 19.8315 16.4444C19.9414 16.6089 20 16.8022 20 17C20 17.2652 19.8947 17.5196 19.7071 17.7071C19.5196 17.8946 19.2652 18 19 18Z" fill="currentColor"/>
  </symbol>
  <symbol id="ic_gaming_controllers" viewBox="0 0 24 24">
    <path d="M21.6998 8.52979C21.301 7.37543 20.5562 6.37204 19.5666 5.65628C18.5771 4.94051 17.3909 4.54715 16.1698 4.52979H7.99979C6.43751 4.52916 4.93659 5.13791 3.81614 6.22662C2.69568 7.31533 2.04405 8.79813 1.99979 10.3598C1.90979 13.7498 4.55979 19.5298 7.82979 19.5298C9.99979 19.5298 9.88979 16.2398 10.7398 15.7298C11.1241 15.5067 11.5605 15.3893 12.0048 15.3893C12.4491 15.3893 12.8855 15.5067 13.2698 15.7298C14.2698 16.2998 14.0098 19.5298 16.5598 19.5298C19.1098 19.5298 21.7998 13.8898 21.9998 10.9198C22.0715 10.1108 21.9692 9.29591 21.6998 8.52979ZM9.69979 11.2098C9.51352 11.3945 9.26213 11.4987 8.99979 11.4998H7.99979V12.4998C8.00055 12.6314 7.97532 12.7619 7.92556 12.8837C7.87579 13.0055 7.80247 13.1163 7.70979 13.2098C7.61635 13.3025 7.50553 13.3758 7.38369 13.4256C7.26185 13.4753 7.13139 13.5005 6.99979 13.4998C6.73457 13.4998 6.48022 13.3944 6.29268 13.2069C6.10514 13.0194 5.99979 12.765 5.99979 12.4998V11.4998H4.99979C4.73457 11.4998 4.48022 11.3944 4.29268 11.2069C4.10514 11.0194 3.99979 10.765 3.99979 10.4998C3.99979 10.2346 4.10514 9.98022 4.29268 9.79268C4.48022 9.60514 4.73457 9.49979 4.99979 9.49979H5.99979V8.49979C5.99979 8.23457 6.10514 7.98022 6.29268 7.79268C6.48022 7.60514 6.73457 7.49979 6.99979 7.49979C7.13139 7.49902 7.26185 7.52425 7.38369 7.57401C7.50553 7.62378 7.61635 7.6971 7.70979 7.78979C7.80247 7.88323 7.87579 7.99404 7.92556 8.11588C7.97532 8.23772 8.00055 8.36818 7.99979 8.49979V9.49979H8.99979C9.13139 9.49902 9.26185 9.52425 9.38369 9.57401C9.50553 9.62378 9.61635 9.6971 9.70979 9.78979C9.80351 9.88275 9.87791 9.99335 9.92868 10.1152C9.97945 10.2371 10.0056 10.3678 10.0056 10.4998C10.0056 10.6318 9.97945 10.7625 9.92868 10.8844C9.87791 11.0062 9.80351 11.1168 9.70979 11.2098H9.69979ZM15.6998 11.2098C15.6063 11.3025 15.4955 11.3758 15.3737 11.4256C15.2519 11.4753 15.1214 11.5005 14.9898 11.4998C14.7938 11.4983 14.6025 11.4391 14.4398 11.3298C14.2705 11.2244 14.1405 11.0663 14.0698 10.8798C13.9892 10.6977 13.9649 10.4958 13.9998 10.2998C14.0405 10.1058 14.138 9.92828 14.2798 9.78979C14.3842 9.68671 14.51 9.60786 14.6483 9.55884C14.7866 9.50983 14.9339 9.49184 15.0799 9.50615C15.226 9.52047 15.367 9.56674 15.4932 9.64168C15.6193 9.71662 15.7274 9.81839 15.8098 9.93979C15.921 10.1053 15.9802 10.3003 15.9798 10.4998C15.9867 10.7628 15.8897 11.0178 15.7098 11.2098H15.6998ZM16.2898 7.78979C16.3832 7.6971 16.494 7.62378 16.6159 7.57401C16.7377 7.52425 16.8682 7.49902 16.9998 7.49979C17.1989 7.49879 17.3938 7.55726 17.5595 7.66772C17.7252 7.77818 17.8541 7.93559 17.9298 8.11979C18.0103 8.30184 18.0347 8.50379 17.9998 8.69979C17.9606 8.89196 17.8657 9.06837 17.7271 9.20706C17.5884 9.34575 17.412 9.44059 17.2198 9.47978C17.0248 9.51785 16.8229 9.49696 16.6398 9.41979C16.4577 9.34654 16.3012 9.22134 16.1898 9.05979C16.0714 8.89654 16.0052 8.70134 15.9998 8.49979C16.0003 8.36748 16.0271 8.2366 16.0786 8.11472C16.1301 7.99285 16.2053 7.8824 16.2998 7.78979H16.2898ZM17.6998 13.2098C17.6063 13.3025 17.4955 13.3758 17.3737 13.4256C17.2519 13.4753 17.1214 13.5005 16.9898 13.4998C16.7938 13.4983 16.6025 13.4391 16.4398 13.3298C16.2705 13.2244 16.1405 13.0663 16.0698 12.8798C15.9892 12.6977 15.9649 12.4958 15.9998 12.2998C16.0405 12.1058 16.138 11.9283 16.2798 11.7898C16.3842 11.6867 16.51 11.6079 16.6483 11.5588C16.7866 11.5098 16.9339 11.4918 17.0799 11.5062C17.226 11.5205 17.367 11.5667 17.4932 11.6417C17.6193 11.7166 17.7274 11.8184 17.8098 11.9398C17.921 12.1053 17.9802 12.3003 17.9798 12.4998C17.9867 12.7628 17.8897 13.0178 17.7098 13.2098H17.6998ZM19.6998 11.2098C19.6063 11.3025 19.4955 11.3758 19.3737 11.4256C19.2519 11.4753 19.1214 11.5005 18.9898 11.4998C18.7938 11.4983 18.6025 11.4391 18.4398 11.3298C18.2705 11.2244 18.1405 11.0663 18.0698 10.8798C17.9892 10.6977 17.9649 10.4958 17.9998 10.2998C18.0405 10.1058 18.138 9.92828 18.2798 9.78979C18.3842 9.68671 18.51 9.60786 18.6483 9.55884C18.7866 9.50983 18.9339 9.49184 19.0799 9.50615C19.226 9.52047 19.367 9.56674 19.4932 9.64168C19.6193 9.71662 19.7274 9.81839 19.8098 9.93979C19.921 10.1053 19.9802 10.3003 19.9798 10.4998C19.9867 10.7628 19.8897 11.0178 19.7098 11.2098H19.6998Z" fill="currentColor"/>
  </symbol>
  <symbol id="ic_gaming_profile" viewBox="0 0 24 24">
    <path d="M7.00002 5.12994C7.29669 5.12994 7.5867 5.04197 7.83338 4.87714C8.08005 4.71232 8.27231 4.47805 8.38584 4.20396C8.49937 3.92988 8.52908 3.62827 8.4712 3.3373C8.41332 3.04633 8.27046 2.77906 8.06068 2.56928C7.8509 2.3595 7.58363 2.21664 7.29266 2.15876C7.00169 2.10088 6.70009 2.13059 6.426 2.24412C6.15191 2.35765 5.91764 2.54991 5.75282 2.79658C5.588 3.04326 5.50002 3.33327 5.50002 3.62994C5.50002 4.02776 5.65806 4.40929 5.93936 4.6906C6.22067 4.9719 6.6022 5.12994 7.00002 5.12994ZM5.00002 10.1299H9.00002C9.26524 10.1299 9.51959 10.0246 9.70713 9.83705C9.89467 9.64951 10 9.39516 10 9.12994C10 8.73597 9.92243 8.34587 9.77166 7.98189C9.6209 7.61791 9.39992 7.28719 9.12134 7.00862C8.84277 6.73004 8.51205 6.50906 8.14807 6.3583C7.7841 6.20754 7.39399 6.12994 7.00002 6.12994C6.60606 6.12994 6.21595 6.20754 5.85197 6.3583C5.488 6.50906 5.15728 6.73004 4.8787 7.00862C4.60013 7.28719 4.37915 7.61791 4.22838 7.98189C4.07762 8.34587 4.00002 8.73597 4.00002 9.12994C4.00002 9.39516 4.10538 9.64951 4.29292 9.83705C4.48045 10.0246 4.73481 10.1299 5.00002 10.1299ZM22 16.5099C21.842 15.2456 21.2209 14.0848 20.2567 13.2518C19.2926 12.4188 18.0539 11.9728 16.78 11.9999H13V10.9999C13 10.7347 13.1054 10.4804 13.2929 10.2928C13.4805 10.1053 13.7348 9.99994 14 9.99994H15.88C16.5883 10.0128 17.2793 9.78112 17.8367 9.34396C18.3941 8.90679 18.7837 8.29086 18.94 7.59994C19.029 7.16402 19.0199 6.71376 18.9134 6.28179C18.8069 5.84981 18.6057 5.44693 18.3242 5.10233C18.0428 4.75774 17.6883 4.48005 17.2863 4.28938C16.8843 4.09872 16.4449 3.99985 16 3.99994H14C13.7348 3.99994 13.4805 3.89458 13.2929 3.70705C13.1054 3.51951 13 3.26516 13 2.99994C12.9963 2.73517 12.8928 2.48157 12.71 2.28994C12.6171 2.19621 12.5065 2.12182 12.3846 2.07105C12.2627 2.02028 12.132 1.99414 12 1.99414C11.868 1.99414 11.7373 2.02028 11.6154 2.07105C11.4936 2.12182 11.383 2.19621 11.29 2.28994C11.1073 2.48157 11.0037 2.73517 11 2.99994C11 3.79559 11.3161 4.55865 11.8787 5.12126C12.4413 5.68387 13.2044 5.99994 14 5.99994H16C16.2652 5.99994 16.5196 6.1053 16.7071 6.29283C16.8947 6.48037 17 6.73472 17 6.99994C17 7.26516 16.8947 7.51951 16.7071 7.70705C16.5196 7.89458 16.2652 7.99994 16 7.99994H14C13.2044 7.99994 12.4413 8.31601 11.8787 8.87862C11.3161 9.44123 11 10.2043 11 10.9999V11.9999H7.22002C5.94617 11.9728 4.70746 12.4188 3.74333 13.2518C2.77919 14.0848 2.15807 15.2456 2.00002 16.5099C1.90222 17.5522 2.13402 18.5989 2.66273 19.5024C3.19145 20.4059 3.99041 21.1206 4.94697 21.5459C5.90354 21.9712 6.96945 22.0855 7.99443 21.8727C9.01941 21.6599 9.95176 21.1308 10.66 20.3599C10.754 20.2471 10.8718 20.1563 11.0049 20.0941C11.138 20.0318 11.2831 19.9997 11.43 19.9999H12.53C12.6769 19.9997 12.8221 20.0318 12.9552 20.0941C13.0883 20.1563 13.206 20.2471 13.3 20.3599C14.0046 21.1476 14.9405 21.6918 15.9736 21.9144C17.0067 22.137 18.0838 22.0265 19.0502 21.5989C20.0166 21.1712 20.8226 20.4484 21.3526 19.5341C21.8826 18.6198 22.1092 17.5611 22 16.5099ZM9.00002 17.9999H8.00002V18.9999C8.00002 19.2652 7.89467 19.5195 7.70713 19.707C7.51959 19.8946 7.26524 19.9999 7.00002 19.9999C6.73481 19.9999 6.48045 19.8946 6.29292 19.707C6.10538 19.5195 6.00002 19.2652 6.00002 18.9999V17.9999H5.00002C4.73481 17.9999 4.48045 17.8946 4.29292 17.707C4.10538 17.5195 4.00002 17.2652 4.00002 16.9999C4.00002 16.7347 4.10538 16.4804 4.29292 16.2928C4.48045 16.1053 4.73481 15.9999 5.00002 15.9999H6.00002V14.9999C6.00002 14.7347 6.10538 14.4804 6.29292 14.2928C6.48045 14.1053 6.73481 13.9999 7.00002 13.9999C7.26524 13.9999 7.51959 14.1053 7.70713 14.2928C7.89467 14.4804 8.00002 14.7347 8.00002 14.9999V15.9999H9.00002C9.26524 15.9999 9.51959 16.1053 9.70713 16.2928C9.89467 16.4804 10 16.7347 10 16.9999C10 17.2652 9.89467 17.5195 9.70713 17.707C9.51959 17.8946 9.26524 17.9999 9.00002 17.9999ZM17 13.9999C17.1978 13.9999 17.3911 14.0586 17.5556 14.1685C17.72 14.2784 17.8482 14.4345 17.9239 14.6173C17.9996 14.8 18.0194 15.001 17.9808 15.195C17.9422 15.389 17.847 15.5672 17.7071 15.707C17.5673 15.8469 17.3891 15.9421 17.1951 15.9807C17.0011 16.0193 16.8001 15.9995 16.6173 15.9238C16.4346 15.8481 16.2784 15.72 16.1686 15.5555C16.0587 15.3911 16 15.1977 16 14.9999C16 14.7347 16.1054 14.4804 16.2929 14.2928C16.4805 14.1053 16.7348 13.9999 17 13.9999ZM15 17.9999C14.8022 17.9999 14.6089 17.9413 14.4445 17.8314C14.28 17.7215 14.1518 17.5653 14.0761 17.3826C14.0005 17.1999 13.9807 16.9988 14.0192 16.8048C14.0578 16.6109 14.1531 16.4327 14.2929 16.2928C14.4328 16.153 14.611 16.0577 14.8049 16.0192C14.9989 15.9806 15.2 16.0004 15.3827 16.0761C15.5654 16.1517 15.7216 16.2799 15.8315 16.4444C15.9414 16.6088 16 16.8022 16 16.9999C16 17.2652 15.8947 17.5195 15.7071 17.707C15.5196 17.8946 15.2652 17.9999 15 17.9999ZM17 19.9999C16.8022 19.9999 16.6089 19.9413 16.4445 19.8314C16.28 19.7215 16.1518 19.5653 16.0761 19.3826C16.0005 19.1999 15.9807 18.9988 16.0192 18.8048C16.0578 18.6109 16.1531 18.4327 16.2929 18.2928C16.4328 18.153 16.6109 18.0577 16.8049 18.0192C16.9989 17.9806 17.2 18.0004 17.3827 18.0761C17.5654 18.1517 17.7216 18.2799 17.8315 18.4444C17.9414 18.6088 18 18.8022 18 18.9999C18 19.2652 17.8947 19.5195 17.7071 19.707C17.5196 19.8946 17.2652 19.9999 17 19.9999ZM19 17.9999C18.8022 17.9999 18.6089 17.9413 18.4445 17.8314C18.28 17.7215 18.1518 17.5653 18.0761 17.3826C18.0005 17.1999 17.9807 16.9988 18.0192 16.8048C18.0578 16.6109 18.1531 16.4327 18.2929 16.2928C18.4328 16.153 18.611 16.0577 18.8049 16.0192C18.9989 15.9806 19.2 16.0004 19.3827 16.0761C19.5654 16.1517 19.7216 16.2799 19.8315 16.4444C19.9414 16.6088 20 16.8022 20 16.9999C20 17.2652 19.8947 17.5195 19.7071 17.707C19.5196 17.8946 19.2652 17.9999 19 17.9999Z" fill="currentColor"/>
  </symbol>
</svg>
