<!-- JioGames DLS — gas icons (3 icons) -->
<svg xmlns="http://www.w3.org/2000/svg" style="display:none">
  <symbol id="ic_gas" viewBox="0 0 24 24">
    <path d="M16 6V4C16.2652 4 16.5196 3.89464 16.7071 3.70711C16.8946 3.51957 17 3.26522 17 3C17 2.73478 16.8946 2.48043 16.7071 2.29289C16.5196 2.10536 16.2652 2 16 2H8C7.73478 2 7.48043 2.10536 7.29289 2.29289C7.10536 2.48043 7 2.73478 7 3C7 3.26522 7.10536 3.51957 7.29289 3.70711C7.48043 3.89464 7.73478 4 8 4V6C7.20435 6 6.44129 6.31607 5.87868 6.87868C5.31607 7.44129 5 8.20435 5 9V17C5.00174 17.6189 5.19488 18.2222 5.55294 18.7271C5.911 19.2319 6.41645 19.6137 7 19.82C6.99508 19.8799 6.99508 19.9401 7 20C7 20.5304 7.21071 21.0391 7.58579 21.4142C7.96086 21.7893 8.46957 22 9 22H15C15.5304 22 16.0391 21.7893 16.4142 21.4142C16.7893 21.0391 17 20.5304 17 20C17.0049 19.9401 17.0049 19.8799 17 19.82C17.5835 19.6137 18.089 19.2319 18.4471 18.7271C18.8051 18.2222 18.9983 17.6189 19 17V9C19 8.20435 18.6839 7.44129 18.1213 6.87868C17.5587 6.31607 16.7956 6 16 6ZM13 6H11C10.7348 6 10.4804 5.89464 10.2929 5.70711C10.1054 5.51957 10 5.26522 10 5C10 4.73478 10.1054 4.48043 10.2929 4.29289C10.4804 4.10536 10.7348 4 11 4H13C13.2652 4 13.5196 4.10536 13.7071 4.29289C13.8946 4.48043 14 4.73478 14 5C14 5.26522 13.8946 5.51957 13.7071 5.70711C13.5196 5.89464 13.2652 6 13 6Z" fill="currentColor"/>
  </symbol>
  <symbol id="ic_gas_piped" viewBox="0 0 24 24">
    <path d="M21 9C20.7348 9 20.4804 9.10536 20.2929 9.29289C20.1054 9.48043 20 9.73478 20 10H16.46C15.5555 8.99086 14.3359 8.31765 13 8.09V6H14C14.2652 6 14.5196 5.89464 14.7071 5.70711C14.8946 5.51957 15 5.26522 15 5C15 4.73478 14.8946 4.48043 14.7071 4.29289C14.5196 4.10536 14.2652 4 14 4H10C9.73478 4 9.48043 4.10536 9.29289 4.29289C9.10536 4.48043 9 4.73478 9 5C9 5.26522 9.10536 5.51957 9.29289 5.70711C9.48043 5.89464 9.73478 6 10 6H11V8.09C9.66406 8.31765 8.44453 8.99086 7.54 10H4C4 9.73478 3.89464 9.48043 3.70711 9.29289C3.51957 9.10536 3.26522 9 3 9C2.73478 9 2.48043 9.10536 2.29289 9.29289C2.10536 9.48043 2 9.73478 2 10V18C2 18.2652 2.10536 18.5196 2.29289 18.7071C2.48043 18.8946 2.73478 19 3 19C3.26522 19 3.51957 18.8946 3.70711 18.7071C3.89464 18.5196 4 18.2652 4 18H7.54C8.10264 18.6252 8.79046 19.1252 9.55881 19.4674C10.3272 19.8096 11.1589 19.9865 12 19.9865C12.8411 19.9865 13.6728 19.8096 14.4412 19.4674C15.2095 19.1252 15.8974 18.6252 16.46 18H20C20 18.2652 20.1054 18.5196 20.2929 18.7071C20.4804 18.8946 20.7348 19 21 19C21.2652 19 21.5196 18.8946 21.7071 18.7071C21.8946 18.5196 22 18.2652 22 18V10C22 9.73478 21.8946 9.48043 21.7071 9.29289C21.5196 9.10536 21.2652 9 21 9ZM12 15.5C11.6022 15.5 11.2206 15.342 10.9393 15.0607C10.658 14.7794 10.5 14.3978 10.5 14C10.5 14 10.5 13.95 10.5 13.92L9.29 12.71C9.1017 12.5217 8.99591 12.2663 8.99591 12C8.99591 11.7337 9.1017 11.4783 9.29 11.29C9.4783 11.1017 9.7337 10.9959 10 10.9959C10.2663 10.9959 10.5217 11.1017 10.71 11.29L11.92 12.51H12C12.3978 12.51 12.7794 12.668 13.0607 12.9493C13.342 13.2306 13.5 13.6122 13.5 14.01C13.5 14.4078 13.342 14.7894 13.0607 15.0707C12.7794 15.352 12.3978 15.51 12 15.51V15.5Z" fill="currentColor"/>
  </symbol>
  <symbol id="ic_gas_sensor" viewBox="0 0 24 24">
    <path d="M12 10.0002C10.8133 10.0002 9.65328 10.3521 8.66659 11.0113C7.67989 11.6706 6.91086 12.6077 6.45673 13.7041C6.00261 14.8004 5.88379 16.0068 6.1153 17.1707C6.34681 18.3346 6.91825 19.4037 7.75737 20.2428C8.59648 21.0819 9.66558 21.6534 10.8295 21.8849C11.9934 22.1164 13.1998 21.9976 14.2961 21.5434C15.3925 21.0893 16.3295 20.3203 16.9888 19.3336C17.6481 18.3469 18 17.1869 18 16.0002C18 14.4089 17.3679 12.8827 16.2427 11.7575C15.1174 10.6323 13.5913 10.0002 12 10.0002ZM12 20.0002C11.4767 19.9781 10.9807 19.7603 10.6103 19.3899C10.2399 19.0195 10.0221 18.5235 10 18.0002C10.0115 17.6818 10.0885 17.3692 10.2262 17.0819C10.3638 16.7946 10.5591 16.5387 10.8 16.3302C10.9257 16.2437 11.0325 16.1325 11.1137 16.0034C11.1949 15.8742 11.2488 15.7298 11.2722 15.5791C11.2957 15.4283 11.288 15.2744 11.2498 15.1267C11.2116 14.979 11.1436 14.8406 11.05 14.7202C11.0036 14.6264 10.9877 14.5204 11.0046 14.4172C11.0216 14.314 11.0705 14.2186 11.1445 14.1446C11.2185 14.0707 11.3138 14.0217 11.417 14.0048C11.5203 13.9878 11.6263 14.0037 11.72 14.0502C12.4218 14.4408 13.0044 15.0144 13.4059 15.71C13.8075 16.4056 14.0128 17.1971 14 18.0002C13.9779 18.5235 13.7601 19.0195 13.3897 19.3899C13.0193 19.7603 12.5234 19.9781 12 20.0002ZM9.61001 8.82016C10.3006 8.30559 11.1388 8.02764 12 8.02764C12.8612 8.02764 13.6994 8.30559 14.39 8.82016C14.6009 8.98195 14.8673 9.05334 15.1308 9.01865C15.3943 8.98396 15.6332 8.84601 15.795 8.63517C15.9568 8.42432 16.0282 8.15784 15.9935 7.89435C15.9588 7.63086 15.8209 7.39195 15.61 7.23017C14.5696 6.44649 13.3025 6.02265 12 6.02265C10.6975 6.02265 9.43038 6.44649 8.39001 7.23017C8.28561 7.31027 8.19801 7.41016 8.13221 7.52412C8.06641 7.63808 8.0237 7.76388 8.00652 7.89435C7.98934 8.02482 7.99803 8.15739 8.03209 8.2845C8.06614 8.41161 8.1249 8.53076 8.20501 8.63517C8.36679 8.84601 8.60571 8.98396 8.86919 9.01865C8.99966 9.03583 9.13223 9.02714 9.25934 8.99309C9.38645 8.95903 9.50561 8.90027 9.61001 8.82016ZM18.67 4.56016C16.8362 2.91847 14.4613 2.01074 12 2.01074C9.53869 2.01074 7.16383 2.91847 5.33001 4.56016C5.13242 4.73786 5.01352 4.98677 4.99945 5.25213C4.98539 5.5175 5.07731 5.77758 5.25501 5.97516C5.4327 6.17275 5.68161 6.29166 5.94698 6.30572C6.21234 6.31979 6.47242 6.22786 6.67001 6.05017C8.13632 4.74013 10.0337 4.01599 12 4.01599C13.9663 4.01599 15.8637 4.74013 17.33 6.05017C17.5149 6.21323 17.7535 6.30227 18 6.30017C18.1373 6.30367 18.2739 6.27885 18.4013 6.22723C18.5286 6.17562 18.6439 6.09832 18.74 6.00016C18.8324 5.90226 18.9041 5.7867 18.9507 5.66041C18.9974 5.53413 19.0181 5.39973 19.0116 5.26526C19.005 5.1308 18.9714 4.99903 18.9127 4.87787C18.854 4.75671 18.7715 4.64865 18.67 4.56016Z" fill="currentColor"/>
  </symbol>
</svg>
