<!-- JioGames DLS — gift icons (2 icons) -->
<svg xmlns="http://www.w3.org/2000/svg" style="display:none">
  <symbol id="ic_gift" viewBox="0 0 24 24">
    <path d="M5 18C5 18.7956 5.31607 19.5587 5.87868 20.1213C6.44129 20.6839 7.20435 21 8 21H11V13H5V18ZM20 7H18.82C18.9797 6.54818 19.0289 6.06466 18.9634 5.58993C18.8979 5.11519 18.7196 4.66306 18.4435 4.27138C18.1674 3.8797 17.8014 3.55988 17.3763 3.33868C16.9512 3.11748 16.4792 3.00135 16 3H14C13.2599 3.00441 12.5476 3.28221 12 3.78C11.4524 3.28221 10.7401 3.00441 10 3H8C7.52077 3.00135 7.04884 3.11748 6.62371 3.33868C6.19858 3.55988 5.83263 3.8797 5.5565 4.27138C5.28037 4.66306 5.10208 5.11519 5.03658 5.58993C4.97108 6.06466 5.02025 6.54818 5.18 7H4C3.73478 7 3.48043 7.10536 3.29289 7.29289C3.10536 7.48043 3 7.73478 3 8V10C3 10.2652 3.10536 10.5196 3.29289 10.7071C3.48043 10.8946 3.73478 11 4 11H20C20.2652 11 20.5196 10.8946 20.7071 10.7071C20.8946 10.5196 21 10.2652 21 10V8C21 7.73478 20.8946 7.48043 20.7071 7.29289C20.5196 7.10536 20.2652 7 20 7ZM11 7H8C7.73478 7 7.48043 6.89464 7.29289 6.70711C7.10536 6.51957 7 6.26522 7 6C7 5.73478 7.10536 5.48043 7.29289 5.29289C7.48043 5.10536 7.73478 5 8 5H10C10.2652 5 10.5196 5.10536 10.7071 5.29289C10.8946 5.48043 11 5.73478 11 6V7ZM16 7H13V6C13 5.73478 13.1054 5.48043 13.2929 5.29289C13.4804 5.10536 13.7348 5 14 5H16C16.2652 5 16.5196 5.10536 16.7071 5.29289C16.8946 5.48043 17 5.73478 17 6C17 6.26522 16.8946 6.51957 16.7071 6.70711C16.5196 6.89464 16.2652 7 16 7ZM13 21H16C16.7956 21 17.5587 20.6839 18.1213 20.1213C18.6839 19.5587 19 18.7956 19 18V13H13V21Z" fill="currentColor"/>
  </symbol>
  <symbol id="ic_gift_card" viewBox="0 0 24 24">
    <path d="M6 16C5.86839 16.0008 5.73793 15.9755 5.61609 15.9258C5.49426 15.876 5.38344 15.8027 5.29 15.71C5.19627 15.617 5.12188 15.5064 5.07111 15.3846C5.02034 15.2627 4.9942 15.132 4.9942 15C4.9942 14.868 5.02034 14.7373 5.07111 14.6154C5.12188 14.4936 5.19627 14.383 5.29 14.29L6.59 13H2V16C2 16.7956 2.31607 17.5587 2.87868 18.1213C3.44129 18.6839 4.20435 19 5 19H8V14.41L6.71 15.71C6.61656 15.8027 6.50574 15.876 6.38391 15.9258C6.26207 15.9755 6.13161 16.0008 6 16ZM12.71 14.29C12.8037 14.383 12.8781 14.4936 12.9289 14.6154C12.9797 14.7373 13.0058 14.868 13.0058 15C13.0058 15.132 12.9797 15.2627 12.9289 15.3846C12.8781 15.5064 12.8037 15.617 12.71 15.71C12.617 15.8037 12.5064 15.8781 12.3846 15.9289C12.2627 15.9797 12.132 16.0058 12 16.0058C11.868 16.0058 11.7373 15.9797 11.6154 15.9289C11.4936 15.8781 11.383 15.8037 11.29 15.71L10 14.41V19H19C19.7956 19 20.5587 18.6839 21.1213 18.1213C21.6839 17.5587 22 16.7956 22 16V13H11.41L12.71 14.29ZM19 5H10V7.18C10.5326 6.99443 11.1068 6.96277 11.6566 7.08865C12.2063 7.21453 12.7095 7.49284 13.1083 7.89166C13.5072 8.29049 13.7855 8.79366 13.9113 9.34345C14.0372 9.89324 14.0056 10.4674 13.82 11H22V8C22 7.20435 21.6839 6.44129 21.1213 5.87868C20.5587 5.31607 19.7956 5 19 5ZM12 10C12 9.73478 11.8946 9.48043 11.7071 9.29289C11.5196 9.10536 11.2652 9 11 9C10.7348 9 10.4804 9.10536 10.2929 9.29289C10.1054 9.48043 10 9.73478 10 10V11H11C11.2652 11 11.5196 10.8946 11.7071 10.7071C11.8946 10.5196 12 10.2652 12 10ZM2 8V11H4.18C3.99443 10.4674 3.96277 9.89324 4.08865 9.34345C4.21453 8.79366 4.49284 8.29049 4.89166 7.89166C5.29049 7.49284 5.79366 7.21453 6.34345 7.08865C6.89324 6.96277 7.46738 6.99443 8 7.18V5H5C4.20435 5 3.44129 5.31607 2.87868 5.87868C2.31607 6.44129 2 7.20435 2 8ZM7 9C6.73478 9 6.48043 9.10536 6.29289 9.29289C6.10536 9.48043 6 9.73478 6 10C6 10.2652 6.10536 10.5196 6.29289 10.7071C6.48043 10.8946 6.73478 11 7 11H8V10C8 9.73478 7.89464 9.48043 7.70711 9.29289C7.51957 9.10536 7.26522 9 7 9Z" fill="currentColor"/>
  </symbol>
</svg>
