<!-- JioGames DLS — google icons (2 icons) -->
<svg xmlns="http://www.w3.org/2000/svg" style="display:none">
  <symbol id="ic_google" viewBox="0 0 24 24">
    <path d="M20.79 11.5098C20.7692 11.1072 20.7224 10.7063 20.65 10.3098H12.18V13.8198H17.08C16.9829 14.378 16.7744 14.911 16.4668 15.3869C16.1593 15.8628 15.7591 16.2719 15.29 16.5898C14.6877 16.9915 14.0053 17.2576 13.29 17.3698C12.5792 17.4992 11.8508 17.4992 11.14 17.3698C10.2647 17.1839 9.44845 16.7857 8.76315 16.2103C8.07786 15.6348 7.5445 14.8998 7.21001 14.0698C7.16067 13.9656 7.11727 13.8588 7.08001 13.7498C6.6899 12.6191 6.6899 11.3904 7.08001 10.2598C7.35379 9.45932 7.80504 8.73116 8.40001 8.12977C9.12935 7.37769 10.0656 6.85911 11.09 6.63977C11.9646 6.45231 12.8721 6.48669 13.73 6.73977C14.4588 6.96359 15.1239 7.3578 15.67 7.88977L17.32 6.22977C17.62 5.93977 17.92 5.64977 18.2 5.34977C17.3634 4.56432 16.3771 3.95554 15.3 3.55977C13.2195 2.79589 10.9303 2.82653 8.87102 3.64582C6.81172 4.46512 5.12713 6.01544 4.14001 7.99977C3.77955 8.71459 3.51718 9.47478 3.36001 10.2598C3.031 11.8854 3.15759 13.5703 3.72581 15.1285C4.29403 16.6867 5.28178 18.0576 6.58001 19.0898C7.55028 19.8415 8.66259 20.3891 9.85001 20.6998C11.3638 21.0746 12.9462 21.0746 14.46 20.6998C15.8819 20.3983 17.1935 19.7119 18.2516 18.7154C19.3098 17.719 20.0737 16.4509 20.46 15.0498C20.7789 13.8986 20.8906 12.7 20.79 11.5098Z" fill="currentColor"/>
  </symbol>
  <symbol id="ic_google_lens" viewBox="0 0 24 24">
    <path d="M18.5 16C18.0055 16 17.5222 16.1466 17.1111 16.4213C16.7 16.696 16.3795 17.0865 16.1903 17.5433C16.0011 18.0001 15.9516 18.5028 16.048 18.9877C16.1445 19.4727 16.3826 19.9181 16.7322 20.2678C17.0819 20.6174 17.5273 20.8555 18.0123 20.952C18.4972 21.0484 18.9999 20.9989 19.4567 20.8097C19.9135 20.6205 20.304 20.3 20.5787 19.8889C20.8534 19.4778 21 18.9945 21 18.5C21 17.837 20.7366 17.2011 20.2678 16.7322C19.7989 16.2634 19.163 16 18.5 16ZM18 3H6C5.20435 3 4.44129 3.31607 3.87868 3.87868C3.31607 4.44129 3 5.20435 3 6V18C3 18.7956 3.31607 19.5587 3.87868 20.1213C4.44129 20.6839 5.20435 21 6 21H13C13.2652 21 13.5196 20.8946 13.7071 20.7071C13.8946 20.5196 14 20.2652 14 20C14 19.7348 13.8946 19.4804 13.7071 19.2929C13.5196 19.1054 13.2652 19 13 19H6C5.73478 19 5.48043 18.8946 5.29289 18.7071C5.10536 18.5196 5 18.2652 5 18V6C5 5.73478 5.10536 5.48043 5.29289 5.29289C5.48043 5.10536 5.73478 5 6 5H18C18.2652 5 18.5196 5.10536 18.7071 5.29289C18.8946 5.48043 19 5.73478 19 6V13C19 13.2652 19.1054 13.5196 19.2929 13.7071C19.4804 13.8946 19.7348 14 20 14C20.2652 14 20.5196 13.8946 20.7071 13.7071C20.8946 13.5196 21 13.2652 21 13V6C21 5.20435 20.6839 4.44129 20.1213 3.87868C19.5587 3.31607 18.7956 3 18 3ZM12 8C11.2089 8 10.4355 8.2346 9.77772 8.67412C9.11992 9.11365 8.60723 9.73836 8.30448 10.4693C8.00173 11.2002 7.92252 12.0044 8.07686 12.7804C8.2312 13.5563 8.61216 14.269 9.17157 14.8284C9.73098 15.3878 10.4437 15.7688 11.2196 15.9231C11.9956 16.0775 12.7998 15.9983 13.5307 15.6955C14.2616 15.3928 14.8864 14.8801 15.3259 14.2223C15.7654 13.5645 16 12.7911 16 12C16 10.9391 15.5786 9.92172 14.8284 9.17157C14.0783 8.42143 13.0609 8 12 8Z" fill="currentColor"/>
  </symbol>
</svg>
