<!-- JioGames DLS — hair icons (3 icons) -->
<svg xmlns="http://www.w3.org/2000/svg" style="display:none">
  <symbol id="ic_hair_dresser" viewBox="0 0 24 24">
    <path d="M21.5799 6.19003C21.4517 6.09711 21.3033 6.03596 21.1468 6.01162C20.9903 5.98728 20.8303 6.00044 20.6799 6.05003L16.4599 7.46003L15.9999 11.12C15.9822 11.2695 15.9309 11.4131 15.8499 11.54L19.3699 10.54C20.131 10.3118 20.7981 9.84396 21.272 9.20615C21.7458 8.56833 22.0011 7.7946 21.9999 7.00003C21.9992 6.84138 21.9607 6.68518 21.8877 6.54434C21.8147 6.40349 21.7092 6.28205 21.5799 6.19003ZM12.7799 15.25L13.0499 12.6L14.4499 11.89C14.5962 11.8158 14.7219 11.7068 14.8161 11.5725C14.9103 11.4382 14.97 11.2828 14.9899 11.12L15.9899 3.12003C16.007 2.98045 15.9945 2.83884 15.9531 2.70443C15.9118 2.57003 15.8425 2.44586 15.7499 2.34003C15.6562 2.23336 15.5409 2.14787 15.4116 2.08925C15.2822 2.03062 15.1419 2.00021 14.9999 2.00003C14.2034 1.9965 13.4344 2.2911 12.844 2.82591C12.2537 3.36071 11.8848 4.09701 11.8099 4.89003L11.2099 10.8L8.43994 11.61C7.9846 10.9065 7.2913 10.3903 6.48674 10.1557C5.68217 9.92118 4.82008 9.98398 4.05801 10.3327C3.29593 10.6813 2.68477 11.2926 2.33621 12.0547C1.98765 12.8168 1.92497 13.6789 2.15962 14.4835C2.39428 15.288 2.91059 15.9812 3.61422 16.4365C4.31784 16.8917 5.16179 17.0785 5.99181 16.9628C6.82184 16.8471 7.58252 16.4366 8.13484 15.8064C8.68716 15.1761 8.99423 14.3681 8.99994 13.53L10.9999 12.94L10.7899 15.07C9.96105 15.2376 9.2202 15.698 8.7029 16.367C8.18561 17.036 7.92644 17.8689 7.97282 18.7133C8.0192 19.5577 8.36802 20.3571 8.95547 20.9654C9.54292 21.5738 10.3297 21.9502 11.172 22.026C12.0143 22.1018 12.8557 21.8719 13.5423 21.3783C14.2289 20.8846 14.7149 20.1603 14.9113 19.3377C15.1077 18.5152 15.0014 17.6494 14.6119 16.8988C14.2223 16.1482 13.5756 15.5629 12.7899 15.25H12.7799ZM5.49994 15C5.20327 15 4.91326 14.9121 4.66659 14.7472C4.41991 14.5824 4.22765 14.3481 4.11412 14.0741C4.00059 13.8 3.97088 13.4984 4.02876 13.2074C4.08664 12.9164 4.2295 12.6491 4.43928 12.4394C4.64906 12.2296 4.91633 12.0867 5.20731 12.0289C5.49828 11.971 5.79988 12.0007 6.07397 12.1142C6.34805 12.2277 6.58232 12.42 6.74714 12.6667C6.91197 12.9134 6.99994 13.2034 6.99994 13.5C6.99994 13.8979 6.84191 14.2794 6.5606 14.5607C6.2793 14.842 5.89777 15 5.49994 15ZM11.4999 20C11.2033 20 10.9133 19.9121 10.6666 19.7472C10.4199 19.5824 10.2277 19.3481 10.1141 19.0741C10.0006 18.8 9.97088 18.4984 10.0288 18.2074C10.0866 17.9164 10.2295 17.6492 10.4393 17.4394C10.6491 17.2296 10.9163 17.0867 11.2073 17.0289C11.4983 16.971 11.7999 17.0007 12.074 17.1142C12.3481 17.2277 12.5823 17.42 12.7471 17.6667C12.912 17.9134 12.9999 18.2034 12.9999 18.5C12.9999 18.8979 12.8419 19.2794 12.5606 19.5607C12.2793 19.842 11.8978 20 11.4999 20Z" fill="currentColor"/>
  </symbol>
  <symbol id="ic_hair_problems" viewBox="0 0 24 24">
    <path d="M9.84 15.08L10.02 15.24C10.5186 15.7241 11.1851 15.9965 11.88 16H12C12.6785 15.9991 13.3366 15.7682 13.8669 15.345C14.3972 14.9218 14.7685 14.3314 14.92 13.67C14.9689 13.4499 14.9957 13.2255 15 13C14.9999 12.7985 14.9798 12.5976 14.94 12.4C14.8275 11.9197 14.6701 11.451 14.47 11C14.0719 10.2567 13.8839 9.41889 13.9261 8.5767C13.9684 7.73451 14.2394 6.91977 14.71 6.22003C15.07 5.67003 15.45 5.14003 15.81 4.62003C15.9421 4.40804 15.99 4.1543 15.9444 3.90874C15.8988 3.66319 15.763 3.44358 15.5636 3.29312C15.3643 3.14267 15.1158 3.07226 14.8672 3.09574C14.6185 3.11923 14.3877 3.23491 14.22 3.42003C13.8058 3.92112 13.4249 4.44893 13.08 5.00003C11.44 7.41003 9 11.27 9 12.86C9 12.86 9 12.91 9 12.93C9 12.95 9 13 9 13C9.0005 13.7759 9.30157 14.5214 9.84 15.08ZM20 11H16.58C16.8579 11.6301 17.0009 12.3114 17 13C17 14.3261 16.4732 15.5979 15.5355 16.5356C14.5979 17.4732 13.3261 18 12 18C10.6739 18 9.40215 17.4732 8.46447 16.5356C7.52678 15.5979 7 14.3261 7 13C6.99907 12.3114 7.14213 11.6301 7.42 11H4C3.46957 11 2.96086 11.2107 2.58579 11.5858C2.21071 11.9609 2 12.4696 2 13V18C2 18.5305 2.21071 19.0392 2.58579 19.4142C2.96086 19.7893 3.46957 20 4 20H20C20.5304 20 21.0391 19.7893 21.4142 19.4142C21.7893 19.0392 22 18.5305 22 18V13C22 12.4696 21.7893 11.9609 21.4142 11.5858C21.0391 11.2107 20.5304 11 20 11Z" fill="currentColor"/>
  </symbol>
  <symbol id="ic_hair_root" viewBox="0 0 24 24">
    <path d="M9.84 14.0804C9.89 14.1404 9.96 14.1904 10.01 14.2404C10.51 14.7104 11.16 15.0004 11.87 15.0004C11.89 15.0004 11.91 15.0004 11.93 15.0004C11.95 15.0004 11.97 15.0004 11.99 15.0004C13.42 15.0004 14.61 14.0004 14.91 12.6704C14.91 12.6704 14.91 12.6504 14.91 12.6404C14.95 12.4304 14.98 12.2204 14.98 12.0004C14.98 11.8004 14.96 11.6004 14.92 11.4004V11.3804C14.82 10.8904 14.64 10.4204 14.45 9.96035C13.94 8.69035 13.42 7.39035 14.68 5.17035C15.05 4.63035 15.42 4.09035 15.79 3.57035C16.1 3.13035 16.01 2.52035 15.58 2.19035C15.15 1.86035 14.53 1.94035 14.2 2.36035C13.74 2.93035 13.37 3.47035 13.07 3.98035C11.43 6.39035 8.99 10.2504 8.99 11.8404C8.99 11.8604 8.99 11.8904 8.99 11.9104C8.99 11.9304 8.99 11.9604 8.99 11.9804C8.99 12.7904 9.31 13.5204 9.83 14.0604L9.84 14.0804ZM7 12.0004V11.8604C7 11.4804 7 10.7404 7.8 9.00035H4C2.9 9.00035 2 9.90035 2 11.0004V13.0004H7.11C7.04 12.6704 7 12.3404 7 12.0004ZM20 9.00035H16.24C16.27 9.07035 16.3 9.14035 16.33 9.22035C16.56 9.78035 16.77 10.3404 16.89 10.9404V10.9804L16.91 11.0104V11.0404C16.98 11.3804 17.01 11.6904 17.01 12.0004C17.01 12.3204 16.97 12.6604 16.9 13.0004H22.01V11.0004C22.01 9.90035 21.11 9.00035 20.01 9.00035H20ZM12.02 17.0004H11.88C10.7 17.0004 9.56 16.5404 8.67 15.7104C8.65 15.6904 8.62 15.6704 8.6 15.6504L8.56 15.6204L8.43 15.4904L8.33 15.3904L8.31 15.3604C8.21 15.2504 8.13 15.1304 8.05 15.0104H2V17.0104C2 18.1104 2.9 19.0104 4 19.0104H20C21.1 19.0104 22 18.1104 22 17.0104V15.0104H15.98C15.07 16.2304 13.63 17.0004 12.02 17.0104V17.0004Z" fill="currentColor"/>
  </symbol>
</svg>
