<!-- JioGames DLS — hand icons (5 icons) -->
<svg xmlns="http://www.w3.org/2000/svg" style="display:none">
  <symbol id="ic_hand" viewBox="0 0 24 24">
    <path d="M19.43 10.09C18.98 9.88 18.45 10.03 18.17 10.44L16.46 13C16.32 13.21 16 13.11 16 12.86V5C16 4.45 15.55 4 15 4C14.45 4 14 4.45 14 5V10.5C14 10.78 13.78 11 13.5 11C13.22 11 13 10.78 13 10.5V3C13 2.45 12.55 2 12 2C11.45 2 11 2.45 11 3V10.5C11 10.78 10.78 11 10.5 11C10.22 11 10 10.78 10 10.5V4C10 3.45 9.55 3 9 3C8.45 3 8 3.45 8 4V11.5C8 11.78 7.78 12 7.5 12C7.22 12 7 11.78 7 11.5V7C7 6.45 6.55 6 6 6C5.45 6 5 6.45 5 7V14.99C5 18.7 7.88 21.92 11.59 22C14.65 22.06 17.31 20.12 18.19 17.2L19.96 11.29C20.1 10.82 19.88 10.31 19.43 10.1V10.09Z" fill="currentColor"/>
  </symbol>
  <symbol id="ic_hand_bag" viewBox="0 0 24 24">
    <path d="M19.5499 9.59C19.5072 9.08956 19.2778 8.6235 18.9073 8.28445C18.5367 7.9454 18.0522 7.75818 17.5499 7.76H16.0499V7.05C16.0499 5.97587 15.6232 4.94574 14.8637 4.18622C14.1042 3.42669 13.0741 3 11.9999 3C10.9258 3 9.89568 3.42669 9.13616 4.18622C8.37663 4.94574 7.94994 5.97587 7.94994 7.05V7.76H6.43994C5.93769 7.75818 5.45314 7.9454 5.08259 8.28445C4.71204 8.6235 4.48263 9.08956 4.43994 9.59L3.74994 17.75C3.71528 18.1645 3.76718 18.5816 3.90234 18.975C4.03751 19.3683 4.25298 19.7292 4.53509 20.0349C4.8172 20.3405 5.15978 20.5841 5.54106 20.7502C5.92235 20.9164 6.33402 21.0014 6.74994 21H17.2499C17.6659 21.0014 18.0775 20.9164 18.4588 20.7502C18.8401 20.5841 19.1827 20.3405 19.4648 20.0349C19.7469 19.7292 19.9624 19.3683 20.0975 18.975C20.2327 18.5816 20.2846 18.1645 20.2499 17.75L19.5499 9.59ZM14.0499 7.76H9.99994V7.05C9.99994 6.50631 10.2159 5.98488 10.6004 5.60043C10.9848 5.21598 11.5062 5 12.0499 5C12.5936 5 13.1151 5.21598 13.4995 5.60043C13.884 5.98488 14.0999 6.50631 14.0999 7.05L14.0499 7.76Z" fill="currentColor"/>
  </symbol>
  <symbol id="ic_hand_luggage" viewBox="0 0 24 24">
    <path d="M16 6V5C16 4.20435 15.6839 3.44129 15.1213 2.87868C14.5587 2.31607 13.7956 2 13 2H11C10.2044 2 9.44129 2.31607 8.87868 2.87868C8.31607 3.44129 8 4.20435 8 5V6C7.20435 6 6.44129 6.31607 5.87868 6.87868C5.31607 7.44129 5 8.20435 5 9V17C5.00174 17.6189 5.19488 18.2222 5.55294 18.7271C5.911 19.2319 6.41645 19.6137 7 19.82V21C7 21.2652 7.10536 21.5196 7.29289 21.7071C7.48043 21.8946 7.73478 22 8 22C8.26522 22 8.51957 21.8946 8.70711 21.7071C8.89464 21.5196 9 21.2652 9 21V20H15V21C15 21.2652 15.1054 21.5196 15.2929 21.7071C15.4804 21.8946 15.7348 22 16 22C16.2652 22 16.5196 21.8946 16.7071 21.7071C16.8946 21.5196 17 21.2652 17 21V19.82C17.5835 19.6137 18.089 19.2319 18.4471 18.7271C18.8051 18.2222 18.9983 17.6189 19 17V9C19 8.20435 18.6839 7.44129 18.1213 6.87868C17.5587 6.31607 16.7956 6 16 6ZM10 16C10 16.2652 9.89464 16.5196 9.70711 16.7071C9.51957 16.8946 9.26522 17 9 17C8.73478 17 8.48043 16.8946 8.29289 16.7071C8.10536 16.5196 8 16.2652 8 16V10C8 9.73478 8.10536 9.48043 8.29289 9.29289C8.48043 9.10536 8.73478 9 9 9C9.26522 9 9.51957 9.10536 9.70711 9.29289C9.89464 9.48043 10 9.73478 10 10V16ZM10 5C10 4.73478 10.1054 4.48043 10.2929 4.29289C10.4804 4.10536 10.7348 4 11 4H13C13.2652 4 13.5196 4.10536 13.7071 4.29289C13.8946 4.48043 14 4.73478 14 5V6H10V5ZM16 16C16 16.2652 15.8946 16.5196 15.7071 16.7071C15.5196 16.8946 15.2652 17 15 17C14.7348 17 14.4804 16.8946 14.2929 16.7071C14.1054 16.5196 14 16.2652 14 16V10C14 9.73478 14.1054 9.48043 14.2929 9.29289C14.4804 9.10536 14.7348 9 15 9C15.2652 9 15.5196 9.10536 15.7071 9.29289C15.8946 9.48043 16 9.73478 16 10V16Z" fill="currentColor"/>
  </symbol>
  <symbol id="ic_hand_off" viewBox="0 0 24 24">
    <path d="M15.0001 4C14.4501 4 14.0001 4.45 14.0001 5V5.76L15.5601 4.2C15.4001 4.09 15.2101 4 15.0001 4ZM10.0001 4C10.0001 3.45 9.55006 3 9.00006 3C8.45006 3 8.00006 3.45 8.00006 4V11.76L10.0001 9.76V4ZM13.0001 3C13.0001 2.45 12.5501 2 12.0001 2C11.4501 2 11.0001 2.45 11.0001 3V8.76L13.0001 6.76V3ZM7.00006 12.5V7C7.00006 6.45 6.55006 6 6.00006 6C5.45006 6 5.00006 6.45 5.00006 7V14.76L7.05006 12.71C7.02006 12.65 7.00006 12.58 7.00006 12.5ZM20.7101 4.71C21.1001 4.32 21.1001 3.69 20.7101 3.3C20.3201 2.91 19.6901 2.91 19.3001 3.3L3.29006 19.29C2.90006 19.68 2.90006 20.31 3.29006 20.7C3.49006 20.9 3.74006 20.99 4.00006 20.99C4.26006 20.99 4.51006 20.89 4.71006 20.7L6.31006 19.1C7.50006 20.8 9.40006 21.95 11.5901 21.99C14.6501 22.05 17.3101 20.11 18.1901 17.19L19.9601 11.28C20.1001 10.81 19.8801 10.3 19.4301 10.09C18.9801 9.87 18.4501 10.02 18.1701 10.43L16.4601 12.99C16.3201 13.2 16.0001 13.1 16.0001 12.85V9.41L20.7101 4.7V4.71Z" fill="currentColor"/>
  </symbol>
  <symbol id="ic_hand_soap" viewBox="0 0 24 24">
    <path d="M15 8.00009V7.00009C15 6.73488 14.8946 6.48052 14.7071 6.29299C14.5196 6.10545 14.2652 6.00009 14 6.00009H13V4.00009H13.51C13.7274 3.99843 13.9435 4.0322 14.15 4.10009L16.68 5.00009C16.7862 5.0138 16.8938 5.0138 17 5.00009C17.2181 5.01148 17.4339 4.95117 17.6144 4.82838C17.795 4.70559 17.9304 4.52707 18 4.32009C18.0424 4.19536 18.0597 4.06348 18.0509 3.93203C18.0421 3.80059 18.0075 3.67218 17.9489 3.55416C17.8904 3.43615 17.8091 3.33087 17.7098 3.24437C17.6104 3.15786 17.4949 3.09184 17.37 3.05009L14.83 2.21009C14.4052 2.06524 13.9588 1.99421 13.51 2.00009H9C8.73478 2.00009 8.48043 2.10545 8.29289 2.29299C8.10536 2.48052 8 2.73488 8 3.00009C8 3.26531 8.10536 3.51966 8.29289 3.7072C8.48043 3.89474 8.73478 4.00009 9 4.00009H11V6.00009H10C9.73478 6.00009 9.48043 6.10545 9.29289 6.29299C9.10536 6.48052 9 6.73488 9 7.00009V8.00009C8.20435 8.00009 7.44129 8.31616 6.87868 8.87877C6.31607 9.44138 6 10.2044 6 11.0001V19.0001C6 19.7957 6.31607 20.5588 6.87868 21.1214C7.44129 21.684 8.20435 22.0001 9 22.0001H15C15.7956 22.0001 16.5587 21.684 17.1213 21.1214C17.6839 20.5588 18 19.7957 18 19.0001V11.0001C18 10.2044 17.6839 9.44138 17.1213 8.87877C16.5587 8.31616 15.7956 8.00009 15 8.00009Z" fill="currentColor"/>
  </symbol>
</svg>
