<!-- JioGames DLS — hd icons (2 icons) -->
<svg xmlns="http://www.w3.org/2000/svg" style="display:none">
  <symbol id="ic_hd" viewBox="0 0 24 24">
    <path d="M21.12 4.88C20.5579 4.31723 19.7954 4.0007 19 4H5C4.20435 4 3.44129 4.31607 2.87868 4.87868C2.31607 5.44129 2 6.20435 2 7V17C2 17.7956 2.31607 18.5587 2.87868 19.1213C3.44129 19.6839 4.20435 20 5 20H19C19.7956 20 20.5587 19.6839 21.1213 19.1213C21.6839 18.5587 22 17.7956 22 17V7C21.9993 6.20462 21.6828 5.44207 21.12 4.88ZM11.5 15C11.5 15.2652 11.3946 15.5196 11.2071 15.7071C11.0196 15.8946 10.7652 16 10.5 16C10.2348 16 9.98043 15.8946 9.79289 15.7071C9.60536 15.5196 9.5 15.2652 9.5 15V13H7.5V15C7.501 15.1991 7.44252 15.394 7.33206 15.5597C7.2216 15.7254 7.0642 15.8543 6.88 15.93C6.69789 16.0066 6.49718 16.0275 6.30319 15.9901C6.1092 15.9528 5.93062 15.8588 5.79 15.72C5.69656 15.6248 5.62192 15.5129 5.57 15.39C5.52089 15.266 5.49709 15.1334 5.5 15V9C5.499 8.80087 5.55748 8.60598 5.66794 8.44029C5.7784 8.2746 5.93581 8.14567 6.12 8.07C6.30211 7.99342 6.50282 7.9725 6.69681 8.00987C6.8908 8.04725 7.06938 8.14124 7.21 8.28C7.30344 8.37518 7.37808 8.48714 7.43 8.61C7.47911 8.73403 7.50291 8.86663 7.5 9V11H9.5V9C9.5 8.73478 9.60536 8.48043 9.79289 8.29289C9.98043 8.10536 10.2348 8 10.5 8C10.7652 8 11.0196 8.10536 11.2071 8.29289C11.3946 8.48043 11.5 8.73478 11.5 9V15ZM16 16H14C13.7348 16 13.4804 15.8946 13.2929 15.7071C13.1054 15.5196 13 15.2652 13 15V9C13 8.73478 13.1054 8.48043 13.2929 8.29289C13.4804 8.10536 13.7348 8 14 8H16C17 8 19 8.84 19 12C19 15.16 17 16 16 16ZM16 10H15V14H16C16.19 14 17 13.84 17 12C17 10.16 16.17 10 16 10Z" fill="currentColor"/>
  </symbol>
  <symbol id="ic_hd_screen" viewBox="0 0 24 24">
    <path d="M15 2H9C8.20435 2 7.44129 2.31607 6.87868 2.87868C6.31607 3.44129 6 4.20435 6 5V19C6 19.7956 6.31607 20.5587 6.87868 21.1213C7.44129 21.6839 8.20435 22 9 22H15C15.7956 22 16.5587 21.6839 17.1213 21.1213C17.6839 20.5587 18 19.7956 18 19V5C18 4.20435 17.6839 3.44129 17.1213 2.87868C16.5587 2.31607 15.7956 2 15 2ZM10 5C10.1978 5 10.3911 5.05865 10.5556 5.16853C10.72 5.27841 10.8482 5.43459 10.9239 5.61732C10.9996 5.80004 11.0194 6.00111 10.9808 6.19509C10.9422 6.38907 10.847 6.56725 10.7071 6.70711C10.5673 6.84696 10.3891 6.9422 10.1951 6.98079C10.0011 7.01937 9.80004 6.99957 9.61732 6.92388C9.43459 6.84819 9.27841 6.72002 9.16853 6.55557C9.05865 6.39112 9 6.19778 9 6C9 5.73478 9.10536 5.48043 9.29289 5.29289C9.48043 5.10536 9.73478 5 10 5ZM16 19C16 19.2652 15.8946 19.5196 15.7071 19.7071C15.5196 19.8946 15.2652 20 15 20H9C8.73478 20 8.48043 19.8946 8.29289 19.7071C8.10536 19.5196 8 19.2652 8 19V11C7.99924 10.8684 8.02446 10.7379 8.07423 10.6161C8.12399 10.4943 8.19732 10.3834 8.29 10.29L9.29 9.29C9.38296 9.19627 9.49356 9.12188 9.61542 9.07111C9.73728 9.02034 9.86799 8.9942 10 8.9942C10.132 8.9942 10.2627 9.02034 10.3846 9.07111C10.5064 9.12188 10.617 9.19627 10.71 9.29L12 10.59L14.29 8.29C14.4306 8.15124 14.6092 8.05725 14.8032 8.01987C14.9972 7.9825 15.1979 8.00342 15.38 8.08C15.5626 8.15502 15.7189 8.28242 15.8293 8.44614C15.9396 8.60986 15.999 8.80257 16 9V19ZM12 16C11.8022 16 11.6089 16.0586 11.4444 16.1685C11.28 16.2784 11.1518 16.4346 11.0761 16.6173C11.0004 16.8 10.9806 17.0011 11.0192 17.1951C11.0578 17.3891 11.153 17.5673 11.2929 17.7071C11.4327 17.847 11.6109 17.9422 11.8049 17.9808C11.9989 18.0194 12.2 17.9996 12.3827 17.9239C12.5654 17.8482 12.7216 17.72 12.8315 17.5556C12.9414 17.3911 13 17.1978 13 17C13 16.7348 12.8946 16.4804 12.7071 16.2929C12.5196 16.1054 12.2652 16 12 16Z" fill="currentColor"/>
  </symbol>
</svg>
