<!-- JioGames DLS — hdr icons (3 icons) -->
<svg xmlns="http://www.w3.org/2000/svg" style="display:none">
  <symbol id="ic_hdr" viewBox="0 0 24 24">
    <path d="M7 8C6.73478 8 6.48043 8.10536 6.29289 8.29289C6.10536 8.48043 6 8.73478 6 9V11H4V9C4 8.73478 3.89464 8.48043 3.70711 8.29289C3.51957 8.10536 3.26522 8 3 8C2.73478 8 2.48043 8.10536 2.29289 8.29289C2.10536 8.48043 2 8.73478 2 9V15C2 15.2652 2.10536 15.5196 2.29289 15.7071C2.48043 15.8946 2.73478 16 3 16C3.26522 16 3.51957 15.8946 3.70711 15.7071C3.89464 15.5196 4 15.2652 4 15V13H6V15C6 15.2652 6.10536 15.5196 6.29289 15.7071C6.48043 15.8946 6.73478 16 7 16C7.26522 16 7.51957 15.8946 7.70711 15.7071C7.89464 15.5196 8 15.2652 8 15V9C8 8.73478 7.89464 8.48043 7.70711 8.29289C7.51957 8.10536 7.26522 8 7 8ZM21.16 13.08C21.5679 12.6561 21.8421 12.1216 21.9486 11.5431C22.0551 10.9646 21.9891 10.3675 21.7589 9.82612C21.5288 9.28476 21.1445 8.82303 20.654 8.49835C20.1634 8.17366 19.5883 8.00036 19 8H17C16.7348 8 16.4804 8.10536 16.2929 8.29289C16.1054 8.48043 16 8.73478 16 9V15C16 15.2652 16.1054 15.5196 16.2929 15.7071C16.4804 15.8946 16.7348 16 17 16C17.2652 16 17.5196 15.8946 17.7071 15.7071C17.8946 15.5196 18 15.2652 18 15V14H19C19.1198 14.0098 19.2402 14.0098 19.36 14L20.11 15.49C20.1985 15.6475 20.3279 15.778 20.4846 15.8678C20.6413 15.9576 20.8194 16.0033 21 16C21.1569 16.0019 21.3117 15.964 21.45 15.89C21.6855 15.7701 21.864 15.5619 21.9465 15.3108C22.0289 15.0597 22.0086 14.7862 21.89 14.55L21.16 13.08ZM19 12H18V10H19C19.2652 10 19.5196 10.1054 19.7071 10.2929C19.8946 10.4804 20 10.7348 20 11C20 11.2652 19.8946 11.5196 19.7071 11.7071C19.5196 11.8946 19.2652 12 19 12ZM12 8H10C9.73478 8 9.48043 8.10536 9.29289 8.29289C9.10536 8.48043 9 8.73478 9 9V15C9 15.2652 9.10536 15.5196 9.29289 15.7071C9.48043 15.8946 9.73478 16 10 16H12C13 16 15 15.16 15 12C15 8.84 13 8 12 8ZM12 14H11V10H12C12.17 10 13 10.16 13 12C13 13.84 12.17 14 12 14Z" fill="currentColor"/>
  </symbol>
  <symbol id="ic_hdr_auto" viewBox="0 0 24 24">
    <path d="M12 13H10C9.73478 13 9.48043 13.1054 9.29289 13.2929C9.10536 13.4804 9 13.7348 9 14V20C9 20.2652 9.10536 20.5196 9.29289 20.7071C9.48043 20.8946 9.73478 21 10 21H12C13 21 15 20.16 15 17C15 13.84 13 13 12 13ZM12 19H11V15H12C12.17 15 13 15.16 13 17C13 18.84 12.17 19 12 19ZM7 13C6.73478 13 6.48043 13.1054 6.29289 13.2929C6.10536 13.4804 6 13.7348 6 14V16H4V14C4 13.7348 3.89464 13.4804 3.70711 13.2929C3.51957 13.1054 3.26522 13 3 13C2.73478 13 2.48043 13.1054 2.29289 13.2929C2.10536 13.4804 2 13.7348 2 14V20C2 20.2652 2.10536 20.5196 2.29289 20.7071C2.48043 20.8946 2.73478 21 3 21C3.26522 21 3.51957 20.8946 3.70711 20.7071C3.89464 20.5196 4 20.2652 4 20V18H6V20C6 20.2652 6.10536 20.5196 6.29289 20.7071C6.48043 20.8946 6.73478 21 7 21C7.26522 21 7.51957 20.8946 7.70711 20.7071C7.89464 20.5196 8 20.2652 8 20V14C8 13.7348 7.89464 13.4804 7.70711 13.2929C7.51957 13.1054 7.26522 13 7 13ZM19 13H17C16.7348 13 16.4804 13.1054 16.2929 13.2929C16.1054 13.4804 16 13.7348 16 14V20C16 20.2652 16.1054 20.5196 16.2929 20.7071C16.4804 20.8946 16.7348 21 17 21C17.2652 21 17.5196 20.8946 17.7071 20.7071C17.8946 20.5196 18 20.2652 18 20V19H19C19.1198 19.0098 19.2402 19.0098 19.36 19L20.11 20.49C20.1985 20.6475 20.3279 20.778 20.4846 20.8678C20.6413 20.9576 20.8194 21.0033 21 21C21.1569 21.0019 21.3117 20.964 21.45 20.89C21.6855 20.7701 21.864 20.5619 21.9465 20.3108C22.0289 20.0597 22.0086 19.7862 21.89 19.55L21.16 18.08C21.5679 17.6561 21.8421 17.1216 21.9486 16.5431C22.0551 15.9646 21.9891 15.3675 21.7589 14.8261C21.5288 14.2848 21.1445 13.823 20.654 13.4983C20.1634 13.1737 19.5883 13.0004 19 13ZM19 17H18V15H19C19.2652 15 19.5196 15.1054 19.7071 15.2929C19.8946 15.4804 20 15.7348 20 16C20 16.2652 19.8946 16.5196 19.7071 16.7071C19.5196 16.8946 19.2652 17 19 17ZM20 3H16C15.4696 3 14.9609 3.21071 14.5858 3.58579C14.2107 3.96086 14 4.46957 14 5V9C14 9.53043 14.2107 10.0391 14.5858 10.4142C14.9609 10.7893 15.4696 11 16 11H20C20.5304 11 21.0391 10.7893 21.4142 10.4142C21.7893 10.0391 22 9.53043 22 9V5C22 4.46957 21.7893 3.96086 21.4142 3.58579C21.0391 3.21071 20.5304 3 20 3ZM19.68 9.47H19.5C19.3971 9.47793 19.2942 9.45445 19.205 9.40267C19.1157 9.35089 19.0442 9.27325 19 9.18L18.75 8.5H17.22L17 9.18C16.9508 9.30353 16.8554 9.40297 16.734 9.45714C16.6125 9.51131 16.4748 9.51592 16.35 9.47C16.2842 9.45054 16.2229 9.41824 16.1696 9.37497C16.1164 9.3317 16.0722 9.27831 16.0396 9.21789C16.0071 9.15746 15.9869 9.09119 15.98 9.02291C15.9732 8.95462 15.98 8.88566 16 8.82L17.5 4.82C17.5421 4.731 17.6087 4.65578 17.6919 4.60312C17.7751 4.55045 17.8715 4.52249 17.97 4.52249C18.0685 4.52249 18.1649 4.55045 18.2481 4.60312C18.3313 4.65578 18.3979 4.731 18.44 4.82L19.94 8.82C19.9878 8.94106 19.9875 9.07581 19.9391 9.19666C19.8908 9.3175 19.7981 9.41529 19.68 9.47ZM17.6 7.47H18.4L18 6.42L17.6 7.47Z" fill="currentColor"/>
  </symbol>
  <symbol id="ic_hdr_off" viewBox="0 0 24 24">
    <path d="M12.27 8.00019L14.82 10.5502C14.7169 9.91108 14.415 9.32072 13.9572 8.86296C13.4995 8.4052 12.9091 8.10332 12.27 8.00019ZM4.71 3.29019C4.61676 3.19695 4.50607 3.12299 4.38425 3.07253C4.26243 3.02207 4.13186 2.99609 4 2.99609C3.86814 2.99609 3.73757 3.02207 3.61575 3.07253C3.49393 3.12299 3.38324 3.19695 3.29 3.29019C3.1017 3.47849 2.99591 3.73388 2.99591 4.00019C2.99591 4.26649 3.1017 4.52188 3.29 4.71019L6.66 8.07019C6.46832 8.13947 6.3024 8.26567 6.18444 8.43188C6.06648 8.5981 6.00213 8.79638 6 9.00019V11.0002H4V9.00019C4 8.73497 3.89464 8.48062 3.70711 8.29308C3.51957 8.10554 3.26522 8.00019 3 8.00019C2.73478 8.00019 2.48043 8.10554 2.29289 8.29308C2.10536 8.48062 2 8.73497 2 9.00019V15.0002C2 15.2654 2.10536 15.5198 2.29289 15.7073C2.48043 15.8948 2.73478 16.0002 3 16.0002C3.26522 16.0002 3.51957 15.8948 3.70711 15.7073C3.89464 15.5198 4 15.2654 4 15.0002V13.0002H6V15.0002C6 15.2654 6.10536 15.5198 6.29289 15.7073C6.48043 15.8948 6.73478 16.0002 7 16.0002C7.26522 16.0002 7.51957 15.8948 7.70711 15.7073C7.89464 15.5198 8 15.2654 8 15.0002V9.41019L9 10.4102V15.0002C9 15.2654 9.10536 15.5198 9.29289 15.7073C9.48043 15.8948 9.73478 16.0002 10 16.0002H12C12.6774 15.9745 13.3217 15.7004 13.81 15.2302L19.29 20.7102C19.383 20.8039 19.4936 20.8783 19.6154 20.9291C19.7373 20.9798 19.868 21.006 20 21.006C20.132 21.006 20.2627 20.9798 20.3846 20.9291C20.5064 20.8783 20.617 20.8039 20.71 20.7102C20.8037 20.6172 20.8781 20.5066 20.9289 20.3848C20.9797 20.2629 21.0058 20.1322 21.0058 20.0002C21.0058 19.8682 20.9797 19.7375 20.9289 19.6156C20.8781 19.4937 20.8037 19.3831 20.71 19.2902L4.71 3.29019ZM12 14.0002H11V12.4102L12.4 13.8202C12.2842 13.9134 12.1465 13.9753 12 14.0002ZM21.18 13.0802C21.5891 12.6551 21.8637 12.1187 21.9695 11.5383C22.0754 10.9579 22.0077 10.3592 21.7751 9.81706C21.5424 9.2749 21.1551 8.81338 20.6615 8.49022C20.1679 8.16706 19.59 7.99661 19 8.00019H17C16.7348 8.00019 16.4804 8.10554 16.2929 8.29308C16.1054 8.48062 16 8.73497 16 9.00019V11.7602L18.24 14.0002H19C19.1198 14.01 19.2402 14.01 19.36 14.0002L20.11 15.4902C20.1985 15.6476 20.3279 15.7782 20.4846 15.868C20.6413 15.9578 20.8194 16.0035 21 16.0002C21.1569 16.0021 21.3117 15.9642 21.45 15.8902C21.6855 15.7703 21.864 15.5621 21.9465 15.311C22.0289 15.0599 22.0086 14.7864 21.89 14.5502L21.18 13.0802ZM19 12.0002H18V10.0002H19C19.2652 10.0002 19.5196 10.1055 19.7071 10.2931C19.8946 10.4806 20 10.735 20 11.0002C20 11.2654 19.8946 11.5198 19.7071 11.7073C19.5196 11.8948 19.2652 12.0002 19 12.0002Z" fill="currentColor"/>
  </symbol>
</svg>
