<!-- JioGames DLS — health icons (3 icons) -->
<svg xmlns="http://www.w3.org/2000/svg" style="display:none">
  <symbol id="ic_health_conditions" viewBox="0 0 24 24">
    <path d="M19.12 2.88C18.56 2.32 17.79 2 17 2H7C6.2 2 5.44 2.32 4.88 2.88C4.32 3.44 4 4.21 4 5V19C4 19.8 4.32 20.56 4.88 21.12C5.44 21.68 6.21 22 7 22H17C17.8 22 18.56 21.68 19.12 21.12C19.68 20.56 20 19.79 20 19V5C20 4.2 19.68 3.44 19.12 2.88ZM9.29 7.29C9.48 7.1 9.73 7 10 7H11V6C11 5.73 11.11 5.48 11.29 5.29C11.47 5.1 11.73 5 12 5C12.27 5 12.52 5.11 12.71 5.29C12.9 5.47 13 5.73 13 6V7H14C14.27 7 14.52 7.11 14.71 7.29C14.9 7.48 15 7.73 15 8C15 8.27 14.89 8.52 14.71 8.71C14.53 8.9 14.27 9 14 9H13V10C13 10.27 12.89 10.52 12.71 10.71C12.52 10.9 12.27 11 12 11C11.73 11 11.48 10.89 11.29 10.71C11.1 10.52 11 10.27 11 10V9H10C9.73 9 9.48 8.89 9.29 8.71C9.1 8.52 9 8.27 9 8C9 7.73 9.11 7.48 9.29 7.29ZM15.7 18.7C15.51 18.89 15.26 18.99 14.99 18.99H8.99C8.72 18.99 8.47 18.88 8.28 18.7C8.09 18.51 7.99 18.26 7.99 17.99C7.99 17.72 8.1 17.47 8.28 17.28C8.47 17.09 8.72 16.99 8.99 16.99H14.99C15.26 16.99 15.51 17.1 15.7 17.28C15.89 17.46 15.99 17.72 15.99 17.99C15.99 18.26 15.88 18.51 15.7 18.7ZM16.7 14.7C16.51 14.89 16.26 14.99 15.99 14.99H8C7.73 14.99 7.48 14.88 7.29 14.7C7.1 14.51 7 14.26 7 13.99C7 13.72 7.11 13.47 7.29 13.28C7.48 13.09 7.73 12.99 8 12.99H16C16.27 12.99 16.52 13.1 16.71 13.28C16.9 13.46 17 13.72 17 13.99C17 14.26 16.89 14.51 16.71 14.7H16.7Z" fill="currentColor"/>
  </symbol>
  <symbol id="ic_health_protection" viewBox="0 0 24 24">
    <path d="M20.46 4.68C20.1284 4.29684 19.6638 4.05381 19.16 4C16.9552 3.76898 14.8088 3.14942 12.82 2.17C12.5648 2.04466 12.2843 1.97949 12 1.97949C11.7157 1.97949 11.4352 2.04466 11.18 2.17C9.20579 3.15045 7.07225 3.77019 4.88 4C4.37562 4.04408 3.90514 4.27236 3.55837 4.64127C3.21159 5.01017 3.01282 5.49386 3 6V11C3 17.74 9.75 22 12 22C14.25 22 21 17.75 21 11V6C20.9883 5.50859 20.7961 5.03869 20.46 4.68ZM17 10H16V11C16 11.2652 15.8946 11.5196 15.7071 11.7071C15.5196 11.8946 15.2652 12 15 12C14.7348 12 14.4804 11.8946 14.2929 11.7071C14.1054 11.5196 14 11.2652 14 11V10H13C12.7348 10 12.4804 9.89464 12.2929 9.70711C12.1054 9.51957 12 9.26522 12 9C12 8.73478 12.1054 8.48043 12.2929 8.29289C12.4804 8.10536 12.7348 8 13 8H14V7C14 6.73478 14.1054 6.48043 14.2929 6.29289C14.4804 6.10536 14.7348 6 15 6C15.2652 6 15.5196 6.10536 15.7071 6.29289C15.8946 6.48043 16 6.73478 16 7V8H17C17.2652 8 17.5196 8.10536 17.7071 8.29289C17.8946 8.48043 18 8.73478 18 9C18 9.26522 17.8946 9.51957 17.7071 9.70711C17.5196 9.89464 17.2652 10 17 10Z" fill="currentColor"/>
  </symbol>
  <symbol id="ic_health_report" viewBox="0 0 24 24">
    <path d="M17 2H7C6.20435 2 5.44129 2.31607 4.87868 2.87868C4.31607 3.44129 4 4.20435 4 5V19C4 19.7956 4.31607 20.5587 4.87868 21.1213C5.44129 21.6839 6.20435 22 7 22H17C17.7956 22 18.5587 21.6839 19.1213 21.1213C19.6839 20.5587 20 19.7956 20 19V5C20 4.20435 19.6839 3.44129 19.1213 2.87868C18.5587 2.31607 17.7956 2 17 2ZM7 7H8V6C8 5.73478 8.10536 5.48043 8.29289 5.29289C8.48043 5.10536 8.73478 5 9 5C9.26522 5 9.51957 5.10536 9.70711 5.29289C9.89464 5.48043 10 5.73478 10 6V7H11C11.2652 7 11.5196 7.10536 11.7071 7.29289C11.8946 7.48043 12 7.73478 12 8C12 8.26522 11.8946 8.51957 11.7071 8.70711C11.5196 8.89464 11.2652 9 11 9H10V10C10 10.2652 9.89464 10.5196 9.70711 10.7071C9.51957 10.8946 9.26522 11 9 11C8.73478 11 8.48043 10.8946 8.29289 10.7071C8.10536 10.5196 8 10.2652 8 10V9H7C6.73478 9 6.48043 8.89464 6.29289 8.70711C6.10536 8.51957 6 8.26522 6 8C6 7.73478 6.10536 7.48043 6.29289 7.29289C6.48043 7.10536 6.73478 7 7 7ZM17 19H7C6.73478 19 6.48043 18.8946 6.29289 18.7071C6.10536 18.5196 6 18.2652 6 18C6 17.7348 6.10536 17.4804 6.29289 17.2929C6.48043 17.1054 6.73478 17 7 17H17C17.2652 17 17.5196 17.1054 17.7071 17.2929C17.8946 17.4804 18 17.7348 18 18C18 18.2652 17.8946 18.5196 17.7071 18.7071C17.5196 18.8946 17.2652 19 17 19ZM17 15H7C6.73478 15 6.48043 14.8946 6.29289 14.7071C6.10536 14.5196 6 14.2652 6 14C6 13.7348 6.10536 13.4804 6.29289 13.2929C6.48043 13.1054 6.73478 13 7 13H17C17.2652 13 17.5196 13.1054 17.7071 13.2929C17.8946 13.4804 18 13.7348 18 14C18 14.2652 17.8946 14.5196 17.7071 14.7071C17.5196 14.8946 17.2652 15 17 15ZM17 11H14C13.7348 11 13.4804 10.8946 13.2929 10.7071C13.1054 10.5196 13 10.2652 13 10C13 9.73478 13.1054 9.48043 13.2929 9.29289C13.4804 9.10536 13.7348 9 14 9H17C17.2652 9 17.5196 9.10536 17.7071 9.29289C17.8946 9.48043 18 9.73478 18 10C18 10.2652 17.8946 10.5196 17.7071 10.7071C17.5196 10.8946 17.2652 11 17 11ZM17 7H14C13.7348 7 13.4804 6.89464 13.2929 6.70711C13.1054 6.51957 13 6.26522 13 6C13 5.73478 13.1054 5.48043 13.2929 5.29289C13.4804 5.10536 13.7348 5 14 5H17C17.2652 5 17.5196 5.10536 17.7071 5.29289C17.8946 5.48043 18 5.73478 18 6C18 6.26522 17.8946 6.51957 17.7071 6.70711C17.5196 6.89464 17.2652 7 17 7Z" fill="currentColor"/>
  </symbol>
</svg>
