<!-- JioGames DLS — heat icons (1 icons) -->
<svg xmlns="http://www.w3.org/2000/svg" style="display:none">
  <symbol id="ic_heat_sensor" viewBox="0 0 24 24">
    <path d="M18.91 4.87C18.85 4.75 18.77 4.64 18.67 4.55C16.84 2.91 14.46 2 12 2C9.54002 2 7.16002 2.91 5.33002 4.55C5.13002 4.73 5.01002 4.98 5.00002 5.24C4.99002 5.51 5.08002 5.77 5.26002 5.96C5.44002 6.16 5.69002 6.28 5.95002 6.29C6.22002 6.3 6.48002 6.21 6.67002 6.03C8.14002 4.72 10.03 4 12 4C13.97 4 15.86 4.72 17.33 6.03C17.51 6.19 17.75 6.28 18 6.28C18.14 6.28 18.27 6.26 18.4 6.21C18.53 6.16 18.64 6.08 18.74 5.98C18.83 5.88 18.9 5.77 18.95 5.64C19 5.51 19.02 5.38 19.01 5.24C19.01 5.11 18.97 4.97 18.91 4.85V4.87Z" fill="currentColor"/>
<path d="M11.99 5.02002C10.69 5.02002 9.41998 5.44002 8.37998 6.23002C8.27998 6.31002 8.18998 6.41002 8.11998 6.52002C8.04998 6.63002 8.00998 6.76002 7.98998 6.89002C7.96998 7.02002 7.98998 7.15002 8.01998 7.28002C8.04998 7.41002 8.10998 7.53002 8.18998 7.63002C8.34998 7.84002 8.58998 7.98002 8.84998 8.01002C8.97998 8.03002 9.10998 8.01002 9.23998 7.98002C9.36998 7.95002 9.48998 7.89002 9.58998 7.81002C10.28 7.30002 11.12 7.02002 11.98 7.02002C12.84 7.02002 13.68 7.30002 14.37 7.81002C14.58 7.97002 14.85 8.04002 15.11 8.01002C15.37 7.98002 15.61 7.84002 15.77 7.63002C15.93 7.42002 16 7.15002 15.97 6.89002C15.94 6.63002 15.8 6.39002 15.59 6.23002C14.55 5.45002 13.28 5.02002 11.98 5.02002H11.99Z" fill="currentColor"/>
<path d="M14 14.55V10C14 8.9 13.1 8 12 8C10.9 8 10 8.9 10 10V14.55C8.81 15.24 8 16.52 8 18C8 20.21 9.79 22 12 22C14.21 22 16 20.21 16 18C16 16.52 15.19 15.25 14 14.55ZM12 20C10.9 20 10 19.1 10 18C10 17.07 10.64 16.29 11.5 16.07V10.5C11.5 10.22 11.72 10 12 10C12.28 10 12.5 10.22 12.5 10.5V16.07C13.36 16.29 14 17.07 14 18C14 19.1 13.1 20 12 20Z" fill="currentColor"/>
  </symbol>
</svg>
