<!-- JioGames DLS — heavy icons (4 icons) -->
<svg xmlns="http://www.w3.org/2000/svg" style="display:none">
  <symbol id="ic_heavy_rain" viewBox="0 0 24 24">
    <path d="M21 6C20.25 6 19.92 5.7 19.41 5.25C18.82 4.72 18 4 16.5 4C15 4 14.18 4.72 13.59 5.25C13.08 5.7 12.75 6 12 6C11.25 6 10.92 5.7 10.41 5.25C9.82 4.72 9 4 7.5 4C6 4 5.18 4.72 4.59 5.25C4.08 5.7 3.75 6 3 6C2.45 6 2 6.45 2 7C2 7.55 2.45 8 3 8C4.5 8 5.32 7.28 5.91 6.75C6.42 6.3 6.75 6 7.5 6C8.25 6 8.58 6.3 9.09 6.75C9.68 7.28 10.5 8 12 8C13.5 8 14.32 7.28 14.91 6.75C15.42 6.3 15.75 6 16.5 6C17.25 6 17.58 6.3 18.09 6.75C18.68 7.28 19.5 8 21 8C21.55 8 22 7.55 22 7C22 6.45 21.55 6 21 6ZM15.32 9.05C14.79 8.88 14.23 9.16 14.06 9.68L11.06 18.68C10.89 19.2 11.17 19.77 11.69 19.94C11.8 19.98 11.9 19.99 12.01 19.99C12.43 19.99 12.82 19.73 12.96 19.31L15.96 10.31C16.13 9.79 15.85 9.22 15.33 9.05H15.32ZM19.32 9.05C18.79 8.88 18.23 9.16 18.06 9.68L15.06 18.68C14.89 19.2 15.17 19.77 15.69 19.94C15.8 19.98 15.9 19.99 16.01 19.99C16.43 19.99 16.82 19.73 16.96 19.31L19.96 10.31C20.13 9.79 19.85 9.22 19.33 9.05H19.32ZM11.32 9.05C10.79 8.88 10.23 9.16 10.06 9.68L7.06 18.68C6.89 19.2 7.17 19.77 7.69 19.94C7.8 19.98 7.9 19.99 8.01 19.99C8.43 19.99 8.82 19.73 8.96 19.31L11.96 10.31C12.13 9.79 11.85 9.22 11.33 9.05H11.32ZM7.32 9.05C6.79 8.88 6.23 9.16 6.06 9.68L3.06 18.68C2.89 19.2 3.17 19.77 3.69 19.94C3.8 19.98 3.9 19.99 4.01 19.99C4.43 19.99 4.82 19.73 4.96 19.31L7.96 10.31C8.13 9.79 7.85 9.22 7.33 9.05H7.32Z" fill="currentColor"/>
  </symbol>
  <symbol id="ic_heavy_snow" viewBox="0 0 24 24">
    <path d="M9.69008 13.8799C9.38008 13.4199 8.76008 13.2999 8.30008 13.5999L7.50008 14.1299V13.1699C7.50008 12.6199 7.05008 12.1699 6.50008 12.1699C5.95008 12.1699 5.50008 12.6199 5.50008 13.1699V14.1299L4.70008 13.5999C4.24008 13.2899 3.62008 13.4199 3.31008 13.8799C3.00008 14.3399 3.13008 14.9599 3.59008 15.2699L4.70008 16.0099L3.59008 16.7499C3.13008 17.0599 3.01008 17.6799 3.31008 18.1399C3.50008 18.4299 3.82008 18.5899 4.14008 18.5899C4.33008 18.5899 4.52008 18.5399 4.69008 18.4199L5.49008 17.8899V18.8499C5.49008 19.3999 5.94008 19.8499 6.49008 19.8499C7.04008 19.8499 7.49008 19.3999 7.49008 18.8499V17.8899L8.29008 18.4199C8.46008 18.5299 8.65008 18.5899 8.84008 18.5899C9.16008 18.5899 9.48008 18.4299 9.67008 18.1399C9.98008 17.6799 9.85008 17.0599 9.39008 16.7499L8.28008 16.0099L9.39008 15.2699C9.85008 14.9599 9.97008 14.3399 9.67008 13.8799H9.69008ZM19.3101 15.9999L20.4201 15.2599C20.8801 14.9499 21.0001 14.3299 20.7001 13.8699C20.3901 13.4099 19.7701 13.2899 19.3101 13.5899L18.5101 14.1199V13.1599C18.5101 12.6099 18.0601 12.1599 17.5101 12.1599C16.9601 12.1599 16.5101 12.6099 16.5101 13.1599V14.1199L15.7101 13.5899C15.2501 13.2799 14.6301 13.4099 14.3201 13.8699C14.0101 14.3299 14.1401 14.9499 14.6001 15.2599L15.7101 15.9999L14.6001 16.7399C14.1401 17.0499 14.0201 17.6699 14.3201 18.1299C14.5101 18.4199 14.8301 18.5799 15.1501 18.5799C15.3401 18.5799 15.5301 18.5299 15.7001 18.4099L16.5001 17.8799V18.8399C16.5001 19.3899 16.9501 19.8399 17.5001 19.8399C18.0501 19.8399 18.5001 19.3899 18.5001 18.8399V17.8799L19.3001 18.4099C19.4701 18.5199 19.6601 18.5799 19.8501 18.5799C20.1701 18.5799 20.4901 18.4199 20.6801 18.1299C20.9901 17.6699 20.8601 17.0499 20.4001 16.7399L19.2901 15.9999H19.3101ZM15.1901 9.1199C15.5001 8.6599 15.3701 8.0399 14.9101 7.7299L13.8001 6.9899L14.9101 6.2499C15.3701 5.9399 15.4901 5.3199 15.1901 4.8599C14.8801 4.3999 14.2601 4.2799 13.8001 4.5799L13.0001 5.1099V4.1499C13.0001 3.5999 12.5501 3.1499 12.0001 3.1499C11.4501 3.1499 11.0001 3.5999 11.0001 4.1499V5.1099L10.2001 4.5799C9.74008 4.2699 9.12008 4.3999 8.81008 4.8599C8.50008 5.3199 8.63008 5.9399 9.09008 6.2499L10.2001 6.9899L9.09008 7.7299C8.63008 8.0399 8.51008 8.6599 8.81008 9.1199C9.00008 9.4099 9.32008 9.5699 9.64008 9.5699C9.83008 9.5699 10.0201 9.5199 10.1901 9.3999L10.9901 8.8699V9.8299C10.9901 10.3799 11.4401 10.8299 11.9901 10.8299C12.5401 10.8299 12.9901 10.3799 12.9901 9.8299V8.8699L13.7901 9.3999C13.9601 9.5099 14.1501 9.5699 14.3401 9.5699C14.6601 9.5699 14.9801 9.4099 15.1701 9.1199H15.1901Z" fill="currentColor"/>
  </symbol>
  <symbol id="ic_heavy_stoms_snow" viewBox="0 0 24 24">
    <path d="M16.1702 11C16.0602 10.69 16.0002 10.35 16.0002 10C16.0002 8.35 17.3502 7 19.0002 7C19.1602 7 19.3102 7.03 19.4702 7.05C19.4802 6.95 19.5002 6.85 19.5002 6.75C19.5002 4.13 17.3702 2 14.7502 2C13.1102 2 11.6702 2.83 10.8202 4.09C10.5602 4.03 10.2802 4 10.0002 4C8.13018 4 6.58018 5.28 6.14018 7.01C6.09018 7.01 6.05018 7 6.00018 7C4.34018 7 3.00018 8.34 3.00018 10C3.00018 11.66 4.34018 13 6.00018 13H10.1802C10.5902 11.84 11.6902 11 13.0002 11H16.1702ZM19.0002 9C18.4502 9 18.0002 9.45 18.0002 10C18.0002 10.55 18.4502 11 19.0002 11C19.5502 11 20.0002 11.45 20.0002 12C20.0002 12.55 19.5502 13 19.0002 13H13.0002C12.4502 13 12.0002 13.45 12.0002 14C12.0002 14.55 12.4502 15 13.0002 15H19.0002C20.6502 15 22.0002 13.65 22.0002 12C22.0002 10.35 20.6502 9 19.0002 9ZM20.0002 16H17.0002C16.4502 16 16.0002 16.45 16.0002 17C16.0002 17.55 16.4502 18 17.0002 18H20.0002C20.5502 18 21.0002 17.55 21.0002 17C21.0002 16.45 20.5502 16 20.0002 16ZM9.54018 16.05C9.23018 15.59 8.61018 15.47 8.15018 15.77L7.35018 16.3V15.34C7.35018 14.79 6.90018 14.34 6.35018 14.34C5.80018 14.34 5.35018 14.79 5.35018 15.34V16.3L4.55018 15.77C4.09018 15.46 3.47018 15.59 3.16018 16.05C2.85018 16.51 2.98018 17.13 3.44018 17.44L4.55018 18.18L3.44018 18.92C2.98018 19.23 2.86018 19.85 3.16018 20.31C3.35018 20.6 3.67018 20.76 3.99018 20.76C4.18018 20.76 4.37018 20.71 4.54018 20.59L5.34018 20.06V21.02C5.34018 21.57 5.79018 22.02 6.34018 22.02C6.89018 22.02 7.34018 21.57 7.34018 21.02V20.06L8.14018 20.59C8.31018 20.7 8.50017 20.76 8.69018 20.76C9.01018 20.76 9.33018 20.6 9.52018 20.31C9.83018 19.85 9.70018 19.23 9.24018 18.92L8.13018 18.18L9.24018 17.44C9.70018 17.13 9.82018 16.51 9.52018 16.05H9.54018ZM14.7102 16.3C14.3202 15.91 13.6902 15.91 13.3002 16.3L13.0102 16.59L12.7202 16.3C12.3302 15.91 11.7002 15.91 11.3102 16.3C10.9202 16.69 10.9202 17.32 11.3102 17.71L11.6002 18L11.3102 18.29C10.9202 18.68 10.9202 19.31 11.3102 19.7C11.5102 19.9 11.7602 19.99 12.0202 19.99C12.2802 19.99 12.5302 19.89 12.7302 19.7L13.0202 19.41L13.3102 19.7C13.5102 19.9 13.7602 19.99 14.0202 19.99C14.2802 19.99 14.5302 19.89 14.7302 19.7C15.1202 19.31 15.1202 18.68 14.7302 18.29L14.4402 18L14.7302 17.71C15.1202 17.32 15.1202 16.69 14.7302 16.3H14.7102Z" fill="currentColor"/>
  </symbol>
  <symbol id="ic_heavy_storms_rain" viewBox="0 0 24 24">
    <path d="M7.6 15.2C7.16 14.87 6.53 14.96 6.2 15.4L3.2 19.4C2.87 19.84 2.96 20.47 3.4 20.8C3.58 20.93 3.79 21 4 21C4.3 21 4.6 20.86 4.8 20.6L7.8 16.6C8.13 16.16 8.04 15.53 7.6 15.2ZM10.2 15.4L7.2 19.4C6.87 19.84 6.96 20.47 7.4 20.8C7.58 20.93 7.79 21 8 21C8.3 21 8.6 20.86 8.8 20.6L11.8 16.6C12.13 16.16 12.04 15.53 11.6 15.2C11.16 14.87 10.53 14.96 10.2 15.4ZM6 13H10C10 10.24 12.24 8 15 8C16.65 8 18 9.35 18 11C18 11.35 17.94 11.69 17.83 12H20.22C20.7 11.47 21 10.77 21 10C21 8.87 20.36 7.89 19.44 7.38C19.47 7.17 19.5 6.96 19.5 6.75C19.5 4.13 17.37 2 14.75 2C13.11 2 11.67 2.83 10.82 4.09C10.56 4.03 10.28 4 10 4C8.13 4 6.58 5.28 6.14 7.01C6.09 7.01 6.05 7 6 7C4.34 7 3 8.34 3 10C3 11.66 4.34 13 6 13ZM21 14H15C14.45 14 14 13.55 14 13C14 12.45 14.45 12 15 12C15.55 12 16 11.55 16 11C16 10.45 15.55 10 15 10C13.35 10 12 11.35 12 13C12 14.65 13.35 16 15 16H21C21.55 16 22 15.55 22 15C22 14.45 21.55 14 21 14ZM19 17H14C13.45 17 13 17.45 13 18C13 18.55 13.45 19 14 19H19C19.55 19 20 18.55 20 18C20 17.45 19.55 17 19 17Z" fill="currentColor"/>
  </symbol>
</svg>
