<!-- JioGames DLS — hevron icons (8 icons) -->
<svg xmlns="http://www.w3.org/2000/svg" style="display:none">
  <symbol id="ic_chevron_down" viewBox="0 0 24 24">
    <path d="M12.0002 15.0002C11.8686 15.0009 11.7381 14.9757 11.6163 14.926C11.4944 14.8762 11.3836 14.8029 11.2902 14.7102L7.29019 10.7102C7.10188 10.5219 6.99609 10.2665 6.99609 10.0002C6.99609 9.73388 7.10188 9.47849 7.29019 9.29018C7.47849 9.10188 7.73388 8.99609 8.00019 8.99609C8.26649 8.99609 8.52188 9.10188 8.71019 9.29018L12.0002 12.5902L15.2902 9.29018C15.4785 9.10188 15.7339 8.99609 16.0002 8.99609C16.2665 8.99609 16.5219 9.10188 16.7102 9.29018C16.8985 9.47849 17.0043 9.73388 17.0043 10.0002C17.0043 10.2665 16.8985 10.5219 16.7102 10.7102L12.7102 14.7102C12.6167 14.8029 12.5059 14.8762 12.3841 14.926C12.2623 14.9757 12.1318 15.0009 12.0002 15.0002Z" fill="currentColor"/>
  </symbol>
  <symbol id="ic_chevron_down_circle" viewBox="0 0 24 24">
    <path d="M12 2C10.0222 2 8.08879 2.58649 6.4443 3.6853C4.79981 4.78412 3.51809 6.3459 2.76121 8.17317C2.00433 10.0004 1.8063 12.0111 2.19215 13.9509C2.578 15.8907 3.53041 17.6725 4.92894 19.0711C6.32746 20.4696 8.10929 21.422 10.0491 21.8079C11.9889 22.1937 13.9996 21.9957 15.8268 21.2388C17.6541 20.4819 19.2159 19.2002 20.3147 17.5557C21.4135 15.9112 22 13.9778 22 12C22 10.6868 21.7413 9.38642 21.2388 8.17317C20.7363 6.95991 19.9997 5.85752 19.0711 4.92893C18.1425 4.00035 17.0401 3.26375 15.8268 2.7612C14.6136 2.25866 13.3132 2 12 2ZM16.71 11.21L12.71 15.21C12.617 15.3037 12.5064 15.3781 12.3846 15.4289C12.2627 15.4797 12.132 15.5058 12 15.5058C11.868 15.5058 11.7373 15.4797 11.6154 15.4289C11.4936 15.3781 11.383 15.3037 11.29 15.21L7.29 11.21C7.19677 11.1168 7.12281 11.0061 7.07234 10.8842C7.02188 10.7624 6.99591 10.6319 6.99591 10.5C6.99591 10.3681 7.02188 10.2376 7.07234 10.1158C7.12281 9.99393 7.19677 9.88324 7.29 9.79C7.38324 9.69676 7.49393 9.6228 7.61576 9.57234C7.73758 9.52188 7.86814 9.49591 8 9.49591C8.13186 9.49591 8.26243 9.52188 8.38425 9.57234C8.50608 9.6228 8.61677 9.69676 8.71 9.79L12 13.09L15.29 9.79C15.4783 9.6017 15.7337 9.49591 16 9.49591C16.2663 9.49591 16.5217 9.6017 16.71 9.79C16.8983 9.9783 17.0041 10.2337 17.0041 10.5C17.0041 10.7663 16.8983 11.0217 16.71 11.21Z" fill="currentColor"/>
  </symbol>
  <symbol id="ic_chevron_left" viewBox="0 0 24 24">
    <path d="M13.9999 17.0002C13.8683 17.0009 13.7379 16.9757 13.616 16.926C13.4942 16.8762 13.3834 16.8029 13.2899 16.7102L9.28994 12.7102C9.19621 12.6172 9.12182 12.5066 9.07105 12.3848C9.02028 12.2629 8.99414 12.1322 8.99414 12.0002C8.99414 11.8682 9.02028 11.7375 9.07105 11.6156C9.12182 11.4937 9.19621 11.3831 9.28994 11.2902L13.2899 7.29019C13.3832 7.19695 13.4939 7.12299 13.6157 7.07253C13.7375 7.02207 13.8681 6.99609 13.9999 6.99609C14.1318 6.99609 14.2624 7.02207 14.3842 7.07253C14.506 7.12299 14.6167 7.19695 14.7099 7.29019C14.8032 7.38342 14.8771 7.49411 14.9276 7.61594C14.9781 7.73776 15.004 7.86833 15.004 8.00019C15.004 8.13204 14.9781 8.26261 14.9276 8.38444C14.8771 8.50626 14.8032 8.61695 14.7099 8.71019L11.4099 12.0002L14.7099 15.2902C14.8037 15.3831 14.8781 15.4937 14.9288 15.6156C14.9796 15.7375 15.0057 15.8682 15.0057 16.0002C15.0057 16.1322 14.9796 16.2629 14.9288 16.3848C14.8781 16.5066 14.8037 16.6172 14.7099 16.7102C14.6165 16.8029 14.5057 16.8762 14.3838 16.926C14.262 16.9757 14.1315 17.0009 13.9999 17.0002Z" fill="currentColor"/>
  </symbol>
  <symbol id="ic_chevron_left_circle" viewBox="0 0 24 24">
    <path d="M12 2C10.0222 2 8.08879 2.58649 6.4443 3.6853C4.79981 4.78412 3.51809 6.3459 2.76121 8.17317C2.00433 10.0004 1.8063 12.0111 2.19215 13.9509C2.578 15.8907 3.53041 17.6725 4.92894 19.0711C6.32746 20.4696 8.10929 21.422 10.0491 21.8079C11.9889 22.1937 13.9996 21.9957 15.8268 21.2388C17.6541 20.4819 19.2159 19.2002 20.3147 17.5557C21.4135 15.9112 22 13.9778 22 12C22 10.6868 21.7413 9.38642 21.2388 8.17317C20.7363 6.95991 19.9997 5.85752 19.0711 4.92893C18.1425 4.00035 17.0401 3.26375 15.8268 2.7612C14.6136 2.25866 13.3132 2 12 2ZM14.21 15.29C14.3037 15.383 14.3781 15.4936 14.4289 15.6154C14.4797 15.7373 14.5058 15.868 14.5058 16C14.5058 16.132 14.4797 16.2627 14.4289 16.3846C14.3781 16.5064 14.3037 16.617 14.21 16.71C14.117 16.8037 14.0064 16.8781 13.8846 16.9289C13.7627 16.9797 13.632 17.0058 13.5 17.0058C13.368 17.0058 13.2373 16.9797 13.1154 16.9289C12.9936 16.8781 12.883 16.8037 12.79 16.71L8.79 12.71C8.69628 12.617 8.62188 12.5064 8.57111 12.3846C8.52034 12.2627 8.49421 12.132 8.49421 12C8.49421 11.868 8.52034 11.7373 8.57111 11.6154C8.62188 11.4936 8.69628 11.383 8.79 11.29L12.79 7.29C12.8832 7.19676 12.9939 7.1228 13.1158 7.07234C13.2376 7.02188 13.3681 6.99591 13.5 6.99591C13.6319 6.99591 13.7624 7.02188 13.8843 7.07234C14.0061 7.1228 14.1168 7.19676 14.21 7.29C14.3032 7.38324 14.3772 7.49393 14.4277 7.61575C14.4781 7.73757 14.5041 7.86814 14.5041 8C14.5041 8.13186 14.4781 8.26243 14.4277 8.38425C14.3772 8.50607 14.3032 8.61676 14.21 8.71L10.91 12L14.21 15.29Z" fill="currentColor"/>
  </symbol>
  <symbol id="ic_chevron_right" viewBox="0 0 24 24">
    <path d="M9.99994 17.0002C9.86833 17.0009 9.73787 16.9757 9.61603 16.926C9.4942 16.8762 9.38338 16.8029 9.28994 16.7102C9.19621 16.6172 9.12182 16.5066 9.07105 16.3848C9.02028 16.2629 8.99414 16.1322 8.99414 16.0002C8.99414 15.8682 9.02028 15.7375 9.07105 15.6156C9.12182 15.4937 9.19621 15.3831 9.28994 15.2902L12.5899 12.0002L9.28994 8.71019C9.10164 8.52188 8.99585 8.26649 8.99585 8.00019C8.99585 7.86833 9.02182 7.73776 9.07228 7.61594C9.12274 7.49411 9.1967 7.38342 9.28994 7.29019C9.38318 7.19695 9.49387 7.12299 9.61569 7.07253C9.73751 7.02207 9.86808 6.99609 9.99994 6.99609C10.2662 6.99609 10.5216 7.10188 10.7099 7.29019L14.7099 11.2902C14.8037 11.3831 14.8781 11.4937 14.9288 11.6156C14.9796 11.7375 15.0057 11.8682 15.0057 12.0002C15.0057 12.1322 14.9796 12.2629 14.9288 12.3848C14.8781 12.5066 14.8037 12.6172 14.7099 12.7102L10.7099 16.7102C10.6165 16.8029 10.5057 16.8762 10.3838 16.926C10.262 16.9757 10.1315 17.0009 9.99994 17.0002Z" fill="currentColor"/>
  </symbol>
  <symbol id="ic_chevron_right_circle" viewBox="0 0 24 24">
    <path d="M12 2C10.0222 2 8.08879 2.58649 6.4443 3.6853C4.79981 4.78412 3.51809 6.3459 2.76121 8.17317C2.00433 10.0004 1.8063 12.0111 2.19215 13.9509C2.578 15.8907 3.53041 17.6725 4.92894 19.0711C6.32746 20.4696 8.10929 21.422 10.0491 21.8079C11.9889 22.1937 13.9996 21.9957 15.8268 21.2388C17.6541 20.4819 19.2159 19.2002 20.3147 17.5557C21.4135 15.9112 22 13.9778 22 12C22 10.6868 21.7413 9.38642 21.2388 8.17317C20.7363 6.95991 19.9997 5.85752 19.0711 4.92893C18.1425 4.00035 17.0401 3.26375 15.8268 2.7612C14.6136 2.25866 13.3132 2 12 2ZM15.21 12.71L11.21 16.71C11.117 16.8037 11.0064 16.8781 10.8846 16.9289C10.7627 16.9797 10.632 17.0058 10.5 17.0058C10.368 17.0058 10.2373 16.9797 10.1154 16.9289C9.99357 16.8781 9.88297 16.8037 9.79 16.71C9.69628 16.617 9.62188 16.5064 9.57111 16.3846C9.52034 16.2627 9.49421 16.132 9.49421 16C9.49421 15.868 9.52034 15.7373 9.57111 15.6154C9.62188 15.4936 9.69628 15.383 9.79 15.29L13.09 12L9.79 8.71C9.69677 8.61676 9.6228 8.50607 9.57234 8.38425C9.52188 8.26243 9.49591 8.13186 9.49591 8C9.49591 7.86814 9.52188 7.73757 9.57234 7.61575C9.6228 7.49393 9.69677 7.38324 9.79 7.29C9.88324 7.19676 9.99393 7.1228 10.1158 7.07234C10.2376 7.02188 10.3681 6.99591 10.5 6.99591C10.6319 6.99591 10.7624 7.02188 10.8843 7.07234C11.0061 7.1228 11.1168 7.19676 11.21 7.29L15.21 11.29C15.3037 11.383 15.3781 11.4936 15.4289 11.6154C15.4797 11.7373 15.5058 11.868 15.5058 12C15.5058 12.132 15.4797 12.2627 15.4289 12.3846C15.3781 12.5064 15.3037 12.617 15.21 12.71Z" fill="currentColor"/>
  </symbol>
  <symbol id="ic_chevron_up" viewBox="0 0 24 24">
    <path d="M16.0002 14.9999C15.8686 15.0007 15.7381 14.9755 15.6163 14.9257C15.4944 14.8759 15.3836 14.8026 15.2902 14.7099L12.0002 11.4099L8.71019 14.7099C8.52188 14.8982 8.26649 15.004 8.00019 15.004C7.73388 15.004 7.47849 14.8982 7.29019 14.7099C7.10188 14.5216 6.99609 14.2662 6.99609 13.9999C6.99609 13.8681 7.02207 13.7375 7.07253 13.6157C7.12299 13.4939 7.19695 13.3832 7.29019 13.2899L11.2902 9.28994C11.3831 9.19621 11.4937 9.12182 11.6156 9.07105C11.7375 9.02028 11.8682 8.99414 12.0002 8.99414C12.1322 8.99414 12.2629 9.02028 12.3848 9.07105C12.5066 9.12182 12.6172 9.19621 12.7102 9.28994L16.7102 13.2899C16.8039 13.3829 16.8783 13.4935 16.9291 13.6154C16.9798 13.7372 17.006 13.8679 17.006 13.9999C17.006 14.132 16.9798 14.2627 16.9291 14.3845C16.8783 14.5064 16.8039 14.617 16.7102 14.7099C16.6167 14.8026 16.5059 14.8759 16.3841 14.9257C16.2623 14.9755 16.1318 15.0007 16.0002 14.9999Z" fill="currentColor"/>
  </symbol>
  <symbol id="ic_chevron_up_circle" viewBox="0 0 24 24">
    <path d="M12 2C10.0222 2 8.08879 2.58649 6.4443 3.6853C4.79981 4.78412 3.51809 6.3459 2.76121 8.17317C2.00433 10.0004 1.8063 12.0111 2.19215 13.9509C2.578 15.8907 3.53041 17.6725 4.92894 19.0711C6.32746 20.4696 8.10929 21.422 10.0491 21.8079C11.9889 22.1937 13.9996 21.9957 15.8268 21.2388C17.6541 20.4819 19.2159 19.2002 20.3147 17.5557C21.4135 15.9112 22 13.9778 22 12C22 10.6868 21.7413 9.38642 21.2388 8.17317C20.7363 6.95991 19.9997 5.85752 19.0711 4.92893C18.1425 4.00035 17.0401 3.26375 15.8268 2.7612C14.6136 2.25866 13.3132 2 12 2ZM16.71 14.21C16.617 14.3037 16.5064 14.3781 16.3846 14.4289C16.2627 14.4797 16.132 14.5058 16 14.5058C15.868 14.5058 15.7373 14.4797 15.6154 14.4289C15.4936 14.3781 15.383 14.3037 15.29 14.21L12 10.91L8.71 14.21C8.61677 14.3032 8.50608 14.3772 8.38425 14.4277C8.26243 14.4781 8.13186 14.5041 8 14.5041C7.86814 14.5041 7.73758 14.4781 7.61576 14.4277C7.49393 14.3772 7.38324 14.3032 7.29 14.21C7.19677 14.1168 7.12281 14.0061 7.07234 13.8842C7.02188 13.7624 6.99591 13.6319 6.99591 13.5C6.99591 13.3681 7.02188 13.2376 7.07234 13.1158C7.12281 12.9939 7.19677 12.8832 7.29 12.79L11.29 8.79C11.383 8.69627 11.4936 8.62188 11.6154 8.57111C11.7373 8.52034 11.868 8.4942 12 8.4942C12.132 8.4942 12.2627 8.52034 12.3846 8.57111C12.5064 8.62188 12.617 8.69627 12.71 8.79L16.71 12.79C16.8037 12.883 16.8781 12.9936 16.9289 13.1154C16.9797 13.2373 17.0058 13.368 17.0058 13.5C17.0058 13.632 16.9797 13.7627 16.9289 13.8846C16.8781 14.0064 16.8037 14.117 16.71 14.21Z" fill="currentColor"/>
  </symbol>
</svg>
