<!-- JioGames DLS — high icons (2 icons) -->
<svg xmlns="http://www.w3.org/2000/svg" style="display:none">
  <symbol id="ic_high_speed" viewBox="0 0 24 24">
    <path d="M21.93 12.8298C21.6842 10.5941 20.6919 8.50642 19.1132 6.90421C17.5346 5.30199 15.4619 4.27877 13.23 3.99983C11.7517 3.82013 10.2519 3.97287 8.84013 4.44692C7.42838 4.92096 6.14033 5.70434 5.07003 6.73983C3.99347 7.77196 3.16295 9.03311 2.64003 10.4298C2.11496 11.8219 1.90713 13.3136 2.03169 14.7962C2.15625 16.2788 2.61006 17.7149 3.36003 18.9998C3.53982 19.2993 3.79052 19.55 4.09003 19.7298C4.39387 19.9061 4.73878 19.9992 5.09003 19.9998H18.92C19.271 19.9969 19.6153 19.904 19.92 19.7298C20.2194 19.5532 20.4675 19.3016 20.64 18.9998C21.7336 17.1397 22.1867 14.9722 21.93 12.8298ZM6.57003 16.5898C6.68338 16.8286 6.69757 17.1026 6.60949 17.3518C6.52142 17.6011 6.33825 17.8053 6.10003 17.9198C5.96594 17.9848 5.81903 18.019 5.67003 18.0198C5.48281 18.0204 5.29918 17.9685 5.14003 17.8698C4.97554 17.7694 4.84358 17.6235 4.76004 17.4498C4.25278 16.3708 3.99312 15.1921 4.00003 13.9998C4.00365 12.6506 4.34845 11.3242 5.00235 10.1441C5.65625 8.96391 6.59801 7.96829 7.74003 7.24983C8.87952 6.53211 10.1817 6.11365 11.526 6.03324C12.8703 5.95282 14.2131 6.21306 15.43 6.78983C15.559 6.84142 15.6776 6.91596 15.78 7.00983C15.8715 7.11035 15.9458 7.22521 16 7.34983C16.0483 7.48105 16.072 7.62003 16.07 7.75983C16.0617 7.89499 16.0277 8.02733 15.97 8.14983C15.9135 8.27777 15.8279 8.39076 15.72 8.47983C15.6186 8.56796 15.4992 8.63281 15.37 8.66983C15.2383 8.71485 15.0987 8.73188 14.96 8.71983C14.8231 8.70094 14.6909 8.65686 14.57 8.58983C13.4506 8.05498 12.1929 7.8803 10.97 8.08983C9.74883 8.29715 8.62299 8.88105 7.75003 9.75983C6.87096 10.6363 6.28539 11.7639 6.07405 12.9872C5.86271 14.2105 6.036 15.4692 6.57003 16.5898ZM13.4 16.0598C13.3208 16.2419 13.209 16.408 13.07 16.5498C12.9354 16.6974 12.7674 16.8106 12.58 16.8798C12.3972 16.9599 12.1996 17.0007 12 16.9998C11.6028 16.9973 11.2223 16.8394 10.94 16.5598C10.6591 16.2786 10.5014 15.8973 10.5014 15.4998C10.5014 15.1023 10.6591 14.7211 10.94 14.4398C11.2223 14.1603 11.6028 14.0023 12 13.9998H12.14L17.32 9.24983C17.419 9.16125 17.5345 9.09327 17.66 9.04983C17.782 8.99895 17.9129 8.97275 18.045 8.97275C18.1772 8.97275 18.3081 8.99895 18.43 9.04983C18.5493 9.10232 18.6552 9.18092 18.74 9.27983C18.8284 9.37704 18.8994 9.48865 18.95 9.60983C18.9861 9.73661 19.0029 9.86807 19 9.99983C18.9903 10.1305 18.9599 10.2587 18.91 10.3798C18.8507 10.5005 18.7693 10.609 18.67 10.6998L13.5 15.4798C13.5076 15.678 13.4735 15.8756 13.4 16.0598ZM19.22 17.4298C19.1392 17.6022 19.0108 17.7479 18.85 17.8498C18.688 17.9503 18.5007 18.0023 18.31 17.9998C18.1615 17.9954 18.0153 17.9614 17.88 17.8998C17.6412 17.7849 17.4578 17.5799 17.37 17.3298C17.2751 17.0854 17.2751 16.8143 17.37 16.5698C17.7729 15.7723 17.9884 14.8933 18 13.9998C18 13.7346 18.1054 13.4803 18.2929 13.2927C18.4805 13.1052 18.7348 12.9998 19 12.9998C19.1316 12.9991 19.2621 13.0243 19.3839 13.0741C19.5058 13.1238 19.6166 13.1972 19.71 13.2898C19.8027 13.3833 19.876 13.4941 19.9258 13.6159C19.9756 13.7378 20.0008 13.8682 20 13.9998C20.0085 15.1881 19.7415 16.3621 19.22 17.4298Z" fill="currentColor"/>
  </symbol>
  <symbol id="ic_high_temperature_off" viewBox="0 0 24 24">
    <path d="M21 11H19C18.7348 11 18.4804 11.1054 18.2929 11.2929C18.1054 11.4804 18 11.7348 18 12C18 12.2652 18.1054 12.5196 18.2929 12.7071C18.4804 12.8946 18.7348 13 19 13H21C21.2652 13 21.5196 12.8946 21.7071 12.7071C21.8946 12.5196 22 12.2652 22 12C22 11.7348 21.8946 11.4804 21.7071 11.2929C21.5196 11.1054 21.2652 11 21 11ZM12 6C12.2652 6 12.5196 5.89464 12.7071 5.70711C12.8946 5.51957 13 5.26522 13 5V3C13 2.73478 12.8946 2.48043 12.7071 2.29289C12.5196 2.10536 12.2652 2 12 2C11.7348 2 11.4804 2.10536 11.2929 2.29289C11.1054 2.48043 11 2.73478 11 3V5C11 5.26522 11.1054 5.51957 11.2929 5.70711C11.4804 5.89464 11.7348 6 12 6ZM17.66 7.76L19.07 6.34C19.1747 6.25035 19.2597 6.14004 19.3197 6.01597C19.3797 5.89191 19.4135 5.75677 19.4188 5.61905C19.4241 5.48133 19.4009 5.344 19.3506 5.21568C19.3004 5.08735 19.2241 4.9708 19.1266 4.87335C19.0292 4.77589 18.9126 4.69964 18.7843 4.64936C18.656 4.59909 18.5187 4.57588 18.3809 4.5812C18.2432 4.58652 18.1081 4.62025 17.984 4.68027C17.86 4.7403 17.7496 4.82532 17.66 4.93L16.24 6.34C16.1468 6.43324 16.0728 6.54393 16.0223 6.66575C15.9719 6.78757 15.9459 6.91814 15.9459 7.05C15.9459 7.18186 15.9719 7.31243 16.0223 7.43425C16.0728 7.55607 16.1468 7.66676 16.24 7.76C16.4283 7.9483 16.6837 8.05409 16.95 8.05409C17.0819 8.05409 17.2124 8.02812 17.3342 7.97766C17.4561 7.9272 17.5668 7.85324 17.66 7.76ZM6 12C6 11.7348 5.89464 11.4804 5.70711 11.2929C5.51957 11.1054 5.26522 11 5 11H3C2.73478 11 2.48043 11.1054 2.29289 11.2929C2.10536 11.4804 2 11.7348 2 12C2 12.2652 2.10536 12.5196 2.29289 12.7071C2.48043 12.8946 2.73478 13 3 13H5C5.26522 13 5.51957 12.8946 5.70711 12.7071C5.89464 12.5196 6 12.2652 6 12ZM11.31 7.07L16.93 12.69C16.9687 12.4618 16.992 12.2313 17 12C17 10.6739 16.4732 9.40215 15.5355 8.46447C14.5979 7.52678 13.3261 7 12 7C11.7687 7.00795 11.5382 7.03134 11.31 7.07ZM6.31 16.24L4.93 17.66C4.82532 17.7496 4.7403 17.86 4.68027 17.984C4.62025 18.1081 4.58652 18.2432 4.5812 18.3809C4.57588 18.5187 4.59909 18.656 4.64936 18.7843C4.69964 18.9126 4.77589 19.0292 4.87335 19.1266C4.9708 19.2241 5.08735 19.3004 5.21568 19.3506C5.344 19.4009 5.48133 19.4241 5.61905 19.4188C5.75677 19.4135 5.89191 19.3797 6.01597 19.3197C6.14004 19.2597 6.25035 19.1747 6.34 19.07L7.76 17.66C7.9483 17.4717 8.05409 17.2163 8.05409 16.95C8.05409 16.6837 7.9483 16.4283 7.76 16.24C7.5717 16.0517 7.3163 15.9459 7.05 15.9459C6.7837 15.9459 6.5283 16.0517 6.34 16.24H6.31ZM4.71 3.29C4.61676 3.19676 4.50607 3.1228 4.38425 3.07234C4.26243 3.02188 4.13186 2.99591 4 2.99591C3.86814 2.99591 3.73757 3.02188 3.61575 3.07234C3.49393 3.1228 3.38324 3.19676 3.29 3.29C3.1017 3.4783 2.99591 3.7337 2.99591 4C2.99591 4.2663 3.1017 4.5217 3.29 4.71L7.83 9.25C7.20272 10.211 6.92508 11.3584 7.04369 12.4999C7.16229 13.6413 7.66992 14.7072 8.48138 15.5186C9.29283 16.3301 10.3587 16.8377 11.5001 16.9563C12.6416 17.0749 13.789 16.7973 14.75 16.17L19.29 20.71C19.383 20.8037 19.4936 20.8781 19.6154 20.9289C19.7373 20.9797 19.868 21.0058 20 21.0058C20.132 21.0058 20.2627 20.9797 20.3846 20.9289C20.5064 20.8781 20.617 20.8037 20.71 20.71C20.8037 20.617 20.8781 20.5064 20.9289 20.3846C20.9797 20.2627 21.0058 20.132 21.0058 20C21.0058 19.868 20.9797 19.7373 20.9289 19.6154C20.8781 19.4936 20.8037 19.383 20.71 19.29L4.71 3.29ZM12 18C11.7348 18 11.4804 18.1054 11.2929 18.2929C11.1054 18.4804 11 18.7348 11 19V21C11 21.2652 11.1054 21.5196 11.2929 21.7071C11.4804 21.8946 11.7348 22 12 22C12.2652 22 12.5196 21.8946 12.7071 21.7071C12.8946 21.5196 13 21.2652 13 21V19C13 18.7348 12.8946 18.4804 12.7071 18.2929C12.5196 18.1054 12.2652 18 12 18Z" fill="currentColor"/>
  </symbol>
</svg>
