<!-- JioGames DLS — hockey icons (2 icons) -->
<svg xmlns="http://www.w3.org/2000/svg" style="display:none">
  <symbol id="ic_hockey" viewBox="0 0 24 24">
    <path d="M17.5 15C17.0056 15 16.5222 15.1466 16.1111 15.4213C15.7 15.696 15.3795 16.0864 15.1903 16.5432C15.0011 17.0001 14.9516 17.5027 15.0481 17.9877C15.1445 18.4726 15.3826 18.9181 15.7322 19.2677C16.0819 19.6174 16.5273 19.8555 17.0123 19.9519C17.4972 20.0484 17.9999 19.9989 18.4567 19.8097C18.9135 19.6204 19.304 19.3 19.5787 18.8889C19.8534 18.4778 20 17.9944 20 17.5C20 16.8369 19.7366 16.201 19.2678 15.7322C18.7989 15.2634 18.1631 15 17.5 15ZM19.25 5.79996C19.3584 5.63975 19.4341 5.45976 19.4729 5.27028C19.5116 5.08081 19.5127 4.88555 19.476 4.69565C19.4394 4.50576 19.3656 4.32494 19.2591 4.16354C19.1525 4.00213 19.0152 3.8633 18.855 3.75496C18.6948 3.64662 18.5148 3.57089 18.3253 3.53211C18.1359 3.49333 17.9406 3.49225 17.7507 3.52892C17.5608 3.5656 17.38 3.63933 17.2186 3.74588C17.0572 3.85244 16.9184 3.98975 16.81 4.14996L15.16 6.59996L17.6 8.24996L19.25 5.79996ZM14.05 8.23996L7.74001 17.61C7.59218 17.822 7.36797 17.9686 7.11441 18.0189C6.86085 18.0693 6.59765 18.0195 6.38001 17.88C6.16521 17.7319 6.01674 17.5058 5.9663 17.2499C5.91586 16.9939 5.96743 16.7284 6.11001 16.51L6.94001 15.29C7.12943 14.9652 7.18816 14.5805 7.10426 14.214C7.02037 13.8476 6.80015 13.5267 6.48831 13.3167C6.17647 13.1067 5.7964 13.0233 5.42526 13.0833C5.05412 13.1433 4.71974 13.3423 4.49001 13.64L3.67001 14.86C3.38045 15.2874 3.17791 15.7677 3.07397 16.2734C2.97003 16.7792 2.96671 17.3004 3.06421 17.8074C3.16171 18.3144 3.35812 18.7973 3.64223 19.2284C3.92633 19.6595 4.29256 20.0304 4.72001 20.32C5.14747 20.6095 5.62777 20.8121 6.13349 20.916C6.63922 21.0199 7.16047 21.0233 7.66748 20.9258C8.17449 20.8283 8.65732 20.6319 9.08843 20.3477C9.51953 20.0636 9.89045 19.6974 10.18 19.27L16.49 9.88996L14.05 8.23996Z" fill="currentColor"/>
  </symbol>
  <symbol id="ic_hockey_ice" viewBox="0 0 24 24">
    <path d="M4.5 14.0001H7.5C7.89782 14.0001 8.27936 13.842 8.56066 13.5607C8.84196 13.2794 9 12.8979 9 12.5001V11.5001C9 11.1023 8.84196 10.7207 8.56066 10.4394C8.27936 10.1581 7.89782 10.0001 7.5 10.0001H4.5C4.10218 10.0001 3.72064 10.1581 3.43934 10.4394C3.15804 10.7207 3 11.1023 3 11.5001V12.5001C3 12.8979 3.15804 13.2794 3.43934 13.5607C3.72064 13.842 4.10218 14.0001 4.5 14.0001ZM20.5 3.11008C20.2645 2.99051 19.9913 2.96894 19.74 3.05008C19.6152 3.09123 19.4998 3.15657 19.4002 3.24236C19.3007 3.32815 19.2191 3.43272 19.16 3.55008L12.88 16.0001H5C4.46957 16.0001 3.96086 16.2108 3.58579 16.5859C3.21071 16.9609 3 17.4696 3 18.0001V19.0001C3 19.5305 3.21071 20.0392 3.58579 20.4143C3.96086 20.7894 4.46957 21.0001 5 21.0001H10.76C11.3184 21.0012 11.8661 20.8464 12.3414 20.5531C12.8166 20.2598 13.2006 19.8397 13.45 19.3401L20.89 4.45008C20.9575 4.3369 21.002 4.21149 21.0209 4.08106C21.0397 3.95063 21.0326 3.81776 21 3.69008C20.9588 3.56529 20.8935 3.44984 20.8077 3.35032C20.7219 3.2508 20.6174 3.16917 20.5 3.11008Z" fill="currentColor"/>
  </symbol>
</svg>
