<!-- JioGames DLS — home icons (5 icons) -->
<svg xmlns="http://www.w3.org/2000/svg" style="display:none">
  <symbol id="ic_home" viewBox="0 0 24 24">
    <path d="M21.4701 9.31017L13.8501 2.70017C13.3389 2.25018 12.6812 2.00195 12.0001 2.00195C11.3191 2.00195 10.6614 2.25018 10.1501 2.70017L2.53013 9.31017C2.2976 9.5094 2.1302 9.77382 2.04958 10.0692C1.96897 10.3646 1.97884 10.6774 2.07793 10.9671C2.17702 11.2569 2.36077 11.5102 2.6054 11.6944C2.85003 11.8785 3.1443 11.9851 3.45013 12.0002H4.00013V19.0002C4.00013 19.7958 4.3162 20.5589 4.87881 21.1215C5.44142 21.6841 6.20448 22.0002 7.00013 22.0002H10.0001V16.0002H14.0001V22.0002H17.0001C17.7958 22.0002 18.5588 21.6841 19.1214 21.1215C19.6841 20.5589 20.0001 19.7958 20.0001 19.0002V12.0002H20.5501C20.856 11.9851 21.1502 11.8785 21.3949 11.6944C21.6395 11.5102 21.8232 11.2569 21.9223 10.9671C22.0214 10.6774 22.0313 10.3646 21.9507 10.0692C21.8701 9.77382 21.7027 9.5094 21.4701 9.31017Z" fill="currentColor"/>
  </symbol>
  <symbol id="ic_home_care" viewBox="0 0 24 24">
    <path d="M20.69 15.0599C20.5026 14.8737 20.2492 14.7691 19.985 14.7691C19.7208 14.7691 19.4674 14.8737 19.28 15.0599L17.11 17.3399C16.9229 17.5362 16.698 17.6923 16.4487 17.7989C16.1994 17.9055 15.9311 17.9603 15.66 17.9599H12C11.7348 17.9599 11.4804 17.8546 11.2929 17.667C11.1054 17.4795 11 17.2252 11 16.9599C11 16.6947 11.1054 16.4404 11.2929 16.2528C11.4804 16.0653 11.7348 15.9599 12 15.9599H13.66C13.9252 15.9599 14.1796 15.8546 14.3671 15.667C14.5546 15.4795 14.66 15.2252 14.66 14.9599C14.66 14.6947 14.5546 14.4404 14.3671 14.2528C14.1796 14.0653 13.9252 13.9599 13.66 13.9599H8C7.46957 13.9599 6.96086 14.1707 6.58579 14.5457C6.21071 14.9208 6 15.4295 6 15.9599H4C3.73478 15.9599 3.48043 16.0653 3.29289 16.2528C3.10536 16.4404 3 16.6947 3 16.9599V18.9599C3 19.2252 3.10536 19.4795 3.29289 19.667C3.48043 19.8546 3.73478 19.9599 4 19.9599H15.66C16.2005 19.9592 16.7353 19.849 17.232 19.6359C17.7287 19.4227 18.1771 19.1112 18.55 18.7199L20.72 16.4399C20.8933 16.2501 20.9869 16.0009 20.9813 15.7439C20.9757 15.487 20.8714 15.242 20.69 15.0599ZM14 8.99994V10.9999C14 11.2652 14.1054 11.5195 14.2929 11.707C14.4804 11.8946 14.7348 11.9999 15 11.9999H19C19.2652 11.9999 19.5196 11.8946 19.7071 11.707C19.8946 11.5195 20 11.2652 20 10.9999V8.99994C20.1974 8.99895 20.3901 8.93955 20.5539 8.82922C20.7176 8.71888 20.845 8.56256 20.92 8.37994C20.9966 8.19783 21.0175 7.99711 20.9801 7.80313C20.9428 7.60914 20.8488 7.43056 20.71 7.28994L17.71 4.28994C17.617 4.19621 17.5064 4.12182 17.3846 4.07105C17.2627 4.02028 17.132 3.99414 17 3.99414C16.868 3.99414 16.7373 4.02028 16.6154 4.07105C16.4936 4.12182 16.383 4.19621 16.29 4.28994L13.29 7.28994C13.1512 7.43056 13.0572 7.60914 13.0199 7.80313C12.9825 7.99711 13.0034 8.19783 13.08 8.37994C13.155 8.56256 13.2824 8.71888 13.4461 8.82922C13.6099 8.93955 13.8026 8.99895 14 8.99994Z" fill="currentColor"/>
  </symbol>
  <symbol id="ic_home_connection" viewBox="0 0 24 24">
    <path d="M22.0001 10.0701C21.9198 9.77441 21.7526 9.50965 21.5201 9.31009L13.8501 2.70009C13.3398 2.24809 12.6817 1.99854 12.0001 1.99854C11.3184 1.99854 10.6603 2.24809 10.1501 2.70009L2.53007 9.31009C2.29135 9.51205 2.12025 9.7823 2.0398 10.0845C1.95934 10.3866 1.97339 10.7062 2.08007 11.0001C2.1777 11.2893 2.36293 11.5409 2.61007 11.7201C2.85166 11.9071 3.14491 12.0153 3.45007 12.0301H4.00007V19.0301C4.00007 19.8257 4.31614 20.5888 4.87875 21.1514C5.44135 21.714 6.20442 22.0301 7.00007 22.0301H17.0001C17.7957 22.0301 18.5588 21.714 19.1214 21.1514C19.684 20.5888 20.0001 19.8257 20.0001 19.0301V12.0001H20.5501C20.8552 11.9853 21.1485 11.8771 21.3901 11.6901C21.6372 11.5109 21.8224 11.2593 21.9201 10.9701C22.0361 10.6848 22.064 10.3713 22.0001 10.0701ZM12.0001 19.0001C11.8023 19.0001 11.6089 18.9414 11.4445 18.8316C11.28 18.7217 11.1519 18.5655 11.0762 18.3828C11.0005 18.2 10.9807 17.999 11.0193 17.805C11.0579 17.611 11.1531 17.4328 11.293 17.293C11.4328 17.1531 11.611 17.0579 11.805 17.0193C11.999 16.9807 12.2 17.0005 12.3827 17.0762C12.5655 17.1519 12.7217 17.2801 12.8315 17.4445C12.9414 17.609 13.0001 17.8023 13.0001 18.0001C13.0001 18.2653 12.8947 18.5197 12.7072 18.7072C12.5196 18.8947 12.2653 19.0001 12.0001 19.0001ZM15.3801 15.2301C15.2916 15.3794 15.1657 15.503 15.0149 15.589C14.8642 15.6749 14.6936 15.7201 14.5201 15.7201C14.341 15.7173 14.1655 15.6691 14.0101 15.5801C13.4097 15.2071 12.7169 15.0094 12.0101 15.0094C11.3032 15.0094 10.6105 15.2071 10.0101 15.5801C9.78447 15.682 9.52908 15.6967 9.29331 15.6212C9.05754 15.5457 8.85815 15.3855 8.73372 15.1715C8.60929 14.9574 8.56867 14.7049 8.61972 14.4626C8.67077 14.2204 8.80985 14.0057 9.01007 13.8601C9.92541 13.3007 10.9773 13.0048 12.0501 13.0048C13.1228 13.0048 14.1747 13.3007 15.0901 13.8601C15.3081 14.005 15.4607 14.2297 15.5149 14.4859C15.5691 14.742 15.5207 15.0092 15.3801 15.2301ZM17.8301 12.0801C17.7383 12.2158 17.6147 12.3269 17.4699 12.4036C17.3252 12.4803 17.1639 12.5203 17.0001 12.5201C16.8006 12.5205 16.6056 12.4613 16.4401 12.3501C15.1212 11.4842 13.5778 11.0228 12.0001 11.0228C10.4223 11.0228 8.87898 11.4842 7.56007 12.3501C7.33994 12.4986 7.06982 12.5536 6.80915 12.503C6.54847 12.4523 6.31859 12.3002 6.17007 12.0801C6.02154 11.86 5.96655 11.5898 6.01719 11.3292C6.06782 11.0685 6.21994 10.8386 6.44007 10.6901C8.09257 9.6081 10.0249 9.03179 12.0001 9.03179C13.9753 9.03179 15.9076 9.6081 17.5601 10.6901C17.6692 10.7635 17.7628 10.8578 17.8354 10.9674C17.9081 11.0771 17.9584 11.2 17.9835 11.3291C18.0085 11.4582 18.0079 11.591 17.9816 11.7199C17.9553 11.8487 17.9038 11.9711 17.8301 12.0801Z" fill="currentColor"/>
  </symbol>
  <symbol id="ic_home_maintenance" viewBox="0 0 24 24">
    <path d="M22.0001 10.0701C21.9198 9.77441 21.7526 9.50965 21.5201 9.31009L13.8501 2.70009C13.3398 2.24809 12.6817 1.99854 12.0001 1.99854C11.3184 1.99854 10.6603 2.24809 10.1501 2.70009L2.53007 9.31009C2.29135 9.51205 2.12025 9.7823 2.0398 10.0845C1.95934 10.3866 1.97339 10.7062 2.08007 11.0001C2.1777 11.2893 2.36293 11.5409 2.61007 11.7201C2.85166 11.9071 3.14491 12.0153 3.45007 12.0301H4.00007V19.0301C4.00007 19.8257 4.31614 20.5888 4.87875 21.1514C5.44135 21.714 6.20442 22.0301 7.00007 22.0301H17.0001C17.7957 22.0301 18.5588 21.714 19.1214 21.1514C19.684 20.5888 20.0001 19.8257 20.0001 19.0301V12.0001H20.5501C20.8552 11.9853 21.1485 11.8771 21.3901 11.6901C21.6372 11.5109 21.8224 11.2593 21.9201 10.9701C22.0361 10.6848 22.064 10.3713 22.0001 10.0701ZM16.4601 18.4101C16.0853 18.7826 15.5784 18.9917 15.0501 18.9917C14.5217 18.9917 14.0148 18.7826 13.6401 18.4101L12.0001 16.8501C11.6749 16.9443 11.3386 16.9947 11.0001 17.0001C9.9392 17.0001 8.92178 16.5787 8.17164 15.8285C7.42149 15.0784 7.00007 14.061 7.00007 13.0001C6.99514 12.9235 6.99514 12.8467 7.00007 12.7701C7.02676 12.5831 7.10295 12.4066 7.22075 12.2589C7.33854 12.1112 7.49367 11.9977 7.67007 11.9301C7.84023 11.8719 8.02293 11.8608 8.19891 11.8977C8.3749 11.9347 8.53766 12.0184 8.67007 12.1401L10.2401 13.7101L11.6601 12.2901L10.0901 10.7201C9.94616 10.5814 9.84711 10.4028 9.80571 10.2072C9.76431 10.0117 9.78245 9.80824 9.85779 9.62312C9.93313 9.43799 10.0622 9.2797 10.2284 9.16864C10.3946 9.05759 10.5902 8.99888 10.7901 9.00009H11.0001C12.0609 9.00009 13.0783 9.42152 13.8285 10.1717C14.5786 10.9218 15.0001 11.9392 15.0001 13.0001C14.9947 13.3386 14.9443 13.6749 14.8501 14.0001L16.4101 15.5701C16.5975 15.756 16.7463 15.9772 16.8478 16.2209C16.9494 16.4647 17.0017 16.7261 17.0017 16.9901C17.0017 17.2541 16.9494 17.5155 16.8478 17.7592C16.7463 18.003 16.5975 18.2242 16.4101 18.4101H16.4601Z" fill="currentColor"/>
  </symbol>
  <symbol id="ic_home_remedies" viewBox="0 0 24 24">
    <path d="M20.94 10.6499C20.89 10.5199 20.82 10.4099 20.73 10.3099C20.64 10.2099 20.52 10.1299 20.4 10.0799C20.28 10.0299 20.14 9.99991 20.01 9.99991H4C3.73 9.99991 3.48 10.1099 3.29 10.2899C3.1 10.4799 3 10.7299 3 10.9999C3 12.6699 3.47 14.3099 4.35 15.7399C5.23 17.1599 6.5 18.3099 8 19.0499V19.9999C8 20.2699 8.11 20.5199 8.29 20.7099C8.48 20.8999 8.73 20.9999 9 20.9999H15C15.27 20.9999 15.52 20.8899 15.71 20.7099C15.9 20.5299 16 20.2699 16 19.9999V19.0499C17.49 18.3099 18.75 17.1699 19.63 15.7599C20.51 14.3499 20.99 12.7199 21 11.0499C21 10.9099 20.99 10.7799 20.94 10.6499ZM20.85 7.20991C21.12 6.73991 20.96 6.12991 20.49 5.85991L18.37 4.62991C17.9 4.35991 17.29 4.51991 17.02 4.98991C17.02 6.28991 16.62 7.54991 15.88 8.61991C15.79 8.74991 15.71 8.86991 15.62 8.99991H18.7C19.23 8.20991 19.98 7.58991 20.86 7.20991H20.85ZM7.73 8.99991H10.51C10.51 8.16991 9.84 7.49991 9.01 7.49991C8.62 7.49991 8.27 7.64991 8 7.89991C7.95 6.83991 7.08 5.99991 6.01 5.99991C4.94 5.99991 4.01 6.89991 4.01 7.99991C4.01 8.36991 4.12 8.70991 4.29 8.99991H7.73Z" fill="currentColor"/>
  </symbol>
</svg>
