<!-- JioGames DLS — hotspot icons (2 icons) -->
<svg xmlns="http://www.w3.org/2000/svg" style="display:none">
  <symbol id="ic_hotspot" viewBox="0 0 24 24">
    <path d="M16.0002 13.9999H8.00018C7.20454 13.9999 6.44147 14.316 5.87886 14.8786C5.31626 15.4412 5.00018 16.2043 5.00018 16.9999V20.9999C5.00018 21.2651 5.10554 21.5195 5.29308 21.707C5.48061 21.8946 5.73497 21.9999 6.00018 21.9999H18.0002C18.2654 21.9999 18.5198 21.8946 18.7073 21.707C18.8948 21.5195 19.0002 21.2651 19.0002 20.9999V16.9999C19.0002 16.2043 18.6841 15.4412 18.1215 14.8786C17.5589 14.316 16.7958 13.9999 16.0002 13.9999ZM15.1802 9.59992C15.2733 9.72412 15.3941 9.82492 15.533 9.89435C15.6718 9.96378 15.8249 9.99992 15.9802 9.99992C16.1966 9.99992 16.4071 9.92975 16.5802 9.79992C16.7924 9.64079 16.9326 9.40389 16.9701 9.14134C17.0076 8.87879 16.9393 8.6121 16.7802 8.39992C16.2206 7.66232 15.4979 7.06423 14.6686 6.65247C13.8393 6.2407 12.926 6.02644 12.0002 6.02644C11.0743 6.02644 10.161 6.2407 9.33177 6.65247C8.50251 7.06423 7.77979 7.66232 7.22018 8.39992C7.14139 8.50498 7.08406 8.62453 7.05147 8.75174C7.01888 8.87895 7.01166 9.01134 7.03023 9.14134C7.04881 9.27135 7.0928 9.39642 7.15971 9.50942C7.22662 9.62242 7.31513 9.72113 7.42018 9.79992C7.52524 9.87872 7.64479 9.93604 7.772 9.96864C7.89922 10.0012 8.0316 10.0084 8.16161 9.98987C8.29161 9.9713 8.41668 9.92731 8.52968 9.8604C8.64268 9.79349 8.74139 9.70498 8.82018 9.59992C9.19348 9.1107 9.67462 8.71419 10.2262 8.44127C10.7777 8.16835 11.3848 8.02636 12.0002 8.02636C12.6156 8.02636 13.2226 8.16835 13.7742 8.44127C14.3257 8.71419 14.8069 9.1107 15.1802 9.59992ZM19.4402 5.32992C18.5024 4.28569 17.3552 3.45056 16.0734 2.87887C14.7916 2.30717 13.4037 2.01172 12.0002 2.01172C10.5966 2.01172 9.20881 2.30717 7.92698 2.87887C6.64514 3.45056 5.498 4.28569 4.56018 5.32992C4.38249 5.52751 4.29056 5.78759 4.30463 6.05296C4.31869 6.31832 4.4376 6.56723 4.63518 6.74492C4.83277 6.92262 5.09285 7.01454 5.35822 7.00048C5.62358 6.98641 5.87249 6.86751 6.05018 6.66992C6.80042 5.83519 7.71789 5.16765 8.74299 4.7107C9.76808 4.25374 10.8779 4.01759 12.0002 4.01759C13.1225 4.01759 14.2323 4.25374 15.2574 4.7107C16.2825 5.16765 17.2 5.83519 17.9502 6.66992C18.0448 6.77477 18.1606 6.85839 18.2898 6.91527C18.4191 6.97215 18.559 7.001 18.7002 6.99992C18.9446 6.99682 19.1793 6.90433 19.3602 6.73992C19.5574 6.56336 19.6766 6.31577 19.6916 6.05146C19.7066 5.78714 19.6162 5.52767 19.4402 5.32992ZM11.0002 10.9999C11.0002 11.1977 11.0588 11.391 11.1687 11.5555C11.2786 11.7199 11.4348 11.8481 11.6175 11.9238C11.8002 11.9995 12.0013 12.0193 12.1953 11.9807C12.3893 11.9421 12.5674 11.8469 12.7073 11.707C12.8471 11.5672 12.9424 11.389 12.981 11.195C13.0196 11.001 12.9998 10.8 12.9241 10.6172C12.8484 10.4345 12.7202 10.2783 12.5558 10.1685C12.3913 10.0586 12.198 9.99992 12.0002 9.99992C11.735 9.99992 11.4806 10.1053 11.2931 10.2928C11.1055 10.4804 11.0002 10.7347 11.0002 10.9999Z" fill="currentColor"/>
  </symbol>
  <symbol id="ic_hotspot_locator" viewBox="0 0 24 24">
    <path d="M4.00001 11C4.00436 9.03165 4.73424 7.13398 6.05001 5.67001C6.21308 5.48513 6.30211 5.24652 6.30001 5.00001C6.30352 4.86267 6.27869 4.72608 6.22708 4.59877C6.17546 4.47145 6.09817 4.35613 6.00001 4.26001C5.80355 4.08275 5.54483 3.99059 5.28055 4.00371C5.01627 4.01683 4.76795 4.13416 4.59001 4.33001C2.94831 6.16383 2.04059 8.53869 2.04059 11C2.04059 13.4613 2.94831 15.8362 4.59001 17.67C4.678 17.7678 4.78439 17.8474 4.90312 17.9041C5.02185 17.9608 5.15058 17.9936 5.28198 18.0006C5.41337 18.0075 5.54485 17.9885 5.66891 17.9447C5.79297 17.9008 5.90718 17.833 6.00501 17.745C6.10285 17.657 6.18239 17.5506 6.23911 17.4319C6.29583 17.3132 6.3286 17.1844 6.33557 17.053C6.34253 16.9216 6.32355 16.7902 6.2797 16.6661C6.23585 16.5421 6.168 16.4278 6.08001 16.33C4.75334 14.8705 4.01259 12.9723 4.00001 11ZM12 13C12.3956 13 12.7823 12.8827 13.1112 12.6629C13.4401 12.4432 13.6964 12.1308 13.8478 11.7654C13.9991 11.3999 14.0388 10.9978 13.9616 10.6098C13.8844 10.2219 13.6939 9.8655 13.4142 9.5858C13.1345 9.30609 12.7782 9.11561 12.3902 9.03844C12.0022 8.96127 11.6001 9.00087 11.2346 9.15225C10.8692 9.30362 10.5568 9.55997 10.3371 9.88887C10.1173 10.2178 10 10.6044 10 11C10 11.5304 10.2107 12.0391 10.5858 12.4142C10.9609 12.7893 11.4696 13 12 13ZM8.82001 13.39C8.30544 12.6994 8.02749 11.8612 8.02749 11C8.02749 10.1388 8.30544 9.30059 8.82001 8.61001C8.90012 8.50561 8.95888 8.38645 8.99293 8.25934C9.02699 8.13223 9.03568 7.99966 9.0185 7.86919C9.00132 7.73873 8.95861 7.61292 8.89281 7.49896C8.82701 7.385 8.73941 7.28511 8.63501 7.20501C8.53061 7.1249 8.41145 7.06614 8.28434 7.03209C8.15724 6.99803 8.02466 6.98934 7.8942 7.00652C7.76373 7.0237 7.63793 7.06641 7.52396 7.13221C7.41 7.19801 7.31012 7.28561 7.23001 7.39001C6.44634 8.43038 6.0225 9.69751 6.0225 11C6.0225 12.3025 6.44634 13.5696 7.23001 14.61C7.39179 14.8209 7.63071 14.9588 7.8942 14.9935C8.15769 15.0282 8.42416 14.9568 8.63501 14.795C8.84586 14.6332 8.9838 14.3943 9.0185 14.1308C9.05319 13.8673 8.98179 13.6009 8.82001 13.39ZM16.82 7.39001C16.6582 7.17916 16.4193 7.04122 16.1558 7.00652C15.8923 6.97183 15.6259 7.04323 15.415 7.20501C15.2042 7.36679 15.0662 7.60571 15.0315 7.86919C14.9968 8.13268 15.0682 8.39916 15.23 8.61001C15.7446 9.30059 16.0225 10.1388 16.0225 11C16.0225 11.8612 15.7446 12.6994 15.23 13.39C15.0682 13.6009 14.9968 13.8673 15.0315 14.1308C15.0662 14.3943 15.2042 14.6332 15.415 14.795C15.6259 14.9568 15.8923 15.0282 16.1558 14.9935C16.4193 14.9588 16.6582 14.8209 16.82 14.61C17.5965 13.5642 18.0116 12.2942 18.0026 10.9916C17.9935 9.68914 17.5609 8.42494 16.77 7.39001H16.82ZM19.49 4.33001C19.3123 4.13242 19.0634 4.01352 18.798 3.99945C18.5327 3.98539 18.2726 4.07731 18.075 4.25501C17.8774 4.4327 17.7585 4.68161 17.7445 4.94698C17.7304 5.21234 17.8223 5.47242 18 5.67001C19.31 7.13632 20.0342 9.03373 20.0342 11C20.0342 12.9663 19.31 14.8637 18 16.33C17.8369 16.5149 17.7479 16.7535 17.75 17C17.7503 17.1396 17.7799 17.2775 17.8367 17.4049C17.8935 17.5324 17.9764 17.6465 18.08 17.74C18.2765 17.9173 18.5352 18.0094 18.7995 17.9963C19.0638 17.9832 19.3121 17.8659 19.49 17.67C21.1317 15.8362 22.0394 13.4613 22.0394 11C22.0394 8.53869 21.1317 6.16383 19.49 4.33001ZM13.15 14.54C13.0055 14.3778 12.8284 14.248 12.6302 14.1591C12.432 14.0702 12.2172 14.0243 12 14.0243C11.7828 14.0243 11.568 14.0702 11.3698 14.1591C11.1716 14.248 10.9945 14.3778 10.85 14.54L8.35001 17.54C8.16771 17.7589 8.05149 18.0251 8.01496 18.3076C7.97843 18.5901 8.02309 18.8772 8.14372 19.1352C8.26435 19.3933 8.45597 19.6117 8.69615 19.7648C8.93634 19.9179 9.21516 19.9995 9.50001 20H14.5C14.7845 19.9983 15.0627 19.9168 15.3031 19.7647C15.5436 19.6127 15.7365 19.3963 15.86 19.14C15.9824 18.8813 16.0276 18.5929 15.9904 18.3091C15.9531 18.0254 15.835 17.7584 15.65 17.54L13.15 14.54Z" fill="currentColor"/>
  </symbol>
</svg>
