<!-- JioGames DLS — jewellery icons (2 icons) -->
<svg xmlns="http://www.w3.org/2000/svg" style="display:none">
  <symbol id="ic_jewellery_diamond" viewBox="0 0 24 24">
    <path d="M21.1401 8.66001L17.5401 4.66001C17.3519 4.45157 17.122 4.28508 16.8653 4.17137C16.6086 4.05765 16.3308 3.99927 16.0501 4.00001H8.00005C7.71928 3.99927 7.4415 4.05765 7.18478 4.17137C6.92807 4.28508 6.69817 4.45157 6.51005 4.66001L2.91005 8.66001C2.57837 9.02751 2.39478 9.50496 2.39478 10C2.39478 10.4951 2.57837 10.9725 2.91005 11.34L11.3101 20.67C11.4038 20.7731 11.518 20.8555 11.6455 20.9119C11.7729 20.9683 11.9107 20.9974 12.0501 20.9974C12.1894 20.9974 12.3272 20.9683 12.4546 20.9119C12.5821 20.8555 12.6963 20.7731 12.7901 20.67L21.1901 11.34C21.5149 10.9664 21.6897 10.4855 21.6805 9.99039C21.6712 9.49532 21.4787 9.02128 21.1401 8.66001Z" fill="currentColor"/>
  </symbol>
  <symbol id="ic_jewellery_ring" viewBox="0 0 24 24">
    <path d="M13.25 6.11L14.54 4.67C14.7059 4.48625 14.7977 4.24752 14.7977 4C14.7977 3.75248 14.7059 3.51375 14.54 3.33L13.64 2.33C13.5465 2.22641 13.4324 2.14353 13.3049 2.0867C13.1775 2.02986 13.0396 2.00033 12.9 2H11.1C10.9605 2.00033 10.8225 2.02986 10.6951 2.0867C10.5676 2.14353 10.4535 2.22641 10.36 2.33L9.46001 3.33C9.29417 3.51375 9.20238 3.75248 9.20238 4C9.20238 4.24752 9.29417 4.48625 9.46001 4.67L10.75 6.11C8.76154 6.42456 6.96476 7.47728 5.71817 9.05811C4.47159 10.6389 3.86685 12.6317 4.02462 14.6387C4.18238 16.6457 5.09106 18.5194 6.56933 19.8861C8.04761 21.2527 9.98681 22.0117 12 22.0117C14.0132 22.0117 15.9524 21.2527 17.4307 19.8861C18.909 18.5194 19.8176 16.6457 19.9754 14.6387C20.1332 12.6317 19.5284 10.6389 18.2819 9.05811C17.0353 7.47728 15.2385 6.42456 13.25 6.11ZM12 20C10.8133 20 9.65329 19.6481 8.66659 18.9888C7.6799 18.3295 6.91086 17.3925 6.45674 16.2961C6.00261 15.1997 5.88379 13.9933 6.1153 12.8295C6.34681 11.6656 6.91826 10.5965 7.75737 9.75736C8.59649 8.91824 9.66559 8.3468 10.8295 8.11529C11.9934 7.88378 13.1998 8.0026 14.2961 8.45672C15.3925 8.91085 16.3295 9.67988 16.9888 10.6666C17.6481 11.6533 18 12.8133 18 14C18 15.5913 17.3679 17.1174 16.2427 18.2426C15.1174 19.3679 13.5913 20 12 20Z" fill="currentColor"/>
  </symbol>
</svg>
