<!-- JioGames DLS — jio icons (10 icons) -->
<svg xmlns="http://www.w3.org/2000/svg" style="display:none">
  <symbol id="ic_jio_dot" viewBox="0 0 24 24">
    <g clip-path="url(#clip0_5207_79934)">
<rect width="24" height="24" rx="12" fill="currentColor"/>
<path d="M8.47789 7.23736H8.07789C7.31878 7.23736 6.90411 7.66536 6.90411 8.52159V12.6509C6.90411 13.714 6.545 14.0871 5.70255 14.0871C5.03989 14.0871 4.50144 13.7969 4.07322 13.2723C4.03167 13.2171 3.16211 13.6311 3.16211 14.6534C3.16211 15.758 4.19722 16.4349 6.11767 16.4349C8.451 16.4349 9.68078 15.2609 9.68078 12.6925V8.52159C9.67944 7.66647 9.26522 7.23736 8.47789 7.23736ZM17.7779 9.25359C15.5128 9.25359 14.0077 10.6898 14.0077 12.8314C14.0077 15.0274 15.4572 16.4363 17.7361 16.4363C20.0006 16.4363 21.4917 15.0274 21.4917 12.8456C21.493 10.6898 20.015 9.25359 17.7779 9.25359ZM17.7501 14.4045C16.8659 14.4045 16.2586 13.7556 16.2586 12.8303C16.2586 11.9191 16.8808 11.2698 17.7501 11.2698C18.6194 11.2698 19.2414 11.9191 19.2414 12.8443C19.2417 13.7416 18.6066 14.4045 17.7503 14.4045H17.7501ZM12.0939 9.32247H11.8172C11.141 9.32247 10.6301 9.63981 10.6301 10.6069V15.026C10.6301 16.0067 11.1274 16.3107 11.8452 16.3107H12.1217C12.7983 16.3107 13.2814 15.9789 13.2814 15.026V10.6069C13.2814 9.6127 12.8123 9.32247 12.0939 9.32247ZM11.9421 6.11914C11.0857 6.11914 10.5472 6.6027 10.5472 7.36225C10.5472 8.13514 11.0999 8.61847 11.9834 8.61847C12.8397 8.61847 13.3783 8.13514 13.3783 7.36225C13.3783 6.58936 12.8259 6.11914 11.9421 6.11914Z" fill="currentColor"/>
</g>
<defs>
<clipPath id="clip0_5207_79934">
<rect width="24" height="24" fill="currentColor"/>
</clipPath>
</defs>
  </symbol>
  <symbol id="ic_jio_dot_exclude" viewBox="0 0 24 24">
    <g clip-path="url(#clip0_7826_127526)">
<path d="M12 0C5.37244 0 0 5.37267 0 12C0 18.6273 5.37244 24 12 24C18.6276 24 24 18.6276 24 12C24 5.37244 18.6273 0 12 0ZM9.67933 12.6927C9.67933 15.2611 8.45022 16.4351 6.11622 16.4351C4.19689 16.4351 3.16067 15.7582 3.16067 14.6536C3.16067 13.6313 4.03022 13.2173 4.07178 13.2724C4.5 13.7971 5.03844 14.0873 5.70111 14.0873C6.54356 14.0873 6.90267 13.7142 6.90267 12.6511V8.52178C6.90267 7.66556 7.31733 7.23733 8.07644 7.23733H8.47644C9.26378 7.23733 9.678 7.66556 9.678 8.52178L9.67933 12.6927ZM13.2813 15.026C13.2813 15.9789 12.7982 16.3107 12.1216 16.3107H11.8444C11.1264 16.3107 10.6291 16.0067 10.6291 15.026V10.6076C10.6291 9.64044 11.1402 9.32311 11.8162 9.32311H12.0929C12.8113 9.32311 13.2804 9.61333 13.2804 10.6076L13.2813 15.026ZM11.9833 8.61867C11.0998 8.61867 10.5471 8.13533 10.5471 7.36244C10.5471 6.60267 11.0856 6.11933 11.942 6.11933C12.8258 6.11933 13.3782 6.58933 13.3782 7.36244C13.3782 8.13556 12.8396 8.61867 11.9833 8.61867ZM17.7362 16.4351C15.4573 16.4351 14.0078 15.0262 14.0078 12.8302C14.0078 10.6898 15.5129 9.25356 17.778 9.25356C20.0149 9.25356 21.4929 10.6898 21.4929 12.8442C21.4929 15.0262 20 16.4351 17.7362 16.4351ZM17.7502 11.27C16.88 11.27 16.2587 11.9193 16.2587 12.8304C16.2587 13.7558 16.866 14.4047 17.7502 14.4047C18.6064 14.4047 19.2416 13.7418 19.2416 12.8444C19.2416 11.9193 18.6202 11.27 17.7502 11.27Z" fill="currentColor"/>
</g>
<defs>
<clipPath id="clip0_7826_127526">
<rect width="24" height="24" fill="currentColor"/>
</clipPath>
</defs>
  </symbol>
  <symbol id="ic_jio_dot_jiofinance_2" viewBox="0 0 24 24">
    <g clip-path="url(#clip0_71067_17850)">
<mask id="mask0_71067_17850" style="mask-type:luminance" maskUnits="userSpaceOnUse" x="0" y="0" width="24" height="24">
<path d="M24 0H0V24H24V0Z" fill="currentColor"/>
</mask>
<g mask="url(#mask0_71067_17850)">
<path d="M24 12C24 5.37258 18.6274 0 12 0C5.37258 0 0 5.37258 0 12C0 18.6274 5.37258 24 12 24C18.6274 24 24 18.6274 24 12Z" fill="url(#paint0_linear_71067_17850)"/>
<path d="M8.47791 7.23736H8.07787C7.31878 7.23736 6.90411 7.66537 6.90411 8.52157V12.6509C6.90411 13.714 6.545 14.0872 5.70255 14.0872C5.03988 14.0872 4.50144 13.7969 4.07322 13.2722C4.03166 13.2172 3.16211 13.6312 3.16211 14.6533C3.16211 15.758 4.19721 16.4349 6.11767 16.4349C8.45099 16.4349 9.68076 15.2609 9.68076 12.6925V8.52157C9.67941 7.6665 9.26519 7.23736 8.47791 7.23736ZM17.7779 9.25357C15.5128 9.25357 14.0077 10.6898 14.0077 12.8314C14.0077 15.0274 15.4572 16.4362 17.7361 16.4362C20.0005 16.4362 21.4917 15.0274 21.4917 12.8456C21.493 10.6898 20.015 9.25357 17.7779 9.25357ZM17.7501 14.4045C16.8659 14.4045 16.2586 13.7556 16.2586 12.8302C16.2586 11.9191 16.8808 11.2698 17.7501 11.2698C18.6194 11.2698 19.2415 11.9191 19.2415 12.8443C19.2417 13.7416 18.6064 14.4045 17.7501 14.4045ZM12.0939 9.3225H11.8172C11.141 9.3225 10.6301 9.63982 10.6301 10.6069V15.026C10.6301 16.0067 11.1274 16.3107 11.8452 16.3107H12.1216C12.7984 16.3107 13.2814 15.9789 13.2814 15.026V10.6069C13.2814 9.61267 12.8123 9.3225 12.0939 9.3225ZM11.9421 6.11914C11.0857 6.11914 10.5472 6.6027 10.5472 7.36225C10.5472 8.13517 11.0999 8.61847 11.9834 8.61847C12.8397 8.61847 13.3783 8.13517 13.3783 7.36225C13.3783 6.58936 12.8259 6.11914 11.9421 6.11914Z" fill="currentColor"/>
</g>
</g>
<defs>
<linearGradient id="paint0_linear_71067_17850" x1="0" y1="0" x2="24" y2="24" gradientUnits="userSpaceOnUse">
<stop offset="0.35" stop-color="#FFDBAB"/>
<stop offset="0.6" stop-color="#AA761D"/>
</linearGradient>
<clipPath id="clip0_71067_17850">
<rect width="24" height="24" fill="currentColor"/>
</clipPath>
</defs>
  </symbol>
  <symbol id="ic_jio_dot_jiofinance_coloured" viewBox="0 0 24 24">
    <g clip-path="url(#clip0_51184_147799)">
<rect width="24" height="24" rx="12" fill="url(#paint0_linear_51184_147799)"/>
<path d="M8.47789 7.23736H8.07789C7.31878 7.23736 6.90411 7.66536 6.90411 8.52159V12.6509C6.90411 13.714 6.545 14.0871 5.70255 14.0871C5.03989 14.0871 4.50144 13.7969 4.07322 13.2723C4.03167 13.2171 3.16211 13.6311 3.16211 14.6534C3.16211 15.758 4.19722 16.4349 6.11767 16.4349C8.451 16.4349 9.68078 15.2609 9.68078 12.6925V8.52159C9.67944 7.66647 9.26522 7.23736 8.47789 7.23736ZM17.7779 9.25359C15.5128 9.25359 14.0077 10.6898 14.0077 12.8314C14.0077 15.0274 15.4572 16.4363 17.7361 16.4363C20.0006 16.4363 21.4917 15.0274 21.4917 12.8456C21.493 10.6898 20.015 9.25359 17.7779 9.25359ZM17.7501 14.4045C16.8659 14.4045 16.2586 13.7556 16.2586 12.8303C16.2586 11.9191 16.8808 11.2698 17.7501 11.2698C18.6194 11.2698 19.2414 11.9191 19.2414 12.8443C19.2417 13.7416 18.6066 14.4045 17.7503 14.4045H17.7501ZM12.0939 9.32247H11.8172C11.141 9.32247 10.6301 9.63981 10.6301 10.6069V15.026C10.6301 16.0067 11.1274 16.3107 11.8452 16.3107H12.1217C12.7983 16.3107 13.2814 15.9789 13.2814 15.026V10.6069C13.2814 9.6127 12.8123 9.32247 12.0939 9.32247ZM11.9421 6.11914C11.0857 6.11914 10.5472 6.6027 10.5472 7.36225C10.5472 8.13514 11.0999 8.61847 11.9834 8.61847C12.8397 8.61847 13.3783 8.13514 13.3783 7.36225C13.3783 6.58936 12.8259 6.11914 11.9421 6.11914Z" fill="currentColor"/>
</g>
<defs>
<linearGradient id="paint0_linear_51184_147799" x1="0.0445714" y1="0.0445714" x2="24.0274" y2="24.0274" gradientUnits="userSpaceOnUse">
<stop offset="0.08" stop-color="#F3B561"/>
<stop offset="0.45" stop-color="#F6C586"/>
<stop offset="1" stop-color="#C78724"/>
</linearGradient>
<clipPath id="clip0_51184_147799">
<rect width="24" height="24" fill="currentColor"/>
</clipPath>
</defs>
  </symbol>
  <symbol id="ic_jio_fi" viewBox="0 0 24 24">
    <path d="M16 2H8C7.20435 2 6.44129 2.31607 5.87868 2.87868C5.31607 3.44129 5 4.20435 5 5V19C5 19.7956 5.31607 20.5587 5.87868 21.1213C6.44129 21.6839 7.20435 22 8 22H16C16.7956 22 17.5587 21.6839 18.1213 21.1213C18.6839 20.5587 19 19.7956 19 19V5C19 4.20435 18.6839 3.44129 18.1213 2.87868C17.5587 2.31607 16.7956 2 16 2ZM16 9C16 9.26522 15.8946 9.51957 15.7071 9.70711C15.5196 9.89464 15.2652 10 15 10H9C8.73478 10 8.48043 9.89464 8.29289 9.70711C8.10536 9.51957 8 9.26522 8 9V7C8 6.73478 8.10536 6.48043 8.29289 6.29289C8.48043 6.10536 8.73478 6 9 6H15C15.2652 6 15.5196 6.10536 15.7071 6.29289C15.8946 6.48043 16 6.73478 16 7V9Z" fill="currentColor"/>
  </symbol>
  <symbol id="ic_jio_fi_dongle" viewBox="0 0 24 24">
    <path d="M13 2H11C9.93913 2 8.92172 2.42143 8.17157 3.17157C7.42143 3.92172 7 4.93913 7 6V18C7 19.0609 7.42143 20.0783 8.17157 20.8284C8.92172 21.5786 9.93913 22 11 22H13C14.0609 22 15.0783 21.5786 15.8284 20.8284C16.5786 20.0783 17 19.0609 17 18V6C17 4.93913 16.5786 3.92172 15.8284 3.17157C15.0783 2.42143 14.0609 2 13 2ZM14 9C14 9.26522 13.8946 9.51957 13.7071 9.70711C13.5196 9.89464 13.2652 10 13 10H11C10.7348 10 10.4804 9.89464 10.2929 9.70711C10.1054 9.51957 10 9.26522 10 9V7C10 6.73478 10.1054 6.48043 10.2929 6.29289C10.4804 6.10536 10.7348 6 11 6H13C13.2652 6 13.5196 6.10536 13.7071 6.29289C13.8946 6.48043 14 6.73478 14 7V9Z" fill="currentColor"/>
  </symbol>
  <symbol id="ic_jio_institute" viewBox="0 0 24 24">
    <path d="M20 12H16.9C16.704 11.0391 16.2298 10.1571 15.5364 9.46362C14.8429 8.77018 13.9609 8.29597 13 8.1V7H15C15.2652 7 15.5196 6.89464 15.7071 6.70711C15.8946 6.51957 16 6.26522 16 6V4C16 3.73478 15.8946 3.48043 15.7071 3.29289C15.5196 3.10536 15.2652 3 15 3H12C11.7348 3 11.4804 3.10536 11.2929 3.29289C11.1054 3.48043 11 3.73478 11 4V8.1C10.0391 8.29597 9.15706 8.77018 8.46362 9.46362C7.77018 10.1571 7.29597 11.0391 7.1 12H4C3.73478 12 3.48043 12.1054 3.29289 12.2929C3.10536 12.4804 3 12.7348 3 13V20C3 20.2652 3.10536 20.5196 3.29289 20.7071C3.48043 20.8946 3.73478 21 4 21H10V17C10 16.4696 10.2107 15.9609 10.5858 15.5858C10.9609 15.2107 11.4696 15 12 15C12.5304 15 13.0391 15.2107 13.4142 15.5858C13.7893 15.9609 14 16.4696 14 17V21H20C20.2652 21 20.5196 20.8946 20.7071 20.7071C20.8946 20.5196 21 20.2652 21 20V13C21 12.7348 20.8946 12.4804 20.7071 12.2929C20.5196 12.1054 20.2652 12 20 12ZM12 13C11.8022 13 11.6089 12.9414 11.4444 12.8315C11.28 12.7216 11.1518 12.5654 11.0761 12.3827C11.0004 12.2 10.9806 11.9989 11.0192 11.8049C11.0578 11.6109 11.153 11.4327 11.2929 11.2929C11.4327 11.153 11.6109 11.0578 11.8049 11.0192C11.9989 10.9806 12.2 11.0004 12.3827 11.0761C12.5654 11.1518 12.7216 11.28 12.8315 11.4444C12.9414 11.6089 13 11.8022 13 12C13 12.2652 12.8946 12.5196 12.7071 12.7071C12.5196 12.8946 12.2652 13 12 13Z" fill="currentColor"/>
  </symbol>
  <symbol id="ic_jio_link" viewBox="0 0 24 24">
    <path d="M18 3H6C5.20435 3 4.44129 3.31607 3.87868 3.87868C3.31607 4.44129 3 5.20435 3 6V18C3 18.7956 3.31607 19.5587 3.87868 20.1213C4.44129 20.6839 5.20435 21 6 21H18C18.7956 21 19.5587 20.6839 20.1213 20.1213C20.6839 19.5587 21 18.7956 21 18V6C21 5.20435 20.6839 4.44129 20.1213 3.87868C19.5587 3.31607 18.7956 3 18 3ZM12 17C11.8022 17 11.6089 16.9414 11.4444 16.8315C11.28 16.7216 11.1518 16.5654 11.0761 16.3827C11.0004 16.2 10.9806 15.9989 11.0192 15.8049C11.0578 15.6109 11.153 15.4327 11.2929 15.2929C11.4327 15.153 11.6109 15.0578 11.8049 15.0192C11.9989 14.9806 12.2 15.0004 12.3827 15.0761C12.5654 15.1518 12.7216 15.28 12.8315 15.4444C12.9414 15.6089 13 15.8022 13 16C13 16.2652 12.8946 16.5196 12.7071 16.7071C12.5196 16.8946 12.2652 17 12 17ZM15.38 13.23C15.2915 13.3793 15.1657 13.503 15.0149 13.5889C14.8641 13.6748 14.6935 13.72 14.52 13.72C14.3409 13.7172 14.1654 13.669 14.01 13.58C13.4096 13.207 12.7168 13.0093 12.01 13.0093C11.3032 13.0093 10.6104 13.207 10.01 13.58C9.78441 13.682 9.52902 13.6966 9.29325 13.6211C9.05748 13.5456 8.85808 13.3854 8.73366 13.1714C8.60923 12.9573 8.56861 12.7048 8.61965 12.4625C8.6707 12.2203 8.80979 12.0056 9.01 11.86C9.92534 11.3006 10.9773 11.0047 12.05 11.0047C13.1227 11.0047 14.1747 11.3006 15.09 11.86C15.3081 12.0049 15.4606 12.2296 15.5148 12.4858C15.5691 12.7419 15.5206 13.0091 15.38 13.23ZM17.83 10.08C17.7383 10.2157 17.6146 10.3268 17.4699 10.4035C17.3252 10.4803 17.1638 10.5202 17 10.52C16.8006 10.5204 16.6055 10.4612 16.44 10.35C15.1211 9.48408 13.5778 9.02273 12 9.02273C10.4222 9.02273 8.87891 9.48408 7.56 10.35C7.33987 10.4985 7.06976 10.5535 6.80908 10.5029C6.54841 10.4522 6.31852 10.3001 6.17 10.08C6.02148 9.85987 5.96649 9.58976 6.01712 9.32908C6.06776 9.06841 6.21987 8.83852 6.44 8.69C8.0925 7.60801 10.0248 7.0317 12 7.0317C13.9752 7.0317 15.9075 7.60801 17.56 8.69C17.6691 8.76343 17.7627 8.85767 17.8353 8.96731C17.908 9.07696 17.9583 9.19986 17.9834 9.32898C18.0085 9.4581 18.0078 9.5909 17.9815 9.71977C17.9552 9.84864 17.9037 9.97106 17.83 10.08Z" fill="currentColor"/>
  </symbol>
  <symbol id="ic_jio_payments" viewBox="0 0 24 24">
    <path d="M16 7.00002H20C19.9978 6.47044 19.7856 5.96337 19.41 5.59002L16.41 2.59002C16.0367 2.21443 15.5296 2.00225 15 2.00002V6.00002C15 6.26524 15.1054 6.51959 15.2929 6.70713C15.4804 6.89466 15.7348 7.00002 16 7.00002ZM13.88 8.12002C13.3172 7.55795 13.0007 6.7954 13 6.00002V2.00002H6.50001C6.17133 1.9987 5.84564 2.06246 5.54173 2.18763C5.23782 2.3128 4.9617 2.49689 4.72929 2.7293C4.49688 2.96171 4.31278 3.23784 4.18761 3.54175C4.06244 3.84566 3.99868 4.17135 4 4.50002V19.5C3.99868 19.8287 4.06244 20.1544 4.18761 20.4583C4.31278 20.7622 4.49688 21.0383 4.72929 21.2707C4.9617 21.5031 5.23782 21.6872 5.54173 21.8124C5.84564 21.9376 6.17133 22.0013 6.50001 22H17.5C17.8287 22.0013 18.1544 21.9376 18.4583 21.8124C18.7622 21.6872 19.0383 21.5031 19.2707 21.2707C19.5031 21.0383 19.6872 20.7622 19.8124 20.4583C19.9376 20.1544 20.0013 19.8287 20 19.5V9.00002H16C15.2046 8.99932 14.4421 8.68279 13.88 8.12002ZM8 18C7.80222 18 7.60888 17.9414 7.44443 17.8315C7.27999 17.7216 7.15181 17.5654 7.07613 17.3827C7.00044 17.2 6.98063 16.9989 7.01922 16.8049C7.0578 16.6109 7.15305 16.4328 7.2929 16.2929C7.43275 16.1531 7.61093 16.0578 7.80491 16.0192C7.9989 15.9806 8.19996 16.0005 8.38269 16.0761C8.56541 16.1518 8.72159 16.28 8.83147 16.4444C8.94136 16.6089 9 16.8022 9 17C9 17.2652 8.89465 17.5196 8.70711 17.7071C8.51958 17.8947 8.26522 18 8 18ZM8 14C7.80222 14 7.60888 13.9414 7.44443 13.8315C7.27999 13.7216 7.15181 13.5654 7.07613 13.3827C7.00044 13.2 6.98063 12.9989 7.01922 12.8049C7.0578 12.6109 7.15305 12.4328 7.2929 12.2929C7.43275 12.1531 7.61093 12.0578 7.80491 12.0192C7.9989 11.9806 8.19996 12.0005 8.38269 12.0761C8.56541 12.1518 8.72159 12.28 8.83147 12.4444C8.94136 12.6089 9 12.8022 9 13C9 13.2652 8.89465 13.5196 8.70711 13.7071C8.51958 13.8947 8.26522 14 8 14ZM12 18C11.8022 18 11.6089 17.9414 11.4444 17.8315C11.28 17.7216 11.1518 17.5654 11.0761 17.3827C11.0004 17.2 10.9806 16.9989 11.0192 16.8049C11.0578 16.6109 11.153 16.4328 11.2929 16.2929C11.4328 16.1531 11.6109 16.0578 11.8049 16.0192C11.9989 15.9806 12.2 16.0005 12.3827 16.0761C12.5654 16.1518 12.7216 16.28 12.8315 16.4444C12.9414 16.6089 13 16.8022 13 17C13 17.2652 12.8946 17.5196 12.7071 17.7071C12.5196 17.8947 12.2652 18 12 18ZM12 14C11.8022 14 11.6089 13.9414 11.4444 13.8315C11.28 13.7216 11.1518 13.5654 11.0761 13.3827C11.0004 13.2 10.9806 12.9989 11.0192 12.8049C11.0578 12.6109 11.153 12.4328 11.2929 12.2929C11.4328 12.1531 11.6109 12.0578 11.8049 12.0192C11.9989 11.9806 12.2 12.0005 12.3827 12.0761C12.5654 12.1518 12.7216 12.28 12.8315 12.4444C12.9414 12.6089 13 12.8022 13 13C13 13.2652 12.8946 13.5196 12.7071 13.7071C12.5196 13.8947 12.2652 14 12 14ZM16 18C15.8022 18 15.6089 17.9414 15.4444 17.8315C15.28 17.7216 15.1518 17.5654 15.0761 17.3827C15.0004 17.2 14.9806 16.9989 15.0192 16.8049C15.0578 16.6109 15.153 16.4328 15.2929 16.2929C15.4328 16.1531 15.6109 16.0578 15.8049 16.0192C15.9989 15.9806 16.2 16.0005 16.3827 16.0761C16.5654 16.1518 16.7216 16.28 16.8315 16.4444C16.9414 16.6089 17 16.8022 17 17C17 17.2652 16.8946 17.5196 16.7071 17.7071C16.5196 17.8947 16.2652 18 16 18ZM17 13C17 13.1978 16.9414 13.3911 16.8315 13.5556C16.7216 13.72 16.5654 13.8482 16.3827 13.9239C16.2 13.9996 15.9989 14.0194 15.8049 13.9808C15.6109 13.9422 15.4328 13.847 15.2929 13.7071C15.153 13.5673 15.0578 13.3891 15.0192 13.1951C14.9806 13.0011 15.0004 12.8001 15.0761 12.6173C15.1518 12.4346 15.28 12.2784 15.4444 12.1686C15.6089 12.0587 15.8022 12 16 12C16.2652 12 16.5196 12.1054 16.7071 12.2929C16.8946 12.4804 17 12.7348 17 13Z" fill="currentColor"/>
  </symbol>
  <symbol id="ic_jio_tunes" viewBox="0 0 24 24">
    <path d="M18 3H6C5.20435 3 4.44129 3.31607 3.87868 3.87868C3.31607 4.44129 3 5.20435 3 6V18C3 18.7956 3.31607 19.5587 3.87868 20.1213C4.44129 20.6839 5.20435 21 6 21H18C18.7956 21 19.5587 20.6839 20.1213 20.1213C20.6839 19.5587 21 18.7956 21 18V6C21 5.20435 20.6839 4.44129 20.1213 3.87868C19.5587 3.31607 18.7956 3 18 3ZM16.5 8C16.5083 8.22445 16.4408 8.44515 16.3084 8.62656C16.1759 8.80797 15.9863 8.93951 15.77 9L13 9.75V15.5C13 15.9945 12.8534 16.4778 12.5787 16.8889C12.304 17.3 11.9135 17.6205 11.4567 17.8097C10.9999 17.9989 10.4972 18.0484 10.0123 17.952C9.52732 17.8555 9.08186 17.6174 8.73223 17.2678C8.3826 16.9181 8.1445 16.4727 8.04804 15.9877C7.95157 15.5028 8.00108 15.0001 8.1903 14.5433C8.37952 14.0865 8.69995 13.696 9.11107 13.4213C9.5222 13.1466 10.0055 13 10.5 13C10.6678 13.0013 10.8352 13.018 11 13.05V8C10.9917 7.77555 11.0592 7.55485 11.1916 7.37344C11.3241 7.19203 11.5137 7.06049 11.73 7L15.23 6C15.3776 5.95816 15.5328 5.95083 15.6837 5.97857C15.8345 6.00631 15.977 6.06839 16.1 6.16C16.2242 6.25315 16.325 6.37393 16.3944 6.51279C16.4639 6.65164 16.5 6.80475 16.5 6.96V8Z" fill="currentColor"/>
  </symbol>
</svg>
