<!-- JioGames DLS — key icons (2 icons) -->
<svg xmlns="http://www.w3.org/2000/svg" style="display:none">
  <symbol id="ic_key" viewBox="0 0 24 24">
    <path d="M20.71 16.71L12.83 8.83C12.9424 8.39559 12.9995 7.94872 13 7.5C13 6.41221 12.6774 5.34884 12.0731 4.44437C11.4687 3.5399 10.6098 2.83495 9.60476 2.41867C8.59977 2.00238 7.4939 1.89346 6.42701 2.10568C5.36011 2.3179 4.3801 2.84173 3.61092 3.61092C2.84173 4.3801 2.3179 5.36011 2.10568 6.42701C1.89346 7.4939 2.00238 8.59977 2.41867 9.60476C2.83495 10.6098 3.5399 11.4687 4.44437 12.0731C5.34884 12.6774 6.41221 13 7.5 13C7.94872 12.9995 8.39559 12.9424 8.83 12.83L10 14H12V16H14V18H16V20L16.71 20.71C16.8963 20.8947 17.1477 20.9989 17.41 21H20C20.2652 21 20.5196 20.8946 20.7071 20.7071C20.8946 20.5196 21 20.2652 21 20V17.41C20.9989 17.1477 20.8947 16.8963 20.71 16.71ZM6.5 8C6.20333 8 5.91332 7.91203 5.66665 7.74721C5.41997 7.58238 5.22771 7.34812 5.11418 7.07403C5.00065 6.79994 4.97095 6.49834 5.02882 6.20737C5.0867 5.9164 5.22956 5.64912 5.43934 5.43934C5.64912 5.22956 5.9164 5.0867 6.20737 5.02882C6.49834 4.97095 6.79994 5.00065 7.07403 5.11418C7.34812 5.22771 7.58238 5.41997 7.74721 5.66665C7.91203 5.91332 8 6.20333 8 6.5C8 6.89783 7.84197 7.27936 7.56066 7.56066C7.27936 7.84197 6.89783 8 6.5 8Z" fill="currentColor"/>
  </symbol>
  <symbol id="ic_key_off" viewBox="0 0 24 24">
    <path d="M20.7098 16.7098L14.7098 10.7098L20.4898 4.99979C20.5876 4.90196 20.6652 4.78581 20.7182 4.65799C20.7711 4.53016 20.7984 4.39315 20.7984 4.25479C20.7984 4.11644 20.7711 3.97943 20.7182 3.8516C20.6652 3.72378 20.5876 3.60763 20.4898 3.50979C20.392 3.41196 20.2758 3.33435 20.148 3.28141C20.0202 3.22846 19.8832 3.20121 19.7448 3.20121C19.6064 3.20121 19.4694 3.22846 19.3416 3.28141C19.2138 3.33435 19.0976 3.41196 18.9998 3.50979L3.50979 18.9998C3.41196 19.0976 3.33435 19.2138 3.28141 19.3416C3.22846 19.4694 3.20121 19.6064 3.20121 19.7448C3.20121 19.8832 3.22846 20.0202 3.28141 20.148C3.33435 20.2758 3.41196 20.392 3.50979 20.4898C3.70738 20.6874 3.97537 20.7984 4.25479 20.7984C4.39315 20.7984 4.53016 20.7711 4.65799 20.7182C4.78581 20.6652 4.90196 20.5876 4.99979 20.4898L11.4398 13.9998H11.9998V15.9998H13.9998V17.9998H15.9998V19.9998L16.7098 20.7098C16.8961 20.8945 17.1475 20.9987 17.4098 20.9998H19.9998C20.265 20.9998 20.5194 20.8944 20.7069 20.7069C20.8944 20.5194 20.9998 20.265 20.9998 19.9998V17.4098C20.9987 17.1475 20.8945 16.8961 20.7098 16.7098ZM6.80979 12.9998L12.9998 6.80979C12.8619 5.79445 12.4432 4.83781 11.7907 4.04772C11.1383 3.25763 10.2781 2.66551 9.30715 2.33811C8.33621 2.01072 7.29311 1.96106 6.29545 2.19475C5.2978 2.42844 4.38526 2.93617 3.66072 3.66072C2.93617 4.38526 2.42844 5.2978 2.19475 6.29545C1.96106 7.29311 2.01072 8.33621 2.33811 9.30715C2.66551 10.2781 3.25763 11.1383 4.04772 11.7907C4.83781 12.4432 5.79445 12.8619 6.80979 12.9998ZM6.49979 4.99979C6.79647 4.99979 7.08648 5.08777 7.33315 5.25259C7.57982 5.41741 7.77208 5.65168 7.88561 5.92577C7.99915 6.19986 8.02885 6.50146 7.97097 6.79243C7.91309 7.0834 7.77023 7.35068 7.56045 7.56045C7.35068 7.77023 7.0834 7.91309 6.79243 7.97097C6.50146 8.02885 6.19986 7.99915 5.92577 7.88561C5.65168 7.77208 5.41741 7.57982 5.25259 7.33315C5.08777 7.08648 4.99979 6.79647 4.99979 6.49979C4.99979 6.10197 5.15783 5.72044 5.43913 5.43913C5.72044 5.15783 6.10197 4.99979 6.49979 4.99979Z" fill="currentColor"/>
  </symbol>
</svg>
