<!-- JioGames DLS — kidney icons (2 icons) -->
<svg xmlns="http://www.w3.org/2000/svg" style="display:none">
  <symbol id="ic_kidney" viewBox="0 0 24 24">
    <path d="M20.6801 5.65987C19.9401 4.17987 18.1401 3.57987 16.6601 4.31987C15.1801 5.05987 14.5801 6.85987 15.3201 8.33987C15.4201 8.53987 15.4901 8.75987 15.5601 8.99987H15.0101C13.8101 8.99987 12.7401 9.53987 12.0101 10.3799C11.2801 9.53987 10.2101 8.99987 9.01008 8.99987H8.46008C8.52008 8.75987 8.60008 8.53987 8.70008 8.33987C9.44008 6.85987 8.84008 5.05987 7.36008 4.31987C5.88008 3.57987 4.08008 4.17987 3.34008 5.65987C1.91008 8.50987 1.91008 12.4899 3.34008 15.3399C3.87008 16.3899 4.92008 16.9999 6.03008 16.9999C6.48008 16.9999 6.94008 16.8999 7.37008 16.6799C8.85008 15.9399 9.45008 14.1399 8.71008 12.6599C8.48008 12.2099 8.35008 11.6199 8.30008 10.9999H9.03008C10.1301 10.9999 11.0301 11.8999 11.0301 12.9999V19.9999C11.0301 20.5499 11.4801 20.9999 12.0301 20.9999C12.5801 20.9999 13.0301 20.5499 13.0301 19.9999V12.9999C13.0301 11.8999 13.9301 10.9999 15.0301 10.9999H15.7601C15.7101 11.6199 15.5801 12.2099 15.3501 12.6599C14.6101 14.1399 15.2101 15.9399 16.6901 16.6799C17.1201 16.8999 17.5801 16.9999 18.0301 16.9999C19.1301 16.9999 20.1901 16.3899 20.7201 15.3399C22.1501 12.4899 22.1501 8.50987 20.7201 5.65987H20.6801Z" fill="currentColor"/>
  </symbol>
  <symbol id="ic_kidney_bladder" viewBox="0 0 24 24">
    <path d="M20.6801 5.65968C19.8201 3.92968 17.5101 3.39968 15.9501 4.79968C14.9301 5.70968 14.8301 7.20968 15.3701 8.45968C15.4401 8.62968 15.5001 8.80968 15.5501 8.99968H15.0001C13.8001 8.99968 12.7301 9.53968 12.0001 10.3797C11.2701 9.53968 10.2001 8.99968 9.00006 8.99968H8.45006C8.50006 8.80968 8.56006 8.62968 8.63006 8.45968C9.17006 7.20968 9.06006 5.70968 8.05006 4.79968C6.49006 3.39968 4.19006 3.92968 3.32006 5.65968C1.89006 8.50968 1.89006 12.4897 3.32006 15.3397C3.85006 16.3897 4.90006 16.9997 6.01006 16.9997C6.76006 16.9997 7.54006 16.7097 8.17006 16.0897C9.09006 15.1797 9.21006 13.7697 8.66006 12.5997C8.45006 12.1597 8.33006 11.5897 8.28006 10.9997H9.01006C10.1101 10.9997 11.0101 11.8997 11.0101 12.9997V15.9997C9.91006 15.9997 9.01006 16.8997 9.01006 17.9997C9.01006 19.0997 9.91006 19.9997 11.0101 19.9997C11.0101 20.5497 11.4601 20.9997 12.0101 20.9997C12.5601 20.9997 13.0101 20.5497 13.0101 19.9997C14.1101 19.9997 15.0101 19.0997 15.0101 17.9997C15.0101 16.8997 14.1101 15.9997 13.0101 15.9997V12.9997C13.0101 11.8997 13.9101 10.9997 15.0101 10.9997H15.7401C15.6901 11.5897 15.5701 12.1497 15.3601 12.5997C14.8101 13.7697 14.9301 15.1897 15.8501 16.0897C16.4801 16.7097 17.2601 16.9997 18.0101 16.9997C19.1101 16.9997 20.1701 16.3897 20.7001 15.3397C22.1301 12.4897 22.1301 8.50968 20.7001 5.65968H20.6801Z" fill="currentColor"/>
  </symbol>
</svg>
