<!-- JioGames DLS — kitchen icons (4 icons) -->
<svg xmlns="http://www.w3.org/2000/svg" style="display:none">
  <symbol id="ic_kitchen" viewBox="0 0 24 24">
    <path d="M6 9H12C12.1974 8.99901 12.3901 8.93961 12.5539 8.82928C12.7176 8.71895 12.845 8.56262 12.92 8.38C12.9966 8.19789 13.0175 7.99718 12.9801 7.80319C12.9428 7.6092 12.8488 7.43062 12.71 7.29L11 5.59V4C11 3.73478 10.8946 3.48043 10.7071 3.29289C10.5196 3.10536 10.2652 3 10 3H8C7.73478 3 7.48043 3.10536 7.29289 3.29289C7.10536 3.48043 7 3.73478 7 4V5.59L5.29 7.29C5.15124 7.43062 5.05725 7.6092 5.01987 7.80319C4.9825 7.99718 5.00342 8.19789 5.08 8.38C5.15502 8.56262 5.28242 8.71895 5.44614 8.82928C5.60986 8.93961 5.80257 8.99901 6 9ZM19 13V12C19 11.2044 18.6839 10.4413 18.1213 9.87868C17.5587 9.31607 16.7956 9 16 9C15.7348 9 15.4804 9.10536 15.2929 9.29289C15.1054 9.48043 15 9.73478 15 10C15 10.2652 15.1054 10.5196 15.2929 10.7071C15.4804 10.8946 15.7348 11 16 11C16.2652 11 16.5196 11.1054 16.7071 11.2929C16.8946 11.4804 17 11.7348 17 12V13H15C15 12.4696 14.7893 11.9609 14.4142 11.5858C14.0391 11.2107 13.5304 11 13 11H5C4.46957 11 3.96086 11.2107 3.58579 11.5858C3.21071 11.9609 3 12.4696 3 13V19C3 19.5304 3.21071 20.0391 3.58579 20.4142C3.96086 20.7893 4.46957 21 5 21H19C19.5304 21 20.0391 20.7893 20.4142 20.4142C20.7893 20.0391 21 19.5304 21 19V15C21 14.4696 20.7893 13.9609 20.4142 13.5858C20.0391 13.2107 19.5304 13 19 13ZM13 14.5C13 14.6326 12.9473 14.7598 12.8536 14.8536C12.7598 14.9473 12.6326 15 12.5 15H5.5C5.36739 15 5.24021 14.9473 5.14645 14.8536C5.05268 14.7598 5 14.6326 5 14.5V13.5C5 13.3674 5.05268 13.2402 5.14645 13.1464C5.24021 13.0527 5.36739 13 5.5 13H12.5C12.6326 13 12.7598 13.0527 12.8536 13.1464C12.9473 13.2402 13 13.3674 13 13.5V14.5Z" fill="currentColor"/>
  </symbol>
  <symbol id="ic_kitchen_extractor" viewBox="0 0 24 24">
    <path d="M5.99999 17C5.73478 17 5.48042 17.1054 5.29289 17.2929C5.10535 17.4804 4.99999 17.7348 4.99999 18C4.99999 18.2652 5.10535 18.5196 5.29289 18.7071C5.48042 18.8946 5.73478 19 5.99999 19C6.26521 19 6.51956 19.1054 6.7071 19.2929C6.89464 19.4804 6.99999 19.7348 6.99999 20V21C6.99999 21.2652 7.10535 21.5196 7.29289 21.7071C7.48042 21.8946 7.73478 22 7.99999 22C8.26521 22 8.51956 21.8946 8.7071 21.7071C8.89464 21.5196 8.99999 21.2652 8.99999 21V20C8.99999 19.2044 8.68392 18.4413 8.12132 17.8787C7.55871 17.3161 6.79564 17 5.99999 17ZM12 17C11.7348 17 11.4804 17.1054 11.2929 17.2929C11.1054 17.4804 11 17.7348 11 18V21C11 21.2652 11.1054 21.5196 11.2929 21.7071C11.4804 21.8946 11.7348 22 12 22C12.2652 22 12.5196 21.8946 12.7071 21.7071C12.8946 21.5196 13 21.2652 13 21V18C13 17.7348 12.8946 17.4804 12.7071 17.2929C12.5196 17.1054 12.2652 17 12 17ZM19.41 11.59L16.41 8.59C16.2918 8.46429 16.1532 8.35947 16 8.28V4C16 3.46957 15.7893 2.96086 15.4142 2.58579C15.0391 2.21071 14.5304 2 14 2H9.99999C9.46956 2 8.96085 2.21071 8.58578 2.58579C8.21071 2.96086 7.99999 3.46957 7.99999 4V8.28C7.84682 8.35947 7.7082 8.46429 7.58999 8.59L4.58999 11.59C4.30912 11.869 4.11737 12.2251 4.03905 12.6132C3.96072 13.0013 3.99933 13.4039 4.14999 13.77C4.30223 14.1349 4.55923 14.4466 4.88851 14.6655C5.21779 14.8844 5.60458 15.0008 5.99999 15H18C18.3954 15.0008 18.7822 14.8844 19.1115 14.6655C19.4408 14.4466 19.6978 14.1349 19.85 13.77C20.0007 13.4039 20.0393 13.0013 19.9609 12.6132C19.8826 12.2251 19.6909 11.869 19.41 11.59ZM18 17C17.2043 17 16.4413 17.3161 15.8787 17.8787C15.3161 18.4413 15 19.2044 15 20V21C15 21.2652 15.1054 21.5196 15.2929 21.7071C15.4804 21.8946 15.7348 22 16 22C16.2652 22 16.5196 21.8946 16.7071 21.7071C16.8946 21.5196 17 21.2652 17 21V20C17 19.7348 17.1054 19.4804 17.2929 19.2929C17.4804 19.1054 17.7348 19 18 19C18.2652 19 18.5196 18.8946 18.7071 18.7071C18.8946 18.5196 19 18.2652 19 18C19 17.7348 18.8946 17.4804 18.7071 17.2929C18.5196 17.1054 18.2652 17 18 17Z" fill="currentColor"/>
  </symbol>
  <symbol id="ic_kitchen_pot" viewBox="0 0 24 24">
    <path d="M17 6H15C15 5.20435 14.6839 4.44129 14.1213 3.87868C13.5587 3.31607 12.7956 3 12 3C11.2044 3 10.4413 3.31607 9.87868 3.87868C9.31607 4.44129 9 5.20435 9 6H7C6.20435 6 5.44129 6.31607 4.87868 6.87868C4.31607 7.44129 4 8.20435 4 9H20C20 8.20435 19.6839 7.44129 19.1213 6.87868C18.5587 6.31607 17.7956 6 17 6ZM11 6C11 5.73478 11.1054 5.48043 11.2929 5.29289C11.4804 5.10536 11.7348 5 12 5C12.2652 5 12.5196 5.10536 12.7071 5.29289C12.8946 5.48043 13 5.73478 13 6H11ZM20 11H4C3.73478 11 3.48043 11.1054 3.29289 11.2929C3.10536 11.4804 3 11.7348 3 12C3 12.2652 3.10536 12.5196 3.29289 12.7071C3.48043 12.8946 3.73478 13 4 13V18C4 18.7956 4.31607 19.5587 4.87868 20.1213C5.44129 20.6839 6.20435 21 7 21H17C17.7956 21 18.5587 20.6839 19.1213 20.1213C19.6839 19.5587 20 18.7956 20 18V13C20.2652 13 20.5196 12.8946 20.7071 12.7071C20.8946 12.5196 21 12.2652 21 12C21 11.7348 20.8946 11.4804 20.7071 11.2929C20.5196 11.1054 20.2652 11 20 11Z" fill="currentColor"/>
  </symbol>
  <symbol id="ic_kitchen_sink" viewBox="0 0 24 24">
    <path d="M19 11H17V6C17 5.20435 16.6839 4.44129 16.1213 3.87868C15.5587 3.31607 14.7956 3 14 3C13.2044 3 12.4413 3.31607 11.8787 3.87868C11.3161 4.44129 11 5.20435 11 6C11 6.26522 11.1054 6.51957 11.2929 6.70711C11.4804 6.89464 11.7348 7 12 7C12.2652 7 12.5196 6.89464 12.7071 6.70711C12.8946 6.51957 13 6.26522 13 6C13 5.73478 13.1054 5.48043 13.2929 5.29289C13.4804 5.10536 13.7348 5 14 5C14.2652 5 14.5196 5.10536 14.7071 5.29289C14.8946 5.48043 15 5.73478 15 6V11H7V9H8C8.26522 9 8.51957 8.89464 8.70711 8.70711C8.89464 8.51957 9 8.26522 9 8C9 7.73478 8.89464 7.48043 8.70711 7.29289C8.51957 7.10536 8.26522 7 8 7H4C3.73478 7 3.48043 7.10536 3.29289 7.29289C3.10536 7.48043 3 7.73478 3 8C3 8.26522 3.10536 8.51957 3.29289 8.70711C3.48043 8.89464 3.73478 9 4 9H5V11C4.46957 11 3.96086 11.2107 3.58579 11.5858C3.21071 11.9609 3 12.4696 3 13C3 13.5304 3.21071 14.0391 3.58579 14.4142C3.96086 14.7893 4.46957 15 5 15V19C5 19.5304 5.21071 20.0391 5.58579 20.4142C5.96086 20.7893 6.46957 21 7 21H17C17.5304 21 18.0391 20.7893 18.4142 20.4142C18.7893 20.0391 19 19.5304 19 19V15C19.5304 15 20.0391 14.7893 20.4142 14.4142C20.7893 14.0391 21 13.5304 21 13C21 12.4696 20.7893 11.9609 20.4142 11.5858C20.0391 11.2107 19.5304 11 19 11Z" fill="currentColor"/>
  </symbol>
</svg>
