<!-- JioGames DLS — kyc icons (3 icons) -->
<svg xmlns="http://www.w3.org/2000/svg" style="display:none">
  <symbol id="ic_kyc" viewBox="0 0 24 24">
    <path d="M12 11C12.89 11 13.76 10.7361 14.5001 10.2416C15.2401 9.74715 15.8169 9.04434 16.1575 8.22208C16.4981 7.39981 16.5872 6.49501 16.4135 5.6221C16.2399 4.74918 15.8113 3.94736 15.182 3.31802C14.5526 2.68868 13.7508 2.2601 12.8779 2.08647C12.005 1.91283 11.1002 2.00195 10.2779 2.34254C9.45566 2.68314 8.75285 3.25991 8.25839 3.99994C7.76392 4.73996 7.5 5.60999 7.5 6.5C7.50264 7.69266 7.9776 8.83572 8.82094 9.67906C9.66428 10.5224 10.8073 10.9974 12 11ZM14.47 12.39L12.57 13.8C12.3969 13.9298 12.1864 14 11.97 14C11.7536 14 11.5431 13.9298 11.37 13.8L9.49 12.41C7.89332 12.9376 6.50348 13.9549 5.51794 15.3174C4.5324 16.68 4.00127 18.3184 4 20C4 20.5304 4.21071 21.0391 4.58579 21.4142C4.96086 21.7893 5.46957 22 6 22H18C18.5304 22 19.0391 21.7893 19.4142 21.4142C19.7893 21.0391 20 20.5304 20 20C20.0002 18.31 19.4652 16.6634 18.4717 15.2963C17.4783 13.9292 16.0774 12.9118 14.47 12.39ZM16 19H14C13.7348 19 13.4804 18.8946 13.2929 18.7071C13.1054 18.5196 13 18.2652 13 18C13 17.7348 13.1054 17.4804 13.2929 17.2929C13.4804 17.1054 13.7348 17 14 17H16C16.2652 17 16.5196 17.1054 16.7071 17.2929C16.8946 17.4804 17 17.7348 17 18C17 18.2652 16.8946 18.5196 16.7071 18.7071C16.5196 18.8946 16.2652 19 16 19Z" fill="currentColor"/>
  </symbol>
  <symbol id="ic_kyc_manager" viewBox="0 0 24 24">
    <path d="M12 11C12.89 11 13.76 10.7361 14.5001 10.2416C15.2401 9.74715 15.8169 9.04434 16.1575 8.22208C16.4981 7.39981 16.5872 6.49501 16.4135 5.6221C16.2399 4.74918 15.8113 3.94736 15.182 3.31802C14.5526 2.68868 13.7508 2.2601 12.8779 2.08647C12.005 1.91283 11.1002 2.00195 10.2779 2.34254C9.45566 2.68314 8.75285 3.25991 8.25839 3.99994C7.76392 4.73996 7.5 5.60999 7.5 6.5C7.50264 7.69266 7.9776 8.83572 8.82094 9.67906C9.66428 10.5224 10.8073 10.9974 12 11ZM14.47 12.39L12.57 13.8C12.3969 13.9298 12.1864 14 11.97 14C11.7536 14 11.5431 13.9298 11.37 13.8L9.49 12.41C7.89332 12.9376 6.50348 13.9549 5.51794 15.3174C4.5324 16.68 4.00127 18.3184 4 20C4 20.5304 4.21071 21.0391 4.58579 21.4142C4.96086 21.7893 5.46957 22 6 22H18C18.5304 22 19.0391 21.7893 19.4142 21.4142C19.7893 21.0391 20 20.5304 20 20C20.0002 18.31 19.4652 16.6634 18.4717 15.2963C17.4783 13.9292 16.0774 12.9118 14.47 12.39ZM17 18.5C17.0008 18.5656 16.9879 18.6306 16.962 18.6909C16.9362 18.7512 16.898 18.8054 16.85 18.85L15.85 19.85C15.8051 19.8978 15.7509 19.936 15.6907 19.962C15.6305 19.9881 15.5656 20.0015 15.5 20.0015C15.4344 20.0015 15.3695 19.9881 15.3093 19.962C15.2491 19.936 15.1949 19.8978 15.15 19.85L14.15 18.85C14.102 18.8054 14.0638 18.7512 14.038 18.6909C14.0121 18.6306 13.9992 18.5656 14 18.5V16.5C14 16.3674 14.0527 16.2402 14.1464 16.1464C14.2402 16.0527 14.3674 16 14.5 16H16.5C16.6326 16 16.7598 16.0527 16.8536 16.1464C16.9473 16.2402 17 16.3674 17 16.5V18.5Z" fill="currentColor"/>
  </symbol>
  <symbol id="ic_kyc_supervisor" viewBox="0 0 24 24">
    <path d="M12 11C12.89 11 13.76 10.7361 14.5001 10.2416C15.2401 9.74715 15.8169 9.04434 16.1575 8.22208C16.4981 7.39981 16.5872 6.49501 16.4135 5.6221C16.2399 4.74918 15.8113 3.94736 15.182 3.31802C14.5526 2.68868 13.7508 2.2601 12.8779 2.08647C12.005 1.91283 11.1002 2.00195 10.2779 2.34254C9.45566 2.68314 8.75285 3.25991 8.25839 3.99994C7.76392 4.73996 7.5 5.60999 7.5 6.5C7.50264 7.69266 7.9776 8.83572 8.82094 9.67906C9.66428 10.5224 10.8073 10.9974 12 11ZM14.47 12.39L12.57 13.8C12.3969 13.9298 12.1864 14 11.97 14C11.7536 14 11.5431 13.9298 11.37 13.8L9.49 12.41C7.89332 12.9376 6.50348 13.9549 5.51794 15.3174C4.5324 16.68 4.00127 18.3184 4 20C4 20.5304 4.21071 21.0391 4.58579 21.4142C4.96086 21.7893 5.46957 22 6 22H18C18.5304 22 19.0391 21.7893 19.4142 21.4142C19.7893 21.0391 20 20.5304 20 20C20.0002 18.31 19.4652 16.6634 18.4717 15.2963C17.4783 13.9292 16.0774 12.9118 14.47 12.39ZM10 20H7C6.73478 20 6.48043 19.8946 6.29289 19.7071C6.10536 19.5196 6 19.2652 6 19C6 18.7348 6.10536 18.4804 6.29289 18.2929C6.48043 18.1054 6.73478 18 7 18H10C10.2652 18 10.5196 18.1054 10.7071 18.2929C10.8946 18.4804 11 18.7348 11 19C11 19.2652 10.8946 19.5196 10.7071 19.7071C10.5196 19.8946 10.2652 20 10 20ZM16 20C15.8022 20 15.6089 19.9414 15.4444 19.8315C15.28 19.7216 15.1518 19.5654 15.0761 19.3827C15.0004 19.2 14.9806 18.9989 15.0192 18.8049C15.0578 18.6109 15.153 18.4327 15.2929 18.2929C15.4327 18.153 15.6109 18.0578 15.8049 18.0192C15.9989 17.9806 16.2 18.0004 16.3827 18.0761C16.5654 18.1518 16.7216 18.28 16.8315 18.4444C16.9414 18.6089 17 18.8022 17 19C17 19.2652 16.8946 19.5196 16.7071 19.7071C16.5196 19.8946 16.2652 20 16 20Z" fill="currentColor"/>
  </symbol>
</svg>
