<!-- JioGames DLS — lan icons (1 icons) -->
<svg xmlns="http://www.w3.org/2000/svg" style="display:none">
  <symbol id="ic_lan_output" viewBox="0 0 24 24">
    <path d="M19.3125 3H4.6875C3.75375 3 3 3.75375 3 4.6875V15.9375C3 16.8713 3.75375 17.625 4.6875 17.625C5.62125 17.625 6.375 18.3788 6.375 19.3125C6.375 20.2463 7.12875 21 8.0625 21H15.9375C16.8713 21 17.625 20.2463 17.625 19.3125C17.625 18.3788 18.3788 17.625 19.3125 17.625C20.2463 17.625 21 16.8713 21 15.9375V4.6875C21 3.75375 20.2463 3 19.3125 3ZM8.625 10.875C8.625 11.4938 8.11875 12 7.5 12C6.88125 12 6.375 11.4938 6.375 10.875V7.5C6.375 6.88125 6.88125 6.375 7.5 6.375C8.11875 6.375 8.625 6.88125 8.625 7.5V10.875ZM13.1138 10.875C13.1138 11.4938 12.6075 12 11.9888 12C11.37 12 10.8638 11.4938 10.8638 10.875V7.5C10.8638 6.88125 11.37 6.375 11.9888 6.375C12.6075 6.375 13.1138 6.88125 13.1138 7.5V10.875ZM17.625 10.875C17.625 11.4938 17.1188 12 16.5 12C15.8813 12 15.375 11.4938 15.375 10.875V7.5C15.375 6.88125 15.8813 6.375 16.5 6.375C17.1188 6.375 17.625 6.88125 17.625 7.5V10.875Z" fill="currentColor"/>
  </symbol>
</svg>
