<!-- JioGames DLS — land icons (2 icons) -->
<svg xmlns="http://www.w3.org/2000/svg" style="display:none">
  <symbol id="ic_land_composition" viewBox="0 0 24 24">
    <path d="M21 3.99997C20.0786 3.97751 19.1655 4.18002 18.34 4.58997C17.7705 4.8782 17.138 5.01916 16.5 4.99997C15.8588 5.01999 15.2227 4.87903 14.65 4.58997C13.8276 4.18123 12.9181 3.97873 12 3.99997C11.0786 3.97751 10.1655 4.18002 9.34 4.58997C8.77055 4.8782 8.13795 5.01916 7.5 4.99997C6.85877 5.01999 6.22274 4.87903 5.65 4.58997C4.82857 4.17853 3.9184 3.97588 3 3.99997C2.73478 3.99997 2.48043 4.10533 2.29289 4.29286C2.10536 4.4804 2 4.73475 2 4.99997V19C2 19.2652 2.10536 19.5195 2.29289 19.7071C2.48043 19.8946 2.73478 20 3 20H21C21.2652 20 21.5196 19.8946 21.7071 19.7071C21.8946 19.5195 22 19.2652 22 19V4.99997C22 4.73475 21.8946 4.4804 21.7071 4.29286C21.5196 4.10533 21.2652 3.99997 21 3.99997ZM4 8.99997C4 8.73475 4.10536 8.4804 4.29289 8.29286C4.48043 8.10533 4.73478 7.99997 5 7.99997H7C7.26522 7.99997 7.51957 8.10533 7.70711 8.29286C7.89464 8.4804 8 8.73475 8 8.99997C8 9.26518 7.89464 9.51954 7.70711 9.70707C7.51957 9.89461 7.26522 9.99997 7 9.99997H5C4.73478 9.99997 4.48043 9.89461 4.29289 9.70707C4.10536 9.51954 4 9.26518 4 8.99997ZM10 14H8C7.73478 14 7.48043 13.8946 7.29289 13.7071C7.10536 13.5195 7 13.2652 7 13C7 12.7348 7.10536 12.4804 7.29289 12.2929C7.48043 12.1053 7.73478 12 8 12H10C10.2652 12 10.5196 12.1053 10.7071 12.2929C10.8946 12.4804 11 12.7348 11 13C11 13.2652 10.8946 13.5195 10.7071 13.7071C10.5196 13.8946 10.2652 14 10 14ZM10 8.99997C10 8.73475 10.1054 8.4804 10.2929 8.29286C10.4804 8.10533 10.7348 7.99997 11 7.99997H13C13.2652 7.99997 13.5196 8.10533 13.7071 8.29286C13.8946 8.4804 14 8.73475 14 8.99997C14 9.26518 13.8946 9.51954 13.7071 9.70707C13.5196 9.89461 13.2652 9.99997 13 9.99997H11C10.7348 9.99997 10.4804 9.89461 10.2929 9.70707C10.1054 9.51954 10 9.26518 10 8.99997ZM16 14H14C13.7348 14 13.4804 13.8946 13.2929 13.7071C13.1054 13.5195 13 13.2652 13 13C13 12.7348 13.1054 12.4804 13.2929 12.2929C13.4804 12.1053 13.7348 12 14 12H16C16.2652 12 16.5196 12.1053 16.7071 12.2929C16.8946 12.4804 17 12.7348 17 13C17 13.2652 16.8946 13.5195 16.7071 13.7071C16.5196 13.8946 16.2652 14 16 14ZM19 9.99997H17C16.7348 9.99997 16.4804 9.89461 16.2929 9.70707C16.1054 9.51954 16 9.26518 16 8.99997C16 8.73475 16.1054 8.4804 16.2929 8.29286C16.4804 8.10533 16.7348 7.99997 17 7.99997H19C19.2652 7.99997 19.5196 8.10533 19.7071 8.29286C19.8946 8.4804 20 8.73475 20 8.99997C20 9.26518 19.8946 9.51954 19.7071 9.70707C19.5196 9.89461 19.2652 9.99997 19 9.99997Z" fill="currentColor"/>
  </symbol>
  <symbol id="ic_land_preparation" viewBox="0 0 24 24">
    <path d="M20.45 13.2799C20.17 13.1399 18.56 12.4999 14.63 14.0699C12.93 14.7499 12.17 14.0699 10.75 12.4799C9.33 10.8899 7.4 8.80994 3.68 10.0499C3.48138 10.117 3.30887 10.2448 3.18685 10.4153C3.06482 10.5858 2.99946 10.7903 3 10.9999V19.9999C3 20.2652 3.10536 20.5195 3.2929 20.707C3.48043 20.8946 3.73479 20.9999 4 20.9999H20C20.2652 20.9999 20.5196 20.8946 20.7071 20.707C20.8946 20.5195 21 20.2652 21 19.9999V14.1699C20.9994 13.9853 20.9478 13.8044 20.8507 13.6473C20.7536 13.4902 20.6149 13.363 20.45 13.2799ZM14 11.9999H15.17C15.9654 11.9992 16.7279 11.6827 17.29 11.1199L19.71 8.70994C19.8037 8.61698 19.8781 8.50638 19.9289 8.38452C19.9797 8.26266 20.0058 8.13195 20.0058 7.99994C20.0058 7.86793 19.9797 7.73722 19.9289 7.61536C19.8781 7.49351 19.8037 7.3829 19.71 7.28994L18.91 6.49994L20.71 4.70994C20.8983 4.52164 21.0041 4.26624 21.0041 3.99994C21.0041 3.73364 20.8983 3.47825 20.71 3.28994C20.5217 3.10164 20.2663 2.99585 20 2.99585C19.7337 2.99585 19.4783 3.10164 19.29 3.28994L17.5 5.08994L16.71 4.28994C16.617 4.19621 16.5064 4.12182 16.3846 4.07105C16.2627 4.02028 16.132 3.99414 16 3.99414C15.868 3.99414 15.7373 4.02028 15.6154 4.07105C15.4936 4.12182 15.383 4.19621 15.29 4.28994L12.88 6.70994C12.3172 7.27201 12.0007 8.03456 12 8.82994V9.99994C12 10.5304 12.2107 11.0391 12.5858 11.4142C12.9609 11.7892 13.4696 11.9999 14 11.9999Z" fill="currentColor"/>
  </symbol>
</svg>
