<!-- JioGames DLS — laptop icons (3 icons) -->
<svg xmlns="http://www.w3.org/2000/svg" style="display:none">
  <symbol id="ic_laptop" viewBox="0 0 24 24">
    <path d="M21 18H19C19.5304 18 20.0391 17.7893 20.4142 17.4142C20.7893 17.0391 21 16.5304 21 16V6C21 5.46957 20.7893 4.96086 20.4142 4.58579C20.0391 4.21071 19.5304 4 19 4H5C4.46957 4 3.96086 4.21071 3.58579 4.58579C3.21071 4.96086 3 5.46957 3 6V16C3 16.5304 3.21071 17.0391 3.58579 17.4142C3.96086 17.7893 4.46957 18 5 18H3C2.73478 18 2.48043 18.1054 2.29289 18.2929C2.10536 18.4804 2 18.7348 2 19C2 19.2652 2.10536 19.5196 2.29289 19.7071C2.48043 19.8946 2.73478 20 3 20H21C21.2652 20 21.5196 19.8946 21.7071 19.7071C21.8946 19.5196 22 19.2652 22 19C22 18.7348 21.8946 18.4804 21.7071 18.2929C21.5196 18.1054 21.2652 18 21 18ZM18.5 16H5.5C5.36739 16 5.24021 15.9473 5.14645 15.8536C5.05268 15.7598 5 15.6326 5 15.5V6.5C5 6.36739 5.05268 6.24021 5.14645 6.14645C5.24021 6.05268 5.36739 6 5.5 6H18.5C18.6326 6 18.7598 6.05268 18.8536 6.14645C18.9473 6.24021 19 6.36739 19 6.5V15.5C19 15.6326 18.9473 15.7598 18.8536 15.8536C18.7598 15.9473 18.6326 16 18.5 16Z" fill="currentColor"/>
  </symbol>
  <symbol id="ic_laptop_mobile" viewBox="0 0 24 24">
    <path d="M19 3H5C4.20435 3 3.44129 3.31607 2.87868 3.87868C2.31607 4.44129 2 5.20435 2 6V14C2 14.7956 2.31607 15.5587 2.87868 16.1213C3.44129 16.6839 4.20435 17 5 17H13V10C13 8.93913 13.4214 7.92172 14.1716 7.17157C14.9217 6.42143 15.9391 6 17 6H20C20.705 6.00296 21.396 6.19645 22 6.56V6C22 5.20435 21.6839 4.44129 21.1213 3.87868C20.5587 3.31607 19.7956 3 19 3ZM3 19C2.73478 19 2.48043 19.1054 2.29289 19.2929C2.10536 19.4804 2 19.7348 2 20C2 20.2652 2.10536 20.5196 2.29289 20.7071C2.48043 20.8946 2.73478 21 3 21H13.56C13.1964 20.396 13.003 19.705 13 19H3ZM20 8H17C16.4696 8 15.9609 8.21071 15.5858 8.58579C15.2107 8.96086 15 9.46957 15 10V19C15 19.5304 15.2107 20.0391 15.5858 20.4142C15.9609 20.7893 16.4696 21 17 21H20C20.5304 21 21.0391 20.7893 21.4142 20.4142C21.7893 20.0391 22 19.5304 22 19V10C22 9.46957 21.7893 8.96086 21.4142 8.58579C21.0391 8.21071 20.5304 8 20 8ZM18.5 19C18.3022 19 18.1089 18.9414 17.9444 18.8315C17.78 18.7216 17.6518 18.5654 17.5761 18.3827C17.5004 18.2 17.4806 17.9989 17.5192 17.8049C17.5578 17.6109 17.653 17.4327 17.7929 17.2929C17.9327 17.153 18.1109 17.0578 18.3049 17.0192C18.4989 16.9806 18.7 17.0004 18.8827 17.0761C19.0654 17.1518 19.2216 17.28 19.3315 17.4444C19.4414 17.6089 19.5 17.8022 19.5 18C19.5 18.2652 19.3946 18.5196 19.2071 18.7071C19.0196 18.8946 18.7652 19 18.5 19Z" fill="currentColor"/>
  </symbol>
  <symbol id="ic_laptop_screen" viewBox="0 0 24 24">
    <path d="M5 17H19C19.5304 17 20.0391 16.7893 20.4142 16.4142C20.7893 16.0391 21 15.5304 21 15V6C21 5.46957 20.7893 4.96086 20.4142 4.58579C20.0391 4.21071 19.5304 4 19 4H5C4.46957 4 3.96086 4.21071 3.58579 4.58579C3.21071 4.96086 3 5.46957 3 6V15C3 15.5304 3.21071 16.0391 3.58579 16.4142C3.96086 16.7893 4.46957 17 5 17ZM21 18H3C2.73478 18 2.48043 18.1054 2.29289 18.2929C2.10536 18.4804 2 18.7348 2 19C2 19.2652 2.10536 19.5196 2.29289 19.7071C2.48043 19.8946 2.73478 20 3 20H21C21.2652 20 21.5196 19.8946 21.7071 19.7071C21.8946 19.5196 22 19.2652 22 19C22 18.7348 21.8946 18.4804 21.7071 18.2929C21.5196 18.1054 21.2652 18 21 18Z" fill="currentColor"/>
  </symbol>
</svg>
