<!-- JioGames DLS — led icons (1 icons) -->
<svg xmlns="http://www.w3.org/2000/svg" style="display:none">
  <symbol id="ic_led_driver" viewBox="0 0 24 24">
    <path d="M21 14H19.98V10H21C21.55 10 22 9.55 22 9C22 8.45 21.55 8 21 8H19.85C19.49 6.85 18.35 6 16.98 6H6.99C5.63 6 4.49 6.85 4.12 8H3C2.45 8 2 8.45 2 9C2 9.55 2.45 10 3 10H3.99V11.01H3C2.45 11.01 2 11.46 2 12.01C2 12.56 2.45 13.01 3 13.01H3.99V14H3C2.45 14 2 14.45 2 15C2 15.55 2.45 16 3 16H4.12C4.48 17.15 5.62 18 6.99 18H16.98C18.34 18 19.48 17.15 19.85 16H21C21.55 16 22 15.55 22 15C22 14.45 21.55 14 21 14Z" fill="currentColor"/>
  </symbol>
</svg>
