<!-- JioGames DLS — live icons (3 icons) -->
<svg xmlns="http://www.w3.org/2000/svg" style="display:none">
  <symbol id="ic_live" viewBox="0 0 24 24">
    <path d="M12.01 14.0042C13.1146 14.0042 14.01 13.1088 14.01 12.0042C14.01 10.8997 13.1146 10.0042 12.01 10.0042C10.9054 10.0042 10.01 10.8997 10.01 12.0042C10.01 13.1088 10.9054 14.0042 12.01 14.0042Z" fill="currentColor"/>
<path d="M18.72 19.0042C18.48 19.0042 18.24 18.9242 18.05 18.7542C17.64 18.3842 17.6 17.7542 17.97 17.3442C19.28 15.8742 20.01 13.9842 20.01 12.0142C20.01 10.0442 19.29 8.14423 17.97 6.68423C17.6 6.27423 17.64 5.64423 18.05 5.27423C18.46 4.90423 19.09 4.94423 19.46 5.35423C21.1 7.18423 22.01 9.55423 22.01 12.0242C22.01 14.4942 21.11 16.8542 19.46 18.6942C19.26 18.9142 18.99 19.0242 18.71 19.0242L18.72 19.0042Z" fill="currentColor"/>
<path d="M16.01 16.0042C15.8 16.0042 15.59 15.9342 15.41 15.8042C14.97 15.4742 14.88 14.8442 15.21 14.4042C15.73 13.7042 16.01 12.8742 16.01 12.0042C16.01 11.1342 15.73 10.3042 15.21 9.60423C14.88 9.16423 14.97 8.53423 15.41 8.20423C15.85 7.87423 16.48 7.96423 16.81 8.40423C17.6 9.45423 18.01 10.6942 18.01 12.0042C18.01 13.3142 17.59 14.5642 16.81 15.6042C16.61 15.8642 16.31 16.0042 16.01 16.0042Z" fill="currentColor"/>
<path d="M5.3 19.0042C5.03 19.0042 4.75 18.8942 4.55 18.6742C2.91 16.8442 2 14.4742 2 12.0042C2 9.53423 2.9 7.17423 4.55 5.33423C4.92 4.92423 5.55 4.88423 5.96 5.25423C6.37 5.62423 6.41 6.25423 6.04 6.66423C4.73 8.13423 4 10.0242 4 11.9942C4 13.9642 4.72 15.8642 6.04 17.3242C6.41 17.7342 6.37 18.3642 5.96 18.7342C5.77 18.9042 5.53 18.9842 5.29 18.9842L5.3 19.0042Z" fill="currentColor"/>
<path d="M8.01 16.0042C7.71 16.0042 7.41 15.8642 7.21 15.6042C6.42 14.5542 6.01 13.3142 6.01 12.0042C6.01 10.6942 6.43 9.44423 7.21 8.40423C7.54 7.96423 8.17 7.87423 8.61 8.20423C9.05 8.53423 9.14 9.16423 8.81 9.60423C8.29 10.3042 8.01 11.1342 8.01 12.0042C8.01 12.8742 8.29 13.7042 8.81 14.4042C9.14 14.8442 9.05 15.4742 8.61 15.8042C8.43 15.9342 8.22 16.0042 8.01 16.0042Z" fill="currentColor"/>
  </symbol>
  <symbol id="ic_live_camera" viewBox="0 0 24 24">
    <path d="M16.5 12C17.1922 12 17.8689 11.7947 18.4445 11.4101C19.0201 11.0256 19.4687 10.4789 19.7336 9.83939C19.9985 9.19985 20.0678 8.49612 19.9328 7.81719C19.7977 7.13825 19.4644 6.51461 18.9749 6.02513C18.4854 5.53564 17.8618 5.2023 17.1828 5.06725C16.5039 4.93221 15.8002 5.00152 15.1606 5.26642C14.5211 5.53133 13.9744 5.97993 13.5899 6.55551C13.2053 7.13108 13 7.80777 13 8.5C13 9.42826 13.3688 10.3185 14.0251 10.9749C14.6815 11.6313 15.5717 12 16.5 12ZM19.55 14.72L18 15.5V14C18 13.7348 17.8946 13.4804 17.7071 13.2929C17.5196 13.1054 17.2652 13 17 13H7C6.73479 13 6.48043 13.1054 6.2929 13.2929C6.10536 13.4804 6 13.7348 6 14V20C6 20.2652 6.10536 20.5196 6.2929 20.7071C6.48043 20.8946 6.73479 21 7 21H17C17.2652 21 17.5196 20.8946 17.7071 20.7071C17.8946 20.5196 18 20.2652 18 20V18.5L19.55 19.28C19.703 19.3571 19.8732 19.3936 20.0444 19.386C20.2155 19.3784 20.3818 19.327 20.5274 19.2366C20.6729 19.1463 20.7928 19.0201 20.8756 18.8701C20.9584 18.7201 21.0012 18.5513 21 18.38V15.62C21.0012 15.4487 20.9584 15.2799 20.8756 15.1299C20.7928 14.9799 20.6729 14.8537 20.5274 14.7634C20.3818 14.673 20.2155 14.6216 20.0444 14.614C19.8732 14.6064 19.703 14.6429 19.55 14.72ZM12 7.5C12 6.60999 11.7361 5.73996 11.2416 4.99994C10.7471 4.25991 10.0443 3.68314 9.22208 3.34254C8.39981 3.00195 7.49501 2.91283 6.6221 3.08647C5.74918 3.2601 4.94736 3.68868 4.31802 4.31802C3.68868 4.94736 3.2601 5.74918 3.08647 6.6221C2.91283 7.49501 3.00195 8.39981 3.34254 9.22208C3.68314 10.0443 4.25991 10.7471 4.99994 11.2416C5.73996 11.7361 6.60999 12 7.5 12C8.09132 12.0013 8.67708 11.8858 9.22364 11.6601C9.7702 11.4345 10.2668 11.103 10.6849 10.6849C11.103 10.2668 11.4345 9.7702 11.6601 9.22364C11.8858 8.67708 12.0013 8.09132 12 7.5Z" fill="currentColor"/>
  </symbol>
  <symbol id="ic_live_off" viewBox="0 0 24 24">
    <path d="M4.64001 15.1198C4.23001 14.1598 4.00001 13.1098 4.00001 11.9998C4.00001 9.94982 4.77001 8.07982 6.04001 6.66982C6.41001 6.25982 6.37001 5.62982 5.96001 5.25982C5.55001 4.88982 4.92001 4.92982 4.55001 5.33982C2.97001 7.10982 2.01001 9.43983 2.01001 12.0098C2.01001 13.6698 2.42001 15.2398 3.15001 16.6298L4.64001 15.1198Z" fill="currentColor"/>
<path d="M19.7401 5.66982L20.7001 4.70982C21.0901 4.31982 21.0901 3.68982 20.7001 3.29982C20.3101 2.90982 19.6801 2.90982 19.2901 3.29982L3.29006 19.2998C2.90006 19.6898 2.90006 20.3198 3.29006 20.7098C3.49006 20.9098 3.74006 20.9998 4.00006 20.9998C4.26006 20.9998 4.51006 20.8998 4.71006 20.7098L11.4901 13.9298C11.6501 13.9698 11.8201 13.9998 12.0001 13.9998C13.1001 13.9998 14.0001 13.0998 14.0001 11.9998C14.0001 11.8198 13.9701 11.6498 13.9301 11.4898L15.4501 9.96982C15.8001 10.5698 16.0101 11.2498 16.0101 11.9998C16.0101 12.9098 15.7201 13.7298 15.2101 14.3998C14.8801 14.8398 14.9701 15.4698 15.4101 15.7998C15.8501 16.1298 16.4801 16.0398 16.8101 15.5998C17.5601 14.5898 18.0101 13.3598 18.0101 11.9998C18.0101 10.7298 17.6201 9.55982 16.9501 8.58982L16.9001 8.51982L18.3301 7.08982C19.3801 8.43982 20.0101 10.1498 20.0101 11.9898C20.0101 14.0298 19.2401 15.9098 17.9701 17.3198C17.6001 17.7298 17.6401 18.3598 18.0501 18.7298C18.4601 19.0998 19.0901 19.0598 19.4601 18.6498C21.0401 16.8798 22.0001 14.5398 22.0001 11.9798C22.0001 9.58982 21.1601 7.38982 19.7401 5.66982Z" fill="currentColor"/>
<path d="M6.21 13.5398L8.02 11.7298C8.07 10.9298 8.34 10.1998 8.8 9.59982L8.86 9.51982C9.12 9.08983 9.02 8.51982 8.6 8.20982C8.19 7.89982 7.61 7.95982 7.27 8.32982L7.2 8.40982C6.45 9.41982 6 10.6498 6 12.0098C6 12.5498 6.08 13.0498 6.21 13.5398Z" fill="currentColor"/>
  </symbol>
</svg>
