<!-- JioGames DLS — local icons (1 icons) -->
<svg xmlns="http://www.w3.org/2000/svg" style="display:none">
  <symbol id="ic_local_search" viewBox="0 0 24 24">
    <path d="M22.71 18.2901L20.71 16.2901C20.71 16.2901 20.6 16.2201 20.55 16.1801C20.83 15.6801 21 15.1101 21 14.4901C21 12.5601 19.43 10.9901 17.5 10.9901C15.57 10.9901 14 12.5601 14 14.4901C14 16.4201 15.57 17.9901 17.5 17.9901C18.11 17.9901 18.68 17.8201 19.19 17.5401C19.23 17.5901 19.25 17.6501 19.3 17.7001L21.3 19.7001C21.5 19.9001 21.75 19.9901 22.01 19.9901C22.27 19.9901 22.52 19.8901 22.72 19.7001C23.11 19.3101 23.11 18.6801 22.72 18.2901H22.71ZM17.5 16.0001C16.67 16.0001 16 15.3301 16 14.5001C16 13.6701 16.67 13.0001 17.5 13.0001C18.33 13.0001 19 13.6701 19 14.5001C19 15.3301 18.33 16.0001 17.5 16.0001ZM22 11.3501V10.3301C22 9.53014 21.68 8.77014 21.12 8.21014L17.12 4.21014C16.95 4.04014 16.75 3.91014 16.54 3.81014V9.08014C16.85 9.03014 17.17 8.99014 17.5 8.99014C19.36 8.99014 21.01 9.92014 22 11.3401V11.3501ZM15.5 9.38014V3.61014C15.21 3.63014 14.93 3.71014 14.67 3.85014L9.50001 6.80014V20.4901C9.78001 20.4501 10.04 20.3401 10.27 20.1801L13.29 18.0301C12.49 17.0701 12 15.8401 12 14.5001C12 12.1701 13.46 10.1801 15.5 9.38014ZM3.61001 3.51014C3.34001 3.49014 3.06001 3.55014 2.82001 3.67014C2.58001 3.80014 2.37001 3.99014 2.23001 4.22014C2.09001 4.45014 2.01001 4.72014 2.01001 5.00014V13.7101C2.01001 14.1401 2.09001 14.5701 2.26001 14.9601C2.43001 15.3501 2.69001 15.7101 3.01001 15.9901L7.82001 20.0901C8.02001 20.2601 8.26001 20.3901 8.51001 20.4601V6.73014L4.38001 3.78014C4.16001 3.62014 3.89001 3.53014 3.62001 3.51014H3.61001Z" fill="currentColor"/>
  </symbol>
</svg>
