<!-- JioGames DLS — location icons (9 icons) -->
<svg xmlns="http://www.w3.org/2000/svg" style="display:none">
  <symbol id="ic_location" viewBox="0 0 24 24">
    <path d="M12 2.00019C9.93261 1.95179 7.93021 2.72425 6.43094 4.14855C4.93168 5.57286 4.05761 7.53304 4 9.60019C4 14.6802 9.91 20.7402 10.59 21.4102C10.9647 21.7827 11.4716 21.9918 12 21.9918C12.5284 21.9918 13.0353 21.7827 13.41 21.4102C14.09 20.7402 20 14.6802 20 9.60019C19.9424 7.53304 19.0683 5.57286 17.5691 4.14855C16.0698 2.72425 14.0674 1.95179 12 2.00019ZM12 13.0002C11.4067 13.0002 10.8266 12.8242 10.3333 12.4946C9.83994 12.165 9.45542 11.6964 9.22836 11.1482C9.0013 10.6001 8.94189 9.99686 9.05764 9.41492C9.1734 8.83298 9.45912 8.29843 9.87868 7.87887C10.2982 7.45931 10.8328 7.17359 11.4147 7.05784C11.9967 6.94208 12.5999 7.00149 13.1481 7.22855C13.6962 7.45562 14.1648 7.84013 14.4944 8.33348C14.8241 8.82683 15 9.40685 15 10.0002C15 10.7958 14.6839 11.5589 14.1213 12.1215C13.5587 12.6841 12.7956 13.0002 12 13.0002Z" fill="currentColor"/>
  </symbol>
  <symbol id="ic_location_doctor" viewBox="0 0 24 24">
    <path d="M14 9.00015H13V8.00015C13 7.73493 12.8946 7.48058 12.7071 7.29304C12.5196 7.10551 12.2652 7.00015 12 7.00015C11.7348 7.00015 11.4804 7.10551 11.2929 7.29304C11.1054 7.48058 11 7.73493 11 8.00015V9.00015H10C9.73478 9.00015 9.48043 9.10551 9.29289 9.29304C9.10536 9.48058 9 9.73493 9 10.0001C9 10.2654 9.10536 10.5197 9.29289 10.7073C9.48043 10.8948 9.73478 11.0001 10 11.0001H11V12.0001C11 12.2654 11.1054 12.5197 11.2929 12.7073C11.4804 12.8948 11.7348 13.0001 12 13.0001C12.2652 13.0001 12.5196 12.8948 12.7071 12.7073C12.8946 12.5197 13 12.2654 13 12.0001V11.0001H14C14.2652 11.0001 14.5196 10.8948 14.7071 10.7073C14.8946 10.5197 15 10.2654 15 10.0001C15 9.73493 14.8946 9.48058 14.7071 9.29304C14.5196 9.10551 14.2652 9.00015 14 9.00015ZM17.57 4.08015C16.8286 3.37311 15.9549 2.81927 14.9992 2.45034C14.0434 2.08141 13.0242 1.90464 12 1.93015C9.93261 1.88175 7.93021 2.65421 6.43094 4.07851C4.93168 5.50282 4.05761 7.46299 4 9.53015C4 14.6101 9.91 20.6702 10.59 21.3402C10.9647 21.7127 11.4716 21.9217 12 21.9217C12.5284 21.9217 13.0353 21.7127 13.41 21.3402C14.09 20.6702 20 14.6101 20 9.53015C19.9433 7.46346 19.0694 5.50357 17.57 4.08015ZM12 15.8601C10.5241 15.866 9.0991 15.3212 8.00347 14.3323C6.90784 13.3435 6.22034 11.9816 6.07533 10.5128C5.93033 9.04403 6.33825 7.57399 7.21937 6.38997C8.10049 5.20594 9.39147 4.39305 10.84 4.11015C11.992 3.88557 13.1845 4.00378 14.27 4.45015C15.5384 4.97464 16.5856 5.92291 17.233 7.13325C17.8804 8.34359 18.0879 9.74102 17.8201 11.0872C17.5522 12.4335 16.8257 13.6451 15.7644 14.5155C14.703 15.3858 13.3726 15.8611 12 15.8601Z" fill="currentColor"/>
  </symbol>
  <symbol id="ic_location_hospital" viewBox="0 0 24 24">
    <path d="M14 7.00015C13.7348 7.00015 13.4804 7.10551 13.2929 7.29304C13.1054 7.48058 13 7.73493 13 8.00015V9.00015H11V8.00015C11 7.73493 10.8946 7.48058 10.7071 7.29304C10.5196 7.10551 10.2652 7.00015 10 7.00015C9.73478 7.00015 9.48043 7.10551 9.29289 7.29304C9.10536 7.48058 9 7.73493 9 8.00015V12.0001C9 12.2654 9.10536 12.5197 9.29289 12.7073C9.48043 12.8948 9.73478 13.0001 10 13.0001C10.2652 13.0001 10.5196 12.8948 10.7071 12.7073C10.8946 12.5197 11 12.2654 11 12.0001V11.0001H13V12.0001C13 12.2654 13.1054 12.5197 13.2929 12.7073C13.4804 12.8948 13.7348 13.0001 14 13.0001C14.2652 13.0001 14.5196 12.8948 14.7071 12.7073C14.8946 12.5197 15 12.2654 15 12.0001V8.00015C15 7.73493 14.8946 7.48058 14.7071 7.29304C14.5196 7.10551 14.2652 7.00015 14 7.00015ZM17.57 4.08015C16.8286 3.37311 15.9549 2.81927 14.9992 2.45034C14.0434 2.08141 13.0242 1.90464 12 1.93015C9.93261 1.88175 7.93021 2.65421 6.43094 4.07851C4.93168 5.50282 4.05761 7.46299 4 9.53015C4 14.6101 9.91 20.6702 10.59 21.3402C10.9647 21.7127 11.4716 21.9217 12 21.9217C12.5284 21.9217 13.0353 21.7127 13.41 21.3402C14.09 20.6702 20 14.6101 20 9.53015C19.9433 7.46346 19.0694 5.50357 17.57 4.08015ZM12 15.8601C10.5241 15.866 9.0991 15.3212 8.00347 14.3323C6.90784 13.3435 6.22034 11.9816 6.07533 10.5128C5.93033 9.04403 6.33825 7.57399 7.21937 6.38997C8.10049 5.20594 9.39147 4.39305 10.84 4.11015C11.992 3.88557 13.1845 4.00378 14.27 4.45015C15.5384 4.97464 16.5856 5.92291 17.233 7.13325C17.8804 8.34359 18.0879 9.74102 17.8201 11.0872C17.5522 12.4335 16.8257 13.6451 15.7644 14.5155C14.703 15.3858 13.3726 15.8611 12 15.8601Z" fill="currentColor"/>
  </symbol>
  <symbol id="ic_location_mobile_coolers" viewBox="0 0 24 24">
    <path d="M17 13.0002C17.1316 13.0009 17.2621 12.9757 17.3839 12.9259C17.5057 12.8762 17.6166 12.8029 17.71 12.7102C18 12.3702 21 9.34017 21 6.80017C20.966 5.76834 20.5274 4.79132 19.7789 4.08026C19.0304 3.36921 18.0322 2.98123 17 3.00017C15.9678 2.98123 14.9696 3.36921 14.2211 4.08026C13.4726 4.79132 13.034 5.76834 13 6.80017C13 9.34017 16 12.3702 16.29 12.7102C16.3834 12.8029 16.4943 12.8762 16.6161 12.9259C16.7379 12.9757 16.8684 13.0009 17 13.0002ZM16 7.00017C16 6.80239 16.0586 6.60905 16.1685 6.4446C16.2784 6.28016 16.4346 6.15198 16.6173 6.07629C16.8 6.00061 17.0011 5.9808 17.1951 6.01939C17.3891 6.05797 17.5673 6.15322 17.7071 6.29307C17.847 6.43292 17.9422 6.6111 17.9808 6.80508C18.0194 6.99907 17.9996 7.20013 17.9239 7.38286C17.8482 7.56558 17.72 7.72176 17.5556 7.83164C17.3911 7.94153 17.1978 8.00017 17 8.00017C16.7348 8.00017 16.4804 7.89482 16.2929 7.70728C16.1054 7.51974 16 7.26539 16 7.00017ZM17 15.0002C16.7348 15.0002 16.4804 15.1055 16.2929 15.2931C16.1054 15.4806 16 15.735 16 16.0002V18.0002H13C12.7348 18.0002 12.4804 18.1055 12.2929 18.2931C12.1054 18.4806 12 18.735 12 19.0002C12 19.2654 12.1054 19.5197 12.2929 19.7073C12.4804 19.8948 12.7348 20.0002 13 20.0002H16C16.5304 20.0002 17.0391 19.7895 17.4142 19.4144C17.7893 19.0393 18 18.5306 18 18.0002V16.0002C18 15.735 17.8946 15.4806 17.7071 15.2931C17.5196 15.1055 17.2652 15.0002 17 15.0002ZM11 4.00017H8C7.46957 4.00017 6.96086 4.21089 6.58579 4.58596C6.21071 4.96103 6 5.46974 6 6.00017V7.00017C6 7.26539 6.10536 7.51974 6.29289 7.70728C6.48043 7.89482 6.73478 8.00017 7 8.00017C7.26522 8.00017 7.51957 7.89482 7.70711 7.70728C7.89464 7.51974 8 7.26539 8 7.00017V6.00017H11C11.2652 6.00017 11.5196 5.89482 11.7071 5.70728C11.8946 5.51974 12 5.26539 12 5.00017C12 4.73496 11.8946 4.4806 11.7071 4.29307C11.5196 4.10553 11.2652 4.00017 11 4.00017ZM8 9.00017H5C4.46957 9.00017 3.96086 9.21089 3.58579 9.58596C3.21071 9.96103 3 10.4697 3 11.0002V19.0002C3 19.5306 3.21071 20.0393 3.58579 20.4144C3.96086 20.7895 4.46957 21.0002 5 21.0002H8C8.53043 21.0002 9.03914 20.7895 9.41421 20.4144C9.78929 20.0393 10 19.5306 10 19.0002V11.0002C10 10.4697 9.78929 9.96103 9.41421 9.58596C9.03914 9.21089 8.53043 9.00017 8 9.00017ZM6.5 19.0002C6.30222 19.0002 6.10888 18.9415 5.94443 18.8316C5.77998 18.7218 5.65181 18.5656 5.57612 18.3829C5.50043 18.2001 5.48063 17.9991 5.51921 17.8051C5.5578 17.6111 5.65304 17.4329 5.79289 17.2931C5.93275 17.1532 6.11093 17.058 6.30491 17.0194C6.49889 16.9808 6.69996 17.0006 6.88268 17.0763C7.06541 17.152 7.22159 17.2802 7.33147 17.4446C7.44135 17.6091 7.5 17.8024 7.5 18.0002C7.5 18.2654 7.39464 18.5197 7.20711 18.7073C7.01957 18.8948 6.76522 19.0002 6.5 19.0002Z" fill="currentColor"/>
  </symbol>
  <symbol id="ic_location_off" viewBox="0 0 24 24">
    <path d="M20.4898 3.51019C20.3963 3.41185 20.2839 3.33355 20.1593 3.28004C20.0346 3.22653 19.9004 3.19894 19.7648 3.19894C19.6291 3.19894 19.4949 3.22653 19.3703 3.28004C19.2456 3.33355 19.1332 3.41185 19.0398 3.51019L3.50976 19.0002C3.41193 19.098 3.33432 19.2142 3.28137 19.342C3.22842 19.4698 3.20117 19.6068 3.20117 19.7452C3.20117 19.8836 3.22842 20.0206 3.28137 20.1484C3.33432 20.2762 3.41193 20.3924 3.50976 20.4902C3.70735 20.6878 3.97533 20.7988 4.25476 20.7988C4.39312 20.7988 4.53012 20.7715 4.65795 20.7186C4.78578 20.6656 4.90193 20.588 4.99976 20.4902L7.59976 17.8802C8.51706 19.1247 9.51946 20.3042 10.5998 21.4102C10.9745 21.7827 11.4814 21.9918 12.0098 21.9918C12.5381 21.9918 13.045 21.7827 13.4198 21.4102C14.0898 20.7402 19.9998 14.6802 19.9998 9.60019C19.999 8.4403 19.7177 7.2978 19.1798 6.27019L20.4898 5.00019C20.5945 4.9064 20.6783 4.79157 20.7357 4.6632C20.793 4.53482 20.8227 4.3958 20.8227 4.25519C20.8227 4.11458 20.793 3.97556 20.7357 3.84719C20.6783 3.71882 20.5945 3.60399 20.4898 3.51019ZM9.07976 10.6702C9.02738 10.4507 9.00054 10.2259 8.99976 10.0002C8.99976 9.20454 9.31583 8.44148 9.87844 7.87887C10.441 7.31626 11.2041 7.00019 11.9998 7.00019C12.2254 7.00097 12.4503 7.02781 12.6698 7.08019L16.4598 3.30019C15.1293 2.44651 13.5806 1.9951 11.9998 2.00019C9.93237 1.95179 7.92997 2.72425 6.4307 4.14855C4.93144 5.57286 4.05737 7.53304 3.99976 9.60019C4.07527 11.2808 4.54089 12.9207 5.35976 14.3902L9.07976 10.6702Z" fill="currentColor"/>
  </symbol>
  <symbol id="ic_location_open" viewBox="0 0 24 24">
    <path d="M17.66 4.33995C16.5412 3.21986 15.1151 2.45692 13.5625 2.14772C12.0098 1.83852 10.4003 1.99695 8.93768 2.60297C7.4751 3.20899 6.22521 4.23534 5.34624 5.55209C4.46727 6.86885 3.99876 8.41679 4 9.99995C4 15 9.94 20.8 10.62 21.45C10.992 21.8045 11.4861 22.0023 12 22.0023C12.5139 22.0023 13.008 21.8045 13.38 21.45C14.06 20.8 20 15 20 9.99995C20.0008 8.94907 19.7946 7.90832 19.3931 6.93715C18.9916 5.96599 18.4027 5.08345 17.66 4.33995ZM12 16C10.8133 16 9.65328 15.6481 8.66658 14.9888C7.67989 14.3295 6.91085 13.3924 6.45673 12.2961C6.0026 11.1997 5.88378 9.9933 6.11529 8.82941C6.3468 7.66552 6.91825 6.59643 7.75736 5.75731C8.59648 4.9182 9.66557 4.34675 10.8295 4.11524C11.9933 3.88373 13.1997 4.00255 14.2961 4.45667C15.3925 4.9108 16.3295 5.67984 16.9888 6.66653C17.6481 7.65323 18 8.81326 18 9.99995C18 11.5913 17.3679 13.1174 16.2426 14.2426C15.1174 15.3678 13.5913 16 12 16Z" fill="currentColor"/>
  </symbol>
  <symbol id="ic_location_point" viewBox="0 0 24 24">
    <path d="M17.66 4.33995C16.5412 3.21986 15.1151 2.45692 13.5625 2.14772C12.0098 1.83852 10.4003 1.99695 8.93768 2.60297C7.4751 3.20899 6.22521 4.23534 5.34624 5.55209C4.46727 6.86885 3.99876 8.41679 4 9.99995C4 15 9.94 20.8 10.62 21.45C10.992 21.8045 11.4861 22.0023 12 22.0023C12.5139 22.0023 13.008 21.8045 13.38 21.45C14.06 20.8 20 15 20 9.99995C20.0008 8.94907 19.7946 7.90832 19.3931 6.93715C18.9916 5.96599 18.4027 5.08345 17.66 4.33995ZM12 16C10.8133 16 9.65328 15.6481 8.66658 14.9888C7.67989 14.3295 6.91085 13.3924 6.45673 12.2961C6.0026 11.1997 5.88378 9.9933 6.11529 8.82941C6.3468 7.66552 6.91825 6.59643 7.75736 5.75731C8.59648 4.9182 9.66557 4.34675 10.8295 4.11524C11.9933 3.88373 13.1997 4.00255 14.2961 4.45667C15.3925 4.9108 16.3295 5.67984 16.9888 6.66653C17.6481 7.65323 18 8.81326 18 9.99995C18 11.5913 17.3679 13.1174 16.2426 14.2426C15.1174 15.3678 13.5913 16 12 16ZM12 6.99995C11.4067 6.99995 10.8266 7.1759 10.3333 7.50554C9.83994 7.83519 9.45543 8.30372 9.22836 8.8519C9.0013 9.40008 8.94189 10.0033 9.05765 10.5852C9.1734 11.1672 9.45912 11.7017 9.87868 12.1213C10.2982 12.5408 10.8328 12.8266 11.4147 12.9423C11.9967 13.0581 12.5999 12.9987 13.1481 12.7716C13.6962 12.5445 14.1648 12.16 14.4944 11.6667C14.8241 11.1733 15 10.5933 15 9.99995C15 9.2043 14.6839 8.44124 14.1213 7.87863C13.5587 7.31602 12.7957 6.99995 12 6.99995Z" fill="currentColor"/>
  </symbol>
  <symbol id="ic_location_share" viewBox="0 0 24 24">
    <path d="M17.66 4.33995C16.5412 3.21986 15.1151 2.45692 13.5625 2.14772C12.0098 1.83852 10.4003 1.99695 8.93768 2.60297C7.4751 3.20899 6.22521 4.23534 5.34624 5.55209C4.46727 6.86885 3.99876 8.41679 4 9.99995C4 15 9.94 20.8 10.62 21.45C10.992 21.8045 11.4861 22.0023 12 22.0023C12.5139 22.0023 13.008 21.8045 13.38 21.45C14.06 20.8 20 15 20 9.99995C20.0008 8.94907 19.7946 7.90832 19.3931 6.93715C18.9916 5.96599 18.4027 5.08345 17.66 4.33995ZM12 16C10.8132 15.9988 9.65335 15.6457 8.66723 14.9853C7.6811 14.3249 6.91297 13.3869 6.46 12.29C5.99927 11.1976 5.88072 9.99112 6.12 8.82995C6.35132 7.66705 6.92201 6.59876 7.76 5.75995C8.60039 4.92214 9.66758 4.34857 10.83 4.10995C11.6499 3.95079 12.4941 3.96458 13.3084 4.15042C14.1227 4.33626 14.8892 4.69007 15.5589 5.1892C16.2286 5.68832 16.7867 6.32177 17.1975 7.049C17.6083 7.77623 17.8627 8.58122 17.9445 9.41244C18.0263 10.2437 17.9336 11.0828 17.6725 11.8761C17.4113 12.6695 16.9874 13.3996 16.4278 14.0197C15.8682 14.6398 15.1854 15.1362 14.4229 15.4772C13.6605 15.8182 12.8352 15.9962 12 16ZM12 12C11.8006 11.9995 11.6055 12.0587 11.44 12.17C11.2758 12.2786 11.1499 12.436 11.08 12.62C11.0005 12.7989 10.9795 12.9984 11.02 13.19C11.0574 13.384 11.1515 13.5625 11.2903 13.7031C11.4291 13.8437 11.6065 13.9401 11.8 13.98C11.995 14.018 12.1969 13.9971 12.38 13.92C12.5665 13.8493 12.7246 13.7193 12.83 13.55C12.9394 13.3872 12.9985 13.196 13 13C13.0008 12.8683 12.9755 12.7379 12.9258 12.616C12.876 12.4942 12.8027 12.3834 12.71 12.29C12.6166 12.1973 12.5057 12.1239 12.3839 12.0742C12.2621 12.0244 12.1316 11.9992 12 12ZM12 8.99995C11.0174 8.99402 10.067 9.34998 9.33 9.99995C9.22312 10.0845 9.13464 10.19 9.07 10.31C9.02089 10.434 8.99709 10.5666 9 10.7C8.97486 10.8321 8.97486 10.9678 9 11.1C9.04057 11.2297 9.10881 11.3491 9.2 11.45C9.29635 11.5472 9.40779 11.6283 9.53 11.69C9.65659 11.7445 9.79224 11.775 9.93 11.78C10.0644 11.7834 10.1978 11.7561 10.32 11.7C10.4472 11.6506 10.5629 11.5757 10.66 11.48C11.0263 11.1538 11.4996 10.9736 11.99 10.9736C12.4804 10.9736 12.9537 11.1538 13.32 11.48C13.5034 11.6466 13.7422 11.7393 13.99 11.74C14.1285 11.7411 14.2654 11.7103 14.39 11.65C14.5202 11.597 14.6365 11.5149 14.73 11.41C14.9085 11.2148 15.0024 10.9568 14.9912 10.6926C14.9799 10.4283 14.8644 10.1793 14.67 9.99995C13.933 9.34998 12.9826 8.99402 12 8.99995ZM15.5 6.89995C14.432 6.29709 13.2264 5.98031 12 5.98031C10.7736 5.98031 9.568 6.29709 8.5 6.89995C8.38245 6.96402 8.28012 7.0527 8.2 7.15995C8.10715 7.25957 8.03869 7.37938 8 7.50995C7.97976 7.63916 7.97976 7.77074 8 7.89995C8.0184 8.03021 8.06232 8.15555 8.12925 8.26881C8.19617 8.38206 8.28478 8.481 8.39 8.55995C8.49252 8.64202 8.61211 8.70011 8.74 8.72995C8.86874 8.75555 9.00126 8.75555 9.13 8.72995C9.26071 8.71146 9.38646 8.66728 9.5 8.59995C10.262 8.1669 11.1235 7.93922 12 7.93922C12.8765 7.93922 13.738 8.1669 14.5 8.59995C14.6712 8.69948 14.868 8.74596 15.0656 8.7335C15.2632 8.72104 15.4527 8.6502 15.61 8.52995C15.8002 8.40672 15.9389 8.21824 16 7.99995C16.0724 7.78933 16.0724 7.56057 16 7.34995C15.8872 7.14918 15.7115 6.99106 15.5 6.89995Z" fill="currentColor"/>
  </symbol>
  <symbol id="ic_location_vehicle" viewBox="0 0 24 24">
    <path d="M7.99995 2.99992C6.75995 2.96992 5.55995 3.42992 4.65995 4.28992C3.75995 5.13992 3.23995 6.31992 3.19995 7.55992C3.19995 10.6099 6.74995 14.2499 7.15995 14.6499C7.37995 14.8699 7.68995 14.9999 8.00995 14.9999C8.32995 14.9999 8.62995 14.8699 8.85995 14.6499C9.26995 14.2499 12.82 10.6099 12.82 7.55992C12.79 6.31992 12.26 5.13992 11.36 4.28992C10.46 3.43992 9.25995 2.96992 8.01995 2.99992H7.99995ZM7.99995 9.59992C7.63995 9.59992 7.29995 9.48992 6.99995 9.29992C6.69995 9.09992 6.46995 8.81991 6.33995 8.48991C6.19995 8.15991 6.16995 7.79991 6.23995 7.44991C6.30995 7.09992 6.47995 6.77992 6.72995 6.52992C6.97995 6.27992 7.29995 6.10992 7.64995 6.03992C7.99995 5.96992 8.35995 6.00992 8.68995 6.13992C9.01995 6.27992 9.29995 6.50992 9.49995 6.79992C9.69995 7.09992 9.79995 7.43992 9.79995 7.79992C9.79995 8.27992 9.60995 8.73991 9.26995 9.06991C8.92995 9.39991 8.46995 9.59992 7.99995 9.59992Z" fill="currentColor"/>
<path d="M20.71 13.96C20.52 13.68 20.26 13.46 19.95 13.34L18.79 9.84996C18.61 9.34996 18.29 8.91996 17.85 8.61996C17.42 8.31996 16.9 8.14996 16.37 8.14996H14.76C14.71 8.70996 14.58 9.25996 14.41 9.80996H16.42C16.61 9.80996 16.79 9.84996 16.94 9.95996C17.09 10.06 17.21 10.22 17.27 10.39L18.12 13.21H12.65C11.65 14.65 10.61 15.72 10.25 16.08C9.64999 16.68 8.83999 17.01 7.98999 17.01C7.13999 17.01 6.33999 16.68 5.73999 16.09C5.47999 15.83 4.83999 15.18 4.12999 14.28C4.04999 14.48 3.98999 14.69 3.98999 14.91V17.46C3.98999 17.76 4.06999 18.05 4.21999 18.3C4.36999 18.56 4.57999 18.77 4.83999 18.92V20.01C4.83999 20.24 4.92999 20.45 5.08999 20.61C5.24999 20.77 5.46999 20.86 5.68999 20.86C5.90999 20.86 6.12999 20.77 6.28999 20.61C6.44999 20.45 6.53999 20.23 6.53999 20.01V19.16H18.44V20.01C18.44 20.24 18.53 20.45 18.69 20.61C18.85 20.77 19.07 20.86 19.29 20.86C19.51 20.86 19.73 20.77 19.89 20.61C20.05 20.45 20.14 20.23 20.14 20.01V18.92C20.4 18.77 20.61 18.56 20.76 18.3C20.91 18.04 20.99 17.75 20.99 17.46V14.91C20.99 14.58 20.89 14.25 20.7 13.97L20.71 13.96ZM18.2 16.34C18.06 16.48 17.88 16.57 17.68 16.59C17.48 16.61 17.29 16.56 17.12 16.45C16.98 16.36 16.87 16.22 16.81 16.07C16.74 15.92 16.72 15.76 16.74 15.59C16.77 15.42 16.85 15.27 16.97 15.14C17.09 15.02 17.25 14.94 17.42 14.91C17.59 14.88 17.76 14.9 17.91 14.96C18.07 15.02 18.2 15.13 18.29 15.27C18.4 15.43 18.45 15.63 18.43 15.83C18.41 16.03 18.32 16.21 18.18 16.35L18.2 16.34Z" fill="currentColor"/>
  </symbol>
</svg>
