<!-- JioGames DLS — lock icons (3 icons) -->
<svg xmlns="http://www.w3.org/2000/svg" style="display:none">
  <symbol id="ic_lock" viewBox="0 0 24 24">
    <path d="M17 7H16V6C16 4.93913 15.5786 3.92172 14.8284 3.17157C14.0783 2.42143 13.0609 2 12 2C10.9391 2 9.92172 2.42143 9.17157 3.17157C8.42143 3.92172 8 4.93913 8 6V7H7C6.20435 7 5.44129 7.31607 4.87868 7.87868C4.31607 8.44129 4 9.20435 4 10V19C4 19.7956 4.31607 20.5587 4.87868 21.1213C5.44129 21.6839 6.20435 22 7 22H17C17.7956 22 18.5587 21.6839 19.1213 21.1213C19.6839 20.5587 20 19.7956 20 19V10C20 9.20435 19.6839 8.44129 19.1213 7.87868C18.5587 7.31607 17.7956 7 17 7ZM12 16C11.6044 16 11.2178 15.8827 10.8889 15.6629C10.56 15.4432 10.3036 15.1308 10.1522 14.7654C10.0009 14.3999 9.96126 13.9978 10.0384 13.6098C10.1156 13.2219 10.3061 12.8655 10.5858 12.5858C10.8655 12.3061 11.2219 12.1156 11.6098 12.0384C11.9978 11.9613 12.3999 12.0009 12.7654 12.1522C13.1308 12.3036 13.4432 12.56 13.6629 12.8889C13.8827 13.2178 14 13.6044 14 14C14 14.5304 13.7893 15.0391 13.4142 15.4142C13.0391 15.7893 12.5304 16 12 16ZM14 7H10V6C10 5.46957 10.2107 4.96086 10.5858 4.58579C10.9609 4.21071 11.4696 4 12 4C12.5304 4 13.0391 4.21071 13.4142 4.58579C13.7893 4.96086 14 5.46957 14 6V7Z" fill="currentColor"/>
  </symbol>
  <symbol id="ic_lock_unlock" viewBox="0 0 24 24">
    <path d="M17 7.00018H10V6.07018C9.98563 5.61599 10.1264 5.17046 10.399 4.80693C10.6716 4.4434 11.06 4.18355 11.5 4.07018C11.859 3.97979 12.2361 3.99083 12.5892 4.10206C12.9423 4.21329 13.2576 4.42035 13.5 4.70018C13.5929 4.79768 13.7046 4.8754 13.8284 4.92867C13.9521 4.98194 14.0853 5.00966 14.22 5.01018C14.4205 5.02178 14.6199 4.97273 14.7922 4.86941C14.9644 4.76609 15.1016 4.61329 15.1857 4.43091C15.2699 4.24853 15.2972 4.04502 15.2641 3.84691C15.231 3.64879 15.1389 3.46525 15 3.32018C14.5595 2.81783 14.0001 2.43383 13.373 2.20326C12.7459 1.97268 12.071 1.90286 11.41 2.00018C10.4367 2.17218 9.55729 2.68757 8.93159 3.45272C8.30588 4.21788 7.97535 5.18207 8 6.17018V7.00018H7C6.20435 7.00018 5.44129 7.31625 4.87868 7.87886C4.31607 8.44147 4 9.20453 4 10.0002V19.0002C4 19.7958 4.31607 20.5589 4.87868 21.1215C5.44129 21.6841 6.20435 22.0002 7 22.0002H17C17.7956 22.0002 18.5587 21.6841 19.1213 21.1215C19.6839 20.5589 20 19.7958 20 19.0002V10.0002C20 9.20453 19.6839 8.44147 19.1213 7.87886C18.5587 7.31625 17.7956 7.00018 17 7.00018ZM12 16.0002C11.6044 16.0002 11.2178 15.8829 10.8889 15.6631C10.56 15.4434 10.3036 15.131 10.1522 14.7655C10.0009 14.4001 9.96126 13.998 10.0384 13.61C10.1156 13.222 10.3061 12.8657 10.5858 12.586C10.8655 12.3063 11.2219 12.1158 11.6098 12.0386C11.9978 11.9614 12.3999 12.001 12.7654 12.1524C13.1308 12.3038 13.4432 12.5601 13.6629 12.889C13.8827 13.2179 14 13.6046 14 14.0002C14 14.5306 13.7893 15.0393 13.4142 15.4144C13.0391 15.7895 12.5304 16.0002 12 16.0002Z" fill="currentColor"/>
  </symbol>
  <symbol id="ic_lock_wireless" viewBox="0 0 24 24">
    <path d="M15.6477 12.1249H14.9881V11.4653C14.9881 10.7656 14.7082 10.096 14.2184 9.6062C13.7287 9.11644 13.059 8.83658 12.3594 8.83658C11.6597 8.83658 10.9901 9.11644 10.5003 9.6062C10.0106 10.096 9.73069 10.7656 9.73069 11.4653V12.1249H9.07102C8.55128 12.1249 8.04154 12.3348 7.67172 12.7046C7.30191 13.0745 7.09201 13.5742 7.09201 14.1039V20.021C7.09201 20.5407 7.30191 21.0505 7.67172 21.4203C8.04154 21.7901 8.54129 22 9.07102 22H15.6477C16.1675 22 16.6772 21.7901 17.047 21.4203C17.4168 21.0505 17.6267 20.5507 17.6267 20.021V14.1039C17.6267 13.5842 17.4168 13.0745 17.047 12.7046C16.6772 12.3348 16.1775 12.1249 15.6477 12.1249ZM13.2889 17.6622C13.039 17.912 12.7092 18.052 12.3594 18.052C12.0995 18.052 11.8496 17.972 11.6297 17.8321C11.4099 17.6922 11.2399 17.4823 11.15 17.2424C11.06 17.0025 11.02 16.7326 11.08 16.4828C11.13 16.2229 11.2599 15.993 11.4398 15.8131C11.6197 15.6332 11.8596 15.5032 12.1095 15.4533C12.3694 15.4033 12.6292 15.4333 12.8691 15.5232C13.109 15.6132 13.3189 15.7931 13.4588 16.003C13.5988 16.2229 13.6787 16.4728 13.6787 16.7326C13.6787 17.0825 13.5388 17.4123 13.2889 17.6622ZM11.04 12.1249V11.4653C11.04 11.1154 11.18 10.7856 11.4298 10.5357C11.6797 10.2859 12.0096 10.1459 12.3594 10.1459C12.7092 10.1459 13.039 10.2859 13.2889 10.5357C13.5388 10.7856 13.6787 11.1154 13.6787 11.4653V12.1249H11.04Z" fill="currentColor"/>
<path d="M7.95158 9.44628C8.3214 9.63618 8.78117 9.49625 8.98107 9.12644C9.66073 7.84708 10.9301 7.05747 12.3994 7.05747C13.8686 7.05747 15.088 7.86707 15.7577 9.17641C15.8876 9.43628 16.1575 9.58621 16.4373 9.58621C16.5573 9.58621 16.6772 9.55622 16.7872 9.50625C17.157 9.31634 17.3069 8.85657 17.117 8.48676C16.1875 6.66767 14.3784 5.54823 12.3194 5.54823C10.3804 5.54823 8.58127 6.64768 7.64174 8.42679C7.44184 8.7966 7.59176 9.25637 7.96158 9.45627L7.95158 9.44628Z" fill="currentColor"/>
<path d="M20.0655 6.42779C18.5063 3.69915 15.5778 2 12.4393 2H12.2794C9.13099 2 6.21245 3.69915 4.65323 6.42779C4.44333 6.78761 4.57327 7.25737 4.93309 7.46727C5.3029 7.67716 5.76267 7.54723 5.97257 7.18741C7.26193 4.92854 9.68072 3.51924 12.2794 3.51924H12.4393C15.038 3.51924 17.4568 4.92854 18.7462 7.18741C18.8861 7.43728 19.146 7.56722 19.4059 7.56722C19.5358 7.56722 19.6657 7.53723 19.7857 7.46727C20.1455 7.25737 20.2754 6.7976 20.0655 6.42779Z" fill="currentColor"/>
  </symbol>
</svg>
