<!-- JioGames DLS — lose icons (2 icons) -->
<svg xmlns="http://www.w3.org/2000/svg" style="display:none">
  <symbol id="ic_close" viewBox="0 0 24 24">
    <path d="M13.4099 12.0002L19.7099 5.71019C19.8982 5.52188 20.004 5.26649 20.004 5.00019C20.004 4.73388 19.8982 4.47849 19.7099 4.29019C19.5216 4.10188 19.2662 3.99609 18.9999 3.99609C18.7336 3.99609 18.4782 4.10188 18.2899 4.29019L11.9999 10.5902L5.70994 4.29019C5.52164 4.10188 5.26624 3.99609 4.99994 3.99609C4.73364 3.99609 4.47824 4.10188 4.28994 4.29019C4.10164 4.47849 3.99585 4.73388 3.99585 5.00019C3.99585 5.26649 4.10164 5.52188 4.28994 5.71019L10.5899 12.0002L4.28994 18.2902C4.19621 18.3831 4.12182 18.4937 4.07105 18.6156C4.02028 18.7375 3.99414 18.8682 3.99414 19.0002C3.99414 19.1322 4.02028 19.2629 4.07105 19.3848C4.12182 19.5066 4.19621 19.6172 4.28994 19.7102C4.3829 19.8039 4.4935 19.8783 4.61536 19.9291C4.73722 19.9798 4.86793 20.006 4.99994 20.006C5.13195 20.006 5.26266 19.9798 5.38452 19.9291C5.50638 19.8783 5.61698 19.8039 5.70994 19.7102L11.9999 13.4102L18.2899 19.7102C18.3829 19.8039 18.4935 19.8783 18.6154 19.9291C18.7372 19.9798 18.8679 20.006 18.9999 20.006C19.132 20.006 19.2627 19.9798 19.3845 19.9291C19.5064 19.8783 19.617 19.8039 19.7099 19.7102C19.8037 19.6172 19.8781 19.5066 19.9288 19.3848C19.9796 19.2629 20.0057 19.1322 20.0057 19.0002C20.0057 18.8682 19.9796 18.7375 19.9288 18.6156C19.8781 18.4937 19.8037 18.3831 19.7099 18.2902L13.4099 12.0002Z" fill="currentColor"/>
  </symbol>
  <symbol id="ic_close_remove" viewBox="0 0 24 24">
    <path d="M12 2C10.0222 2 8.08879 2.58649 6.4443 3.6853C4.79981 4.78412 3.51809 6.3459 2.76121 8.17317C2.00433 10.0004 1.8063 12.0111 2.19215 13.9509C2.578 15.8907 3.53041 17.6725 4.92894 19.0711C6.32746 20.4696 8.10929 21.422 10.0491 21.8079C11.9889 22.1937 13.9996 21.9957 15.8268 21.2388C17.6541 20.4819 19.2159 19.2002 20.3147 17.5557C21.4135 15.9112 22 13.9778 22 12C22 10.6868 21.7413 9.38642 21.2388 8.17317C20.7363 6.95991 19.9997 5.85752 19.0711 4.92893C18.1425 4.00035 17.0401 3.26375 15.8268 2.7612C14.6136 2.25866 13.3132 2 12 2ZM15.71 14.29C15.8037 14.383 15.8781 14.4936 15.9289 14.6154C15.9797 14.7373 16.0058 14.868 16.0058 15C16.0058 15.132 15.9797 15.2627 15.9289 15.3846C15.8781 15.5064 15.8037 15.617 15.71 15.71C15.617 15.8037 15.5064 15.8781 15.3846 15.9289C15.2627 15.9797 15.132 16.0058 15 16.0058C14.868 16.0058 14.7373 15.9797 14.6154 15.9289C14.4936 15.8781 14.383 15.8037 14.29 15.71L12 13.41L9.71 15.71C9.61704 15.8037 9.50644 15.8781 9.38458 15.9289C9.26272 15.9797 9.13202 16.0058 9 16.0058C8.86799 16.0058 8.73729 15.9797 8.61543 15.9289C8.49357 15.8781 8.38297 15.8037 8.29 15.71C8.19628 15.617 8.12188 15.5064 8.07111 15.3846C8.02034 15.2627 7.99421 15.132 7.99421 15C7.99421 14.868 8.02034 14.7373 8.07111 14.6154C8.12188 14.4936 8.19628 14.383 8.29 14.29L10.59 12L8.29 9.71C8.1017 9.5217 7.99591 9.2663 7.99591 9C7.99591 8.7337 8.1017 8.4783 8.29 8.29C8.47831 8.1017 8.7337 7.99591 9 7.99591C9.26631 7.99591 9.5217 8.1017 9.71 8.29L12 10.59L14.29 8.29C14.4783 8.1017 14.7337 7.99591 15 7.99591C15.2663 7.99591 15.5217 8.1017 15.71 8.29C15.8983 8.4783 16.0041 8.7337 16.0041 9C16.0041 9.2663 15.8983 9.5217 15.71 9.71L13.41 12L15.71 14.29Z" fill="currentColor"/>
  </symbol>
</svg>
