<!-- JioGames DLS — loud icons (9 icons) -->
<svg xmlns="http://www.w3.org/2000/svg" style="display:none">
  <symbol id="ic_cloud" viewBox="0 0 24 24">
    <path d="M20.0002 11.5398C20.0101 11.36 20.0101 11.1797 20.0002 10.9998C20.0016 9.67781 19.5664 8.3923 18.7622 7.34304C17.9579 6.29379 16.8296 5.53954 15.5526 5.19748C14.2756 4.85542 12.9213 4.94471 11.7003 5.45146C10.4792 5.95822 9.45972 6.85408 8.80017 7.99985C8.11461 8.0364 7.45 8.2488 6.87029 8.61659C6.29059 8.98438 5.8153 9.49518 5.49017 10.0998C4.3938 10.2745 3.40132 10.85 2.70514 11.7147C2.00896 12.5795 1.65867 13.672 1.72219 14.7804C1.7857 15.8887 2.25849 16.9341 3.0489 17.7137C3.83931 18.4933 4.89103 18.9516 6.00017 18.9998H18.0002C18.8794 18.9983 19.7336 18.7071 20.4307 18.1713C21.1278 17.6355 21.629 16.8849 21.8567 16.0357C22.0843 15.1864 22.0259 14.2858 21.6903 13.4732C21.3547 12.6605 20.7607 11.981 20.0002 11.5398Z" fill="currentColor"/>
  </symbol>
  <symbol id="ic_cloud_connect" viewBox="0 0 24 24">
    <path d="M7.00022 14.9998H17.0002C17.8826 15.002 18.7411 14.7124 19.4418 14.1761C20.1425 13.6397 20.6462 12.8867 20.8744 12.0343C21.1026 11.1819 21.0426 10.2779 20.7036 9.4632C20.3646 8.64848 19.7657 7.96871 19.0002 7.52976C18.8846 6.53145 18.4708 5.59114 17.8129 4.83149C17.1549 4.07183 16.2833 3.52807 15.3117 3.27114C14.3401 3.01421 13.3136 3.05603 12.3662 3.39114C11.4187 3.72625 10.5942 4.3391 10.0002 5.14976C9.67778 5.04354 9.33964 4.99282 9.00022 4.99976C8.3651 5.0016 7.74695 5.20495 7.23479 5.58053C6.72262 5.95612 6.34287 6.48456 6.15022 7.08976C5.1845 7.29815 4.33006 7.85656 3.75152 8.6574C3.17298 9.45824 2.91128 10.4448 3.01684 11.4271C3.12239 12.4094 3.58774 13.3179 4.32322 13.9776C5.0587 14.6372 6.01227 15.0013 7.00022 14.9998ZM8.00022 15.9998C7.735 15.9998 7.48065 16.1051 7.29311 16.2927C7.10558 16.4802 7.00022 16.7345 7.00022 16.9998V18.4998H5.61022C5.4077 18.2733 5.14119 18.1137 4.84598 18.0421C4.55076 17.9704 4.24074 17.9901 3.95695 18.0985C3.67316 18.2069 3.42898 18.3989 3.2567 18.6491C3.08443 18.8993 2.99219 19.196 2.99219 19.4998C2.99219 19.8036 3.08443 20.1002 3.2567 20.3504C3.42898 20.6006 3.67316 20.7926 3.95695 20.901C4.24074 21.0094 4.55076 21.0291 4.84598 20.9574C5.14119 20.8858 5.4077 20.7262 5.61022 20.4998H7.00022C7.53065 20.4998 8.03936 20.289 8.41443 19.914C8.78951 19.5389 9.00022 19.0302 9.00022 18.4998V16.9998C9.00022 16.7345 8.89486 16.4802 8.70733 16.2927C8.51979 16.1051 8.26544 15.9998 8.00022 15.9998ZM19.5002 17.9998C19.2905 18.0009 19.0834 18.046 18.8922 18.1321C18.701 18.2182 18.53 18.3435 18.3902 18.4998H17.0002V16.9998C17.0002 16.7345 16.8949 16.4802 16.7073 16.2927C16.5198 16.1051 16.2654 15.9998 16.0002 15.9998C15.735 15.9998 15.4807 16.1051 15.2931 16.2927C15.1056 16.4802 15.0002 16.7345 15.0002 16.9998V18.4998C15.0002 19.0302 15.2109 19.5389 15.586 19.914C15.9611 20.289 16.4698 20.4998 17.0002 20.4998H18.3902C18.5573 20.6865 18.7684 20.8284 19.0044 20.9126C19.2404 20.9967 19.4937 21.0205 19.7412 20.9815C19.9887 20.9426 20.2225 20.8423 20.4213 20.6898C20.6201 20.5373 20.7775 20.3374 20.8792 20.1084C20.9809 19.8794 21.0235 19.6286 21.0034 19.3789C20.9832 19.1292 20.9008 18.8885 20.7636 18.6788C20.6265 18.4691 20.439 18.2971 20.2183 18.1785C19.9977 18.0599 19.7508 17.9984 19.5002 17.9998ZM13.0002 16.9998C13.0002 16.7345 12.8949 16.4802 12.7073 16.2927C12.5198 16.1051 12.2654 15.9998 12.0002 15.9998C11.735 15.9998 11.4807 16.1051 11.2931 16.2927C11.1056 16.4802 11.0002 16.7345 11.0002 16.9998V18.3898C10.7738 18.5923 10.6142 18.8588 10.5425 19.154C10.4709 19.4492 10.4906 19.7592 10.599 20.043C10.7074 20.3268 10.8994 20.571 11.1496 20.7433C11.3998 20.9156 11.6964 21.0078 12.0002 21.0078C12.304 21.0078 12.6006 20.9156 12.8509 20.7433C13.1011 20.571 13.2931 20.3268 13.4015 20.043C13.5099 19.7592 13.5296 19.4492 13.4579 19.154C13.3863 18.8588 13.2267 18.5923 13.0002 18.3898V16.9998Z" fill="currentColor"/>
  </symbol>
  <symbol id="ic_cloud_exclamation" viewBox="0 0 24 24">
    <path d="M21.7001 13.4598C21.3701 12.6598 20.7801 11.9898 20.0301 11.5498C20.0401 11.3698 20.0401 11.1898 20.0301 11.0198C20.0301 9.7198 19.6001 8.4498 18.8101 7.4098C18.0201 6.3798 16.9001 5.6298 15.6401 5.2898C14.3801 4.9498 13.0401 5.0398 11.8401 5.5398C10.6401 6.0398 9.63006 6.9198 8.98006 8.0498C8.30006 8.0898 7.65006 8.2998 7.08006 8.6598C6.51006 9.01979 6.04006 9.5298 5.72006 10.1198C4.64006 10.2898 3.66006 10.8598 2.97006 11.7098C2.28006 12.5598 1.94006 13.6398 2.00006 14.7298C2.06006 15.8198 2.53006 16.8498 3.31006 17.6198C4.09006 18.3898 5.13006 18.8398 6.22006 18.8898H18.0501C18.9201 18.8898 19.7601 18.5998 20.4501 18.0698C21.1401 17.5398 21.6301 16.7998 21.8601 15.9598C22.0801 15.1198 22.0301 14.2298 21.7001 13.4298V13.4598ZM13.0001 16.9998C12.4501 16.9998 12.0001 16.5498 12.0001 15.9998C12.0001 15.4498 12.4501 14.9998 13.0001 14.9998C13.5501 14.9998 14.0001 15.4498 14.0001 15.9998C14.0001 16.5498 13.5501 16.9998 13.0001 16.9998ZM14.0001 12.9998C14.0001 13.5498 13.5501 13.9998 13.0001 13.9998C12.4501 13.9998 12.0001 13.5498 12.0001 12.9998V8.9998C12.0001 8.4498 12.4501 7.9998 13.0001 7.9998C13.5501 7.9998 14.0001 8.4498 14.0001 8.9998V12.9998Z" fill="currentColor"/>
  </symbol>
  <symbol id="ic_cloud_off" viewBox="0 0 24 24">
    <path d="M14 4.99988C12.9462 4.9992 11.9107 5.27612 10.9978 5.80276C10.085 6.3294 9.32696 7.08719 8.80002 7.99988C8.11446 8.03643 7.44985 8.24883 6.87015 8.61662C6.29044 8.98441 5.81515 9.49521 5.49002 10.0999C4.4956 10.3289 3.60854 10.8891 2.9744 11.6886C2.34025 12.4881 1.99667 13.4794 2.00002 14.4999C1.99857 15.3918 2.26699 16.2633 2.77002 16.9999L14.71 5.04988C14.4747 5.01795 14.2375 5.00125 14 4.99988ZM20 11.5399C20.01 11.36 20.01 11.1797 20 10.9999C19.9939 9.52109 19.442 8.09664 18.45 6.99988L20.45 4.99988C20.5479 4.90467 20.626 4.79112 20.6799 4.66572C20.7339 4.54032 20.7626 4.40552 20.7645 4.26902C20.7663 4.13252 20.7413 3.99698 20.6908 3.87016C20.6402 3.74334 20.5652 3.62771 20.47 3.52988C20.3748 3.43204 20.2613 3.35392 20.1359 3.29996C20.0105 3.24601 19.8757 3.21729 19.7392 3.21543C19.6027 3.21357 19.4671 3.23862 19.3403 3.28914C19.2135 3.33966 19.0979 3.41467 19 3.50988L3.51002 18.9999C3.41219 19.0977 3.33458 19.2139 3.28163 19.3417C3.22869 19.4695 3.20144 19.6065 3.20144 19.7449C3.20144 19.8832 3.22869 20.0202 3.28163 20.1481C3.33458 20.2759 3.41219 20.392 3.51002 20.4899C3.70761 20.6875 3.9756 20.7985 4.25502 20.7985C4.39338 20.7985 4.53039 20.7712 4.65822 20.7183C4.78604 20.6653 4.90219 20.5877 5.00002 20.4899L6.44002 18.9999H18C18.8793 18.9983 19.7335 18.7071 20.4306 18.1713C21.1277 17.6355 21.6288 16.8849 21.8565 16.0357C22.0842 15.1864 22.0257 14.2859 21.6901 13.4732C21.3546 12.6605 20.7606 11.981 20 11.5399Z" fill="currentColor"/>
  </symbol>
  <symbol id="ic_cloud_paused" viewBox="0 0 24 24">
    <path d="M21.7001 13.4598C21.3701 12.6598 20.7801 11.9898 20.0301 11.5498C20.0401 11.3698 20.0401 11.1898 20.0301 11.0198C20.0301 9.7198 19.6001 8.4498 18.8101 7.4098C18.0201 6.3698 16.9001 5.6298 15.6401 5.2898C14.3801 4.9498 13.0401 5.0398 11.8401 5.5398C10.6401 6.0398 9.63006 6.9198 8.98006 8.0498C8.30006 8.0898 7.65006 8.2998 7.08006 8.6598C6.51006 9.01979 6.04006 9.5298 5.72006 10.1198C4.64006 10.2898 3.66006 10.8598 2.97006 11.7098C2.28006 12.5598 1.94006 13.6398 2.00006 14.7298C2.06006 15.8198 2.53006 16.8498 3.31006 17.6198C4.09006 18.3898 5.13006 18.8398 6.22006 18.8898H18.0601C18.9301 18.8898 19.7701 18.5998 20.4601 18.0698C21.1501 17.5398 21.6401 16.7998 21.8701 15.9598C22.0901 15.1198 22.0401 14.2298 21.7101 13.4298L21.7001 13.4598ZM12.0001 14.9498C12.0001 15.4998 11.5601 15.9398 11.0101 15.9398C10.4601 15.9398 10.0201 15.4998 10.0201 14.9498V10.9998C10.0201 10.4498 10.4601 10.0098 11.0101 10.0098C11.5601 10.0098 12.0001 10.4498 12.0001 10.9998V14.9498ZM15.9501 14.9498C15.9501 15.4998 15.5101 15.9398 14.9601 15.9398C14.4101 15.9398 13.9701 15.4998 13.9701 14.9498V10.9998C13.9701 10.4498 14.4101 10.0098 14.9601 10.0098C15.5101 10.0098 15.9501 10.4498 15.9501 10.9998V14.9498Z" fill="currentColor"/>
  </symbol>
  <symbol id="ic_cloud_progress" viewBox="0 0 24 24">
    <path fill-rule="evenodd" clip-rule="evenodd" d="M20.0299 11.0198V11.5498L20.0399 11.5198C20.7899 11.9598 21.3799 12.6298 21.7099 13.4298C22.0399 14.2298 22.0899 15.1198 21.8699 15.9598C21.6399 16.7998 21.1499 17.5398 20.4599 18.0698C19.7699 18.5998 18.9299 18.8898 18.0599 18.8898H6.21993C5.12994 18.8398 4.08994 18.3898 3.30994 17.6198C2.52994 16.8498 2.05994 15.8198 1.99994 14.7298C1.93994 13.6398 2.27994 12.5598 2.96994 11.7098C3.65994 10.8598 4.63994 10.2898 5.71994 10.1198C6.03994 9.5298 6.50993 9.0198 7.07994 8.6598C7.64994 8.2998 8.29993 8.0898 8.97993 8.0498C9.62993 6.9198 10.6399 6.0398 11.8399 5.5398C13.0399 5.0398 14.3799 4.9498 15.6399 5.2898C16.8999 5.6298 18.0199 6.3798 18.8099 7.4098C19.5999 8.4498 20.0299 9.7198 20.0299 11.0198ZM12.9999 9.9998C12.9999 9.44752 12.5522 8.9998 11.9999 8.9998C11.4477 8.9998 10.9999 9.44752 10.9999 9.9998V13.9998C10.9999 14.3786 11.2139 14.7248 11.5527 14.8942L13.5527 15.8942C14.0467 16.1412 14.6474 15.941 14.8944 15.447C15.1414 14.953 14.9411 14.3524 14.4472 14.1054L12.9999 13.3818V9.9998Z" fill="currentColor"/>
  </symbol>
  <symbol id="ic_cloud_sync" viewBox="0 0 24 24">
    <path d="M17.75 9.07023C17.15 7.29023 15.49 5.99023 13.5 5.99023C11.51 5.99023 9.9 7.25023 9.28 8.99023H8C5.24 8.99023 3 11.2302 3 13.9902C3 16.7502 5.24 18.9902 8 18.9902H17C19.76 18.9902 22 16.7502 22 13.9902C22 11.4802 20.15 9.43023 17.75 9.07023ZM10.02 15.7902C9.81 15.7902 9.61 15.7102 9.46 15.5602L7.86 13.9602C7.55 13.6502 7.55 13.1402 7.86 12.8302C8.17 12.5202 8.68 12.5202 8.99 12.8302L9.25 13.0902C9.41 11.0202 11.12 9.39023 13.22 9.39023C13.53 9.39023 13.86 9.44023 14.22 9.53023C14.64 9.64023 14.9 10.0702 14.8 10.5102C14.69 10.9402 14.25 11.1902 13.82 11.0902C13.59 11.0302 13.4 11.0002 13.22 11.0002C12.02 11.0002 11.03 11.8802 10.86 13.0302L11.06 12.8302C11.37 12.5202 11.88 12.5202 12.19 12.8302C12.5 13.1402 12.5 13.6502 12.19 13.9602L10.59 15.5602C10.43 15.7202 10.23 15.7902 10.03 15.7902H10.02ZM18.6 13.9602C18.44 14.1202 18.24 14.1902 18.03 14.1902C17.82 14.1902 17.62 14.1102 17.46 13.9602L17.2 13.7002C17.04 15.7702 15.33 17.4002 13.23 17.4002C12.92 17.4002 12.59 17.3502 12.23 17.2602C11.81 17.1502 11.55 16.7202 11.65 16.2802C11.76 15.8502 12.19 15.6002 12.63 15.7002C12.86 15.7602 13.05 15.7902 13.23 15.7902C14.43 15.7902 15.42 14.9102 15.59 13.7602L15.39 13.9602C15.08 14.2702 14.57 14.2702 14.26 13.9602C13.95 13.6502 13.95 13.1402 14.26 12.8302L15.86 11.2302C16.17 10.9202 16.68 10.9202 16.99 11.2302L18.59 12.8302C18.9 13.1402 18.9 13.6502 18.59 13.9602H18.6Z" fill="currentColor"/>
  </symbol>
  <symbol id="ic_cloud_synced" viewBox="0 0 24 24">
    <path d="M15.7102 11.7098L11.7102 15.7098C11.6172 15.8036 11.5066 15.878 11.3847 15.9287C11.2629 15.9795 11.1322 16.0056 11.0002 16.0056C10.8682 16.0056 10.7375 15.9795 10.6156 15.9287C10.4937 15.878 10.3831 15.8036 10.2902 15.7098L8.29017 13.7098C8.10187 13.5215 7.99608 13.2661 7.99608 12.9998C7.99608 12.7335 8.10187 12.4782 8.29017 12.2898C8.47847 12.1015 8.73387 11.9958 9.00017 11.9958C9.26647 11.9958 9.52187 12.1015 9.71017 12.2898L11.0002 13.5898L14.2902 10.2898C14.4785 10.1015 14.7339 9.99576 15.0002 9.99576C15.2665 9.99576 15.5219 10.1015 15.7102 10.2898C15.8985 10.4782 16.0043 10.7335 16.0043 10.9998C16.0043 11.2661 15.8985 11.5215 15.7102 11.7098ZM20.0002 11.5398C20.0101 11.36 20.0101 11.1797 20.0002 10.9998C20.0016 9.67781 19.5664 8.3923 18.7622 7.34304C17.9579 6.29379 16.8296 5.53954 15.5526 5.19748C14.2756 4.85542 12.9213 4.94471 11.7003 5.45146C10.4792 5.95822 9.45972 6.85408 8.80017 7.99985C8.11461 8.0364 7.45 8.2488 6.87029 8.61659C6.29059 8.98438 5.8153 9.49518 5.49017 10.0998C4.3938 10.2745 3.40132 10.85 2.70514 11.7147C2.00896 12.5795 1.65867 13.672 1.72219 14.7804C1.7857 15.8887 2.25849 16.9341 3.0489 17.7137C3.83931 18.4933 4.89103 18.9516 6.00017 18.9998H18.0002C18.8794 18.9983 19.7336 18.7071 20.4307 18.1713C21.1278 17.6355 21.629 16.8849 21.8567 16.0357C22.0843 15.1864 22.0259 14.2858 21.6903 13.4732C21.3547 12.6605 20.7607 11.981 20.0002 11.5398Z" fill="currentColor"/>
  </symbol>
  <symbol id="ic_cloud_upload" viewBox="0 0 24 24">
    <path d="M15.7102 13.2098C15.6172 13.3036 15.5066 13.378 15.3847 13.4287C15.2629 13.4795 15.1322 13.5056 15.0002 13.5056C14.8682 13.5056 14.7375 13.4795 14.6156 13.4287C14.4937 13.378 14.3831 13.3036 14.2902 13.2098L14.0002 12.9098V15.4998C14.0002 15.7651 13.8948 16.0194 13.7073 16.207C13.5197 16.3945 13.2654 16.4998 13.0002 16.4998C12.735 16.4998 12.4806 16.3945 12.2931 16.207C12.1055 16.0194 12.0002 15.7651 12.0002 15.4998V12.9098L11.7102 13.2098C11.5219 13.3982 11.2665 13.5039 11.0002 13.5039C10.7339 13.5039 10.4785 13.3982 10.2902 13.2098C10.1019 13.0215 9.99608 12.7661 9.99608 12.4998C9.99608 12.2335 10.1019 11.9782 10.2902 11.7898L12.2902 9.78985C12.3831 9.69612 12.4937 9.62172 12.6156 9.57096C12.7375 9.52019 12.8682 9.49405 13.0002 9.49405C13.1322 9.49405 13.2629 9.52019 13.3847 9.57096C13.5066 9.62172 13.6172 9.69612 13.7102 9.78985L15.7102 11.7898C15.8039 11.8828 15.8783 11.9934 15.9291 12.1153C15.9798 12.2371 16.006 12.3678 16.006 12.4998C16.006 12.6319 15.9798 12.7626 15.9291 12.8844C15.8783 13.0063 15.8039 13.1169 15.7102 13.2098ZM20.0002 11.5398C20.0101 11.36 20.0101 11.1797 20.0002 10.9998C20.0016 9.67781 19.5664 8.3923 18.7622 7.34304C17.9579 6.29379 16.8296 5.53954 15.5526 5.19748C14.2756 4.85542 12.9213 4.94471 11.7003 5.45146C10.4792 5.95822 9.45972 6.85408 8.80017 7.99985C8.11461 8.0364 7.45 8.2488 6.87029 8.61659C6.29059 8.98438 5.8153 9.49518 5.49017 10.0998C4.3938 10.2745 3.40132 10.85 2.70514 11.7147C2.00896 12.5795 1.65867 13.672 1.72219 14.7804C1.7857 15.8887 2.25849 16.9341 3.0489 17.7137C3.83931 18.4933 4.89103 18.9516 6.00017 18.9998H18.0002C18.8794 18.9983 19.7336 18.7071 20.4307 18.1713C21.1278 17.6355 21.629 16.8849 21.8567 16.0357C22.0843 15.1864 22.0259 14.2858 21.6903 13.4732C21.3547 12.6605 20.7607 11.981 20.0002 11.5398Z" fill="currentColor"/>
  </symbol>
</svg>
