<!-- JioGames DLS — map icons (2 icons) -->
<svg xmlns="http://www.w3.org/2000/svg" style="display:none">
  <symbol id="ic_map" viewBox="0 0 24 24">
    <path d="M1.99983 4.91019V13.6202C1.99358 14.0497 2.07963 14.4755 2.25215 14.8688C2.42467 15.2622 2.67964 15.6139 2.99983 15.9002L7.80983 20.0002C8.01213 20.1694 8.24697 20.2953 8.49983 20.3702V6.64019L4.36983 3.69019C4.14561 3.53054 3.88178 3.43567 3.60724 3.41596C3.3327 3.39625 3.05802 3.45246 2.8133 3.57844C2.56857 3.70442 2.36322 3.8953 2.21974 4.1302C2.07626 4.36509 2.00018 4.63494 1.99983 4.91019ZM21.1198 8.12019L17.1198 4.12019C16.9508 3.95469 16.7546 3.8194 16.5398 3.72019V16.5002L19.4798 19.4402C19.6913 19.6365 19.955 19.7677 20.2391 19.8179C20.5233 19.8682 20.8159 19.8354 21.0819 19.7235C21.3479 19.6116 21.576 19.4254 21.7388 19.1871C21.9016 18.9488 21.9923 18.6687 21.9998 18.3802V10.2402C21.9991 9.4448 21.6826 8.68226 21.1198 8.12019ZM9.49983 6.71019V20.4002C9.77676 20.3569 10.0401 20.2508 10.2698 20.0902L15.4998 16.3602V3.52019C15.2094 3.54121 14.9266 3.62297 14.6698 3.76019L9.49983 6.71019Z" fill="currentColor"/>
  </symbol>
  <symbol id="ic_map_layers" viewBox="0 0 24 24">
    <path d="M2.59027 7.90987L11.5903 11.9099C11.7192 11.9678 11.8589 11.9978 12.0003 11.9978C12.1416 11.9978 12.2814 11.9678 12.4103 11.9099L21.4103 7.90987C21.5849 7.83032 21.7329 7.70223 21.8367 7.54088C21.9405 7.37953 21.9957 7.19172 21.9957 6.99987C21.9957 6.80801 21.9405 6.62021 21.8367 6.45885C21.7329 6.2975 21.5849 6.16941 21.4103 6.08987L12.4103 2.08987C12.2814 2.03192 12.1416 2.00195 12.0003 2.00195C11.8589 2.00195 11.7192 2.03192 11.5903 2.08987L2.59027 6.08987C2.41569 6.16941 2.26767 6.2975 2.16387 6.45885C2.06007 6.62021 2.00488 6.80801 2.00488 6.99987C2.00488 7.19172 2.06007 7.37953 2.16387 7.54088C2.26767 7.70223 2.41569 7.83032 2.59027 7.90987ZM21.4103 16.0899L20.3003 15.5899L13.2203 18.7399C12.8363 18.9108 12.4206 18.9991 12.0003 18.9991C11.5799 18.9991 11.1643 18.9108 10.7803 18.7399L3.70027 15.5899L2.59027 16.0899C2.41569 16.1694 2.26767 16.2975 2.16387 16.4589C2.06007 16.6202 2.00488 16.808 2.00488 16.9999C2.00488 17.1917 2.06007 17.3795 2.16387 17.5409C2.26767 17.7022 2.41569 17.8303 2.59027 17.9099L11.5903 21.9099C11.7192 21.9678 11.8589 21.9978 12.0003 21.9978C12.1416 21.9978 12.2814 21.9678 12.4103 21.9099L21.4103 17.9099C21.5849 17.8303 21.7329 17.7022 21.8367 17.5409C21.9405 17.3795 21.9957 17.1917 21.9957 16.9999C21.9957 16.808 21.9405 16.6202 21.8367 16.4589C21.7329 16.2975 21.5849 16.1694 21.4103 16.0899ZM21.4103 11.0899L20.3003 10.5899L13.2203 13.7399C12.8363 13.9108 12.4206 13.9991 12.0003 13.9991C11.5799 13.9991 11.1643 13.9108 10.7803 13.7399L3.70027 10.5899L2.59027 11.0899C2.41569 11.1694 2.26767 11.2975 2.16387 11.4589C2.06007 11.6202 2.00488 11.808 2.00488 11.9999C2.00488 12.1917 2.06007 12.3795 2.16387 12.5409C2.26767 12.7022 2.41569 12.8303 2.59027 12.9099L11.5903 16.9099C11.7192 16.9678 11.8589 16.9978 12.0003 16.9978C12.1416 16.9978 12.2814 16.9678 12.4103 16.9099L21.4103 12.9099C21.5849 12.8303 21.7329 12.7022 21.8367 12.5409C21.9405 12.3795 21.9957 12.1917 21.9957 11.9999C21.9957 11.808 21.9405 11.6202 21.8367 11.4589C21.7329 11.2975 21.5849 11.1694 21.4103 11.0899Z" fill="currentColor"/>
  </symbol>
</svg>
