<!-- JioGames DLS — medical icons (3 icons) -->
<svg xmlns="http://www.w3.org/2000/svg" style="display:none">
  <symbol id="ic_medical_files" viewBox="0 0 24 24">
    <path d="M21.12 6.88C20.5579 6.31723 19.7954 6.0007 19 6H12.41L11.29 4.88C10.7279 4.31723 9.96538 4.0007 9.17 4H5C4.20435 4 3.44129 4.31607 2.87868 4.87868C2.31607 5.44129 2 6.20435 2 7V17C2 17.7956 2.31607 18.5587 2.87868 19.1213C3.44129 19.6839 4.20435 20 5 20H19C19.7956 20 20.5587 19.6839 21.1213 19.1213C21.6839 18.5587 22 17.7956 22 17V9C21.9993 8.20462 21.6828 7.44207 21.12 6.88ZM15.54 16.54C14.9581 17.1223 14.2414 17.552 13.4535 17.7908C12.6657 18.0296 11.8311 18.0701 11.0238 17.9089C10.2165 17.7476 9.46147 17.3895 8.82582 16.8664C8.19017 16.3432 7.69353 15.6712 7.38 14.91C6.9946 13.9906 6.89697 12.976 7.1 12C7.29597 11.0391 7.77018 10.1571 8.46362 9.46362C9.15706 8.77018 10.0391 8.29597 11 8.1C11.9696 7.90111 12.9766 7.99867 13.89 8.38C14.6512 8.69353 15.3232 9.19017 15.8464 9.82582C16.3695 10.4615 16.7276 11.2165 16.8889 12.0238C17.0501 12.8311 17.0096 13.6657 16.7708 14.4535C16.532 15.2414 16.1023 15.9581 15.52 16.54H15.54ZM14 12H13V11C13 10.7348 12.8946 10.4804 12.7071 10.2929C12.5196 10.1054 12.2652 10 12 10C11.7348 10 11.4804 10.1054 11.2929 10.2929C11.1054 10.4804 11 10.7348 11 11V12H10C9.73478 12 9.48043 12.1054 9.29289 12.2929C9.10536 12.4804 9 12.7348 9 13C9 13.2652 9.10536 13.5196 9.29289 13.7071C9.48043 13.8946 9.73478 14 10 14H11V15C11 15.2652 11.1054 15.5196 11.2929 15.7071C11.4804 15.8946 11.7348 16 12 16C12.2652 16 12.5196 15.8946 12.7071 15.7071C12.8946 15.5196 13 15.2652 13 15V14H14C14.2652 14 14.5196 13.8946 14.7071 13.7071C14.8946 13.5196 15 13.2652 15 13C15 12.7348 14.8946 12.4804 14.7071 12.2929C14.5196 12.1054 14.2652 12 14 12Z" fill="currentColor"/>
  </symbol>
  <symbol id="ic_medical_history" viewBox="0 0 24 24">
    <path d="M14 14H13V13C13 12.7348 12.8946 12.4804 12.7071 12.2929C12.5196 12.1054 12.2652 12 12 12C11.7348 12 11.4804 12.1054 11.2929 12.2929C11.1054 12.4804 11 12.7348 11 13V14H10C9.73478 14 9.48043 14.1054 9.29289 14.2929C9.10536 14.4804 9 14.7348 9 15C9 15.2652 9.10536 15.5196 9.29289 15.7071C9.48043 15.8946 9.73478 16 10 16H11V17C11 17.2652 11.1054 17.5196 11.2929 17.7071C11.4804 17.8946 11.7348 18 12 18C12.2652 18 12.5196 17.8946 12.7071 17.7071C12.8946 17.5196 13 17.2652 13 17V16H14C14.2652 16 14.5196 15.8946 14.7071 15.7071C14.8946 15.5196 15 15.2652 15 15C15 14.7348 14.8946 14.4804 14.7071 14.2929C14.5196 14.1054 14.2652 14 14 14ZM19.12 3.88C18.5579 3.31723 17.7954 3.0007 17 3H15.72C15.5475 2.69824 15.2994 2.44663 15 2.27C14.6962 2.09375 14.3513 2.00062 14 2H10C9.64874 2.00062 9.30384 2.09375 9 2.27C8.70064 2.44663 8.45249 2.69824 8.28 3H7C6.20435 3 5.44129 3.31607 4.87868 3.87868C4.31607 4.44129 4 5.20435 4 6V19C4 19.7956 4.31607 20.5587 4.87868 21.1213C5.44129 21.6839 6.20435 22 7 22H17C17.7956 22 18.5587 21.6839 19.1213 21.1213C19.6839 20.5587 20 19.7956 20 19V6C19.9993 5.20462 19.6828 4.44207 19.12 3.88ZM15.54 18.54C14.9581 19.1223 14.2414 19.552 13.4535 19.7908C12.6657 20.0296 11.8311 20.0701 11.0238 19.9089C10.2165 19.7476 9.46147 19.3895 8.82582 18.8664C8.19017 18.3432 7.69353 17.6712 7.38 16.91C6.9946 15.9906 6.89697 14.976 7.1 14C7.29597 13.0391 7.77018 12.1571 8.46362 11.4636C9.15706 10.7702 10.0391 10.296 11 10.1C11.9696 9.90111 12.9766 9.99867 13.89 10.38C14.6512 10.6935 15.3232 11.1902 15.8464 11.8258C16.3695 12.4615 16.7276 13.2165 16.8889 14.0238C17.0501 14.8311 17.0096 15.6657 16.7708 16.4535C16.532 17.2414 16.1023 17.9581 15.52 18.54H15.54ZM18 8H6V6C6 5.73478 6.10536 5.48043 6.29289 5.29289C6.48043 5.10536 6.73478 5 7 5H8.28C8.45249 5.30176 8.70064 5.55337 9 5.73C9.30384 5.90625 9.64874 5.99938 10 6H14C14.3513 5.99938 14.6962 5.90625 15 5.73C15.2994 5.55337 15.5475 5.30176 15.72 5H17C17.2652 5 17.5196 5.10536 17.7071 5.29289C17.8946 5.48043 18 5.73478 18 6V8Z" fill="currentColor"/>
  </symbol>
  <symbol id="ic_medical_insurance" viewBox="0 0 24 24">
    <path d="M14 11H13V10C13 9.73478 12.8946 9.48043 12.7071 9.29289C12.5196 9.10536 12.2652 9 12 9C11.7348 9 11.4804 9.10536 11.2929 9.29289C11.1054 9.48043 11 9.73478 11 10V11H10C9.73478 11 9.48043 11.1054 9.29289 11.2929C9.10536 11.4804 9 11.7348 9 12C9 12.2652 9.10536 12.5196 9.29289 12.7071C9.48043 12.8946 9.73478 13 10 13H11V14C11 14.2652 11.1054 14.5196 11.2929 14.7071C11.4804 14.8946 11.7348 15 12 15C12.2652 15 12.5196 14.8946 12.7071 14.7071C12.8946 14.5196 13 14.2652 13 14V13H14C14.2652 13 14.5196 12.8946 14.7071 12.7071C14.8946 12.5196 15 12.2652 15 12C15 11.7348 14.8946 11.4804 14.7071 11.2929C14.5196 11.1054 14.2652 11 14 11ZM20.46 4.68C20.1284 4.29684 19.6638 4.05381 19.16 4C16.9552 3.76898 14.8088 3.14942 12.82 2.17C12.5648 2.04466 12.2843 1.97949 12 1.97949C11.7157 1.97949 11.4352 2.04466 11.18 2.17C9.20579 3.15045 7.07225 3.77019 4.88 4C4.37562 4.04408 3.90514 4.27236 3.55837 4.64127C3.21159 5.01017 3.01282 5.49386 3 6V11C3 17.74 9.75 22 12 22C14.25 22 21 17.75 21 11V6C20.9883 5.50859 20.7961 5.03869 20.46 4.68ZM15.54 15.54C14.9581 16.1223 14.2414 16.552 13.4535 16.7908C12.6657 17.0296 11.8311 17.0701 11.0238 16.9089C10.2165 16.7476 9.46147 16.3895 8.82582 15.8664C8.19017 15.3432 7.69353 14.6712 7.38 13.91C6.9946 12.9906 6.89697 11.976 7.1 11C7.29597 10.0391 7.77018 9.15706 8.46362 8.46362C9.15706 7.77018 10.0391 7.29597 11 7.1C11.9696 6.90111 12.9766 6.99867 13.89 7.38C14.6512 7.69353 15.3232 8.19017 15.8464 8.82582C16.3695 9.46147 16.7276 10.2165 16.8889 11.0238C17.0501 11.8311 17.0096 12.6657 16.7708 13.4535C16.532 14.2414 16.1023 14.9581 15.52 15.54H15.54Z" fill="currentColor"/>
  </symbol>
</svg>
