<!-- JioGames DLS — medicine icons (2 icons) -->
<svg xmlns="http://www.w3.org/2000/svg" style="display:none">
  <symbol id="ic_medicine" viewBox="0 0 24 24">
    <path d="M19.12 8.71L18 7.59C17.6266 7.21441 17.1196 7.00223 16.59 7H17C17.5304 7 18.0391 6.78929 18.4142 6.41421C18.7893 6.03914 19 5.53043 19 5V4C19 3.46957 18.7893 2.96086 18.4142 2.58579C18.0391 2.21071 17.5304 2 17 2H7C6.46957 2 5.96086 2.21071 5.58579 2.58579C5.21071 2.96086 5 3.46957 5 4V5C5 5.53043 5.21071 6.03914 5.58579 6.41421C5.96086 6.78929 6.46957 7 7 7H7.41C6.88042 7.00223 6.37335 7.21441 6 7.59L4.88 8.71C4.31723 9.27207 4.0007 10.0346 4 10.83V19C4 19.7956 4.31607 20.5587 4.87868 21.1213C5.44129 21.6839 6.20435 22 7 22H17C17.7956 22 18.5587 21.6839 19.1213 21.1213C19.6839 20.5587 20 19.7956 20 19V10.83C19.9993 10.0346 19.6828 9.27207 19.12 8.71ZM14 15H13V16C13 16.2652 12.8946 16.5196 12.7071 16.7071C12.5196 16.8946 12.2652 17 12 17C11.7348 17 11.4804 16.8946 11.2929 16.7071C11.1054 16.5196 11 16.2652 11 16V15H10C9.73478 15 9.48043 14.8946 9.29289 14.7071C9.10536 14.5196 9 14.2652 9 14C9 13.7348 9.10536 13.4804 9.29289 13.2929C9.48043 13.1054 9.73478 13 10 13H11V12C11 11.7348 11.1054 11.4804 11.2929 11.2929C11.4804 11.1054 11.7348 11 12 11C12.2652 11 12.5196 11.1054 12.7071 11.2929C12.8946 11.4804 13 11.7348 13 12V13H14C14.2652 13 14.5196 13.1054 14.7071 13.2929C14.8946 13.4804 15 13.7348 15 14C15 14.2652 14.8946 14.5196 14.7071 14.7071C14.5196 14.8946 14.2652 15 14 15Z" fill="currentColor"/>
  </symbol>
  <symbol id="ic_medicine_mortar" viewBox="0 0 24 24">
    <path d="M20.63 6.15989C20.7823 5.94584 20.891 5.70387 20.9498 5.44782C21.0087 5.19176 21.0165 4.92663 20.9728 4.66755C20.9292 4.40848 20.8349 4.16053 20.6955 3.93788C20.556 3.71523 20.3741 3.52223 20.16 3.36989C19.9459 3.21756 19.704 3.10888 19.4479 3.05006C19.1919 2.99123 18.9267 2.98342 18.6677 3.02706C18.4086 3.07071 18.1606 3.16495 17.938 3.30442C17.7153 3.44388 17.5223 3.62584 17.37 3.83989L14.4 7.99989H19.32L20.63 6.15989ZM20 9.99989H4C3.73478 9.99989 3.48043 10.1052 3.29289 10.2928C3.10536 10.4803 3 10.7347 3 10.9999C3.00228 12.6739 3.47142 14.3142 4.3547 15.7363C5.23797 17.1583 6.50037 18.3059 8 19.0499V19.9999C8 20.2651 8.10536 20.5195 8.29289 20.707C8.48043 20.8945 8.73478 20.9999 9 20.9999H15C15.2652 20.9999 15.5196 20.8945 15.7071 20.707C15.8946 20.5195 16 20.2651 16 19.9999V19.0499C17.4921 18.3097 18.7494 17.1699 19.6322 15.7575C20.515 14.3451 20.9885 12.7154 21 11.0499C21.0068 10.9144 20.9859 10.779 20.9387 10.6518C20.8915 10.5247 20.8189 10.4085 20.7254 10.3102C20.6318 10.212 20.5193 10.1339 20.3946 10.0805C20.2699 10.0271 20.1356 9.99972 20 9.99989ZM14 15.9999H13V16.9999C13 17.2651 12.8946 17.5195 12.7071 17.707C12.5196 17.8945 12.2652 17.9999 12 17.9999C11.7348 17.9999 11.4804 17.8945 11.2929 17.707C11.1054 17.5195 11 17.2651 11 16.9999V15.9999H10C9.73478 15.9999 9.48043 15.8945 9.29289 15.707C9.10536 15.5195 9 15.2651 9 14.9999C9 14.7347 9.10536 14.4803 9.29289 14.2928C9.48043 14.1052 9.73478 13.9999 10 13.9999H11V12.9999C11 12.7347 11.1054 12.4803 11.2929 12.2928C11.4804 12.1052 11.7348 11.9999 12 11.9999C12.2652 11.9999 12.5196 12.1052 12.7071 12.2928C12.8946 12.4803 13 12.7347 13 12.9999V13.9999H14C14.2652 13.9999 14.5196 14.1052 14.7071 14.2928C14.8946 14.4803 15 14.7347 15 14.9999C15 15.2651 14.8946 15.5195 14.7071 15.707C14.5196 15.8945 14.2652 15.9999 14 15.9999Z" fill="currentColor"/>
  </symbol>
</svg>
