<!-- JioGames DLS — media icons (2 icons) -->
<svg xmlns="http://www.w3.org/2000/svg" style="display:none">
  <symbol id="ic_media_share" viewBox="0 0 24 24">
    <path d="M18.7 15.5L13.7 12.5C13.1823 12.1889 12.7539 11.7491 12.4565 11.2234C12.1591 10.6977 12.0028 10.104 12.0028 9.5C12.0028 8.896 12.1591 8.30229 12.4565 7.77659C12.7539 7.25089 13.1823 6.81111 13.7 6.5L16.2 5H4C3.46957 5 2.96086 5.21071 2.58579 5.58579C2.21071 5.96086 2 6.46957 2 7V16C2 16.5304 2.21071 17.0391 2.58579 17.4142C2.96086 17.7893 3.46957 18 4 18H20C20.5304 18 21.0391 17.7893 21.4142 17.4142C21.7893 17.0391 22 16.5304 22 16H20.5C19.8656 16.001 19.243 15.8281 18.7 15.5ZM15 19H9C8.73478 19 8.48043 19.1054 8.29289 19.2929C8.10536 19.4804 8 19.7348 8 20C8 20.2652 8.10536 20.5196 8.29289 20.7071C8.48043 20.8946 8.73478 21 9 21H15C15.2652 21 15.5196 20.8946 15.7071 20.7071C15.8946 20.5196 16 20.2652 16 20C16 19.7348 15.8946 19.4804 15.7071 19.2929C15.5196 19.1054 15.2652 19 15 19ZM20.5 11C20.3508 11.003 20.2027 11.0265 20.06 11.07L17.44 9.5L20.06 7.93C20.2027 7.97349 20.3508 7.99704 20.5 8C20.7835 7.99501 21.0598 7.90976 21.2968 7.75413C21.5339 7.59851 21.7219 7.37889 21.8392 7.12073C21.9565 6.86257 21.9983 6.57645 21.9596 6.29555C21.9209 6.01465 21.8033 5.75046 21.6206 5.53363C21.4379 5.3168 21.1975 5.1562 20.9272 5.07046C20.6569 4.98471 20.3678 4.97733 20.0935 5.04918C19.8192 5.12102 19.5709 5.26914 19.3774 5.47637C19.1838 5.68359 19.053 5.94144 19 6.22L15.94 8.07C15.7973 8.02651 15.6492 8.00296 15.5 8C15.1022 8 14.7206 8.15804 14.4393 8.43934C14.158 8.72064 14 9.10218 14 9.5C14 9.89782 14.158 10.2794 14.4393 10.5607C14.7206 10.842 15.1022 11 15.5 11C15.6492 10.997 15.7973 10.9735 15.94 10.93L19 12.78C19.053 13.0586 19.1838 13.3164 19.3774 13.5236C19.5709 13.7309 19.8192 13.879 20.0935 13.9508C20.3678 14.0227 20.6569 14.0153 20.9272 13.9295C21.1975 13.8438 21.4379 13.6832 21.6206 13.4664C21.8033 13.2495 21.9209 12.9854 21.9596 12.7044C21.9983 12.4235 21.9565 12.1374 21.8392 11.8793C21.7219 11.6211 21.5339 11.4015 21.2968 11.2459C21.0598 11.0902 20.7835 11.005 20.5 11Z" fill="currentColor"/>
  </symbol>
  <symbol id="ic_media_share_mobile" viewBox="0 0 24 24">
    <path d="M19.5 12C19.3508 12.003 19.2027 12.0265 19.06 12.07L16.44 10.5L19.06 8.93C19.2027 8.97349 19.3508 8.99704 19.5 9C19.7835 8.99501 20.0598 8.90976 20.2968 8.75413C20.5339 8.59851 20.7219 8.37889 20.8392 8.12073C20.9565 7.86257 20.9983 7.57645 20.9596 7.29555C20.9209 7.01465 20.8033 6.75046 20.6206 6.53363C20.4379 6.3168 20.1975 6.1562 19.9272 6.07046C19.6569 5.98471 19.3678 5.97733 19.0935 6.04918C18.8192 6.12102 18.5709 6.26914 18.3774 6.47637C18.1838 6.68359 18.053 6.94144 18 7.22L16.84 7.91L14.94 9.07C14.7973 9.02651 14.6492 9.00296 14.5 9C14.1022 9 13.7206 9.15804 13.4393 9.43934C13.158 9.72064 13 10.1022 13 10.5C13 10.8978 13.158 11.2794 13.4393 11.5607C13.7206 11.842 14.1022 12 14.5 12C14.6492 11.997 14.7973 11.9735 14.94 11.93L16.87 13.09L18.03 13.78C18.0832 14.0598 18.2149 14.3187 18.4098 14.5265C18.6048 14.7342 18.8548 14.8821 19.1307 14.9529C19.4066 15.0237 19.6969 15.0145 19.9678 14.9264C20.2387 14.8382 20.4788 14.6748 20.6602 14.4552C20.8416 14.2355 20.9567 13.9688 20.992 13.6861C21.0274 13.4035 20.9815 13.1166 20.8598 12.8591C20.7381 12.6016 20.5456 12.384 20.3048 12.2319C20.064 12.0797 19.7848 11.9993 19.5 12ZM12.7 13.5C12.1823 13.1889 11.7539 12.7491 11.4565 12.2234C11.1591 11.6977 11.0028 11.104 11.0028 10.5C11.0028 9.89601 11.1591 9.30229 11.4565 8.77659C11.7539 8.25089 12.1823 7.81111 12.7 7.5L17.7 4.5C17.7781 4.45923 17.8582 4.42252 17.94 4.39C17.7997 3.71423 17.4306 3.10751 16.895 2.67214C16.3595 2.23677 15.6902 1.99939 15 2H9C8.20435 2 7.44129 2.31607 6.87868 2.87868C6.31607 3.44129 6 4.20435 6 5V19C6 19.7957 6.31607 20.5587 6.87868 21.1213C7.44129 21.6839 8.20435 22 9 22H15C15.7956 22 16.5587 21.6839 17.1213 21.1213C17.6839 20.5587 18 19.7957 18 19V16.65C17.8962 16.6081 17.7958 16.5579 17.7 16.5L12.7 13.5ZM12 20C11.8022 20 11.6089 19.9414 11.4444 19.8315C11.28 19.7216 11.1518 19.5654 11.0761 19.3827C11.0004 19.2 10.9806 18.9989 11.0192 18.8049C11.0578 18.6109 11.153 18.4327 11.2929 18.2929C11.4327 18.153 11.6109 18.0578 11.8049 18.0192C11.9989 17.9806 12.2 18.0004 12.3827 18.0761C12.5654 18.1518 12.7216 18.28 12.8315 18.4444C12.9414 18.6089 13 18.8022 13 19C13 19.2652 12.8946 19.5196 12.7071 19.7071C12.5196 19.8946 12.2652 20 12 20Z" fill="currentColor"/>
  </symbol>
</svg>
