<!-- JioGames DLS — merge icons (2 icons) -->
<svg xmlns="http://www.w3.org/2000/svg" style="display:none">
  <symbol id="ic_merge" viewBox="0 0 24 24">
    <path d="M19 20.0001H18C15.24 20.0001 13 17.7601 13 15.0001V5.41006L15.29 7.70006C15.49 7.90006 15.74 7.99006 16 7.99006C16.26 7.99006 16.51 7.89006 16.71 7.70006C17.1 7.31006 17.1 6.68006 16.71 6.29006L12.71 2.29006C12.32 1.90006 11.69 1.90006 11.3 2.29006L7.28999 6.29006C6.89999 6.68006 6.89999 7.31006 7.28999 7.70006C7.67999 8.09006 8.30999 8.09006 8.69999 7.70006L10.99 5.41006V15.0001C10.99 17.7601 8.74999 20.0001 5.98999 20.0001H4.98999C4.43999 20.0001 3.98999 20.4501 3.98999 21.0001C3.98999 21.5501 4.43999 22.0001 4.98999 22.0001H5.98999C8.53999 22.0001 10.77 20.6301 11.99 18.5901C13.21 20.6301 15.44 22.0001 17.99 22.0001H18.99C19.54 22.0001 19.99 21.5501 19.99 21.0001C19.99 20.4501 19.54 20.0001 18.99 20.0001H19Z" fill="currentColor"/>
  </symbol>
  <symbol id="ic_merge_off" viewBox="0 0 24 24">
    <path d="M8.71006 7.70017L11.0001 5.41017V8.76017L13.0101 6.75017V5.41017L13.6801 6.08017L15.1001 4.66017L12.7301 2.29017C12.3401 1.90017 11.7101 1.90017 11.3201 2.29017L7.31006 6.29017C6.92006 6.68017 6.92006 7.31017 7.31006 7.70017C7.70006 8.09017 8.33006 8.09017 8.72006 7.70017H8.71006Z" fill="currentColor"/>
<path d="M21.7101 3.70017C22.1001 3.31017 22.1001 2.68017 21.7101 2.29017C21.3201 1.90017 20.7101 1.90017 20.3201 2.27017L2.53006 20.0602C2.53006 20.0602 2.51006 20.0702 2.50006 20.0802L2.29006 20.2902C1.90006 20.6802 1.90006 21.3102 2.29006 21.7002C2.49006 21.9002 2.74006 21.9902 3.00006 21.9902C3.26006 21.9902 3.51006 21.8902 3.71006 21.7002L4.07006 21.3402C4.21006 21.7202 4.57006 22.0002 5.00006 22.0002H6.00006C8.55006 22.0002 10.7801 20.6302 12.0001 18.5902C13.2201 20.6302 15.4501 22.0002 18.0001 22.0002H19.0001C19.5501 22.0002 20.0001 21.5502 20.0001 21.0002C20.0001 20.4502 19.5501 20.0002 19.0001 20.0002H18.0101C15.2501 20.0002 13.0101 17.7602 13.0101 15.0002V12.3902L21.7101 3.70017ZM11.0001 15.0002C11.0001 17.7602 8.76006 20.0002 6.00006 20.0002H5.40006L11.0001 14.4002V15.0002Z" fill="currentColor"/>
  </symbol>
</svg>
