<!-- JioGames DLS — message icons (3 icons) -->
<svg xmlns="http://www.w3.org/2000/svg" style="display:none">
  <symbol id="ic_message_partially_delivered" viewBox="0 0 24 24">
    <path d="M19.7102 6.28994C19.6172 6.19621 19.5066 6.12182 19.3848 6.07105C19.2629 6.02028 19.1322 5.99414 19.0002 5.99414C18.8682 5.99414 18.7375 6.02028 18.6156 6.07105C18.4937 6.12182 18.3831 6.19621 18.2902 6.28994L8.00019 16.5899L3.71019 12.2899C3.52188 12.1016 3.26649 11.9958 3.00019 11.9958C2.73388 11.9958 2.47849 12.1016 2.29019 12.2899C2.10188 12.4782 1.99609 12.7336 1.99609 12.9999C1.99609 13.2662 2.10188 13.5216 2.29019 13.7099L7.29019 18.7099C7.38315 18.8037 7.49375 18.8781 7.61561 18.9288C7.73747 18.9796 7.86817 19.0057 8.00019 19.0057C8.1322 19.0057 8.2629 18.9796 8.38476 18.9288C8.50662 18.8781 8.61722 18.8037 8.71019 18.7099L19.7102 7.70994C19.8039 7.61698 19.8783 7.50638 19.9291 7.38452C19.9798 7.26266 20.006 7.13195 20.006 6.99994C20.006 6.86793 19.9798 6.73722 19.9291 6.61536C19.8783 6.4935 19.8039 6.3829 19.7102 6.28994ZM20.5002 15.9999C20.2035 15.9999 19.9135 16.0879 19.6668 16.2527C19.4202 16.4176 19.2279 16.6518 19.1144 16.9259C19.0008 17.2 18.9711 17.5016 19.029 17.7926C19.0869 18.0835 19.2297 18.3508 19.4395 18.5606C19.6493 18.7704 19.9166 18.9132 20.2076 18.9711C20.4985 19.029 20.8001 18.9993 21.0742 18.8858C21.3483 18.7722 21.5826 18.58 21.7474 18.3333C21.9122 18.0866 22.0002 17.7966 22.0002 17.4999C22.0002 17.1021 21.8421 16.7206 21.5608 16.4393C21.2795 16.158 20.898 15.9999 20.5002 15.9999ZM15.5002 15.9999C15.2035 15.9999 14.9135 16.0879 14.6668 16.2527C14.4202 16.4176 14.2279 16.6518 14.1144 16.9259C14.0008 17.2 13.9711 17.5016 14.029 17.7926C14.0869 18.0835 14.2297 18.3508 14.4395 18.5606C14.6493 18.7704 14.9166 18.9132 15.2075 18.9711C15.4985 19.029 15.8001 18.9993 16.0742 18.8858C16.3483 18.7722 16.5826 18.58 16.7474 18.3333C16.9122 18.0866 17.0002 17.7966 17.0002 17.4999C17.0002 17.1021 16.8421 16.7206 16.5608 16.4393C16.2795 16.158 15.898 15.9999 15.5002 15.9999Z" fill="currentColor"/>
  </symbol>
  <symbol id="ic_message_read" viewBox="0 0 24 24">
    <path d="M12.0002 15.0002C12.1318 15.0009 12.2623 14.9757 12.3841 14.926C12.5059 14.8762 12.6167 14.8029 12.7102 14.7102L19.7102 7.71019C19.8985 7.52188 20.0043 7.26649 20.0043 7.00019C20.0043 6.73388 19.8985 6.47849 19.7102 6.29019C19.5219 6.10188 19.2665 5.99609 19.0002 5.99609C18.7339 5.99609 18.4785 6.10188 18.2902 6.29019L11.2902 13.2902C11.1965 13.3831 11.1221 13.4937 11.0713 13.6156C11.0205 13.7375 10.9944 13.8682 10.9944 14.0002C10.9944 14.1322 11.0205 14.2629 11.0713 14.3848C11.1221 14.5066 11.1965 14.6172 11.2902 14.7102C11.3836 14.8029 11.4944 14.8762 11.6163 14.926C11.7381 14.9757 11.8686 15.0009 12.0002 15.0002ZM3.71019 12.2902C3.52188 12.1019 3.26649 11.9961 3.00019 11.9961C2.73388 11.9961 2.47849 12.1019 2.29019 12.2902C2.10188 12.4785 1.99609 12.7339 1.99609 13.0002C1.99609 13.2665 2.10188 13.5219 2.29019 13.7102L7.29019 18.7102C7.38315 18.8039 7.49375 18.8783 7.61561 18.9291C7.73747 18.9798 7.86817 19.006 8.00019 19.006C8.1322 19.006 8.2629 18.9798 8.38476 18.9291C8.50662 18.8783 8.61722 18.8039 8.71019 18.7102C8.80391 18.6172 8.87831 18.5066 8.92908 18.3848C8.97985 18.2629 9.00598 18.1322 9.00598 18.0002C9.00598 17.8682 8.97985 17.7375 8.92908 17.6156C8.87831 17.4937 8.80391 17.3831 8.71019 17.2902L3.71019 12.2902ZM21.7102 8.29019C21.6172 8.19646 21.5066 8.12206 21.3848 8.07129C21.2629 8.02053 21.1322 7.99439 21.0002 7.99439C20.8682 7.99439 20.7375 8.02053 20.6156 8.07129C20.4937 8.12206 20.3831 8.19646 20.2902 8.29019L12.0002 16.5902L7.71019 12.2902C7.52188 12.1019 7.26649 11.9961 7.00019 11.9961C6.73388 11.9961 6.47849 12.1019 6.29019 12.2902C6.10188 12.4785 5.99609 12.7339 5.99609 13.0002C5.99609 13.2665 6.10188 13.5219 6.29019 13.7102L11.2902 18.7102C11.3831 18.8039 11.4937 18.8783 11.6156 18.9291C11.7375 18.9798 11.8682 19.006 12.0002 19.006C12.1322 19.006 12.2629 18.9798 12.3848 18.9291C12.5066 18.8783 12.6172 18.8039 12.7102 18.7102L21.7102 9.71019C21.8039 9.61722 21.8783 9.50662 21.9291 9.38476C21.9798 9.2629 22.006 9.1322 22.006 9.00019C22.006 8.86817 21.9798 8.73747 21.9291 8.61561C21.8783 8.49375 21.8039 8.38315 21.7102 8.29019Z" fill="currentColor"/>
  </symbol>
  <symbol id="ic_message_send" viewBox="0 0 24 24">
    <path d="M9.00019 19.0002C8.86858 19.0009 8.73812 18.9757 8.61628 18.926C8.49444 18.8762 8.38363 18.8029 8.29018 18.7102L3.29019 13.7102C3.10188 13.5219 2.99609 13.2665 2.99609 13.0002C2.99609 12.7339 3.10188 12.4785 3.29019 12.2902C3.47849 12.1019 3.73388 11.9961 4.00019 11.9961C4.26649 11.9961 4.52188 12.1019 4.71019 12.2902L9.00019 16.5902L19.2902 6.29019C19.4785 6.10188 19.7339 5.99609 20.0002 5.99609C20.2665 5.99609 20.5219 6.10188 20.7102 6.29019C20.8985 6.47849 21.0043 6.73388 21.0043 7.00019C21.0043 7.26649 20.8985 7.52188 20.7102 7.71019L9.71019 18.7102C9.61674 18.8029 9.50593 18.8762 9.38409 18.926C9.26225 18.9757 9.13179 19.0009 9.00019 19.0002Z" fill="currentColor"/>
  </symbol>
</svg>
