<!-- JioGames DLS — mic icons (3 icons) -->
<svg xmlns="http://www.w3.org/2000/svg" style="display:none">
  <symbol id="ic_mic" viewBox="0 0 24 24">
    <path d="M12 15C12.7956 15 13.5587 14.6839 14.1213 14.1213C14.6839 13.5587 15 12.7956 15 12V5C15 4.20435 14.6839 3.44129 14.1213 2.87868C13.5587 2.31607 12.7956 2 12 2C11.2044 2 10.4413 2.31607 9.87868 2.87868C9.31607 3.44129 9 4.20435 9 5V12C9 12.7956 9.31607 13.5587 9.87868 14.1213C10.4413 14.6839 11.2044 15 12 15ZM18 10C17.7348 10 17.4804 10.1054 17.2929 10.2929C17.1054 10.4804 17 10.7348 17 11V12C17 13.3261 16.4732 14.5979 15.5355 15.5355C14.5979 16.4732 13.3261 17 12 17C10.6739 17 9.40215 16.4732 8.46447 15.5355C7.52678 14.5979 7 13.3261 7 12V11C7 10.7348 6.89464 10.4804 6.70711 10.2929C6.51957 10.1054 6.26522 10 6 10C5.73478 10 5.48043 10.1054 5.29289 10.2929C5.10536 10.4804 5 10.7348 5 11V12C5 13.8565 5.7375 15.637 7.05025 16.9497C8.36301 18.2625 10.1435 19 12 19C13.8565 19 15.637 18.2625 16.9497 16.9497C18.2625 15.637 19 13.8565 19 12V11C19 10.7348 18.8946 10.4804 18.7071 10.2929C18.5196 10.1054 18.2652 10 18 10ZM15 20H9C8.73478 20 8.48043 20.1054 8.29289 20.2929C8.10536 20.4804 8 20.7348 8 21C8 21.2652 8.10536 21.5196 8.29289 21.7071C8.48043 21.8946 8.73478 22 9 22H15C15.2652 22 15.5196 21.8946 15.7071 21.7071C15.8946 21.5196 16 21.2652 16 21C16 20.7348 15.8946 20.4804 15.7071 20.2929C15.5196 20.1054 15.2652 20 15 20Z" fill="currentColor"/>
  </symbol>
  <symbol id="ic_mic_mute_forced" viewBox="0 0 24 24">
    <path d="M15 20H9C8.73 20 8.48 20.11 8.29 20.29C8.1 20.48 8 20.73 8 21C8 21.27 8.11 21.52 8.29 21.71C8.48 21.9 8.73 22 9 22H15C15.27 22 15.52 21.89 15.71 21.71C15.9 21.53 16 21.27 16 21C16 20.73 15.89 20.48 15.71 20.29C15.53 20.1 15.27 20 15 20ZM12 15C12.25 15 12.5 14.96 12.74 14.89C12.27 14.03 12 13.05 12 12C12 9.78 13.21 7.85 15 6.81V5C15 4.2 14.68 3.44 14.12 2.88C13.56 2.32 12.79 2 12 2C11.21 2 10.44 2.32 9.88 2.88C9.32 3.44 9 4.21 9 5V12C9 12.8 9.32 13.56 9.88 14.12C10.44 14.68 11.21 15 12 15ZM12 17C10.67 17 9.4 16.47 8.46 15.54C7.52 14.6 7 13.33 7 12V11C7 10.73 6.89 10.48 6.71 10.29C6.52 10.1 6.27 10 6 10C5.73 10 5.48 10.11 5.29 10.29C5.1 10.48 5 10.73 5 11V12C5 13.86 5.74 15.64 7.05 16.95C8.36 18.26 10.14 19 12 19C13.47 19 14.9 18.53 16.08 17.68C15.34 17.43 14.66 17.04 14.08 16.53C13.43 16.83 12.73 17 12 17ZM14 12C14 14.21 15.79 16 18 16C18.74 16 19.43 15.79 20.02 15.43L14.57 9.98C14.22 10.57 14 11.26 14 12ZM18 8C17.26 8 16.57 8.21 15.98 8.57L21.43 14.02C21.78 13.43 22 12.74 22 12C22 9.79 20.21 8 18 8Z" fill="currentColor"/>
  </symbol>
  <symbol id="ic_mic_off" viewBox="0 0 24 24">
    <path d="M7.06976 12.69C7.0311 12.4618 7.00771 12.2313 6.99976 12V11C6.99976 10.7348 6.8944 10.4804 6.70687 10.2929C6.51933 10.1054 6.26498 10 5.99976 10C5.73454 10 5.48019 10.1054 5.29265 10.2929C5.10512 10.4804 4.99976 10.7348 4.99976 11V12C5.0021 12.7977 5.14077 13.5891 5.40976 14.34L7.06976 12.69ZM11.9998 2.00002C11.2041 2.00002 10.441 2.31609 9.87844 2.8787C9.31583 3.4413 8.99976 4.20437 8.99976 5.00002V10.76L14.9998 4.76002C14.9393 4.00667 14.5967 3.3039 14.0405 2.79221C13.4844 2.28051 12.7555 1.99759 11.9998 2.00002ZM14.9998 20H8.99976C8.73454 20 8.48019 20.1054 8.29265 20.2929C8.10512 20.4804 7.99976 20.7348 7.99976 21C7.99976 21.2652 8.10512 21.5196 8.29265 21.7071C8.48019 21.8947 8.73454 22 8.99976 22H14.9998C15.265 22 15.5193 21.8947 15.7069 21.7071C15.8944 21.5196 15.9998 21.2652 15.9998 21C15.9998 20.7348 15.8944 20.4804 15.7069 20.2929C15.5193 20.1054 15.265 20 14.9998 20ZM11.9998 15C12.7954 15 13.5585 14.6839 14.1211 14.1213C14.6837 13.5587 14.9998 12.7957 14.9998 12V10.44L20.4898 5.00002C20.5876 4.90218 20.6652 4.78603 20.7182 4.65821C20.7711 4.53038 20.7984 4.39337 20.7984 4.25502C20.7984 4.11666 20.7711 3.97965 20.7182 3.85182C20.6652 3.724 20.5876 3.60785 20.4898 3.51002C20.3919 3.41218 20.2758 3.33457 20.148 3.28163C20.0201 3.22868 19.8831 3.20143 19.7448 3.20143C19.6064 3.20143 19.4694 3.22868 19.3416 3.28163C19.2137 3.33457 19.0976 3.41218 18.9998 3.51002L3.50976 19C3.41193 19.0979 3.33432 19.214 3.28137 19.3418C3.22842 19.4697 3.20117 19.6067 3.20117 19.745C3.20117 19.8834 3.22842 20.0204 3.28137 20.1482C3.33432 20.276 3.41193 20.3922 3.50976 20.49C3.70735 20.6876 3.97533 20.7986 4.25476 20.7986C4.39312 20.7986 4.53012 20.7714 4.65795 20.7184C4.78578 20.6655 4.90193 20.5879 4.99976 20.49L7.86976 17.61C8.91053 18.3706 10.1411 18.829 11.4258 18.9347C12.7105 19.0404 13.9995 18.7893 15.1506 18.2091C16.3017 17.6289 17.2702 16.7421 17.9494 15.6465C18.6286 14.5509 18.9921 13.289 18.9998 12V11C18.9998 10.7348 18.8944 10.4804 18.7069 10.2929C18.5193 10.1054 18.265 10 17.9998 10C17.7345 10 17.4802 10.1054 17.2927 10.2929C17.1051 10.4804 16.9998 10.7348 16.9998 11V12C16.9982 12.8998 16.7538 13.7825 16.2923 14.5551C15.8309 15.3276 15.1696 15.9612 14.3781 16.3892C13.5866 16.8172 12.6942 17.0237 11.7952 16.9869C10.8961 16.9501 10.0236 16.6713 9.26976 16.18L10.7298 14.71C11.1267 14.8985 11.5603 14.9975 11.9998 15Z" fill="currentColor"/>
  </symbol>
</svg>
