<!-- JioGames DLS — mobile icons (10 icons) -->
<svg xmlns="http://www.w3.org/2000/svg" style="display:none">
  <symbol id="ic_mobile" viewBox="0 0 24 24">
    <path d="M15 2H9C8.20435 2 7.44129 2.31607 6.87868 2.87868C6.31607 3.44129 6 4.20435 6 5V19C6 19.7956 6.31607 20.5587 6.87868 21.1213C7.44129 21.6839 8.20435 22 9 22H15C15.7956 22 16.5587 21.6839 17.1213 21.1213C17.6839 20.5587 18 19.7956 18 19V5C18 4.20435 17.6839 3.44129 17.1213 2.87868C16.5587 2.31607 15.7956 2 15 2ZM12 20C11.7528 20 11.5111 19.9267 11.3055 19.7893C11.1 19.652 10.9398 19.4568 10.8452 19.2284C10.7505 18.9999 10.7258 18.7486 10.774 18.5061C10.8222 18.2637 10.9413 18.0409 11.1161 17.8661C11.2909 17.6913 11.5137 17.5723 11.7561 17.524C11.9986 17.4758 12.2499 17.5005 12.4784 17.5951C12.7068 17.6898 12.902 17.85 13.0393 18.0555C13.1767 18.2611 13.25 18.5028 13.25 18.75C13.25 19.0815 13.1183 19.3995 12.8839 19.6339C12.6495 19.8683 12.3315 20 12 20Z" fill="currentColor"/>
  </symbol>
  <symbol id="ic_mobile_data" viewBox="0 0 24 24">
    <path d="M10.38 3.08C10.1979 3.00342 9.99718 2.9825 9.80319 3.01987C9.6092 3.05725 9.43063 3.15124 9.29 3.29L3.29 9.29C3.1017 9.4783 2.99591 9.7337 2.99591 10C2.99591 10.2663 3.1017 10.5217 3.29 10.71C3.47831 10.8983 3.7337 11.0041 4 11.0041C4.2663 11.0041 4.5217 10.8983 4.71 10.71L9 6.41V20C9 20.2652 9.10536 20.5196 9.2929 20.7071C9.48043 20.8946 9.73479 21 10 21C10.2652 21 10.5196 20.8946 10.7071 20.7071C10.8946 20.5196 11 20.2652 11 20V4C10.999 3.80257 10.9396 3.60986 10.8293 3.44614C10.7189 3.28242 10.5626 3.15502 10.38 3.08ZM20.71 13.29C20.617 13.1963 20.5064 13.1219 20.3846 13.0711C20.2627 13.0203 20.132 12.9942 20 12.9942C19.868 12.9942 19.7373 13.0203 19.6154 13.0711C19.4936 13.1219 19.383 13.1963 19.29 13.29L15 17.59V4C15 3.73478 14.8946 3.48043 14.7071 3.29289C14.5196 3.10536 14.2652 3 14 3C13.7348 3 13.4804 3.10536 13.2929 3.29289C13.1054 3.48043 13 3.73478 13 4V20C13.001 20.1974 13.0604 20.3901 13.1707 20.5539C13.2811 20.7176 13.4374 20.845 13.62 20.92C13.7387 20.976 13.8688 21.0034 14 21C14.1316 21.0008 14.2621 20.9755 14.3839 20.9258C14.5057 20.876 14.6166 20.8027 14.71 20.71L20.71 14.71C20.8037 14.617 20.8781 14.5064 20.9289 14.3846C20.9797 14.2627 21.0058 14.132 21.0058 14C21.0058 13.868 20.9797 13.7373 20.9289 13.6154C20.8781 13.4936 20.8037 13.383 20.71 13.29Z" fill="currentColor"/>
  </symbol>
  <symbol id="ic_mobile_data_off" viewBox="0 0 24 24">
    <path d="M15 4C15 3.73478 14.8946 3.48043 14.7071 3.29289C14.5196 3.10536 14.2652 3 14 3C13.7348 3 13.4804 3.10536 13.2929 3.29289C13.1054 3.48043 13 3.73478 13 4V6.76L15 4.76V4ZM4.71 10.71L9 6.41V10.76L11 8.76V4C10.999 3.80257 10.9396 3.60986 10.8293 3.44614C10.7189 3.28242 10.5626 3.15502 10.38 3.08C10.1979 3.00342 9.99718 2.9825 9.80319 3.01987C9.6092 3.05725 9.43063 3.15124 9.29 3.29L3.29 9.29C3.1017 9.4783 2.99591 9.7337 2.99591 10C2.99591 10.2663 3.1017 10.5217 3.29 10.71C3.47831 10.8983 3.7337 11.0041 4 11.0041C4.2663 11.0041 4.5217 10.8983 4.71 10.71ZM20.71 13.29C20.617 13.1963 20.5064 13.1219 20.3846 13.0711C20.2627 13.0203 20.132 12.9942 20 12.9942C19.868 12.9942 19.7373 13.0203 19.6154 13.0711C19.4936 13.1219 19.383 13.1963 19.29 13.29L15 17.59V10.44L20.49 5C20.5878 4.90217 20.6654 4.78602 20.7184 4.65819C20.7713 4.53036 20.7986 4.39336 20.7986 4.255C20.7986 4.11664 20.7713 3.97964 20.7184 3.85181C20.6654 3.72398 20.5878 3.60783 20.49 3.51C20.3922 3.41217 20.276 3.33456 20.1482 3.28161C20.0204 3.22866 19.8834 3.20141 19.745 3.20141C19.6066 3.20141 19.4696 3.22866 19.3418 3.28161C19.214 3.33456 19.0978 3.41217 19 3.51L3.51 19C3.41217 19.0978 3.33456 19.214 3.28161 19.3418C3.22867 19.4696 3.20141 19.6066 3.20141 19.745C3.20141 19.8834 3.22867 20.0204 3.28161 20.1482C3.33456 20.276 3.41217 20.3922 3.51 20.49C3.70759 20.6876 3.97557 20.7986 4.255 20.7986C4.39336 20.7986 4.53037 20.7713 4.65819 20.7184C4.78602 20.6654 4.90217 20.5878 5 20.49L9 16.49V20C9 20.2652 9.10536 20.5196 9.2929 20.7071C9.48043 20.8946 9.73479 21 10 21C10.2652 21 10.5196 20.8946 10.7071 20.7071C10.8946 20.5196 11 20.2652 11 20V14.44L13 12.44V20C13.001 20.1974 13.0604 20.3901 13.1707 20.5539C13.2811 20.7176 13.4374 20.845 13.62 20.92C13.7387 20.976 13.8688 21.0034 14 21C14.1316 21.0008 14.2621 20.9755 14.3839 20.9258C14.5057 20.876 14.6166 20.8027 14.71 20.71L20.71 14.71C20.8037 14.617 20.8781 14.5064 20.9289 14.3846C20.9797 14.2627 21.0058 14.132 21.0058 14C21.0058 13.868 20.9797 13.7373 20.9289 13.6154C20.8781 13.4936 20.8037 13.383 20.71 13.29Z" fill="currentColor"/>
  </symbol>
  <symbol id="ic_mobile_devices" viewBox="0 0 24 24">
    <path d="M16 6H17C17 5.20435 16.6839 4.44129 16.1213 3.87868C15.5587 3.31607 14.7956 3 14 3H6C5.20435 3 4.44129 3.31607 3.87868 3.87868C3.31607 4.44129 3 5.20435 3 6V18C3 18.7956 3.31607 19.5587 3.87868 20.1213C4.44129 20.6839 5.20435 21 6 21H12.56C12.1964 20.396 12.003 19.705 12 19V10C12 8.93913 12.4214 7.92172 13.1716 7.17157C13.9217 6.42143 14.9391 6 16 6ZM10 19C9.80222 19 9.60888 18.9414 9.44443 18.8315C9.27998 18.7216 9.15181 18.5654 9.07612 18.3827C9.00043 18.2 8.98063 17.9989 9.01921 17.8049C9.0578 17.6109 9.15304 17.4327 9.29289 17.2929C9.43275 17.153 9.61093 17.0578 9.80491 17.0192C9.99889 16.9806 10.2 17.0004 10.3827 17.0761C10.5654 17.1518 10.7216 17.28 10.8315 17.4444C10.9414 17.6089 11 17.8022 11 18C11 18.2652 10.8946 18.5196 10.7071 18.7071C10.5196 18.8946 10.2652 19 10 19ZM19 8H16C15.4696 8 14.9609 8.21071 14.5858 8.58579C14.2107 8.96086 14 9.46957 14 10V19C14 19.5304 14.2107 20.0391 14.5858 20.4142C14.9609 20.7893 15.4696 21 16 21H19C19.5304 21 20.0391 20.7893 20.4142 20.4142C20.7893 20.0391 21 19.5304 21 19V10C21 9.46957 20.7893 8.96086 20.4142 8.58579C20.0391 8.21071 19.5304 8 19 8ZM17.5 19C17.3022 19 17.1089 18.9414 16.9444 18.8315C16.78 18.7216 16.6518 18.5654 16.5761 18.3827C16.5004 18.2 16.4806 17.9989 16.5192 17.8049C16.5578 17.6109 16.653 17.4327 16.7929 17.2929C16.9327 17.153 17.1109 17.0578 17.3049 17.0192C17.4989 16.9806 17.7 17.0004 17.8827 17.0761C18.0654 17.1518 18.2216 17.28 18.3315 17.4444C18.4414 17.6089 18.5 17.8022 18.5 18C18.5 18.2652 18.3946 18.5196 18.2071 18.7071C18.0196 18.8946 17.7652 19 17.5 19Z" fill="currentColor"/>
  </symbol>
  <symbol id="ic_mobile_handset" viewBox="0 0 24 24">
    <path d="M15 2H9C7.33998 2 6 3.34 6 5V19C6 20.66 7.33998 22 9 22H15C16.66 22 18 20.66 18 19V5C18 3.34 16.66 2 15 2ZM9 20C8.44998 20 7.99998 19.55 7.99998 19C7.99998 18.45 8.44998 18 9 18C9.55002 18 10 18.45 10 19C10 19.55 9.55002 20 9 20ZM9 17C8.44998 17 7.99998 16.55 7.99998 16C7.99998 15.45 8.44998 15 9 15C9.55002 15 10 15.45 10 16C10 16.55 9.55002 17 9 17ZM12 20C11.45 20 11 19.55 11 19C11 18.45 11.45 18 12 18C12.55 18 13 18.45 13 19C13 19.55 12.55 20 12 20ZM12 17C11.45 17 11 16.55 11 16C11 15.45 11.45 15 12 15C12.55 15 13 15.45 13 16C13 16.55 12.55 17 12 17ZM15 20C14.45 20 14 19.55 14 19C14 18.45 14.45 18 15 18C15.55 18 16 18.45 16 19C16 19.55 15.55 20 15 20ZM15 17C14.45 17 14 16.55 14 16C14 15.45 14.45 15 15 15C15.55 15 16 15.45 16 16C16 16.55 15.55 17 15 17ZM16 12C16 12.55 15.55 13 15 13H9C8.44998 13 7.99998 12.55 7.99998 12V5C7.99998 4.45 8.44998 4 9 4H15C15.55 4 16 4.45 16 5V12Z" fill="currentColor"/>
  </symbol>
  <symbol id="ic_mobile_horizontal" viewBox="0 0 24 24">
    <path d="M2 9L2 15C2 15.7956 2.31607 16.5587 2.87868 17.1213C3.44129 17.6839 4.20435 18 5 18L19 18C19.7956 18 20.5587 17.6839 21.1213 17.1213C21.6839 16.5587 22 15.7956 22 15L22 9C22 8.20435 21.6839 7.44129 21.1213 6.87868C20.5587 6.31607 19.7956 6 19 6L5 6C4.20435 6 3.44129 6.31607 2.87868 6.87868C2.31607 7.44129 2 8.20435 2 9ZM20 12C20 12.2472 19.9267 12.4889 19.7893 12.6945C19.652 12.9 19.4568 13.0602 19.2284 13.1548C18.9999 13.2495 18.7486 13.2742 18.5061 13.226C18.2637 13.1777 18.0409 13.0587 17.8661 12.8839C17.6913 12.7091 17.5723 12.4863 17.524 12.2439C17.4758 12.0014 17.5005 11.7501 17.5951 11.5216C17.6898 11.2932 17.85 11.098 18.0555 10.9607C18.2611 10.8233 18.5028 10.75 18.75 10.75C19.0815 10.75 19.3995 10.8817 19.6339 11.1161C19.8683 11.3505 20 11.6685 20 12Z" fill="currentColor"/>
  </symbol>
  <symbol id="ic_mobile_number_portability" viewBox="0 0 24 24">
    <path d="M19 3.99982H15C14.06 3.99982 13.16 4.44982 12.6 5.19982L10.6 7.86982C10.21 8.38982 10 9.01982 10 9.66982V17.9998C10 19.6498 11.35 20.9998 13 20.9998H19C20.65 20.9998 22 19.6498 22 17.9998V6.99982C22 5.34982 20.65 3.99982 19 3.99982ZM12 10.9998H14V13.9998H12V10.9998ZM16 18.9998H13C12.45 18.9998 12 18.5498 12 17.9998V15.9998H16V18.9998ZM20 17.9998C20 18.5498 19.55 18.9998 19 18.9998H18V15.9998H20V17.9998ZM20 13.9998H16V10.9998H20V13.9998ZM8 9.18982C8 9.12982 8.01 9.06982 8.02 8.99982H8C7.06 8.99982 6.16 9.44982 5.6 10.1998L3.6 12.8698C3.21 13.3898 3 14.0198 3 14.6698V17.9998C3 19.6498 4.35 20.9998 6 20.9998H9.03C8.4 20.1598 8 19.1298 8 17.9998V9.18982ZM9.71 4.29982L7.71 2.29982C7.32 1.90982 6.69 1.90982 6.3 2.29982C5.91 2.68982 5.91 3.31982 6.3 3.70982L6.59 3.99982H3C2.45 3.99982 2 4.44982 2 4.99982C2 5.54982 2.45 5.99982 3 5.99982H6.59L6.3 6.28982C5.91 6.67982 5.91 7.30982 6.3 7.69982C6.5 7.89982 6.75 7.98982 7.01 7.98982C7.27 7.98982 7.52 7.88982 7.72 7.69982L9.72 5.69982C10.11 5.30982 10.11 4.67982 9.72 4.28982L9.71 4.29982Z" fill="currentColor"/>
  </symbol>
  <symbol id="ic_mobile_off" viewBox="0 0 24 24">
    <path d="M15 2H9C8.20436 2 7.44129 2.31607 6.87868 2.87868C6.31608 3.44129 6.00001 4.20435 6.00001 5V13.76L17 2.76C16.4494 2.26947 15.7374 1.99892 15 2ZM20.49 3.51C20.3966 3.41167 20.2841 3.33336 20.1595 3.27985C20.0349 3.22635 19.9006 3.19875 19.765 3.19875C19.6294 3.19875 19.4951 3.22635 19.3705 3.27985C19.2459 3.33336 19.1334 3.41167 19.04 3.51L3.51 19C3.41217 19.0978 3.33456 19.214 3.28162 19.3418C3.22867 19.4696 3.20142 19.6066 3.20142 19.745C3.20142 19.8834 3.22867 20.0204 3.28162 20.1482C3.33456 20.276 3.41217 20.3922 3.51 20.49C3.70759 20.6876 3.97558 20.7986 4.25501 20.7986C4.39336 20.7986 4.53037 20.7713 4.6582 20.7184C4.78602 20.6654 4.90217 20.5878 5.00001 20.49L6.00001 19.4C6.09744 20.1245 6.45604 20.7884 7.00844 21.2672C7.56085 21.7459 8.26904 22.0065 9 22H15C15.7957 22 16.5587 21.6839 17.1213 21.1213C17.6839 20.5587 18 19.7957 18 19V7.44L20.49 5C20.5948 4.90621 20.6786 4.79138 20.7359 4.66301C20.7933 4.53464 20.8229 4.39561 20.8229 4.255C20.8229 4.1144 20.7933 3.97537 20.7359 3.847C20.6786 3.71863 20.5948 3.6038 20.49 3.51ZM12 20C11.7528 20 11.5111 19.9267 11.3055 19.7893C11.1 19.652 10.9398 19.4568 10.8452 19.2284C10.7505 19 10.7258 18.7486 10.774 18.5061C10.8223 18.2637 10.9413 18.0409 11.1161 17.8661C11.2909 17.6913 11.5137 17.5723 11.7561 17.524C11.9986 17.4758 12.25 17.5005 12.4784 17.5952C12.7068 17.6898 12.902 17.85 13.0393 18.0555C13.1767 18.2611 13.25 18.5028 13.25 18.75C13.25 19.0815 13.1183 19.3995 12.8839 19.6339C12.6495 19.8683 12.3315 20 12 20Z" fill="currentColor"/>
  </symbol>
  <symbol id="ic_mobile_receive" viewBox="0 0 24 24">
    <path d="M17.12 2.88C16.56 2.32 15.79 2 15 2H9C8.2 2 7.44 2.32 6.88 2.88C6.32 3.44 6 4.21 6 5V19C6 19.8 6.32 20.56 6.88 21.12C7.44 21.68 8.21 22 9 22H15C15.8 22 16.56 21.68 17.12 21.12C17.68 20.56 18 19.79 18 19V5C18 4.2 17.68 3.44 17.12 2.88ZM12.88 19.64C12.65 19.87 12.33 20.01 12 20.01C11.75 20.01 11.51 19.94 11.31 19.8C11.1 19.66 10.94 19.47 10.85 19.24C10.76 19.01 10.73 18.76 10.78 18.52C10.83 18.28 10.95 18.05 11.12 17.88C11.29 17.71 11.52 17.59 11.76 17.54C12 17.49 12.25 17.52 12.48 17.61C12.71 17.7 12.9 17.86 13.04 18.07C13.18 18.28 13.25 18.52 13.25 18.76C13.25 19.09 13.12 19.41 12.88 19.64ZM14.7 12.7L12.7 14.7C12.61 14.79 12.5 14.87 12.37 14.92C12.25 14.97 12.12 15 11.99 15C11.86 15 11.73 14.97 11.61 14.92C11.49 14.87 11.38 14.8 11.28 14.7L9.28 12.7C8.89 12.31 8.89 11.68 9.28 11.29C9.67 10.9 10.3 10.9 10.69 11.29L10.98 11.58V4.99C10.98 4.44 11.43 3.99 11.98 3.99C12.53 3.99 12.98 4.44 12.98 4.99V11.58L13.27 11.29C13.66 10.9 14.29 10.9 14.68 11.29C15.07 11.68 15.07 12.31 14.68 12.7H14.7Z" fill="currentColor"/>
  </symbol>
  <symbol id="ic_mobile_send" viewBox="0 0 24 24">
    <path d="M17.12 2.88C16.56 2.32 15.79 2 15 2H9C8.2 2 7.44 2.32 6.88 2.88C6.32 3.44 6 4.21 6 5V19C6 19.8 6.32 20.56 6.88 21.12C7.44 21.68 8.21 22 9 22H15C15.8 22 16.56 21.68 17.12 21.12C17.68 20.56 18 19.79 18 19V5C18 4.2 17.68 3.44 17.12 2.88ZM12.88 19.63C12.65 19.86 12.33 20 12 20C11.75 20 11.51 19.93 11.31 19.79C11.1 19.65 10.94 19.46 10.85 19.23C10.76 19 10.73 18.75 10.78 18.51C10.83 18.27 10.95 18.04 11.12 17.87C11.29 17.7 11.52 17.58 11.76 17.53C12 17.48 12.25 17.51 12.48 17.6C12.71 17.69 12.9 17.85 13.04 18.06C13.18 18.27 13.25 18.51 13.25 18.75C13.25 19.08 13.12 19.4 12.88 19.63ZM14.71 7.7C14.32 8.09 13.69 8.09 13.3 7.7L13.01 7.41V14C13.01 14.55 12.56 15 12.01 15C11.46 15 11.01 14.55 11.01 14V7.41L10.72 7.7C10.33 8.09 9.7 8.09 9.31 7.7C8.92 7.31 8.92 6.68 9.31 6.29L11.31 4.29C11.4 4.2 11.51 4.12 11.64 4.07C11.76 4.02 11.89 3.99 12.02 3.99C12.15 3.99 12.28 4.02 12.4 4.07C12.52 4.12 12.63 4.19 12.73 4.29L14.73 6.29C15.12 6.68 15.12 7.31 14.73 7.7H14.71Z" fill="currentColor"/>
  </symbol>
</svg>
