<!-- JioGames DLS — moon icons (13 icons) -->
<svg xmlns="http://www.w3.org/2000/svg" style="display:none">
  <symbol id="ic_moon_1_4" viewBox="0 0 24 24">
    <path d="M21.95 10.98C21.88 10.31 21.75 9.66 21.55 9.03C21.45 8.72 21.34 8.41 21.21 8.11C21 7.62 20.75 7.17 20.48 6.72C20.09 6.1 19.64 5.51 19.13 4.99C19.11 4.97 19.09 4.95 19.07 4.93C19.05 4.91 19.03 4.89 19.01 4.87C18.49 4.36 17.91 3.91 17.28 3.52C16.84 3.24 16.38 2.99 15.89 2.79C15.59 2.66 15.28 2.55 14.97 2.45C14.34 2.26 13.69 2.12 13.02 2.05C12.68 2.02 12.34 2 12 2C6.48 2 2 6.48 2 12C2 17.52 6.48 22 12 22C12.35 22 12.69 21.98 13.02 21.95C13.69 21.88 14.34 21.75 14.97 21.55C15.6 21.35 16.2 21.1 16.76 20.79C17.89 20.17 18.89 19.35 19.71 18.36C19.91 18.11 20.11 17.86 20.29 17.59C20.65 17.06 20.96 16.49 21.21 15.89C21.72 14.69 22 13.38 22 12C22 11.65 21.98 11.31 21.95 10.98ZM4 12C4 7.59 7.59 4 12 4V20C7.59 20 4 16.41 4 12Z" fill="currentColor"/>
  </symbol>
  <symbol id="ic_moon_3_4" viewBox="0 0 24 24">
    <path d="M12 2C10.62 2 9.3 2.28 8.11 2.79C7.51 3.04 6.94 3.35 6.41 3.71C6.14 3.89 5.89 4.08 5.64 4.29C3.66 5.92 2.33 8.29 2.05 10.98C2.02 11.32 2 11.66 2 12C2 17.52 6.48 22 12 22C17.52 22 22 17.52 22 12C22 6.48 17.52 2 12 2ZM12 20V4C16.41 4 20 7.59 20 12C20 16.41 16.41 20 12 20Z" fill="currentColor"/>
  </symbol>
  <symbol id="ic_moon_full" viewBox="0 0 24 24">
    <path d="M12 22C17.5228 22 22 17.5228 22 12C22 6.47715 17.5228 2 12 2C6.47715 2 2 6.47715 2 12C2 17.5228 6.47715 22 12 22Z" fill="currentColor"/>
  </symbol>
  <symbol id="ic_moon_new" viewBox="0 0 24 24">
    <path d="M12 4C16.41 4 20 7.59 20 12C20 16.41 16.41 20 12 20C7.59 20 4 16.41 4 12C4 7.59 7.59 4 12 4ZM12 2C6.48 2 2 6.48 2 12C2 17.52 6.48 22 12 22C17.52 22 22 17.52 22 12C22 6.48 17.52 2 12 2Z" fill="currentColor"/>
  </symbol>
  <symbol id="ic_moon_partly_cloudy" viewBox="0 0 24 24">
    <path d="M8.04989 14.9601C6.38989 15.1701 4.80989 14.8701 3.44989 14.1901C2.57989 13.7501 1.67989 14.6801 2.10989 15.5401C2.81989 16.9501 3.85989 18.1601 5.10989 19.0901C5.38989 17.9101 6.18989 16.9201 7.25989 16.4001C7.43989 15.8701 7.70989 15.3901 8.03989 14.9601H8.04989ZM13.6599 11.4901C14.3899 11.1701 15.1899 11.0001 15.9999 11.0001C17.8999 11.0001 19.6399 11.9201 20.7499 13.3701C20.8799 12.8401 20.9699 12.2901 21.0099 11.7301C21.2899 7.5401 18.9899 3.8601 15.5299 2.1201C14.6599 1.6801 13.7399 2.5901 14.1799 3.4601C14.8899 4.8701 15.1999 6.5101 14.9399 8.2501C14.7699 9.4401 14.2999 10.5401 13.6499 11.5001L13.6599 11.4901ZM19.9099 16.1501C19.5199 14.3501 17.9199 13.0001 15.9999 13.0001C14.4999 13.0001 13.2099 13.8301 12.5299 15.0501C12.3599 15.0201 12.1799 15.0001 11.9999 15.0001C10.3399 15.0001 8.99989 16.3401 8.99989 18.0001C7.89989 18.0001 6.99989 18.9001 6.99989 20.0001C6.99989 21.1001 7.89989 22.0001 8.99989 22.0001H18.9999C20.6599 22.0001 21.9999 20.6601 21.9999 19.0001C21.9999 17.6601 21.1199 16.5401 19.9099 16.1501Z" fill="currentColor"/>
  </symbol>
  <symbol id="ic_moon_waning_1_6" viewBox="0 0 24 24">
    <path d="M12 22C17.52 22 22 17.52 22 12C22 6.48 17.52 2 12 2C6.48 2 2 6.48 2 12C2 17.52 6.48 22 12 22ZM20 12C20 16.41 16.41 20 12 20C11.15 20 10.33 19.86 9.56 19.62C7.39 17.79 6 15.07 6 12C6 8.93 7.39 6.22 9.56 4.38C10.33 4.13 11.15 4 12 4C16.41 4 20 7.59 20 12Z" fill="currentColor"/>
  </symbol>
  <symbol id="ic_moon_waning_2_6_cresent" viewBox="0 0 24 24">
    <path d="M12 22C17.52 22 22 17.52 22 12C22 6.48 17.52 2 12 2C6.48 2 2 6.48 2 12C2 17.52 6.48 22 12 22ZM20 12C20 16.4 16.43 19.98 12.03 20C9.59 18.18 8 15.28 8 12C8 8.72 9.59 5.82 12.03 4C16.43 4.02 20 7.6 20 12Z" fill="currentColor"/>
  </symbol>
  <symbol id="ic_moon_waning_4_6_gibbous" viewBox="0 0 24 24">
    <path d="M12 22C17.52 22 22 17.52 22 12C22 6.48 17.52 2 12 2C6.48 2 2 6.48 2 12C2 17.52 6.48 22 12 22ZM20 12C20 16.41 16.41 20 12 20C11.99 20 11.98 20 11.97 20C14.41 18.18 16 15.28 16 12C16 8.72 14.41 5.82 11.97 4C11.98 4 11.99 4 12 4C16.41 4 20 7.59 20 12Z" fill="currentColor"/>
  </symbol>
  <symbol id="ic_moon_waning_5_6" viewBox="0 0 24 24">
    <path d="M12 22C17.52 22 22 17.52 22 12C22 6.48 17.52 2 12 2C6.48 2 2 6.48 2 12C2 17.52 6.48 22 12 22ZM20 12C20 15.56 17.66 18.58 14.44 19.62C16.61 17.79 18 15.07 18 12C18 8.93 16.61 6.22 14.44 4.38C17.66 5.42 20 8.44 20 12Z" fill="currentColor"/>
  </symbol>
  <symbol id="ic_moon_waxing_1_6" viewBox="0 0 24 24">
    <path d="M12 2C6.48 2 2 6.48 2 12C2 17.52 6.48 22 12 22C17.52 22 22 17.52 22 12C22 6.48 17.52 2 12 2ZM4 12C4 7.59 7.59 4 12 4C12.85 4 13.67 4.14 14.44 4.38C16.61 6.21 18 8.93 18 12C18 15.07 16.61 17.78 14.44 19.62C13.67 19.87 12.85 20 12 20C7.59 20 4 16.41 4 12Z" fill="currentColor"/>
  </symbol>
  <symbol id="ic_moon_waxing_2_6_cresent" viewBox="0 0 24 24">
    <path d="M12 2C6.48 2 2 6.48 2 12C2 17.52 6.48 22 12 22C17.52 22 22 17.52 22 12C22 6.48 17.52 2 12 2ZM4 12C4 7.6 7.57 4.02 11.97 4C14.41 5.82 16 8.72 16 12C16 15.28 14.41 18.18 11.97 20C7.57 19.98 4 16.4 4 12Z" fill="currentColor"/>
  </symbol>
  <symbol id="ic_moon_waxing_4_6_gibbous" viewBox="0 0 24 24">
    <path d="M12 2C6.48 2 2 6.48 2 12C2 17.52 6.48 22 12 22C17.52 22 22 17.52 22 12C22 6.48 17.52 2 12 2ZM4 12C4 7.59 7.59 4 12 4C12.01 4 12.02 4 12.03 4C9.59 5.82 8 8.72 8 12C8 15.28 9.59 18.18 12.03 20C12.02 20 12.01 20 12 20C7.59 20 4 16.41 4 12Z" fill="currentColor"/>
  </symbol>
  <symbol id="ic_moon_waxing_5_6" viewBox="0 0 24 24">
    <path d="M12 2C6.48 2 2 6.48 2 12C2 17.52 6.48 22 12 22C17.52 22 22 17.52 22 12C22 6.48 17.52 2 12 2ZM4 12C4 8.44 6.34 5.42 9.56 4.38C7.39 6.21 6 8.93 6 12C6 15.07 7.39 17.78 9.56 19.62C6.34 18.58 4 15.56 4 12Z" fill="currentColor"/>
  </symbol>
</svg>
