<!-- JioGames DLS — music icons (4 icons) -->
<svg xmlns="http://www.w3.org/2000/svg" style="display:none">
  <symbol id="ic_music" viewBox="0 0 24 24">
    <path d="M20.19 2.40016C19.9407 2.21555 19.652 2.09145 19.3465 2.03764C19.0411 1.98384 18.7273 2.00182 18.43 2.09016L10.43 4.49016C10.0181 4.61263 9.65653 4.86454 9.39896 5.20856C9.1414 5.55257 9.0015 5.97041 8.99998 6.40016V14.5502C8.23689 14.1096 7.34968 13.9333 6.47613 14.0487C5.60258 14.1641 4.79158 14.5647 4.16907 15.1884C3.54656 15.812 3.14739 16.6237 3.03354 17.4974C2.91968 18.3712 3.09753 19.2581 3.53945 20.0204C3.98136 20.7827 4.66263 21.3778 5.47744 21.7132C6.29225 22.0486 7.195 22.1055 8.04551 21.8752C8.89602 21.6449 9.64668 21.1402 10.1809 20.4395C10.7152 19.7388 11.0031 18.8813 11 18.0002V6.40016L19 4.00016V12.5502C18.2369 12.1096 17.3497 11.9333 16.4761 12.0487C15.6026 12.1641 14.7916 12.5647 14.1691 13.1884C13.5466 13.812 13.1474 14.6237 13.0335 15.4974C12.9197 16.3712 13.0975 17.2581 13.5394 18.0204C13.9814 18.7827 14.6626 19.3778 15.4774 19.7132C16.2922 20.0486 17.195 20.1055 18.0455 19.8752C18.896 19.6449 19.6467 19.1402 20.1809 18.4395C20.7152 17.7388 21.0031 16.8813 21 16.0002V4.00016C20.9988 3.68882 20.925 3.38205 20.7844 3.10428C20.6437 2.82651 20.4402 2.5854 20.19 2.40016Z" fill="currentColor"/>
  </symbol>
  <symbol id="ic_music_album" viewBox="0 0 24 24">
    <path d="M18 3H6C5.20435 3 4.44129 3.31607 3.87868 3.87868C3.31607 4.44129 3 5.20435 3 6V18C3 18.7956 3.31607 19.5587 3.87868 20.1213C4.44129 20.6839 5.20435 21 6 21H18C18.7956 21 19.5587 20.6839 20.1213 20.1213C20.6839 19.5587 21 18.7956 21 18V6C21 5.20435 20.6839 4.44129 20.1213 3.87868C19.5587 3.31607 18.7956 3 18 3ZM17 15C17 15.3956 16.8827 15.7822 16.6629 16.1111C16.4432 16.44 16.1308 16.6964 15.7654 16.8478C15.3999 16.9991 14.9978 17.0387 14.6098 16.9616C14.2219 16.8844 13.8655 16.6939 13.5858 16.4142C13.3061 16.1345 13.1156 15.7781 13.0384 15.3902C12.9613 15.0022 13.0009 14.6001 13.1522 14.2346C13.3036 13.8692 13.56 13.5568 13.8889 13.3371C14.2178 13.1173 14.6044 13 15 13V8.34L10 9.82V16C10 16.3956 9.8827 16.7822 9.66294 17.1111C9.44318 17.44 9.13082 17.6964 8.76537 17.8478C8.39991 17.9991 7.99778 18.0387 7.60982 17.9616C7.22186 17.8844 6.86549 17.6939 6.58579 17.4142C6.30608 17.1345 6.1156 16.7781 6.03843 16.3902C5.96126 16.0022 6.00087 15.6001 6.15224 15.2346C6.30362 14.8692 6.55996 14.5568 6.88886 14.3371C7.21776 14.1173 7.60444 14 8 14V9.08C7.99052 8.85814 8.05515 8.63944 8.18371 8.45838C8.31226 8.27732 8.49742 8.14419 8.71 8.08L15.71 6C15.8605 5.95488 16.0195 5.94586 16.1741 5.97365C16.3287 6.00145 16.4746 6.06529 16.6 6.16C16.7298 6.25712 16.834 6.38432 16.9036 6.53065C16.9733 6.67698 17.0064 6.83805 17 7V15Z" fill="currentColor"/>
  </symbol>
  <symbol id="ic_music_note" viewBox="0 0 24 24">
    <path d="M18.56 3.16995C18.4249 3.07873 18.2695 3.02194 18.1074 3.00451C17.9453 2.98708 17.7814 3.00955 17.63 3.06995L7.62999 7.06995C7.44392 7.14405 7.2844 7.27232 7.17207 7.43813C7.05974 7.60395 6.99979 7.79967 6.99999 7.99995V15.1799C6.39924 14.9676 5.74647 14.952 5.13626 15.1354C4.52606 15.3189 3.99011 15.6918 3.60608 16.2003C3.22205 16.7088 3.00989 17.3263 3.00034 17.9634C2.99078 18.6005 3.18434 19.2241 3.55295 19.7439C3.92156 20.2636 4.44609 20.6525 5.05052 20.8542C5.65495 21.0558 6.3079 21.0598 6.91474 20.8655C7.52159 20.6712 8.05081 20.2888 8.42573 19.7736C8.80064 19.2583 9.00178 18.6371 8.99999 17.9999V8.67995L17 5.47995V12.1799C16.3992 11.9676 15.7465 11.952 15.1363 12.1354C14.5261 12.3189 13.9901 12.6918 13.6061 13.2003C13.2221 13.7088 13.0099 14.3263 13.0003 14.9634C12.9908 15.6005 13.1843 16.2241 13.553 16.7439C13.9216 17.2636 14.4461 17.6525 15.0505 17.8542C15.655 18.0558 16.3079 18.0598 16.9147 17.8655C17.5216 17.6712 18.0508 17.2888 18.4257 16.7736C18.8006 16.2583 19.0018 15.6371 19 14.9999V3.99995C19.0002 3.83614 18.9602 3.67479 18.8835 3.53006C18.8068 3.38534 18.6957 3.26168 18.56 3.16995Z" fill="currentColor"/>
  </symbol>
  <symbol id="ic_music_note_single" viewBox="0 0 24 24">
    <path d="M17.7897 6.7132C17.7977 7.00903 17.7097 7.30486 17.5338 7.54473C17.3579 7.7846 17.1021 7.9605 16.8222 8.04045L13.1443 9.03989V16.6756C13.1443 17.3312 12.9524 17.9709 12.5846 18.5226C12.2168 19.0663 11.6971 19.498 11.0974 19.7459C10.4898 19.9938 9.82614 20.0657 9.1785 19.9378C8.53086 19.8099 7.93919 19.49 7.47545 19.0263C7.01171 18.5626 6.69189 17.9709 6.56396 17.3232C6.43604 16.6756 6.5 16.012 6.75586 15.4043C7.00372 14.7967 7.43548 14.277 7.97917 13.9172C8.52287 13.5494 9.1705 13.3575 9.82614 13.3575C10.05 13.3575 10.2739 13.3815 10.4898 13.4214V6.7132C10.4818 6.41736 10.5697 6.12153 10.7456 5.88166C10.9215 5.6418 11.1774 5.4659 11.4572 5.38594L16.1026 4.05069C16.3025 3.99472 16.5024 3.98672 16.7023 4.01871C16.9022 4.05868 17.0941 4.13864 17.254 4.25857C17.4219 4.3785 17.5498 4.54641 17.6458 4.73031C17.7417 4.9142 17.7897 5.12209 17.7897 5.32198V6.7132Z" fill="currentColor"/>
  </symbol>
</svg>
