<!-- JioGames DLS — ndia icons (1 icons) -->
<svg xmlns="http://www.w3.org/2000/svg" style="display:none">
  <symbol id="ic_india" viewBox="0 0 24 24">
    <path d="M19.26 7.24993C19.07 7.17993 18.63 7.24993 18.45 7.34993C18.06 7.55993 17.23 8.05993 17.09 8.47993C17.05 8.59993 17.18 8.98993 17.18 8.98993L15.97 9.19993C15.97 9.19993 15.56 9.06993 15.47 8.95993C15.39 8.84993 15.47 8.50993 15.38 8.41993C15.29 8.33993 14.95 8.31993 14.89 8.42993C14.78 8.63993 15.16 9.18993 15.01 9.35993C14.87 9.51993 14.18 9.37993 14.18 9.37993C13.91 9.37993 13.64 9.34993 13.38 9.25993L12.33 8.91993C12.17 8.86993 12.01 8.79993 11.86 8.70993C11.86 8.70993 10.7 8.34993 10.63 8.00993C10.58 7.77993 11.1 7.38993 11.04 7.15993C10.96 6.84993 9.98997 6.41993 9.98997 6.41993C9.98997 6.41993 9.74997 5.79993 9.89997 5.69993C9.96997 5.65993 10.1 5.85993 10.18 5.87993C10.27 5.89993 10.46 5.76993 10.48 5.67993C10.53 5.49993 10.13 4.99993 10.13 4.99993L10.78 4.37993C10.78 4.37993 10.98 3.98993 10.92 3.87993C10.86 3.75993 10.54 3.68993 10.4 3.68993C10.16 3.68993 9.43997 3.86993 9.43997 3.86993L9.25997 3.69993C8.73997 3.19993 8.04997 2.94993 7.35997 2.99993C7.35997 2.99993 6.98997 3.31993 7.00997 3.45993C7.03997 3.70993 7.74997 3.82993 7.78997 4.06993C7.79997 4.13993 7.59997 4.27993 7.59997 4.27993C7.59997 4.27993 7.43997 4.27993 7.40997 4.31993C7.25997 4.49993 7.23997 5.08993 7.39997 5.26993C7.52997 5.42993 8.04997 5.50993 8.08997 5.70993C8.24997 6.52993 6.14997 8.44993 6.14997 8.44993C6.14997 8.44993 5.51997 8.29993 5.32997 8.36993C5.11997 8.44993 4.77997 8.87993 4.80997 9.09993C4.86997 9.49993 5.72997 10.1099 5.60997 10.4899C5.55997 10.6499 5.15997 10.7799 4.98997 10.7899C4.81997 10.7899 4.47997 10.6399 4.29997 10.6699C4.18997 10.6899 3.96997 10.8699 3.96997 10.9899C3.96997 11.1999 4.52997 11.5999 4.52997 11.5999C4.52997 11.5999 4.43997 12.0099 4.47997 12.1399C4.56997 12.4499 5.11997 12.9899 5.43997 12.9999L5.45997 12.9799C5.45997 12.9799 6.16997 12.5699 6.37997 12.6899C6.48997 12.7499 6.49997 13.1999 6.49997 13.1999V14.2599C6.51997 14.5499 6.55997 14.8399 6.64997 15.1199L7.75997 18.5499L8.05997 19.1599L8.46997 20.5699C8.46997 20.5699 8.68997 20.8999 8.79997 20.9599C8.92997 21.0299 9.26997 21.0099 9.37997 20.9099C9.45997 20.8499 9.48997 20.5299 9.48997 20.5299L10.47 19.3599V19.2499L10.45 18.7099L10.47 18.6299L10.74 17.6899L10.71 17.6699V17.6399L10.74 17.6799V17.6299L10.59 16.6899C10.59 16.6899 10.65 16.3599 10.71 16.2699C11.1 15.6999 12.91 14.6099 12.91 14.6099L13.3 14.0699C13.3 14.0699 13.45 13.7399 13.54 13.6699C13.68 13.5699 14.07 13.5899 14.21 13.4899C14.45 13.3099 14.6 12.6799 14.79 12.4399C14.86 12.3499 15.05 12.2099 15.16 12.2099C15.3 12.2099 15.6 12.4599 15.7 12.3599C16.11 11.9799 15.23 10.1799 15.23 10.1799C15.23 10.1799 15.05 9.49993 15.21 9.36993C15.34 9.25993 15.87 9.49993 15.87 9.49993L15.98 9.96993L16.3 10.1399C16.3 10.1399 17.26 9.92993 17.42 10.1599C17.47 10.2299 17.31 10.4599 17.31 10.4599L17.41 10.9799C17.41 10.9799 17.41 11.8899 17.65 11.9299C17.84 11.9599 18.05 11.2899 18.05 11.2899L17.97 10.7199L18.36 10.7599C18.36 10.7599 18.57 10.0099 18.65 9.76993C18.71 9.56993 18.92 8.97993 18.92 8.97993L19.7 8.45993C19.7 8.45993 19.99 8.14993 19.99 8.00993C19.99 7.73993 19.51 7.29993 19.25 7.19993L19.26 7.24993Z" fill="currentColor"/>
  </symbol>
</svg>
