<!-- JioGames DLS — network icons (4 icons) -->
<svg xmlns="http://www.w3.org/2000/svg" style="display:none">
  <symbol id="ic_network" viewBox="0 0 24 24">
    <path d="M19 15H18V13C18 12.4696 17.7893 11.9609 17.4142 11.5858C17.0391 11.2107 16.5304 11 16 11H13V9H14C14.5304 9 15.0391 8.78929 15.4142 8.41421C15.7893 8.03914 16 7.53043 16 7V5C16 4.46957 15.7893 3.96086 15.4142 3.58579C15.0391 3.21071 14.5304 3 14 3H10C9.46957 3 8.96086 3.21071 8.58579 3.58579C8.21071 3.96086 8 4.46957 8 5V7C8 7.53043 8.21071 8.03914 8.58579 8.41421C8.96086 8.78929 9.46957 9 10 9H11V11H8C7.46957 11 6.96086 11.2107 6.58579 11.5858C6.21071 11.9609 6 12.4696 6 13V15H5C4.46957 15 3.96086 15.2107 3.58579 15.5858C3.21071 15.9609 3 16.4696 3 17V19C3 19.5304 3.21071 20.0391 3.58579 20.4142C3.96086 20.7893 4.46957 21 5 21H9C9.53043 21 10.0391 20.7893 10.4142 20.4142C10.7893 20.0391 11 19.5304 11 19V17C11 16.4696 10.7893 15.9609 10.4142 15.5858C10.0391 15.2107 9.53043 15 9 15H8V13H16V15H15C14.4696 15 13.9609 15.2107 13.5858 15.5858C13.2107 15.9609 13 16.4696 13 17V19C13 19.5304 13.2107 20.0391 13.5858 20.4142C13.9609 20.7893 14.4696 21 15 21H19C19.5304 21 20.0391 20.7893 20.4142 20.4142C20.7893 20.0391 21 19.5304 21 19V17C21 16.4696 20.7893 15.9609 20.4142 15.5858C20.0391 15.2107 19.5304 15 19 15Z" fill="currentColor"/>
  </symbol>
  <symbol id="ic_network_details" viewBox="0 0 24 24">
    <path d="M22 12C22 10.69 20.82 9.72 19.06 9.07C20.12 6.74 19.67 5.53 19.06 4.93C18.14 4 16.62 4.16 14.92 4.93C14.27 3.18 13.31 2 12 2C10.69 2 9.73 3.18 9.07 4.93C7.37 4.16 5.85 4 4.93 4.93C4.33 5.53 3.93 6.74 4.93 9.07C3.18 9.72 2 10.69 2 12C2 13.31 3.18 14.28 4.94 14.93C3.88 17.26 4.33 18.47 4.94 19.07C5.16389 19.2853 5.42906 19.4529 5.71951 19.5629C6.00996 19.6729 6.31969 19.723 6.63 19.71C7.48281 19.6649 8.31702 19.4436 9.08 19.06C9.72 20.82 10.69 22 12 22C13.31 22 14.28 20.82 14.93 19.06C15.693 19.4436 16.5272 19.6649 17.38 19.71C17.6903 19.723 18 19.6729 18.2905 19.5629C18.5809 19.4529 18.8461 19.2853 19.07 19.07C19.67 18.47 20.12 17.26 19.07 14.93C20.82 14.28 22 13.31 22 12ZM17.38 6.27C17.4787 6.25863 17.5782 6.2835 17.66 6.34C17.72 6.4 17.86 7.02 17.13 8.51C16.68 8.41 16.21 8.33 15.74 8.26C15.67 7.79 15.59 7.33 15.49 6.89C16.0714 6.55732 16.7145 6.34638 17.38 6.27ZM14 12C14 12.28 14 12.54 14 12.8C13.8 13.01 13.62 13.21 13.42 13.41L12.83 13.99H11.18L10.59 13.41C10.39 13.21 10.21 13.01 10.01 12.8C10.01 12.54 10.01 12.28 10.01 12C10.01 11.72 10.01 11.46 10.01 11.2C10.21 10.99 10.39 10.79 10.59 10.59C10.79 10.39 10.99 10.2 11.19 10.01H12.81C13.01 10.2 13.21 10.38 13.41 10.59C13.61 10.8 13.79 10.99 13.99 11.2C14 11.46 14 11.72 14 12ZM13.64 8.05H13.7V8.12L13.64 8.05ZM10.36 8.05V8H10.42L10.36 8.05ZM8.05 10.37V10.31H8.11L8.05 10.37ZM8.05 13.63H8V13.57L8.05 13.63ZM10.37 16H10.3C10.3049 15.9769 10.3049 15.9531 10.3 15.93L10.37 16ZM13.63 16H13.56H13.63ZM16 13.63V13.69V13.63ZM16 10.37V10.43V10.37ZM12 4C12.25 4 12.73 4.65 13.15 5.91C12.77 6.16 12.38 6.43 12 6.71C11.62 6.43 11.23 6.16 10.85 5.91C11.27 4.65 11.75 4 12 4ZM6.34 6.34C6.42176 6.2835 6.52127 6.25863 6.62 6.27C7.28552 6.34638 7.92855 6.55732 8.51 6.89C8.41 7.33 8.33 7.79 8.26 8.26C7.79 8.33 7.32 8.41 6.87 8.51C6.14 7 6.28 6.4 6.34 6.34ZM4 12C4 11.75 4.65 11.27 5.91 10.85C6.16 11.23 6.43 11.61 6.72 12C6.43 12.39 6.16 12.77 5.91 13.15C4.65 12.73 4 12.25 4 12ZM6.34 17.66C6.28 17.6 6.14 16.98 6.87 15.49C7.32 15.59 7.79 15.67 8.26 15.74C8.33 16.21 8.41 16.67 8.51 17.12C7.32 17.71 6.52 17.83 6.34 17.66ZM12 20C11.75 20 11.27 19.35 10.85 18.08C11.23 17.84 11.62 17.57 12 17.28C12.38 17.57 12.77 17.84 13.15 18.08C12.73 19.35 12.25 20 12 20ZM17.66 17.66C17.48 17.83 16.66 17.71 15.49 17.12C15.59 16.67 15.67 16.21 15.74 15.74C16.21 15.67 16.68 15.59 17.13 15.49C17.86 17 17.72 17.6 17.66 17.66ZM18.09 13.15C17.84 12.77 17.57 12.39 17.28 12C17.57 11.61 17.84 11.23 18.09 10.85C19.35 11.27 20 11.75 20 12C20 12.25 19.35 12.73 18.09 13.15Z" fill="currentColor"/>
  </symbol>
  <symbol id="ic_network_dish" viewBox="0 0 24 24">
    <path d="M15.94 8.46994C15.9802 8.31651 16.0003 8.15854 16 7.99994C16 7.46951 15.7893 6.9608 15.4142 6.58573C15.0391 6.21065 14.5304 5.99994 14 5.99994C13.8414 5.9996 13.6834 6.01977 13.53 6.05994L9.77 2.28994C9.67704 2.19621 9.56644 2.12182 9.44458 2.07105C9.32272 2.02028 9.19201 1.99414 9.06 1.99414C8.92799 1.99414 8.79728 2.02028 8.67542 2.07105C8.55356 2.12182 8.44296 2.19621 8.35 2.28994C7.20994 3.42549 6.4388 4.87845 6.13731 6.45906C5.83582 8.03967 6.01798 9.67446 6.66 11.1499C6.1692 11.7538 5.93781 12.5276 6.01653 13.3017C6.09526 14.0759 6.47769 14.7873 7.08 15.2799L5.31 19.9999H5C4.73478 19.9999 4.48043 20.1053 4.29289 20.2928C4.10536 20.4804 4 20.7347 4 20.9999C4 21.2652 4.10536 21.5195 4.29289 21.707C4.48043 21.8946 4.73478 21.9999 5 21.9999H13C13.2652 21.9999 13.5196 21.8946 13.7071 21.707C13.8946 21.5195 14 21.2652 14 20.9999C14 20.7347 13.8946 20.4804 13.7071 20.2928C13.5196 20.1053 13.2652 19.9999 13 19.9999H12.46L10.86 15.3399C12.3342 15.9798 13.967 16.1607 15.5455 15.8593C17.1241 15.5578 18.5753 14.788 19.71 13.6499C19.8037 13.557 19.8781 13.4464 19.9289 13.3245C19.9797 13.2027 20.0058 13.0719 20.0058 12.9399C20.0058 12.8079 19.9797 12.6772 19.9289 12.5554C19.8781 12.4335 19.8037 12.3229 19.71 12.2299L15.94 8.46994ZM7.44 19.9999L9 15.9999L10.38 19.9999H7.44ZM14 3.99994C15.0609 3.99994 16.0783 4.42137 16.8284 5.17151C17.5786 5.92166 18 6.93907 18 7.99994C18 8.26516 18.1054 8.51951 18.2929 8.70705C18.4804 8.89458 18.7348 8.99994 19 8.99994C19.2652 8.99994 19.5196 8.89458 19.7071 8.70705C19.8946 8.51951 20 8.26516 20 7.99994C20 6.40864 19.3679 4.88252 18.2426 3.7573C17.1174 2.63208 15.5913 1.99994 14 1.99994C13.7348 1.99994 13.4804 2.1053 13.2929 2.29283C13.1054 2.48037 13 2.73472 13 2.99994C13 3.26516 13.1054 3.51951 13.2929 3.70705C13.4804 3.89458 13.7348 3.99994 14 3.99994Z" fill="currentColor"/>
  </symbol>
  <symbol id="ic_network_future" viewBox="0 0 24 24">
    <path d="M12 2C10.0222 2 8.08879 2.58649 6.4443 3.6853C4.79981 4.78412 3.51809 6.3459 2.76121 8.17317C2.00433 10.0004 1.8063 12.0111 2.19215 13.9509C2.578 15.8907 3.53041 17.6725 4.92894 19.0711C6.32746 20.4696 8.10929 21.422 10.0491 21.8079C11.9889 22.1937 13.9996 21.9957 15.8268 21.2388C17.6541 20.4819 19.2159 19.2002 20.3147 17.5557C21.4135 15.9112 22 13.9778 22 12C22 10.6868 21.7413 9.38642 21.2388 8.17317C20.7363 6.95991 19.9997 5.85752 19.0711 4.92893C18.1425 4.00035 17.0401 3.26375 15.8268 2.7612C14.6136 2.25866 13.3132 2 12 2ZM10 4.25C10.6533 4.08183 11.3254 3.99782 12 4C12.48 4.00104 12.9589 4.04792 13.43 4.14C12.1804 4.79305 11.0831 5.70296 10.21 6.81C10.0689 6.21706 9.9984 5.6095 10 5C10 4.75 10 4.5 10 4.25ZM10.27 11C10.508 10.9681 10.7384 10.8936 10.95 10.78C11.6281 11.3159 12.2156 11.9575 12.69 12.68C12.565 12.9459 12.5001 13.2361 12.5 13.53C12.5 13.53 12.5 13.58 12.5 13.6C11.9591 13.9701 11.3747 14.2724 10.76 14.5C10.5626 14.3347 10.3351 14.2091 10.09 14.13C10.0282 13.7565 9.99813 13.3785 10 13C10.0019 12.3244 10.0927 11.6519 10.27 11ZM8 5.09C8.00199 5.82758 8.08923 6.56246 8.26 7.28C7.44254 7.07753 6.60201 6.98339 5.76 7C6.3821 6.23026 7.14162 5.58263 8 5.09ZM4.34 14.09H4.27C3.82474 12.4689 3.91239 10.7475 4.52 9.18C5.67264 8.94968 6.8625 8.98387 8 9.28C8.04711 9.61379 8.17783 9.93026 8.38 10.2C8.11777 11.1099 7.98975 12.0531 8 13C8.00183 13.5197 8.04867 14.0383 8.14 14.55C7.99935 14.672 7.88093 14.8175 7.79 14.98C6.5909 14.9644 5.41237 14.6663 4.35 14.11L4.34 14.09ZM5.52 16.66C6.25183 16.85 7.00397 16.9507 7.76 16.96C7.92196 17.2428 8.15057 17.4817 8.42594 17.656C8.70131 17.8303 9.0151 17.9347 9.34 17.96C9.73711 18.6499 10.2137 19.291 10.76 19.87C9.72142 19.7079 8.72496 19.3428 7.82756 18.7954C6.93017 18.2481 6.14944 17.5292 5.53 16.68L5.52 16.66ZM13.52 19.66C12.5473 19.0023 11.7313 18.1385 11.13 17.13C11.2805 16.9069 11.3827 16.6549 11.43 16.39C12.1847 16.1102 12.9032 15.7409 13.57 15.29C13.6384 15.3333 13.7124 15.3669 13.79 15.39C13.9135 15.9183 13.9838 16.4577 14 17C14.001 17.8992 13.8488 18.7919 13.55 19.64L13.52 19.66ZM14.47 11.52H14.32C13.6922 10.5569 12.9081 9.70518 12 9C12.0053 8.64929 11.9155 8.3037 11.74 8C12.7803 6.6849 14.2075 5.72993 15.82 5.27C15.9427 5.83841 16.0031 6.41851 16 7C16.0011 8.61198 15.5091 10.1857 14.59 11.51L14.47 11.52ZM15.75 19.07C15.9098 18.3914 15.9937 17.6971 16 17C15.9968 16.328 15.9265 15.658 15.79 15C15.8677 14.9308 15.9381 14.8537 16 14.77C16.6576 14.9119 17.3274 14.9889 18 15C18.4821 14.9989 18.9634 14.9622 19.44 14.89C18.7545 16.6684 17.4566 18.1436 15.78 19.05L15.75 19.07ZM16.33 12.83C16.3061 12.7543 16.276 12.6807 16.24 12.61C17.3841 10.9628 17.9981 9.00557 18 7C18 6.9 18 6.81 18 6.71C19.2885 8.17102 19.9996 10.052 20 12C20 12.25 20 12.49 19.95 12.73C18.7746 13.0263 17.5475 13.0536 16.36 12.81L16.33 12.83Z" fill="currentColor"/>
  </symbol>
</svg>
