<!-- JioGames DLS — new icons (2 icons) -->
<svg xmlns="http://www.w3.org/2000/svg" style="display:none">
  <symbol id="ic_new_chat" viewBox="0 0 24 24">
    <path d="M15.0001 4H9.00006C7.23973 4.01356 5.54913 4.68987 4.26515 5.89418C2.98118 7.09849 2.1981 8.74235 2.07196 10.4982C1.94582 12.2541 2.48588 13.993 3.58453 15.3685C4.68318 16.7439 6.25974 17.655 8.00006 17.92V20C8.00006 20.2786 8.07763 20.5516 8.22408 20.7886C8.37053 21.0256 8.58008 21.2171 8.82924 21.3416C9.07839 21.4662 9.35732 21.519 9.63476 21.4939C9.91221 21.4689 10.1772 21.3671 10.4001 21.2L14.6701 18H15.0001C16.8566 18 18.637 17.2625 19.9498 15.9497C21.2626 14.637 22.0001 12.8565 22.0001 11C22.0001 9.14348 21.2626 7.36301 19.9498 6.05025C18.637 4.7375 16.8566 4 15.0001 4ZM14.0001 12H13.0001V13C13.0001 13.2652 12.8947 13.5196 12.7072 13.7071C12.5196 13.8946 12.2653 14 12.0001 14C11.7348 14 11.4805 13.8946 11.2929 13.7071C11.1054 13.5196 11.0001 13.2652 11.0001 13V12H10.0001C9.73484 12 9.48049 11.8946 9.29295 11.7071C9.10541 11.5196 9.00006 11.2652 9.00006 11C9.00006 10.7348 9.10541 10.4804 9.29295 10.2929C9.48049 10.1054 9.73484 10 10.0001 10H11.0001V9C11.0001 8.73478 11.1054 8.48043 11.2929 8.29289C11.4805 8.10536 11.7348 8 12.0001 8C12.2653 8 12.5196 8.10536 12.7072 8.29289C12.8947 8.48043 13.0001 8.73478 13.0001 9V10H14.0001C14.2653 10 14.5196 10.1054 14.7072 10.2929C14.8947 10.4804 15.0001 10.7348 15.0001 11C15.0001 11.2652 14.8947 11.5196 14.7072 11.7071C14.5196 11.8946 14.2653 12 14.0001 12Z" fill="currentColor"/>
  </symbol>
  <symbol id="ic_new_tab_group" viewBox="0 0 24 24">
    <path d="M21.12 2.88C20.56 2.32 19.79 2 19 2H11C10.2 2 9.44 2.32 8.88 2.88C8.32 3.44 8 4.21 8 5V6H13C14.33 6 15.6 6.53 16.54 7.46C17.48 8.4 18 9.67 18 11V16H19C19.8 16 20.56 15.68 21.12 15.12C21.68 14.56 22 13.79 22 13V5C22 4.2 21.68 3.44 21.12 2.88ZM13 8H5C4.2 8 3.44 8.32 2.88 8.88C2.32 9.44 2 10.21 2 11V19C2 19.8 2.32 20.56 2.88 21.12C3.44 21.68 4.21 22 5 22H13C13.8 22 14.56 21.68 15.12 21.12C15.68 20.56 16 19.79 16 19V11C16 10.2 15.68 9.44 15.12 8.88C14.56 8.32 13.79 8 13 8ZM12 16H10V18C10 18.55 9.55 19 9 19C8.45 19 8 18.55 8 18V16H6C5.45 16 5 15.55 5 15C5 14.45 5.45 14 6 14H8V12C8 11.45 8.45 11 9 11C9.55 11 10 11.45 10 12V14H12C12.55 14 13 14.45 13 15C13 15.55 12.55 16 12 16Z" fill="currentColor"/>
  </symbol>
</svg>
