<!-- JioGames DLS — next icons (3 icons) -->
<svg xmlns="http://www.w3.org/2000/svg" style="display:none">
  <symbol id="ic_next" viewBox="0 0 24 24">
    <path d="M8.99994 20.0002C8.86833 20.0009 8.73787 19.9757 8.61603 19.926C8.4942 19.8762 8.38338 19.8029 8.28994 19.7102C8.19621 19.6172 8.12182 19.5066 8.07105 19.3848C8.02028 19.2629 7.99414 19.1322 7.99414 19.0002C7.99414 18.8682 8.02028 18.7375 8.07105 18.6156C8.12182 18.4937 8.19621 18.3831 8.28994 18.2902L14.5899 12.0002L8.28994 5.71019C8.10164 5.52188 7.99585 5.26649 7.99585 5.00019C7.99585 4.73388 8.10164 4.47849 8.28994 4.29019C8.47824 4.10188 8.73364 3.99609 8.99994 3.99609C9.26624 3.99609 9.52164 4.10188 9.70994 4.29019L16.7099 11.2902C16.8037 11.3831 16.8781 11.4937 16.9288 11.6156C16.9796 11.7375 17.0057 11.8682 17.0057 12.0002C17.0057 12.1322 16.9796 12.2629 16.9288 12.3848C16.8781 12.5066 16.8037 12.6172 16.7099 12.7102L9.70994 19.7102C9.6165 19.8029 9.50568 19.8762 9.38385 19.926C9.26201 19.9757 9.13155 20.0009 8.99994 20.0002Z" fill="currentColor"/>
  </symbol>
  <symbol id="ic_next_circle" viewBox="0 0 24 24">
    <path d="M12 2C10.0222 2 8.08879 2.58649 6.4443 3.6853C4.79981 4.78412 3.51809 6.3459 2.76121 8.17317C2.00433 10.0004 1.8063 12.0111 2.19215 13.9509C2.578 15.8907 3.53041 17.6725 4.92894 19.0711C6.32746 20.4696 8.10929 21.422 10.0491 21.8079C11.9889 22.1937 13.9996 21.9957 15.8268 21.2388C17.6541 20.4819 19.2159 19.2002 20.3147 17.5557C21.4135 15.9112 22 13.9778 22 12C22 10.6868 21.7413 9.38642 21.2388 8.17317C20.7363 6.95991 19.9997 5.85752 19.0711 4.92893C18.1425 4.00035 17.0401 3.26375 15.8268 2.7612C14.6136 2.25866 13.3132 2 12 2ZM16.71 12.71L13.71 15.71C13.617 15.8037 13.5064 15.8781 13.3846 15.9289C13.2627 15.9797 13.132 16.0058 13 16.0058C12.868 16.0058 12.7373 15.9797 12.6154 15.9289C12.4936 15.8781 12.383 15.8037 12.29 15.71C12.1963 15.617 12.1219 15.5064 12.0711 15.3846C12.0203 15.2627 11.9942 15.132 11.9942 15C11.9942 14.868 12.0203 14.7373 12.0711 14.6154C12.1219 14.4936 12.1963 14.383 12.29 14.29L13.59 13H8C7.73479 13 7.48043 12.8946 7.2929 12.7071C7.10536 12.5196 7 12.2652 7 12C7 11.7348 7.10536 11.4804 7.2929 11.2929C7.48043 11.1054 7.73479 11 8 11H13.59L12.29 9.71C12.1017 9.5217 11.9959 9.2663 11.9959 9C11.9959 8.7337 12.1017 8.4783 12.29 8.29C12.4783 8.1017 12.7337 7.99591 13 7.99591C13.2663 7.99591 13.5217 8.1017 13.71 8.29L16.71 11.29C16.801 11.3851 16.8724 11.4972 16.92 11.62C17.02 11.8635 17.02 12.1365 16.92 12.38C16.8724 12.5028 16.801 12.6149 16.71 12.71Z" fill="currentColor"/>
  </symbol>
  <symbol id="ic_next_title" viewBox="0 0 24 24">
    <path d="M16.2 10.4L8.2 4.4C7.85381 4.14036 7.43274 4 7 4C6.6911 4.00033 6.38647 4.07221 6.11 4.21C5.77679 4.37558 5.49637 4.63083 5.30028 4.94704C5.10419 5.26326 5.0002 5.62792 5 6V18C5.0002 18.3721 5.10419 18.7367 5.30028 19.053C5.49637 19.3692 5.77679 19.6244 6.11 19.79C6.38647 19.9278 6.6911 19.9997 7 20C7.43274 20 7.85381 19.8596 8.2 19.6L16.2 13.6C16.4484 13.4137 16.65 13.1721 16.7889 12.8944C16.9277 12.6167 17 12.3105 17 12C17 11.6895 16.9277 11.3833 16.7889 11.1056C16.65 10.8279 16.4484 10.5863 16.2 10.4ZM18 4C17.7348 4 17.4804 4.10536 17.2929 4.29289C17.1054 4.48043 17 4.73478 17 5V19C17 19.2652 17.1054 19.5196 17.2929 19.7071C17.4804 19.8946 17.7348 20 18 20C18.2652 20 18.5196 19.8946 18.7071 19.7071C18.8946 19.5196 19 19.2652 19 19V5C19 4.73478 18.8946 4.48043 18.7071 4.29289C18.5196 4.10536 18.2652 4 18 4Z" fill="currentColor"/>
  </symbol>
</svg>
