<!-- JioGames DLS — night icons (12 icons) -->
<svg xmlns="http://www.w3.org/2000/svg" style="display:none">
  <symbol id="ic_night_clear" viewBox="0 0 24 24">
    <path d="M14.9399 8.24009C14.4399 11.6701 11.6599 14.4401 8.23989 14.9401C6.49989 15.2001 4.85989 14.8901 3.44989 14.1801C2.57989 13.7401 1.67989 14.6701 2.10989 15.5301C3.84989 18.9801 7.52989 21.2901 11.7199 21.0101C16.6299 20.6801 20.6799 16.6401 21.0099 11.7201C21.2899 7.53009 18.9899 3.85009 15.5299 2.11009C14.6599 1.67009 13.7399 2.58009 14.1799 3.45009C14.8899 4.86009 15.1999 6.50009 14.9399 8.24009Z" fill="currentColor"/>
  </symbol>
  <symbol id="ic_night_hazy" viewBox="0 0 24 24">
    <path d="M21 19C20.25 19 19.92 18.7 19.41 18.25C18.82 17.72 18 17 16.5 17C15 17 14.18 17.72 13.59 18.25C13.08 18.7 12.75 19 12 19C11.25 19 10.92 18.7 10.41 18.25C9.82 17.72 9 17 7.5 17C6 17 5.18 17.72 4.59 18.25C4.08 18.7 3.75 19 3 19C2.45 19 2 19.45 2 20C2 20.55 2.45 21 3 21C4.5 21 5.32 20.28 5.91 19.75C6.42 19.3 6.75 19 7.5 19C8.25 19 8.58 19.3 9.09 19.75C9.68 20.28 10.5 21 12 21C13.5 21 14.32 20.28 14.91 19.75C15.42 19.3 15.75 19 16.5 19C17.25 19 17.58 19.3 18.09 19.75C18.68 20.28 19.5 21 21 21C21.55 21 22 20.55 22 20C22 19.45 21.55 19 21 19ZM12 15C11.45 15 11 15.45 11 16C11 16.55 11.45 17 12 17C13.35 17 14.2 16.32 14.87 15.78C15.49 15.28 15.88 15 16.5 15C17.12 15 17.5 15.28 18.13 15.78C18.81 16.32 19.65 17 21 17C21.55 17 22 16.55 22 16C22 15.45 21.55 15 21 15C20.38 15 20 14.72 19.37 14.22C18.69 13.68 17.85 13 16.5 13C15.15 13 14.3 13.68 13.63 14.22C13.01 14.72 12.62 15 12 15ZM9 15.98C9.01 14.36 10.31 13.04 11.92 13C12.04 12.92 12.27 12.74 12.37 12.66C13.02 12.14 14.05 11.33 15.57 11.08C15.79 10.47 15.93 9.82002 15.97 9.15002C16.16 6.40002 14.82 3.95002 12.73 2.54002C11.93 2.01002 10.89 2.79002 11.22 3.69002C11.58 4.68002 11.68 5.79002 11.45 6.95002C10.99 9.19002 9.18 11 6.94 11.46C5.78 11.7 4.67 11.6 3.68 11.23C2.8 10.91 1.99 11.92 2.51 12.71C3.89 14.78 6.29 16.11 8.99 15.99L9 15.98Z" fill="currentColor"/>
  </symbol>
  <symbol id="ic_night_intermittent_clouds" viewBox="0 0 24 24">
    <path d="M15.1699 14.5001C15.9599 13.8601 16.9499 13.5001 17.9999 13.5001C18.9199 13.5001 19.7699 13.7901 20.4899 14.2701C20.7699 13.4601 20.9499 12.6101 21.0099 11.7301C21.2899 7.5401 18.9899 3.8601 15.5299 2.1201C14.6599 1.6801 13.7399 2.5901 14.1799 3.4601C14.8899 4.8701 15.1999 6.5101 14.9399 8.2501C14.4399 11.6801 11.6599 14.4501 8.23989 14.9501C6.49989 15.2101 4.85989 14.9001 3.44989 14.1901C2.57989 13.7501 1.67989 14.6801 2.10989 15.5401C3.53989 18.3801 6.27989 20.4401 9.53989 20.9201C9.51989 20.7801 9.49989 20.6401 9.49989 20.5001C9.49989 19.2301 10.1799 18.1201 11.1899 17.5101C11.7099 15.7901 13.2999 14.5401 15.1799 14.5001H15.1699ZM20.4899 18.0701C20.4899 18.0701 20.4899 18.0201 20.4899 18.0001C20.4899 16.6201 19.3699 15.5001 17.9899 15.5001C17.1199 15.5001 16.3599 15.9401 15.9099 16.6101C15.6999 16.5401 15.4699 16.5001 15.2399 16.5001C13.9999 16.5001 12.9899 17.5101 12.9899 18.7501C12.9899 18.8401 13.0099 18.9201 13.0199 19.0001C13.0199 19.0001 12.9999 19.0001 12.9899 19.0001C12.1599 19.0001 11.4899 19.6701 11.4899 20.5001C11.4899 21.3301 12.1599 22.0001 12.9899 22.0001H19.9899C21.0899 22.0001 21.9899 21.1001 21.9899 20.0001C21.9899 19.0701 21.3499 18.2901 20.4799 18.0701H20.4899ZM4.34989 12.4001C5.00989 12.7301 5.71989 12.9301 6.44989 13.0001H7.47989C7.63989 12.9901 7.78989 12.9901 7.94989 12.9701C10.3699 12.6201 12.3799 10.6701 12.8899 8.2901C12.5799 7.2601 11.6399 6.5001 10.4999 6.5001C9.62989 6.5001 8.86989 6.9401 8.41989 7.6101C8.20989 7.5401 7.97989 7.5001 7.74989 7.5001C6.50989 7.5001 5.49989 8.5101 5.49989 9.7501C5.49989 9.8401 5.51989 9.9201 5.52989 10.0001C5.52989 10.0001 5.50989 10.0001 5.49989 10.0001C4.66989 10.0001 3.99989 10.6701 3.99989 11.5001C3.99989 11.8301 4.10989 12.1301 4.27989 12.3701C4.29989 12.3801 4.32989 12.3801 4.34989 12.4001Z" fill="currentColor"/>
  </symbol>
  <symbol id="ic_night_mostly_clear" viewBox="0 0 24 24">
    <path d="M20.4901 18.0701C20.4901 18.0701 20.4901 18.0201 20.4901 18.0001C20.4901 16.6201 19.3701 15.5001 17.9901 15.5001C17.1201 15.5001 16.3601 15.9401 15.9101 16.6101C15.7001 16.5401 15.4701 16.5001 15.2401 16.5001C14.0001 16.5001 12.9901 17.5101 12.9901 18.7501C12.9901 18.8401 13.0101 18.9201 13.0201 19.0001C13.0201 19.0001 13.0001 19.0001 12.9901 19.0001C12.1601 19.0001 11.4901 19.6701 11.4901 20.5001C11.4901 21.3301 12.1601 22.0001 12.9901 22.0001H19.9901C21.0901 22.0001 21.9901 21.1001 21.9901 20.0001C21.9901 19.0701 21.3501 18.2901 20.4801 18.0701H20.4901ZM15.1701 14.5001C15.9601 13.8601 16.9501 13.5001 18.0001 13.5001C18.9101 13.5001 19.7501 13.7801 20.4601 14.2501C20.7401 13.4501 20.9201 12.6001 20.9801 11.7301C21.2601 7.5401 18.9601 3.8601 15.5001 2.1201C14.6301 1.6801 13.7101 2.5901 14.1501 3.4601C14.8601 4.8701 15.1701 6.5101 14.9101 8.2501C14.4101 11.6801 11.6301 14.4501 8.21011 14.9501C6.47011 15.2101 4.83011 14.9001 3.42011 14.1901C2.55011 13.7501 1.65011 14.6801 2.08011 15.5401C3.52011 18.3901 6.27011 20.4501 9.54011 20.9301C9.52011 20.7901 9.50011 20.6501 9.50011 20.5101C9.50011 19.2401 10.1801 18.1301 11.1901 17.5201C11.7101 15.8001 13.3001 14.5501 15.1801 14.5101L15.1701 14.5001Z" fill="currentColor"/>
  </symbol>
  <symbol id="ic_night_mostly_cloudy_flurries" viewBox="0 0 24 24">
    <path d="M19.77 10.5101C19.36 8.51012 17.65 7.00012 15.6 7.00012C14 7.00012 12.63 7.93012 11.89 9.28012C11.71 9.25012 11.52 9.22012 11.33 9.22012C9.56001 9.22012 8.13001 10.7101 8.13001 12.5501C6.95001 12.5501 6.00001 13.5401 6.00001 14.7701C6.00001 16.0001 6.96001 16.9901 8.13001 16.9901H18.8C20.57 16.9901 22 15.5001 22 13.6601C22 12.1701 21.06 10.9301 19.77 10.5001V10.5101ZM13.5 18.5001C12.67 18.5001 12 19.1701 12 20.0001C12 20.8301 12.67 21.5001 13.5 21.5001C14.33 21.5001 15 20.8301 15 20.0001C15 19.1701 14.33 18.5001 13.5 18.5001ZM18.5 18.5001C17.67 18.5001 17 19.1701 17 20.0001C17 20.8301 17.67 21.5001 18.5 21.5001C19.33 21.5001 20 20.8301 20 20.0001C20 19.1701 19.33 18.5001 18.5 18.5001ZM8.50001 18.5001C7.67001 18.5001 7.00001 19.1701 7.00001 20.0001C7.00001 20.8301 7.67001 21.5001 8.50001 21.5001C9.33001 21.5001 10 20.8301 10 20.0001C10 19.1701 9.33001 18.5001 8.50001 18.5001ZM10.87 7.24012C11.32 6.71012 11.84 6.26012 12.42 5.90012C12.19 4.38012 11.39 3.05012 10.21 2.17012C9.56001 1.68012 8.61001 2.32012 8.85001 3.11012C9.18001 4.19012 9.13001 5.44012 8.51001 6.71012C8.13001 7.50012 7.49001 8.13012 6.70001 8.52012C5.43001 9.13012 4.18001 9.19012 3.10001 8.86012C2.32001 8.62012 1.67001 9.57012 2.16001 10.2201C2.84001 11.1201 3.79001 11.8001 4.88001 12.1801C5.27001 11.6701 5.78001 11.2501 6.36001 10.9701C6.98001 8.95012 8.74001 7.45012 10.86 7.25012L10.87 7.24012Z" fill="currentColor"/>
  </symbol>
  <symbol id="ic_night_mostly_cloudy_showers" viewBox="0 0 24 24">
    <path d="M19.77 10.5099C19.36 8.50989 17.65 6.99989 15.6 6.99989C14 6.99989 12.63 7.92989 11.89 9.27989C11.71 9.24989 11.52 9.21989 11.33 9.21989C9.56001 9.21989 8.13001 10.7099 8.13001 12.5499C6.95001 12.5499 6.00001 13.5399 6.00001 14.7699C6.00001 15.9999 6.96001 16.9899 8.13001 16.9899H18.8C20.57 16.9899 22 15.4999 22 13.6599C22 12.1699 21.06 10.9299 19.77 10.4999V10.5099ZM9.20001 18.4099L7.70001 20.4099C7.37001 20.8499 7.46001 21.4799 7.90001 21.8099C8.08001 21.9399 8.29001 22.0099 8.50001 22.0099C8.80001 22.0099 9.10001 21.8699 9.30001 21.6099L10.8 19.6099C11.13 19.1699 11.04 18.5399 10.6 18.2099C10.16 17.8799 9.53 17.9699 9.20001 18.4099ZM13.2 18.4099L11.7 20.4099C11.37 20.8499 11.46 21.4799 11.9 21.8099C12.08 21.9399 12.29 22.0099 12.5 22.0099C12.8 22.0099 13.1 21.8699 13.3 21.6099L14.8 19.6099C15.13 19.1699 15.04 18.5399 14.6 18.2099C14.16 17.8799 13.53 17.9699 13.2 18.4099ZM17.2 18.4099L15.7 20.4099C15.37 20.8499 15.46 21.4799 15.9 21.8099C16.08 21.9399 16.29 22.0099 16.5 22.0099C16.8 22.0099 17.1 21.8699 17.3 21.6099L18.8 19.6099C19.13 19.1699 19.04 18.5399 18.6 18.2099C18.16 17.8799 17.53 17.9699 17.2 18.4099ZM10.87 7.24989C11.32 6.71989 11.84 6.26989 12.42 5.90989C12.19 4.38989 11.39 3.05989 10.21 2.17989C9.56001 1.68989 8.61001 2.32989 8.85001 3.11989C9.18001 4.19989 9.13001 5.44989 8.51001 6.71989C8.13001 7.50989 7.49001 8.13989 6.70001 8.52989C5.43001 9.13989 4.18001 9.19989 3.10001 8.86989C2.32001 8.62989 1.67001 9.57989 2.16001 10.2299C2.84001 11.1299 3.79001 11.8099 4.88001 12.1899C5.27001 11.6799 5.78001 11.2599 6.36001 10.9799C6.98001 8.95989 8.74001 7.45989 10.86 7.25989L10.87 7.24989Z" fill="currentColor"/>
  </symbol>
  <symbol id="ic_night_mostly_cloudy_snow" viewBox="0 0 24 24">
    <path d="M19.77 10.5099C19.36 8.50989 17.65 6.99989 15.6 6.99989C14 6.99989 12.63 7.92989 11.89 9.27989C11.71 9.24989 11.52 9.21989 11.33 9.21989C9.56001 9.21989 8.13001 10.7099 8.13001 12.5499C6.95001 12.5499 6.00001 13.5399 6.00001 14.7699C6.00001 15.9999 6.96001 16.9899 8.13001 16.9899H18.8C20.57 16.9899 22 15.4999 22 13.6599C22 12.1699 21.06 10.9299 19.77 10.4999V10.5099ZM8.71001 18.2999C8.32001 17.9099 7.69001 17.9099 7.30001 18.2999L7.01001 18.5899L6.72001 18.2999C6.33001 17.9099 5.70001 17.9099 5.31001 18.2999C4.92001 18.6899 4.92001 19.3199 5.31001 19.7099L5.60001 19.9999L5.31001 20.2899C4.92001 20.6799 4.92001 21.3099 5.31001 21.6999C5.51001 21.8999 5.76001 21.9899 6.02001 21.9899C6.28001 21.9899 6.53001 21.8899 6.73001 21.6999L7.02001 21.4099L7.31001 21.6999C7.51 21.8999 7.76001 21.9899 8.02001 21.9899C8.28001 21.9899 8.53 21.8899 8.73 21.6999C9.12 21.3099 9.12 20.6799 8.73 20.2899L8.44 19.9999L8.73 19.7099C9.12 19.3199 9.12 18.6899 8.73 18.2999H8.71001ZM14.71 18.2999C14.32 17.9099 13.69 17.9099 13.3 18.2999L13.01 18.5899L12.72 18.2999C12.33 17.9099 11.7 17.9099 11.31 18.2999C10.92 18.6899 10.92 19.3199 11.31 19.7099L11.6 19.9999L11.31 20.2899C10.92 20.6799 10.92 21.3099 11.31 21.6999C11.51 21.8999 11.76 21.9899 12.02 21.9899C12.28 21.9899 12.53 21.8899 12.73 21.6999L13.02 21.4099L13.31 21.6999C13.51 21.8999 13.76 21.9899 14.02 21.9899C14.28 21.9899 14.53 21.8899 14.73 21.6999C15.12 21.3099 15.12 20.6799 14.73 20.2899L14.44 19.9999L14.73 19.7099C15.12 19.3199 15.12 18.6899 14.73 18.2999H14.71ZM20.71 18.2999C20.32 17.9099 19.69 17.9099 19.3 18.2999L19.01 18.5899L18.72 18.2999C18.33 17.9099 17.7 17.9099 17.31 18.2999C16.92 18.6899 16.92 19.3199 17.31 19.7099L17.6 19.9999L17.31 20.2899C16.92 20.6799 16.92 21.3099 17.31 21.6999C17.51 21.8999 17.76 21.9899 18.02 21.9899C18.28 21.9899 18.53 21.8899 18.73 21.6999L19.02 21.4099L19.31 21.6999C19.51 21.8999 19.76 21.9899 20.02 21.9899C20.28 21.9899 20.53 21.8899 20.73 21.6999C21.12 21.3099 21.12 20.6799 20.73 20.2899L20.44 19.9999L20.73 19.7099C21.12 19.3199 21.12 18.6899 20.73 18.2999H20.71ZM6.37001 10.9699C6.99001 8.94989 8.75001 7.44989 10.87 7.24989C11.32 6.71989 11.84 6.26989 12.42 5.90989C12.19 4.38989 11.39 3.05989 10.21 2.17989C9.56001 1.68989 8.61001 2.32989 8.85001 3.11989C9.18001 4.19989 9.13001 5.44989 8.51001 6.71989C8.13001 7.50989 7.49001 8.13989 6.70001 8.52989C5.43001 9.13989 4.18001 9.19989 3.10001 8.86989C2.32001 8.62989 1.67001 9.57989 2.16001 10.2299C2.84001 11.1299 3.79001 11.8099 4.88001 12.1899C5.27001 11.6799 5.78001 11.2599 6.36001 10.9799L6.37001 10.9699Z" fill="currentColor"/>
  </symbol>
  <symbol id="ic_night_mostly_cloudy_thunderstorms" viewBox="0 0 24 24">
    <path d="M6.70001 18.4001L5.20001 20.4001C4.87001 20.8401 4.96001 21.4701 5.40001 21.8001C5.58001 21.9301 5.79001 22.0001 6.00001 22.0001C6.30001 22.0001 6.60001 21.8601 6.80001 21.6001L8.30001 19.6001C8.63001 19.1601 8.54001 18.5301 8.10001 18.2001C7.66001 17.8701 7.03 17.9601 6.70001 18.4001ZM10.7 18.4001L9.20001 20.4001C8.87001 20.8401 8.96 21.4701 9.4 21.8001C9.58 21.9301 9.79001 22.0001 10 22.0001C10.3 22.0001 10.6 21.8601 10.8 21.6001L12.3 19.6001C12.63 19.1601 12.54 18.5301 12.1 18.2001C11.66 17.8701 11.03 17.9601 10.7 18.4001ZM14.7 18.4001L13.2 20.4001C12.87 20.8401 12.96 21.4701 13.4 21.8001C13.58 21.9301 13.79 22.0001 14 22.0001C14.3 22.0001 14.6 21.8601 14.8 21.6001L16.3 19.6001C16.63 19.1601 16.54 18.5301 16.1 18.2001C15.66 17.8701 15.03 17.9601 14.7 18.4001ZM11.33 9.22012C9.56001 9.22012 8.13001 10.7101 8.13001 12.5501C6.95001 12.5501 6.00001 13.5401 6.00001 14.7701C6.00001 16.0001 6.96001 16.9901 8.13001 16.9901H15C15 16.3501 15.2 15.7201 15.6 15.1901L18.6 11.1901C18.89 10.8001 19.28 10.5001 19.71 10.2901C19.22 8.39012 17.58 6.99012 15.6 6.99012C14 6.99012 12.63 7.92012 11.89 9.27012C11.71 9.24012 11.52 9.21012 11.33 9.21012V9.22012ZM22.39 16.5501C22.22 16.2101 21.87 16.0001 21.5 16.0001H20L21.8 13.6001C22.13 13.1601 22.04 12.5301 21.6 12.2001C21.16 11.8701 20.53 11.9601 20.2 12.4001L17.2 16.4001C16.97 16.7001 16.94 17.1101 17.11 17.4501C17.28 17.7901 17.63 18.0001 18 18.0001H19.5L17.7 20.4001C17.37 20.8401 17.46 21.4701 17.9 21.8001C18.08 21.9301 18.29 22.0001 18.5 22.0001C18.8 22.0001 19.1 21.8601 19.3 21.6001L22.3 17.6001C22.53 17.3001 22.56 16.8901 22.39 16.5501ZM6.37001 10.9601C6.99001 8.94012 8.75001 7.44012 10.87 7.24012C11.32 6.71012 11.84 6.26012 12.42 5.90012C12.19 4.38012 11.39 3.05012 10.21 2.17012C9.56001 1.68012 8.61001 2.32012 8.85001 3.11012C9.18001 4.19012 9.13001 5.44012 8.51001 6.71012C8.13001 7.50012 7.49001 8.13012 6.70001 8.52012C5.43001 9.13012 4.18001 9.19012 3.10001 8.86012C2.32001 8.62012 1.67001 9.57012 2.16001 10.2201C2.84001 11.1201 3.79001 11.8001 4.88001 12.1801C5.27001 11.6701 5.78001 11.2501 6.36001 10.9701L6.37001 10.9601Z" fill="currentColor"/>
  </symbol>
  <symbol id="ic_night_partly_cloudy_flurries" viewBox="0 0 24 24">
    <path d="M20.1901 11.8001C19.8501 10.2001 18.4701 9.00008 16.8001 9.00008C15.5001 9.00008 14.3801 9.74008 13.7901 10.8201C13.6401 10.7901 13.4901 10.7701 13.3301 10.7701C11.8901 10.7701 10.7301 11.9601 10.7301 13.4401C9.77013 13.4401 9.00013 14.2401 9.00013 15.2201C9.00013 16.2001 9.78013 17.0001 10.7301 17.0001H19.4001C20.8401 17.0001 22.0001 15.8101 22.0001 14.3301C22.0001 13.1401 21.2301 12.1401 20.1901 11.8001ZM13.0001 18.5001C12.1701 18.5001 11.5001 19.1701 11.5001 20.0001C11.5001 20.8301 12.1701 21.5001 13.0001 21.5001C13.8301 21.5001 14.5001 20.8301 14.5001 20.0001C14.5001 19.1701 13.8301 18.5001 13.0001 18.5001ZM18.0001 18.5001C17.1701 18.5001 16.5001 19.1701 16.5001 20.0001C16.5001 20.8301 17.1701 21.5001 18.0001 21.5001C18.8301 21.5001 19.5001 20.8301 19.5001 20.0001C19.5001 19.1701 18.8301 18.5001 18.0001 18.5001ZM12.7801 8.81009C13.1201 8.43009 13.5101 8.11008 13.9301 7.85008C14.0801 5.54008 13.0301 3.47009 11.3501 2.20009C10.6101 1.64009 9.52013 2.37009 9.80013 3.26008C10.1801 4.49009 10.1101 5.91008 9.42013 7.35008C8.99013 8.24008 8.26013 8.97008 7.37013 9.40008C5.93013 10.1001 4.51013 10.1601 3.28013 9.78008C2.39013 9.51008 1.65013 10.5901 2.22013 11.3301C3.38013 12.8701 5.20013 13.8701 7.26013 13.9201C7.58013 13.0301 8.21013 12.3001 9.03013 11.8601C9.61013 10.2201 11.0601 9.01008 12.8101 8.79008L12.7801 8.81009Z" fill="currentColor"/>
  </symbol>
  <symbol id="ic_night_partly_cloudy_showers" viewBox="0 0 24 24">
    <path d="M20.1901 11.8001C19.8501 10.2001 18.4701 9.00008 16.8001 9.00008C15.5001 9.00008 14.3801 9.74008 13.7901 10.8201C13.6401 10.7901 13.4901 10.7701 13.3301 10.7701C11.8901 10.7701 10.7301 11.9601 10.7301 13.4401C9.77013 13.4401 9.00013 14.2401 9.00013 15.2201C9.00013 16.2001 9.78013 17.0001 10.7301 17.0001H19.4001C20.8401 17.0001 22.0001 15.8101 22.0001 14.3301C22.0001 13.1401 21.2301 12.1401 20.1901 11.8001ZM10.2001 18.4001L8.70013 20.4001C8.37013 20.8401 8.46013 21.4701 8.90013 21.8001C9.08013 21.9301 9.29013 22.0001 9.50013 22.0001C9.80013 22.0001 10.1001 21.8601 10.3001 21.6001L11.8001 19.6001C12.1301 19.1601 12.0401 18.5301 11.6001 18.2001C11.1601 17.8701 10.5301 17.9601 10.2001 18.4001ZM14.2001 18.4001L12.7001 20.4001C12.3701 20.8401 12.4601 21.4701 12.9001 21.8001C13.0801 21.9301 13.2901 22.0001 13.5001 22.0001C13.8001 22.0001 14.1001 21.8601 14.3001 21.6001L15.8001 19.6001C16.1301 19.1601 16.0401 18.5301 15.6001 18.2001C15.1601 17.8701 14.5301 17.9601 14.2001 18.4001ZM18.2001 18.4001L16.7001 20.4001C16.3701 20.8401 16.4601 21.4701 16.9001 21.8001C17.0801 21.9301 17.2901 22.0001 17.5001 22.0001C17.8001 22.0001 18.1001 21.8601 18.3001 21.6001L19.8001 19.6001C20.1301 19.1601 20.0401 18.5301 19.6001 18.2001C19.1601 17.8701 18.5301 17.9601 18.2001 18.4001ZM12.7801 8.81009C13.1201 8.43009 13.5101 8.11008 13.9301 7.85008C14.0801 5.54008 13.0301 3.47009 11.3501 2.20009C10.6101 1.64009 9.52013 2.37009 9.80013 3.26008C10.1801 4.49009 10.1101 5.91008 9.42013 7.35008C8.99013 8.24008 8.26013 8.97008 7.37013 9.40008C5.93013 10.1001 4.51013 10.1601 3.28013 9.78008C2.39013 9.51008 1.65013 10.5901 2.22013 11.3301C3.38013 12.8701 5.20013 13.8701 7.26013 13.9201C7.58013 13.0301 8.21013 12.3001 9.03013 11.8601C9.61013 10.2201 11.0601 9.01008 12.8101 8.79008L12.7801 8.81009Z" fill="currentColor"/>
  </symbol>
  <symbol id="ic_night_partly_cloudy_snow" viewBox="0 0 24 24">
    <path d="M20.1901 11.8001C19.8501 10.2001 18.4701 9.00008 16.8001 9.00008C15.5001 9.00008 14.3801 9.74008 13.7901 10.8201C13.6401 10.7901 13.4901 10.7701 13.3301 10.7701C11.8901 10.7701 10.7301 11.9601 10.7301 13.4401C9.77013 13.4401 9.00013 14.2401 9.00013 15.2201C9.00013 16.2001 9.78013 17.0001 10.7301 17.0001H19.4001C20.8401 17.0001 22.0001 15.8101 22.0001 14.3301C22.0001 13.1401 21.2301 12.1401 20.1901 11.8001ZM13.7101 18.2901C13.3201 17.9001 12.6901 17.9001 12.3001 18.2901L12.0101 18.5801L11.7201 18.2901C11.3301 17.9001 10.7001 17.9001 10.3101 18.2901C9.92014 18.6801 9.92014 19.3101 10.3101 19.7001L10.6001 19.9901L10.3101 20.2801C9.92014 20.6701 9.92014 21.3001 10.3101 21.6901C10.5101 21.8901 10.7601 21.9801 11.0201 21.9801C11.2801 21.9801 11.5301 21.8801 11.7301 21.6901L12.0201 21.4001L12.3101 21.6901C12.5101 21.8901 12.7601 21.9801 13.0201 21.9801C13.2801 21.9801 13.5301 21.8801 13.7301 21.6901C14.1201 21.3001 14.1201 20.6701 13.7301 20.2801L13.4401 19.9901L13.7301 19.7001C14.1201 19.3101 14.1201 18.6801 13.7301 18.2901H13.7101ZM19.7101 18.2901C19.3201 17.9001 18.6901 17.9001 18.3001 18.2901L18.0101 18.5801L17.7201 18.2901C17.3301 17.9001 16.7001 17.9001 16.3101 18.2901C15.9201 18.6801 15.9201 19.3101 16.3101 19.7001L16.6001 19.9901L16.3101 20.2801C15.9201 20.6701 15.9201 21.3001 16.3101 21.6901C16.5101 21.8901 16.7601 21.9801 17.0201 21.9801C17.2801 21.9801 17.5301 21.8801 17.7301 21.6901L18.0201 21.4001L18.3101 21.6901C18.5101 21.8901 18.7601 21.9801 19.0201 21.9801C19.2801 21.9801 19.5301 21.8801 19.7301 21.6901C20.1201 21.3001 20.1201 20.6701 19.7301 20.2801L19.4401 19.9901L19.7301 19.7001C20.1201 19.3101 20.1201 18.6801 19.7301 18.2901H19.7101ZM12.7801 8.81009C13.1201 8.43009 13.5101 8.11008 13.9301 7.85008C14.0801 5.54008 13.0301 3.47009 11.3501 2.20009C10.6101 1.64009 9.52013 2.37009 9.80013 3.26008C10.1801 4.49009 10.1101 5.91008 9.42013 7.35008C8.99013 8.24008 8.26013 8.97008 7.37013 9.40008C5.93013 10.1001 4.51013 10.1601 3.28013 9.78008C2.39013 9.51008 1.65013 10.5901 2.22013 11.3301C3.38013 12.8701 5.20013 13.8701 7.26013 13.9201C7.58013 13.0301 8.21013 12.3001 9.03013 11.8601C9.61013 10.2201 11.0601 9.01008 12.8101 8.79008L12.7801 8.81009Z" fill="currentColor"/>
  </symbol>
  <symbol id="ic_night_partly_cloudy_thunderstorms" viewBox="0 0 24 24">
    <path d="M10.2001 18.4001L8.70013 20.4001C8.37013 20.8401 8.46013 21.4701 8.90013 21.8001C9.08013 21.9301 9.29013 22.0001 9.50013 22.0001C9.80013 22.0001 10.1001 21.8601 10.3001 21.6001L11.8001 19.6001C12.1301 19.1601 12.0401 18.5301 11.6001 18.2001C11.1601 17.8701 10.5301 17.9601 10.2001 18.4001ZM14.2001 18.4001L12.7001 20.4001C12.3701 20.8401 12.4601 21.4701 12.9001 21.8001C13.0801 21.9301 13.2901 22.0001 13.5001 22.0001C13.8001 22.0001 14.1001 21.8601 14.3001 21.6001L15.8001 19.6001C16.1301 19.1601 16.0401 18.5301 15.6001 18.2001C15.1601 17.8701 14.5301 17.9601 14.2001 18.4001ZM13.3301 10.7801C11.8901 10.7801 10.7301 11.9701 10.7301 13.4501C9.77013 13.4501 9.00013 14.2501 9.00013 15.2301C9.00013 16.2101 9.78013 17.0101 10.7301 17.0101H15.0001C15.0001 16.3701 15.2001 15.7401 15.6001 15.2101L18.6001 11.2101C18.8501 10.8701 19.1801 10.6101 19.5401 10.4101C18.9101 9.57008 17.9201 9.01009 16.8001 9.01009C15.5001 9.01009 14.3801 9.75008 13.7901 10.8301C13.6401 10.8001 13.4901 10.7801 13.3301 10.7801ZM22.3901 16.5501C22.2201 16.2101 21.8701 16.0001 21.5001 16.0001H20.0001L21.8001 13.6001C22.1301 13.1601 22.0401 12.5301 21.6001 12.2001C21.1601 11.8701 20.5301 11.9601 20.2001 12.4001L17.2001 16.4001C16.9701 16.7001 16.9401 17.1101 17.1101 17.4501C17.2801 17.7901 17.6301 18.0001 18.0001 18.0001H19.5001L17.7001 20.4001C17.3701 20.8401 17.4601 21.4701 17.9001 21.8001C18.0801 21.9301 18.2901 22.0001 18.5001 22.0001C18.8001 22.0001 19.1001 21.8601 19.3001 21.6001L22.3001 17.6001C22.5301 17.3001 22.5601 16.8901 22.3901 16.5501ZM12.7801 8.81009C13.1201 8.43009 13.5101 8.11008 13.9301 7.85008C14.0801 5.54008 13.0301 3.47009 11.3501 2.20009C10.6101 1.64009 9.52013 2.37009 9.80013 3.26008C10.1801 4.49009 10.1101 5.91008 9.42013 7.35008C8.99013 8.24008 8.26013 8.97008 7.37013 9.40008C5.93013 10.1001 4.51013 10.1601 3.28013 9.78008C2.39013 9.51008 1.65013 10.5901 2.22013 11.3301C3.38013 12.8701 5.20013 13.8701 7.26013 13.9201C7.58013 13.0301 8.21013 12.3001 9.03013 11.8601C9.61013 10.2201 11.0601 9.01008 12.8101 8.79008L12.7801 8.81009Z" fill="currentColor"/>
  </symbol>
</svg>
