<!-- JioGames DLS — no icons (3 icons) -->
<svg xmlns="http://www.w3.org/2000/svg" style="display:none">
  <symbol id="ic_no_internet" viewBox="0 0 24 24">
    <path d="M21.24 8.17C20.87 7.27 20.37 6.44 19.76 5.69L21.01 4.44C21.41 4.04 21.41 3.4 21.01 3C20.61 2.6 19.97 2.6 19.57 3L2.99998 19.56C2.59998 19.96 2.59998 20.6 2.99998 21C3.39998 21.4 4.03998 21.4 4.43998 21L5.69998 19.74C6.95998 20.77 8.43998 21.49 10.05 21.81C11.99 22.2 14 22 15.83 21.24C17.66 20.48 19.22 19.2 20.32 17.56C21.42 15.92 22.01 13.98 22.01 12C22.01 10.69 21.75 9.39 21.25 8.17H21.24ZM18.32 7.12C18.54 7.4 18.74 7.69 18.92 8H17.44L18.32 7.12ZM7.11998 18.32L7.79998 17.64C7.95998 18.15 8.15998 18.66 8.38998 19.15C7.93998 18.92 7.51998 18.63 7.11998 18.32ZM12 20C11.16 20 10.05 18.52 9.44998 16H14.55C14 18.52 12.84 20 12 20ZM14.89 14H11.44L14.92 10.52C14.96 11.01 15 11.5 15 12C15 12.67 14.96 13.34 14.89 14ZM15.56 19.15C16.03 18.15 16.36 17.09 16.56 16H18.87C18.09 17.35 16.94 18.44 15.56 19.15ZM19.74 14H16.91C16.97 13.36 17 12.69 17 12C17 11.31 17 10.64 16.91 10H19.74C20.09 11.31 20.09 12.69 19.74 14ZM5.66998 14H4.25998C4.08998 13.35 3.99998 12.67 3.99998 12C3.99998 11.33 4.08998 10.65 4.25998 10H7.08998C6.99998 10.64 6.99998 11.31 6.99998 12C6.99998 12.23 6.99998 12.44 6.99998 12.67L9.06998 10.6C9.08998 10.4 9.07998 10.2 9.09998 10H9.65998L11.66 8H9.43998C10.04 5.48 11.15 4 11.99 4C12.55 4 13.23 4.67 13.8 5.86L16.55 3.11C16.31 2.99 16.07 2.87 15.81 2.76C14.6 2.26 13.3 2 11.98 2C9.99998 2 8.06998 2.59 6.41998 3.69C4.77998 4.79 3.48998 6.35 2.73998 8.18C1.97998 10.01 1.78998 12.02 2.16998 13.96C2.34998 14.87 2.66998 15.75 3.08998 16.57L5.64998 14.01L5.66998 14ZM8.43998 4.85C7.94998 5.85 7.59998 6.91 7.38998 8H5.07998C5.86998 6.65 7.03998 5.55 8.43998 4.85Z" fill="currentColor"/>
  </symbol>
  <symbol id="ic_no_repair" viewBox="0 0 24 24">
    <path d="M4.78483 3.28995C4.69159 3.19671 4.5809 3.12275 4.45908 3.07229C4.33726 3.02183 4.20669 2.99585 4.07483 2.99585C3.94297 2.99585 3.81241 3.02183 3.69058 3.07229C3.56876 3.12275 3.45807 3.19671 3.36483 3.28995C3.17653 3.47825 3.07074 3.73364 3.07074 3.99995C3.07074 4.26625 3.17653 4.52164 3.36483 4.70995L9.24483 10.5899L3.95483 15.8799C3.66009 16.1546 3.42368 16.4858 3.25971 16.8538C3.09574 17.2218 3.00757 17.619 3.00047 18.0219C2.99336 18.4247 3.06746 18.8248 3.21834 19.1983C3.36923 19.5719 3.5938 19.9112 3.87868 20.1961C4.16355 20.481 4.50289 20.7056 4.87644 20.8564C5.25 21.0073 5.65011 21.0814 6.05292 21.0743C6.45573 21.0672 6.85299 20.979 7.22099 20.8151C7.58898 20.6511 7.92019 20.4147 8.19483 20.1199L13.4848 14.8299L19.3648 20.7099C19.4578 20.8037 19.5684 20.8781 19.6903 20.9288C19.8121 20.9796 19.9428 21.0057 20.0748 21.0057C20.2068 21.0057 20.3376 20.9796 20.4594 20.9288C20.5813 20.8781 20.6919 20.8037 20.7848 20.7099C20.8786 20.617 20.953 20.5064 21.0037 20.3845C21.0545 20.2627 21.0806 20.132 21.0806 19.9999C21.0806 19.8679 21.0545 19.7372 21.0037 19.6154C20.953 19.4935 20.8786 19.3829 20.7848 19.2899L4.78483 3.28995ZM21.7848 3.28995L20.7848 2.28995C20.6351 2.1415 20.4424 2.04415 20.234 2.01183C20.0257 1.9795 19.8125 2.01384 19.6248 2.10995L17.6248 3.10995C17.3898 3.22694 17.2102 3.43168 17.1248 3.67995L16.2048 6.45995L13.4848 9.16995L14.9048 10.5899L17.6148 7.86995L20.3948 6.99995C20.6431 6.91457 20.8478 6.73497 20.9648 6.49995L21.9648 4.49995C22.073 4.30678 22.114 4.08319 22.0814 3.86421C22.0489 3.64524 21.9445 3.44326 21.7848 3.28995Z" fill="currentColor"/>
  </symbol>
  <symbol id="ic_no_sim_card" viewBox="0 0 24 24">
    <path d="M18.12 2.88022C17.5579 2.31745 16.7954 2.00092 16 2.00022H11C10.5432 1.99005 10.0905 2.08949 9.68001 2.29022C9.26734 2.48589 8.9048 2.77319 8.62001 3.13022L5.62001 6.83022C5.20873 7.36599 4.99027 8.02487 5.00001 8.70022V19.0002C5.00001 19.7959 5.31608 20.5589 5.87869 21.1215C6.4413 21.6842 7.20436 22.0002 8.00001 22.0002H16C16.7957 22.0002 17.5587 21.6842 18.1213 21.1215C18.6839 20.5589 19 19.7959 19 19.0002V5.00022C18.9993 4.20484 18.6828 3.44229 18.12 2.88022ZM14.71 16.2902C14.8037 16.3832 14.8781 16.4938 14.9289 16.6156C14.9797 16.7375 15.0058 16.8682 15.0058 17.0002C15.0058 17.1322 14.9797 17.2629 14.9289 17.3848C14.8781 17.5067 14.8037 17.6173 14.71 17.7102C14.617 17.8039 14.5064 17.8783 14.3846 17.9291C14.2627 17.9799 14.132 18.006 14 18.006C13.868 18.006 13.7373 17.9799 13.6154 17.9291C13.4936 17.8783 13.383 17.8039 13.29 17.7102L12 16.4102L10.71 17.7102C10.617 17.8039 10.5064 17.8783 10.3846 17.9291C10.2627 17.9799 10.132 18.006 10 18.006C9.86799 18.006 9.73729 17.9799 9.61543 17.9291C9.49357 17.8783 9.38297 17.8039 9.29001 17.7102C9.19628 17.6173 9.12188 17.5067 9.07112 17.3848C9.02035 17.2629 8.99421 17.1322 8.99421 17.0002C8.99421 16.8682 9.02035 16.7375 9.07112 16.6156C9.12188 16.4938 9.19628 16.3832 9.29001 16.2902L10.59 15.0002L9.29001 13.7102C9.1017 13.5219 8.99592 13.2665 8.99592 13.0002C8.99592 12.7339 9.1017 12.4785 9.29001 12.2902C9.47831 12.1019 9.73371 11.9961 10 11.9961C10.2663 11.9961 10.5217 12.1019 10.71 12.2902L12 13.5902L13.29 12.2902C13.4783 12.1019 13.7337 11.9961 14 11.9961C14.2663 11.9961 14.5217 12.1019 14.71 12.2902C14.8983 12.4785 15.0041 12.7339 15.0041 13.0002C15.0041 13.2665 14.8983 13.5219 14.71 13.7102L13.41 15.0002L14.71 16.2902Z" fill="currentColor"/>
  </symbol>
</svg>
