<!-- JioGames DLS — nterest icons (2 icons) -->
<svg xmlns="http://www.w3.org/2000/svg" style="display:none">
  <symbol id="ic_interest_low" viewBox="0 0 24 24">
    <path d="M16 16.0077C16 16.273 16.1054 16.5273 16.2929 16.7148C16.4804 16.9024 16.7348 17.0077 17 17.0077H20C20.2652 17.0077 20.5196 16.9024 20.7071 16.7148C20.8946 16.5273 21 16.273 21 16.0077V13.0077C21 12.7425 20.8946 12.4882 20.7071 12.3006C20.5196 12.1131 20.2652 12.0077 20 12.0077C19.7348 12.0077 19.4804 12.1131 19.2929 12.3006C19.1054 12.4882 19 12.7425 19 13.0077V13.5977L15.71 10.2977C15.617 10.204 15.5064 10.1296 15.3846 10.0788C15.2627 10.0281 15.132 10.0019 15 10.0019C14.868 10.0019 14.7373 10.0281 14.6154 10.0788C14.4936 10.1296 14.383 10.204 14.29 10.2977L12 12.5877L4.79 3.38774C4.74337 3.33675 4.68946 3.29294 4.63 3.25774C4.58662 3.21541 4.53575 3.18151 4.48 3.15774C4.42562 3.13177 4.36863 3.11166 4.31 3.09774H4.11H4L3.88 3.00774C3.81373 2.99742 3.74627 2.99742 3.68 3.00774C3.61226 3.02739 3.54812 3.05778 3.49 3.09774H3.38C3.32901 3.14436 3.2852 3.19828 3.25 3.25774C3.20768 3.30112 3.17377 3.35198 3.15 3.40774C3.12403 3.46212 3.10392 3.5191 3.09 3.57774C3.0853 3.64432 3.0853 3.71115 3.09 3.77774L3 4.00774V20.0077C3 20.273 3.10536 20.5273 3.29289 20.7148C3.48043 20.9024 3.73478 21.0077 4 21.0077H20C20.2652 21.0077 20.5196 20.9024 20.7071 20.7148C20.8946 20.5273 21 20.273 21 20.0077C21 19.7425 20.8946 19.4882 20.7071 19.3006C20.5196 19.1131 20.2652 19.0077 20 19.0077H5V6.89774L11.13 14.7077C11.2178 14.8192 11.3282 14.9108 11.4541 14.9763C11.58 15.0418 11.7183 15.0798 11.86 15.0877C12.0016 15.0968 12.1434 15.0756 12.2762 15.0256C12.409 14.9756 12.5296 14.8979 12.63 14.7977L15 12.4177L17.59 15.0077H17C16.7348 15.0077 16.4804 15.1131 16.2929 15.3006C16.1054 15.4882 16 15.7425 16 16.0077Z" fill="currentColor"/>
  </symbol>
  <symbol id="ic_interest_payout" viewBox="0 0 24 24">
    <path d="M19 2H5C4.73478 2 4.48043 2.10536 4.29289 2.29289C4.10536 2.48043 4 2.73478 4 3C4 3.26522 4.10536 3.51957 4.29289 3.70711C4.48043 3.89464 4.73478 4 5 4V21C5.00048 21.1809 5.05003 21.3583 5.14336 21.5133C5.2367 21.6682 5.37032 21.795 5.53 21.88C5.68637 21.9603 5.86115 21.9979 6.03671 21.9892C6.21227 21.9804 6.38242 21.9255 6.53 21.83L9 20.2L11.45 21.83C11.6143 21.9396 11.8075 21.9981 12.005 21.9981C12.2025 21.9981 12.3957 21.9396 12.56 21.83L15 20.2L17.44 21.83C17.5905 21.9317 17.7659 21.9905 17.9473 22.0001C18.1287 22.0097 18.3093 21.9697 18.4697 21.8843C18.6301 21.799 18.7642 21.6716 18.8576 21.5158C18.9511 21.36 19.0003 21.1817 19 21V4C19.2652 4 19.5196 3.89464 19.7071 3.70711C19.8946 3.51957 20 3.26522 20 3C20 2.73478 19.8946 2.48043 19.7071 2.29289C19.5196 2.10536 19.2652 2 19 2ZM14.5 11C14.5 11.4465 14.4004 11.8874 14.2084 12.2905C14.0163 12.6936 13.7367 13.0487 13.39 13.33L14.95 14.11C15.1855 14.2299 15.364 14.4381 15.4465 14.6892C15.5289 14.9403 15.5086 15.2138 15.39 15.45C15.3069 15.6149 15.1798 15.7536 15.0227 15.8507C14.8656 15.9478 14.6847 15.9994 14.5 16C14.3431 16.0019 14.1883 15.964 14.05 15.89L10.05 13.89C9.8507 13.7879 9.69144 13.6219 9.59772 13.4185C9.504 13.2151 9.48125 12.9862 9.53312 12.7684C9.58499 12.5505 9.70846 12.3564 9.88377 12.2171C10.0591 12.0778 10.2761 12.0013 10.5 12H11.5C11.7652 12 12.0196 11.8946 12.2071 11.7071C12.3946 11.5196 12.5 11.2652 12.5 11C12.5 10.7348 12.3946 10.4804 12.2071 10.2929C12.0196 10.1054 11.7652 10 11.5 10H9.5C9.23478 10 8.98043 9.89464 8.79289 9.70711C8.60536 9.51957 8.5 9.26522 8.5 9C8.5 8.73478 8.60536 8.48043 8.79289 8.29289C8.98043 8.10536 9.23478 8 9.5 8H14.5C14.7652 8 15.0196 8.10536 15.2071 8.29289C15.3946 8.48043 15.5 8.73478 15.5 9C15.5 9.26522 15.3946 9.51957 15.2071 9.70711C15.0196 9.89464 14.7652 10 14.5 10H14.32C14.4364 10.3207 14.4973 10.6589 14.5 11Z" fill="currentColor"/>
  </symbol>
</svg>
