<!-- JioGames DLS — offer icons (2 icons) -->
<svg xmlns="http://www.w3.org/2000/svg" style="display:none">
  <symbol id="ic_offer" viewBox="0 0 24 24">
    <path d="M12 2C10.0222 2 8.08879 2.58649 6.4443 3.6853C4.79981 4.78412 3.51809 6.3459 2.76121 8.17317C2.00433 10.0004 1.8063 12.0111 2.19215 13.9509C2.578 15.8907 3.53041 17.6725 4.92894 19.0711C6.32746 20.4696 8.10929 21.422 10.0491 21.8079C11.9889 22.1937 13.9996 21.9957 15.8268 21.2388C17.6541 20.4819 19.2159 19.2002 20.3147 17.5557C21.4135 15.9112 22 13.9778 22 12C22 10.6868 21.7413 9.38642 21.2388 8.17317C20.7363 6.95991 19.9997 5.85752 19.0711 4.92893C18.1425 4.00035 17.0401 3.26375 15.8268 2.7612C14.6136 2.25866 13.3132 2 12 2ZM9.25 8C9.49723 8 9.73891 8.07331 9.94447 8.21066C10.15 8.34801 10.3102 8.54324 10.4049 8.77165C10.4995 9.00005 10.5242 9.25139 10.476 9.49386C10.4278 9.73634 10.3087 9.95907 10.1339 10.1339C9.95907 10.3087 9.73634 10.4278 9.49387 10.476C9.25139 10.5242 9.00006 10.4995 8.77165 10.4048C8.54324 10.3102 8.34802 10.15 8.21067 9.94446C8.07332 9.7389 8 9.49723 8 9.25C8 8.91848 8.1317 8.60054 8.36612 8.36612C8.60054 8.1317 8.91848 8 9.25 8ZM14.75 16C14.5028 16 14.2611 15.9267 14.0555 15.7893C13.85 15.652 13.6898 15.4568 13.5952 15.2284C13.5005 14.9999 13.4758 14.7486 13.524 14.5061C13.5723 14.2637 13.6913 14.0409 13.8661 13.8661C14.0409 13.6913 14.2637 13.5722 14.5061 13.524C14.7486 13.4758 15 13.5005 15.2284 13.5952C15.4568 13.6898 15.652 13.85 15.7893 14.0555C15.9267 14.2611 16 14.5028 16 14.75C16 15.0815 15.8683 15.3995 15.6339 15.6339C15.3995 15.8683 15.0815 16 14.75 16ZM15.75 9.71L9.75 15.71C9.65704 15.8037 9.54644 15.8781 9.42458 15.9289C9.30272 15.9797 9.17202 16.0058 9.04 16.0058C8.90799 16.0058 8.77729 15.9797 8.65543 15.9289C8.53357 15.8781 8.42297 15.8037 8.33 15.71C8.23628 15.617 8.16188 15.5064 8.11111 15.3846C8.06034 15.2627 8.03421 15.132 8.03421 15C8.03421 14.868 8.06034 14.7373 8.11111 14.6154C8.16188 14.4936 8.23628 14.383 8.33 14.29L14.33 8.29C14.5183 8.1017 14.7737 7.99591 15.04 7.99591C15.3063 7.99591 15.5617 8.1017 15.75 8.29C15.9383 8.4783 16.0441 8.7337 16.0441 9C16.0441 9.2663 15.9383 9.5217 15.75 9.71Z" fill="currentColor"/>
  </symbol>
  <symbol id="ic_offer_coupon" viewBox="0 0 24 24">
    <path d="M13.5699 21.0001C13.6625 20.7754 13.8022 20.5731 13.9795 20.407C14.1569 20.2408 14.3679 20.1146 14.5982 20.0369C14.8285 19.9592 15.0728 19.9317 15.3146 19.9564C15.5564 19.9812 15.7901 20.0574 15.9999 20.1801C16.2867 20.3496 16.6167 20.4317 16.9495 20.4162C17.2823 20.4007 17.6033 20.2883 17.8731 20.0928C18.1429 19.8974 18.3497 19.6274 18.4682 19.316C18.5866 19.0047 18.6116 18.6655 18.5399 18.3401C18.4862 18.1028 18.4838 17.8568 18.5328 17.6185C18.5817 17.3802 18.681 17.1551 18.8239 16.9582C18.9669 16.7614 19.1502 16.5973 19.3616 16.4769C19.573 16.3565 19.8076 16.2826 20.0499 16.2601C20.3904 16.2416 20.7175 16.1211 20.9886 15.9142C21.2597 15.7074 21.4624 15.4238 21.5702 15.1002C21.678 14.7767 21.6861 14.4282 21.5933 14.1001C21.5005 13.7719 21.3112 13.4793 21.0499 13.2601C20.8688 13.0997 20.7237 12.9026 20.6244 12.682C20.5251 12.4613 20.4738 12.2221 20.4738 11.9801C20.4738 11.7382 20.5251 11.4989 20.6244 11.2783C20.7237 11.0576 20.8688 10.8606 21.0499 10.7001C21.3112 10.481 21.5005 10.1883 21.5933 9.86017C21.6861 9.53202 21.678 9.18355 21.5702 8.86003C21.4624 8.53651 21.2597 8.2529 20.9886 8.04605C20.7175 7.8392 20.3904 7.71868 20.0499 7.70013C19.8076 7.67767 19.573 7.60378 19.3616 7.48339C19.1502 7.36301 18.9669 7.19889 18.8239 7.00202C18.681 6.80514 18.5817 6.58004 18.5328 6.34173C18.4838 6.10343 18.4862 5.85742 18.5399 5.62013C18.6018 5.29775 18.5696 4.96438 18.4471 4.65981C18.3246 4.35524 18.1171 4.09236 17.8493 3.90256C17.5814 3.71276 17.2646 3.60406 16.9367 3.58945C16.6088 3.57483 16.2835 3.65491 15.9999 3.82013C15.7901 3.94282 15.5564 4.0191 15.3146 4.04381C15.0728 4.06852 14.8285 4.0411 14.5982 3.96338C14.3679 3.88567 14.1569 3.75947 13.9795 3.59331C13.8022 3.42714 13.6625 3.22487 13.5699 3.00013C13.4376 2.69356 13.2184 2.43244 12.9394 2.24899C12.6604 2.06553 12.3338 1.96777 11.9999 1.96777C11.666 1.96777 11.3394 2.06553 11.0604 2.24899C10.7814 2.43244 10.5622 2.69356 10.4299 3.00013C10.3373 3.22487 10.1976 3.42714 10.0202 3.59331C9.84283 3.75947 9.63188 3.88567 9.40158 3.96338C9.17128 4.0411 8.92699 4.06852 8.68519 4.04381C8.44339 4.0191 8.2097 3.94282 7.99988 3.82013C7.71308 3.65063 7.38302 3.56859 7.05024 3.5841C6.71746 3.59961 6.39645 3.71199 6.12666 3.90742C5.85687 4.10286 5.65004 4.37285 5.53159 4.68423C5.41313 4.9956 5.38821 5.33479 5.45988 5.66013C5.51348 5.89366 5.51741 6.13584 5.4714 6.37099C5.4254 6.60613 5.33049 6.82898 5.19284 7.02509C5.05518 7.2212 4.87785 7.3862 4.67234 7.50938C4.46683 7.63256 4.23773 7.71117 3.99988 7.74013C3.65937 7.75868 3.3323 7.8792 3.06118 8.08605C2.79006 8.2929 2.58741 8.57651 2.47957 8.90003C2.37173 9.22355 2.36368 9.57202 2.45647 9.90017C2.54926 10.2283 2.7386 10.521 2.99988 10.7401C3.18101 10.9006 3.32602 11.0976 3.42533 11.3183C3.52464 11.5389 3.57599 11.7782 3.57599 12.0201C3.57599 12.2621 3.52464 12.5013 3.42533 12.722C3.32602 12.9426 3.18101 13.1397 2.99988 13.3001C2.7386 13.5193 2.54926 13.8119 2.45647 14.1401C2.36368 14.4682 2.37173 14.8167 2.47957 15.1402C2.58741 15.4638 2.79006 15.7474 3.06118 15.9542C3.3323 16.1611 3.65937 16.2816 3.99988 16.3001C4.24213 16.3226 4.47679 16.3965 4.6882 16.5169C4.89961 16.6373 5.0829 16.8014 5.22583 16.9982C5.36875 17.1951 5.46802 17.4202 5.51701 17.6585C5.56599 17.8968 5.56356 18.1428 5.50988 18.3801C5.45534 18.6956 5.49045 19.0201 5.61124 19.3166C5.73202 19.6131 5.93362 19.8697 6.19308 20.0573C6.45255 20.2449 6.75946 20.3558 7.07889 20.3775C7.39831 20.3992 7.71742 20.3308 7.99988 20.1801C8.20781 20.0566 8.4397 19.9789 8.68007 19.9521C8.92043 19.9254 9.16374 19.9502 9.39374 20.025C9.62374 20.0997 9.83514 20.2227 10.0138 20.3857C10.1925 20.5487 10.3343 20.7479 10.4299 20.9701C10.5592 21.278 10.7759 21.5412 11.0532 21.7274C11.3304 21.9135 11.6561 22.0144 11.99 22.0176C12.3239 22.0208 12.6515 21.9261 12.9322 21.7453C13.213 21.5645 13.4347 21.3055 13.5699 21.0001ZM9.24988 8.00013C9.49711 8.00013 9.73878 8.07344 9.94434 8.21079C10.1499 8.34815 10.3101 8.54337 10.4047 8.77178C10.4993 9.00018 10.5241 9.25152 10.4759 9.49399C10.4276 9.73647 10.3086 9.9592 10.1338 10.134C9.95895 10.3088 9.73622 10.4279 9.49374 10.4761C9.25127 10.5243 8.99994 10.4996 8.77153 10.405C8.54312 10.3104 8.3479 10.1502 8.21054 9.94459C8.07319 9.73903 7.99988 9.49736 7.99988 9.25013C7.99988 8.91861 8.13158 8.60067 8.366 8.36625C8.60042 8.13183 8.91836 8.00013 9.24988 8.00013ZM14.7499 16.0001C14.5027 16.0001 14.261 15.9268 14.0554 15.7895C13.8499 15.6521 13.6896 15.4569 13.595 15.2285C13.5004 15.0001 13.4757 14.7487 13.5239 14.5063C13.5721 14.2638 13.6912 14.0411 13.866 13.8662C14.0408 13.6914 14.2635 13.5724 14.506 13.5241C14.7485 13.4759 14.9998 13.5007 15.2282 13.5953C15.4566 13.6899 15.6519 13.8501 15.7892 14.0557C15.9266 14.2612 15.9999 14.5029 15.9999 14.7501C15.9999 15.0817 15.8682 15.3996 15.6338 15.634C15.3993 15.8684 15.0814 16.0001 14.7499 16.0001ZM15.7499 9.71013L9.74988 15.7101C9.65692 15.8039 9.54632 15.8783 9.42446 15.929C9.3026 15.9798 9.17189 16.0059 9.03988 16.0059C8.90787 16.0059 8.77716 15.9798 8.6553 15.929C8.53345 15.8783 8.42284 15.8039 8.32988 15.7101C8.23615 15.6172 8.16176 15.5066 8.11099 15.3847C8.06022 15.2628 8.03408 15.1321 8.03408 15.0001C8.03408 14.8681 8.06022 14.7374 8.11099 14.6156C8.16176 14.4937 8.23615 14.3831 8.32988 14.2901L14.3299 8.29013C14.5182 8.10183 14.7736 7.99604 15.0399 7.99604C15.3062 7.99604 15.5616 8.10183 15.7499 8.29013C15.9382 8.47843 16.044 8.73383 16.044 9.00013C16.044 9.26643 15.9382 9.52183 15.7499 9.71013Z" fill="currentColor"/>
  </symbol>
</svg>
