<!-- JioGames DLS — ollision icons (1 icons) -->
<svg xmlns="http://www.w3.org/2000/svg" style="display:none">
  <symbol id="ic_collision_vehicle" viewBox="0 0 24 24">
    <path d="M11.7 13.6H11.1V12.4C11.1 11.76 10.85 11.15 10.4 10.7C9.94995 10.25 9.33995 10 8.69995 10H6.29995C5.65995 10 5.04995 10.25 4.59995 10.7C4.14995 11.15 3.89995 11.76 3.89995 12.4V13.6H3.29995C3.13995 13.6 2.98995 13.66 2.87995 13.78C2.76995 13.89 2.69995 14.05 2.69995 14.2C2.69995 14.35 2.75995 14.51 2.87995 14.62C2.98995 14.73 3.14995 14.8 3.29995 14.8H3.89995V19.6C3.89995 20.24 4.14995 20.85 4.59995 21.3C5.04995 21.75 5.65995 22 6.29995 22H8.69995C9.33995 22 9.94995 21.75 10.4 21.3C10.85 20.85 11.1 20.24 11.1 19.6V14.8H11.7C11.86 14.8 12.01 14.74 12.12 14.62C12.23 14.51 12.3 14.35 12.3 14.2C12.3 14.05 12.24 13.89 12.12 13.78C12.01 13.67 11.85 13.6 11.7 13.6ZM9.63995 19.94C9.46995 20.11 9.23995 20.2 8.99995 20.2H5.99995C5.75995 20.2 5.52995 20.11 5.35995 19.94C5.18995 19.77 5.09995 19.54 5.09995 19.3C5.09995 19.22 5.12995 19.14 5.18995 19.09C5.24995 19.03 5.31995 19 5.39995 19H9.59995C9.67995 19 9.75995 19.03 9.80995 19.09C9.86995 19.15 9.89995 19.22 9.89995 19.3C9.89995 19.54 9.80995 19.77 9.63995 19.94ZM9.80995 15.31C9.74995 15.37 9.67995 15.4 9.59995 15.4H5.39995C5.31995 15.4 5.23995 15.37 5.18995 15.31C5.12995 15.25 5.09995 15.18 5.09995 15.1C5.09995 14.54 5.31995 14.01 5.71995 13.62C6.10995 13.23 6.64995 13 7.19995 13H7.79995C8.35995 13 8.88995 13.22 9.27995 13.62C9.66995 14.01 9.89995 14.55 9.89995 15.1C9.89995 15.18 9.86995 15.26 9.80995 15.31Z" fill="currentColor"/>
<path d="M11.1799 6C11.1099 6 11.0399 6 10.9699 6.03C10.8999 6.05 10.8399 6.09 10.7899 6.14C10.7399 6.19 10.6999 6.24 10.6699 6.31C10.6399 6.38 10.6199 6.44 10.6199 6.51C10.6199 6.58 10.6299 6.65 10.6599 6.72C10.6899 6.79 10.7299 6.85 10.7799 6.9C10.8699 6.99 10.9899 7.05 11.1199 7.06C12.1499 7.12 13.1199 7.55 13.8499 8.28C14.5799 9.01 15.0099 9.98 15.0699 11.01C15.0699 11.15 15.1399 11.28 15.2399 11.37C15.3399 11.46 15.4799 11.51 15.6199 11.5C15.7599 11.49 15.8899 11.43 15.9799 11.33C16.0699 11.23 16.1199 11.09 16.1099 10.95C16.0399 9.66 15.4999 8.45 14.5799 7.53C13.6699 6.62 12.4499 6.07 11.1599 6H11.1799Z" fill="currentColor"/>
<path d="M11.33 8.11999C11.19 8.09999 11.05 8.13999 10.94 8.21999C10.83 8.29999 10.76 8.42999 10.74 8.56999C10.72 8.70999 10.76 8.84999 10.84 8.95999C10.92 9.06999 11.05 9.13999 11.19 9.15999C11.64 9.22999 12.05 9.42999 12.37 9.74999C12.69 10.07 12.9 10.48 12.96 10.93C12.96 11 12.99 11.06 13.03 11.12C13.07 11.18 13.11 11.23 13.17 11.27C13.28 11.35 13.42 11.39 13.56 11.37C13.63 11.37 13.69 11.34 13.75 11.3C13.81 11.26 13.86 11.22 13.9 11.16C13.94 11.11 13.97 11.04 13.99 10.98C14.01 10.91 14.01 10.84 14 10.78C13.91 10.1 13.59 9.47999 13.11 8.99999C12.63 8.51999 12 8.20999 11.33 8.10999V8.11999Z" fill="currentColor"/>
<path d="M13.9999 3V3.84C13.9999 5.03 14.9699 6 16.1599 6H18.8399C20.0299 6 20.9999 5.03 20.9999 3.84V3H13.9999Z" fill="currentColor"/>
  </symbol>
</svg>
