<!-- JioGames DLS — olour icons (2 icons) -->
<svg xmlns="http://www.w3.org/2000/svg" style="display:none">
  <symbol id="ic_colour_palette " viewBox="0 0 24 24">
    <path d="M21.8001 9.99988C21.4384 8.23006 20.604 6.59127 19.3856 5.25762C18.1672 3.92396 16.6103 2.94524 14.8803 2.42542C13.1503 1.90561 11.3118 1.86411 9.56011 2.30534C7.80841 2.74657 6.20894 3.65405 4.93162 4.93137C3.65429 6.2087 2.74681 7.80817 2.30558 9.55986C1.86435 11.3116 1.90585 13.1501 2.42567 14.8801C2.94548 16.6101 3.9242 18.167 5.25786 19.3853C6.59152 20.6037 8.2303 21.4381 10.0001 21.7999C10.6586 21.9323 11.3285 21.9993 12.0001 21.9999C12.7958 21.9999 13.5588 21.6838 14.1214 21.1212C14.6841 20.5586 15.0001 19.7955 15.0001 18.9999V17.2799C14.9726 16.997 15.0034 16.7115 15.0905 16.441C15.1777 16.1705 15.3193 15.9207 15.5067 15.7071C15.6941 15.4934 15.9233 15.3204 16.1802 15.1988C16.437 15.0772 16.7161 15.0095 17.0001 14.9999H19.0001C19.7958 14.9999 20.5588 14.6838 21.1214 14.1212C21.684 13.5586 22.0001 12.7955 22.0001 11.9999C21.9995 11.3282 21.9325 10.6583 21.8001 9.99988ZM6.44012 7.43988C6.64983 7.22991 6.9171 7.08686 7.20812 7.02884C7.49914 6.97081 7.80084 7.0004 8.07504 7.11388C8.34923 7.22736 8.58361 7.41961 8.74852 7.66633C8.91342 7.91304 9.00144 8.20313 9.00144 8.49988C9.00144 8.79663 8.91342 9.08671 8.74852 9.33343C8.58361 9.58014 8.34923 9.7724 8.07504 9.88587C7.80084 9.99935 7.49914 10.0289 7.20812 9.97092C6.9171 9.91289 6.64983 9.76984 6.44012 9.55988C6.29983 9.42129 6.18845 9.25623 6.11243 9.07427C6.03641 8.89232 5.99726 8.69708 5.99726 8.49988C5.99726 8.30268 6.03641 8.10744 6.11243 7.92548C6.18845 7.74352 6.29983 7.57846 6.44012 7.43988ZM6.50012 14.9999C6.20345 14.9999 5.91344 14.9119 5.66677 14.7471C5.42009 14.5823 5.22783 14.348 5.1143 14.0739C5.00077 13.7998 4.97107 13.4982 5.02894 13.2072C5.08682 12.9163 5.22968 12.649 5.43946 12.4392C5.64924 12.2294 5.91651 12.0866 6.20749 12.0287C6.49846 11.9708 6.80006 12.0005 7.07415 12.1141C7.34824 12.2276 7.5825 12.4198 7.74733 12.6665C7.91215 12.9132 8.00012 13.2032 8.00012 13.4999C8.00012 13.8977 7.84209 14.2792 7.56078 14.5605C7.27948 14.8418 6.89795 14.9999 6.50012 14.9999ZM10.5601 18.5599C10.3504 18.7698 10.0831 18.9129 9.79212 18.9709C9.5011 19.0289 9.19941 18.9993 8.92521 18.8859C8.65101 18.7724 8.41663 18.5801 8.25173 18.3334C8.08682 18.0867 7.9988 17.7966 7.9988 17.4999C7.9988 17.2031 8.08682 16.913 8.25173 16.6663C8.41663 16.4196 8.65101 16.2274 8.92521 16.1139C9.19941 16.0004 9.5011 15.9708 9.79212 16.0288C10.0831 16.0869 10.3504 16.2299 10.5601 16.4399C10.7004 16.5785 10.8118 16.7435 10.8878 16.9255C10.9638 17.1074 11.003 17.3027 11.003 17.4999C11.003 17.6971 10.9638 17.8923 10.8878 18.0743C10.8118 18.2562 10.7004 18.4213 10.5601 18.5599ZM12.0001 7.99988C11.7034 7.99988 11.4134 7.9119 11.1668 7.74708C10.9201 7.58226 10.7278 7.34799 10.6143 7.0739C10.5008 6.79981 10.4711 6.49821 10.5289 6.20724C10.5868 5.91627 10.7297 5.649 10.9395 5.43922C11.1492 5.22944 11.4165 5.08658 11.7075 5.0287C11.9985 4.97082 12.3001 5.00053 12.5741 5.11406C12.8482 5.22759 13.0825 5.41985 13.2473 5.66652C13.4121 5.9132 13.5001 6.20321 13.5001 6.49988C13.5001 6.8977 13.3421 7.27923 13.0608 7.56054C12.7795 7.84184 12.3979 7.99988 12.0001 7.99988ZM17.5601 9.55988C17.3504 9.76984 17.0831 9.91289 16.7921 9.97092C16.5011 10.0289 16.1994 9.99935 15.9252 9.88587C15.651 9.7724 15.4166 9.58014 15.2517 9.33343C15.0868 9.08671 14.9988 8.79663 14.9988 8.49988C14.9988 8.20313 15.0868 7.91304 15.2517 7.66633C15.4166 7.41961 15.651 7.22736 15.9252 7.11388C16.1994 7.0004 16.5011 6.97081 16.7921 7.02884C17.0831 7.08686 17.3504 7.22991 17.5601 7.43988C17.7004 7.57846 17.8118 7.74352 17.8878 7.92548C17.9638 8.10744 18.003 8.30268 18.003 8.49988C18.003 8.69708 17.9638 8.89232 17.8878 9.07427C17.8118 9.25623 17.7004 9.42129 17.5601 9.55988Z" fill="currentColor"/>
  </symbol>
  <symbol id="ic_colour_spot" viewBox="0 0 24 24">
    <path d="M10.23 20.0002C9.0526 19.7433 7.94845 19.2237 7.00001 18.4802C6.79181 18.3158 6.52683 18.2408 6.26334 18.2717C5.99985 18.3027 5.75944 18.437 5.59501 18.6452C5.43057 18.8534 5.35558 19.1184 5.38652 19.3819C5.41747 19.6454 5.55181 19.8858 5.76001 20.0502C6.93182 20.9852 8.29886 21.6448 9.76001 21.9802L10 22.0002C10.2312 22.0059 10.4571 21.9312 10.6395 21.789C10.8218 21.6468 10.9492 21.4458 11 21.2202C11.0324 21.0894 11.038 20.9534 11.0165 20.8204C10.995 20.6874 10.9469 20.5601 10.875 20.4461C10.8031 20.3322 10.7089 20.234 10.598 20.1573C10.4872 20.0807 10.362 20.0273 10.23 20.0002ZM4.00001 12.2402C4.00001 11.975 3.89465 11.7206 3.70712 11.5331C3.51958 11.3456 3.26523 11.2402 3.00001 11.2402C2.73479 11.2402 2.48044 11.3456 2.2929 11.5331C2.10537 11.7206 2.00001 11.975 2.00001 12.2402C1.99798 13.7442 2.34004 15.2287 3.00001 16.5802C3.08247 16.7485 3.21058 16.8903 3.36971 16.9893C3.52884 17.0883 3.71259 17.1406 3.90001 17.1402C4.049 17.1393 4.19592 17.1052 4.33001 17.0402C4.56823 16.9257 4.7514 16.7214 4.83947 16.4722C4.92754 16.223 4.91335 15.949 4.80001 15.7102C4.27206 14.6297 3.99841 13.4428 4.00001 12.2402ZM3.45001 9.24021C3.58591 9.29856 3.73211 9.32916 3.88001 9.33021C4.06743 9.33059 4.25118 9.27829 4.41031 9.17927C4.56944 9.08026 4.69754 8.93852 4.78001 8.77022C5.30323 7.69228 6.06191 6.74565 7.00001 6.00021C7.10274 5.91769 7.18814 5.81568 7.25131 5.70004C7.31449 5.58441 7.35419 5.45743 7.36812 5.3264C7.38206 5.19537 7.36997 5.06288 7.33254 4.93654C7.29511 4.8102 7.23308 4.6925 7.15001 4.59021C6.98357 4.38567 6.74308 4.25515 6.48088 4.22706C6.21868 4.19896 5.956 4.27558 5.75001 4.44021C4.58675 5.37401 3.64714 6.55621 3.00001 7.90022C2.88212 8.13761 2.86329 8.41209 2.94767 8.66335C3.03205 8.91461 3.21273 9.1221 3.45001 9.24021ZM19.21 15.6902C19.1029 15.9268 19.092 16.1959 19.1797 16.4404C19.2674 16.6849 19.4469 16.8857 19.68 17.0002C19.8153 17.0617 19.9615 17.0957 20.11 17.1002C20.2985 17.0997 20.483 17.0459 20.6422 16.945C20.8015 16.8442 20.929 16.7004 21.01 16.5302C21.3679 15.7863 21.63 15.0001 21.79 14.1902H19.74C19.6147 14.7069 19.4371 15.2095 19.21 15.6902ZM17 18.4702C16.0583 19.2146 14.9612 19.7375 13.79 20.0002C13.5248 20.0281 13.2815 20.1601 13.1137 20.3674C12.9458 20.5746 12.8672 20.84 12.895 21.1052C12.9229 21.3704 13.0549 21.6137 13.2621 21.7816C13.4694 21.9494 13.7348 22.0281 14 22.0002C14.073 22.01 14.147 22.01 14.22 22.0002C15.6812 21.6648 17.0482 21.0052 18.22 20.0702C18.4322 19.9084 18.5714 19.669 18.607 19.4046C18.6427 19.1401 18.5718 18.8724 18.41 18.6602C18.2482 18.448 18.0088 18.3088 17.7444 18.2732C17.4799 18.2376 17.2122 18.3084 17 18.4702ZM10 4.47021H10.23C10.8083 4.31854 11.4023 4.23464 12 4.22021V2.22021C11.2426 2.22139 10.4877 2.30862 9.75001 2.48021C9.48479 2.50939 9.24203 2.64272 9.07512 2.85089C8.90821 3.05906 8.83083 3.325 8.86001 3.59021C8.88918 3.85543 9.02252 4.0982 9.23068 4.2651C9.43885 4.43201 9.70479 4.50939 9.97001 4.48021L10 4.47021ZM18.34 11.1402C18.5093 11.3116 18.7109 11.4478 18.9332 11.5407C19.1555 11.6336 19.3941 11.6814 19.635 11.6814C19.8759 11.6814 20.1145 11.6336 20.3368 11.5407C20.5591 11.4478 20.7607 11.3116 20.93 11.1402L21.17 10.9002C21.5114 10.5557 21.7029 10.0902 21.7029 9.60521C21.7029 9.12019 21.5114 8.65478 21.17 8.31021L20.37 7.52022L21.37 6.52022C21.7193 6.18136 21.9394 5.73123 21.9924 5.24745C22.0453 4.76368 21.9278 4.2766 21.66 3.87021C21.4908 3.64082 21.2744 3.45025 21.0255 3.3113C20.7766 3.17234 20.5008 3.08821 20.2167 3.06453C19.9326 3.04086 19.6468 3.07819 19.3783 3.17403C19.1098 3.26987 18.8649 3.42199 18.66 3.62021L17.52 4.67021L16.72 3.88021C16.5516 3.70908 16.3508 3.57317 16.1293 3.48041C15.9078 3.38764 15.6701 3.33986 15.43 3.33986C15.1899 3.33986 14.9522 3.38764 14.7307 3.48041C14.5092 3.57317 14.3084 3.70908 14.14 3.88021L13.9 4.12021C13.7286 4.2895 13.5925 4.49115 13.4996 4.71345C13.4067 4.93575 13.3588 5.17428 13.3588 5.41521C13.3588 5.65615 13.4067 5.89468 13.4996 6.11698C13.5925 6.33928 13.7286 6.54092 13.9 6.71021L9.31001 11.2902C9.21371 11.382 9.13669 11.4921 9.08346 11.614C9.03023 11.7359 9.00186 11.8672 9.00001 12.0002V15.0002C9.00001 15.2654 9.10537 15.5198 9.2929 15.7073C9.48044 15.8949 9.73479 16.0002 10 16.0002H13C13.2623 15.9991 13.5137 15.895 13.7 15.7102L18.34 11.1402ZM12.43 11.0002L15.31 8.12021L16.9 9.71021L15.6 11.0002H12.43Z" fill="currentColor"/>
  </symbol>
</svg>
