<!-- JioGames DLS — onsumption icons (5 icons) -->
<svg xmlns="http://www.w3.org/2000/svg" style="display:none">
  <symbol id="ic_consumption_accounted" viewBox="0 0 24 24">
    <path d="M13 11H11C10.7348 11 10.4804 11.1054 10.2929 11.2929C10.1054 11.4804 10 11.7348 10 12V21C10 21.2652 10.1054 21.5196 10.2929 21.7071C10.4804 21.8946 10.7348 22 11 22H13C13.2652 22 13.5196 21.8946 13.7071 21.7071C13.8946 21.5196 14 21.2652 14 21V12C14 11.7348 13.8946 11.4804 13.7071 11.2929C13.5196 11.1054 13.2652 11 13 11ZM7 15H5C4.73478 15 4.48043 15.1054 4.29289 15.2929C4.10536 15.4804 4 15.7348 4 16V21C4 21.2652 4.10536 21.5196 4.29289 21.7071C4.48043 21.8946 4.73478 22 5 22H7C7.26522 22 7.51957 21.8946 7.70711 21.7071C7.89464 21.5196 8 21.2652 8 21V16C8 15.7348 7.89464 15.4804 7.70711 15.2929C7.51957 15.1054 7.26522 15 7 15ZM10.71 6.29C10.617 6.19627 10.5064 6.12188 10.3846 6.07111C10.2627 6.02034 10.132 5.9942 10 5.9942C9.86799 5.9942 9.73728 6.02034 9.61542 6.07111C9.49356 6.12188 9.38296 6.19627 9.29 6.29L8.29 7.29C8.19627 7.38296 8.12188 7.49356 8.07111 7.61542C8.02034 7.73728 7.9942 7.86799 7.9942 8C7.9942 8.13201 8.02034 8.26272 8.07111 8.38458C8.12188 8.50644 8.19627 8.61704 8.29 8.71C8.38296 8.80373 8.49356 8.87812 8.61542 8.92889C8.73728 8.97966 8.86799 9.0058 9 9.0058C9.13201 9.0058 9.26272 8.97966 9.38458 8.92889C9.50644 8.87812 9.61704 8.80373 9.71 8.71L10.71 7.71C10.8037 7.61704 10.8781 7.50644 10.9289 7.38458C10.9797 7.26272 11.0058 7.13201 11.0058 7C11.0058 6.86799 10.9797 6.73728 10.9289 6.61542C10.8781 6.49356 10.8037 6.38296 10.71 6.29ZM19 7H17C16.7348 7 16.4804 7.10536 16.2929 7.29289C16.1054 7.48043 16 7.73478 16 8V21C16 21.2652 16.1054 21.5196 16.2929 21.7071C16.4804 21.8946 16.7348 22 17 22H19C19.2652 22 19.5196 21.8946 19.7071 21.7071C19.8946 21.5196 20 21.2652 20 21V8C20 7.73478 19.8946 7.48043 19.7071 7.29289C19.5196 7.10536 19.2652 7 19 7ZM9 2C7.67392 2 6.40215 2.52678 5.46447 3.46447C4.52678 4.40215 4 5.67392 4 7C4 7.26522 4.10536 7.51957 4.29289 7.70711C4.48043 7.89464 4.73478 8 5 8C5.26522 8 5.51957 7.89464 5.70711 7.70711C5.89464 7.51957 6 7.26522 6 7C6 6.20435 6.31607 5.44129 6.87868 4.87868C7.44129 4.31607 8.20435 4 9 4C9.79565 4 10.5587 4.31607 11.1213 4.87868C11.6839 5.44129 12 6.20435 12 7C12 7.26522 12.1054 7.51957 12.2929 7.70711C12.4804 7.89464 12.7348 8 13 8C13.2652 8 13.5196 7.89464 13.7071 7.70711C13.8946 7.51957 14 7.26522 14 7C14 6.34339 13.8707 5.69321 13.6194 5.08658C13.3681 4.47995 12.9998 3.92876 12.5355 3.46447C12.0712 3.00017 11.52 2.63188 10.9134 2.3806C10.3068 2.12933 9.65661 2 9 2Z" fill="currentColor"/>
  </symbol>
  <symbol id="ic_consumption_average" viewBox="0 0 24 24">
    <path d="M5 7.99994H16.59L16.29 8.28994C16.1963 8.3829 16.1219 8.49351 16.0711 8.61536C16.0203 8.73722 15.9942 8.86793 15.9942 8.99994C15.9942 9.13195 16.0203 9.26266 16.0711 9.38452C16.1219 9.50638 16.1963 9.61698 16.29 9.70994C16.383 9.80367 16.4936 9.87806 16.6154 9.92883C16.7373 9.9796 16.868 10.0057 17 10.0057C17.132 10.0057 17.2627 9.9796 17.3846 9.92883C17.5064 9.87806 17.617 9.80367 17.71 9.70994L19.71 7.70994C19.8037 7.61698 19.8781 7.50638 19.9289 7.38452C19.9797 7.26266 20.0058 7.13195 20.0058 6.99994C20.0058 6.86793 19.9797 6.73722 19.9289 6.61536C19.8781 6.49351 19.8037 6.3829 19.71 6.28994L17.71 4.28994C17.6168 4.1967 17.5061 4.12274 17.3842 4.07228C17.2624 4.02182 17.1319 3.99585 17 3.99585C16.7337 3.99585 16.4783 4.10164 16.29 4.28994C16.1017 4.47825 15.9959 4.73364 15.9959 4.99994C15.9959 5.26624 16.1017 5.52164 16.29 5.70994L16.59 5.99994H5C4.73478 5.99994 4.48043 6.1053 4.29289 6.29283C4.10536 6.48037 4 6.73472 4 6.99994C4 7.26516 4.10536 7.51951 4.29289 7.70705C4.48043 7.89458 4.73478 7.99994 5 7.99994ZM7 13.9999H5C4.73478 13.9999 4.48043 14.1053 4.29289 14.2928C4.10536 14.4804 4 14.7347 4 14.9999V20.9999C4 21.2652 4.10536 21.5195 4.29289 21.707C4.48043 21.8946 4.73478 21.9999 5 21.9999H7C7.26522 21.9999 7.51957 21.8946 7.70711 21.707C7.89464 21.5195 8 21.2652 8 20.9999V14.9999C8 14.7347 7.89464 14.4804 7.70711 14.2928C7.51957 14.1053 7.26522 13.9999 7 13.9999ZM13 13.9999H11C10.7348 13.9999 10.4804 14.1053 10.2929 14.2928C10.1054 14.4804 10 14.7347 10 14.9999V20.9999C10 21.2652 10.1054 21.5195 10.2929 21.707C10.4804 21.8946 10.7348 21.9999 11 21.9999H13C13.2652 21.9999 13.5196 21.8946 13.7071 21.707C13.8946 21.5195 14 21.2652 14 20.9999V14.9999C14 14.7347 13.8946 14.4804 13.7071 14.2928C13.5196 14.1053 13.2652 13.9999 13 13.9999ZM19 13.9999H17C16.7348 13.9999 16.4804 14.1053 16.2929 14.2928C16.1054 14.4804 16 14.7347 16 14.9999V20.9999C16 21.2652 16.1054 21.5195 16.2929 21.707C16.4804 21.8946 16.7348 21.9999 17 21.9999H19C19.2652 21.9999 19.5196 21.8946 19.7071 21.707C19.8946 21.5195 20 21.2652 20 20.9999V14.9999C20 14.7347 19.8946 14.4804 19.7071 14.2928C19.5196 14.1053 19.2652 13.9999 19 13.9999Z" fill="currentColor"/>
  </symbol>
  <symbol id="ic_consumption_high" viewBox="0 0 24 24">
    <path d="M13 14H11C10.7348 14 10.4804 14.1054 10.2929 14.2929C10.1054 14.4804 10 14.7348 10 15V21C10 21.2652 10.1054 21.5196 10.2929 21.7071C10.4804 21.8946 10.7348 22 11 22H13C13.2652 22 13.5196 21.8946 13.7071 21.7071C13.8946 21.5196 14 21.2652 14 21V15C14 14.7348 13.8946 14.4804 13.7071 14.2929C13.5196 14.1054 13.2652 14 13 14ZM7 17H5C4.73478 17 4.48043 17.1054 4.29289 17.2929C4.10536 17.4804 4 17.7348 4 18V21C4 21.2652 4.10536 21.5196 4.29289 21.7071C4.48043 21.8946 4.73478 22 5 22H7C7.26522 22 7.51957 21.8946 7.70711 21.7071C7.89464 21.5196 8 21.2652 8 21V18C8 17.7348 7.89464 17.4804 7.70711 17.2929C7.51957 17.1054 7.26522 17 7 17ZM19 10H17C16.7348 10 16.4804 10.1054 16.2929 10.2929C16.1054 10.4804 16 10.7348 16 11V21C16 21.2652 16.1054 21.5196 16.2929 21.7071C16.4804 21.8946 16.7348 22 17 22H19C19.2652 22 19.5196 21.8946 19.7071 21.7071C19.8946 21.5196 20 21.2652 20 21V11C20 10.7348 19.8946 10.4804 19.7071 10.2929C19.5196 10.1054 19.2652 10 19 10ZM19 2H16C15.7348 2 15.4804 2.10536 15.2929 2.29289C15.1054 2.48043 15 2.73478 15 3C15 3.26522 15.1054 3.51957 15.2929 3.70711C15.4804 3.89464 15.7348 4 16 4H16.63C14.22 6.43 10.12 10 5 10C4.73478 10 4.48043 10.1054 4.29289 10.2929C4.10536 10.4804 4 10.7348 4 11C4 11.2652 4.10536 11.5196 4.29289 11.7071C4.48043 11.8946 4.73478 12 5 12C10.87 12 15.37 8.1 18 5.46V6C18 6.26522 18.1054 6.51957 18.2929 6.70711C18.4804 6.89464 18.7348 7 19 7C19.2652 7 19.5196 6.89464 19.7071 6.70711C19.8946 6.51957 20 6.26522 20 6V3C20 2.73478 19.8946 2.48043 19.7071 2.29289C19.5196 2.10536 19.2652 2 19 2Z" fill="currentColor"/>
  </symbol>
  <symbol id="ic_consumption_low" viewBox="0 0 24 24">
    <path d="M16.7 11.88L16.29 12.29C16.1963 12.3829 16.1219 12.4935 16.0711 12.6154C16.0203 12.7372 15.9942 12.868 15.9942 13C15.9942 13.132 16.0203 13.2627 16.0711 13.3845C16.1219 13.5064 16.1963 13.617 16.29 13.71C16.383 13.8037 16.4936 13.8781 16.6154 13.9289C16.7373 13.9796 16.868 14.0058 17 14.0058C17.132 14.0058 17.2627 13.9796 17.3846 13.9289C17.5064 13.8781 17.617 13.8037 17.71 13.71L19.71 11.71C19.8037 11.617 19.8781 11.5064 19.9289 11.3845C19.9797 11.2627 20.0058 11.132 20.0058 11C20.0058 10.868 19.9797 10.7372 19.9289 10.6154C19.8781 10.4935 19.8037 10.3829 19.71 10.29L17.71 8.28996C17.6168 8.19673 17.5061 8.12277 17.3842 8.0723C17.2624 8.02184 17.1319 7.99587 17 7.99587C16.7337 7.99587 16.4783 8.10166 16.29 8.28996C16.1968 8.3832 16.1228 8.49389 16.0723 8.61572C16.0219 8.73754 15.9959 8.86811 15.9959 8.99996C15.9959 9.26627 16.1017 9.52166 16.29 9.70996L16.42 9.83996C11.79 9.24996 8.54 6.99996 5.86 2.48996C5.71439 2.28975 5.4997 2.15067 5.25746 2.09962C5.01522 2.04857 4.76265 2.08919 4.54864 2.21362C4.33462 2.33805 4.17436 2.53744 4.09888 2.77321C4.02339 3.00898 4.03805 3.26437 4.14 3.48996C7.25 8.68996 11.19 11.33 16.7 11.88ZM7 9.99996H5C4.73478 9.99996 4.48043 10.1053 4.29289 10.2929C4.10536 10.4804 4 10.7347 4 11V21C4 21.2652 4.10536 21.5195 4.29289 21.7071C4.48043 21.8946 4.73478 22 5 22H7C7.26522 22 7.51957 21.8946 7.70711 21.7071C7.89464 21.5195 8 21.2652 8 21V11C8 10.7347 7.89464 10.4804 7.70711 10.2929C7.51957 10.1053 7.26522 9.99996 7 9.99996ZM19 17H17C16.7348 17 16.4804 17.1053 16.2929 17.2929C16.1054 17.4804 16 17.7347 16 18V21C16 21.2652 16.1054 21.5195 16.2929 21.7071C16.4804 21.8946 16.7348 22 17 22H19C19.2652 22 19.5196 21.8946 19.7071 21.7071C19.8946 21.5195 20 21.2652 20 21V18C20 17.7347 19.8946 17.4804 19.7071 17.2929C19.5196 17.1053 19.2652 17 19 17ZM13 14H11C10.7348 14 10.4804 14.1053 10.2929 14.2929C10.1054 14.4804 10 14.7347 10 15V21C10 21.2652 10.1054 21.5195 10.2929 21.7071C10.4804 21.8946 10.7348 22 11 22H13C13.2652 22 13.5196 21.8946 13.7071 21.7071C13.8946 21.5195 14 21.2652 14 21V15C14 14.7347 13.8946 14.4804 13.7071 14.2929C13.5196 14.1053 13.2652 14 13 14Z" fill="currentColor"/>
  </symbol>
  <symbol id="ic_consumption_unaccounted" viewBox="0 0 24 24">
    <path d="M7 15H5C4.73478 15 4.48043 15.1054 4.29289 15.2929C4.10536 15.4804 4 15.7348 4 16V21C4 21.2652 4.10536 21.5196 4.29289 21.7071C4.48043 21.8946 4.73478 22 5 22H7C7.26522 22 7.51957 21.8946 7.70711 21.7071C7.89464 21.5196 8 21.2652 8 21V16C8 15.7348 7.89464 15.4804 7.70711 15.2929C7.51957 15.1054 7.26522 15 7 15ZM9 6H7L8.8 3.6C8.95913 3.38783 9.02746 3.12113 8.98995 2.85858C8.95244 2.59603 8.81217 2.35913 8.6 2.2C8.38783 2.04087 8.12113 1.97255 7.85858 2.01005C7.59603 2.04756 7.35913 2.18783 7.2 2.4L4.2 6.4C4.09817 6.54395 4.03621 6.71227 4.0204 6.88789C4.00459 7.06351 4.03551 7.24018 4.11 7.4C4.18597 7.57427 4.31005 7.72327 4.46768 7.82953C4.62531 7.9358 4.80996 7.99493 5 8H7L5.2 10.4C5.12121 10.5051 5.06388 10.6246 5.03129 10.7518C4.99869 10.879 4.99148 11.0114 5.01005 11.1414C5.02862 11.2714 5.07262 11.3965 5.13953 11.5095C5.20643 11.6225 5.29494 11.7212 5.4 11.8C5.5731 11.9298 5.78363 12 6 12C6.15525 12 6.30836 11.9639 6.44721 11.8944C6.58607 11.825 6.70685 11.7242 6.8 11.6L9.8 7.6C9.90183 7.45605 9.9638 7.28774 9.9796 7.11212C9.99541 6.9365 9.9645 6.75982 9.89 6.6C9.81403 6.42574 9.68995 6.27674 9.53232 6.17048C9.37469 6.06421 9.19004 6.00507 9 6ZM13 11H11C10.7348 11 10.4804 11.1054 10.2929 11.2929C10.1054 11.4804 10 11.7348 10 12V21C10 21.2652 10.1054 21.5196 10.2929 21.7071C10.4804 21.8946 10.7348 22 11 22H13C13.2652 22 13.5196 21.8946 13.7071 21.7071C13.8946 21.5196 14 21.2652 14 21V12C14 11.7348 13.8946 11.4804 13.7071 11.2929C13.5196 11.1054 13.2652 11 13 11ZM19 7H17C16.7348 7 16.4804 7.10536 16.2929 7.2929C16.1054 7.48043 16 7.73479 16 8V21C16 21.2652 16.1054 21.5196 16.2929 21.7071C16.4804 21.8946 16.7348 22 17 22H19C19.2652 22 19.5196 21.8946 19.7071 21.7071C19.8946 21.5196 20 21.2652 20 21V8C20 7.73479 19.8946 7.48043 19.7071 7.2929C19.5196 7.10536 19.2652 7 19 7Z" fill="currentColor"/>
  </symbol>
</svg>
