<!-- JioGames DLS — ontact icons (3 icons) -->
<svg xmlns="http://www.w3.org/2000/svg" style="display:none">
  <symbol id="ic_contact_add" viewBox="0 0 24 24">
    <path d="M8 11C9.93 11 11.5 9.43 11.5 7.5C11.5 5.57 9.93 4 8 4C6.07 4 4.5 5.57 4.5 7.5C4.5 9.43 6.07 11 8 11ZM8 12C4.69 12 2 14.69 2 18C2 19.1 2.9 20 4 20H12C13.1 20 14 19.1 14 18C14 14.69 11.31 12 8 12ZM21 10H19V8C19 7.45 18.55 7 18 7C17.45 7 17 7.45 17 8V10H15C14.45 10 14 10.45 14 11C14 11.55 14.45 12 15 12H17V14C17 14.55 17.45 15 18 15C18.55 15 19 14.55 19 14V12H21C21.55 12 22 11.55 22 11C22 10.45 21.55 10 21 10Z" fill="currentColor"/>
  </symbol>
  <symbol id="ic_contact_share" viewBox="0 0 24 24">
    <path d="M8 11C9.93 11 11.5 9.43 11.5 7.5C11.5 5.57 9.93 4 8 4C6.07 4 4.5 5.57 4.5 7.5C4.5 9.43 6.07 11 8 11ZM8 12C4.69 12 2 14.69 2 18C2 19.1 2.9 20 4 20H12C13.1 20 14 19.1 14 18C14 14.69 11.31 12 8 12ZM21.71 8.29L19.71 6.29C19.32 5.9 18.69 5.9 18.3 6.29C17.91 6.68 17.91 7.31 18.3 7.7L18.59 7.99H16C14.35 7.99 13 9.34 13 10.99V11.99C13 12.54 13.45 12.99 14 12.99C14.55 12.99 15 12.54 15 11.99V10.99C15 10.44 15.45 9.99 16 9.99H18.59L18.3 10.28C17.91 10.67 17.91 11.3 18.3 11.69C18.5 11.89 18.75 11.98 19.01 11.98C19.27 11.98 19.52 11.88 19.72 11.69L21.72 9.69C22.11 9.3 22.11 8.67 21.72 8.28L21.71 8.29Z" fill="currentColor"/>
  </symbol>
  <symbol id="ic_contact_us" viewBox="0 0 24 24">
    <path d="M7.09999 9.47023H7.38999C7.99999 9.47023 8.48999 8.98023 8.48999 8.37023V7.08023C8.48999 7.08023 8.48999 7.05023 8.47999 7.03023C8.47999 7.01023 8.48999 7.00023 8.48999 6.98023C8.48999 6.54023 8.58999 5.67023 9.18999 4.87023C10.23 3.49023 11.92 3.47023 11.99 3.47023C12.06 3.47023 13.75 3.49023 14.79 4.87023C15.39 5.67023 15.49 6.53023 15.49 6.98023C15.49 7.00023 15.49 7.01023 15.5 7.03023C15.5 7.05023 15.49 7.06023 15.49 7.08023V9.32023C15.49 10.1002 15.18 10.5102 15.09 10.5402H13.99C13.71 10.5402 13.49 10.7602 13.49 11.0402C13.49 11.3202 13.71 11.5402 13.99 11.5402H15.09C15.37 11.5402 15.64 11.4202 15.86 11.2002C16.23 10.8302 16.45 10.1802 16.48 9.46023C16.52 9.46023 16.55 9.48023 16.59 9.48023H16.88C17.49 9.48023 17.98 8.99023 17.98 8.38023V7.09023C17.98 6.48023 17.49 5.99023 16.88 5.99023H16.59C16.51 5.99023 16.45 6.02023 16.37 6.03023C16.26 5.50023 16.03 4.88023 15.58 4.29023C14.27 2.54023 12.21 2.49023 11.98 2.49023C11.75 2.49023 9.68999 2.54023 8.37999 4.29023C7.92999 4.89023 7.70999 5.51023 7.58999 6.03023C7.51999 6.02023 7.44999 5.99023 7.36999 5.99023H7.07999C6.46999 5.99023 5.97999 6.48023 5.97999 7.09023V8.38023C5.97999 8.99023 6.46999 9.48023 7.07999 9.48023L7.09999 9.47023ZM15 12.0302C14.96 13.7502 14.51 16.2802 13.48 17.9602L12.48 14.0002C14.01 12.0002 12.33 12.0002 12.01 12.0002C11.66 12.0002 10.01 12.0002 11.54 14.0002L10.54 17.9602C9.49999 16.2802 9.05999 13.7502 9.01999 12.0302C6.12999 12.8902 4.01999 14.8602 4.01999 18.0302V19.0302C4.01999 20.1302 4.90999 21.0302 6.01999 21.0302H18.03C19.13 21.0302 20.03 20.1402 20.03 19.0302V18.0302C20.03 14.8602 17.92 12.8902 15.03 12.0302H15Z" fill="currentColor"/>
  </symbol>
</svg>
