<!-- JioGames DLS — open icons (2 icons) -->
<svg xmlns="http://www.w3.org/2000/svg" style="display:none">
  <symbol id="ic_open_in_new_tab" viewBox="0 0 24 24">
    <path d="M18 3H6C5.20435 3 4.44129 3.31607 3.87868 3.87868C3.31607 4.44129 3 5.20435 3 6V18C3 18.7956 3.31607 19.5587 3.87868 20.1213C4.44129 20.6839 5.20435 21 6 21H18C18.7956 21 19.5587 20.6839 20.1213 20.1213C20.6839 19.5587 21 18.7956 21 18V6C21 5.20435 20.6839 4.44129 20.1213 3.87868C19.5587 3.31607 18.7956 3 18 3ZM18 11C18 11.2652 17.8946 11.5196 17.7071 11.7071C17.5196 11.8946 17.2652 12 17 12C16.7348 12 16.4804 11.8946 16.2929 11.7071C16.1054 11.5196 16 11.2652 16 11V9.41L11.71 13.71C11.617 13.8037 11.5064 13.8781 11.3846 13.9289C11.2627 13.9797 11.132 14.0058 11 14.0058C10.868 14.0058 10.7373 13.9797 10.6154 13.9289C10.4936 13.8781 10.383 13.8037 10.29 13.71C10.1963 13.617 10.1219 13.5064 10.0711 13.3846C10.0203 13.2627 9.9942 13.132 9.9942 13C9.9942 12.868 10.0203 12.7373 10.0711 12.6154C10.1219 12.4936 10.1963 12.383 10.29 12.29L14.59 8H13C12.7348 8 12.4804 7.89464 12.2929 7.70711C12.1054 7.51957 12 7.26522 12 7C12 6.73478 12.1054 6.48043 12.2929 6.29289C12.4804 6.10536 12.7348 6 13 6H17C17.2652 6 17.5196 6.10536 17.7071 6.29289C17.8946 6.48043 18 6.73478 18 7V11Z" fill="currentColor"/>
  </symbol>
  <symbol id="ic_open_with" viewBox="0 0 24 24">
    <path d="M20 11C19.7348 11 19.4804 11.1054 19.2929 11.2929C19.1054 11.4804 19 11.7348 19 12V18C19 18.2652 18.8946 18.5196 18.7071 18.7071C18.5196 18.8946 18.2652 19 18 19H6C5.73478 19 5.48043 18.8946 5.29289 18.7071C5.10536 18.5196 5 18.2652 5 18V6C5 5.73478 5.10536 5.48043 5.29289 5.29289C5.48043 5.10536 5.73478 5 6 5H12C12.2652 5 12.5196 4.89464 12.7071 4.70711C12.8946 4.51957 13 4.26522 13 4C13 3.73478 12.8946 3.48043 12.7071 3.29289C12.5196 3.10536 12.2652 3 12 3H6C5.20435 3 4.44129 3.31607 3.87868 3.87868C3.31607 4.44129 3 5.20435 3 6V18C3 18.7956 3.31607 19.5587 3.87868 20.1213C4.44129 20.6839 5.20435 21 6 21H18C18.7956 21 19.5587 20.6839 20.1213 20.1213C20.6839 19.5587 21 18.7956 21 18V12C21 11.7348 20.8946 11.4804 20.7071 11.2929C20.5196 11.1054 20.2652 11 20 11ZM20.92 3.62C20.8185 3.37565 20.6243 3.18147 20.38 3.08C20.2598 3.02876 20.1307 3.00158 20 3H16C15.7348 3 15.4804 3.10536 15.2929 3.29289C15.1054 3.48043 15 3.73478 15 4C15 4.26522 15.1054 4.51957 15.2929 4.70711C15.4804 4.89464 15.7348 5 16 5H17.59L11.29 11.29C11.1963 11.383 11.1219 11.4936 11.0711 11.6154C11.0203 11.7373 10.9942 11.868 10.9942 12C10.9942 12.132 11.0203 12.2627 11.0711 12.3846C11.1219 12.5064 11.1963 12.617 11.29 12.71C11.383 12.8037 11.4936 12.8781 11.6154 12.9289C11.7373 12.9797 11.868 13.0058 12 13.0058C12.132 13.0058 12.2627 12.9797 12.3846 12.9289C12.5064 12.8781 12.617 12.8037 12.71 12.71L19 6.41V8C19 8.26522 19.1054 8.51957 19.2929 8.70711C19.4804 8.89464 19.7348 9 20 9C20.2652 9 20.5196 8.89464 20.7071 8.70711C20.8946 8.51957 21 8.26522 21 8V4C20.9984 3.86932 20.9712 3.74022 20.92 3.62Z" fill="currentColor"/>
  </symbol>
</svg>
