<!-- JioGames DLS — opy icons (2 icons) -->
<svg xmlns="http://www.w3.org/2000/svg" style="display:none">
  <symbol id="ic_copy" viewBox="0 0 24 24">
    <path d="M13 8H5C4.20435 8 3.44129 8.31607 2.87868 8.87868C2.31607 9.44129 2 10.2044 2 11V19C2 19.7956 2.31607 20.5587 2.87868 21.1213C3.44129 21.6839 4.20435 22 5 22H13C13.7956 22 14.5587 21.6839 15.1213 21.1213C15.6839 20.5587 16 19.7956 16 19V11C16 10.2044 15.6839 9.44129 15.1213 8.87868C14.5587 8.31607 13.7956 8 13 8ZM19 2H11C10.2044 2 9.44129 2.31607 8.87868 2.87868C8.31607 3.44129 8 4.20435 8 5V6H13C14.3261 6 15.5979 6.52678 16.5355 7.46447C17.4732 8.40215 18 9.67392 18 11V16H19C19.7956 16 20.5587 15.6839 21.1213 15.1213C21.6839 14.5587 22 13.7956 22 13V5C22 4.20435 21.6839 3.44129 21.1213 2.87868C20.5587 2.31607 19.7956 2 19 2Z" fill="currentColor"/>
  </symbol>
  <symbol id="ic_copy_document" viewBox="0 0 24 24">
    <path d="M12.33 8.82V6H4.87C4.37313 6.00264 3.89751 6.20188 3.5471 6.55416C3.19669 6.90645 2.99999 7.38312 3 7.88V20.12C2.99999 20.6169 3.19669 21.0936 3.5471 21.4458C3.89751 21.7981 4.37313 21.9974 4.87 22H15.13C15.6269 21.9974 16.1025 21.7981 16.4529 21.4458C16.8033 21.0936 17 20.6169 17 20.12V10.71H14.2C13.9531 10.7087 13.7089 10.6588 13.4813 10.5631C13.2537 10.4674 13.0472 10.3278 12.8736 10.1523C12.6999 9.97679 12.5625 9.76881 12.4693 9.54021C12.376 9.31161 12.3287 9.06689 12.33 8.82ZM20.41 5.59L17.41 2.59C17.0366 2.21441 16.5296 2.00223 16 2H8C7.46957 2 6.96086 2.21071 6.58579 2.58579C6.21071 2.96086 6 3.46957 6 4H13C13.7954 4.0007 14.5579 4.31723 15.12 4.88L18.12 7.88C18.6828 8.44207 18.9993 9.20462 19 10V19C19.5304 19 20.0391 18.7893 20.4142 18.4142C20.7893 18.0391 21 17.5304 21 17V7C20.9978 6.47042 20.7856 5.96335 20.41 5.59Z" fill="currentColor"/>
  </symbol>
</svg>
