<!-- JioGames DLS — ow icons (6 icons) -->
<svg xmlns="http://www.w3.org/2000/svg" style="display:none">
  <symbol id="ic_cow_adult" viewBox="0 0 24 24">
    <path d="M18.75 7.9999H18.66C20.93 6.0499 21 4.2299 21 3.9999C20.999 3.80247 20.9396 3.60975 20.8293 3.44603C20.7189 3.28231 20.5626 3.15492 20.38 3.0799C20.1979 3.00332 19.9972 2.98239 19.8032 3.01977C19.6092 3.05714 19.4306 3.15114 19.29 3.2899C18.5007 4.02611 17.6202 4.65794 16.67 5.1699C15.9665 4.44679 15.0085 4.02698 14 3.9999H10C8.99152 4.02698 8.03348 4.44679 7.33 5.1699C6.37981 4.65794 5.49928 4.02611 4.71 3.2899C4.56938 3.15114 4.3908 3.05714 4.19681 3.01977C4.00282 2.98239 3.80211 3.00332 3.62 3.0799C3.43738 3.15492 3.28105 3.28231 3.17072 3.44603C3.06039 3.60975 3.00099 3.80247 3 3.9999C3 4.2299 3.07 6.0499 5.34 7.9999H5.25C4.65326 7.9999 4.08097 8.23695 3.65901 8.65891C3.23705 9.08086 3 9.65316 3 10.2499C3.00259 10.448 3.08244 10.6373 3.22253 10.7774C3.36263 10.9175 3.55189 10.9973 3.75 10.9999H5.25C5.55673 10.9999 5.86 10.9351 6.14 10.8099C6.22 11.2899 6.33 11.7099 6.44 12.1299C6.55 12.5499 6.66 12.9999 6.76 13.5599C7.45041 13.1949 8.21904 13.0027 9 12.9999H15C15.781 13.0027 16.5496 13.1949 17.24 13.5599C17.34 12.9999 17.45 12.5599 17.56 12.1299C17.67 11.6999 17.78 11.2899 17.86 10.8099C18.14 10.9351 18.4433 10.9999 18.75 10.9999H20.25C20.4481 10.9973 20.6374 10.9175 20.7775 10.7774C20.9176 10.6373 20.9974 10.448 21 10.2499C21 9.65316 20.7629 9.08086 20.341 8.65891C19.919 8.23695 19.3467 7.9999 18.75 7.9999ZM9 10.9999C8.80222 10.9999 8.60888 10.9412 8.44443 10.8314C8.27998 10.7215 8.15181 10.5653 8.07612 10.3826C8.00043 10.1999 7.98063 9.99879 8.01921 9.80481C8.0578 9.61082 8.15304 9.43264 8.29289 9.29279C8.43275 9.15294 8.61093 9.0577 8.80491 9.01911C8.99889 8.98053 9.19996 9.00033 9.38268 9.07602C9.56541 9.1517 9.72159 9.27988 9.83147 9.44432C9.94135 9.60877 10 9.80211 10 9.9999C10 10.2651 9.89464 10.5195 9.70711 10.707C9.51957 10.8945 9.26522 10.9999 9 10.9999ZM15 10.9999C14.8022 10.9999 14.6089 10.9412 14.4444 10.8314C14.28 10.7215 14.1518 10.5653 14.0761 10.3826C14.0004 10.1999 13.9806 9.99879 14.0192 9.80481C14.0578 9.61082 14.153 9.43264 14.2929 9.29279C14.4327 9.15294 14.6109 9.0577 14.8049 9.01911C14.9989 8.98053 15.2 9.00033 15.3827 9.07602C15.5654 9.1517 15.7216 9.27988 15.8315 9.44432C15.9414 9.60877 16 9.80211 16 9.9999C16 10.2651 15.8946 10.5195 15.7071 10.707C15.5196 10.8945 15.2652 10.9999 15 10.9999ZM15 14.9999H9C8.20435 14.9999 7.44129 15.316 6.87868 15.8786C6.31607 16.4412 6 17.2042 6 17.9999C6 18.7955 6.31607 19.5586 6.87868 20.1212C7.44129 20.6838 8.20435 20.9999 9 20.9999H15C15.7956 20.9999 16.5587 20.6838 17.1213 20.1212C17.6839 19.5586 18 18.7955 18 17.9999C18 17.2042 17.6839 16.4412 17.1213 15.8786C16.5587 15.316 15.7956 14.9999 15 14.9999Z" fill="currentColor"/>
  </symbol>
  <symbol id="ic_cow_device" viewBox="0 0 24 24">
    <path d="M2 10V14C2 14.2652 2.10536 14.5196 2.29289 14.7071C2.48043 14.8946 2.73478 15 3 15H4V9H3C2.73478 9 2.48043 9.10536 2.29289 9.29289C2.10536 9.48043 2 9.73478 2 10ZM15 6H9C8.20435 6 7.44129 6.31607 6.87868 6.87868C6.31607 7.44129 6 8.20435 6 9V15C6 15.7956 6.31607 16.5587 6.87868 17.1213C7.44129 17.6839 8.20435 18 9 18H15C15.7956 18 16.5587 17.6839 17.1213 17.1213C17.6839 16.5587 18 15.7956 18 15V9C18 8.20435 17.6839 7.44129 17.1213 6.87868C16.5587 6.31607 15.7956 6 15 6ZM12 14C11.6044 14 11.2178 13.8827 10.8889 13.6629C10.56 13.4432 10.3036 13.1308 10.1522 12.7654C10.0009 12.3999 9.96126 11.9978 10.0384 11.6098C10.1156 11.2219 10.3061 10.8655 10.5858 10.5858C10.8655 10.3061 11.2219 10.1156 11.6098 10.0384C11.9978 9.96126 12.3999 10.0009 12.7654 10.1522C13.1308 10.3036 13.4432 10.56 13.6629 10.8889C13.8827 11.2178 14 11.6044 14 12C14 12.5304 13.7893 13.0391 13.4142 13.4142C13.0391 13.7893 12.5304 14 12 14ZM21 9H20V15H21C21.2652 15 21.5196 14.8946 21.7071 14.7071C21.8946 14.5196 22 14.2652 22 14V10C22 9.73478 21.8946 9.48043 21.7071 9.29289C21.5196 9.10536 21.2652 9 21 9Z" fill="currentColor"/>
  </symbol>
  <symbol id="ic_cow_device_off" viewBox="0 0 24 24">
    <path d="M20.71 4.70994C20.8983 4.52164 21.0041 4.26624 21.0041 3.99994C21.0041 3.73364 20.8983 3.47825 20.71 3.28994C20.5217 3.10164 20.2663 2.99585 20 2.99585C19.7337 2.99585 19.4783 3.10164 19.29 3.28994L3.29 19.2899C3.19627 19.3829 3.12188 19.4935 3.07111 19.6154C3.02034 19.7372 2.9942 19.8679 2.9942 19.9999C2.9942 20.132 3.02034 20.2627 3.07111 20.3845C3.12188 20.5064 3.19627 20.617 3.29 20.7099C3.38296 20.8037 3.49356 20.8781 3.61542 20.9288C3.73728 20.9796 3.86799 21.0057 4 21.0057C4.13201 21.0057 4.26272 20.9796 4.38458 20.9288C4.50644 20.8781 4.61704 20.8037 4.71 20.7099L7.71 17.7099C8.11308 17.9013 8.55378 18.0004 9 17.9999H15C15.7956 17.9999 16.5587 17.6839 17.1213 17.1213C17.6839 16.5587 18 15.7956 18 14.9999V8.99994C17.9974 8.55296 17.8949 8.11222 17.7 7.70994L20.71 4.70994ZM12 13.9999C11.8278 13.9977 11.6565 13.9742 11.49 13.9299L13.93 11.4899C13.9743 11.6564 13.9978 11.8277 14 11.9999C14 12.5304 13.7893 13.0391 13.4142 13.4142C13.0391 13.7892 12.5304 13.9999 12 13.9999ZM9 5.99994C8.20435 5.99994 7.44129 6.31601 6.87868 6.87862C6.31607 7.44123 6 8.20429 6 8.99994V13.7599L13.76 5.99994H9ZM4 14.9999V8.99994H3C2.73478 8.99994 2.48043 9.1053 2.29289 9.29283C2.10536 9.48037 2 9.73472 2 9.99994V13.9999C2 14.2652 2.10536 14.5195 2.29289 14.707C2.48043 14.8946 2.73478 14.9999 3 14.9999H4ZM21 8.99994H20V14.9999H21C21.2652 14.9999 21.5196 14.8946 21.7071 14.707C21.8946 14.5195 22 14.2652 22 13.9999V9.99994C22 9.73472 21.8946 9.48037 21.7071 9.29283C21.5196 9.1053 21.2652 8.99994 21 8.99994Z" fill="currentColor"/>
  </symbol>
  <symbol id="ic_cow_heat_activity" viewBox="0 0 24 24">
    <path d="M18 5H17C16.9434 4.99518 16.8866 4.99518 16.83 5C16.6231 4.41484 16.2398 3.90826 15.733 3.55006C15.2261 3.19186 14.6207 2.99968 14 3H9C8.73478 3 8.48043 3.10536 8.29289 3.29289C8.10536 3.48043 8 3.73478 8 4V6H10C10.8001 6.00116 11.5882 6.1943 12.2981 6.5632C13.0081 6.9321 13.6192 7.46598 14.08 8.12C15.2467 8.37766 16.2826 9.04458 17 10V7H18C18.2652 7 18.5196 7.10536 18.7071 7.29289C18.8946 7.48043 19 7.73478 19 8V10C19 10.2652 19.1054 10.5196 19.2929 10.7071C19.4804 10.8946 19.7348 11 20 11C20.2652 11 20.5196 10.8946 20.7071 10.7071C20.8946 10.5196 21 10.2652 21 10V8C21 7.20435 20.6839 6.44129 20.1213 5.87868C19.5587 5.31607 18.7956 5 18 5ZM13 10H12.82C12.6137 9.41645 12.2319 8.911 11.7271 8.55294C11.2222 8.19488 10.6189 8.00174 10 8H4C3.73478 8 3.48043 8.10536 3.29289 8.29289C3.10536 8.48043 3 8.73478 3 9V15C3 15.2652 3.10536 15.5196 3.29289 15.7071C3.48043 15.8946 3.73478 16 4 16H9.5C9.89782 16 10.2794 16.158 10.5607 16.4393C10.842 16.7206 11 17.1022 11 17.5V20C11 20.2652 11.1054 20.5196 11.2929 20.7071C11.4804 20.8946 11.7348 21 12 21C12.2652 21 12.5196 20.8946 12.7071 20.7071C12.8946 20.5196 13 20.2652 13 20V12C13.2652 12 13.5196 12.1054 13.7071 12.2929C13.8946 12.4804 14 12.7348 14 13V15C14 15.2652 14.1054 15.5196 14.2929 15.7071C14.4804 15.8946 14.7348 16 15 16C15.2652 16 15.5196 15.8946 15.7071 15.7071C15.8946 15.5196 16 15.2652 16 15V13C16 12.2044 15.6839 11.4413 15.1213 10.8787C14.5587 10.3161 13.7956 10 13 10ZM9.5 17H4V18C4 18.2652 4.10536 18.5196 4.29289 18.7071C4.48043 18.8946 4.73478 19 5 19C5.26522 19 5.51957 18.8946 5.70711 18.7071C5.89464 18.5196 6 18.2652 6 18V19C6 19.2652 6.10536 19.5196 6.29289 19.7071C6.48043 19.8946 6.73478 20 7 20C7.26522 20 7.51957 19.8946 7.70711 19.7071C7.89464 19.5196 8 19.2652 8 19V18C8 18.2652 8.10536 18.5196 8.29289 18.7071C8.48043 18.8946 8.73478 19 9 19C9.26522 19 9.51957 18.8946 9.70711 18.7071C9.89464 18.5196 10 18.2652 10 18V17.5C10 17.3674 9.94732 17.2402 9.85355 17.1464C9.75979 17.0527 9.63261 17 9.5 17Z" fill="currentColor"/>
  </symbol>
  <symbol id="ic_cow_profile" viewBox="0 0 24 24">
    <path d="M14 15H10C9.20435 15 8.44129 15.3161 7.87868 15.8787C7.31607 16.4413 7 17.2044 7 18C7 18.7957 7.31607 19.5588 7.87868 20.1214C8.44129 20.684 9.20435 21 10 21H14C14.7957 21 15.5587 20.684 16.1213 20.1214C16.6839 19.5588 17 18.7957 17 18C17 17.2044 16.6839 16.4413 16.1213 15.8787C15.5587 15.3161 14.7957 15 14 15ZM18.75 9.00004H18.61C20.032 7.71167 20.8905 5.9158 21 4.00004C21.0005 3.78554 20.932 3.57657 20.8046 3.40398C20.6772 3.2314 20.4977 3.10434 20.2926 3.04157C20.0875 2.97881 19.8676 2.98366 19.6655 3.05541C19.4634 3.12716 19.2896 3.26201 19.17 3.44004C18.479 4.41836 17.6388 5.2822 16.68 6.00004C15.9266 5.37134 14.9811 5.01857 14 5.00004H10C9.01888 5.01857 8.07345 5.37134 7.32 6.00004C6.36122 5.2822 5.521 4.41836 4.83 3.44004C4.71036 3.26201 4.53665 3.12716 4.3345 3.05541C4.13236 2.98366 3.9125 2.97881 3.70738 3.04157C3.50227 3.10434 3.32278 3.2314 3.1954 3.40398C3.06803 3.57657 2.99952 3.78554 3 4.00004C3.10954 5.9158 3.96796 7.71167 5.39 9.00004H5.25C4.65327 9.00004 4.08097 9.2371 3.65901 9.65905C3.23706 10.081 3 10.6533 3 11.25C3.00259 11.4481 3.08244 11.6374 3.22254 11.7775C3.36263 11.9176 3.5519 11.9975 3.75 12H5.25C5.62891 11.9976 6.00082 11.8977 6.33 11.71C6.33 11.85 6.4 11.99 6.44 12.13C6.61574 12.7875 6.74934 13.4555 6.84 14.13C7.7317 13.4006 8.84794 13.0014 10 13H14C15.1545 13.007 16.271 13.4134 17.16 14.15C17.2507 13.4755 17.3843 12.8075 17.56 12.15C17.56 12.01 17.63 11.87 17.67 11.73C17.9992 11.9177 18.3711 12.0176 18.75 12.02H20.25C20.4481 12.0175 20.6374 11.9376 20.7775 11.7975C20.9176 11.6574 20.9974 11.4682 21 11.27C21.0026 10.9729 20.9464 10.6782 20.8345 10.4029C20.7226 10.1276 20.5573 9.87716 20.3481 9.66611C20.1389 9.45505 19.89 9.28753 19.6157 9.17321C19.3414 9.05889 19.0472 9.00003 18.75 9.00004ZM9 11C8.80222 11 8.60888 10.9414 8.44443 10.8315C8.27998 10.7216 8.15181 10.5655 8.07612 10.3827C8.00044 10.2 7.98063 9.99893 8.01922 9.80495C8.0578 9.61097 8.15304 9.43279 8.2929 9.29294C8.43275 9.15308 8.61093 9.05784 8.80491 9.01926C8.99889 8.98067 9.19996 9.00048 9.38269 9.07616C9.56541 9.15185 9.72159 9.28002 9.83147 9.44447C9.94135 9.60892 10 9.80226 10 10C10 10.2653 9.89465 10.5196 9.70711 10.7071C9.51957 10.8947 9.26522 11 9 11ZM15 11C14.8022 11 14.6089 10.9414 14.4444 10.8315C14.28 10.7216 14.1518 10.5655 14.0761 10.3827C14.0004 10.2 13.9806 9.99893 14.0192 9.80495C14.0578 9.61097 14.153 9.43279 14.2929 9.29294C14.4327 9.15308 14.6109 9.05784 14.8049 9.01926C14.9989 8.98067 15.2 9.00048 15.3827 9.07616C15.5654 9.15185 15.7216 9.28002 15.8315 9.44447C15.9414 9.60892 16 9.80226 16 10C16 10.2653 15.8946 10.5196 15.7071 10.7071C15.5196 10.8947 15.2652 11 15 11Z" fill="currentColor"/>
  </symbol>
  <symbol id="ic_cow_retired" viewBox="0 0 24 24">
    <path d="M18.75 7.99989H18.66C20.93 6.04989 21 4.22989 21 3.99989C20.999 3.80246 20.9396 3.60974 20.8293 3.44602C20.719 3.2823 20.5626 3.15491 20.38 3.07989C20.1979 3.00331 19.9972 2.98238 19.8032 3.01976C19.6092 3.05713 19.4306 3.15113 19.29 3.28989C18.445 4.0813 17.4963 4.75413 16.47 5.28989C15.4993 4.46818 14.2718 4.01184 13 3.99989H11C9.7295 4.00903 8.50212 4.46179 7.53001 5.27989C6.5037 4.74413 5.55501 4.0713 4.71001 3.27989C4.56939 3.14113 4.39082 3.04713 4.19683 3.00976C4.00284 2.97238 3.80212 2.99331 3.62001 3.06989C3.43582 3.14555 3.27841 3.27449 3.16795 3.44018C3.05749 3.60586 2.99902 3.80076 3.00001 3.99989C3.00001 4.22989 3.07001 6.04989 5.34001 7.99989H5.25001C4.65328 7.99989 4.08098 8.23694 3.65902 8.6589C3.23707 9.08085 3.00001 9.65315 3.00001 10.2499C3.0026 10.448 3.08245 10.6373 3.22255 10.7774C3.36264 10.9174 3.55191 10.9973 3.75001 10.9999H5.25001C5.50642 10.999 5.76054 10.9515 6.00001 10.8599V13.9999C6.86273 13.3455 7.91722 12.994 9.00001 12.9999H15C16.0828 12.994 17.1373 13.3455 18 13.9999V10.8599C18.2395 10.9515 18.4936 10.999 18.75 10.9999H20.25C20.4481 10.9973 20.6374 10.9174 20.7775 10.7774C20.9176 10.6373 20.9974 10.448 21 10.2499C21 9.65315 20.763 9.08085 20.341 8.6589C19.919 8.23694 19.3468 7.99989 18.75 7.99989ZM9.00001 10.9999C8.80223 10.9999 8.60889 10.9412 8.44444 10.8314C8.27999 10.7215 8.15182 10.5653 8.07613 10.3826C8.00045 10.1998 7.98064 9.99878 8.01923 9.8048C8.05781 9.61081 8.15305 9.43263 8.29291 9.29278C8.43276 9.15293 8.61094 9.05769 8.80492 9.0191C8.9989 8.98052 9.19997 9.00032 9.3827 9.07601C9.56542 9.15169 9.7216 9.27987 9.83148 9.44431C9.94136 9.60876 10 9.8021 10 9.99989C10 10.2651 9.89466 10.5195 9.70712 10.707C9.51958 10.8945 9.26523 10.9999 9.00001 10.9999ZM15 10.9999C14.8022 10.9999 14.6089 10.9412 14.4444 10.8314C14.28 10.7215 14.1518 10.5653 14.0761 10.3826C14.0004 10.1998 13.9806 9.99878 14.0192 9.8048C14.0578 9.61081 14.1531 9.43263 14.2929 9.29278C14.4328 9.15293 14.6109 9.05769 14.8049 9.0191C14.9989 8.98052 15.2 9.00032 15.3827 9.07601C15.5654 9.15169 15.7216 9.27987 15.8315 9.44431C15.9414 9.60876 16 9.8021 16 9.99989C16 10.2651 15.8947 10.5195 15.7071 10.707C15.5196 10.8945 15.2652 10.9999 15 10.9999ZM15 14.9999H9.00001C8.20436 14.9999 7.4413 15.316 6.87869 15.8786C6.31608 16.4412 6.00001 17.2042 6.00001 17.9999C6.00001 18.7955 6.31608 19.5586 6.87869 20.1212C7.4413 20.6838 8.20436 20.9999 9.00001 20.9999H15C15.7957 20.9999 16.5587 20.6838 17.1213 20.1212C17.6839 19.5586 18 18.7955 18 17.9999C18 17.2042 17.6839 16.4412 17.1213 15.8786C16.5587 15.316 15.7957 14.9999 15 14.9999Z" fill="currentColor"/>
  </symbol>
</svg>
