<!-- JioGames DLS — page icons (2 icons) -->
<svg xmlns="http://www.w3.org/2000/svg" style="display:none">
  <symbol id="ic_page_flip" viewBox="0 0 24 24">
    <path d="M15.66 6.61016L5.66 3.11016C5.35796 3.00478 5.03504 2.9734 4.71836 3.01864C4.40167 3.06388 4.10046 3.18442 3.84 3.37016C3.58014 3.55517 3.36831 3.79966 3.22219 4.08321C3.07606 4.36677 2.99988 4.68116 3 5.00016V15.5002C2.99958 15.9153 3.12835 16.3203 3.36846 16.6589C3.60857 16.9976 3.94811 17.2532 4.34 17.3902L14.34 20.8902C14.5528 20.9615 14.7756 20.9987 15 21.0002C15.4157 21.0004 15.8212 20.8711 16.16 20.6302C16.4199 20.4451 16.6317 20.2007 16.7778 19.9171C16.9239 19.6335 17.0001 19.3191 17 19.0002V8.50016C17.0004 8.08501 16.8717 7.68003 16.6315 7.34136C16.3914 7.0027 16.0519 6.74715 15.66 6.61016ZM20 10.0002C19.7348 10.0002 19.4804 10.1055 19.2929 10.293C19.1054 10.4806 19 10.7349 19 11.0002V19.0002C19 19.2654 19.1054 19.5197 19.2929 19.7073C19.4804 19.8948 19.7348 20.0002 20 20.0002C20.2652 20.0002 20.5196 19.8948 20.7071 19.7073C20.8946 19.5197 21 19.2654 21 19.0002V11.0002C21 10.7349 20.8946 10.4806 20.7071 10.293C20.5196 10.1055 20.2652 10.0002 20 10.0002Z" fill="currentColor"/>
  </symbol>
  <symbol id="ic_page_settings" viewBox="0 0 24 24">
    <path d="M21.12 3.88C20.56 3.32 19.79 3 19 3H5C4.2 3 3.44 3.32 2.88 3.88C2.32 4.44 2 5.21 2 6V18C2 18.8 2.32 19.56 2.88 20.12C3.44 20.68 4.21 21 5 21H19C19.8 21 20.56 20.68 21.12 20.12C21.68 19.56 22 18.79 22 18V6C22 5.2 21.68 4.44 21.12 3.88ZM10.29 5.29C10.48 5.1 10.73 5 11 5C11.2 5 11.39 5.06 11.56 5.17C11.73 5.28 11.85 5.44 11.93 5.62C12.01 5.8 12.03 6 11.99 6.2C11.95 6.4 11.86 6.57 11.72 6.71C11.58 6.85 11.4 6.95 11.21 6.98C11.02 7.02 10.81 7 10.63 6.92C10.45 6.84 10.29 6.72 10.18 6.55C10.07 6.39 10.01 6.19 10.01 5.99C10.01 5.72 10.12 5.47 10.3 5.28L10.29 5.29ZM5.98 6.19C5.94 6.38 5.85 6.56 5.71 6.7C5.57 6.84 5.39 6.94 5.2 6.97C5.01 7.01 4.8 6.99 4.62 6.91C4.44 6.83 4.28 6.71 4.17 6.54C4.06 6.38 4 6.18 4 5.98C4 5.71 4.11 5.46 4.29 5.27C4.48 5.08 4.73 4.98 5 4.98C5.2 4.98 5.39 5.04 5.56 5.15C5.72 5.26 5.85 5.42 5.93 5.6C6.01 5.78 6.03 5.98 5.99 6.18L5.98 6.19ZM7 5.99C7 5.72 7.11 5.47 7.29 5.28C7.48 5.09 7.73 4.99 8 4.99C8.2 4.99 8.39 5.05 8.56 5.16C8.73 5.27 8.85 5.43 8.93 5.61C9.01 5.79 9.03 5.99 8.99 6.19C8.95 6.39 8.86 6.56 8.72 6.7C8.58 6.84 8.4 6.94 8.21 6.97C8.02 7.01 7.81 6.99 7.63 6.91C7.45 6.83 7.29 6.71 7.18 6.54C7.07 6.38 7.01 6.18 7.01 5.98L7 5.99ZM16 13.99C16 14.18 15.97 14.36 15.94 14.54L16.21 14.7C16.69 14.98 16.85 15.59 16.58 16.07L16.08 16.94C15.8 17.42 15.19 17.58 14.71 17.31L14.44 17.15C14.15 17.38 13.84 17.57 13.5 17.71V18.01C13.5 18.56 13.05 19.01 12.5 19.01H11.5C10.95 19.01 10.5 18.56 10.5 18.01V17.71C10.16 17.57 9.84 17.38 9.56 17.15L9.29 17.31C8.81 17.59 8.2 17.42 7.92 16.94L7.42 16.07C7.14 15.59 7.31 14.98 7.79 14.7L8.06 14.54C8.04 14.36 8 14.18 8 13.99C8 13.8 8.03 13.62 8.06 13.44L7.79 13.28C7.31 13 7.15 12.39 7.42 11.91L7.92 11.04C8.2 10.56 8.81 10.4 9.29 10.67L9.56 10.83C9.85 10.6 10.16 10.41 10.5 10.27V9.97C10.5 9.42 10.95 8.97 11.5 8.97H12.5C13.05 8.97 13.5 9.42 13.5 9.97V10.27C13.84 10.41 14.16 10.6 14.44 10.83L14.71 10.67C15.19 10.39 15.8 10.56 16.08 11.04L16.58 11.91C16.86 12.39 16.69 13 16.21 13.28L15.94 13.44C15.96 13.62 16 13.8 16 13.99ZM12 11.99C10.9 11.99 10 12.89 10 13.99C10 15.09 10.9 15.99 12 15.99C13.1 15.99 14 15.09 14 13.99C14 12.89 13.1 11.99 12 11.99Z" fill="currentColor"/>
  </symbol>
</svg>
