<!-- JioGames DLS — parental icons (3 icons) -->
<svg xmlns="http://www.w3.org/2000/svg" style="display:none">
  <symbol id="ic_parental_control_phone" viewBox="0 0 24 24">
    <path d="M19 5.28V5C19 4.20435 18.6839 3.44129 18.1213 2.87868C17.5587 2.31607 16.7956 2 16 2C15.2044 2 14.4413 2.31607 13.8787 2.87868C13.3161 3.44129 13 4.20435 13 5V5.27C12.6963 5.44536 12.444 5.69752 12.2685 6.00116C12.0929 6.30481 12.0004 6.64927 12 7V11C12 11.5304 12.2107 12.0391 12.5858 12.4142C12.9609 12.7893 13.4696 13 14 13H18C18.5304 13 19.0391 12.7893 19.4142 12.4142C19.7893 12.0391 20 11.5304 20 11V7C19.9979 6.65097 19.9045 6.30857 19.7291 6.00683C19.5536 5.70509 19.3023 5.45451 19 5.28ZM16 10C15.8022 10 15.6089 9.94135 15.4444 9.83147C15.28 9.72159 15.1518 9.56541 15.0761 9.38268C15.0004 9.19996 14.9806 8.99889 15.0192 8.80491C15.0578 8.61093 15.153 8.43275 15.2929 8.29289C15.4327 8.15304 15.6109 8.0578 15.8049 8.01921C15.9989 7.98063 16.2 8.00043 16.3827 8.07612C16.5654 8.15181 16.7216 8.27998 16.8315 8.44443C16.9414 8.60888 17 8.80222 17 9C17 9.26522 16.8946 9.51957 16.7071 9.70711C16.5196 9.89464 16.2652 10 16 10ZM15 5C15 4.73478 15.1054 4.48043 15.2929 4.29289C15.4804 4.10536 15.7348 4 16 4C16.2652 4 16.5196 4.10536 16.7071 4.29289C16.8946 4.48043 17 4.73478 17 5H15ZM10 11V6C9.99666 4.52129 10.5459 3.09469 11.54 2H9C8.20435 2 7.44129 2.31607 6.87868 2.87868C6.31607 3.44129 6 4.20435 6 5V19C6 19.7956 6.31607 20.5587 6.87868 21.1213C7.44129 21.6839 8.20435 22 9 22H15C15.7956 22 16.5587 21.6839 17.1213 21.1213C17.6839 20.5587 18 19.7956 18 19V15H14C12.9391 15 11.9217 14.5786 11.1716 13.8284C10.4214 13.0783 10 12.0609 10 11ZM12 20C11.8022 20 11.6089 19.9414 11.4444 19.8315C11.28 19.7216 11.1518 19.5654 11.0761 19.3827C11.0004 19.2 10.9806 18.9989 11.0192 18.8049C11.0578 18.6109 11.153 18.4327 11.2929 18.2929C11.4327 18.153 11.6109 18.0578 11.8049 18.0192C11.9989 17.9806 12.2 18.0004 12.3827 18.0761C12.5654 18.1518 12.7216 18.28 12.8315 18.4444C12.9414 18.6089 13 18.8022 13 19C13 19.2652 12.8946 19.5196 12.7071 19.7071C12.5196 19.8946 12.2652 20 12 20Z" fill="currentColor"/>
  </symbol>
  <symbol id="ic_parental_control_shield" viewBox="0 0 24 24">
    <path d="M19.852 4.662H19.863C19.533 4.266 19.093 4.035 18.62 3.991C16.486 3.771 14.418 3.155 12.493 2.187C12.251 2.055 11.965 2 11.701 2C11.437 2 11.151 2.055 10.909 2.187C8.995 3.155 6.938 3.771 4.815 3.991C4.342 4.035 3.869 4.255 3.55 4.618C3.209 4.981 3.011 5.454 3 5.971V10.921C3 17.587 9.523 21.8 11.69 21.8C13.857 21.8 20.38 17.598 20.38 10.921V5.971C20.38 5.498 20.182 5.014 19.852 4.662ZM13.934 11.416C13.989 11.229 14.088 11.053 14.22 10.91C14.352 10.767 14.528 10.668 14.726 10.624C14.913 10.569 15.111 10.58 15.298 10.624C15.485 10.679 15.65 10.767 15.782 10.91C15.914 11.042 16.013 11.207 16.068 11.394C16.123 11.581 16.123 11.779 16.068 11.966C16.013 12.153 15.914 12.329 15.782 12.472C15.639 12.615 15.474 12.714 15.276 12.758C15.089 12.813 14.891 12.802 14.704 12.758C14.517 12.703 14.352 12.615 14.22 12.472C14.088 12.34 13.989 12.175 13.934 11.988C13.879 11.801 13.879 11.614 13.934 11.416ZM7.895 8.05C7.994 7.676 8.192 7.324 8.467 7.049C8.742 6.774 9.094 6.576 9.468 6.477C9.842 6.378 10.249 6.378 10.623 6.477C10.986 6.576 11.316 6.774 11.591 7.038C11.855 7.302 12.053 7.643 12.152 8.006C12.262 8.38 12.262 8.787 12.152 9.161C12.053 9.535 11.855 9.887 11.58 10.162C11.305 10.437 10.953 10.635 10.579 10.734C10.205 10.833 9.798 10.833 9.424 10.734C9.061 10.635 8.731 10.437 8.456 10.173C8.181 9.909 7.994 9.568 7.895 9.205C7.785 8.831 7.785 8.424 7.895 8.05ZM17.036 16.135C16.926 16.245 16.783 16.3 16.629 16.3H7.136C6.883 16.3 6.641 16.201 6.454 16.014C6.278 15.838 6.168 15.585 6.168 15.332C6.168 14.309 6.575 13.341 7.29 12.615C8.005 11.9 8.984 11.493 10.007 11.493C11.03 11.493 11.998 11.9 12.724 12.615C13.076 12.967 13.351 13.385 13.538 13.836C13.934 13.561 14.396 13.396 14.88 13.396C15.496 13.396 16.079 13.638 16.519 14.078C16.959 14.518 17.201 15.101 17.201 15.717C17.201 15.871 17.135 16.025 17.036 16.135Z" fill="currentColor"/>
  </symbol>
  <symbol id="ic_parental_control_web" viewBox="0 0 24 24">
    <path d="M16 16C14.9391 16 13.9217 15.5786 13.1716 14.8284C12.4214 14.0783 12 13.0609 12 12V11H2V17C2 17.7956 2.31607 18.5587 2.87868 19.1213C3.44129 19.6839 4.20435 20 5 20H19C19.7956 20 20.5587 19.6839 21.1213 19.1213C21.6839 18.5587 22 17.7956 22 17V15.45C21.3933 15.806 20.7034 15.9957 20 16H16ZM12 7C12.0019 5.94622 12.2812 4.91152 12.81 4H5C4.20435 4 3.44129 4.31607 2.87868 4.87868C2.31607 5.44129 2 6.20435 2 7V9H12V7ZM5 8C4.80222 8 4.60888 7.94135 4.44443 7.83147C4.27998 7.72159 4.15181 7.56541 4.07612 7.38268C4.00043 7.19996 3.98063 6.99889 4.01921 6.80491C4.0578 6.61093 4.15304 6.43275 4.29289 6.29289C4.43275 6.15304 4.61093 6.0578 4.80491 6.01921C4.99889 5.98063 5.19996 6.00043 5.38268 6.07612C5.56541 6.15181 5.72159 6.27998 5.83147 6.44443C5.94135 6.60888 6 6.80222 6 7C6 7.26522 5.89464 7.51957 5.70711 7.70711C5.51957 7.89464 5.26522 8 5 8ZM8 8C7.80222 8 7.60888 7.94135 7.44443 7.83147C7.27998 7.72159 7.15181 7.56541 7.07612 7.38268C7.00043 7.19996 6.98063 6.99889 7.01921 6.80491C7.0578 6.61093 7.15304 6.43275 7.29289 6.29289C7.43275 6.15304 7.61093 6.0578 7.80491 6.01921C7.99889 5.98063 8.19996 6.00043 8.38268 6.07612C8.56541 6.15181 8.72159 6.27998 8.83147 6.44443C8.94135 6.60888 9 6.80222 9 7C9 7.26522 8.89464 7.51957 8.70711 7.70711C8.51957 7.89464 8.26522 8 8 8ZM21 6.28V6C21 5.20435 20.6839 4.44129 20.1213 3.87868C19.5587 3.31607 18.7956 3 18 3C17.2044 3 16.4413 3.31607 15.8787 3.87868C15.3161 4.44129 15 5.20435 15 6V6.27C14.6963 6.44536 14.444 6.69752 14.2685 7.00116C14.0929 7.30481 14.0004 7.64927 14 8V12C14 12.5304 14.2107 13.0391 14.5858 13.4142C14.9609 13.7893 15.4696 14 16 14H20C20.5304 14 21.0391 13.7893 21.4142 13.4142C21.7893 13.0391 22 12.5304 22 12V8C21.9979 7.65097 21.9045 7.30857 21.7291 7.00683C21.5536 6.70509 21.3023 6.45451 21 6.28ZM18 11C17.8022 11 17.6089 10.9414 17.4444 10.8315C17.28 10.7216 17.1518 10.5654 17.0761 10.3827C17.0004 10.2 16.9806 9.99889 17.0192 9.80491C17.0578 9.61093 17.153 9.43275 17.2929 9.29289C17.4327 9.15304 17.6109 9.0578 17.8049 9.01921C17.9989 8.98063 18.2 9.00043 18.3827 9.07612C18.5654 9.15181 18.7216 9.27998 18.8315 9.44443C18.9414 9.60888 19 9.80222 19 10C19 10.2652 18.8946 10.5196 18.7071 10.7071C18.5196 10.8946 18.2652 11 18 11ZM17 6C17 5.73478 17.1054 5.48043 17.2929 5.29289C17.4804 5.10536 17.7348 5 18 5C18.2652 5 18.5196 5.10536 18.7071 5.29289C18.8946 5.48043 19 5.73478 19 6H17Z" fill="currentColor"/>
  </symbol>
</svg>
