<!-- JioGames DLS — parking icons (2 icons) -->
<svg xmlns="http://www.w3.org/2000/svg" style="display:none">
  <symbol id="ic_parking" viewBox="0 0 24 24">
    <path d="M12 2C10.0222 2 8.08879 2.58649 6.4443 3.6853C4.79981 4.78412 3.51809 6.3459 2.76121 8.17317C2.00433 10.0004 1.8063 12.0111 2.19215 13.9509C2.578 15.8907 3.53041 17.6725 4.92894 19.0711C6.32746 20.4696 8.10929 21.422 10.0491 21.8079C11.9889 22.1937 13.9996 21.9957 15.8268 21.2388C17.6541 20.4819 19.2159 19.2002 20.3147 17.5557C21.4135 15.9112 22 13.9778 22 12C22 10.6868 21.7413 9.38642 21.2388 8.17317C20.7363 6.95991 19.9997 5.85752 19.0711 4.92893C18.1425 4.00035 17.0401 3.26375 15.8268 2.7612C14.6136 2.25866 13.3132 2 12 2ZM13.5 13.5H10.5V15.5C10.5 15.7652 10.3946 16.0196 10.2071 16.2071C10.0196 16.3946 9.76522 16.5 9.5 16.5C9.23479 16.5 8.98043 16.3946 8.7929 16.2071C8.60536 16.0196 8.5 15.7652 8.5 15.5V8.5C8.5 8.23478 8.60536 7.98043 8.7929 7.79289C8.98043 7.60536 9.23479 7.5 9.5 7.5H13.5C14.2957 7.5 15.0587 7.81607 15.6213 8.37868C16.1839 8.94129 16.5 9.70435 16.5 10.5C16.5 11.2956 16.1839 12.0587 15.6213 12.6213C15.0587 13.1839 14.2957 13.5 13.5 13.5Z" fill="currentColor"/>
<path d="M13.5 9.5H10.5V11.5H13.5C13.7652 11.5 14.0196 11.3946 14.2071 11.2071C14.3946 11.0196 14.5 10.7652 14.5 10.5C14.5 10.2348 14.3946 9.98043 14.2071 9.79289C14.0196 9.60536 13.7652 9.5 13.5 9.5Z" fill="currentColor"/>
<path d="M13.5 9.5H10.5V11.5H13.5C13.7652 11.5 14.0196 11.3946 14.2071 11.2071C14.3946 11.0196 14.5 10.7652 14.5 10.5C14.5 10.2348 14.3946 9.98043 14.2071 9.79289C14.0196 9.60536 13.7652 9.5 13.5 9.5ZM12 2C10.0222 2 8.08879 2.58649 6.4443 3.6853C4.79981 4.78412 3.51809 6.3459 2.76121 8.17317C2.00433 10.0004 1.8063 12.0111 2.19215 13.9509C2.578 15.8907 3.53041 17.6725 4.92894 19.0711C6.32746 20.4696 8.10929 21.422 10.0491 21.8079C11.9889 22.1937 13.9996 21.9957 15.8268 21.2388C17.6541 20.4819 19.2159 19.2002 20.3147 17.5557C21.4135 15.9112 22 13.9778 22 12C22 10.6868 21.7413 9.38642 21.2388 8.17317C20.7363 6.95991 19.9997 5.85752 19.0711 4.92893C18.1425 4.00035 17.0401 3.26375 15.8268 2.7612C14.6136 2.25866 13.3132 2 12 2ZM13.5 13.5H10.5V15.5C10.5 15.7652 10.3946 16.0196 10.2071 16.2071C10.0196 16.3946 9.76522 16.5 9.5 16.5C9.23479 16.5 8.98043 16.3946 8.7929 16.2071C8.60536 16.0196 8.5 15.7652 8.5 15.5V8.5C8.5 8.23478 8.60536 7.98043 8.7929 7.79289C8.98043 7.60536 9.23479 7.5 9.5 7.5H13.5C14.2957 7.5 15.0587 7.81607 15.6213 8.37868C16.1839 8.94129 16.5 9.70435 16.5 10.5C16.5 11.2956 16.1839 12.0587 15.6213 12.6213C15.0587 13.1839 14.2957 13.5 13.5 13.5Z" fill="currentColor"/>
  </symbol>
  <symbol id="ic_parking_sensor" viewBox="0 0 24 24">
    <path d="M16.9 9.2H16.2V7.8C16.2 7.06 15.91 6.35 15.38 5.82C14.85 5.29 14.14 5 13.4 5H10.6C9.86003 5 9.15003 5.29 8.62003 5.82C8.09003 6.35 7.80003 7.06 7.80003 7.8V9.2H7.10003C6.91003 9.2 6.74003 9.27 6.61003 9.41C6.48003 9.54 6.41003 9.72 6.41003 9.9C6.41003 10.08 6.48003 10.26 6.61003 10.39C6.74003 10.52 6.92003 10.6 7.10003 10.6H7.80003V16.2C7.80003 16.94 8.09003 17.65 8.62003 18.18C9.15003 18.71 9.86003 19 10.6 19H13.4C14.14 19 14.85 18.71 15.38 18.18C15.91 17.65 16.2 16.94 16.2 16.2V10.6H16.9C17.09 10.6 17.26 10.53 17.39 10.39C17.52 10.26 17.59 10.08 17.59 9.9C17.59 9.72 17.52 9.54 17.39 9.41C17.26 9.28 17.08 9.2 16.9 9.2ZM14.49 16.59C14.29 16.79 14.03 16.9 13.75 16.9H10.25C9.97003 16.9 9.70003 16.79 9.51003 16.59C9.31003 16.39 9.20003 16.13 9.20003 15.85C9.20003 15.76 9.24003 15.67 9.30003 15.6C9.37003 15.53 9.45003 15.5 9.55003 15.5H14.45C14.54 15.5 14.63 15.54 14.7 15.6C14.77 15.67 14.8 15.75 14.8 15.85C14.8 16.13 14.69 16.4 14.49 16.59ZM14.7 11.2C14.63 11.27 14.55 11.3 14.45 11.3H9.55003C9.46003 11.3 9.37003 11.26 9.30003 11.2C9.23003 11.13 9.20003 11.05 9.20003 10.95C9.20003 10.3 9.46003 9.68 9.92003 9.22C10.38 8.76 11 8.5 11.65 8.5H12.35C13 8.5 13.62 8.76 14.08 9.22C14.54 9.68 14.8 10.3 14.8 10.95C14.8 11.04 14.76 11.13 14.7 11.2Z" fill="currentColor"/>
<path d="M20.55 10.2C20.5 10.14 20.4401 10.1 20.3701 10.06C20.3001 10.03 20.23 10.01 20.15 10C20.07 10 20 10 19.92 10.03C19.85 10.06 19.78 10.1 19.73 10.15C19.67 10.2 19.6301 10.27 19.6 10.34C19.57 10.41 19.56 10.49 19.56 10.57C19.56 10.71 19.6101 10.85 19.7001 10.95C20.4501 11.79 20.8601 12.87 20.8601 13.99C20.8601 15.11 20.4501 16.19 19.7001 17.03C19.6 17.14 19.55 17.29 19.55 17.44C19.55 17.59 19.63 17.73 19.74 17.83C19.85 17.93 20 17.98 20.15 17.98C20.3 17.98 20.4401 17.9 20.5401 17.79C21.4801 16.74 21.99 15.39 21.99 13.99C21.99 12.59 21.48 11.24 20.55 10.2Z" fill="currentColor"/>
<path d="M19.02 11.94C18.93 11.82 18.79 11.74 18.64 11.72C18.49 11.7 18.34 11.74 18.22 11.83C18.1 11.92 18.02 12.06 18 12.21C17.98 12.36 18.02 12.51 18.11 12.63C18.4 13.02 18.56 13.5 18.56 13.99C18.56 14.48 18.4 14.96 18.11 15.35C18.06 15.41 18.03 15.48 18.01 15.55C17.99 15.62 17.99 15.7 18 15.77C18.02 15.92 18.1 16.06 18.22 16.15C18.28 16.2 18.35 16.23 18.42 16.25C18.49 16.27 18.57 16.27 18.64 16.26C18.71 16.26 18.79 16.23 18.85 16.19C18.91 16.15 18.97 16.1 19.02 16.04C19.47 15.45 19.71 14.72 19.71 13.98C19.71 13.24 19.47 12.54 19.02 11.94Z" fill="currentColor"/>
<path d="M3.13 14.01C3.13 12.89 3.55 11.8 4.3 10.96C4.39 10.85 4.44 10.72 4.44 10.58C4.44 10.5 4.43 10.42 4.4 10.35C4.37 10.28 4.33 10.21 4.27 10.16C4.21 10.11 4.15 10.07 4.08 10.04C4.01 10.01 3.93 9.99998 3.85 10.01C3.77 10.01 3.7 10.03 3.63 10.07C3.56 10.1 3.5 10.15 3.45 10.21C2.51 11.26 2 12.61 2 14.01C2 15.41 2.52 16.77 3.45 17.81C3.55 17.92 3.69 17.99 3.84 18C3.99 18 4.14 17.96 4.25 17.85C4.36 17.75 4.43 17.61 4.44 17.46C4.44 17.31 4.4 17.16 4.29 17.05C3.54 16.21 3.13 15.13 3.13 14.01Z" fill="currentColor"/>
<path d="M6.00004 12.22C5.98004 12.07 5.90004 11.93 5.78004 11.84C5.66004 11.75 5.51004 11.71 5.36004 11.73C5.21004 11.75 5.07004 11.83 4.98004 11.95C4.53004 12.54 4.29004 13.27 4.29004 14.01C4.29004 14.75 4.53004 15.47 4.98004 16.07C5.03004 16.13 5.08004 16.18 5.15004 16.22C5.21004 16.26 5.29004 16.28 5.36004 16.29C5.43004 16.29 5.51004 16.29 5.58004 16.28C5.65004 16.26 5.72004 16.23 5.78004 16.18C5.90004 16.09 5.98004 15.95 6.00004 15.8C6.00004 15.73 6.00004 15.65 5.99004 15.58C5.97004 15.51 5.94004 15.44 5.89004 15.38C5.60004 14.99 5.44004 14.51 5.44004 14.02C5.44004 13.53 5.60004 13.05 5.89004 12.66C5.98004 12.54 6.02004 12.37 6.00004 12.22Z" fill="currentColor"/>
  </symbol>
</svg>
