<!-- JioGames DLS — pay icons (5 icons) -->
<svg xmlns="http://www.w3.org/2000/svg" style="display:none">
  <symbol id="ic_pay_bill" viewBox="0 0 24 24">
    <path d="M17 2H7C6.20435 2 5.44129 2.31607 4.87868 2.87868C4.31607 3.44129 4 4.20435 4 5V19C4 19.7956 4.31607 20.5587 4.87868 21.1213C5.44129 21.6839 6.20435 22 7 22H17C17.7956 22 18.5587 21.6839 19.1213 21.1213C19.6839 20.5587 20 19.7956 20 19V5C20 4.20435 19.6839 3.44129 19.1213 2.87868C18.5587 2.31607 17.7956 2 17 2ZM9.5 6H14.5C14.7652 6 15.0196 6.10536 15.2071 6.29289C15.3946 6.48043 15.5 6.73478 15.5 7C15.5 7.26522 15.3946 7.51957 15.2071 7.70711C15.0196 7.89464 14.7652 8 14.5 8H14.32C14.5275 8.58319 14.5494 9.21627 14.383 9.81245C14.2165 10.4086 13.8696 10.9387 13.39 11.33L14.95 12.11C15.1855 12.2299 15.364 12.4381 15.4465 12.6892C15.5289 12.9403 15.5086 13.2138 15.39 13.45C15.3069 13.6149 15.1798 13.7536 15.0227 13.8507C14.8656 13.9478 14.6847 13.9994 14.5 14C14.3431 14.0019 14.1883 13.964 14.05 13.89L10.05 11.89C9.8507 11.7879 9.69144 11.6219 9.59772 11.4185C9.504 11.2151 9.48125 10.9862 9.53312 10.7684C9.58499 10.5505 9.70846 10.3564 9.88377 10.2171C10.0591 10.0778 10.2761 10.0013 10.5 10H11.5C11.7652 10 12.0196 9.89464 12.2071 9.70711C12.3946 9.51957 12.5 9.26522 12.5 9C12.5 8.73478 12.3946 8.48043 12.2071 8.29289C12.0196 8.10536 11.7652 8 11.5 8H9.5C9.23478 8 8.98043 7.89464 8.79289 7.70711C8.60536 7.51957 8.5 7.26522 8.5 7C8.5 6.73478 8.60536 6.48043 8.79289 6.29289C8.98043 6.10536 9.23478 6 9.5 6ZM15 19H9C8.73478 19 8.48043 18.8946 8.29289 18.7071C8.10536 18.5196 8 18.2652 8 18C8 17.7348 8.10536 17.4804 8.29289 17.2929C8.48043 17.1054 8.73478 17 9 17H15C15.2652 17 15.5196 17.1054 15.7071 17.2929C15.8946 17.4804 16 17.7348 16 18C16 18.2652 15.8946 18.5196 15.7071 18.7071C15.5196 18.8946 15.2652 19 15 19Z" fill="currentColor"/>
  </symbol>
  <symbol id="ic_pay_emi_install" viewBox="0 0 24 24">
    <path d="M11.68 12.46L8.55 10.89C8.3507 10.7879 8.19144 10.6219 8.09772 10.4185C8.004 10.2151 7.98125 9.9862 8.03312 9.76836C8.08499 9.55053 8.20846 9.3564 8.38377 9.21709C8.55908 9.07777 8.77608 9.00133 9 9H10C10.2652 9 10.5196 8.89464 10.7071 8.70711C10.8946 8.51957 11 8.26522 11 8C11 7.73478 10.8946 7.48043 10.7071 7.29289C10.5196 7.10536 10.2652 7 10 7H8C7.73478 7 7.48043 6.89464 7.29289 6.70711C7.10536 6.51957 7 6.26522 7 6C7 5.73478 7.10536 5.48043 7.29289 5.29289C7.48043 5.10536 7.73478 5 8 5H13C13.2652 5 13.5196 5.10536 13.7071 5.29289C13.8946 5.48043 14 5.73478 14 6C14 6.26522 13.8946 6.51957 13.7071 6.70711C13.5196 6.89464 13.2652 7 13 7H12.82C13.0275 7.58319 13.0494 8.21627 12.883 8.81245C12.7165 9.40862 12.3696 9.9387 11.89 10.33L13.33 11.05C14.3212 10.433 15.4519 10.0757 16.6176 10.0111C17.7834 9.9464 18.9466 10.1765 20 10.68V5C20 4.20435 19.6839 3.44129 19.1213 2.87868C18.5587 2.31607 17.7956 2 17 2H7C6.20435 2 5.44129 2.31607 4.87868 2.87868C4.31607 3.44129 4 4.20435 4 5V19C4 19.7956 4.31607 20.5587 4.87868 21.1213C5.44129 21.6839 6.20435 22 7 22H12.11C10.8439 20.7597 10.0954 19.0853 10.0156 17.3147C9.93578 15.5441 10.5306 13.8092 11.68 12.46ZM17 12C16.0111 12 15.0444 12.2932 14.2221 12.8427C13.3999 13.3921 12.759 14.173 12.3806 15.0866C12.0022 16.0002 11.9031 17.0055 12.0961 17.9755C12.289 18.9454 12.7652 19.8363 13.4645 20.5355C14.1637 21.2348 15.0546 21.711 16.0245 21.9039C16.9945 22.0969 17.9998 21.9978 18.9134 21.6194C19.827 21.241 20.6079 20.6001 21.1573 19.7779C21.7068 18.9556 22 17.9889 22 17C22 15.6739 21.4732 14.4021 20.5355 13.4645C19.5979 12.5268 18.3261 12 17 12ZM18.5 18C18.5 18.2652 18.3946 18.5196 18.2071 18.7071C18.0196 18.8946 17.7652 19 17.5 19H15.5C15.2348 19 14.9804 18.8946 14.7929 18.7071C14.6054 18.5196 14.5 18.2652 14.5 18C14.5 17.7348 14.6054 17.4804 14.7929 17.2929C14.9804 17.1054 15.2348 17 15.5 17H16.5V15.5C16.5 15.2348 16.6054 14.9804 16.7929 14.7929C16.9804 14.6054 17.2348 14.5 17.5 14.5C17.7652 14.5 18.0196 14.6054 18.2071 14.7929C18.3946 14.9804 18.5 15.2348 18.5 15.5V18Z" fill="currentColor"/>
  </symbol>
  <symbol id="ic_pay_friend" viewBox="0 0 24 24">
    <path d="M19 5H5C4.20435 5 3.44129 5.31607 2.87868 5.87868C2.31607 6.44129 2 7.20435 2 8V16C2 16.7956 2.31607 17.5587 2.87868 18.1213C3.44129 18.6839 4.20435 19 5 19H19C19.7956 19 20.5587 18.6839 21.1213 18.1213C21.6839 17.5587 22 16.7956 22 16V8C22 7.20435 21.6839 6.44129 21.1213 5.87868C20.5587 5.31607 19.7956 5 19 5ZM8 8C8.29667 8 8.58668 8.08797 8.83335 8.2528C9.08003 8.41762 9.27229 8.65189 9.38582 8.92597C9.49935 9.20006 9.52906 9.50166 9.47118 9.79264C9.4133 10.0836 9.27044 10.3509 9.06066 10.5607C8.85088 10.7704 8.58361 10.9133 8.29264 10.9712C8.00166 11.0291 7.70006 10.9994 7.42597 10.8858C7.15189 10.7723 6.91762 10.58 6.7528 10.3334C6.58797 10.0867 6.5 9.79667 6.5 9.5C6.5 9.10218 6.65804 8.72064 6.93934 8.43934C7.22064 8.15804 7.60218 8 8 8ZM10 16H6C5.73478 16 5.48043 15.8946 5.29289 15.7071C5.10536 15.5196 5 15.2652 5 15C5 14.2044 5.31607 13.4413 5.87868 12.8787C6.44129 12.3161 7.20435 12 8 12C8.79565 12 9.55871 12.3161 10.1213 12.8787C10.6839 13.4413 11 14.2044 11 15C11 15.2652 10.8946 15.5196 10.7071 15.7071C10.5196 15.8946 10.2652 16 10 16ZM18 10H17.82C18.0275 10.5832 18.0495 11.2163 17.883 11.8124C17.7165 12.4086 17.3696 12.9387 16.89 13.33L18.45 14.11C18.6855 14.2299 18.864 14.4381 18.9465 14.6892C19.0289 14.9403 19.0086 15.2138 18.89 15.45C18.8069 15.6149 18.6798 15.7536 18.5227 15.8507C18.3656 15.9478 18.1847 15.9994 18 16C17.8431 16.0019 17.6883 15.964 17.55 15.89L13.55 13.89C13.3507 13.7879 13.1914 13.6219 13.0977 13.4185C13.004 13.2151 12.9813 12.9862 13.0331 12.7684C13.085 12.5505 13.2085 12.3564 13.3838 12.2171C13.5591 12.0778 13.7761 12.0013 14 12H15C15.2652 12 15.5196 11.8946 15.7071 11.7071C15.8946 11.5196 16 11.2652 16 11C16 10.7348 15.8946 10.4804 15.7071 10.2929C15.5196 10.1054 15.2652 10 15 10H13C12.7348 10 12.4804 9.89464 12.2929 9.70711C12.1054 9.51957 12 9.26522 12 9C12 8.73478 12.1054 8.48043 12.2929 8.29289C12.4804 8.10536 12.7348 8 13 8H18C18.2652 8 18.5196 8.10536 18.7071 8.29289C18.8946 8.48043 19 8.73478 19 9C19 9.26522 18.8946 9.51957 18.7071 9.70711C18.5196 9.89464 18.2652 10 18 10Z" fill="currentColor"/>
  </symbol>
  <symbol id="ic_pay_recurring" viewBox="0 0 24 24">
    <path d="M15.5 9.00006C15.5 8.73484 15.3946 8.48049 15.2071 8.29295C15.0196 8.10542 14.7652 8.00006 14.5 8.00006H9.49998C9.23477 8.00006 8.98041 8.10542 8.79288 8.29295C8.60534 8.48049 8.49998 8.73484 8.49998 9.00006C8.49998 9.26527 8.60534 9.51963 8.79288 9.70716C8.98041 9.8947 9.23477 10.0001 9.49998 10.0001H11.5C11.7652 10.0001 12.0196 10.1054 12.2071 10.293C12.3946 10.4805 12.5 10.7348 12.5 11.0001C12.5 11.2653 12.3946 11.5196 12.2071 11.7072C12.0196 11.8947 11.7652 12.0001 11.5 12.0001H10.5C10.2761 12.0014 10.0591 12.0778 9.88376 12.2171C9.70845 12.3565 9.58497 12.5506 9.5331 12.7684C9.48124 12.9863 9.50399 13.2152 9.59771 13.4186C9.69142 13.6219 9.85069 13.788 10.05 13.8901L14.05 15.8901C14.1883 15.9641 14.3431 16.0019 14.5 16.0001C14.6847 15.9995 14.8656 15.9478 15.0226 15.8507C15.1797 15.7537 15.3069 15.615 15.39 15.4501C15.5125 15.2199 15.5402 14.9511 15.4674 14.7008C15.3945 14.4505 15.2268 14.2385 15 14.1101L13.44 13.3301C13.9109 12.9326 14.248 12.3997 14.4055 11.8039C14.5629 11.2081 14.5331 10.5783 14.32 10.0001H14.5C14.7652 10.0001 15.0196 9.8947 15.2071 9.70716C15.3946 9.51963 15.5 9.26527 15.5 9.00006ZM12 2.00006C10.6868 2.00006 9.38641 2.25872 8.17315 2.76126C6.95989 3.26381 5.8575 4.0004 4.92892 4.92899C3.05355 6.80435 1.99998 9.34789 1.99998 12.0001C1.99809 12.3745 2.02147 12.7487 2.06998 13.1201C2.10181 13.3853 2.23769 13.627 2.44773 13.792C2.65777 13.9571 2.92477 14.0319 3.18999 14.0001C3.4552 13.9682 3.69691 13.8324 3.86194 13.6223C4.02698 13.4123 4.10181 13.1453 4.06999 12.8801C4.03141 12.5881 4.00804 12.2944 3.99998 12.0001C3.99566 10.1711 4.61813 8.39597 5.76369 6.97027C6.90924 5.54457 8.50872 4.55442 10.2957 4.16479C12.0826 3.77516 13.9491 4.00957 15.5842 4.82897C17.2192 5.64837 18.5242 7.00328 19.2816 8.66798C20.0391 10.3327 20.2033 12.2066 19.7468 13.9777C19.2904 15.7487 18.2409 17.3099 16.7732 18.4011C15.3055 19.4924 13.5082 20.0478 11.6807 19.9748C9.85328 19.9018 8.106 19.2048 6.72998 18.0001H7.49998C7.7652 18.0001 8.01956 17.8947 8.20709 17.7072C8.39463 17.5196 8.49998 17.2653 8.49998 17.0001C8.49998 16.7348 8.39463 16.4805 8.20709 16.293C8.01956 16.1054 7.7652 16.0001 7.49998 16.0001H4.49998C4.23477 16.0001 3.98041 16.1054 3.79288 16.293C3.60534 16.4805 3.49998 16.7348 3.49998 17.0001V20.0001C3.49998 20.2653 3.60534 20.5196 3.79288 20.7072C3.98041 20.8947 4.23477 21.0001 4.49998 21.0001C4.7652 21.0001 5.01956 20.8947 5.20709 20.7072C5.39463 20.5196 5.49998 20.2653 5.49998 20.0001V19.5701C6.72251 20.6253 8.18241 21.3687 9.75485 21.7368C11.3273 22.1049 12.9655 22.0867 14.5293 21.6837C16.0932 21.2807 17.5362 20.505 18.7349 19.4228C19.9337 18.3407 20.8525 16.9843 21.4128 15.4697C21.9732 13.955 22.1583 12.3273 21.9525 10.7255C21.7467 9.1237 21.156 7.59561 20.2309 6.27186C19.3059 4.94811 18.074 3.8681 16.6406 3.12418C15.2072 2.38025 13.6149 1.99455 12 2.00006Z" fill="currentColor"/>
  </symbol>
  <symbol id="ic_pay_schedule" viewBox="0 0 24 24">
    <path d="M20.12 3.88C19.5579 3.31723 18.7954 3.0007 18 3H17C17 2.73478 16.8946 2.48043 16.7071 2.29289C16.5196 2.10536 16.2652 2 16 2C15.7348 2 15.4804 2.10536 15.2929 2.29289C15.1054 2.48043 15 2.73478 15 3H9C9 2.73478 8.89464 2.48043 8.70711 2.29289C8.51957 2.10536 8.26522 2 8 2C7.73478 2 7.48043 2.10536 7.29289 2.29289C7.10536 2.48043 7 2.73478 7 3H6C5.20435 3 4.44129 3.31607 3.87868 3.87868C3.31607 4.44129 3 5.20435 3 6V18C3 18.7956 3.31607 19.5587 3.87868 20.1213C4.44129 20.6839 5.20435 21 6 21H18C18.7956 21 19.5587 20.6839 20.1213 20.1213C20.6839 19.5587 21 18.7956 21 18V6C20.9993 5.20462 20.6828 4.44207 20.12 3.88ZM14.5 13C14.5 13.4465 14.4004 13.8874 14.2084 14.2905C14.0163 14.6936 13.7367 15.0487 13.39 15.33L14.95 16.11C15.1855 16.2299 15.364 16.4381 15.4465 16.6892C15.5289 16.9403 15.5086 17.2138 15.39 17.45C15.3069 17.6149 15.1798 17.7536 15.0227 17.8507C14.8656 17.9478 14.6847 17.9994 14.5 18C14.3431 18.0019 14.1883 17.964 14.05 17.89L10.05 15.89C9.8507 15.7879 9.69144 15.6219 9.59772 15.4185C9.504 15.2151 9.48125 14.9862 9.53312 14.7684C9.58499 14.5505 9.70846 14.3564 9.88377 14.2171C10.0591 14.0778 10.2761 14.0013 10.5 14H11.5C11.7652 14 12.0196 13.8946 12.2071 13.7071C12.3946 13.5196 12.5 13.2652 12.5 13C12.5 12.7348 12.3946 12.4804 12.2071 12.2929C12.0196 12.1054 11.7652 12 11.5 12H9.5C9.23478 12 8.98043 11.8946 8.79289 11.7071C8.60536 11.5196 8.5 11.2652 8.5 11C8.5 10.7348 8.60536 10.4804 8.79289 10.2929C8.98043 10.1054 9.23478 10 9.5 10H14.5C14.7652 10 15.0196 10.1054 15.2071 10.2929C15.3946 10.4804 15.5 10.7348 15.5 11C15.5 11.2652 15.3946 11.5196 15.2071 11.7071C15.0196 11.8946 14.7652 12 14.5 12H14.32C14.4364 12.3207 14.4973 12.6589 14.5 13ZM19 7H5V6C5 5.73478 5.10536 5.48043 5.29289 5.29289C5.48043 5.10536 5.73478 5 6 5H7C7 5.26522 7.10536 5.51957 7.29289 5.70711C7.48043 5.89464 7.73478 6 8 6C8.26522 6 8.51957 5.89464 8.70711 5.70711C8.89464 5.51957 9 5.26522 9 5H15C15 5.26522 15.1054 5.51957 15.2929 5.70711C15.4804 5.89464 15.7348 6 16 6C16.2652 6 16.5196 5.89464 16.7071 5.70711C16.8946 5.51957 17 5.26522 17 5H18C18.2652 5 18.5196 5.10536 18.7071 5.29289C18.8946 5.48043 19 5.73478 19 6V7Z" fill="currentColor"/>
  </symbol>
</svg>
