<!-- JioGames DLS — payment icons (2 icons) -->
<svg xmlns="http://www.w3.org/2000/svg" style="display:none">
  <symbol id="ic_payment" viewBox="0 0 24 24">
    <path d="M18 3H6C5.20435 3 4.44129 3.31607 3.87868 3.87868C3.31607 4.44129 3 5.20435 3 6V18C3 18.7956 3.31607 19.5587 3.87868 20.1213C4.44129 20.6839 5.20435 21 6 21H18C18.7956 21 19.5587 20.6839 20.1213 20.1213C20.6839 19.5587 21 18.7956 21 18V6C21 5.20435 20.6839 4.44129 20.1213 3.87868C19.5587 3.31607 18.7956 3 18 3ZM14.86 10H16C16.2652 10 16.5196 10.1054 16.7071 10.2929C16.8946 10.4804 17 10.7348 17 11C17 11.2652 16.8946 11.5196 16.7071 11.7071C16.5196 11.8946 16.2652 12 16 12H14.86C14.6907 12.644 14.3634 13.2356 13.9076 13.721C13.4518 14.2065 12.8821 14.5705 12.25 14.78L14.51 16.14C14.6984 16.2518 14.8449 16.4224 14.9269 16.6255C15.009 16.8287 15.022 17.0531 14.9641 17.2644C14.9062 17.4757 14.7805 17.6621 14.6063 17.795C14.4321 17.9279 14.2191 17.9999 14 18C13.8205 17.9999 13.6444 17.9516 13.49 17.86L8.49 14.86C8.49 14.86 8.43 14.8 8.4 14.78C8.34311 14.7413 8.29252 14.6941 8.25 14.64L8.14 14.49C8.10747 14.4328 8.08068 14.3725 8.06 14.31C8.05434 14.2435 8.05434 14.1765 8.06 14.11L8 14C8 14 8 14 8 13.93C7.99533 13.8668 7.99533 13.8032 8 13.74C8.01727 13.6746 8.04071 13.611 8.07 13.55C8.07 13.55 8.07 13.55 8.07 13.49C8.07 13.43 8.13 13.43 8.15 13.4C8.18869 13.3431 8.23591 13.2925 8.29 13.25C8.33926 13.2077 8.3929 13.1709 8.45 13.14L8.61 13.06H8.82L9 13H11C11.349 12.9979 11.6914 12.9045 11.9932 12.7291C12.2949 12.5536 12.5455 12.3023 12.72 12H8C7.73478 12 7.48043 11.8946 7.29289 11.7071C7.10536 11.5196 7 11.2652 7 11C7 10.7348 7.10536 10.4804 7.29289 10.2929C7.48043 10.1054 7.73478 10 8 10H12.72C12.5455 9.69772 12.2949 9.44638 11.9932 9.27095C11.6914 9.09552 11.349 9.00211 11 9H8C7.73478 9 7.48043 8.89464 7.29289 8.70711C7.10536 8.51957 7 8.26522 7 8C7 7.73478 7.10536 7.48043 7.29289 7.29289C7.48043 7.10536 7.73478 7 8 7H16C16.2652 7 16.5196 7.10536 16.7071 7.29289C16.8946 7.48043 17 7.73478 17 8C17 8.26522 16.8946 8.51957 16.7071 8.70711C16.5196 8.89464 16.2652 9 16 9H14.44C14.6265 9.31184 14.7679 9.64852 14.86 10Z" fill="currentColor"/>
  </symbol>
  <symbol id="ic_payment_plan" viewBox="0 0 24 24">
    <path d="M19.12 3.88C18.5579 3.31723 17.7954 3.0007 17 3H15.72C15.5475 2.69824 15.2994 2.44663 15 2.27C14.6962 2.09375 14.3513 2.00062 14 2H10C9.64874 2.00062 9.30384 2.09375 9 2.27C8.70064 2.44663 8.45249 2.69824 8.28 3H7C6.20435 3 5.44129 3.31607 4.87868 3.87868C4.31607 4.44129 4 5.20435 4 6V19C4 19.7956 4.31607 20.5587 4.87868 21.1213C5.44129 21.6839 6.20435 22 7 22H17C17.7956 22 18.5587 21.6839 19.1213 21.1213C19.6839 20.5587 20 19.7956 20 19V6C19.9993 5.20462 19.6828 4.44207 19.12 3.88ZM14.5 14C14.5 14.4465 14.4004 14.8874 14.2084 15.2905C14.0163 15.6936 13.7367 16.0487 13.39 16.33L14.95 17.11C15.1855 17.2299 15.364 17.4381 15.4465 17.6892C15.5289 17.9403 15.5086 18.2138 15.39 18.45C15.3069 18.6149 15.1798 18.7536 15.0227 18.8507C14.8656 18.9478 14.6847 18.9994 14.5 19C14.3431 19.0019 14.1883 18.964 14.05 18.89L10.05 16.89C9.8507 16.7879 9.69144 16.6219 9.59772 16.4185C9.504 16.2151 9.48125 15.9862 9.53312 15.7684C9.58499 15.5505 9.70846 15.3564 9.88377 15.2171C10.0591 15.0778 10.2761 15.0013 10.5 15H11.5C11.7652 15 12.0196 14.8946 12.2071 14.7071C12.3946 14.5196 12.5 14.2652 12.5 14C12.5 13.7348 12.3946 13.4804 12.2071 13.2929C12.0196 13.1054 11.7652 13 11.5 13H9.5C9.23478 13 8.98043 12.8946 8.79289 12.7071C8.60536 12.5196 8.5 12.2652 8.5 12C8.5 11.7348 8.60536 11.4804 8.79289 11.2929C8.98043 11.1054 9.23478 11 9.5 11H14.5C14.7652 11 15.0196 11.1054 15.2071 11.2929C15.3946 11.4804 15.5 11.7348 15.5 12C15.5 12.2652 15.3946 12.5196 15.2071 12.7071C15.0196 12.8946 14.7652 13 14.5 13H14.32C14.4364 13.3207 14.4973 13.6589 14.5 14ZM18 8H6V6C6 5.73478 6.10536 5.48043 6.29289 5.29289C6.48043 5.10536 6.73478 5 7 5H8.28C8.45249 5.30176 8.70064 5.55337 9 5.73C9.30384 5.90625 9.64874 5.99938 10 6H14C14.3513 5.99938 14.6962 5.90625 15 5.73C15.2994 5.55337 15.5475 5.30176 15.72 5H17C17.2652 5 17.5196 5.10536 17.7071 5.29289C17.8946 5.48043 18 5.73478 18 6V8Z" fill="currentColor"/>
  </symbol>
</svg>
