<!-- JioGames DLS — percentage icons (3 icons) -->
<svg xmlns="http://www.w3.org/2000/svg" style="display:none">
  <symbol id="ic_percentage_decrease" viewBox="0 0 24 24">
    <path d="M6.99633 9.00098C7.58895 9.00098 8.16826 8.82503 8.66101 8.49539C9.15375 8.16574 9.5378 7.69721 9.76459 7.14903C9.99137 6.60085 10.0507 5.99765 9.93509 5.4157C9.81948 4.83376 9.53411 4.29921 9.11506 3.87965C8.69602 3.4601 8.16212 3.17437 7.58089 3.05862C6.99966 2.94286 6.39719 3.00227 5.84968 3.22934C5.30218 3.4564 4.83421 3.84092 4.50497 4.33427C4.17573 4.82761 4 5.40763 4 6.00098C4 6.79663 4.31568 7.55969 4.8776 8.1223C5.43953 8.68491 6.20166 9.00098 6.99633 9.00098ZM17.9829 15.001C17.3903 15.001 16.811 15.1769 16.3182 15.5066C15.8255 15.8362 15.4414 16.3047 15.2146 16.8529C14.9879 17.4011 14.9285 18.0043 15.0441 18.5862C15.1597 19.1682 15.4451 19.7027 15.8642 20.1223C16.2832 20.5419 16.8171 20.8276 17.3983 20.9433C17.9796 21.0591 18.582 20.9997 19.1295 20.7726C19.6771 20.5456 20.145 20.161 20.4743 19.6677C20.8035 19.1743 20.9792 18.5943 20.9792 18.001C20.9792 17.2053 20.6635 16.4423 20.1016 15.8797C19.5397 15.317 18.7776 15.001 17.9829 15.001ZM4.99878 21.001L8.99389 21.001C9.25878 21.001 9.51283 20.8956 9.70013 20.7081C9.88744 20.5205 9.99267 20.2662 9.99267 20.001C9.99267 19.7358 9.88744 19.4814 9.70013 19.2939C9.51283 19.1063 9.25878 19.001 8.99389 19.001L7.30595 19.001L20.7096 4.68097C20.8956 4.49361 21 4.24016 21 3.97598C21 3.71179 20.8956 3.45834 20.7096 3.27098C20.6122 3.17946 20.4976 3.10841 20.3723 3.06204C20.2471 3.01566 20.1138 2.9949 19.9805 3.00097C19.8435 3.00142 19.7081 3.03005 19.5827 3.0851C19.4573 3.14015 19.3445 3.22044 19.2513 3.32097L5.99756 17.471L5.99756 16.001C5.99756 15.7358 5.89233 15.4814 5.70502 15.2939C5.51771 15.1063 5.26367 15.001 4.99878 15.001C4.73388 15.001 4.47984 15.1063 4.29253 15.2939C4.10523 15.4814 4 15.7358 4 16.001L4 20.001C4 20.2662 4.10523 20.5205 4.29253 20.7081C4.47984 20.8956 4.73388 21.001 4.99878 21.001Z" fill="currentColor"/>
  </symbol>
  <symbol id="ic_percentage_increase" viewBox="0 0 24 24">
    <path d="M16.9829 15C16.3903 15 15.811 15.1759 15.3182 15.5056C14.8255 15.8352 14.4414 16.3038 14.2147 16.852C13.9879 17.4001 13.9285 18.0033 14.0442 18.5853C14.1598 19.1672 14.4451 19.7018 14.8642 20.1213C15.2832 20.5409 15.8171 20.8266 16.3984 20.9424C16.9796 21.0581 17.5821 20.9987 18.1296 20.7716C18.6771 20.5446 19.145 20.1601 19.4743 19.6667C19.8035 19.1734 19.9792 18.5933 19.9792 18C19.9792 17.2044 19.6636 16.4413 19.1016 15.8787C18.5397 15.3161 17.7776 15 16.9829 15ZM5.99635 9C6.58897 9 7.16828 8.82405 7.66103 8.49441C8.15377 8.16477 8.53782 7.69623 8.7646 7.14805C8.99139 6.59987 9.05073 5.99667 8.93511 5.41473C8.8195 4.83279 8.53413 4.29824 8.11508 3.87868C7.69604 3.45912 7.16214 3.1734 6.58091 3.05765C5.99967 2.94189 5.39721 3.0013 4.8497 3.22836C4.30219 3.45543 3.83423 3.83994 3.50499 4.33329C3.17575 4.82664 3.00002 5.40666 3.00002 6C3.00002 6.79565 3.3157 7.55871 3.87762 8.12132C4.43954 8.68393 5.20167 9 5.99635 9ZM18.9805 3H14.9854C14.7205 3 14.4664 3.10536 14.2791 3.29289C14.0918 3.48043 13.9866 3.73478 13.9866 4C13.9866 4.26522 14.0918 4.51957 14.2791 4.70711C14.4664 4.89464 14.7205 5 14.9854 5H16.6733L3.26969 19.32C3.08366 19.5074 2.97925 19.7608 2.97925 20.025C2.97925 20.2892 3.08366 20.5426 3.26969 20.73C3.36702 20.8215 3.48169 20.8926 3.60693 20.9389C3.73216 20.9853 3.86541 21.0061 3.99879 21C4.13574 20.9996 4.27114 20.9709 4.39657 20.9159C4.522 20.8608 4.63478 20.7805 4.7279 20.68L17.9817 6.53V8C17.9817 8.26522 18.0869 8.51957 18.2742 8.70711C18.4615 8.89464 18.7156 9 18.9805 9C19.2454 9 19.4994 8.89464 19.6867 8.70711C19.874 8.51957 19.9792 8.26522 19.9792 8V4C19.9792 3.73478 19.874 3.48043 19.6867 3.29289C19.4994 3.10536 19.2454 3 18.9805 3Z" fill="currentColor"/>
  </symbol>
  <symbol id="ic_percentage_value" viewBox="0 0 24 24">
    <path d="M17 2H7C6.20435 2 5.44129 2.31607 4.87868 2.87868C4.31607 3.44129 4 4.20435 4 5V19C4 19.7956 4.31607 20.5587 4.87868 21.1213C5.44129 21.6839 6.20435 22 7 22H17C17.7956 22 18.5587 21.6839 19.1213 21.1213C19.6839 20.5587 20 19.7956 20 19V5C20 4.20435 19.6839 3.44129 19.1213 2.87868C18.5587 2.31607 17.7956 2 17 2ZM8.37 6.37C8.48428 6.25234 8.62111 6.15893 8.77231 6.09536C8.92351 6.03178 9.08598 5.99935 9.25 6C9.49621 6.00082 9.7367 6.07434 9.94129 6.21132C10.1459 6.34831 10.3055 6.54266 10.4 6.77C10.496 6.99714 10.5238 7.24732 10.48 7.49C10.4276 7.73542 10.3053 7.96043 10.1279 8.13788C9.95043 8.31532 9.72542 8.43762 9.48 8.49C9.23732 8.5338 8.98714 8.506 8.76 8.41C8.53296 8.31327 8.33963 8.15149 8.20438 7.94506C8.06914 7.73863 7.99802 7.49678 8 7.25C7.99935 7.08598 8.03178 6.92351 8.09536 6.77231C8.15893 6.62111 8.25234 6.48428 8.37 6.37ZM8.29 12.29L14.29 6.29C14.3832 6.19676 14.4939 6.1228 14.6158 6.07234C14.7376 6.02188 14.8681 5.99591 15 5.99591C15.1319 5.99591 15.2624 6.02188 15.3842 6.07234C15.5061 6.1228 15.6168 6.19676 15.71 6.29C15.8032 6.38324 15.8772 6.49393 15.9277 6.61575C15.9781 6.73757 16.0041 6.86814 16.0041 7C16.0041 7.13186 15.9781 7.26243 15.9277 7.38425C15.8772 7.50607 15.8032 7.61676 15.71 7.71L9.71 13.71C9.61704 13.8037 9.50644 13.8781 9.38458 13.9289C9.26272 13.9797 9.13201 14.0058 9 14.0058C8.86799 14.0058 8.73728 13.9797 8.61542 13.9289C8.49356 13.8781 8.38296 13.8037 8.29 13.71C8.19627 13.617 8.12188 13.5064 8.07111 13.3846C8.02034 13.2627 7.9942 13.132 7.9942 13C7.9942 12.868 8.02034 12.7373 8.07111 12.6154C8.12188 12.4936 8.19627 12.383 8.29 12.29ZM16 12.75C15.9974 13.0807 15.8649 13.3971 15.631 13.631C15.3971 13.8649 15.0807 13.9974 14.75 14C14.5038 13.9992 14.2633 13.9257 14.0587 13.7887C13.8541 13.6517 13.6945 13.4573 13.6 13.23C13.504 13.0029 13.4762 12.7527 13.52 12.51C13.5724 12.2646 13.6947 12.0396 13.8721 11.8621C14.0496 11.6847 14.2746 11.5624 14.52 11.51C14.7627 11.4662 15.0129 11.494 15.24 11.59C15.467 11.6867 15.6604 11.8485 15.7956 12.0549C15.9309 12.2614 16.002 12.5032 16 12.75ZM16 19H8C7.73478 19 7.48043 18.8946 7.29289 18.7071C7.10536 18.5196 7 18.2652 7 18C7 17.7348 7.10536 17.4804 7.29289 17.2929C7.48043 17.1054 7.73478 17 8 17H16C16.2652 17 16.5196 17.1054 16.7071 17.2929C16.8946 17.4804 17 17.7348 17 18C17 18.2652 16.8946 18.5196 16.7071 18.7071C16.5196 18.8946 16.2652 19 16 19Z" fill="currentColor"/>
  </symbol>
</svg>
