<!-- JioGames DLS — personal icons (2 icons) -->
<svg xmlns="http://www.w3.org/2000/svg" style="display:none">
  <symbol id="ic_personal_history" viewBox="0 0 24 24">
    <path d="M21.12 6.88C20.5579 6.31723 19.7954 6.0007 19 6H12.41L11.29 4.88C10.7279 4.31723 9.96538 4.0007 9.17 4H5C4.20435 4 3.44129 4.31607 2.87868 4.87868C2.31607 5.44129 2 6.20435 2 7V17C2 17.7956 2.31607 18.5587 2.87868 19.1213C3.44129 19.6839 4.20435 20 5 20H19C19.7956 20 20.5587 19.6839 21.1213 19.1213C21.6839 18.5587 22 17.7956 22 17V9C21.9993 8.20462 21.6828 7.44207 21.12 6.88ZM12 9C12.2967 9 12.5867 9.08797 12.8334 9.2528C13.08 9.41762 13.2723 9.65189 13.3858 9.92597C13.4994 10.2001 13.5291 10.5017 13.4712 10.7926C13.4133 11.0836 13.2704 11.3509 13.0607 11.5607C12.8509 11.7704 12.5836 11.9133 12.2926 11.9712C12.0017 12.0291 11.7001 11.9994 11.426 11.8858C11.1519 11.7723 10.9176 11.58 10.7528 11.3334C10.588 11.0867 10.5 10.7967 10.5 10.5C10.5 10.1022 10.658 9.72064 10.9393 9.43934C11.2206 9.15804 11.6022 9 12 9ZM14 17H10C9.73478 17 9.48043 16.8946 9.29289 16.7071C9.10536 16.5196 9 16.2652 9 16C9 15.2044 9.31607 14.4413 9.87868 13.8787C10.4413 13.3161 11.2044 13 12 13C12.7956 13 13.5587 13.3161 14.1213 13.8787C14.6839 14.4413 15 15.2044 15 16C15 16.2652 14.8946 16.5196 14.7071 16.7071C14.5196 16.8946 14.2652 17 14 17Z" fill="currentColor"/>
  </symbol>
  <symbol id="ic_personal_trainer" viewBox="0 0 24 24">
    <path d="M17.4999 7C17.7966 7 18.0866 6.91203 18.3333 6.74721C18.5799 6.58238 18.7722 6.34811 18.8857 6.07403C18.9993 5.79994 19.029 5.49834 18.9711 5.20737C18.9132 4.91639 18.7703 4.64912 18.5606 4.43934C18.3508 4.22956 18.0835 4.0867 17.7925 4.02882C17.5016 3.97094 17.2 4.00065 16.9259 4.11418C16.6518 4.22771 16.4175 4.41997 16.2527 4.66665C16.0879 4.91332 15.9999 5.20333 15.9999 5.5C15.9999 5.89783 16.1579 6.27936 16.4392 6.56066C16.7205 6.84197 17.1021 7 17.4999 7ZM8.4999 7C8.79658 7 9.08658 6.91203 9.33326 6.74721C9.57993 6.58238 9.77219 6.34811 9.88572 6.07403C9.99925 5.79994 10.029 5.49834 9.97108 5.20737C9.9132 4.91639 9.77034 4.64912 9.56056 4.43934C9.35078 4.22956 9.08351 4.0867 8.79254 4.02882C8.50157 3.97094 8.19997 4.00065 7.92588 4.11418C7.65179 4.22771 7.41752 4.41997 7.2527 4.66665C7.08788 4.91332 6.9999 5.20333 6.9999 5.5C6.9999 5.89783 7.15794 6.27936 7.43924 6.56066C7.72055 6.84197 8.10208 7 8.4999 7ZM9.6799 13.58L8.1399 12.58L8.6699 10.47L11.5499 11.91C11.6677 11.9809 11.7989 12.0267 11.9353 12.0446C12.0716 12.0626 12.2102 12.0521 12.3423 12.0141C12.4744 11.976 12.5973 11.9111 12.7032 11.8234C12.8092 11.7357 12.8958 11.6271 12.9579 11.5044C13.0199 11.3817 13.056 11.2475 13.0639 11.1102C13.0717 10.9729 13.0511 10.8355 13.0035 10.7065C12.9558 10.5775 12.882 10.4597 12.7868 10.3605C12.6915 10.2613 12.5768 10.1829 12.4499 10.13L8.4499 8.13L4.4499 6.13C4.21681 6.03294 3.95563 6.02764 3.71879 6.11518C3.48195 6.20272 3.287 6.37661 3.17307 6.60194C3.05914 6.82727 3.03466 7.08736 3.10456 7.32999C3.17446 7.57261 3.33355 7.77982 3.5499 7.91L6.8399 9.54L6.0699 12.59L2.1699 18.45C2.02517 18.6705 1.97339 18.9392 2.02583 19.1976C2.07827 19.4561 2.23069 19.6834 2.4499 19.83C2.61095 19.9428 2.8033 20.0022 2.9999 20C3.16461 19.9991 3.32656 19.9576 3.47135 19.8791C3.61615 19.8006 3.73932 19.6876 3.8299 19.55L7.2799 14.39L8.5699 15.25L6.1999 18.4C6.04077 18.6122 5.97245 18.8789 6.00995 19.1414C6.04746 19.404 6.18773 19.6409 6.3999 19.8C6.573 19.9298 6.78353 20 6.9999 20C7.15515 20 7.30826 19.9639 7.44712 19.8944C7.58597 19.825 7.70676 19.7242 7.7999 19.6L10.1699 16.45C10.3341 16.2323 10.452 15.9833 10.5164 15.7183C10.5809 15.4534 10.5904 15.178 10.5445 14.9092C10.4986 14.6404 10.3983 14.3838 10.2496 14.1553C10.1009 13.9267 9.90703 13.7309 9.6799 13.58ZM21.4499 10.11L17.4499 8.11L13.4499 6.11C13.2168 6.01294 12.9556 6.00764 12.7188 6.09518C12.482 6.18272 12.287 6.35661 12.1731 6.58194C12.0591 6.80727 12.0347 7.06736 12.1046 7.30999C12.1745 7.55261 12.3336 7.75982 12.5499 7.89L15.8399 9.54L15.0699 12.59L11.1699 18.45C11.0252 18.6705 10.9734 18.9392 11.0258 19.1976C11.0783 19.4561 11.2307 19.6834 11.4499 19.83C11.6109 19.9428 11.8033 20.0022 11.9999 20C12.1646 19.9991 12.3266 19.9576 12.4714 19.8791C12.6162 19.8006 12.7393 19.6876 12.8299 19.55L16.2799 14.39L17.5699 15.25L15.1999 18.4C15.0408 18.6122 14.9724 18.8789 15.01 19.1414C15.0475 19.404 15.1877 19.6409 15.3999 19.8C15.573 19.9298 15.7835 20 15.9999 20C16.1551 20 16.3083 19.9639 16.4471 19.8944C16.586 19.825 16.7068 19.7242 16.7999 19.6L19.1699 16.45C19.3341 16.2323 19.452 15.9833 19.5164 15.7183C19.5809 15.4534 19.5904 15.178 19.5445 14.9092C19.4986 14.6404 19.3983 14.3838 19.2496 14.1553C19.1009 13.9267 18.907 13.7309 18.6799 13.58L17.1399 12.58L17.6699 10.47L20.5499 11.91C20.783 12.0071 21.0442 12.0124 21.281 11.9248C21.5179 11.8373 21.7128 11.6634 21.8267 11.4381C21.9407 11.2127 21.9651 10.9526 21.8952 10.71C21.8253 10.4674 21.6663 10.2602 21.4499 10.13V10.11Z" fill="currentColor"/>
  </symbol>
</svg>
