<!-- JioGames DLS — phone icons (4 icons) -->
<svg xmlns="http://www.w3.org/2000/svg" style="display:none">
  <symbol id="ic_phone_key_access" viewBox="0 0 24 24">
    <path d="M19 2C17.35 2 16 3.35 16 5C16 5.47 16.12 5.9 16.31 6.3L14.32 8.28C14.32 8.28 14.3 8.28 14.3 8.29C14.3 8.3 14.3 8.3 14.29 8.31L13.31 9.29C12.92 9.68 12.92 10.31 13.31 10.7C13.51 10.9 13.76 11 14.02 11C14.28 11 14.53 10.9 14.72 10.71L15.02 10.42L15.31 10.71C15.51 10.91 15.76 11 16.02 11C16.28 11 16.53 10.9 16.73 10.71C17.12 10.32 17.12 9.69 16.73 9.3L16.44 9.01L17.75 7.71C18.14 7.89 18.57 8 19.02 8C20.67 8 22.02 6.65 22.02 5C22.02 3.35 20.67 2 19.02 2H19ZM19 6C18.45 6 18 5.55 18 5C18 4.45 18.45 4 19 4C19.55 4 20 4.45 20 5C20 5.55 19.55 6 19 6ZM11 10V3C11 2.65 11.07 2.31 11.18 2H9C7.34 2 6 3.34 6 5V19C6 20.66 7.34 22 9 22H15C16.66 22 18 20.66 18 19V13H14C12.34 13 11 11.66 11 10ZM12 20C11.45 20 11 19.55 11 19C11 18.45 11.45 18 12 18C12.55 18 13 18.45 13 19C13 19.55 12.55 20 12 20Z" fill="currentColor"/>
  </symbol>
  <symbol id="ic_phone_number_landline" viewBox="0 0 24 24">
    <path d="M20.5999 6.4C19.7199 5.28 17.2899 3 11.9999 3C6.7099 3 4.2799 5.28 3.3999 6.4C3.13555 6.74371 2.99464 7.16642 2.9999 7.6V9C2.9999 9.53043 3.21061 10.0391 3.58568 10.4142C3.96076 10.7893 4.46946 11 4.9999 11H5.9999C6.53033 11 7.03904 10.7893 7.41411 10.4142C7.78918 10.0391 7.9999 9.53043 7.9999 9V8C7.9999 7.73478 8.10525 7.48043 8.29279 7.29289C8.48033 7.10536 8.73468 7 8.9999 7H14.9999C15.2651 7 15.5195 7.10536 15.707 7.29289C15.8945 7.48043 15.9999 7.73478 15.9999 8V9C15.9999 9.53043 16.2106 10.0391 16.5857 10.4142C16.9608 10.7893 17.4695 11 17.9999 11H18.9999C19.5303 11 20.039 10.7893 20.4141 10.4142C20.7892 10.0391 20.9999 9.53043 20.9999 9V7.6C21.0051 7.16642 20.8642 6.74371 20.5999 6.4ZM17.9999 13C16.939 13 15.9216 12.5786 15.1715 11.8284C14.4213 11.0783 13.9999 10.0609 13.9999 9H9.9999C9.9999 10.0609 9.57847 11.0783 8.82832 11.8284C8.07818 12.5786 7.06076 13 5.9999 13C5.46946 13 4.96076 13.2107 4.58568 13.5858C4.21061 13.9609 3.9999 14.4696 3.9999 15V18C3.9999 18.7956 4.31597 19.5587 4.87858 20.1213C5.44119 20.6839 6.20425 21 6.9999 21H16.9999C17.7955 21 18.5586 20.6839 19.1212 20.1213C19.6838 19.5587 19.9999 18.7956 19.9999 18V15C19.9999 14.4696 19.7892 13.9609 19.4141 13.5858C19.039 13.2107 18.5303 13 17.9999 13ZM8.9999 19C8.80212 19 8.60878 18.9414 8.44433 18.8315C8.27988 18.7216 8.15171 18.5654 8.07602 18.3827C8.00033 18.2 7.98053 17.9989 8.01911 17.8049C8.0577 17.6109 8.15294 17.4327 8.29279 17.2929C8.43264 17.153 8.61083 17.0578 8.80481 17.0192C8.99879 16.9806 9.19986 17.0004 9.38258 17.0761C9.56531 17.1518 9.72149 17.28 9.83137 17.4444C9.94125 17.6089 9.9999 17.8022 9.9999 18C9.9999 18.2652 9.89454 18.5196 9.707 18.7071C9.51947 18.8946 9.26511 19 8.9999 19ZM8.9999 16C8.80212 16 8.60878 15.9414 8.44433 15.8315C8.27988 15.7216 8.15171 15.5654 8.07602 15.3827C8.00033 15.2 7.98053 14.9989 8.01911 14.8049C8.0577 14.6109 8.15294 14.4327 8.29279 14.2929C8.43264 14.153 8.61083 14.0578 8.80481 14.0192C8.99879 13.9806 9.19986 14.0004 9.38258 14.0761C9.56531 14.1518 9.72149 14.28 9.83137 14.4444C9.94125 14.6089 9.9999 14.8022 9.9999 15C9.9999 15.2652 9.89454 15.5196 9.707 15.7071C9.51947 15.8946 9.26511 16 8.9999 16ZM11.9999 19C11.8021 19 11.6088 18.9414 11.4443 18.8315C11.2799 18.7216 11.1517 18.5654 11.076 18.3827C11.0003 18.2 10.9805 17.9989 11.0191 17.8049C11.0577 17.6109 11.1529 17.4327 11.2928 17.2929C11.4326 17.153 11.6108 17.0578 11.8048 17.0192C11.9988 16.9806 12.1999 17.0004 12.3826 17.0761C12.5653 17.1518 12.7215 17.28 12.8314 17.4444C12.9412 17.6089 12.9999 17.8022 12.9999 18C12.9999 18.2652 12.8945 18.5196 12.707 18.7071C12.5195 18.8946 12.2651 19 11.9999 19ZM11.9999 16C11.8021 16 11.6088 15.9414 11.4443 15.8315C11.2799 15.7216 11.1517 15.5654 11.076 15.3827C11.0003 15.2 10.9805 14.9989 11.0191 14.8049C11.0577 14.6109 11.1529 14.4327 11.2928 14.2929C11.4326 14.153 11.6108 14.0578 11.8048 14.0192C11.9988 13.9806 12.1999 14.0004 12.3826 14.0761C12.5653 14.1518 12.7215 14.28 12.8314 14.4444C12.9412 14.6089 12.9999 14.8022 12.9999 15C12.9999 15.2652 12.8945 15.5196 12.707 15.7071C12.5195 15.8946 12.2651 16 11.9999 16ZM14.9999 19C14.8021 19 14.6088 18.9414 14.4443 18.8315C14.2799 18.7216 14.1517 18.5654 14.076 18.3827C14.0003 18.2 13.9805 17.9989 14.0191 17.8049C14.0577 17.6109 14.1529 17.4327 14.2928 17.2929C14.4326 17.153 14.6108 17.0578 14.8048 17.0192C14.9988 16.9806 15.1999 17.0004 15.3826 17.0761C15.5653 17.1518 15.7215 17.28 15.8314 17.4444C15.9412 17.6089 15.9999 17.8022 15.9999 18C15.9999 18.2652 15.8945 18.5196 15.707 18.7071C15.5195 18.8946 15.2651 19 14.9999 19ZM14.9999 16C14.8021 16 14.6088 15.9414 14.4443 15.8315C14.2799 15.7216 14.1517 15.5654 14.076 15.3827C14.0003 15.2 13.9805 14.9989 14.0191 14.8049C14.0577 14.6109 14.1529 14.4327 14.2928 14.2929C14.4326 14.153 14.6108 14.0578 14.8048 14.0192C14.9988 13.9806 15.1999 14.0004 15.3826 14.0761C15.5653 14.1518 15.7215 14.28 15.8314 14.4444C15.9412 14.6089 15.9999 14.8022 15.9999 15C15.9999 15.2652 15.8945 15.5196 15.707 15.7071C15.5195 15.8946 15.2651 16 14.9999 16Z" fill="currentColor"/>
  </symbol>
  <symbol id="ic_phone_performance" viewBox="0 0 24 24">
    <path d="M17.12 2.88C16.5579 2.31723 15.7954 2.0007 15 2H9C8.20435 2 7.44129 2.31607 6.87868 2.87868C6.31607 3.44129 6 4.20435 6 5V19C6 19.7956 6.31607 20.5587 6.87868 21.1213C7.44129 21.6839 8.20435 22 9 22H15C15.7956 22 16.5587 21.6839 17.1213 21.1213C17.6839 20.5587 18 19.7956 18 19V5C17.9993 4.20462 17.6828 3.44207 17.12 2.88ZM12.88 19.63C12.7657 19.7477 12.6289 19.8411 12.4777 19.9046C12.3265 19.9682 12.164 20.0007 12 20C11.7538 19.9992 11.5133 19.9257 11.3087 19.7887C11.1041 19.6517 10.9445 19.4573 10.85 19.23C10.754 19.0029 10.7262 18.7527 10.77 18.51C10.8224 18.2646 10.9447 18.0396 11.1221 17.8621C11.2996 17.6847 11.5246 17.5624 11.77 17.51C12.0127 17.4662 12.2629 17.494 12.49 17.59C12.7173 17.6845 12.9117 17.8441 13.0487 18.0487C13.1857 18.2533 13.2592 18.4938 13.26 18.74C13.2607 18.9064 13.2274 19.0712 13.162 19.2243C13.0967 19.3773 13.0007 19.5154 12.88 19.63ZM15.71 9.71L12.71 12.71C12.617 12.8037 12.5064 12.8781 12.3846 12.9289C12.2627 12.9797 12.132 13.0058 12 13.0058C11.868 13.0058 11.7373 12.9797 11.6154 12.9289C11.4936 12.8781 11.383 12.8037 11.29 12.71L10 11.41L9.71 11.71C9.5217 11.8983 9.2663 12.0041 9 12.0041C8.7337 12.0041 8.4783 11.8983 8.29 11.71C8.1017 11.5217 7.99591 11.2663 7.99591 11C7.99591 10.7337 8.1017 10.4783 8.29 10.29L9.29 9.29C9.38296 9.19627 9.49356 9.12188 9.61542 9.07111C9.73728 9.02034 9.86799 8.9942 10 8.9942C10.132 8.9942 10.2627 9.02034 10.3846 9.07111C10.5064 9.12188 10.617 9.19627 10.71 9.29L12 10.59L14.29 8.29C14.4783 8.1017 14.7337 7.99591 15 7.99591C15.2663 7.99591 15.5217 8.1017 15.71 8.29C15.8983 8.4783 16.0041 8.7337 16.0041 9C16.0041 9.2663 15.8983 9.5217 15.71 9.71Z" fill="currentColor"/>
  </symbol>
  <symbol id="ic_phone_secured" viewBox="0 0 24 24">
    <path d="M11 7.5V2H9C7.34 2 6 3.34 6 5V19C6 20.66 7.34 22 9 22H15C16.66 22 18 20.66 18 19V13.97C17.83 13.98 17.67 14 17.5 14C13.91 14 11 11.09 11 7.5ZM12 20C11.45 20 11 19.55 11 19C11 18.45 11.45 18 12 18C12.55 18 13 18.45 13 19C13 19.55 12.55 20 12 20ZM21.73 3.34C21.56 3.16 21.33 3.04 21.08 3.01C19.98 2.89 18.9 2.59 17.91 2.1C17.78 2.04 17.64 2 17.5 2C17.36 2 17.22 2.03 17.09 2.1C16.1 2.59 15.04 2.9 13.94 3.01C13.69 3.03 13.45 3.15 13.28 3.33C13.11 3.51 13.01 3.76 13 4.01V6.51C13 9.88 16.38 12 17.5 12C18.62 12 22 9.88 22 6.51V4.01C22 3.76 21.9 3.52 21.73 3.34Z" fill="currentColor"/>
  </symbol>
</svg>
