<!-- JioGames DLS — photo icons (9 icons) -->
<svg xmlns="http://www.w3.org/2000/svg" style="display:none">
  <symbol id="ic_photo" viewBox="0 0 24 24">
    <path d="M8.5 7C8.20333 7 7.91332 7.08797 7.66664 7.2528C7.41997 7.41762 7.22771 7.65189 7.11418 7.92597C7.00065 8.20006 6.97094 8.50166 7.02882 8.79264C7.0867 9.08361 7.22956 9.35088 7.43934 9.56066C7.64912 9.77044 7.91639 9.9133 8.20736 9.97118C8.49834 10.0291 8.79994 9.99935 9.07403 9.88582C9.34811 9.77229 9.58238 9.58003 9.7472 9.33335C9.91203 9.08668 10 8.79667 10 8.5C10 8.10218 9.84196 7.72064 9.56066 7.43934C9.27936 7.15804 8.89782 7 8.5 7ZM18 3H6C5.20435 3 4.44129 3.31607 3.87868 3.87868C3.31607 4.44129 3 5.20435 3 6V18C3 18.7956 3.31607 19.5587 3.87868 20.1213C4.44129 20.6839 5.20435 21 6 21H18C18.7956 21 19.5587 20.6839 20.1213 20.1213C20.6839 19.5587 21 18.7956 21 18V6C21 5.20435 20.6839 4.44129 20.1213 3.87868C19.5587 3.31607 18.7956 3 18 3ZM19 12.09L16.21 9.29C16.117 9.19627 16.0064 9.12188 15.8846 9.07111C15.7627 9.02034 15.632 8.9942 15.5 8.9942C15.368 8.9942 15.2373 9.02034 15.1154 9.07111C14.9936 9.12188 14.883 9.19627 14.79 9.29L10.5 13.59L9.21 12.29C9.11704 12.1963 9.00644 12.1219 8.88458 12.0711C8.76272 12.0203 8.63201 11.9942 8.5 11.9942C8.36799 11.9942 8.23728 12.0203 8.11542 12.0711C7.99356 12.1219 7.88296 12.1963 7.79 12.29L5 15.09V6C5 5.73478 5.10536 5.48043 5.29289 5.29289C5.48043 5.10536 5.73478 5 6 5H18C18.2652 5 18.5196 5.10536 18.7071 5.29289C18.8946 5.48043 19 5.73478 19 6V12.09Z" fill="currentColor"/>
  </symbol>
  <symbol id="ic_photo_add" viewBox="0 0 24 24">
    <path d="M20 10C19.7348 10 19.4804 10.1054 19.2929 10.2929C19.1054 10.4804 19 10.7348 19 11V12.09L16.21 9.29C16.117 9.19627 16.0064 9.12188 15.8846 9.07111C15.7627 9.02034 15.632 8.9942 15.5 8.9942C15.368 8.9942 15.2373 9.02034 15.1154 9.07111C14.9936 9.12188 14.883 9.19627 14.79 9.29L10.5 13.59L9.21 12.29C9.11704 12.1963 9.00644 12.1219 8.88458 12.0711C8.76272 12.0203 8.63201 11.9942 8.5 11.9942C8.36799 11.9942 8.23728 12.0203 8.11542 12.0711C7.99356 12.1219 7.88296 12.1963 7.79 12.29L5 15.09V6C5 5.73478 5.10536 5.48043 5.29289 5.29289C5.48043 5.10536 5.73478 5 6 5H13C13.2652 5 13.5196 4.89464 13.7071 4.70711C13.8946 4.51957 14 4.26522 14 4C14 3.73478 13.8946 3.48043 13.7071 3.29289C13.5196 3.10536 13.2652 3 13 3H6C5.20435 3 4.44129 3.31607 3.87868 3.87868C3.31607 4.44129 3 5.20435 3 6V18C3 18.7956 3.31607 19.5587 3.87868 20.1213C4.44129 20.6839 5.20435 21 6 21H18C18.7956 21 19.5587 20.6839 20.1213 20.1213C20.6839 19.5587 21 18.7956 21 18V11C21 10.7348 20.8946 10.4804 20.7071 10.2929C20.5196 10.1054 20.2652 10 20 10ZM7 8.5C7 8.79667 7.08797 9.08668 7.2528 9.33335C7.41762 9.58003 7.65189 9.77229 7.92597 9.88582C8.20006 9.99935 8.50166 10.0291 8.79264 9.97118C9.08361 9.9133 9.35088 9.77044 9.56066 9.56066C9.77044 9.35088 9.9133 9.08361 9.97118 8.79264C10.0291 8.50166 9.99935 8.20006 9.88582 7.92597C9.77229 7.65189 9.58003 7.41762 9.33335 7.2528C9.08668 7.08797 8.79667 7 8.5 7C8.10218 7 7.72064 7.15804 7.43934 7.43934C7.15804 7.72064 7 8.10218 7 8.5ZM21 4.12H19.88V3C19.88 2.73478 19.7746 2.48043 19.5871 2.29289C19.3996 2.10536 19.1452 2 18.88 2C18.6148 2 18.3604 2.10536 18.1729 2.29289C17.9854 2.48043 17.88 2.73478 17.88 3V4.12H16.76C16.4948 4.12 16.2404 4.22536 16.0529 4.41289C15.8654 4.60043 15.76 4.85478 15.76 5.12C15.76 5.38522 15.8654 5.63957 16.0529 5.82711C16.2404 6.01464 16.4948 6.12 16.76 6.12H17.88V7.24C17.88 7.50522 17.9854 7.75957 18.1729 7.94711C18.3604 8.13464 18.6148 8.24 18.88 8.24C19.1388 8.25506 19.3934 8.16902 19.59 8C19.6827 7.90656 19.756 7.79574 19.8058 7.67391C19.8555 7.55207 19.8808 7.42161 19.88 7.29V6.12H21C21.2652 6.12 21.5196 6.01464 21.7071 5.82711C21.8946 5.63957 22 5.38522 22 5.12C22 4.85478 21.8946 4.60043 21.7071 4.41289C21.5196 4.22536 21.2652 4.12 21 4.12Z" fill="currentColor"/>
  </symbol>
  <symbol id="ic_photo_camera" viewBox="0 0 24 24">
    <path d="M19 6H12V5C12 4.73478 11.8947 4.48043 11.7071 4.29289C11.5196 4.10536 11.2652 4 11 4H7.00001C6.73479 4 6.48044 4.10536 6.2929 4.29289C6.10536 4.48043 6.00001 4.73478 6.00001 5V6H5.00001C4.17412 6.03125 3.39437 6.38892 2.83192 6.99449C2.26947 7.60006 1.97028 8.40406 2.00001 9.23V16.77C1.97028 17.5959 2.26947 18.3999 2.83192 19.0055C3.39437 19.6111 4.17412 19.9687 5.00001 20H19C19.8259 19.9687 20.6056 19.6111 21.1681 19.0055C21.7305 18.3999 22.0297 17.5959 22 16.77V9.23C22.0297 8.40406 21.7305 7.60006 21.1681 6.99449C20.6056 6.38892 19.8259 6.03125 19 6ZM12 16C11.4067 16 10.8266 15.8241 10.3333 15.4944C9.83995 15.1648 9.45543 14.6962 9.22837 14.1481C9.00131 13.5999 8.9419 12.9967 9.05765 12.4147C9.17341 11.8328 9.45913 11.2982 9.87869 10.8787C10.2982 10.4591 10.8328 10.1734 11.4147 10.0576C11.9967 9.94189 12.5999 10.0013 13.1481 10.2284C13.6962 10.4554 14.1648 10.8399 14.4944 11.3333C14.8241 11.8266 15 12.4067 15 13C15 13.7956 14.6839 14.5587 14.1213 15.1213C13.5587 15.6839 12.7957 16 12 16Z" fill="currentColor"/>
  </symbol>
  <symbol id="ic_photo_crop" viewBox="0 0 24 24">
    <path d="M8.5 7C8.20333 7 7.91332 7.08797 7.66664 7.2528C7.41997 7.41762 7.22771 7.65189 7.11418 7.92597C7.00065 8.20006 6.97094 8.50166 7.02882 8.79264C7.0867 9.08361 7.22956 9.35088 7.43934 9.56066C7.64912 9.77044 7.91639 9.9133 8.20736 9.97118C8.49834 10.0291 8.79994 9.99935 9.07403 9.88582C9.34811 9.77229 9.58238 9.58003 9.7472 9.33335C9.91203 9.08668 10 8.79667 10 8.5C10 8.10218 9.84196 7.72064 9.56066 7.43934C9.27936 7.15804 8.89782 7 8.5 7ZM18 3H15C14.7348 3 14.4804 3.10536 14.2929 3.29289C14.1054 3.48043 14 3.73478 14 4C14 4.26522 14.1054 4.51957 14.2929 4.70711C14.4804 4.89464 14.7348 5 15 5H18C18.2652 5 18.5196 5.10536 18.7071 5.29289C18.8946 5.48043 19 5.73478 19 6V9C19 9.26522 19.1054 9.51957 19.2929 9.70711C19.4804 9.89464 19.7348 10 20 10C20.2652 10 20.5196 9.89464 20.7071 9.70711C20.8946 9.51957 21 9.26522 21 9V6C21 5.20435 20.6839 4.44129 20.1213 3.87868C19.5587 3.31607 18.7956 3 18 3ZM4 10C4.26522 10 4.51957 9.89464 4.70711 9.70711C4.89464 9.51957 5 9.26522 5 9V6C5 5.73478 5.10536 5.48043 5.29289 5.29289C5.48043 5.10536 5.73478 5 6 5H9C9.26522 5 9.51957 4.89464 9.70711 4.70711C9.89464 4.51957 10 4.26522 10 4C10 3.73478 9.89464 3.48043 9.70711 3.29289C9.51957 3.10536 9.26522 3 9 3H6C5.20435 3 4.44129 3.31607 3.87868 3.87868C3.31607 4.44129 3 5.20435 3 6V9C3 9.26522 3.10536 9.51957 3.29289 9.70711C3.48043 9.89464 3.73478 10 4 10ZM16.21 9.29C16.0226 9.10375 15.7692 8.99921 15.505 8.99921C15.2408 8.99921 14.9874 9.10375 14.8 9.29L10.51 13.59L9.22 12.29C9.03264 12.1037 8.77919 11.9992 8.515 11.9992C8.25081 11.9992 7.99736 12.1037 7.81 12.29L5 15.09V15C5 14.7348 4.89464 14.4804 4.70711 14.2929C4.51957 14.1054 4.26522 14 4 14C3.73478 14 3.48043 14.1054 3.29289 14.2929C3.10536 14.4804 3 14.7348 3 15V18C3 18.7956 3.31607 19.5587 3.87868 20.1213C4.44129 20.6839 5.20435 21 6 21H9C9.26522 21 9.51957 20.8946 9.70711 20.7071C9.89464 20.5196 10 20.2652 10 20C10 19.7348 9.89464 19.4804 9.70711 19.2929C9.51957 19.1054 9.26522 19 9 19H6C5.73478 19 5.48043 18.8946 5.29289 18.7071C5.10536 18.5196 5 18.2652 5 18V17.91L8.5 14.41L9.79 15.71C9.97736 15.8963 10.2308 16.0008 10.495 16.0008C10.7592 16.0008 11.0126 15.8963 11.2 15.71L15.49 11.41L18.99 14.91V18C18.99 18.2652 18.8846 18.5196 18.6971 18.7071C18.5096 18.8946 18.2552 19 17.99 19H15C14.7348 19 14.4804 19.1054 14.2929 19.2929C14.1054 19.4804 14 19.7348 14 20C14 20.2652 14.1054 20.5196 14.2929 20.7071C14.4804 20.8946 14.7348 21 15 21H18C18.7956 21 19.5587 20.6839 20.1213 20.1213C20.6839 19.5587 21 18.7956 21 18V14.5C21.0008 14.3684 20.9755 14.2379 20.9258 14.1161C20.876 13.9943 20.8027 13.8834 20.71 13.79L16.21 9.29Z" fill="currentColor"/>
  </symbol>
  <symbol id="ic_photo_filter" viewBox="0 0 24 24">
    <path d="M21.89 13.42C21.9573 12.9495 21.994 12.4752 22 12C21.994 11.5248 21.9573 11.0505 21.89 10.58C21.697 9.24098 21.2344 7.95503 20.53 6.8C19.6986 5.4486 18.5614 4.31139 17.21 3.48C16.055 2.77564 14.769 2.31298 13.43 2.12C12.9565 2.04892 12.4788 2.00883 12 2C11.5248 2.00595 11.0505 2.0427 10.58 2.11C9.24098 2.30298 7.95503 2.76564 6.8 3.47C5.44496 4.30015 4.30423 5.43746 3.47 6.79C2.76564 7.94503 2.30298 9.23098 2.11 10.57C2.04226 11.0438 2.00552 11.5214 2 12C2.00595 12.4752 2.0427 12.9495 2.11 13.42C2.30298 14.759 2.76564 16.045 3.47 17.2C4.30139 18.5514 5.4386 19.6886 6.79 20.52C7.94503 21.2244 9.23098 21.687 10.57 21.88C11.0435 21.9511 11.5212 21.9912 12 22C12.4752 21.994 12.9495 21.9573 13.42 21.89C14.759 21.697 16.045 21.2344 17.2 20.53C18.5514 19.6986 19.6886 18.5614 20.52 17.21C21.2291 16.0527 21.6953 14.7632 21.89 13.42ZM17.6 17.7C17.2164 18.0574 16.7078 18.2499 16.1836 18.236C15.6595 18.2221 15.1618 18.0029 14.7977 17.6257C14.4335 17.2484 14.2321 16.7433 14.2367 16.219C14.2414 15.6947 14.4517 15.1932 14.8225 14.8225C15.1932 14.4517 15.6947 14.2414 16.219 14.2367C16.7433 14.2321 17.2484 14.4335 17.6257 14.7977C18.0029 15.1618 18.2221 15.6595 18.236 16.1836C18.2499 16.7078 18.0574 17.2164 17.7 17.6C17.6719 17.6382 17.6382 17.6719 17.6 17.7ZM6.3 17.6C5.9426 17.2164 5.75013 16.7078 5.76403 16.1836C5.77794 15.6595 5.9971 15.1618 6.37434 14.7977C6.75158 14.4335 7.25672 14.2321 7.78101 14.2367C8.3053 14.2414 8.8068 14.4517 9.17754 14.8225C9.54829 15.1932 9.75862 15.6947 9.76325 16.219C9.76789 16.7433 9.56646 17.2484 9.20233 17.6257C8.8382 18.0029 8.34049 18.2221 7.81637 18.236C7.29224 18.2499 6.78362 18.0574 6.4 17.7C6.36181 17.6719 6.3281 17.6382 6.3 17.6ZM4 12C3.99943 11.3729 4.07669 10.7481 4.23 10.14C4.49372 10.2364 4.73279 10.3901 4.93 10.59C5.3025 10.9647 5.51159 11.4716 5.51159 12C5.51159 12.5284 5.3025 13.0353 4.93 13.41C4.73279 13.6099 4.49372 13.7636 4.23 13.86C4.07669 13.2519 3.99943 12.6271 4 12ZM6.4 6.3C6.78362 5.9426 7.29224 5.75013 7.81637 5.76403C8.34049 5.77794 8.8382 5.9971 9.20233 6.37434C9.56646 6.75158 9.76789 7.25672 9.76325 7.78101C9.75862 8.3053 9.54829 8.8068 9.17754 9.17754C8.8068 9.54829 8.3053 9.75862 7.78101 9.76325C7.25672 9.76789 6.75158 9.56646 6.37434 9.20233C5.9971 8.8382 5.77794 8.34049 5.76403 7.81637C5.75013 7.29224 5.9426 6.78362 6.3 6.4L6.4 6.3ZM17.7 6.4C18.0574 6.78362 18.2499 7.29224 18.236 7.81637C18.2221 8.34049 18.0029 8.8382 17.6257 9.20233C17.2484 9.56646 16.7433 9.76789 16.219 9.76325C15.6947 9.75862 15.1932 9.54829 14.8225 9.17754C14.4517 8.8068 14.2414 8.3053 14.2367 7.78101C14.2321 7.25672 14.4335 6.75158 14.7977 6.37434C15.1618 5.9971 15.6595 5.77794 16.1836 5.76403C16.7078 5.75013 17.2164 5.9426 17.6 6.3C17.6382 6.3281 17.6719 6.36181 17.7 6.4ZM19.07 13.4C18.6975 13.0253 18.4884 12.5184 18.4884 11.99C18.4884 11.4616 18.6975 10.9547 19.07 10.58C19.2672 10.3801 19.5063 10.2264 19.77 10.13C20.0765 11.3511 20.0765 12.6289 19.77 13.85C19.5072 13.7565 19.2682 13.6063 19.07 13.41V13.4ZM13.86 4.23C13.7636 4.49372 13.6099 4.73279 13.41 4.93C13.0353 5.3025 12.5284 5.51159 12 5.51159C11.4716 5.51159 10.9647 5.3025 10.59 4.93C10.3901 4.73279 10.2364 4.49372 10.14 4.23C11.3611 3.9235 12.6389 3.9235 13.86 4.23ZM13.41 13.41C13.1308 13.6909 12.7744 13.8826 12.3861 13.9607C11.9979 14.0388 11.5951 13.9999 11.229 13.8489C10.8628 13.6979 10.5498 13.4415 10.3295 13.1124C10.1092 12.7832 9.99159 12.3961 9.99159 12C9.99159 11.6039 10.1092 11.2168 10.3295 10.8876C10.5498 10.5585 10.8628 10.3021 11.229 10.1511C11.5951 10.0001 11.9979 9.96117 12.3861 10.0393C12.7744 10.1174 13.1308 10.3091 13.41 10.59C13.7825 10.9647 13.9916 11.4716 13.9916 12C13.9916 12.5284 13.7825 13.0353 13.41 13.41ZM10.14 19.77C10.2364 19.5063 10.3901 19.2672 10.59 19.07C10.9647 18.6975 11.4716 18.4884 12 18.4884C12.5284 18.4884 13.0353 18.6975 13.41 19.07C13.6099 19.2672 13.7636 19.5063 13.86 19.77C12.6389 20.0765 11.3611 20.0765 10.14 19.77Z" fill="currentColor"/>
  </symbol>
  <symbol id="ic_photo_media_files" viewBox="0 0 24 24">
    <path d="M6 13C5.80222 13 5.60888 13.0586 5.44443 13.1685C5.27998 13.2784 5.15181 13.4346 5.07612 13.6173C5.00043 13.8 4.98063 14.0011 5.01921 14.1951C5.0578 14.3891 5.15304 14.5673 5.29289 14.7071C5.43275 14.847 5.61093 14.9422 5.80491 14.9808C5.99889 15.0194 6.19996 14.9996 6.38268 14.9239C6.56541 14.8482 6.72159 14.72 6.83147 14.5556C6.94135 14.3911 7 14.1978 7 14C7 13.7348 6.89464 13.4804 6.70711 13.2929C6.51957 13.1054 6.26522 13 6 13ZM20 2H9C8.46957 2 7.96086 2.21071 7.58579 2.58579C7.21071 2.96086 7 3.46957 7 4V10H4C3.46957 10 2.96086 10.2107 2.58579 10.5858C2.21071 10.9609 2 11.4696 2 12V20C2 20.5304 2.21071 21.0391 2.58579 21.4142C2.96086 21.7893 3.46957 22 4 22H15C15.5304 22 16.0391 21.7893 16.4142 21.4142C16.7893 21.0391 17 20.5304 17 20V14H20C20.5304 14 21.0391 13.7893 21.4142 13.4142C21.7893 13.0391 22 12.5304 22 12V4C22 3.46957 21.7893 2.96086 21.4142 2.58579C21.0391 2.21071 20.5304 2 20 2ZM12.71 14.29C12.617 14.1963 12.5064 14.1219 12.3846 14.0711C12.2627 14.0203 12.132 13.9942 12 13.9942C11.868 13.9942 11.7373 14.0203 11.6154 14.0711C11.4936 14.1219 11.383 14.1963 11.29 14.29L8 17.59L6.71 16.29C6.61704 16.1963 6.50644 16.1219 6.38458 16.0711C6.26272 16.0203 6.13201 15.9942 6 15.9942C5.86799 15.9942 5.73728 16.0203 5.61542 16.0711C5.49356 16.1219 5.38296 16.1963 5.29 16.29L4 17.59V12H15V16.59L12.71 14.29ZM17 12C17 11.4696 16.7893 10.9609 16.4142 10.5858C16.0391 10.2107 15.5304 10 15 10H9V4H20V12H17ZM14 6.08C13.9244 6.02889 13.8362 5.99944 13.7451 5.99486C13.6539 5.99027 13.5633 6.01072 13.4829 6.05399C13.4026 6.09726 13.3356 6.16169 13.2892 6.24031C13.2429 6.31894 13.2189 6.40874 13.22 6.5V8.5C13.2208 8.58973 13.2453 8.67766 13.2909 8.75492C13.3366 8.83217 13.4018 8.89602 13.48 8.94C13.5541 8.97865 13.6364 8.99921 13.72 9C13.8187 8.99803 13.9152 8.97046 14 8.92L15.5 7.92C15.5681 7.87312 15.6237 7.81039 15.6622 7.73723C15.7006 7.66406 15.7207 7.58265 15.7207 7.5C15.7207 7.41735 15.7006 7.33594 15.6622 7.26277C15.6237 7.18961 15.5681 7.12688 15.5 7.08L14 6.08Z" fill="currentColor"/>
  </symbol>
  <symbol id="ic_photo_remove" viewBox="0 0 24 24">
    <path d="M7 8.50019C7 8.79686 7.08797 9.08687 7.2528 9.33354C7.41762 9.58021 7.65189 9.77247 7.92597 9.886C8.20006 9.99954 8.50166 10.0292 8.79264 9.97136C9.08361 9.91349 9.35088 9.77062 9.56066 9.56085C9.77044 9.35107 9.9133 9.08379 9.97118 8.79282C10.0291 8.50185 9.99935 8.20025 9.88582 7.92616C9.77229 7.65207 9.58003 7.4178 9.33335 7.25298C9.08668 7.08816 8.79667 7.00019 8.5 7.00019C8.10218 7.00019 7.72064 7.15822 7.43934 7.43953C7.15804 7.72083 7 8.10236 7 8.50019ZM20 8.00019C19.7348 8.00019 19.4804 8.10554 19.2929 8.29308C19.1054 8.48062 19 8.73497 19 9.00019V12.0902L16.21 9.29019C16.117 9.19646 16.0064 9.12206 15.8846 9.07129C15.7627 9.02053 15.632 8.99439 15.5 8.99439C15.368 8.99439 15.2373 9.02053 15.1154 9.07129C14.9936 9.12206 14.883 9.19646 14.79 9.29019L10.5 13.5902L9.21 12.2902C9.11704 12.1965 9.00644 12.1221 8.88458 12.0713C8.76272 12.0205 8.63201 11.9944 8.5 11.9944C8.36799 11.9944 8.23728 12.0205 8.11542 12.0713C7.99356 12.1221 7.88296 12.1965 7.79 12.2902L5 15.0902V6.00019C5 5.73497 5.10536 5.48062 5.29289 5.29308C5.48043 5.10554 5.73478 5.00019 6 5.00019H15C15.2652 5.00019 15.5196 4.89483 15.7071 4.70729C15.8946 4.51976 16 4.2654 16 4.00019C16 3.73497 15.8946 3.48061 15.7071 3.29308C15.5196 3.10554 15.2652 3.00019 15 3.00019H6C5.20435 3.00019 4.44129 3.31626 3.87868 3.87887C3.31607 4.44147 3 5.20454 3 6.00019V18.0002C3 18.7958 3.31607 19.5589 3.87868 20.1215C4.44129 20.6841 5.20435 21.0002 6 21.0002H18C18.7956 21.0002 19.5587 20.6841 20.1213 20.1215C20.6839 19.5589 21 18.7958 21 18.0002V9.00019C21 8.73497 20.8946 8.48062 20.7071 8.29308C20.5196 8.10554 20.2652 8.00019 20 8.00019ZM20.91 4.50019L21.71 3.71019C21.8983 3.52188 22.0041 3.26649 22.0041 3.00019C22.0041 2.73388 21.8983 2.47849 21.71 2.29019C21.5217 2.10188 21.2663 1.99609 21 1.99609C20.7337 1.99609 20.4783 2.10188 20.29 2.29019L19.5 3.09019L18.71 2.29019C18.6168 2.19695 18.5061 2.12299 18.3842 2.07253C18.2624 2.02207 18.1319 1.99609 18 1.99609C17.7337 1.99609 17.4783 2.10188 17.29 2.29019C17.1017 2.47849 16.9959 2.73388 16.9959 3.00019C16.9959 3.26649 17.1017 3.52188 17.29 3.71019L18.09 4.50019L17.29 5.29019C17.1963 5.38315 17.1219 5.49375 17.0711 5.61561C17.0203 5.73747 16.9942 5.86817 16.9942 6.00019C16.9942 6.1322 17.0203 6.2629 17.0711 6.38476C17.1219 6.50662 17.1963 6.61722 17.29 6.71019C17.383 6.80391 17.4936 6.87831 17.6154 6.92908C17.7373 6.97985 17.868 7.00598 18 7.00598C18.132 7.00598 18.2627 6.97985 18.3846 6.92908C18.5064 6.87831 18.617 6.80391 18.71 6.71019L19.5 5.91019L20.29 6.71019C20.383 6.80391 20.4936 6.87831 20.6154 6.92908C20.7373 6.97985 20.868 7.00598 21 7.00598C21.132 7.00598 21.2627 6.97985 21.3846 6.92908C21.5064 6.87831 21.617 6.80391 21.71 6.71019C21.8037 6.61722 21.8781 6.50662 21.9289 6.38476C21.9797 6.2629 22.0058 6.1322 22.0058 6.00019C22.0058 5.86817 21.9797 5.73747 21.9289 5.61561C21.8781 5.49375 21.8037 5.38315 21.71 5.29019L20.91 4.50019Z" fill="currentColor"/>
  </symbol>
  <symbol id="ic_photo_resize" viewBox="0 0 24 24">
    <path d="M9 13H5C4.46957 13 3.96086 13.2107 3.58579 13.5858C3.21071 13.9609 3 14.4696 3 15V19C3 19.5304 3.21071 20.0391 3.58579 20.4142C3.96086 20.7893 4.46957 21 5 21H9C9.53043 21 10.0391 20.7893 10.4142 20.4142C10.7893 20.0391 11 19.5304 11 19V15C11 14.4696 10.7893 13.9609 10.4142 13.5858C10.0391 13.2107 9.53043 13 9 13ZM18 3H6C5.20435 3 4.44129 3.31607 3.87868 3.87868C3.31607 4.44129 3 5.20435 3 6V11.56C3.60399 11.1964 4.29504 11.003 5 11H9C10.0609 11 11.0783 11.4214 11.8284 12.1716C12.5786 12.9217 13 13.9391 13 15V19C12.997 19.705 12.8036 20.396 12.44 21H18C18.7956 21 19.5587 20.6839 20.1213 20.1213C20.6839 19.5587 21 18.7956 21 18V6C21 5.20435 20.6839 4.44129 20.1213 3.87868C19.5587 3.31607 18.7956 3 18 3ZM19 9C19 9.26522 18.8946 9.51957 18.7071 9.70711C18.5196 9.89464 18.2652 10 18 10C17.7348 10 17.4804 9.89464 17.2929 9.70711C17.1054 9.51957 17 9.26522 17 9V8.41L14.71 10.71C14.617 10.8037 14.5064 10.8781 14.3846 10.9289C14.2627 10.9797 14.132 11.0058 14 11.0058C13.868 11.0058 13.7373 10.9797 13.6154 10.9289C13.4936 10.8781 13.383 10.8037 13.29 10.71C13.1963 10.617 13.1219 10.5064 13.0711 10.3846C13.0203 10.2627 12.9942 10.132 12.9942 10C12.9942 9.86799 13.0203 9.73728 13.0711 9.61542C13.1219 9.49356 13.1963 9.38296 13.29 9.29L15.59 7H15C14.7348 7 14.4804 6.89464 14.2929 6.70711C14.1054 6.51957 14 6.26522 14 6C14 5.73478 14.1054 5.48043 14.2929 5.29289C14.4804 5.10536 14.7348 5 15 5H18C18.1307 5.00158 18.2598 5.02876 18.38 5.08C18.6243 5.18147 18.8185 5.37565 18.92 5.62C18.9712 5.74022 18.9984 5.86932 19 6V9Z" fill="currentColor"/>
  </symbol>
  <symbol id="ic_photo_size" viewBox="0 0 24 24">
    <path d="M10 11C10.1978 11 10.3911 10.9414 10.5556 10.8315C10.72 10.7216 10.8482 10.5654 10.9239 10.3827C10.9996 10.2 11.0194 9.99889 10.9808 9.80491C10.9422 9.61093 10.847 9.43275 10.7071 9.29289C10.5673 9.15304 10.3891 9.0578 10.1951 9.01921C10.0011 8.98063 9.80004 9.00043 9.61732 9.07612C9.43459 9.15181 9.27841 9.27998 9.16853 9.44443C9.05865 9.60888 9 9.80222 9 10C9 10.2652 9.10536 10.5196 9.29289 10.7071C9.48043 10.8946 9.73478 11 10 11ZM7 20H5C4.73478 20 4.48043 19.8946 4.29289 19.7071C4.10536 19.5196 4 19.2652 4 19V17C4 16.7348 3.89464 16.4804 3.70711 16.2929C3.51957 16.1054 3.26522 16 3 16C2.73478 16 2.48043 16.1054 2.29289 16.2929C2.10536 16.4804 2 16.7348 2 17V19C2 19.7956 2.31607 20.5587 2.87868 21.1213C3.44129 21.6839 4.20435 22 5 22H7C7.26522 22 7.51957 21.8946 7.70711 21.7071C7.89464 21.5196 8 21.2652 8 21C8 20.7348 7.89464 20.4804 7.70711 20.2929C7.51957 20.1054 7.26522 20 7 20ZM19 2H17C16.7348 2 16.4804 2.10536 16.2929 2.29289C16.1054 2.48043 16 2.73478 16 3C16 3.26522 16.1054 3.51957 16.2929 3.70711C16.4804 3.89464 16.7348 4 17 4H19C19.2652 4 19.5196 4.10536 19.7071 4.29289C19.8946 4.48043 20 4.73478 20 5V7C20 7.26522 20.1054 7.51957 20.2929 7.70711C20.4804 7.89464 20.7348 8 21 8C21.2652 8 21.5196 7.89464 21.7071 7.70711C21.8946 7.51957 22 7.26522 22 7V5C22 4.20435 21.6839 3.44129 21.1213 2.87868C20.5587 2.31607 19.7956 2 19 2ZM16.75 6H7.25C6.91848 6 6.60054 6.1317 6.36612 6.36612C6.1317 6.60054 6 6.91848 6 7.25V16.75C6 17.0815 6.1317 17.3995 6.36612 17.6339C6.60054 17.8683 6.91848 18 7.25 18H16.75C17.0815 18 17.3995 17.8683 17.6339 17.6339C17.8683 17.3995 18 17.0815 18 16.75V7.25C18 6.91848 17.8683 6.60054 17.6339 6.36612C17.3995 6.1317 17.0815 6 16.75 6ZM16 12.09L15.21 11.29C15.1115 11.1912 14.9934 11.114 14.8632 11.0636C14.7331 11.0131 14.5939 10.9905 14.4545 10.9971C14.3151 11.0037 14.1786 11.0394 14.0538 11.1019C13.9291 11.1644 13.8187 11.2523 13.73 11.36L11.93 13.52L10.71 12.29C10.6166 12.1973 10.5057 12.124 10.3839 12.0742C10.2621 12.0245 10.1316 11.9992 10 12C9.85988 12.0055 9.72248 12.0403 9.59672 12.1024C9.47095 12.1644 9.35964 12.2522 9.27 12.36L8 13.84V8H16V12.09Z" fill="currentColor"/>
  </symbol>
</svg>
