<!-- JioGames DLS — plane icons (2 icons) -->
<svg xmlns="http://www.w3.org/2000/svg" style="display:none">
  <symbol id="ic_plane_arrival" viewBox="0 0 24 24">
    <path d="M19.25 15.1601L16.48 13.7801L14.41 6.72006C14.3701 6.58801 14.3033 6.46565 14.2138 6.36067C14.1243 6.2557 14.0141 6.17037 13.89 6.11006L11.89 5.11006C11.7335 5.03309 11.5597 4.99837 11.3856 5.00936C11.2116 5.02034 11.0435 5.07663 10.8979 5.17266C10.7524 5.26868 10.6345 5.40109 10.5559 5.55676C10.4773 5.71242 10.4408 5.88593 10.45 6.06006L10.72 10.9101L8.21001 9.65005L8.05001 6.76006C8.03957 6.58295 7.98221 6.41181 7.8838 6.2642C7.78539 6.11659 7.64948 5.99781 7.49001 5.92006L5.49001 4.92006C5.34914 4.84808 5.19321 4.81055 5.03501 4.81055C4.87682 4.81055 4.72088 4.84808 4.58001 4.92006C4.44129 4.99387 4.32192 5.09934 4.23157 5.22791C4.14123 5.35648 4.08245 5.50453 4.06001 5.66006L3.58001 9.05006C3.52354 9.44098 3.54483 9.83921 3.64264 10.2219C3.74046 10.6046 3.91288 10.9642 4.15001 11.2801L4.25001 11.4101C4.83092 12.1894 5.58829 12.82 6.46001 13.2501L17.57 18.7901C17.8206 18.9141 18.0944 18.9843 18.3738 18.996C18.6532 19.0076 18.932 18.9606 19.192 18.8579C19.4521 18.7552 19.6878 18.5991 19.8838 18.3996C20.0798 18.2002 20.2318 17.9619 20.33 17.7001C20.4939 17.218 20.4744 16.6924 20.2751 16.2238C20.0759 15.7552 19.7109 15.3765 19.25 15.1601Z" fill="currentColor"/>
  </symbol>
  <symbol id="ic_plane_departure" viewBox="0 0 24 24">
    <path d="M21.61 7.82012C21.3122 7.43215 20.8862 7.16277 20.408 7.06018C19.9298 6.95758 19.4307 7.02845 19 7.26012L16.24 8.65012L9.35 6.06012C9.22041 6.01283 9.08244 5.99285 8.94477 6.00146C8.80709 6.01006 8.67268 6.04706 8.55 6.11012L6.55 7.11012C6.39381 7.18838 6.26085 7.30618 6.16435 7.4518C6.06785 7.59743 6.01119 7.76579 6 7.94012C5.99057 8.11488 6.02716 8.28904 6.10613 8.44522C6.1851 8.6014 6.30367 8.73412 6.45 8.83012L10.45 11.5201L8 12.7801L5.55 11.1701C5.40331 11.0731 5.23362 11.0164 5.05805 11.0059C4.88248 10.9953 4.70723 11.0313 4.55 11.1101L2.54999 12.1101C2.40877 12.1806 2.28622 12.2834 2.19236 12.4103C2.09851 12.5372 2.03602 12.6845 2.00999 12.8401C1.98417 12.997 1.9961 13.1577 2.04479 13.309C2.09348 13.4603 2.17754 13.5978 2.28999 13.7101L4.71 16.1201C5.27206 16.6829 6.03461 16.9994 6.83 17.0001H7C7.9684 16.9978 8.9232 16.772 9.79 16.3401L20.89 10.7901C21.1503 10.66 21.379 10.4747 21.5603 10.2471C21.7416 10.0195 21.871 9.75509 21.9396 9.4723C22.0082 9.18951 22.0142 8.89517 21.9573 8.60981C21.9003 8.32445 21.7818 8.05496 21.61 7.82012Z" fill="currentColor"/>
  </symbol>
</svg>
