<!-- JioGames DLS — play icons (3 icons) -->
<svg xmlns="http://www.w3.org/2000/svg" style="display:none">
  <symbol id="ic_play" viewBox="0 0 24 24">
    <path d="M19.15 10.3601L9.15 3.36009C8.81279 3.12472 8.41123 2.99901 8 3.00009C7.67872 2.99689 7.36197 3.07607 7.08 3.23009C6.75541 3.39825 6.48312 3.65215 6.29271 3.96421C6.10231 4.27626 6.00107 4.63454 6 5.00009V19.0001C6.00107 19.3657 6.10231 19.7239 6.29271 20.036C6.48312 20.348 6.75541 20.6019 7.08 20.7701C7.36197 20.9241 7.67872 21.0033 8 21.0001C8.41123 21.0012 8.81279 20.8755 9.15 20.6401L19.15 13.6401C19.4141 13.4558 19.6297 13.2104 19.7786 12.9249C19.9275 12.6394 20.0053 12.3221 20.0053 12.0001C20.0053 11.6781 19.9275 11.3608 19.7786 11.0753C19.6297 10.7898 19.4141 10.5444 19.15 10.3601Z" fill="currentColor"/>
  </symbol>
  <symbol id="ic_play_circle" viewBox="0 0 24 24">
    <path d="M12 2C10.0222 2 8.08879 2.58649 6.4443 3.6853C4.79981 4.78412 3.51809 6.3459 2.76121 8.17317C2.00433 10.0004 1.8063 12.0111 2.19215 13.9509C2.578 15.8907 3.53041 17.6725 4.92894 19.0711C6.32746 20.4696 8.10929 21.422 10.0491 21.8079C11.9889 22.1937 13.9996 21.9957 15.8268 21.2388C17.6541 20.4819 19.2159 19.2002 20.3147 17.5557C21.4135 15.9112 22 13.9778 22 12C22 10.6868 21.7413 9.38642 21.2388 8.17317C20.7363 6.95991 19.9997 5.85752 19.0711 4.92893C18.1425 4.00035 17.0401 3.26375 15.8268 2.7612C14.6136 2.25866 13.3132 2 12 2ZM15.66 13.1L11.42 16.37C11.1979 16.5424 10.9319 16.649 10.6522 16.6775C10.3725 16.7061 10.0904 16.6554 9.83809 16.5313C9.58579 16.4073 9.37344 16.2148 9.22525 15.9759C9.07707 15.7369 8.99902 15.4612 9 15.18V8.64C8.99902 8.35885 9.07707 8.08308 9.22525 7.84414C9.37344 7.60521 9.58579 7.41273 9.83809 7.28867C10.0904 7.1646 10.3725 7.11394 10.6522 7.14247C10.9319 7.171 11.1979 7.27756 11.42 7.45L15.66 10.72C15.8425 10.8601 15.9904 11.0402 16.0921 11.2466C16.1939 11.4529 16.2468 11.6799 16.2468 11.91C16.2468 12.1401 16.1939 12.3671 16.0921 12.5734C15.9904 12.7798 15.8425 12.9599 15.66 13.1Z" fill="currentColor"/>
  </symbol>
  <symbol id="ic_play_pause" viewBox="0 0 24 24">
    <path d="M11.27 10.5201L5.00003 5.69013C4.72437 5.47631 4.39413 5.34431 4.04703 5.30923C3.69993 5.27415 3.34996 5.3374 3.03709 5.49175C2.72422 5.6461 2.46107 5.88532 2.27769 6.18211C2.09431 6.47889 1.99809 6.82127 2.00003 7.17013V16.8301C1.99809 17.179 2.09431 17.5214 2.27769 17.8182C2.46107 18.1149 2.72422 18.3542 3.03709 18.5085C3.34996 18.6629 3.69993 18.7261 4.04703 18.691C4.39413 18.656 4.72437 18.524 5.00003 18.3101L11.27 13.4801C11.4963 13.3054 11.6794 13.0812 11.8055 12.8246C11.9315 12.568 11.997 12.286 11.997 12.0001C11.997 11.7143 11.9315 11.4322 11.8055 11.1757C11.6794 10.9191 11.4963 10.6949 11.27 10.5201ZM15.5 6.00013C15.1022 6.00013 14.7207 6.15817 14.4394 6.43947C14.1581 6.72078 14 7.10231 14 7.50013V16.5001C14 16.898 14.1581 17.2795 14.4394 17.5608C14.7207 17.8421 15.1022 18.0001 15.5 18.0001C15.8979 18.0001 16.2794 17.8421 16.5607 17.5608C16.842 17.2795 17 16.898 17 16.5001V7.50013C17 7.10231 16.842 6.72078 16.5607 6.43947C16.2794 6.15817 15.8979 6.00013 15.5 6.00013ZM20.5 6.00013C20.1022 6.00013 19.7207 6.15817 19.4394 6.43947C19.1581 6.72078 19 7.10231 19 7.50013V16.5001C19 16.898 19.1581 17.2795 19.4394 17.5608C19.7207 17.8421 20.1022 18.0001 20.5 18.0001C20.8979 18.0001 21.2794 17.8421 21.5607 17.5608C21.842 17.2795 22 16.898 22 16.5001V7.50013C22 7.10231 21.842 6.72078 21.5607 6.43947C21.2794 6.15817 20.8979 6.00013 20.5 6.00013Z" fill="currentColor"/>
  </symbol>
</svg>
