<!-- JioGames DLS — playlist icons (3 icons) -->
<svg xmlns="http://www.w3.org/2000/svg" style="display:none">
  <symbol id="ic_playlist" viewBox="0 0 24 24">
    <path d="M4 6.99981H13C13.2652 6.99981 13.5196 6.89445 13.7071 6.70692C13.8946 6.51938 14 6.26503 14 5.99981C14 5.73459 13.8946 5.48024 13.7071 5.2927C13.5196 5.10517 13.2652 4.99981 13 4.99981H4C3.73478 4.99981 3.48043 5.10517 3.29289 5.2927C3.10536 5.48024 3 5.73459 3 5.99981C3 6.26503 3.10536 6.51938 3.29289 6.70692C3.48043 6.89445 3.73478 6.99981 4 6.99981ZM4 12.9998H13C13.2652 12.9998 13.5196 12.8945 13.7071 12.7069C13.8946 12.5194 14 12.265 14 11.9998C14 11.7346 13.8946 11.4802 13.7071 11.2927C13.5196 11.1052 13.2652 10.9998 13 10.9998H4C3.73478 10.9998 3.48043 11.1052 3.29289 11.2927C3.10536 11.4802 3 11.7346 3 11.9998C3 12.265 3.10536 12.5194 3.29289 12.7069C3.48043 12.8945 3.73478 12.9998 4 12.9998ZM20.58 5.18981C20.4518 5.09688 20.3033 5.03573 20.1469 5.0114C19.9904 4.98706 19.8304 5.00022 19.68 5.04981L16.68 6.04981C16.4814 6.1169 16.3089 6.24471 16.1868 6.41518C16.0648 6.58565 15.9995 6.79017 16 6.99981V15.0498C15.8352 15.0178 15.6678 15.0011 15.5 14.9998C15.0055 14.9998 14.5222 15.1464 14.1111 15.4211C13.7 15.6958 13.3795 16.0863 13.1903 16.5431C13.0011 16.9999 12.9516 17.5026 13.048 17.9875C13.1445 18.4725 13.3826 18.9179 13.7322 19.2676C14.0819 19.6172 14.5273 19.8553 15.0123 19.9518C15.4972 20.0482 15.9999 19.9987 16.4567 19.8095C16.9135 19.6203 17.304 19.2999 17.5787 18.8887C17.8534 18.4776 18 17.9943 18 17.4998V8.71981L20.32 7.99981C20.527 7.93023 20.7055 7.79482 20.8283 7.61424C20.9511 7.43367 21.0114 7.21788 21 6.99981V5.99981C20.9993 5.84116 20.9608 5.68496 20.8878 5.54412C20.8147 5.40327 20.7092 5.28183 20.58 5.18981ZM10 16.9998H4C3.73478 16.9998 3.48043 17.1052 3.29289 17.2927C3.10536 17.4802 3 17.7346 3 17.9998C3 18.265 3.10536 18.5194 3.29289 18.7069C3.48043 18.8945 3.73478 18.9998 4 18.9998H10C10.2652 18.9998 10.5196 18.8945 10.7071 18.7069C10.8946 18.5194 11 18.265 11 17.9998C11 17.7346 10.8946 17.4802 10.7071 17.2927C10.5196 17.1052 10.2652 16.9998 10 16.9998Z" fill="currentColor"/>
  </symbol>
  <symbol id="ic_playlist_add" viewBox="0 0 24 24">
    <path d="M4 7H10C10.2652 7 10.5196 6.89464 10.7071 6.70711C10.8946 6.51957 11 6.26522 11 6C11 5.73478 10.8946 5.48043 10.7071 5.29289C10.5196 5.10536 10.2652 5 10 5H4C3.73478 5 3.48043 5.10536 3.29289 5.29289C3.10536 5.48043 3 5.73478 3 6C3 6.26522 3.10536 6.51957 3.29289 6.70711C3.48043 6.89464 3.73478 7 4 7ZM13 10H15.5V12.5C15.5 12.7652 15.6054 13.0196 15.7929 13.2071C15.9804 13.3946 16.2348 13.5 16.5 13.5C16.7652 13.5 17.0196 13.3946 17.2071 13.2071C17.3946 13.0196 17.5 12.7652 17.5 12.5V10H20C20.2652 10 20.5196 9.89464 20.7071 9.70711C20.8946 9.51957 21 9.26522 21 9C21 8.73478 20.8946 8.48043 20.7071 8.29289C20.5196 8.10536 20.2652 8 20 8H17.5V5.5C17.5 5.23478 17.3946 4.98043 17.2071 4.79289C17.0196 4.60536 16.7652 4.5 16.5 4.5C16.2348 4.5 15.9804 4.60536 15.7929 4.79289C15.6054 4.98043 15.5 5.23478 15.5 5.5V8H13C12.7348 8 12.4804 8.10536 12.2929 8.29289C12.1054 8.48043 12 8.73478 12 9C12 9.26522 12.1054 9.51957 12.2929 9.70711C12.4804 9.89464 12.7348 10 13 10ZM4 13H10C10.2652 13 10.5196 12.8946 10.7071 12.7071C10.8946 12.5196 11 12.2652 11 12C11 11.7348 10.8946 11.4804 10.7071 11.2929C10.5196 11.1054 10.2652 11 10 11H4C3.73478 11 3.48043 11.1054 3.29289 11.2929C3.10536 11.4804 3 11.7348 3 12C3 12.2652 3.10536 12.5196 3.29289 12.7071C3.48043 12.8946 3.73478 13 4 13ZM20 17H4C3.73478 17 3.48043 17.1054 3.29289 17.2929C3.10536 17.4804 3 17.7348 3 18C3 18.2652 3.10536 18.5196 3.29289 18.7071C3.48043 18.8946 3.73478 19 4 19H20C20.2652 19 20.5196 18.8946 20.7071 18.7071C20.8946 18.5196 21 18.2652 21 18C21 17.7348 20.8946 17.4804 20.7071 17.2929C20.5196 17.1054 20.2652 17 20 17Z" fill="currentColor"/>
  </symbol>
  <symbol id="ic_playlist_successful" viewBox="0 0 24 24">
    <path d="M3.61004 6.92C3.73403 6.97038 3.86623 6.9975 4.00004 7H20C20.1339 6.9975 20.2661 6.97038 20.39 6.92C20.6287 6.81873 20.8188 6.6287 20.92 6.39C20.9723 6.26662 20.9992 6.13399 20.9992 6C20.9992 5.86601 20.9723 5.73338 20.92 5.61C20.869 5.49502 20.7979 5.39005 20.71 5.3C20.62 5.21216 20.515 5.14105 20.4 5.09C20.2736 5.03497 20.1379 5.00443 20 5H4.00004C3.86623 5.0025 3.73403 5.02962 3.61004 5.08C3.49507 5.13105 3.3901 5.20216 3.30004 5.29C3.2122 5.38005 3.14109 5.48502 3.09004 5.6C3.03779 5.72338 3.01086 5.85601 3.01086 5.99C3.01086 6.12399 3.03779 6.25662 3.09004 6.38C3.18679 6.62062 3.37324 6.81424 3.61004 6.92ZM10.39 17.08C10.2661 17.0296 10.1339 17.0025 10 17H4.00004C3.86623 17.0025 3.73403 17.0296 3.61004 17.08C3.37134 17.1813 3.18131 17.3713 3.08004 17.61C3.02779 17.7334 3.00086 17.866 3.00086 18C3.00086 18.134 3.02779 18.2666 3.08004 18.39C3.18131 18.6287 3.37134 18.8187 3.61004 18.92C3.73403 18.9704 3.86623 18.9975 4.00004 19H10C10.1339 18.9975 10.2661 18.9704 10.39 18.92C10.6287 18.8187 10.8188 18.6287 10.92 18.39C10.9723 18.2666 10.9992 18.134 10.9992 18C10.9992 17.866 10.9723 17.7334 10.92 17.61C10.8188 17.3713 10.6287 17.1813 10.39 17.08ZM10.71 11.29C10.6166 11.1973 10.5058 11.124 10.3839 11.0742C10.2621 11.0245 10.1316 10.9992 10 11H4.00004C3.73483 11 3.48047 11.1054 3.29294 11.2929C3.1054 11.4804 3.00004 11.7348 3.00004 12C2.99055 12.0864 2.99055 12.1736 3.00004 12.26C2.9955 12.2999 2.9955 12.3401 3.00004 12.38C3.0798 12.5758 3.21954 12.7412 3.39921 12.8526C3.57887 12.964 3.78922 13.0156 4.00004 13H10C10.1975 12.999 10.3902 12.9396 10.5539 12.8293C10.7176 12.7189 10.845 12.5626 10.92 12.38C10.9246 12.3401 10.9246 12.2999 10.92 12.26C10.9566 12.1767 10.9834 12.0894 11 12C11.0008 11.8684 10.9756 11.7379 10.9258 11.6161C10.876 11.4943 10.8027 11.3834 10.71 11.29ZM19.29 12.79L15.5 16.59L13.71 14.79C13.6168 14.6968 13.5061 14.6228 13.3843 14.5723C13.2625 14.5219 13.1319 14.4959 13 14.4959C12.8682 14.4959 12.7376 14.5219 12.6158 14.5723C12.494 14.6228 12.3833 14.6968 12.29 14.79C12.1968 14.8832 12.1228 14.9939 12.0724 15.1158C12.0219 15.2376 11.996 15.3681 11.996 15.5C11.996 15.6319 12.0219 15.7624 12.0724 15.8842C12.1228 16.0061 12.1968 16.1168 12.29 16.21L14.79 18.71C14.883 18.8037 14.9936 18.8781 15.1155 18.9289C15.2373 18.9797 15.368 19.0058 15.5 19.0058C15.6321 19.0058 15.7628 18.9797 15.8846 18.9289C16.0065 18.8781 16.1171 18.8037 16.21 18.71L20.71 14.21C20.8033 14.1168 20.8772 14.0061 20.9277 13.8842C20.9782 13.7624 21.0041 13.6319 21.0041 13.5C21.0041 13.3681 20.9782 13.2376 20.9277 13.1158C20.8772 12.9939 20.8033 12.8832 20.71 12.79C20.6168 12.6968 20.5061 12.6228 20.3843 12.5723C20.2625 12.5219 20.1319 12.4959 20 12.4959C19.8682 12.4959 19.7376 12.5219 19.6158 12.5723C19.494 12.6228 19.3833 12.6968 19.29 12.79Z" fill="currentColor"/>
  </symbol>
</svg>
