<!-- JioGames DLS — prescription icons (1 icons) -->
<svg xmlns="http://www.w3.org/2000/svg" style="display:none">
  <symbol id="ic_prescription" viewBox="0 0 24 24">
    <path d="M9.57 5.71C9.57 5.29 9.39 5.29 9.29 5.29H8.33V6.13H9.29C9.39 6.13 9.57 6.13 9.57 5.71Z" fill="currentColor"/>
<path d="M16.52 2H7.48C6.11 2 5 3.11 5 4.48V19.52C5 20.89 6.11 22 7.48 22H16.52C17.89 22 19 20.89 19 19.52V4.48C19 3.11 17.89 2 16.52 2ZM7 4.62C7 4.26 7.27 4 7.64 4H9.3C10.09 4 10.9 4.53 10.9 5.71C10.9 6.79 10.23 7.32 9.5 7.4L10.07 8.25L10.79 7.16C11.21 6.63 12 6.93 12 7.53V7.65L11.92 7.82L10.87 9.4L11.97 11.12L12 11.34C12 11.73 11.64 12 11.32 12C11.11 12 10.92 11.89 10.8 11.71L10.07 10.57L9.35 11.7C9.22 11.9 9.03 12 8.82 12C8.5 12 8.14 11.73 8.14 11.34V11.22L8.22 11.04L9.28 9.4L8.34 8.02V8.45C8.34 8.82 8.06 9.09 7.67 9.09C7.28 9.09 7 8.82 7 8.45V4.62ZM8 15H13C13.55 15 14 15.45 14 16C14 16.55 13.55 17 13 17H8C7.45 17 7 16.55 7 16C7 15.45 7.45 15 8 15ZM16 20H8C7.45 20 7 19.55 7 19C7 18.45 7.45 18 8 18H16C16.55 18 17 18.45 17 19C17 19.55 16.55 20 16 20Z" fill="currentColor"/>
  </symbol>
</svg>
