<!-- JioGames DLS — profile icons (3 icons) -->
<svg xmlns="http://www.w3.org/2000/svg" style="display:none">
  <symbol id="ic_profile" viewBox="0 0 24 24">
    <path fill-rule="evenodd" clip-rule="evenodd" d="M16 6C16 8.20914 14.2091 10 12 10C9.79086 10 8 8.20914 8 6C8 3.79086 9.79086 2 12 2C14.2091 2 16 3.79086 16 6ZM20 16.5C20 19.5376 16.4183 22 12 22C7.58172 22 4 19.5376 4 16.5C4 13.4624 7.58172 11 12 11C16.4183 11 20 13.4624 20 16.5Z" fill="currentColor"/>
  </symbol>
  <symbol id="ic_profile_female" viewBox="0 0 24 24">
    <path d="M12 12C9.87827 12 7.84344 12.8429 6.34315 14.3431C4.84285 15.8434 4 17.8783 4 20C4 20.5304 4.21071 21.0391 4.58579 21.4142C4.96086 21.7893 5.46957 22 6 22H18C18.5304 22 19.0391 21.7893 19.4142 21.4142C19.7893 21.0391 20 20.5304 20 20C20 17.8783 19.1571 15.8434 17.6569 14.3431C16.1566 12.8429 14.1217 12 12 12ZM12 11C13.0161 11.0428 14.0263 10.8267 14.9359 10.3719C15.8455 9.91708 16.6246 9.23855 17.2 8.4L17.5 7.87L17.09 7.41C16.6916 6.91223 16.3867 6.34644 16.19 5.74C15.79 4.45 15.05 2.05 12 2C9 2 8.22 4.45 7.83 5.74C7.63213 6.34699 7.31983 6.91048 6.91 7.4L6.5 7.87L6.81 8.4C7.38447 9.23707 8.16194 9.91469 9.06965 10.3694C9.97735 10.8241 10.9856 11.0411 12 11Z" fill="currentColor"/>
  </symbol>
  <symbol id="ic_profile_male" viewBox="0 0 24 24">
    <path d="M10.78 10.8401C11.5508 11.0562 12.3652 11.0632 13.1396 10.8605C13.914 10.6578 14.6204 10.2526 15.1865 9.68657C15.7525 9.12054 16.1577 8.41405 16.3604 7.63966C16.5631 6.86527 16.5561 6.05087 16.34 5.2801C16.1352 4.53412 15.7399 3.85425 15.1929 3.30724C14.6459 2.76024 13.966 2.36491 13.22 2.1601C12.4492 1.94402 11.6348 1.93697 10.8604 2.13969C10.086 2.34241 9.37956 2.74759 8.81353 3.31362C8.2475 3.87966 7.84232 4.58614 7.6396 5.36053C7.43688 6.13493 7.44392 6.94933 7.66 7.7201C7.86481 8.46607 8.26014 9.14595 8.80714 9.69295C9.35415 10.24 10.034 10.6353 10.78 10.8401ZM12 12.0001C9.87827 12.0001 7.84344 12.843 6.34315 14.3432C4.84285 15.8435 4 17.8784 4 20.0001C4 20.5305 4.21071 21.0392 4.58579 21.4143C4.96086 21.7894 5.46957 22.0001 6 22.0001H18C18.5304 22.0001 19.0391 21.7894 19.4142 21.4143C19.7893 21.0392 20 20.5305 20 20.0001C20 17.8784 19.1571 15.8435 17.6569 14.3432C16.1566 12.843 14.1217 12.0001 12 12.0001Z" fill="currentColor"/>
  </symbol>
</svg>
