<!-- JioGames DLS — protection icons (4 icons) -->
<svg xmlns="http://www.w3.org/2000/svg" style="display:none">
  <symbol id="ic_protection" viewBox="0 0 24 24">
    <path d="M20.46 4.68C20.1284 4.29684 19.6638 4.05381 19.16 4C16.9552 3.76898 14.8088 3.14942 12.82 2.17C12.5648 2.04466 12.2843 1.97949 12 1.97949C11.7157 1.97949 11.4352 2.04466 11.18 2.17C9.20579 3.15045 7.07225 3.77019 4.88 4C4.37562 4.04408 3.90514 4.27236 3.55837 4.64127C3.21159 5.01017 3.01282 5.49386 3 6V11C3 17.74 9.75 22 12 22C14.25 22 21 17.75 21 11V6C20.9883 5.50859 20.7961 5.03869 20.46 4.68ZM15.71 10.68L11.71 14.68C11.617 14.7737 11.5064 14.8481 11.3846 14.8989C11.2627 14.9497 11.132 14.9758 11 14.9758C10.868 14.9758 10.7373 14.9497 10.6154 14.8989C10.4936 14.8481 10.383 14.7737 10.29 14.68L8.29 12.68C8.1017 12.4917 7.99591 12.2363 7.99591 11.97C7.99591 11.7037 8.1017 11.4483 8.29 11.26C8.4783 11.0717 8.7337 10.9659 9 10.9659C9.2663 10.9659 9.5217 11.0717 9.71 11.26L11 12.59L14.29 9.29C14.4783 9.1017 14.7337 8.99591 15 8.99591C15.2663 8.99591 15.5217 9.1017 15.71 9.29C15.8983 9.4783 16.0041 9.7337 16.0041 10C16.0041 10.2663 15.8983 10.5217 15.71 10.71V10.68Z" fill="currentColor"/>
  </symbol>
  <symbol id="ic_protection_locked" viewBox="0 0 24 24">
    <path d="M20 14.28V14C20 13.2044 19.6839 12.4413 19.1213 11.8787C18.5587 11.3161 17.7956 11 17 11C16.2044 11 15.4413 11.3161 14.8787 11.8787C14.3161 12.4413 14 13.2044 14 14V14.28C13.6977 14.4545 13.4464 14.7051 13.2709 15.0068C13.0955 15.3086 13.0021 15.651 13 16V20C13 20.5304 13.2107 21.0391 13.5858 21.4142C13.9609 21.7893 14.4696 22 15 22H19C19.5304 22 20.0391 21.7893 20.4142 21.4142C20.7893 21.0391 21 20.5304 21 20V16C20.9979 15.651 20.9045 15.3086 20.7291 15.0068C20.5536 14.7051 20.3023 14.4545 20 14.28ZM17 19C16.8022 19 16.6089 18.9414 16.4444 18.8315C16.28 18.7216 16.1518 18.5654 16.0761 18.3827C16.0004 18.2 15.9806 17.9989 16.0192 17.8049C16.0578 17.6109 16.153 17.4327 16.2929 17.2929C16.4327 17.153 16.6109 17.0578 16.8049 17.0192C16.9989 16.9806 17.2 17.0004 17.3827 17.0761C17.5654 17.1518 17.7216 17.28 17.8315 17.4444C17.9414 17.6089 18 17.8022 18 18C18 18.2652 17.8946 18.5196 17.7071 18.7071C17.5196 18.8946 17.2652 19 17 19ZM16 14C16 13.7348 16.1054 13.4804 16.2929 13.2929C16.4804 13.1054 16.7348 13 17 13C17.2652 13 17.5196 13.1054 17.7071 13.2929C17.8946 13.4804 18 13.7348 18 14H16ZM20.46 4.69C20.1301 4.30312 19.6653 4.0564 19.16 4C16.9552 3.76898 14.8088 3.14942 12.82 2.17C12.5648 2.04466 12.2843 1.97949 12 1.97949C11.7157 1.97949 11.4352 2.04466 11.18 2.17C9.20579 3.15045 7.07225 3.77019 4.88 4C4.37562 4.04408 3.90514 4.27236 3.55837 4.64127C3.21159 5.01017 3.01282 5.49386 3 6V11C3 16.92 8.21 20.93 11 21.81V15C11 13.4087 11.6321 11.8826 12.7574 10.7574C13.8826 9.63214 15.4087 9 17 9C18.4787 8.99666 19.9053 9.5459 21 10.54V6C20.9859 5.51207 20.7938 5.04614 20.46 4.69Z" fill="currentColor"/>
  </symbol>
  <symbol id="ic_protection_threats" viewBox="0 0 24 24">
    <path d="M20.46 4.68C20.1284 4.29684 19.6638 4.05381 19.16 4C16.9552 3.76898 14.8088 3.14942 12.82 2.17C12.5648 2.04466 12.2843 1.97949 12 1.97949C11.7157 1.97949 11.4352 2.04466 11.18 2.17C9.20579 3.15045 7.07225 3.77019 4.88 4C4.37562 4.04408 3.90514 4.27236 3.55837 4.64127C3.21159 5.01017 3.01282 5.49386 3 6V11C3 17.74 9.75 22 12 22C14.25 22 21 17.75 21 11V6C20.9883 5.50859 20.7961 5.03869 20.46 4.68ZM11 6.5C11 6.23478 11.1054 5.98043 11.2929 5.79289C11.4804 5.60536 11.7348 5.5 12 5.5C12.2652 5.5 12.5196 5.60536 12.7071 5.79289C12.8946 5.98043 13 6.23478 13 6.5V12.5C13 12.7652 12.8946 13.0196 12.7071 13.2071C12.5196 13.3946 12.2652 13.5 12 13.5C11.7348 13.5 11.4804 13.3946 11.2929 13.2071C11.1054 13.0196 11 12.7652 11 12.5V6.5ZM13.06 18.06C12.8153 18.3049 12.4934 18.4577 12.1489 18.4923C11.8044 18.5269 11.4586 18.4413 11.17 18.25C10.9215 18.0823 10.727 17.8461 10.61 17.57C10.499 17.2975 10.4712 16.9983 10.53 16.71C10.5865 16.418 10.729 16.1496 10.9393 15.9393C11.1496 15.729 11.418 15.5865 11.71 15.53C11.9983 15.4712 12.2975 15.499 12.57 15.61C12.8461 15.727 13.0823 15.9215 13.25 16.17C13.4413 16.4586 13.5269 16.8044 13.4923 17.1489C13.4577 17.4934 13.3049 17.8153 13.06 18.06Z" fill="currentColor"/>
  </symbol>
  <symbol id="ic_protection_unlock" viewBox="0 0 24 24">
    <path d="M19 14H16C15.9992 13.8684 16.0245 13.7379 16.0742 13.6161C16.124 13.4943 16.1973 13.3834 16.29 13.29C16.4469 13.1351 16.6507 13.0364 16.8695 13.0093C17.0883 12.9821 17.31 13.0281 17.5 13.14C17.6138 13.2124 17.7411 13.2609 17.8742 13.2828C18.0073 13.3047 18.1434 13.2995 18.2744 13.2674C18.4054 13.2353 18.5285 13.177 18.6364 13.0961C18.7443 13.0152 18.8348 12.9133 18.9022 12.7965C18.9697 12.6798 19.0129 12.5506 19.0292 12.4167C19.0454 12.2828 19.0345 12.147 18.9969 12.0175C18.9593 11.8879 18.8959 11.7673 18.8105 11.663C18.7251 11.5586 18.6195 11.4725 18.5 11.41C17.9289 11.0793 17.2647 10.9461 16.6103 11.0311C15.9559 11.116 15.3477 11.4144 14.88 11.88C14.5683 12.1883 14.328 12.5612 14.176 12.9724C14.0239 13.3836 13.9639 13.8231 14 14.26C13.6948 14.4362 13.4416 14.6899 13.266 14.9955C13.0903 15.301 12.9986 15.6476 13 16V20C13 20.5304 13.2107 21.0391 13.5858 21.4142C13.9609 21.7893 14.4696 22 15 22H19C19.5304 22 20.0391 21.7893 20.4142 21.4142C20.7893 21.0391 21 20.5304 21 20V16C21 15.4696 20.7893 14.9609 20.4142 14.5858C20.0391 14.2107 19.5304 14 19 14ZM17 19C16.8022 19 16.6089 18.9414 16.4444 18.8315C16.28 18.7216 16.1518 18.5654 16.0761 18.3827C16.0004 18.2 15.9806 17.9989 16.0192 17.8049C16.0578 17.6109 16.153 17.4327 16.2929 17.2929C16.4327 17.153 16.6109 17.0578 16.8049 17.0192C16.9989 16.9806 17.2 17.0004 17.3827 17.0761C17.5654 17.1518 17.7216 17.28 17.8315 17.4444C17.9414 17.6089 18 17.8022 18 18C18 18.2652 17.8946 18.5196 17.7071 18.7071C17.5196 18.8946 17.2652 19 17 19ZM20.46 4.69C20.1301 4.30312 19.6653 4.0564 19.16 4C16.9552 3.76898 14.8088 3.14942 12.82 2.17C12.5648 2.04466 12.2843 1.97949 12 1.97949C11.7157 1.97949 11.4352 2.04466 11.18 2.17C9.20579 3.15045 7.07225 3.77019 4.88 4C4.37562 4.04408 3.90514 4.27236 3.55837 4.64127C3.21159 5.01017 3.01282 5.49386 3 6V11C3 16.92 8.21 20.93 11 21.81V15C11 13.4087 11.6321 11.8826 12.7574 10.7574C13.8826 9.63214 15.4087 9 17 9C18.4787 8.99666 19.9053 9.5459 21 10.54V6C20.9859 5.51207 20.7938 5.04614 20.46 4.69Z" fill="currentColor"/>
  </symbol>
</svg>
