<!-- JioGames DLS — racing icons (2 icons) -->
<svg xmlns="http://www.w3.org/2000/svg" style="display:none">
  <symbol id="ic_racing_car" viewBox="0 0 24 24">
    <path d="M20.5 16C20.2348 16 19.9804 16.1053 19.7929 16.2929C19.6054 16.4804 19.5 16.7347 19.5 17V18H17.41L16.2 6.99996H18.5V7.99996C18.5 8.26518 18.6054 8.51953 18.7929 8.70707C18.9804 8.89461 19.2348 8.99996 19.5 8.99996C19.7652 8.99996 20.0196 8.89461 20.2071 8.70707C20.3946 8.51953 20.5 8.26518 20.5 7.99996V3.99996C20.5 3.73475 20.3946 3.48039 20.2071 3.29286C20.0196 3.10532 19.7652 2.99996 19.5 2.99996C19.2348 2.99996 18.9804 3.10532 18.7929 3.29286C18.6054 3.48039 18.5 3.73475 18.5 3.99996V4.99996H16V4.83996C15.8702 4.01797 15.4409 3.27308 14.7947 2.74873C14.1485 2.22439 13.3311 1.95768 12.5 1.99996C11.6689 1.95768 10.8515 2.22439 10.2053 2.74873C9.55914 3.27308 9.1298 4.01797 9 4.83996V4.99996H6.5V3.99996C6.5 3.73475 6.39464 3.48039 6.20711 3.29286C6.01957 3.10532 5.76522 2.99996 5.5 2.99996C5.23478 2.99996 4.98043 3.10532 4.79289 3.29286C4.60536 3.48039 4.5 3.73475 4.5 3.99996V7.99996C4.5 8.26518 4.60536 8.51953 4.79289 8.70707C4.98043 8.89461 5.23478 8.99996 5.5 8.99996C5.76522 8.99996 6.01957 8.89461 6.20711 8.70707C6.39464 8.51953 6.5 8.26518 6.5 7.99996V6.99996H8.8L7.59 18H5.5V17C5.5 16.7347 5.39464 16.4804 5.20711 16.2929C5.01957 16.1053 4.76522 16 4.5 16C4.23478 16 3.98043 16.1053 3.79289 16.2929C3.60536 16.4804 3.5 16.7347 3.5 17V21C3.5 21.2652 3.60536 21.5195 3.79289 21.7071C3.98043 21.8946 4.23478 22 4.5 22C4.76522 22 5.01957 21.8946 5.20711 21.7071C5.39464 21.5195 5.5 21.2652 5.5 21V20H7.69C7.89574 20.5819 8.27597 21.0862 8.77885 21.4442C9.28173 21.8021 9.88277 21.9962 10.5 22H14.5C15.1189 21.9982 15.7222 21.8051 16.2271 21.447C16.7319 21.089 17.1137 20.5835 17.32 20H19.5V21C19.5 21.2652 19.6054 21.5195 19.7929 21.7071C19.9804 21.8946 20.2348 22 20.5 22C20.7652 22 21.0196 21.8946 21.2071 21.7071C21.3946 21.5195 21.5 21.2652 21.5 21V17C21.5 16.7347 21.3946 16.4804 21.2071 16.2929C21.0196 16.1053 20.7652 16 20.5 16ZM14.28 19H10.72C10.57 19.003 10.4213 18.9723 10.2848 18.91C10.1483 18.8478 10.0276 18.7556 9.93153 18.6404C9.8355 18.5251 9.76662 18.3897 9.73 18.2443C9.69339 18.0988 9.68997 17.9469 9.72 17.8L10.11 16C10.2232 15.4497 10.5227 14.9553 10.9582 14.6003C11.3936 14.2453 11.9382 14.0514 12.5 14.0514C13.0618 14.0514 13.6064 14.2453 14.0418 14.6003C14.4773 14.9553 14.7768 15.4497 14.89 16L15.26 17.84C15.2831 17.9824 15.2751 18.1281 15.2366 18.2671C15.198 18.4061 15.1299 18.5351 15.0368 18.6453C14.9437 18.7555 14.8278 18.8443 14.6972 18.9055C14.5666 18.9667 14.4243 18.9989 14.28 19ZM12.5 16C12.3022 16 12.1089 16.0586 11.9444 16.1685C11.78 16.2784 11.6518 16.4346 11.5761 16.6173C11.5004 16.8 11.4806 17.0011 11.5192 17.1951C11.5578 17.389 11.653 17.5672 11.7929 17.7071C11.9327 17.8469 12.1109 17.9422 12.3049 17.9807C12.4989 18.0193 12.7 17.9995 12.8827 17.9238C13.0654 17.8482 13.2216 17.72 13.3315 17.5555C13.4414 17.3911 13.5 17.1977 13.5 17C13.5 16.7347 13.3946 16.4804 13.2071 16.2929C13.0196 16.1053 12.7652 16 12.5 16Z" fill="currentColor"/>
  </symbol>
  <symbol id="ic_racing_racetrack" viewBox="0 0 24 24">
    <path d="M20 19H17V15H20.19C20.275 15.0002 20.3586 14.9787 20.4329 14.9376C20.5073 14.8964 20.57 14.8371 20.615 14.765C20.66 14.6929 20.686 14.6106 20.6903 14.5257C20.6947 14.4409 20.6774 14.3563 20.64 14.28L20 13L20.64 11.72C20.6774 11.6437 20.6947 11.5591 20.6903 11.4743C20.686 11.3894 20.66 11.3071 20.615 11.235C20.57 11.1629 20.5073 11.1036 20.4329 11.0624C20.3586 11.0213 20.275 10.9998 20.19 11H15V19H12C10.1435 19 8.36301 18.2625 7.05025 16.9497C5.7375 15.637 5 13.8565 5 12C5 10.1435 5.7375 8.36301 7.05025 7.05025C8.36301 5.7375 10.1435 5 12 5H20C20.2652 5 20.5196 4.89464 20.7071 4.70711C20.8946 4.51957 21 4.26522 21 4C21 3.73478 20.8946 3.48043 20.7071 3.29289C20.5196 3.10536 20.2652 3 20 3H12C9.61305 3 7.32387 3.94821 5.63604 5.63604C3.94821 7.32387 3 9.61305 3 12C3 14.3869 3.94821 16.6761 5.63604 18.364C7.32387 20.0518 9.61305 21 12 21H20C20.2652 21 20.5196 20.8946 20.7071 20.7071C20.8946 20.5196 21 20.2652 21 20C21 19.7348 20.8946 19.4804 20.7071 19.2929C20.5196 19.1054 20.2652 19 20 19ZM20 7H12C10.6739 7 9.40215 7.52678 8.46447 8.46447C7.52678 9.40215 7 10.6739 7 12C7 13.3261 7.52678 14.5979 8.46447 15.5355C9.40215 16.4732 10.6739 17 12 17H13V15H12C11.2044 15 10.4413 14.6839 9.87868 14.1213C9.31607 13.5587 9 12.7956 9 12C9 11.2044 9.31607 10.4413 9.87868 9.87868C10.4413 9.31607 11.2044 9 12 9H20C20.2652 9 20.5196 8.89464 20.7071 8.70711C20.8946 8.51957 21 8.26522 21 8C21 7.73478 20.8946 7.48043 20.7071 7.29289C20.5196 7.10536 20.2652 7 20 7Z" fill="currentColor"/>
  </symbol>
</svg>
