<!-- JioGames DLS — radio icons (5 icons) -->
<svg xmlns="http://www.w3.org/2000/svg" style="display:none">
  <symbol id="ic_radio" viewBox="0 0 24 24">
    <path d="M20 6C20.2577 5.99983 20.5111 5.93324 20.7356 5.80668C20.9601 5.68011 21.1482 5.49783 21.2818 5.27741C21.4154 5.057 21.4899 4.80588 21.4982 4.54828C21.5065 4.29068 21.4483 4.03528 21.3292 3.80673C21.21 3.57817 21.034 3.38417 20.8181 3.24342C20.6022 3.10267 20.3537 3.01993 20.0965 3.00317C19.8393 2.98642 19.5821 3.03621 19.3498 3.14776C19.1175 3.2593 18.9178 3.42883 18.77 3.64L5.77 6.58C4.9858 6.74534 4.28239 7.17555 3.77797 7.79834C3.27354 8.42113 2.99884 9.19856 3 10V18C3 18.7956 3.31607 19.5587 3.87868 20.1213C4.44129 20.6839 5.20435 21 6 21H18C18.7957 21 19.5587 20.6839 20.1213 20.1213C20.6839 19.5587 21 18.7956 21 18V10C21 9.20435 20.6839 8.44129 20.1213 7.87868C19.5587 7.31607 18.7957 7 18 7H13L19 5.63C19.2748 5.87499 19.6319 6.00715 20 6ZM13 14C13 14.5933 12.8241 15.1734 12.4944 15.6667C12.1648 16.1601 11.6962 16.5446 11.1481 16.7716C10.5999 16.9987 9.99668 17.0581 9.41473 16.9424C8.83279 16.8266 8.29824 16.5409 7.87868 16.1213C7.45913 15.7018 7.1734 15.1672 7.05765 14.5853C6.94189 14.0033 7.0013 13.4001 7.22837 12.8519C7.45543 12.3038 7.83995 11.8352 8.33329 11.5056C8.82664 11.1759 9.40666 11 10 11C10.7957 11 11.5587 11.3161 12.1213 11.8787C12.6839 12.4413 13 13.2044 13 14Z" fill="currentColor"/>
  </symbol>
  <symbol id="ic_radio_off" viewBox="0 0 24 24">
    <g clip-path="url(#clip0_33414_144135)">
<path d="M12 0C5.38 0 0 5.38 0 12C0 18.62 5.38 24 12 24C18.62 24 24 18.62 24 12C24 5.38 18.62 0 12 0ZM12 21.6C6.7 21.6 2.4 17.3 2.4 12C2.4 6.7 6.7 2.4 12 2.4C17.3 2.4 21.6 6.7 21.6 12C21.6 17.3 17.3 21.6 12 21.6Z" fill="currentColor"/>
</g>
<defs>
<clipPath id="clip0_33414_144135">
<rect width="24" height="24" fill="currentColor"/>
</clipPath>
</defs>
  </symbol>
  <symbol id="ic_radio_on" viewBox="0 0 24 24">
    <g clip-path="url(#clip0_33414_144136)">
<path d="M12 0C5.38 0 0 5.38 0 12C0 18.62 5.38 24 12 24C18.62 24 24 18.62 24 12C24 5.38 18.62 0 12 0ZM12 21.6C6.7 21.6 2.4 17.3 2.4 12C2.4 6.7 6.7 2.4 12 2.4C17.3 2.4 21.6 6.7 21.6 12C21.6 17.3 17.3 21.6 12 21.6Z" fill="currentColor"/>
<path d="M12 18C15.31 18 18 15.31 18 12C18 8.69 15.31 6 12 6C8.69 6 6 8.69 6 12C6 15.31 8.69 18 12 18Z" fill="currentColor"/>
</g>
<defs>
<clipPath id="clip0_33414_144136">
<rect width="24" height="24" fill="currentColor"/>
</clipPath>
</defs>
  </symbol>
  <symbol id="ic_radio_signal" viewBox="0 0 24 24">
    <path d="M11.9999 9.99991C11.6044 9.99991 11.2177 10.1172 10.8888 10.337C10.5599 10.5567 10.3036 10.8691 10.1522 11.2345C10.0008 11.6 9.9612 12.0021 10.0384 12.3901C10.1155 12.7781 10.306 13.1344 10.5857 13.4141C10.8654 13.6938 11.2218 13.8843 11.6098 13.9615C11.9977 14.0387 12.3999 13.999 12.7653 13.8477C13.1308 13.6963 13.4431 13.4399 13.6629 13.1111C13.8826 12.7822 13.9999 12.3955 13.9999 11.9999C13.9999 11.4695 13.7892 10.9608 13.4142 10.5857C13.0391 10.2106 12.5304 9.99991 11.9999 9.99991ZM3.99994 11.9999C3.99911 10.949 4.20534 9.90827 4.60685 8.93711C5.00835 7.96595 5.59727 7.08341 6.33994 6.33991C6.50377 6.14861 6.58937 5.90253 6.57965 5.65086C6.56993 5.39918 6.4656 5.16044 6.2875 4.98235C6.10941 4.80425 5.87067 4.69992 5.61899 4.6902C5.36732 4.68048 5.12124 4.76608 4.92994 4.92991C3.05523 6.80519 2.00208 9.34827 2.00208 11.9999C2.00208 14.6516 3.05523 17.1946 4.92994 19.0699C5.1173 19.2562 5.37075 19.3607 5.63494 19.3607C5.89913 19.3607 6.15258 19.2562 6.33994 19.0699C6.52619 18.8825 6.63073 18.6291 6.63073 18.3649C6.63073 18.1007 6.52619 17.8473 6.33994 17.6599C5.59727 16.9164 5.00835 16.0339 4.60685 15.0627C4.20534 14.0915 3.99911 13.0508 3.99994 11.9999ZM9.16994 7.75991C8.98258 7.57366 8.72913 7.46912 8.46494 7.46912C8.20075 7.46912 7.9473 7.57366 7.75994 7.75991C6.63634 8.88491 6.00522 10.4099 6.00522 11.9999C6.00522 13.5899 6.63634 15.1149 7.75994 16.2399C7.9473 16.4262 8.20075 16.5307 8.46494 16.5307C8.72913 16.5307 8.98258 16.4262 9.16994 16.2399C9.35619 16.0525 9.46073 15.7991 9.46073 15.5349C9.46073 15.2707 9.35619 15.0173 9.16994 14.8299C8.79803 14.4584 8.503 14.0173 8.3017 13.5317C8.1004 13.0461 7.99679 12.5256 7.99679 11.9999C7.99679 11.4742 8.1004 10.9537 8.3017 10.4681C8.503 9.98256 8.79803 9.5414 9.16994 9.16991C9.35619 8.98255 9.46073 8.7291 9.46073 8.46491C9.46073 8.20072 9.35619 7.94727 9.16994 7.75991ZM16.2399 7.75991C16.0486 7.59608 15.8026 7.51048 15.5509 7.5202C15.2992 7.52992 15.0605 7.63425 14.8824 7.81235C14.7043 7.99044 14.5999 8.22918 14.5902 8.48086C14.5805 8.73253 14.6661 8.97861 14.8299 9.16991C15.2018 9.5414 15.4969 9.98256 15.6982 10.4681C15.8995 10.9537 16.0031 11.4742 16.0031 11.9999C16.0031 12.5256 15.8995 13.0461 15.6982 13.5317C15.4969 14.0173 15.2018 14.4584 14.8299 14.8299C14.6437 15.0173 14.5391 15.2707 14.5391 15.5349C14.5391 15.7991 14.6437 16.0525 14.8299 16.2399C15.0173 16.4262 15.2708 16.5307 15.5349 16.5307C15.7991 16.5307 16.0526 16.4262 16.2399 16.2399C17.3635 15.1149 17.9947 13.5899 17.9947 11.9999C17.9947 10.4099 17.3635 8.88491 16.2399 7.75991ZM19.0699 4.92991C18.8786 4.76608 18.6326 4.68048 18.3809 4.6902C18.1292 4.69992 17.8905 4.80425 17.7124 4.98235C17.5343 5.16044 17.4299 5.39918 17.4202 5.65086C17.4105 5.90253 17.4961 6.14861 17.6599 6.33991C18.4038 7.0829 18.9938 7.9652 19.3964 8.93639C19.799 9.90757 20.0062 10.9486 20.0062 11.9999C20.0062 13.0512 19.799 14.0922 19.3964 15.0634C18.9938 16.0346 18.4038 16.9169 17.6599 17.6599C17.4737 17.8473 17.3691 18.1007 17.3691 18.3649C17.3691 18.6291 17.4737 18.8825 17.6599 19.0699C17.8473 19.2562 18.1008 19.3607 18.3649 19.3607C18.6291 19.3607 18.8826 19.2562 19.0699 19.0699C20.9446 17.1946 21.9978 14.6516 21.9978 11.9999C21.9978 9.34827 20.9446 6.80519 19.0699 4.92991Z" fill="currentColor"/>
  </symbol>
  <symbol id="ic_radio_station" viewBox="0 0 24 24">
    <path d="M9.16994 5.76011C8.98258 5.57386 8.72913 5.46932 8.46494 5.46932C8.20075 5.46932 7.9473 5.57386 7.75994 5.76011C6.63634 6.88511 6.00522 8.4101 6.00522 10.0001C6.00522 11.5901 6.63634 13.1151 7.75994 14.2401C7.9473 14.4264 8.20075 14.5309 8.46494 14.5309C8.72913 14.5309 8.98258 14.4264 9.16994 14.2401C9.35619 14.0527 9.46073 13.7993 9.46073 13.5351C9.46073 13.2709 9.35619 13.0175 9.16994 12.8301C8.79803 12.4586 8.503 12.0175 8.3017 11.5319C8.1004 11.0463 7.99679 10.5258 7.99679 10.0001C7.99679 9.47445 8.1004 8.95394 8.3017 8.46835C8.503 7.98276 8.79803 7.5416 9.16994 7.17011C9.35619 6.98275 9.46073 6.7293 9.46073 6.46511C9.46073 6.20092 9.35619 5.94747 9.16994 5.76011ZM3.99994 10.0001C3.99911 8.94923 4.20534 7.90847 4.60685 6.93731C5.00835 5.96615 5.59727 5.08361 6.33994 4.34011C6.44462 4.25046 6.52964 4.14015 6.58967 4.01608C6.64969 3.89202 6.68342 3.75688 6.68874 3.61916C6.69406 3.48144 6.67085 3.34411 6.62058 3.21579C6.5703 3.08746 6.49404 2.97091 6.39659 2.87346C6.29914 2.776 6.18259 2.69975 6.05426 2.64947C5.92594 2.5992 5.78861 2.57599 5.65089 2.58131C5.51317 2.58663 5.37803 2.62036 5.25397 2.68038C5.1299 2.74041 5.01959 2.82543 4.92994 2.93011C3.05523 4.80539 2.00208 7.34847 2.00208 10.0001C2.00208 12.6518 3.05523 15.1948 4.92994 17.0701C5.1173 17.2564 5.37075 17.3609 5.63494 17.3609C5.89913 17.3609 6.15258 17.2564 6.33994 17.0701C6.52619 16.8827 6.63073 16.6293 6.63073 16.3651C6.63073 16.1009 6.52619 15.8475 6.33994 15.6601C5.59727 14.9166 5.00835 14.0341 4.60685 13.0629C4.20534 12.0917 3.99911 11.051 3.99994 10.0001ZM16.2399 5.76011C16.0486 5.59628 15.8026 5.51068 15.5509 5.5204C15.2992 5.53012 15.0605 5.63445 14.8824 5.81255C14.7043 5.99064 14.5999 6.22938 14.5902 6.48106C14.5805 6.73273 14.6661 6.97881 14.8299 7.17011C15.2018 7.5416 15.4969 7.98276 15.6982 8.46835C15.8995 8.95394 16.0031 9.47445 16.0031 10.0001C16.0031 10.5258 15.8995 11.0463 15.6982 11.5319C15.4969 12.0175 15.2018 12.4586 14.8299 12.8301C14.6437 13.0175 14.5391 13.2709 14.5391 13.5351C14.5391 13.7993 14.6437 14.0527 14.8299 14.2401C15.0173 14.4264 15.2708 14.5309 15.5349 14.5309C15.7991 14.5309 16.0526 14.4264 16.2399 14.2401C17.3635 13.1151 17.9947 11.5901 17.9947 10.0001C17.9947 8.4101 17.3635 6.88511 16.2399 5.76011ZM19.0699 2.93011C18.8786 2.76628 18.6326 2.68068 18.3809 2.6904C18.1292 2.70012 17.8905 2.80445 17.7124 2.98255C17.5343 3.16064 17.4299 3.39938 17.4202 3.65106C17.4105 3.90273 17.4961 4.14881 17.6599 4.34011C18.4038 5.08309 18.9938 5.9654 19.3964 6.93659C19.799 7.90777 20.0062 8.94879 20.0062 10.0001C20.0062 11.0514 19.799 12.0924 19.3964 13.0636C18.9938 14.0348 18.4038 14.9171 17.6599 15.6601C17.4737 15.8475 17.3691 16.1009 17.3691 16.3651C17.3691 16.6293 17.4737 16.8827 17.6599 17.0701C17.8473 17.2564 18.1008 17.3609 18.3649 17.3609C18.6291 17.3609 18.8826 17.2564 19.0699 17.0701C20.9446 15.1948 21.9978 12.6518 21.9978 10.0001C21.9978 7.34847 20.9446 4.80539 19.0699 2.93011ZM11.9999 8.00011C11.4695 8.00011 10.9608 8.21082 10.5857 8.5859C10.2107 8.96097 9.99994 9.46968 9.99994 10.0001C10.002 10.3491 10.0955 10.6915 10.2709 10.9933C10.4463 11.295 10.6977 11.5456 10.9999 11.7201V21.0001C10.9999 21.2653 11.1053 21.5197 11.2928 21.7072C11.4804 21.8948 11.7347 22.0001 11.9999 22.0001C12.2652 22.0001 12.5195 21.8948 12.707 21.7072C12.8946 21.5197 12.9999 21.2653 12.9999 21.0001V11.7201C13.3022 11.5456 13.5536 11.295 13.729 10.9933C13.9044 10.6915 13.9978 10.3491 13.9999 10.0001C13.9999 9.46968 13.7892 8.96097 13.4142 8.5859C13.0391 8.21082 12.5304 8.00011 11.9999 8.00011Z" fill="currentColor"/>
  </symbol>
</svg>
