<!-- JioGames DLS — rain icons (3 icons) -->
<svg xmlns="http://www.w3.org/2000/svg" style="display:none">
  <symbol id="ic_rain" viewBox="0 0 24 24">
    <path d="M19.91 11.15C19.52 9.35 17.92 8 16 8C14.5 8 13.21 8.83 12.53 10.05C12.36 10.02 12.18 10 12 10C10.34 10 9 11.34 9 13C7.9 13 7 13.9 7 15C7 16.1 7.9 17 9 17H19C20.66 17 22 15.66 22 14C22 12.66 21.12 11.54 19.91 11.15ZM11.53 8.02C12.41 7.03 13.6 6.36 14.89 6.11C14.48 4.33 12.9 3 11 3C9.5 3 8.21 3.83 7.53 5.05C7.36 5.02 7.18 5 7 5C5.34 5 4 6.34 4 8C2.9 8 2 8.9 2 10C2 11.1 2.9 12 4 12H6.36C6.63 11.76 6.94 11.56 7.26 11.4C7.88 9.57 9.54 8.21 11.53 8.02ZM9.2 18.4L7.7 20.4C7.37 20.84 7.46 21.47 7.9 21.8C8.08 21.93 8.29 22 8.5 22C8.8 22 9.1 21.86 9.3 21.6L10.8 19.6C11.13 19.16 11.04 18.53 10.6 18.2C10.16 17.87 9.53 17.96 9.2 18.4ZM13.2 18.4L11.7 20.4C11.37 20.84 11.46 21.47 11.9 21.8C12.08 21.93 12.29 22 12.5 22C12.8 22 13.1 21.86 13.3 21.6L14.8 19.6C15.13 19.16 15.04 18.53 14.6 18.2C14.16 17.87 13.53 17.96 13.2 18.4ZM17.2 18.4L15.7 20.4C15.37 20.84 15.46 21.47 15.9 21.8C16.08 21.93 16.29 22 16.5 22C16.8 22 17.1 21.86 17.3 21.6L18.8 19.6C19.13 19.16 19.04 18.53 18.6 18.2C18.16 17.87 17.53 17.96 17.2 18.4Z" fill="currentColor"/>
  </symbol>
  <symbol id="ic_rain_sleet" viewBox="0 0 24 24">
    <path d="M4.5 15.5C4 15.5 3 17.17 3 18C3 18.83 3.67 19.5 4.5 19.5C5.33 19.5 6 18.83 6 18C6 17.17 5 15.5 4.5 15.5ZM19.71 15.79C19.32 15.4 18.69 15.4 18.3 15.79L18.01 16.08L17.72 15.79C17.33 15.4 16.7 15.4 16.31 15.79C15.92 16.18 15.92 16.81 16.31 17.2L16.6 17.49L16.31 17.78C15.92 18.17 15.92 18.8 16.31 19.19C16.51 19.39 16.76 19.48 17.02 19.48C17.28 19.48 17.53 19.38 17.73 19.19L18.02 18.9L18.31 19.19C18.51 19.39 18.76 19.48 19.02 19.48C19.28 19.48 19.53 19.38 19.73 19.19C20.12 18.8 20.12 18.17 19.73 17.78L19.44 17.49L19.73 17.2C20.12 16.81 20.12 16.18 19.73 15.79H19.71ZM19.44 8.38C19.47 8.17 19.5 7.96 19.5 7.75C19.5 5.13 17.37 3 14.75 3C13.11 3 11.67 3.83 10.82 5.09C10.56 5.03 10.28 5 10 5C8.13 5 6.58 6.28 6.14 8.01C6.09 8.01 6.05 8 6 8C4.34 8 3 9.34 3 11C3 12.66 4.34 14 6 14H18C19.66 14 21 12.66 21 11C21 9.87 20.36 8.89 19.44 8.38ZM14.5 15.63C14.02 15.35 13.41 15.52 13.13 16L11.13 19.46C10.85 19.94 11.02 20.55 11.5 20.83C11.98 21.11 12.59 20.94 12.87 20.46L14.87 17C15.15 16.52 14.98 15.91 14.5 15.63ZM10.5 15.63C10.02 15.35 9.41 15.52 9.13 16L7.13 19.46C6.85 19.94 7.02 20.55 7.5 20.83C7.98 21.11 8.59 20.94 8.87 20.46L10.87 17C11.15 16.52 10.98 15.91 10.5 15.63Z" fill="currentColor"/>
  </symbol>
  <symbol id="ic_rain_snow" viewBox="0 0 24 24">
    <path d="M19.44 8.38C19.47 8.17 19.5 7.96 19.5 7.75C19.5 5.13 17.37 3 14.75 3C13.11 3 11.67 3.83 10.82 5.09C10.56 5.03 10.28 5 10 5C8.13 5 6.58 6.28 6.14 8.01C6.09 8.01 6.05 8 6 8C4.34 8 3 9.34 3 11C3 12.66 4.34 14 6 14H18C19.66 14 21 12.66 21 11C21 9.87 20.36 8.89 19.44 8.38ZM8.71 15.79C8.32 15.4 7.69 15.4 7.3 15.79L7.01 16.08L6.72 15.79C6.33 15.4 5.7 15.4 5.31 15.79C4.92 16.18 4.92 16.81 5.31 17.2L5.6 17.49L5.31 17.78C4.92 18.17 4.92 18.8 5.31 19.19C5.51 19.39 5.76 19.48 6.02 19.48C6.28 19.48 6.53 19.38 6.73 19.19L7.02 18.9L7.31 19.19C7.51 19.39 7.76 19.48 8.02 19.48C8.28 19.48 8.53 19.38 8.73 19.19C9.12 18.8 9.12 18.17 8.73 17.78L8.44 17.49L8.73 17.2C9.12 16.81 9.12 16.18 8.73 15.79H8.71ZM13.5 15.63C13.02 15.35 12.41 15.52 12.13 16L10.13 19.46C9.85 19.94 10.02 20.55 10.5 20.83C10.98 21.11 11.59 20.94 11.87 20.46L13.87 17C14.15 16.52 13.98 15.91 13.5 15.63ZM17.5 15.63C17.02 15.35 16.41 15.52 16.13 16L14.13 19.46C13.85 19.94 14.02 20.55 14.5 20.83C14.98 21.11 15.59 20.94 15.87 20.46L17.87 17C18.15 16.52 17.98 15.91 17.5 15.63Z" fill="currentColor"/>
  </symbol>
</svg>
