<!-- JioGames DLS — ratio icons (4 icons) -->
<svg xmlns="http://www.w3.org/2000/svg" style="display:none">
  <symbol id="ic_ratio_1" viewBox="0 0 24 24">
    <path d="M21.12 2.88C20.56 2.32 19.79 2 19 2H17C16.73 2 16.48 2.11 16.29 2.29C16.1 2.48 16 2.73 16 3C16 3.27 16.11 3.52 16.29 3.71C16.47 3.9 16.73 4 17 4H19C19.27 4 19.52 4.11 19.71 4.29C19.9 4.48 20 4.73 20 5V7C20 7.27 20.11 7.52 20.29 7.71C20.47 7.9 20.73 8 21 8C21.27 8 21.52 7.89 21.71 7.71C21.9 7.53 22 7.27 22 7V5C22 4.2 21.68 3.44 21.12 2.88ZM7 20H5C4.73 20 4.48 19.89 4.29 19.71C4.1 19.53 4 19.27 4 19V17C4 16.73 3.89 16.48 3.71 16.29C3.52 16.1 3.27 16 3 16C2.73 16 2.48 16.11 2.29 16.29C2.1 16.47 2 16.73 2 17V19C2 19.8 2.32 20.56 2.88 21.12C3.44 21.68 4.21 22 5 22H7C7.27 22 7.52 21.89 7.71 21.71C7.9 21.52 8 21.27 8 21C8 20.73 7.89 20.48 7.71 20.29C7.52 20.1 7.27 20 7 20ZM12.1 13.97C11.5 13.97 11.09 14.39 11.09 14.99C11.09 15.59 11.5 16 12.1 16C12.7 16 13.13 15.59 13.13 14.99C13.13 14.39 12.71 13.97 12.1 13.97ZM9.21 8C9.07 8 8.79 8.05 8.54 8.3L6.86 9.96C6.63 10.19 6.54 10.41 6.54 10.62C6.54 11.11 7.06 11.56 7.52 11.56C7.71 11.56 7.92 11.48 8.12 11.28C8.15 11.25 8.19 11.22 8.22 11.22C8.28 11.22 8.28 11.29 8.28 11.32V15.18C8.28 15.8 8.75 16 9.2 16C9.65 16 10.12 15.81 10.12 15.18V8.96C10.12 8.23 9.67 7.99 9.21 7.99V8ZM16.55 8C16.41 8 16.13 8.05 15.88 8.3L14.2 9.96C13.97 10.19 13.88 10.41 13.88 10.62C13.88 11.11 14.4 11.56 14.86 11.56C15.05 11.56 15.26 11.48 15.46 11.28C15.49 11.25 15.53 11.22 15.56 11.22C15.62 11.22 15.62 11.29 15.62 11.32V15.18C15.62 15.8 16.09 16 16.54 16C16.99 16 17.46 15.81 17.46 15.18V8.96C17.46 8.23 17.01 7.99 16.55 7.99V8ZM12.09 10.27C11.49 10.27 11.08 10.69 11.08 11.29C11.08 11.89 11.49 12.3 12.09 12.3C12.69 12.3 13.12 11.89 13.12 11.29C13.12 10.69 12.7 10.27 12.09 10.27Z" fill="currentColor"/>
  </symbol>
  <symbol id="ic_ratio_2" viewBox="0 0 24 24">
    <path d="M7 20H5C4.73 20 4.48 19.89 4.29 19.71C4.1 19.53 4 19.27 4 19V17C4 16.73 3.89 16.48 3.71 16.29C3.52 16.1 3.27 16 3 16C2.73 16 2.48 16.11 2.29 16.29C2.1 16.47 2 16.73 2 17V19C2 19.8 2.32 20.56 2.88 21.12C3.44 21.68 4.21 22 5 22H7C7.27 22 7.52 21.89 7.71 21.71C7.9 21.52 8 21.27 8 21C8 20.73 7.89 20.48 7.71 20.29C7.52 20.1 7.27 20 7 20ZM21.12 2.88C20.56 2.32 19.79 2 19 2H17C16.73 2 16.48 2.11 16.29 2.29C16.1 2.48 16 2.73 16 3C16 3.27 16.11 3.52 16.29 3.71C16.47 3.9 16.73 4 17 4H19C19.27 4 19.52 4.11 19.71 4.29C19.9 4.48 20 4.73 20 5V7C20 7.27 20.11 7.52 20.29 7.71C20.47 7.9 20.73 8 21 8C21.27 8 21.52 7.89 21.71 7.71C21.9 7.53 22 7.27 22 7V5C22 4.2 21.68 3.44 21.12 2.88ZM9.84 13.1H9.79C9.71 13.1 9.69 13.07 9.69 12.99V12.67C9.69 12.04 9.26 11.85 8.79 11.85C8.32 11.85 7.89 12.04 7.89 12.67V12.99C7.89 13.07 7.87 13.1 7.79 13.1H7.23C7.23 13.1 7.13 13.08 7.13 13.02C7.13 12.99 7.15 12.94 7.16 12.91L8.68 9.26C8.75 9.1 8.77 8.98 8.77 8.85C8.77 8.32 8.2 8 7.75 8C7.48 8 7.2 8.14 7.05 8.55L5.28 13.15C5.2 13.37 5.03 13.83 5.03 14.1C5.03 14.59 5.35 14.87 6.06 14.87H7.74C7.82 14.87 7.84 14.9 7.84 14.97V15.17C7.84 15.79 8.31 15.99 8.76 15.99C9.21 15.99 9.68 15.8 9.68 15.17V14.97C9.68 14.9 9.7 14.87 9.78 14.87H9.83C10.45 14.87 10.7 14.53 10.7 13.98C10.7 13.43 10.45 13.09 9.83 13.09L9.84 13.1ZM18.19 11.98C18.19 11.98 18.13 11.92 18.13 11.89C18.13 11.86 18.15 11.82 18.19 11.8C18.55 11.48 18.84 10.98 18.84 10.29C18.84 8.94 17.91 8.01 16.36 8.01C15.41 8.01 14.84 8.32 14.41 8.75C14.23 8.94 14 9.23 14 9.53C14 10.02 14.51 10.4 14.93 10.4C15.23 10.4 15.38 10.29 15.53 10.15C15.81 9.95 16.01 9.75 16.36 9.75C16.74 9.75 16.99 10 16.99 10.41C16.99 10.8 16.72 11.08 16.34 11.08H16.23C15.72 11.08 15.46 11.41 15.46 11.89C15.46 12.37 15.7 12.72 16.22 12.72H16.33C16.78 12.72 17.11 13.04 17.11 13.49C17.11 13.94 16.81 14.25 16.36 14.25C15.95 14.25 15.66 14.01 15.5 13.85C15.2 13.57 15.06 13.53 14.88 13.53C14.39 13.53 13.94 14.06 13.94 14.43C13.94 14.67 14.08 14.91 14.19 15.03C14.45 15.31 15.05 16 16.37 16C18.04 16 18.98 14.93 18.98 13.6C18.98 12.78 18.57 12.28 18.2 11.98H18.19ZM12.25 10.27C11.65 10.27 11.24 10.69 11.24 11.29C11.24 11.89 11.65 12.3 12.25 12.3C12.85 12.3 13.28 11.89 13.28 11.29C13.28 10.69 12.86 10.27 12.25 10.27ZM12.25 13.96C11.65 13.96 11.24 14.38 11.24 14.98C11.24 15.58 11.65 15.99 12.25 15.99C12.85 15.99 13.28 15.58 13.28 14.98C13.28 14.38 12.86 13.96 12.25 13.96Z" fill="currentColor"/>
  </symbol>
  <symbol id="ic_ratio_3" viewBox="0 0 24 24">
    <path d="M7 20H5C4.73 20 4.48 19.89 4.29 19.71C4.1 19.53 4 19.27 4 19V17.99C4 17.73 3.89 17.47 3.71 17.28C3.52 17.09 3.27 16.99 3 16.99C2.73 16.99 2.48 17.1 2.29 17.28C2.1 17.46 2 17.72 2 17.99V19C2 19.79 2.32 20.56 2.88 21.12C3.44 21.68 4.21 22 5 22H7C7.27 22 7.52 21.89 7.71 21.71C7.9 21.52 8 21.27 8 21C8 20.73 7.89 20.48 7.71 20.29C7.52 20.1 7.27 20 7 20ZM21.12 2.88C20.56 2.32 19.79 2 19 2H17C16.73 2 16.48 2.11 16.29 2.29C16.1 2.47 16 2.73 16 3C16 3.27 16.11 3.52 16.29 3.71C16.48 3.9 16.73 4 17 4H19C19.27 4 19.52 4.11 19.71 4.29C19.9 4.47 20 4.73 20 5V6C20 6.27 20.11 6.52 20.29 6.71C20.47 6.9 20.73 7 21 7C21.27 7 21.52 6.89 21.71 6.71C21.9 6.53 22 6.27 22 6V5C22 4.2 21.68 3.44 21.12 2.88ZM3.64 11.56C3.83 11.56 4.04 11.48 4.24 11.28C4.27 11.25 4.31 11.22 4.34 11.22C4.4 11.22 4.4 11.29 4.4 11.32V15.18C4.4 15.8 4.87 16 5.32 16C5.77 16 6.24 15.81 6.24 15.18V8.96C6.24 8.23 5.79 7.99 5.33 7.99C5.19 7.99 4.91 8.04 4.66 8.29L2.98 9.95C2.75 10.18 2.66 10.4 2.66 10.61C2.66 11.1 3.18 11.55 3.64 11.55V11.56ZM18.67 8C16.97 8 16.11 9.07 16.11 10.76C16.11 12.34 17 13.26 18.55 13.26C18.78 13.26 18.97 13.24 19.21 13.16C19.21 13.16 19.3 13.13 19.32 13.13C19.39 13.13 19.39 13.16 19.39 13.21C19.38 13.46 19.34 13.69 19.26 13.87C19.16 14.12 18.86 14.26 18.48 14.26C18.35 14.26 18.15 14.23 17.9 14.08C17.67 13.94 17.55 13.9 17.35 13.9C16.9 13.9 16.48 14.4 16.48 14.8C16.48 15.2 16.79 15.45 17.01 15.58C17.54 15.91 18.07 16.01 18.5 16.01C20.99 16.01 21.32 14.31 21.32 12.01C21.32 9.71 20.96 8.01 18.66 8.01L18.67 8ZM19.36 10.66C19.36 11.02 19.27 11.56 18.67 11.56C18.1 11.56 17.97 11.03 17.97 10.66C17.97 10.29 18.11 9.76 18.67 9.76C19.23 9.76 19.36 10.28 19.36 10.61V10.66ZM14.36 10.27C13.76 10.27 13.35 10.69 13.35 11.29C13.35 11.89 13.76 12.3 14.36 12.3C14.96 12.3 15.39 11.89 15.39 11.29C15.39 10.69 14.97 10.27 14.36 10.27ZM10.19 10.74C9.96 10.74 9.77 10.76 9.53 10.84C9.53 10.84 9.44 10.87 9.42 10.87C9.35 10.87 9.35 10.84 9.35 10.79C9.36 10.54 9.4 10.31 9.47 10.13C9.57 9.88 9.87 9.74 10.25 9.74C10.37 9.74 10.58 9.77 10.83 9.92C11.06 10.06 11.18 10.1 11.38 10.1C11.83 10.1 12.25 9.6 12.25 9.2C12.25 8.8 11.94 8.55 11.72 8.42C11.19 8.09 10.66 7.99 10.23 7.99C7.74 7.99 7.41 9.69 7.41 11.99C7.41 14.29 7.77 15.99 10.07 15.99C11.77 15.99 12.63 14.92 12.63 13.23C12.63 11.65 11.74 10.73 10.19 10.73V10.74ZM10.08 14.24C9.53 14.24 9.39 13.72 9.39 13.39V13.34C9.39 12.98 9.48 12.44 10.08 12.44C10.65 12.44 10.78 12.97 10.78 13.34C10.78 13.71 10.64 14.24 10.08 14.24ZM14.37 13.97C13.77 13.97 13.36 14.39 13.36 14.99C13.36 15.59 13.77 16 14.37 16C14.97 16 15.4 15.59 15.4 14.99C15.4 14.39 14.98 13.97 14.37 13.97Z" fill="currentColor"/>
  </symbol>
  <symbol id="ic_ratio_full" viewBox="0 0 24 24">
    <path d="M17.24 14.38C16.97 14.38 16.84 14.2 16.84 13.91V8.62C16.84 7.96 16.36 7.75 15.86 7.75C15.36 7.75 14.88 7.96 14.88 8.62V14.19C14.88 15.46 15.41 16.25 16.71 16.25C17.6 16.25 17.87 15.89 17.87 15.31C17.87 14.73 17.65 14.38 17.23 14.38H17.24ZM12.7 9.82C12.21 9.82 11.72 10.03 11.72 10.69V13.51C11.72 13.73 11.7 13.93 11.6 14.09C11.49 14.26 11.33 14.37 11.06 14.37C10.82 14.37 10.69 14.25 10.59 14.09C10.49 13.93 10.47 13.69 10.47 13.51V10.69C10.47 10.03 9.98 9.82 9.49 9.82C9 9.82 8.51 10.03 8.51 10.69V14.18C8.51 15.12 8.98 16.25 10.33 16.25C10.99 16.25 11.44 15.91 11.66 15.74C11.66 15.74 11.71 15.7 11.74 15.7C11.79 15.7 11.8 15.72 11.82 15.78C11.95 16.12 12.35 16.24 12.71 16.24C13.18 16.24 13.66 16.03 13.66 15.37V10.68C13.66 10.02 13.17 9.81 12.68 9.81L12.7 9.82ZM7.13 7.81H3.27C2.76 7.81 2.31 8.05 2.31 8.74V15.4C2.31 16.09 2.86 16.26 3.32 16.26C3.8 16.26 4.36 16.09 4.36 15.4V12.96C4.36 12.88 4.38 12.85 4.47 12.85H6.38C7.06 12.85 7.26 12.38 7.26 11.88C7.26 11.38 7.06 10.89 6.38 10.89H4.47C4.39 10.89 4.36 10.87 4.36 10.78V9.86C4.36 9.78 4.38 9.75 4.47 9.75H7.13C7.8 9.75 8.01 9.28 8.01 8.78C8.01 8.28 7.8 7.79 7.13 7.79V7.81ZM21.05 14.38C20.78 14.38 20.65 14.2 20.65 13.91V8.62C20.65 7.96 20.17 7.75 19.67 7.75C19.17 7.75 18.69 7.96 18.69 8.62V14.19C18.69 15.46 19.22 16.25 20.52 16.25C21.41 16.25 21.68 15.89 21.68 15.31C21.68 14.73 21.46 14.38 21.04 14.38H21.05ZM21.12 2.88C20.56 2.32 19.79 2 19 2H17C16.73 2 16.48 2.11 16.29 2.29C16.1 2.47 16 2.73 16 3C16 3.27 16.11 3.52 16.29 3.71C16.48 3.9 16.73 4 17 4H19C19.27 4 19.52 4.11 19.71 4.29C19.9 4.47 20 4.73 20 5V6C20 6.27 20.11 6.52 20.29 6.71C20.47 6.9 20.73 7 21 7C21.27 7 21.52 6.89 21.71 6.71C21.9 6.53 22 6.27 22 6V5C22 4.2 21.68 3.44 21.12 2.88ZM7 20H5C4.73 20 4.48 19.89 4.29 19.71C4.1 19.53 4 19.27 4 19V17.99C4 17.73 3.89 17.47 3.71 17.28C3.52 17.09 3.27 16.99 3 16.99C2.73 16.99 2.48 17.1 2.29 17.28C2.1 17.46 2 17.72 2 17.99V19C2 19.79 2.32 20.56 2.88 21.12C3.44 21.68 4.21 22 5 22H7C7.27 22 7.52 21.89 7.71 21.71C7.9 21.52 8 21.27 8 21C8 20.73 7.89 20.48 7.71 20.29C7.52 20.1 7.27 20 7 20Z" fill="currentColor"/>
  </symbol>
</svg>
