<!-- JioGames DLS — recharge icons (3 icons) -->
<svg xmlns="http://www.w3.org/2000/svg" style="display:none">
  <symbol id="ic_recharge_friend" viewBox="0 0 24 24">
    <path d="M17 7H18V8C18 8.26522 18.1054 8.51957 18.2929 8.70711C18.4804 8.89464 18.7348 9 19 9C19.2652 9 19.5196 8.89464 19.7071 8.70711C19.8946 8.51957 20 8.26522 20 8V7H21C21.1986 7.00115 21.3931 6.94313 21.5586 6.83333C21.7241 6.72353 21.8532 6.56693 21.9294 6.38348C22.0055 6.20004 22.0254 5.99807 21.9863 5.80332C21.9472 5.60857 21.851 5.42987 21.71 5.29C21.6166 5.19732 21.5057 5.12399 21.3839 5.07423C21.2621 5.02446 21.1316 4.99924 21 5H20V4C20 3.73478 19.8946 3.48043 19.7071 3.29289C19.5196 3.10536 19.2652 3 19 3C18.7348 3 18.4804 3.10536 18.2929 3.29289C18.1054 3.48043 18 3.73478 18 4V5H17C16.8014 4.99884 16.6069 5.05687 16.4414 5.16667C16.2759 5.27647 16.1468 5.43307 16.0706 5.61652C15.9945 5.79996 15.9746 6.00193 16.0137 6.19668C16.0528 6.39143 16.149 6.57013 16.29 6.71C16.3834 6.80268 16.4943 6.87601 16.6161 6.92577C16.7379 6.97554 16.8684 7.00076 17 7ZM16.76 10.47C15.9329 10.058 15.2394 9.41999 14.76 8.63C14.2669 7.84111 14.0037 6.9303 14 6C14.0031 5.66433 14.0365 5.32963 14.1 5H5C4.20435 5 3.44129 5.31607 2.87868 5.87868C2.31607 6.44129 2 7.20435 2 8V16C2 16.7956 2.31607 17.5587 2.87868 18.1213C3.44129 18.6839 4.20435 19 5 19H19C19.7956 19 20.5587 18.6839 21.1213 18.1213C21.6839 17.5587 22 16.7956 22 16V10C21.2565 10.5576 20.3724 10.8969 19.4468 10.9799C18.5212 11.0629 17.5908 10.8864 16.76 10.47ZM6.94 8.47C7.18471 8.22508 7.50661 8.07234 7.85109 8.03771C8.19558 8.00308 8.54144 8.08868 8.83 8.28C9.0785 8.44774 9.27303 8.68394 9.39 8.96C9.50099 9.23248 9.52883 9.53172 9.47 9.82C9.41354 10.112 9.27098 10.3804 9.06069 10.5907C8.8504 10.801 8.58199 10.9435 8.29 11C8.00172 11.0588 7.70248 11.031 7.43 10.92C7.15394 10.803 6.91774 10.6085 6.75 10.36C6.55868 10.0714 6.47308 9.72558 6.50771 9.38109C6.54234 9.03661 6.69508 8.71471 6.94 8.47ZM10.71 15.74C10.5165 15.9162 10.2616 16.0096 10 16H6C5.73478 16 5.48043 15.8946 5.29289 15.7071C5.10536 15.5196 5 15.2652 5 15C5 14.2044 5.31607 13.4413 5.87868 12.8787C6.44129 12.3161 7.20435 12 8 12C8.79565 12 9.55871 12.3161 10.1213 12.8787C10.6839 13.4413 11 14.2044 11 15C11.0008 15.1316 10.9755 15.2621 10.9258 15.3839C10.876 15.5057 10.8027 15.6166 10.71 15.71V15.74Z" fill="currentColor"/>
  </symbol>
  <symbol id="ic_recharge_history" viewBox="0 0 24 24">
    <path d="M17 12C16.0111 12 15.0444 12.2932 14.2221 12.8427C13.3999 13.3921 12.759 14.173 12.3806 15.0866C12.0022 16.0002 11.9031 17.0055 12.0961 17.9755C12.289 18.9454 12.7652 19.8363 13.4645 20.5355C14.1637 21.2348 15.0546 21.711 16.0245 21.9039C16.9945 22.0969 17.9998 21.9978 18.9134 21.6194C19.827 21.241 20.6079 20.6001 21.1573 19.7779C21.7068 18.9556 22 17.9889 22 17C22 15.6739 21.4732 14.4021 20.5355 13.4645C19.5979 12.5268 18.3261 12 17 12ZM18.5 18C18.5 18.2652 18.3946 18.5196 18.2071 18.7071C18.0196 18.8946 17.7652 19 17.5 19H15.5C15.2348 19 14.9804 18.8946 14.7929 18.7071C14.6054 18.5196 14.5 18.2652 14.5 18C14.5 17.7348 14.6054 17.4804 14.7929 17.2929C14.9804 17.1054 15.2348 17 15.5 17H16.5V15.5C16.5 15.2348 16.6054 14.9804 16.7929 14.7929C16.9804 14.6054 17.2348 14.5 17.5 14.5C17.7652 14.5 18.0196 14.6054 18.2071 14.7929C18.3946 14.9804 18.5 15.2348 18.5 15.5V18ZM19 5H5C4.20435 5 3.44129 5.31607 2.87868 5.87868C2.31607 6.44129 2 7.20435 2 8V16C2 16.7956 2.31607 17.5587 2.87868 18.1213C3.44129 18.6839 4.20435 19 5 19H10.29C10.0958 18.3511 9.99813 17.6773 10 17C10.0033 16.475 10.0636 15.9519 10.18 15.44C10.137 15.4481 10.093 15.4481 10.05 15.44L6.05 13.44C5.81338 13.3616 5.6146 13.1976 5.49261 12.9802C5.37061 12.7628 5.33421 12.5077 5.39054 12.2648C5.44687 12.022 5.59186 11.809 5.7971 11.6675C6.00233 11.526 6.25301 11.4663 6.5 11.5H7.5C7.76522 11.5 8.01957 11.3946 8.20711 11.2071C8.39464 11.0196 8.5 10.7652 8.5 10.5C8.5 10.2348 8.39464 9.98043 8.20711 9.79289C8.01957 9.60536 7.76522 9.5 7.5 9.5H5.5C5.23478 9.5 4.98043 9.39464 4.79289 9.20711C4.60536 9.01957 4.5 8.76522 4.5 8.5C4.5 8.23478 4.60536 7.98043 4.79289 7.79289C4.98043 7.60536 5.23478 7.5 5.5 7.5H10.5C10.7652 7.5 11.0196 7.60536 11.2071 7.79289C11.3946 7.98043 11.5 8.23478 11.5 8.5C11.5 8.76522 11.3946 9.01957 11.2071 9.20711C11.0196 9.39464 10.7652 9.5 10.5 9.5H10.32C10.5275 10.0832 10.5494 10.7163 10.383 11.3124C10.2165 11.9086 9.86962 12.4387 9.39 12.83L10.9 13.58C11.4324 12.6331 12.1778 11.8231 13.0774 11.2142C13.9769 10.6052 15.0058 10.2139 16.0827 10.0713C17.1595 9.92866 18.2548 10.0386 19.2819 10.3925C20.3089 10.7463 21.2395 11.3343 22 12.11V8C22 7.20435 21.6839 6.44129 21.1213 5.87868C20.5587 5.31607 19.7956 5 19 5Z" fill="currentColor"/>
  </symbol>
  <symbol id="ic_recharge_now" viewBox="0 0 24 24">
    <path d="M16.56 15.06C16.84 14.78 17 14.4 17 14V11.5C17 11.27 16.95 11.05 16.86 10.84C16.76 10.63 16.62 10.45 16.44 10.31L14.59 8.81C14.32 8.6 13.99 8.5 13.66 8.5H8.51C8.11 8.5 7.73 8.66 7.45 8.94C7.17 9.22 7.01 9.6 7.01 10V14C7.01 14.4 7.17 14.78 7.45 15.06C7.73 15.34 8.11 15.5 8.51 15.5H15.51C15.91 15.5 16.29 15.34 16.57 15.06H16.56Z" fill="currentColor"/>
<path d="M12 4C13.35 4 14.67 4.35 15.85 5H15C14.8 5 14.61 5.06 14.44 5.17C14.27 5.28 14.15 5.44 14.07 5.62C13.99 5.8 13.97 6.01 14.01 6.2C14.05 6.39 14.15 6.57 14.29 6.71C14.38 6.8 14.49 6.88 14.62 6.93C14.74 6.98 14.87 7 15 7H18C18.27 7 18.52 6.89 18.71 6.71C18.9 6.52 19 6.27 19 6V3C19 2.73 18.89 2.48 18.71 2.29C18.52 2.1 18.27 2 18 2C17.73 2 17.48 2.11 17.29 2.29C17.1 2.48 17 2.73 17 3V3.36C15.48 2.48 13.76 2.01 12 2C10.25 2 8.52 2.46 7.01 3.34C5.49 4.22 4.23 5.48 3.35 7C2.47 8.52 2 10.24 2 12C2 12.27 2.11 12.52 2.29 12.71C2.48 12.9 2.73 13 3 13C3.27 13 3.52 12.89 3.71 12.71C3.9 12.52 4 12.27 4 12C4 9.88 4.84 7.84 6.34 6.34C7.84 4.84 9.88 4 12 4ZM21.71 11.29C21.57 11.15 21.39 11.05 21.2 11.01C21.01 10.97 20.8 10.99 20.62 11.07C20.44 11.15 20.28 11.28 20.17 11.44C20.06 11.61 20 11.8 20 12C20 13.39 19.63 14.75 18.94 15.95C18.25 17.15 17.26 18.16 16.07 18.86C14.88 19.57 13.52 19.95 12.13 19.97C10.74 19.99 9.37 19.66 8.16 18.99H9C9.27 18.99 9.52 18.88 9.71 18.7C9.9 18.51 10 18.26 10 17.99C10 17.72 9.89 17.47 9.71 17.28C9.52 17.09 9.27 16.99 9 16.99H6C5.73 16.99 5.48 17.1 5.29 17.28C5.1 17.47 5 17.72 5 17.99V20.99C5 21.19 5.06 21.38 5.17 21.55C5.28 21.72 5.44 21.84 5.62 21.92C5.8 22 6.01 22.02 6.2 21.98C6.39 21.94 6.57 21.84 6.71 21.7C6.8 21.61 6.88 21.5 6.93 21.37C6.98 21.25 7 21.12 7 20.99V20.63C8.52 21.51 10.24 21.98 12 21.99C13.76 21.99 15.48 21.53 17 20.65C18.52 19.77 19.78 18.51 20.66 16.99C21.54 15.47 22 13.75 22 11.99C22 11.86 21.98 11.73 21.93 11.61C21.88 11.49 21.81 11.38 21.71 11.28V11.29Z" fill="currentColor"/>
  </symbol>
</svg>
