<!-- JioGames DLS — remote icons (8 icons) -->
<svg xmlns="http://www.w3.org/2000/svg" style="display:none">
  <symbol id="ic_remote" viewBox="0 0 24 24">
    <path d="M14 2H10C9.20435 2 8.44129 2.31607 7.87868 2.87868C7.31607 3.44129 7 4.20435 7 5V19C7 19.7956 7.31607 20.5587 7.87868 21.1213C8.44129 21.6839 9.20435 22 10 22H14C14.7956 22 15.5587 21.6839 16.1213 21.1213C16.6839 20.5587 17 19.7956 17 19V5C17 4.20435 16.6839 3.44129 16.1213 2.87868C15.5587 2.31607 14.7956 2 14 2ZM10 14C9.80222 14 9.60888 13.9414 9.44443 13.8315C9.27998 13.7216 9.15181 13.5654 9.07612 13.3827C9.00043 13.2 8.98063 12.9989 9.01921 12.8049C9.0578 12.6109 9.15304 12.4327 9.29289 12.2929C9.43275 12.153 9.61093 12.0578 9.80491 12.0192C9.99889 11.9806 10.2 12.0004 10.3827 12.0761C10.5654 12.1518 10.7216 12.28 10.8315 12.4444C10.9414 12.6089 11 12.8022 11 13C11 13.2652 10.8946 13.5196 10.7071 13.7071C10.5196 13.8946 10.2652 14 10 14ZM10 10C9.80222 10 9.60888 9.94135 9.44443 9.83147C9.27998 9.72159 9.15181 9.56541 9.07612 9.38268C9.00043 9.19996 8.98063 8.99889 9.01921 8.80491C9.0578 8.61093 9.15304 8.43275 9.29289 8.29289C9.43275 8.15304 9.61093 8.0578 9.80491 8.01921C9.99889 7.98063 10.2 8.00043 10.3827 8.07612C10.5654 8.15181 10.7216 8.27998 10.8315 8.44443C10.9414 8.60888 11 8.80222 11 9C11 9.26522 10.8946 9.51957 10.7071 9.70711C10.5196 9.89464 10.2652 10 10 10ZM10 6C9.80222 6 9.60888 5.94135 9.44443 5.83147C9.27998 5.72159 9.15181 5.56541 9.07612 5.38268C9.00043 5.19996 8.98063 4.99889 9.01921 4.80491C9.0578 4.61093 9.15304 4.43275 9.29289 4.29289C9.43275 4.15304 9.61093 4.0578 9.80491 4.01921C9.99889 3.98063 10.2 4.00043 10.3827 4.07612C10.5654 4.15181 10.7216 4.27998 10.8315 4.44443C10.9414 4.60888 11 4.80222 11 5C11 5.26522 10.8946 5.51957 10.7071 5.70711C10.5196 5.89464 10.2652 6 10 6ZM14 14C13.8022 14 13.6089 13.9414 13.4444 13.8315C13.28 13.7216 13.1518 13.5654 13.0761 13.3827C13.0004 13.2 12.9806 12.9989 13.0192 12.8049C13.0578 12.6109 13.153 12.4327 13.2929 12.2929C13.4327 12.153 13.6109 12.0578 13.8049 12.0192C13.9989 11.9806 14.2 12.0004 14.3827 12.0761C14.5654 12.1518 14.7216 12.28 14.8315 12.4444C14.9414 12.6089 15 12.8022 15 13C15 13.2652 14.8946 13.5196 14.7071 13.7071C14.5196 13.8946 14.2652 14 14 14ZM14 10C13.8022 10 13.6089 9.94135 13.4444 9.83147C13.28 9.72159 13.1518 9.56541 13.0761 9.38268C13.0004 9.19996 12.9806 8.99889 13.0192 8.80491C13.0578 8.61093 13.153 8.43275 13.2929 8.29289C13.4327 8.15304 13.6109 8.0578 13.8049 8.01921C13.9989 7.98063 14.2 8.00043 14.3827 8.07612C14.5654 8.15181 14.7216 8.27998 14.8315 8.44443C14.9414 8.60888 15 8.80222 15 9C15 9.26522 14.8946 9.51957 14.7071 9.70711C14.5196 9.89464 14.2652 10 14 10ZM14 6C13.8022 6 13.6089 5.94135 13.4444 5.83147C13.28 5.72159 13.1518 5.56541 13.0761 5.38268C13.0004 5.19996 12.9806 4.99889 13.0192 4.80491C13.0578 4.61093 13.153 4.43275 13.2929 4.29289C13.4327 4.15304 13.6109 4.0578 13.8049 4.01921C13.9989 3.98063 14.2 4.00043 14.3827 4.07612C14.5654 4.15181 14.7216 4.27998 14.8315 4.44443C14.9414 4.60888 15 4.80222 15 5C15 5.26522 14.8946 5.51957 14.7071 5.70711C14.5196 5.89464 14.2652 6 14 6Z" fill="currentColor"/>
  </symbol>
  <symbol id="ic_remote_off" viewBox="0 0 24 24">
    <path d="M21.7101 2.29006C21.3201 1.90006 20.6901 1.90006 20.3001 2.29006L2.29006 20.2901C1.90006 20.6801 1.90006 21.3101 2.29006 21.7001C2.49006 21.9001 2.74006 21.9901 3.00006 21.9901C3.26006 21.9901 3.51006 21.8901 3.71006 21.7001L7.00006 18.4101V19.0001C7.00006 19.8001 7.32006 20.5601 7.88006 21.1201C8.44006 21.6801 9.21006 22.0001 10.0001 22.0001H14.0001C14.8001 22.0001 15.5601 21.6801 16.1201 21.1201C16.6801 20.5601 17.0001 19.7901 17.0001 19.0001V8.41006L21.7101 3.70006C22.1001 3.31006 22.1001 2.68006 21.7101 2.29006ZM14.7101 13.7101C14.5201 13.9001 14.2701 14.0001 14.0001 14.0001C13.8001 14.0001 13.6101 13.9401 13.4401 13.8301C13.2801 13.7201 13.1501 13.5601 13.0701 13.3801C12.9901 13.2001 12.9701 13.0001 13.0101 12.8001C13.0501 12.6101 13.1401 12.4301 13.2801 12.2901C13.4201 12.1501 13.6001 12.0501 13.7901 12.0201C13.9801 11.9801 14.1901 12.0001 14.3701 12.0801C14.5501 12.1601 14.7101 12.2801 14.8201 12.4501C14.9301 12.6101 14.9901 12.8101 14.9901 13.0101C14.9901 13.2801 14.8801 13.5301 14.7001 13.7201L14.7101 13.7101Z" fill="currentColor"/>
<path d="M9.44006 9.83006C9.28006 9.72006 9.15006 9.56006 9.07006 9.38006C8.99006 9.20006 8.97006 9.00006 9.01006 8.80006C9.05006 8.61006 9.14006 8.43006 9.28006 8.29006C9.42006 8.15006 9.60006 8.05006 9.79006 8.02006C9.98006 7.98006 10.1901 8.00006 10.3701 8.08006C10.5501 8.16006 10.7101 8.28006 10.8201 8.45006C10.9001 8.57006 10.9401 8.70006 10.9601 8.84006L13.8201 5.98006C13.6801 5.96006 13.5501 5.91006 13.4301 5.84006C13.2701 5.73006 13.1401 5.57006 13.0601 5.39006C12.9801 5.21006 12.9601 5.01006 13.0001 4.81006C13.0401 4.62006 13.1301 4.44006 13.2701 4.30006C13.4101 4.16006 13.5901 4.06006 13.7801 4.03006C13.9701 3.99006 14.1801 4.01006 14.3601 4.09006C14.5401 4.17006 14.7001 4.29006 14.8101 4.46006C14.8901 4.58006 14.9301 4.71006 14.9501 4.85006L16.4601 3.34006C16.3501 3.18006 16.2301 3.03006 16.1001 2.90006C15.5401 2.34006 14.7701 2.02006 13.9801 2.02006H9.98006C9.18006 2.02006 8.42006 2.34006 7.86006 2.90006C7.30006 3.46006 6.98006 4.23006 6.98006 5.02006V12.8301L9.81006 10.0001C9.67006 9.98006 9.54006 9.93006 9.42006 9.86006L9.44006 9.83006ZM9.01006 4.80006C9.05006 4.61006 9.14006 4.43006 9.28006 4.29006C9.42006 4.15006 9.60006 4.05006 9.79006 4.02006C9.98006 3.98006 10.1901 4.00006 10.3701 4.08006C10.5501 4.16006 10.7101 4.28006 10.8201 4.45006C10.9301 4.61006 10.9901 4.81006 10.9901 5.01006C10.9901 5.28006 10.8801 5.53006 10.7001 5.72006C10.5101 5.91006 10.2601 6.01006 9.99006 6.01006C9.79006 6.01006 9.60006 5.95006 9.43006 5.84006C9.26006 5.73006 9.14006 5.57006 9.06006 5.39006C8.98006 5.21006 8.96006 5.01006 9.00006 4.81006L9.01006 4.80006Z" fill="currentColor"/>
  </symbol>
  <symbol id="ic_remote_push" viewBox="0 0 24 24">
    <path d="M17.12 2.88C16.5579 2.31723 15.7954 2.0007 15 2H9C8.20435 2 7.44129 2.31607 6.87868 2.87868C6.31607 3.44129 6 4.20435 6 5V19C6 19.7956 6.31607 20.5587 6.87868 21.1213C7.44129 21.6839 8.20435 22 9 22H15C15.7956 22 16.5587 21.6839 17.1213 21.1213C17.6839 20.5587 18 19.7956 18 19V5C17.9993 4.20462 17.6828 3.44207 17.12 2.88ZM9 8H15L12 9.83L9 8ZM12.88 19.63C12.7657 19.7477 12.6289 19.8411 12.4777 19.9046C12.3265 19.9682 12.164 20.0007 12 20C11.7538 19.9992 11.5133 19.9257 11.3087 19.7887C11.1041 19.6517 10.9445 19.4573 10.85 19.23C10.754 19.0029 10.7262 18.7527 10.77 18.51C10.8224 18.2646 10.9447 18.0396 11.1221 17.8621C11.2996 17.6847 11.5246 17.5624 11.77 17.51C12.0127 17.4662 12.2629 17.494 12.49 17.59C12.7173 17.6845 12.9117 17.8441 13.0487 18.0487C13.1857 18.2533 13.2592 18.4938 13.26 18.74C13.2607 18.9064 13.2274 19.0712 13.162 19.2243C13.0967 19.3773 13.0007 19.5154 12.88 19.63ZM16 13C16 13.2652 15.8946 13.5196 15.7071 13.7071C15.5196 13.8946 15.2652 14 15 14H9C8.73478 14 8.48043 13.8946 8.29289 13.7071C8.10536 13.5196 8 13.2652 8 13V9.77L11.49 11.86C11.642 11.9478 11.8145 11.994 11.99 11.994C12.1655 11.994 12.338 11.9478 12.49 11.86L16 9.77V13Z" fill="currentColor"/>
  </symbol>
  <symbol id="ic_remote_record" viewBox="0 0 24 24">
    <path d="M13 9.5H10V11.5H13C13.2652 11.5 13.5196 11.3946 13.7071 11.2071C13.8946 11.0196 14 10.7652 14 10.5C14 10.2348 13.8946 9.98043 13.7071 9.79289C13.5196 9.60536 13.2652 9.5 13 9.5ZM12 2C10.0222 2 8.08879 2.58649 6.4443 3.6853C4.79981 4.78412 3.51809 6.3459 2.76121 8.17317C2.00433 10.0004 1.8063 12.0111 2.19215 13.9509C2.578 15.8907 3.53041 17.6725 4.92894 19.0711C6.32746 20.4696 8.10929 21.422 10.0491 21.8079C11.9889 22.1937 13.9996 21.9957 15.8268 21.2388C17.6541 20.4819 19.2159 19.2002 20.3147 17.5557C21.4135 15.9112 22 13.9778 22 12C22 10.6868 21.7413 9.38642 21.2388 8.17317C20.7363 6.95991 19.9997 5.85752 19.0711 4.92893C18.1425 4.00035 17.0401 3.26375 15.8268 2.7612C14.6136 2.25866 13.3132 2 12 2ZM15.83 15C15.9747 15.2205 16.0265 15.4892 15.9741 15.7476C15.9216 16.0061 15.7692 16.2334 15.55 16.38C15.389 16.4928 15.1966 16.5522 15 16.55C14.8353 16.5491 14.6734 16.5076 14.5286 16.4291C14.3838 16.3506 14.2606 16.2376 14.17 16.1L12.46 13.5H10V15.5C10 15.7652 9.89465 16.0196 9.70711 16.2071C9.51957 16.3946 9.26522 16.5 9 16.5C8.73479 16.5 8.48043 16.3946 8.2929 16.2071C8.10536 16.0196 8 15.7652 8 15.5V8.5C8 8.23478 8.10536 7.98043 8.2929 7.79289C8.48043 7.60536 8.73479 7.5 9 7.5H13C13.6515 7.50224 14.2846 7.71651 14.8035 8.11042C15.3225 8.50433 15.6991 9.05647 15.8764 9.68338C16.0537 10.3103 16.0222 10.9779 15.7865 11.5853C15.5508 12.1927 15.1238 12.7068 14.57 13.05L15.83 15Z" fill="currentColor"/>
  </symbol>
  <symbol id="ic_remote_universal" viewBox="0 0 24 24">
    <path d="M12 15C11.8022 15 11.6089 15.0586 11.4444 15.1685C11.28 15.2784 11.1518 15.4346 11.0761 15.6173C11.0004 15.8 10.9806 16.0011 11.0192 16.1951C11.0578 16.3891 11.153 16.5673 11.2929 16.7071C11.4327 16.847 11.6109 16.9422 11.8049 16.9808C11.9989 17.0194 12.2 16.9996 12.3827 16.9239C12.5654 16.8482 12.7216 16.72 12.8315 16.5556C12.9414 16.3911 13 16.1978 13 16C13 15.7348 12.8946 15.4804 12.7071 15.2929C12.5196 15.1054 12.2652 15 12 15ZM16.12 2.88C15.5579 2.31723 14.7954 2.0007 14 2H10C9.20435 2 8.44129 2.31607 7.87868 2.87868C7.31607 3.44129 7 4.20435 7 5V19C7 19.7956 7.31607 20.5587 7.87868 21.1213C8.44129 21.6839 9.20435 22 10 22H14C14.7956 22 15.5587 21.6839 16.1213 21.1213C16.6839 20.5587 17 19.7956 17 19V5C16.9993 4.20462 16.6828 3.44207 16.12 2.88ZM10 4C10.1978 4 10.3911 4.05865 10.5556 4.16853C10.72 4.27841 10.8482 4.43459 10.9239 4.61732C10.9996 4.80004 11.0194 5.00111 10.9808 5.19509C10.9422 5.38907 10.847 5.56725 10.7071 5.70711C10.5673 5.84696 10.3891 5.9422 10.1951 5.98079C10.0011 6.01937 9.80004 5.99957 9.61732 5.92388C9.43459 5.84819 9.27841 5.72002 9.16853 5.55557C9.05865 5.39112 9 5.19778 9 5C9 4.73478 9.10536 4.48043 9.29289 4.29289C9.48043 4.10536 9.73478 4 10 4ZM10 8C10.1978 8 10.3911 8.05865 10.5556 8.16853C10.72 8.27841 10.8482 8.43459 10.9239 8.61732C10.9996 8.80004 11.0194 9.00111 10.9808 9.19509C10.9422 9.38907 10.847 9.56725 10.7071 9.70711C10.5673 9.84696 10.3891 9.9422 10.1951 9.98079C10.0011 10.0194 9.80004 9.99957 9.61732 9.92388C9.43459 9.84819 9.27841 9.72002 9.16853 9.55557C9.05865 9.39112 9 9.19778 9 9C9 8.73478 9.10536 8.48043 9.29289 8.29289C9.48043 8.10536 9.73478 8 10 8ZM12 19C11.4067 19 10.8266 18.8241 10.3333 18.4944C9.83994 18.1648 9.45542 17.6962 9.22836 17.1481C9.0013 16.5999 8.94189 15.9967 9.05764 15.4147C9.1734 14.8328 9.45912 14.2982 9.87868 13.8787C10.2982 13.4591 10.8328 13.1734 11.4147 13.0576C11.9967 12.9419 12.5999 13.0013 13.1481 13.2284C13.6962 13.4554 14.1648 13.8399 14.4944 14.3333C14.8241 14.8266 15 15.4067 15 16C15 16.7956 14.6839 17.5587 14.1213 18.1213C13.5587 18.6839 12.7956 19 12 19ZM14 10C13.8022 10 13.6089 9.94135 13.4444 9.83147C13.28 9.72159 13.1518 9.56541 13.0761 9.38268C13.0004 9.19996 12.9806 8.99889 13.0192 8.80491C13.0578 8.61093 13.153 8.43275 13.2929 8.29289C13.4327 8.15304 13.6109 8.0578 13.8049 8.01921C13.9989 7.98063 14.2 8.00043 14.3827 8.07612C14.5654 8.15181 14.7216 8.27998 14.8315 8.44443C14.9414 8.60888 15 8.80222 15 9C15 9.26522 14.8946 9.51957 14.7071 9.70711C14.5196 9.89464 14.2652 10 14 10ZM14 6C13.8022 6 13.6089 5.94135 13.4444 5.83147C13.28 5.72159 13.1518 5.56541 13.0761 5.38268C13.0004 5.19996 12.9806 4.99889 13.0192 4.80491C13.0578 4.61093 13.153 4.43275 13.2929 4.29289C13.4327 4.15304 13.6109 4.0578 13.8049 4.01921C13.9989 3.98063 14.2 4.00043 14.3827 4.07612C14.5654 4.15181 14.7216 4.27998 14.8315 4.44443C14.9414 4.60888 15 4.80222 15 5C15 5.26522 14.8946 5.51957 14.7071 5.70711C14.5196 5.89464 14.2652 6 14 6Z" fill="currentColor"/>
  </symbol>
  <symbol id="ic_remote_universal_a" viewBox="0 0 24 24">
    <path d="M11.6 16H12.4L12 14.92L11.6 16ZM16.12 2.88C15.5579 2.31723 14.7954 2.0007 14 2H10C9.20435 2 8.44129 2.31607 7.87868 2.87868C7.31607 3.44129 7 4.20435 7 5V19C7 19.7956 7.31607 20.5587 7.87868 21.1213C8.44129 21.6839 9.20435 22 10 22H14C14.7956 22 15.5587 21.6839 16.1213 21.1213C16.6839 20.5587 17 19.7956 17 19V5C16.9993 4.20462 16.6828 3.44207 16.12 2.88ZM9 4.8C9.03698 4.60147 9.13319 4.41879 9.27599 4.27599C9.41879 4.13319 9.60147 4.03698 9.8 4C9.995 3.96194 10.1969 3.98283 10.38 4.06C10.564 4.12993 10.7214 4.25585 10.83 4.42C10.9759 4.61153 11.0477 4.84926 11.0324 5.08951C11.0171 5.32977 10.9156 5.55643 10.7466 5.72788C10.5775 5.89932 10.3524 6.00404 10.1123 6.0228C9.87232 6.04156 9.6336 5.9731 9.44 5.83C9.27585 5.72139 9.14993 5.56399 9.08 5.38C8.99607 5.19898 8.9682 4.99699 9 4.8ZM9.42 9.8C9.25585 9.69139 9.12993 9.53399 9.06 9.35C8.98867 9.17596 8.96788 8.98533 9 8.8C9.03698 8.60147 9.13319 8.41879 9.27599 8.27599C9.41879 8.13319 9.60147 8.03697 9.8 8C9.995 7.96194 10.1969 7.98283 10.38 8.06C10.564 8.12993 10.7214 8.25585 10.83 8.42C10.9759 8.61153 11.0477 8.84926 11.0324 9.08951C11.0171 9.32977 10.9156 9.55644 10.7466 9.72788C10.5775 9.89932 10.3524 10.004 10.1123 10.0228C9.87232 10.0416 9.6336 9.9731 9.44 9.83L9.42 9.8ZM13.68 18C13.6204 18.0095 13.5596 18.0095 13.5 18C13.3987 17.9993 13.3 17.9686 13.2163 17.9116C13.1326 17.8546 13.0677 17.774 13.03 17.68L12.78 17H11.22L10.97 17.68C10.9464 17.7417 10.9108 17.7982 10.8653 17.8462C10.8199 17.8941 10.7654 17.9327 10.7051 17.9596C10.6447 17.9865 10.5796 18.0013 10.5136 18.0031C10.4475 18.0049 10.3817 17.9936 10.32 17.97C10.2583 17.9464 10.2018 17.9108 10.1538 17.8653C10.1059 17.8199 10.0673 17.7654 10.0404 17.7051C10.0135 17.6447 9.99867 17.5796 9.99689 17.5136C9.99511 17.4475 10.0064 17.3817 10.03 17.32L11.53 13.32C11.5721 13.231 11.6387 13.1558 11.7219 13.1031C11.8051 13.0504 11.9015 13.0225 12 13.0225C12.0985 13.0225 12.1949 13.0504 12.2781 13.1031C12.3613 13.1558 12.4279 13.231 12.47 13.32L13.97 17.32C13.996 17.3836 14.0091 17.4518 14.0085 17.5206C14.008 17.5893 13.9939 17.6573 13.9669 17.7205C13.9399 17.7837 13.9007 17.841 13.8514 17.889C13.8022 17.937 13.7439 17.9747 13.68 18ZM14.68 9.74C14.5154 9.90475 14.2985 10.0069 14.0666 10.0288C13.8348 10.0507 13.6025 9.99101 13.41 9.86C13.2458 9.75139 13.1199 9.59399 13.05 9.41C12.97 9.21689 12.9525 9.00356 13 8.8C13.037 8.60147 13.1332 8.41879 13.276 8.27599C13.4188 8.13319 13.6015 8.03697 13.8 8C13.995 7.96194 14.1969 7.98283 14.38 8.06C14.564 8.12993 14.7214 8.25585 14.83 8.42C14.961 8.61254 15.0207 8.84477 14.9988 9.07662C14.9769 9.30847 14.8748 9.52541 14.71 9.69L14.68 9.74ZM14.68 5.74C14.5154 5.90475 14.2985 6.0069 14.0666 6.0288C13.8348 6.05071 13.6025 5.99101 13.41 5.86C13.2458 5.75139 13.1199 5.59399 13.05 5.41C12.97 5.21689 12.9525 5.00356 13 4.8C13.037 4.60147 13.1332 4.41879 13.276 4.27599C13.4188 4.13319 13.6015 4.03698 13.8 4C13.995 3.96194 14.1969 3.98283 14.38 4.06C14.564 4.12993 14.7214 4.25585 14.83 4.42C14.961 4.61254 15.0207 4.84477 14.9988 5.07662C14.9769 5.30847 14.8748 5.52541 14.71 5.69L14.68 5.74Z" fill="currentColor"/>
  </symbol>
  <symbol id="ic_remote_universal_b" viewBox="0 0 24 24">
    <path d="M12.5 14H11V15H12.5C12.6326 15 12.7598 14.9473 12.8536 14.8536C12.9473 14.7598 13 14.6326 13 14.5C13 14.3674 12.9473 14.2402 12.8536 14.1464C12.7598 14.0527 12.6326 14 12.5 14ZM16.12 2.88C15.5579 2.31723 14.7954 2.0007 14 2H10C9.20435 2 8.44129 2.31607 7.87868 2.87868C7.31607 3.44129 7 4.20435 7 5V19C7 19.7956 7.31607 20.5587 7.87868 21.1213C8.44129 21.6839 9.20435 22 10 22H14C14.7956 22 15.5587 21.6839 16.1213 21.1213C16.6839 20.5587 17 19.7956 17 19V5C16.9993 4.20462 16.6828 3.44207 16.12 2.88ZM9 4.8C9.03698 4.60147 9.13319 4.41879 9.27599 4.27599C9.41879 4.13319 9.60147 4.03698 9.8 4C9.995 3.96194 10.1969 3.98283 10.38 4.06C10.564 4.12993 10.7214 4.25585 10.83 4.42C10.9759 4.61153 11.0477 4.84926 11.0324 5.08951C11.0171 5.32977 10.9156 5.55643 10.7466 5.72788C10.5775 5.89932 10.3524 6.00404 10.1123 6.0228C9.87232 6.04156 9.6336 5.9731 9.44 5.83C9.27585 5.72139 9.14993 5.56399 9.08 5.38C8.99607 5.19898 8.9682 4.99699 9 4.8ZM9.42 9.8C9.25585 9.69139 9.12993 9.53399 9.06 9.35C8.98867 9.17596 8.96788 8.98533 9 8.8C9.03698 8.60147 9.13319 8.41879 9.27599 8.27599C9.41879 8.13319 9.60147 8.03697 9.8 8C9.995 7.96194 10.1969 7.98283 10.38 8.06C10.564 8.12993 10.7214 8.25585 10.83 8.42C10.9759 8.61153 11.0477 8.84926 11.0324 9.08951C11.0171 9.32977 10.9156 9.55644 10.7466 9.72788C10.5775 9.89932 10.3524 10.004 10.1123 10.0228C9.87232 10.0416 9.6336 9.9731 9.44 9.83L9.42 9.8ZM14 16.5C14 16.8978 13.842 17.2794 13.5607 17.5607C13.2794 17.842 12.8978 18 12.5 18H10.5C10.3674 18 10.2402 17.9473 10.1464 17.8536C10.0527 17.7598 10 17.6326 10 17.5V13.5C10 13.3674 10.0527 13.2402 10.1464 13.1464C10.2402 13.0527 10.3674 13 10.5 13H12.5C12.8978 13 13.2794 13.158 13.5607 13.4393C13.842 13.7206 14 14.1022 14 14.5C14.0007 14.8706 13.8614 15.2277 13.61 15.5C13.8597 15.7733 13.9987 16.1298 14 16.5ZM14.71 9.71C14.5454 9.87475 14.3285 9.97689 14.0966 9.9988C13.8648 10.0207 13.6325 9.96101 13.44 9.83C13.2758 9.72139 13.1499 9.56399 13.08 9.38C12.9961 9.19898 12.9682 8.99698 13 8.8C13.037 8.60147 13.1332 8.41879 13.276 8.27599C13.4188 8.13319 13.6015 8.03697 13.8 8C13.995 7.96194 14.1969 7.98283 14.38 8.06C14.564 8.12993 14.7214 8.25585 14.83 8.42C14.961 8.61254 15.0207 8.84477 14.9988 9.07662C14.9769 9.30847 14.8748 9.52541 14.71 9.69V9.71ZM14.71 5.71C14.5454 5.87475 14.3285 5.97689 14.0966 5.9988C13.8648 6.02071 13.6325 5.96101 13.44 5.83C13.2758 5.72139 13.1499 5.56399 13.08 5.38C12.9961 5.19898 12.9682 4.99699 13 4.8C13.037 4.60147 13.1332 4.41879 13.276 4.27599C13.4188 4.13319 13.6015 4.03698 13.8 4C13.995 3.96194 14.1969 3.98283 14.38 4.06C14.564 4.12993 14.7214 4.25585 14.83 4.42C14.961 4.61254 15.0207 4.84477 14.9988 5.07662C14.9769 5.30847 14.8748 5.52541 14.71 5.69V5.71ZM12.5 16H11V17H12.5C12.6326 17 12.7598 16.9473 12.8536 16.8536C12.9473 16.7598 13 16.6326 13 16.5C13 16.3674 12.9473 16.2402 12.8536 16.1464C12.7598 16.0527 12.6326 16 12.5 16Z" fill="currentColor"/>
  </symbol>
  <symbol id="ic_remote_universal_u" viewBox="0 0 24 24">
    <path d="M16.12 2.88C15.5579 2.31723 14.7954 2.0007 14 2H10C9.20435 2 8.44129 2.31607 7.87868 2.87868C7.31607 3.44129 7 4.20435 7 5V19C7 19.7956 7.31607 20.5587 7.87868 21.1213C8.44129 21.6839 9.20435 22 10 22H14C14.7956 22 15.5587 21.6839 16.1213 21.1213C16.6839 20.5587 17 19.7956 17 19V5C16.9993 4.20462 16.6828 3.44207 16.12 2.88ZM9 4.8C9.03698 4.60147 9.13319 4.41879 9.27599 4.27599C9.41879 4.13319 9.60147 4.03698 9.8 4C9.995 3.96194 10.1969 3.98283 10.38 4.06C10.564 4.12993 10.7214 4.25585 10.83 4.42C10.9759 4.61153 11.0477 4.84926 11.0324 5.08951C11.0171 5.32977 10.9156 5.55643 10.7466 5.72788C10.5775 5.89932 10.3524 6.00404 10.1123 6.0228C9.87232 6.04156 9.6336 5.9731 9.44 5.83C9.27585 5.72139 9.14993 5.56399 9.08 5.38C8.99607 5.19898 8.9682 4.99699 9 4.8ZM9.42 9.8C9.25585 9.69139 9.12993 9.53399 9.06 9.35C8.98867 9.17596 8.96788 8.98533 9 8.8C9.03698 8.60147 9.13319 8.41879 9.27599 8.27599C9.41879 8.13319 9.60147 8.03697 9.8 8C9.995 7.96194 10.1969 7.98283 10.38 8.06C10.564 8.12993 10.7214 8.25585 10.83 8.42C10.9759 8.61153 11.0477 8.84926 11.0324 9.08951C11.0171 9.32977 10.9156 9.55644 10.7466 9.72788C10.5775 9.89932 10.3524 10.004 10.1123 10.0228C9.87232 10.0416 9.6336 9.9731 9.44 9.83L9.42 9.8ZM14 16C14 16.5304 13.7893 17.0391 13.4142 17.4142C13.0391 17.7893 12.5304 18 12 18C11.4696 18 10.9609 17.7893 10.5858 17.4142C10.2107 17.0391 10 16.5304 10 16V13.5C10 13.3674 10.0527 13.2402 10.1464 13.1464C10.2402 13.0527 10.3674 13 10.5 13C10.6326 13 10.7598 13.0527 10.8536 13.1464C10.9473 13.2402 11 13.3674 11 13.5V16C11 16.2652 11.1054 16.5196 11.2929 16.7071C11.4804 16.8946 11.7348 17 12 17C12.2652 17 12.5196 16.8946 12.7071 16.7071C12.8946 16.5196 13 16.2652 13 16V13.5C13 13.3674 13.0527 13.2402 13.1464 13.1464C13.2402 13.0527 13.3674 13 13.5 13C13.6326 13 13.7598 13.0527 13.8536 13.1464C13.9473 13.2402 14 13.3674 14 13.5V16ZM14.71 9.71C14.5454 9.87475 14.3285 9.97689 14.0966 9.9988C13.8648 10.0207 13.6325 9.96101 13.44 9.83C13.2758 9.72139 13.1499 9.56399 13.08 9.38C12.9961 9.19898 12.9682 8.99698 13 8.8C13.037 8.60147 13.1332 8.41879 13.276 8.27599C13.4188 8.13319 13.6015 8.03697 13.8 8C13.995 7.96194 14.1969 7.98283 14.38 8.06C14.564 8.12993 14.7214 8.25585 14.83 8.42C14.961 8.61254 15.0207 8.84477 14.9988 9.07662C14.9769 9.30847 14.8748 9.52541 14.71 9.69V9.71ZM14.71 5.71C14.5454 5.87475 14.3285 5.97689 14.0966 5.9988C13.8648 6.02071 13.6325 5.96101 13.44 5.83C13.2758 5.72139 13.1499 5.56399 13.08 5.38C12.9961 5.19898 12.9682 4.99699 13 4.8C13.037 4.60147 13.1332 4.41879 13.276 4.27599C13.4188 4.13319 13.6015 4.03698 13.8 4C13.995 3.96194 14.1969 3.98283 14.38 4.06C14.564 4.12993 14.7214 4.25585 14.83 4.42C14.961 4.61254 15.0207 4.84477 14.9988 5.07662C14.9769 5.30847 14.8748 5.52541 14.71 5.69V5.71Z" fill="currentColor"/>
  </symbol>
</svg>
