<!-- JioGames DLS — repeat icons (2 icons) -->
<svg xmlns="http://www.w3.org/2000/svg" style="display:none">
  <symbol id="ic_repeat" viewBox="0 0 24 24">
    <path d="M4.00004 12.0002C4.00004 10.6741 4.52682 9.40233 5.4645 8.46465C6.40218 7.52697 7.67395 7.00019 9.00004 7.00019H12.59L12.29 7.29018C12.1963 7.38315 12.1219 7.49375 12.0711 7.61561C12.0204 7.73747 11.9942 7.86817 11.9942 8.00019C11.9942 8.1322 12.0204 8.2629 12.0711 8.38476C12.1219 8.50662 12.1963 8.61722 12.29 8.71019C12.383 8.80391 12.4936 8.87831 12.6155 8.92908C12.7373 8.97985 12.868 9.00598 13 9.00598C13.132 9.00598 13.2628 8.97985 13.3846 8.92908C13.5065 8.87831 13.6171 8.80391 13.71 8.71019L15.71 6.71019C15.8011 6.61508 15.8724 6.50294 15.92 6.38019C16.0201 6.13672 16.0201 5.86365 15.92 5.62019C15.8724 5.49743 15.8011 5.38529 15.71 5.29019L13.71 3.29019C13.5217 3.10188 13.2663 2.99609 13 2.99609C12.7337 2.99609 12.4783 3.10188 12.29 3.29019C12.1017 3.47849 11.9959 3.73388 11.9959 4.00019C11.9959 4.26649 12.1017 4.52188 12.29 4.71019L12.59 5.00019H9.00004C7.14352 5.00019 5.36304 5.73768 4.05029 7.05044C2.73753 8.36319 2.00004 10.1437 2.00004 12.0002C1.99666 13.0416 2.22772 14.0704 2.67607 15.0104C3.12442 15.9504 3.77857 16.7774 4.59004 17.4302C4.69081 17.5208 4.80894 17.59 4.93726 17.6335C5.06558 17.6771 5.20142 17.6941 5.33651 17.6835C5.47161 17.673 5.60316 17.6351 5.72316 17.5721C5.84317 17.5092 5.94912 17.4225 6.0346 17.3173C6.12008 17.2122 6.18329 17.0908 6.22041 16.9604C6.25752 16.8301 6.26776 16.6936 6.25049 16.5592C6.23323 16.4248 6.18883 16.2953 6.11999 16.1786C6.05115 16.0618 5.95931 15.9603 5.85004 15.8802C5.27256 15.4117 4.80684 14.8203 4.48681 14.1491C4.16677 13.4779 4.00048 12.7438 4.00004 12.0002ZM19.41 6.57019C19.3084 6.48655 19.1912 6.42382 19.0652 6.38559C18.9392 6.34735 18.807 6.33436 18.676 6.34737C18.545 6.36038 18.4178 6.39912 18.3018 6.46138C18.1858 6.52364 18.0833 6.6082 18 6.71019C17.917 6.81247 17.8549 6.93017 17.8175 7.05651C17.7801 7.18285 17.768 7.31534 17.7819 7.44637C17.7959 7.5774 17.8356 7.70438 17.8987 7.82001C17.9619 7.93565 18.0473 8.03766 18.15 8.12018C18.9512 8.77139 19.5312 9.65464 19.8102 10.6487C20.0893 11.6427 20.0538 12.6987 19.7087 13.6718C19.3635 14.6448 18.7256 15.4872 17.8825 16.0831C17.0394 16.6791 16.0325 16.9994 15 17.0002H11.41L11.71 16.7102C11.8983 16.5219 12.0041 16.2665 12.0041 16.0002C12.0041 15.7339 11.8983 15.4785 11.71 15.2902C11.5217 15.1019 11.2663 14.9961 11 14.9961C10.7337 14.9961 10.4783 15.1019 10.29 15.2902L8.29004 17.2902C8.199 17.3853 8.12763 17.4974 8.08004 17.6202C7.98002 17.8636 7.98002 18.1367 8.08004 18.3802C8.12763 18.5029 8.199 18.6151 8.29004 18.7102L10.29 20.7102C10.383 20.8039 10.4936 20.8783 10.6155 20.9291C10.7373 20.9798 10.868 21.006 11 21.006C11.132 21.006 11.2628 20.9798 11.3846 20.9291C11.5065 20.8783 11.6171 20.8039 11.71 20.7102C11.8038 20.6172 11.8782 20.5066 11.9289 20.3848C11.9797 20.2629 12.0058 20.1322 12.0058 20.0002C12.0058 19.8682 11.9797 19.7375 11.9289 19.6156C11.8782 19.4937 11.8038 19.3831 11.71 19.2902L11.41 19.0002H15C16.8566 19.0002 18.637 18.2627 19.9498 16.9499C21.2625 15.6372 22 13.8567 22 12.0002C22.0034 10.9588 21.7724 9.92993 21.324 8.98995C20.8757 8.04997 20.2215 7.22295 19.41 6.57019Z" fill="currentColor"/>
  </symbol>
  <symbol id="ic_repeat_one" viewBox="0 0 24 24">
    <path d="M4.00004 11.9998C4.00004 10.6738 4.52682 9.40199 5.4645 8.4643C6.40218 7.52662 7.67395 6.99984 9.00004 6.99984H12.59L12.29 7.28984C12.1963 7.3828 12.1219 7.4934 12.0711 7.61526C12.0204 7.73712 11.9942 7.86783 11.9942 7.99984C11.9942 8.13185 12.0204 8.26256 12.0711 8.38441C12.1219 8.50627 12.1963 8.61687 12.29 8.70984C12.383 8.80357 12.4936 8.87796 12.6155 8.92873C12.7373 8.9795 12.868 9.00564 13 9.00564C13.132 9.00564 13.2628 8.9795 13.3846 8.92873C13.5065 8.87796 13.6171 8.80357 13.71 8.70984L15.71 6.70984C15.8011 6.61473 15.8724 6.50259 15.92 6.37984C16.0201 6.13638 16.0201 5.8633 15.92 5.61984C15.8724 5.49709 15.8011 5.38494 15.71 5.28984L13.71 3.28984C13.5217 3.10153 13.2663 2.99575 13 2.99575C12.7337 2.99575 12.4783 3.10153 12.29 3.28984C12.1017 3.47814 11.9959 3.73354 11.9959 3.99984C11.9959 4.26614 12.1017 4.52153 12.29 4.70984L12.59 4.99984H9.00004C7.14352 4.99984 5.36304 5.73734 4.05029 7.05009C2.73753 8.36284 2.00004 10.1433 2.00004 11.9998C1.99666 13.0413 2.22772 14.0701 2.67607 15.0101C3.12442 15.9501 3.77857 16.7771 4.59004 17.4298C4.69081 17.5204 4.80894 17.5896 4.93726 17.6332C5.06558 17.6767 5.20142 17.6937 5.33651 17.6832C5.47161 17.6726 5.60316 17.6347 5.72316 17.5718C5.84317 17.5088 5.94912 17.4221 6.0346 17.317C6.12008 17.2118 6.18329 17.0904 6.22041 16.9601C6.25752 16.8298 6.26776 16.6932 6.25049 16.5588C6.23323 16.4244 6.18883 16.2949 6.11999 16.1782C6.05115 16.0615 5.95931 15.96 5.85004 15.8798C5.27256 15.4114 4.80684 14.82 4.48681 14.1488C4.16677 13.4776 4.00048 12.7434 4.00004 11.9998ZM21.69 2.99984C21.5996 2.96049 21.4993 2.94994 21.4027 2.96962C21.3061 2.9893 21.2178 3.03826 21.15 3.10984L20.15 4.10984C20.0572 4.20266 20.0051 4.32856 20.0051 4.45984C20.0051 4.59111 20.0572 4.71701 20.15 4.80984C20.2429 4.90266 20.3688 4.95481 20.5 4.95481C20.6313 4.95481 20.7572 4.90266 20.85 4.80984L21 4.70984V6.49984C21 6.63245 21.0527 6.75962 21.1465 6.85339C21.2403 6.94716 21.3674 6.99984 21.5 6.99984C21.6326 6.99984 21.7598 6.94716 21.8536 6.85339C21.9474 6.75962 22 6.63245 22 6.49984V3.49984C22.0078 3.39443 21.9821 3.28925 21.9264 3.19942C21.8707 3.10959 21.7879 3.03971 21.69 2.99984ZM19.41 6.56984C19.3084 6.48621 19.1912 6.42347 19.0652 6.38524C18.9392 6.347 18.807 6.33401 18.676 6.34702C18.545 6.36003 18.4178 6.39877 18.3018 6.46104C18.1858 6.5233 18.0833 6.60785 18 6.70984C17.917 6.81213 17.8549 6.92982 17.8175 7.05616C17.7801 7.1825 17.768 7.31499 17.7819 7.44602C17.7959 7.57705 17.8356 7.70403 17.8987 7.81967C17.9619 7.9353 18.0473 8.03731 18.15 8.11984C18.9512 8.77104 19.5312 9.6543 19.8102 10.6483C20.0893 11.6423 20.0538 12.6984 19.7087 13.6714C19.3635 14.6445 18.7256 15.4868 17.8825 16.0828C17.0394 16.6787 16.0325 16.9991 15 16.9998H11.41L11.71 16.7098C11.8983 16.5215 12.0041 16.2661 12.0041 15.9998C12.0041 15.7335 11.8983 15.4781 11.71 15.2898C11.5217 15.1015 11.2663 14.9957 11 14.9957C10.7337 14.9957 10.4783 15.1015 10.29 15.2898L8.29004 17.2898C8.199 17.3849 8.12763 17.4971 8.08004 17.6198C7.98002 17.8633 7.98002 18.1364 8.08004 18.3798C8.12763 18.5026 8.199 18.6147 8.29004 18.7098L10.29 20.7098C10.383 20.8036 10.4936 20.878 10.6155 20.9287C10.7373 20.9795 10.868 21.0056 11 21.0056C11.132 21.0056 11.2628 20.9795 11.3846 20.9287C11.5065 20.878 11.6171 20.8036 11.71 20.7098C11.8038 20.6169 11.8782 20.5063 11.9289 20.3844C11.9797 20.2626 12.0058 20.1318 12.0058 19.9998C12.0058 19.8678 11.9797 19.7371 11.9289 19.6153C11.8782 19.4934 11.8038 19.3828 11.71 19.2898L11.41 18.9998H15C16.8566 18.9998 18.637 18.2623 19.9498 16.9496C21.2625 15.6368 22 13.8564 22 11.9998C22.0034 10.9584 21.7724 9.92958 21.324 8.9896C20.8757 8.04962 20.2215 7.2226 19.41 6.56984Z" fill="currentColor"/>
  </symbol>
</svg>
