<!-- JioGames DLS — reply icons (3 icons) -->
<svg xmlns="http://www.w3.org/2000/svg" style="display:none">
  <symbol id="ic_reply" viewBox="0 0 24 24">
    <path d="M2.58989 9.58999L7.58989 4.58999C7.86891 4.30912 8.22501 4.11737 8.61309 4.03905C9.00117 3.96072 9.40377 3.99933 9.76989 4.14999C10.1348 4.30223 10.4464 4.55923 10.6654 4.88851C10.8843 5.21779 11.0007 5.60458 10.9999 5.99999V7.99999C10.9999 7.99999 21.2499 9.85999 21.9999 19.84C22.0094 19.9872 21.9889 20.1349 21.9396 20.274C21.8904 20.4131 21.8134 20.5407 21.7133 20.6492C21.6133 20.7576 21.4923 20.8447 21.3576 20.905C21.2229 20.9653 21.0774 20.9976 20.9299 21C20.7022 20.992 20.4829 20.9123 20.3033 20.7722C20.1237 20.6321 19.993 20.4389 19.9299 20.22C19.3199 18.39 17.3299 14 10.9999 14V16C11.0007 16.3954 10.8843 16.7822 10.6654 17.1115C10.4464 17.4408 10.1348 17.6978 9.76989 17.85C9.52513 17.9486 9.26377 17.9995 8.99989 18C8.47031 17.9978 7.96324 17.7856 7.58989 17.41L2.58989 12.41C2.21738 12.0353 2.0083 11.5284 2.0083 11C2.0083 10.4716 2.21738 9.96472 2.58989 9.58999Z" fill="currentColor"/>
  </symbol>
  <symbol id="ic_reply_all" viewBox="0 0 24 24">
    <path d="M10.9999 9.00029V7.00029C11.0007 6.60488 10.8843 6.21809 10.6654 5.88881C10.4464 5.55953 10.1348 5.30253 9.76989 5.15029C9.40377 4.99963 9.00117 4.96102 8.61309 5.03934C8.22501 5.11767 7.86891 5.30942 7.58989 5.59029L2.58989 10.5903C2.21738 10.965 2.0083 11.4719 2.0083 12.0003C2.0083 12.5287 2.21738 13.0356 2.58989 13.4103L7.58989 18.4103C7.96324 18.7859 8.47031 18.9981 8.99989 19.0003C9.26377 18.9998 9.52513 18.9489 9.76989 18.8503C10.1348 18.6981 10.4464 18.4411 10.6654 18.1118C10.8843 17.7825 11.0007 17.3957 10.9999 17.0003V15.0003C17.3299 15.0003 19.3199 19.3903 19.8499 21.2203C19.913 21.4391 20.0437 21.6324 20.2233 21.7725C20.4029 21.9126 20.6222 21.9923 20.8499 22.0003C21.0041 22.0091 21.1584 21.9851 21.3026 21.9298C21.4468 21.8745 21.5776 21.7892 21.6863 21.6795C21.7951 21.5698 21.8792 21.4383 21.9333 21.2936C21.9874 21.1489 22.0101 20.9944 21.9999 20.8403C21.2499 10.8603 10.9999 9.00029 10.9999 9.00029ZM12.9999 7.00029V7.44029C16.7123 8.57167 19.902 10.9852 21.9999 14.2503C21.9999 14.2503 21.9999 14.1603 21.9999 14.1103C21.4299 6.48029 13.5899 5.11029 13.5899 5.11029V3.53029C13.5854 3.23228 13.4939 2.94207 13.3268 2.69532C13.1596 2.44856 12.924 2.256 12.6489 2.14129C12.3738 2.02658 12.0712 1.99472 11.7783 2.04961C11.4853 2.10451 11.2148 2.24377 10.9999 2.45029L10.2399 3.21029C10.3399 3.21029 10.4499 3.21029 10.5499 3.30029C11.2779 3.6063 11.899 4.12095 12.335 4.77939C12.771 5.43783 13.0024 6.21059 12.9999 7.00029Z" fill="currentColor"/>
  </symbol>
  <symbol id="ic_reply_circle" viewBox="0 0 24 24">
    <path d="M12 2C13.9778 2 15.9112 2.58649 17.5557 3.6853C19.2002 4.78412 20.4819 6.3459 21.2388 8.17317C21.9957 10.0004 22.1937 12.0111 21.8079 13.9509C21.422 15.8907 20.4696 17.6725 19.0711 19.0711C17.6725 20.4696 15.8907 21.422 13.9509 21.8079C12.0111 22.1937 10.0004 21.9957 8.17317 21.2388C6.3459 20.4819 4.78412 19.2002 3.6853 17.5557C2.58649 15.9112 2 13.9778 2 12C2 9.34784 3.05357 6.8043 4.92893 4.92893C6.8043 3.05357 9.34784 2 12 2ZM7.29 10.71L9.29 12.71C9.38296 12.8037 9.49356 12.8781 9.61542 12.9289C9.73728 12.9797 9.86799 13.0058 10 13.0058C10.132 13.0058 10.2627 12.9797 10.3846 12.9289C10.5064 12.8781 10.617 12.8037 10.71 12.71C10.8037 12.617 10.8781 12.5064 10.9289 12.3846C10.9797 12.2627 11.0058 12.132 11.0058 12C11.0058 11.868 10.9797 11.7373 10.9289 11.6154C10.8781 11.4936 10.8037 11.383 10.71 11.29L10.41 11H13C13.2672 10.9823 13.5351 11.0219 13.7858 11.1162C14.0365 11.2105 14.2641 11.3572 14.4535 11.5465C14.6428 11.7359 14.7895 11.9635 14.8838 12.2142C14.9781 12.4649 15.0177 12.7328 15 13V15C15 15.2652 15.1054 15.5196 15.2929 15.7071C15.4804 15.8946 15.7348 16 16 16C16.2652 16 16.5196 15.8946 16.7071 15.7071C16.8946 15.5196 17 15.2652 17 15V13C17.0152 12.4706 16.9221 11.9436 16.7265 11.4515C16.5308 10.9593 16.2368 10.5123 15.8622 10.1378C15.4877 9.76325 15.0407 9.46916 14.5485 9.27352C14.0564 9.07788 13.5294 8.98481 13 9H10.41L10.71 8.71C10.8032 8.61676 10.8772 8.50607 10.9277 8.38425C10.9781 8.26243 11.0041 8.13186 11.0041 8C11.0041 7.86814 10.9781 7.73757 10.9277 7.61575C10.8772 7.49393 10.8032 7.38324 10.71 7.29C10.6168 7.19676 10.5061 7.1228 10.3842 7.07234C10.2624 7.02188 10.1319 6.99591 10 6.99591C9.86814 6.99591 9.73757 7.02188 9.61575 7.07234C9.49393 7.1228 9.38324 7.19676 9.29 7.29L7.29 9.29C7.19627 9.38296 7.12188 9.49356 7.07111 9.61542C7.02034 9.73728 6.9942 9.86799 6.9942 10C6.9942 10.132 7.02034 10.2627 7.07111 10.3846C7.12188 10.5064 7.19627 10.617 7.29 10.71Z" fill="currentColor"/>
  </symbol>
</svg>
