<!-- JioGames DLS — reset icons (2 icons) -->
<svg xmlns="http://www.w3.org/2000/svg" style="display:none">
  <symbol id="ic_reset" viewBox="0 0 24 24">
    <path d="M11.9999 4.00001C9.94406 3.99756 7.96617 4.78667 6.47661 6.20362C4.98704 7.62057 4.10014 9.55659 3.99992 11.61L3.68992 11.29C3.50162 11.1017 3.24622 10.9959 2.97992 10.9959C2.71362 10.9959 2.45823 11.1017 2.26992 11.29C2.08162 11.4783 1.97583 11.7337 1.97583 12C1.97583 12.2663 2.08162 12.5217 2.26992 12.71L4.26992 14.71C4.36288 14.8037 4.47349 14.8781 4.59535 14.9289C4.7172 14.9797 4.84791 15.0058 4.97992 15.0058C5.11193 15.0058 5.24264 14.9797 5.3645 14.9289C5.48636 14.8781 5.59696 14.8037 5.68992 14.71L7.68992 12.71C7.78316 12.6168 7.85712 12.5061 7.90758 12.3843C7.95804 12.2624 7.98401 12.1319 7.98401 12C7.98401 11.8681 7.95804 11.7376 7.90758 11.6158C7.85712 11.4939 7.78316 11.3832 7.68992 11.29C7.59668 11.1968 7.48599 11.1228 7.36417 11.0723C7.24235 11.0219 7.11178 10.9959 6.97992 10.9959C6.84806 10.9959 6.71749 11.0219 6.59567 11.0723C6.47385 11.1228 6.36316 11.1968 6.26992 11.29L5.99992 11.56C6.09785 10.1974 6.65787 8.90892 7.58739 7.90773C8.51692 6.90654 9.76029 6.25254 11.1119 6.05386C12.4636 5.85518 13.8425 6.12373 15.0209 6.81509C16.1992 7.50646 17.1063 8.57924 17.5922 9.85608C18.0781 11.1329 18.1137 12.5373 17.6931 13.8372C17.2725 15.137 16.421 16.2543 15.2792 17.0045C14.1374 17.7547 12.7739 18.0928 11.4139 17.9629C10.0539 17.833 8.77899 17.2428 7.79992 16.29C7.71107 16.1807 7.60011 16.0913 7.47432 16.0278C7.34853 15.9644 7.21075 15.9282 7.07 15.9217C6.92925 15.9152 6.78872 15.9385 6.65761 15.9901C6.5265 16.0417 6.40778 16.1204 6.30922 16.2211C6.21066 16.3218 6.13449 16.4422 6.0857 16.5744C6.03691 16.7065 6.01661 16.8475 6.02612 16.9881C6.03562 17.1287 6.07473 17.2657 6.14087 17.3901C6.20702 17.5145 6.2987 17.6235 6.40992 17.71C7.89753 19.1819 9.90722 20.0052 11.9999 20C14.1217 20 16.1565 19.1572 17.6568 17.6569C19.1571 16.1566 19.9999 14.1217 19.9999 12C19.9999 9.87827 19.1571 7.84344 17.6568 6.34315C16.1565 4.84286 14.1217 4.00001 11.9999 4.00001Z" fill="currentColor"/>
  </symbol>
  <symbol id="ic_reset_password" viewBox="0 0 24 24">
    <path d="M13.75 3.63984C14.09 3.23984 14.07 2.64984 13.69 2.27984C13.29 1.89984 12.66 1.90984 12.28 2.29984L10.87 3.75984C10.49 4.14984 10.49 4.75984 10.87 5.14984L12.28 6.60984C12.48 6.80984 12.74 6.90984 13 6.90984C13.26 6.90984 13.5 6.81984 13.7 6.62984C13.95 6.38984 14.03 6.05984 13.97 5.74984C16.87 6.63984 19 9.41984 19 12.7198C19 16.7298 15.86 19.9898 12 19.9898C8.14 19.9898 5 16.7298 5 12.7198C5 12.1698 4.55 11.7198 4 11.7198C3.45 11.7198 3 12.1698 3 12.7198C3 17.8298 7.04 21.9898 12 21.9898C16.96 21.9898 21 17.8298 21 12.7198C21 8.22984 17.88 4.46984 13.75 3.62984V3.63984Z" fill="currentColor"/>
<path d="M10.19 17.9998H13.8C14.28 17.9998 14.74 17.8098 15.08 17.4698C15.42 17.1298 15.61 16.6698 15.61 16.1798V12.5398C15.61 12.2198 15.52 11.9098 15.37 11.6398C15.21 11.3698 14.98 11.1398 14.71 10.9798V10.7298C14.71 10.0098 14.42 9.30984 13.92 8.79984C13.41 8.28984 12.72 7.99984 12 7.99984C11.28 7.99984 10.59 8.28984 10.08 8.79984C9.57 9.30984 9.29 10.0098 9.29 10.7298V10.9798C9.02 11.1398 8.79 11.3698 8.63 11.6398C8.47 11.9098 8.39 12.2298 8.39 12.5398V16.1798C8.39 16.6598 8.58 17.1198 8.92 17.4698C9.26 17.8098 9.72 17.9998 10.2 17.9998H10.19ZM11.36 10.0798C11.53 9.90984 11.76 9.80984 12 9.80984C12.24 9.80984 12.47 9.90984 12.64 10.0798C12.81 10.2498 12.9 10.4798 12.9 10.7198H11.09C11.09 10.4798 11.19 10.2498 11.35 10.0798H11.36Z" fill="currentColor"/>
  </symbol>
</svg>
