<!-- JioGames DLS — roaming icons (3 icons) -->
<svg xmlns="http://www.w3.org/2000/svg" style="display:none">
  <symbol id="ic_roaming" viewBox="0 0 24 24">
    <path d="M20.69 7.31L16.69 3.31C16.5504 3.17674 16.3753 3.08671 16.1857 3.05077C15.9961 3.01484 15.8001 3.03453 15.6215 3.10747C15.4428 3.18042 15.2891 3.3035 15.1788 3.46187C15.0685 3.62024 15.0064 3.80713 15 4V20C15 20.2652 15.1054 20.5196 15.2929 20.7071C15.4804 20.8946 15.7348 21 16 21C16.2652 21 16.5196 20.8946 16.7071 20.7071C16.8946 20.5196 17 20.2652 17 20V6.45L19.27 8.73C19.3632 8.82324 19.4739 8.8972 19.5958 8.94766C19.7176 8.99812 19.8481 9.02409 19.98 9.02409C20.1119 9.02409 20.2424 8.99812 20.3643 8.94766C20.4861 8.8972 20.5968 8.82324 20.69 8.73C20.7832 8.63676 20.8572 8.52607 20.9077 8.40425C20.9581 8.28243 20.9841 8.15186 20.9841 8.02C20.9841 7.88814 20.9581 7.75757 20.9077 7.63575C20.8572 7.51393 20.7832 7.40324 20.69 7.31ZM8 11C8.15688 11.0019 8.31168 10.964 8.45 10.89C8.68552 10.7701 8.86402 10.5619 8.94646 10.3108C9.02891 10.0597 9.00861 9.78617 8.89 9.55L8.16 8.08C8.56786 7.65609 8.84209 7.12163 8.94858 6.54309C9.05508 5.96455 8.98913 5.36747 8.75895 4.82612C8.52876 4.28476 8.14451 3.82303 7.65397 3.49835C7.16343 3.17366 6.58826 3.00036 6 3H4C3.73478 3 3.48043 3.10536 3.29289 3.29289C3.10536 3.48043 3 3.73478 3 4V10C3 10.2652 3.10536 10.5196 3.29289 10.7071C3.48043 10.8946 3.73478 11 4 11C4.26522 11 4.51957 10.8946 4.70711 10.7071C4.89464 10.5196 5 10.2652 5 10V9H6C6.1198 9.00983 6.2402 9.00983 6.36 9L7.11 10.49C7.19847 10.6475 7.32793 10.778 7.48463 10.8678C7.64133 10.9576 7.81942 11.0033 8 11ZM6 7H5V5H6C6.26522 5 6.51957 5.10536 6.70711 5.29289C6.89464 5.48043 7 5.73478 7 6C7 6.26522 6.89464 6.51957 6.70711 6.70711C6.51957 6.89464 6.26522 7 6 7ZM12 3C11.7348 3 11.4804 3.10536 11.2929 3.29289C11.1054 3.48043 11 3.73478 11 4V17.59L8.71 15.29C8.61676 15.1968 8.50607 15.1228 8.38425 15.0723C8.26243 15.0219 8.13186 14.9959 8 14.9959C7.86814 14.9959 7.73757 15.0219 7.61575 15.0723C7.49393 15.1228 7.38324 15.1968 7.29 15.29C7.19676 15.3832 7.1228 15.4939 7.07234 15.6158C7.02188 15.7376 6.99591 15.8681 6.99591 16C6.99591 16.2663 7.1017 16.5217 7.29 16.71L11.29 20.71C11.3834 20.8027 11.4943 20.876 11.6161 20.9258C11.7379 20.9755 11.8684 21.0008 12 21C12.1312 21.0034 12.2613 20.976 12.38 20.92C12.5626 20.845 12.7189 20.7176 12.8293 20.5539C12.9396 20.3901 12.999 20.1974 13 20V4C13 3.73478 12.8946 3.48043 12.7071 3.29289C12.5196 3.10536 12.2652 3 12 3Z" fill="currentColor"/>
  </symbol>
  <symbol id="ic_roaming_network" viewBox="0 0 24 24">
    <path d="M8.16 8.07996C8.56786 7.65605 8.84209 7.12158 8.94858 6.54305C9.05508 5.96451 8.98913 5.36743 8.75895 4.82607C8.52876 4.28472 8.14451 3.82299 7.65397 3.4983C7.16343 3.17362 6.58826 3.00032 6 2.99996H4C3.73478 2.99996 3.48043 3.10531 3.29289 3.29285C3.10536 3.48039 3 3.73474 3 3.99996V9.99996C3 10.2652 3.10536 10.5195 3.29289 10.7071C3.48043 10.8946 3.73478 11 4 11C4.26522 11 4.51957 10.8946 4.70711 10.7071C4.89464 10.5195 5 10.2652 5 9.99996V8.99996H6C6.1198 9.00979 6.2402 9.00979 6.36 8.99996L7.11 10.49C7.19847 10.6474 7.32793 10.778 7.48463 10.8678C7.64133 10.9576 7.81942 11.0032 8 11C8.15688 11.0018 8.31168 10.964 8.45 10.89C8.68552 10.7701 8.86402 10.5618 8.94646 10.3107C9.02891 10.0596 9.00861 9.78613 8.89 9.54996L8.16 8.07996ZM6 6.99996H5V4.99996H6C6.26522 4.99996 6.51957 5.10531 6.70711 5.29285C6.89464 5.48039 7 5.73474 7 5.99996C7 6.26517 6.89464 6.51953 6.70711 6.70706C6.51957 6.8946 6.26522 6.99996 6 6.99996ZM6 17C5.73478 17 5.48043 17.1053 5.29289 17.2928C5.10536 17.4804 5 17.7347 5 18V20C5 20.2652 5.10536 20.5195 5.29289 20.7071C5.48043 20.8946 5.73478 21 6 21C6.26522 21 6.51957 20.8946 6.70711 20.7071C6.89464 20.5195 7 20.2652 7 20V18C7 17.7347 6.89464 17.4804 6.70711 17.2928C6.51957 17.1053 6.26522 17 6 17ZM18.71 3.28996C18.5701 3.14893 18.3914 3.05275 18.1967 3.01368C18.0019 2.97461 17.8 2.99442 17.6165 3.07059C17.4331 3.14675 17.2765 3.27582 17.1667 3.44134C17.0569 3.60686 16.9988 3.80133 17 3.99996V20C17 20.2652 17.1054 20.5195 17.2929 20.7071C17.4804 20.8946 17.7348 21 18 21C18.2652 21 18.5196 20.8946 18.7071 20.7071C18.8946 20.5195 19 20.2652 19 20V3.99996C19.0008 3.86835 18.9755 3.73789 18.9258 3.61605C18.876 3.49421 18.8027 3.3834 18.71 3.28996ZM14 6.99996C13.7348 6.99996 13.4804 7.10531 13.2929 7.29285C13.1054 7.48039 13 7.73474 13 7.99996V20C13 20.2652 13.1054 20.5195 13.2929 20.7071C13.4804 20.8946 13.7348 21 14 21C14.2652 21 14.5196 20.8946 14.7071 20.7071C14.8946 20.5195 15 20.2652 15 20V7.99996C15 7.73474 14.8946 7.48039 14.7071 7.29285C14.5196 7.10531 14.2652 6.99996 14 6.99996ZM10 13C9.73478 13 9.48043 13.1053 9.29289 13.2928C9.10536 13.4804 9 13.7347 9 14V20C9 20.2652 9.10536 20.5195 9.29289 20.7071C9.48043 20.8946 9.73478 21 10 21C10.2652 21 10.5196 20.8946 10.7071 20.7071C10.8946 20.5195 11 20.2652 11 20V14C11 13.7347 10.8946 13.4804 10.7071 13.2928C10.5196 13.1053 10.2652 13 10 13Z" fill="currentColor"/>
  </symbol>
  <symbol id="ic_roaming_off" viewBox="0 0 24 24">
    <path d="M15.6199 3.12017C15.4434 3.19245 15.2913 3.3137 15.1814 3.46962C15.0716 3.62554 15.0086 3.80963 14.9999 4.00017V4.72017L16.5499 3.17017C16.4106 3.08701 16.2531 3.039 16.0911 3.03029C15.9291 3.02158 15.7674 3.05242 15.6199 3.12017ZM12.9999 4.00017C12.9999 3.73495 12.8946 3.4806 12.707 3.29306C12.5195 3.10552 12.2652 3.00017 11.9999 3.00017C11.7347 3.00017 11.4804 3.10552 11.2928 3.29306C11.1053 3.4806 10.9999 3.73495 10.9999 4.00017V8.76017L12.9999 6.76017V4.00017ZM3.99994 11.0002C4.26516 11.0002 4.51951 10.8948 4.70705 10.7073C4.89458 10.5197 4.99994 10.2654 4.99994 10.0002V9.00017H5.99994C6.11974 9.01 6.24014 9.01 6.35994 9.00017L7.10994 10.4902C7.19841 10.6476 7.32786 10.7782 7.48457 10.868C7.64127 10.9578 7.81936 11.0035 7.99994 11.0002C8.15682 11.002 8.31162 10.9642 8.44994 10.8902C8.68546 10.7703 8.86395 10.562 8.9464 10.3109C9.02885 10.0599 9.00855 9.78633 8.88994 9.55017L8.15994 8.08017C8.5678 7.65626 8.84203 7.12179 8.94852 6.54326C9.05501 5.96472 8.98907 5.36764 8.75889 4.82628C8.5287 4.28493 8.14444 3.82319 7.65391 3.49851C7.16337 3.17383 6.5882 3.00053 5.99994 3.00017H3.99994C3.73472 3.00017 3.48037 3.10552 3.29283 3.29306C3.1053 3.4806 2.99994 3.73495 2.99994 4.00017V10.0002C2.99994 10.2654 3.1053 10.5197 3.29283 10.7073C3.48037 10.8948 3.73472 11.0002 3.99994 11.0002ZM4.99994 5.00017H5.99994C6.26516 5.00017 6.51951 5.10552 6.70705 5.29306C6.89458 5.4806 6.99994 5.73495 6.99994 6.00017C6.99994 6.26538 6.89458 6.51974 6.70705 6.70727C6.51951 6.89481 6.26516 7.00017 5.99994 7.00017H4.99994V5.00017ZM19.3899 6.00017L20.7099 4.69017C20.8982 4.50186 21.004 4.24647 21.004 3.98017C21.004 3.71386 20.8982 3.45847 20.7099 3.27017C20.5216 3.08186 20.2662 2.97607 19.9999 2.97607C19.7336 2.97607 19.4782 3.08186 19.2899 3.27017L3.28994 19.2702C3.19621 19.3631 3.12182 19.4737 3.07105 19.5956C3.02028 19.7174 2.99414 19.8482 2.99414 19.9802C2.99414 20.1122 3.02028 20.2429 3.07105 20.3647C3.12182 20.4866 3.19621 20.5972 3.28994 20.6902C3.3829 20.7839 3.4935 20.8583 3.61536 20.9091C3.73722 20.9598 3.86793 20.986 3.99994 20.986C4.13195 20.986 4.26266 20.9598 4.38452 20.9091C4.50638 20.8583 4.61698 20.7839 4.70994 20.6902L7.99994 17.4102L11.2899 20.7102C11.3834 20.8028 11.4942 20.8762 11.616 20.9259C11.7379 20.9757 11.8683 21.0009 11.9999 21.0002C12.1311 21.0035 12.2613 20.9761 12.3799 20.9202C12.5626 20.8451 12.7189 20.7177 12.8292 20.554C12.9396 20.3903 12.999 20.1976 12.9999 20.0002V12.4102L14.9999 10.4102V20.0002C14.9999 20.2654 15.1053 20.5197 15.2928 20.7073C15.4804 20.8948 15.7347 21.0002 15.9999 21.0002C16.2652 21.0002 16.5195 20.8948 16.707 20.7073C16.8946 20.5197 16.9999 20.2654 16.9999 20.0002V8.41017L17.9999 7.41017L19.2899 8.71017C19.4782 8.89847 19.7336 9.00426 19.9999 9.00426C20.2662 9.00426 20.5216 8.89847 20.7099 8.71017C20.8982 8.52186 21.004 8.26647 21.004 8.00017C21.004 7.73386 20.8982 7.47847 20.7099 7.29017L19.3899 6.00017ZM10.9999 17.5902L9.40994 16.0002L10.9999 14.4102V17.5902Z" fill="currentColor"/>
  </symbol>
</svg>
