<!-- JioGames DLS — rop icons (6 icons) -->
<svg xmlns="http://www.w3.org/2000/svg" style="display:none">
  <symbol id="ic_crop" viewBox="0 0 24 24">
    <path d="M17 14C17 14.2652 17.1054 14.5196 17.2929 14.7071C17.4804 14.8946 17.7348 15 18 15C18.2652 15 18.5196 14.8946 18.7071 14.7071C18.8946 14.5196 19 14.2652 19 14V6C19 5.73478 18.8946 5.48043 18.7071 5.29289C18.5196 5.10536 18.2652 5 18 5H7V3C7 2.73478 6.89464 2.48043 6.70711 2.29289C6.51957 2.10536 6.26522 2 6 2C5.73478 2 5.48043 2.10536 5.29289 2.29289C5.10536 2.48043 5 2.73478 5 3V5H3C2.73478 5 2.48043 5.10536 2.29289 5.29289C2.10536 5.48043 2 5.73478 2 6C2 6.26522 2.10536 6.51957 2.29289 6.70711C2.48043 6.89464 2.73478 7 3 7H17V14ZM21 17H7V10C7 9.73478 6.89464 9.48043 6.70711 9.29289C6.51957 9.10536 6.26522 9 6 9C5.73478 9 5.48043 9.10536 5.29289 9.29289C5.10536 9.48043 5 9.73478 5 10V18C5 18.2652 5.10536 18.5196 5.29289 18.7071C5.48043 18.8946 5.73478 19 6 19H17V21C17 21.2652 17.1054 21.5196 17.2929 21.7071C17.4804 21.8946 17.7348 22 18 22C18.2652 22 18.5196 21.8946 18.7071 21.7071C18.8946 21.5196 19 21.2652 19 21V19H21C21.2652 19 21.5196 18.8946 21.7071 18.7071C21.8946 18.5196 22 18.2652 22 18C22 17.7348 21.8946 17.4804 21.7071 17.2929C21.5196 17.1054 21.2652 17 21 17Z" fill="currentColor"/>
  </symbol>
  <symbol id="ic_crop_free" viewBox="0 0 24 24">
    <path d="M4 6V15.76L6 13.76V6H13.76L15.76 4H6V3C6 2.73478 5.89464 2.48043 5.70711 2.29289C5.51957 2.10536 5.26522 2 5 2C4.73478 2 4.48043 2.10536 4.29289 2.29289C4.10536 2.48043 4 2.73478 4 3V4H3C2.73478 4 2.48043 4.10536 2.29289 4.29289C2.10536 4.48043 2 4.73478 2 5C2 5.26522 2.10536 5.51957 2.29289 5.70711C2.48043 5.89464 2.73478 6 3 6H4ZM21 18H20V6C19.9978 5.82776 19.9743 5.65647 19.93 5.49L20.71 4.71C20.8983 4.5217 21.0041 4.2663 21.0041 4C21.0041 3.7337 20.8983 3.4783 20.71 3.29C20.5217 3.1017 20.2663 2.99591 20 2.99591C19.7337 2.99591 19.4783 3.1017 19.29 3.29L3.29 19.29C3.19627 19.383 3.12188 19.4936 3.07111 19.6154C3.02034 19.7373 2.9942 19.868 2.9942 20C2.9942 20.132 3.02034 20.2627 3.07111 20.3846C3.12188 20.5064 3.19627 20.617 3.29 20.71C3.38296 20.8037 3.49356 20.8781 3.61542 20.9289C3.73728 20.9797 3.86799 21.0058 4 21.0058C4.13201 21.0058 4.26272 20.9797 4.38458 20.9289C4.50644 20.8781 4.61704 20.8037 4.71 20.71L5.49 19.93C5.65647 19.9743 5.82776 19.9978 6 20H18V21C18 21.2652 18.1054 21.5196 18.2929 21.7071C18.4804 21.8946 18.7348 22 19 22C19.2652 22 19.5196 21.8946 19.7071 21.7071C19.8946 21.5196 20 21.2652 20 21V20H21C21.2652 20 21.5196 19.8946 21.7071 19.7071C21.8946 19.5196 22 19.2652 22 19C22 18.7348 21.8946 18.4804 21.7071 18.2929C21.5196 18.1054 21.2652 18 21 18ZM18 18H7.41L18 7.41V18Z" fill="currentColor"/>
  </symbol>
  <symbol id="ic_crop_original" viewBox="0 0 24 24">
    <path d="M21 18H20V6C20 5.46957 19.7893 4.96086 19.4142 4.58579C19.0391 4.21071 18.5304 4 18 4H6V3C6 2.73478 5.89464 2.48043 5.70711 2.29289C5.51957 2.10536 5.26522 2 5 2C4.73478 2 4.48043 2.10536 4.29289 2.29289C4.10536 2.48043 4 2.73478 4 3V4H3C2.73478 4 2.48043 4.10536 2.29289 4.29289C2.10536 4.48043 2 4.73478 2 5C2 5.26522 2.10536 5.51957 2.29289 5.70711C2.48043 5.89464 2.73478 6 3 6H4V18C4 18.5304 4.21071 19.0391 4.58579 19.4142C4.96086 19.7893 5.46957 20 6 20H18V21C18 21.2652 18.1054 21.5196 18.2929 21.7071C18.4804 21.8946 18.7348 22 19 22C19.2652 22 19.5196 21.8946 19.7071 21.7071C19.8946 21.5196 20 21.2652 20 21V20H21C21.2652 20 21.5196 19.8946 21.7071 19.7071C21.8946 19.5196 22 19.2652 22 19C22 18.7348 21.8946 18.4804 21.7071 18.2929C21.5196 18.1054 21.2652 18 21 18ZM18 11.09L16.21 9.29C16.117 9.19627 16.0064 9.12188 15.8846 9.07111C15.7627 9.02034 15.632 8.9942 15.5 8.9942C15.368 8.9942 15.2373 9.02034 15.1154 9.07111C14.9936 9.12188 14.883 9.19627 14.79 9.29L10.5 13.59L9.21 12.29C9.11704 12.1963 9.00644 12.1219 8.88458 12.0711C8.76272 12.0203 8.63201 11.9942 8.5 11.9942C8.36799 11.9942 8.23728 12.0203 8.11542 12.0711C7.99356 12.1219 7.88296 12.1963 7.79 12.29L6 14.09V6H18V11.09ZM8.5 10C8.69778 10 8.89112 9.94135 9.05557 9.83147C9.22002 9.72159 9.34819 9.56541 9.42388 9.38268C9.49957 9.19996 9.51937 8.99889 9.48079 8.80491C9.4422 8.61093 9.34696 8.43275 9.20711 8.29289C9.06725 8.15304 8.88907 8.0578 8.69509 8.01921C8.50111 7.98063 8.30004 8.00043 8.11732 8.07612C7.93459 8.15181 7.77841 8.27998 7.66853 8.44443C7.55865 8.60888 7.5 8.80222 7.5 9C7.5 9.26522 7.60536 9.51957 7.79289 9.70711C7.98043 9.89464 8.23478 10 8.5 10Z" fill="currentColor"/>
  </symbol>
  <symbol id="ic_crop_planning_style_1" viewBox="0 0 24 24">
    <path d="M19.82 16.11C19.315 16.2076 18.8244 16.3689 18.36 16.59L18 16.74V14.41L20.71 11.71C20.8032 11.6168 20.8772 11.5061 20.9277 11.3842C20.9781 11.2624 21.0041 11.1319 21.0041 11C21.0041 10.8681 20.9781 10.7376 20.9277 10.6158C20.8772 10.4939 20.8032 10.3832 20.71 10.29C20.6168 10.1968 20.5061 10.1228 20.3843 10.0723C20.2624 10.0219 20.1319 9.99591 20 9.99591C19.8681 9.99591 19.7376 10.0219 19.6158 10.0723C19.4939 10.1228 19.3832 10.1968 19.29 10.29L18 11.59V9.41L19.71 7.71C19.8983 7.5217 20.0041 7.2663 20.0041 7C20.0041 6.7337 19.8983 6.4783 19.71 6.29C19.5217 6.1017 19.2663 5.99591 19 5.99591C18.7337 5.99591 18.4783 6.1017 18.29 6.29L18 6.59V4C18 3.73478 17.8946 3.48043 17.7071 3.29289C17.5196 3.10536 17.2652 3 17 3C16.7348 3 16.4804 3.10536 16.2929 3.29289C16.1054 3.48043 16 3.73478 16 4V6.59L15.71 6.29C15.5217 6.1017 15.2663 5.99591 15 5.99591C14.7337 5.99591 14.4783 6.1017 14.29 6.29C14.1017 6.4783 13.9959 6.7337 13.9959 7C13.9959 7.2663 14.1017 7.5217 14.29 7.71L16 9.41V11.59L14.71 10.29C14.5217 10.1017 14.2663 9.99591 14 9.99591C13.7337 9.99591 13.4783 10.1017 13.29 10.29C13.1017 10.4783 12.9959 10.7337 12.9959 11C12.9959 11.2663 13.1017 11.5217 13.29 11.71L16 14.41V17C15.5305 16.9573 15.0729 16.8285 14.65 16.62C13.8302 16.2009 12.9206 15.9881 12 16C11.0786 15.9775 10.1655 16.1801 9.34 16.59C8.9227 16.8088 8.46827 16.9478 8 17V14.41L9.71 12.71C9.8983 12.5217 10.0041 12.2663 10.0041 12C10.0041 11.7337 9.8983 11.4783 9.71 11.29C9.5217 11.1017 9.2663 10.9959 9 10.9959C8.7337 10.9959 8.4783 11.1017 8.29 11.29L8 11.59V9C8 8.73478 7.89464 8.48043 7.70711 8.29289C7.51957 8.10536 7.26522 8 7 8C6.73478 8 6.48043 8.10536 6.29289 8.29289C6.10536 8.48043 6 8.73478 6 9V11.59L5.71 11.29C5.5217 11.1017 5.2663 10.9959 5 10.9959C4.7337 10.9959 4.4783 11.1017 4.29 11.29C4.1017 11.4783 3.99591 11.7337 3.99591 12C3.99591 12.2663 4.1017 12.5217 4.29 12.71L6 14.41V16.74L5.63 16.59C5.16909 16.3689 4.68181 16.2076 4.18 16.11C4.03628 16.0829 3.88837 16.0877 3.74669 16.124C3.60501 16.1602 3.47301 16.2272 3.36 16.32C3.24712 16.414 3.15634 16.5318 3.09412 16.6648C3.0319 16.7979 2.99976 16.9431 3 17.09V20C3 20.2652 3.10536 20.5196 3.29289 20.7071C3.48043 20.8946 3.73478 21 4 21H20C20.2652 21 20.5196 20.8946 20.7071 20.7071C20.8946 20.5196 21 20.2652 21 20V17.09C21.0002 16.9431 20.9681 16.7979 20.9059 16.6648C20.8437 16.5318 20.7529 16.414 20.64 16.32C20.527 16.2272 20.395 16.1602 20.2533 16.124C20.1116 16.0877 19.9637 16.0829 19.82 16.11Z" fill="currentColor"/>
  </symbol>
  <symbol id="ic_crop_planning_style_2" viewBox="0 0 24 24">
    <path d="M20.6399 16.32C20.5269 16.2272 20.3949 16.1602 20.2532 16.124C20.1115 16.0877 19.9636 16.0829 19.8199 16.11C19.3149 16.2076 18.8243 16.3689 18.3599 16.59L17.9999 16.74V13.88C18.7564 13.6647 19.4378 13.2428 19.9678 12.6617C20.4977 12.0805 20.8551 11.3631 20.9999 10.59C21.0142 10.5178 21.0117 10.4433 20.9927 10.3722C20.9736 10.3011 20.9384 10.2353 20.8899 10.18C20.8428 10.1223 20.7832 10.0762 20.7157 10.045C20.6481 10.0138 20.5743 9.99841 20.4999 10C19.5908 9.97997 18.7043 10.2849 17.9999 10.86V8.86C18.7564 8.64473 19.4378 8.22282 19.9678 7.64165C20.4977 7.06048 20.8551 6.34307 20.9999 5.57C21.0142 5.4978 21.0117 5.42327 20.9927 5.35218C20.9736 5.28109 20.9384 5.21533 20.8899 5.16C20.8409 5.10599 20.7804 5.0636 20.713 5.03592C20.6455 5.00824 20.5727 4.99597 20.4999 5C19.5908 4.97997 18.7043 5.28491 17.9999 5.86V4C17.9999 3.73478 17.8945 3.48043 17.707 3.29289C17.5195 3.10536 17.2651 3 16.9999 3C16.7347 3 16.4803 3.10536 16.2928 3.29289C16.1052 3.48043 15.9999 3.73478 15.9999 4V5.86C15.2955 5.28491 14.409 4.97997 13.4999 5C13.4272 4.99992 13.3553 5.01603 13.2896 5.04717C13.2239 5.0783 13.1659 5.12368 13.1199 5.18C13.0713 5.23533 13.0362 5.30109 13.0171 5.37218C12.998 5.44327 12.9956 5.5178 13.0099 5.59C13.1546 6.36307 13.512 7.08048 14.042 7.66165C14.5719 8.24282 15.2534 8.66473 16.0099 8.88V10.88C15.3057 10.2955 14.415 9.98318 13.4999 10C13.4272 9.99992 13.3553 10.016 13.2896 10.0472C13.2239 10.0783 13.1659 10.1237 13.1199 10.18C13.0713 10.2353 13.0362 10.3011 13.0171 10.3722C12.998 10.4433 12.9956 10.5178 13.0099 10.59C13.1546 11.3631 13.512 12.0805 14.042 12.6617C14.5719 13.2428 15.2534 13.6647 16.0099 13.88V17C15.5407 16.9557 15.0833 16.827 14.6599 16.62C13.8371 16.1993 12.9239 15.9864 11.9999 16C11.0784 15.9775 10.1654 16.1801 9.33988 16.59C8.92259 16.8088 8.46815 16.9478 7.99988 17V14.88C8.75636 14.6647 9.43784 14.2428 9.96778 13.6617C10.4977 13.0805 10.8551 12.3631 10.9999 11.59C11.0142 11.5178 11.0117 11.4433 10.9927 11.3722C10.9736 11.3011 10.9384 11.2353 10.8899 11.18C10.8428 11.1223 10.7832 11.0762 10.7157 11.045C10.6481 11.0138 10.5743 10.9984 10.4999 11C9.59075 10.98 8.70429 11.2849 7.99988 11.86V9.86C8.75636 9.64473 9.43784 9.22282 9.96778 8.64165C10.4977 8.06048 10.8551 7.34307 10.9999 6.57C11.0142 6.4978 11.0117 6.42327 10.9927 6.35218C10.9736 6.28109 10.9384 6.21533 10.8899 6.16C10.8409 6.10599 10.7804 6.0636 10.713 6.03592C10.6455 6.00824 10.5727 5.99597 10.4999 6C9.59075 5.97997 8.70429 6.28491 7.99988 6.86V5C7.99988 4.73478 7.89453 4.48043 7.70699 4.29289C7.51945 4.10536 7.2651 4 6.99988 4C6.73467 4 6.48031 4.10536 6.29278 4.29289C6.10524 4.48043 5.99988 4.73478 5.99988 5V6.86C5.29548 6.28491 4.40902 5.97997 3.49988 6C3.42716 5.99992 3.35532 6.01603 3.2896 6.04717C3.22387 6.0783 3.1659 6.12368 3.11988 6.18C3.06959 6.23444 3.03258 6.29978 3.01176 6.37091C2.99094 6.44205 2.98687 6.51703 2.99988 6.59C3.14463 7.36307 3.50205 8.08048 4.03199 8.66165C4.56193 9.24282 5.24341 9.66473 5.99988 9.88V11.88C5.29827 11.2977 4.41153 10.9856 3.49988 11C3.42716 10.9999 3.35532 11.016 3.2896 11.0472C3.22387 11.0783 3.1659 11.1237 3.11988 11.18C3.07134 11.2353 3.03617 11.3011 3.0171 11.3722C2.99802 11.4433 2.99556 11.5178 3.00988 11.59C3.15463 12.3631 3.51205 13.0805 4.04199 13.6617C4.57193 14.2428 5.25341 14.6647 6.00988 14.88V16.74L5.63988 16.59C5.17897 16.3689 4.69169 16.2076 4.18988 16.11C4.04616 16.0829 3.89825 16.0877 3.75657 16.124C3.61489 16.1602 3.48289 16.2272 3.36988 16.32C3.257 16.414 3.16622 16.5318 3.104 16.6648C3.04178 16.7979 3.00965 16.9431 3.00988 17.09V20C3.00988 20.2652 3.11524 20.5196 3.30278 20.7071C3.49031 20.8946 3.74467 21 4.00988 21H19.9999C20.2651 21 20.5195 20.8946 20.707 20.7071C20.8945 20.5196 20.9999 20.2652 20.9999 20V17.09C21.0001 16.9431 20.968 16.7979 20.9058 16.6648C20.8435 16.5318 20.7528 16.414 20.6399 16.32Z" fill="currentColor"/>
  </symbol>
  <symbol id="ic_crop_planning_style_3" viewBox="0 0 24 24">
    <path d="M20.5501 11.83L20.6201 11.76C20.6748 11.7186 20.725 11.6717 20.7701 11.62L20.8701 11.47C20.8977 11.4118 20.9211 11.3516 20.9401 11.29C20.9458 11.2235 20.9458 11.1565 20.9401 11.09L21.0001 11V5C21.0001 4.73478 20.8947 4.48043 20.7072 4.29289C20.5197 4.10536 20.2653 4 20.0001 4C19.7349 4 19.4805 4.10536 19.293 4.29289C19.1055 4.48043 19.0001 4.73478 19.0001 5V6.46L18.0001 7.13V4C18.0001 3.73478 17.8947 3.48043 17.7072 3.29289C17.5197 3.10536 17.2653 3 17.0001 3C16.7349 3 16.4805 3.10536 16.293 3.29289C16.1055 3.48043 16.0001 3.73478 16.0001 4V7.13L15.0001 6.46V5C15.0001 4.73478 14.8947 4.48043 14.7072 4.29289C14.5197 4.10536 14.2653 4 14.0001 4C13.7349 4 13.4805 4.10536 13.293 4.29289C13.1055 4.48043 13.0001 4.73478 13.0001 5V11C13.0001 11 13.0001 11.06 13.0001 11.09C12.9944 11.1565 12.9944 11.2235 13.0001 11.29C13.0191 11.3516 13.0425 11.4118 13.0701 11.47C13.0999 11.5223 13.1333 11.5724 13.1701 11.62C13.2152 11.6717 13.2654 11.7186 13.3201 11.76L13.3901 11.83L16.0001 13.54V17C15.5306 16.9573 15.073 16.8285 14.6501 16.62C13.8303 16.2009 12.9207 15.9881 12.0001 16C11.0787 15.9775 10.1656 16.1801 9.34009 16.59C8.9228 16.8088 8.46836 16.9478 8.00009 17V14.54L10.5501 12.83L10.6201 12.76C10.6748 12.7186 10.725 12.6717 10.7701 12.62C10.8069 12.5724 10.8403 12.5223 10.8701 12.47C10.8977 12.4118 10.9211 12.3516 10.9401 12.29C10.9458 12.2235 10.9458 12.1565 10.9401 12.09L11.0001 12V6C11.0001 5.73478 10.8947 5.48043 10.7072 5.29289C10.5197 5.10536 10.2653 5 10.0001 5C9.73488 5 9.48052 5.10536 9.29299 5.29289C9.10545 5.48043 9.00009 5.73478 9.00009 6V7.46L8.00009 8.13V5C8.00009 4.73478 7.89474 4.48043 7.7072 4.29289C7.51966 4.10536 7.26531 4 7.00009 4C6.73488 4 6.48052 4.10536 6.29299 4.29289C6.10545 4.48043 6.00009 4.73478 6.00009 5V8.13L5.00009 7.46V6C5.00009 5.73478 4.89474 5.48043 4.7072 5.29289C4.51966 5.10536 4.26531 5 4.00009 5C3.73488 5 3.48052 5.10536 3.29299 5.29289C3.10545 5.48043 3.00009 5.73478 3.00009 6V12C3.00009 12 3.00009 12.06 3.00009 12.09C2.99443 12.1565 2.99443 12.2235 3.00009 12.29C3.01907 12.3516 3.04246 12.4118 3.07009 12.47L3.17009 12.62C3.21516 12.6717 3.26543 12.7186 3.32009 12.76L3.39009 12.83L6.00009 14.54V16.74L5.63009 16.59C5.16918 16.3689 4.6819 16.2076 4.18009 16.11C4.03637 16.0829 3.88846 16.0877 3.74678 16.124C3.6051 16.1602 3.4731 16.2272 3.36009 16.32C3.24721 16.414 3.15643 16.5318 3.09421 16.6648C3.03199 16.7979 2.99986 16.9431 3.00009 17.09V20C3.00009 20.2652 3.10545 20.5196 3.29299 20.7071C3.48052 20.8946 3.73488 21 4.00009 21H20.0001C20.2653 21 20.5197 20.8946 20.7072 20.7071C20.8947 20.5196 21.0001 20.2652 21.0001 20V17.09C21.0003 16.9431 20.9682 16.7979 20.906 16.6648C20.8438 16.5318 20.753 16.414 20.6401 16.32C20.5271 16.2272 20.3951 16.1602 20.2534 16.124C20.1117 16.0877 19.9638 16.0829 19.8201 16.11C19.3151 16.2076 18.8245 16.3689 18.3601 16.59L18.0001 16.74V13.54L20.5501 11.83ZM18.0001 9.54L19.0001 8.87V10.46L18.0001 11.13V9.54ZM8.00009 10.54L9.00009 9.87V11.46L8.00009 12.13V10.54ZM6.00009 12.13L5.00009 11.46V9.87L6.00009 10.54V12.13ZM16.0001 11.13L15.0001 10.46V8.87L16.0001 9.54V11.13Z" fill="currentColor"/>
  </symbol>
</svg>
