<!-- JioGames DLS — routes icons (2 icons) -->
<svg xmlns="http://www.w3.org/2000/svg" style="display:none">
  <symbol id="ic_routes" viewBox="0 0 24 24">
    <path d="M19 15.0002H15C14.2044 15.0002 13.4413 15.3162 12.8787 15.8789C12.3161 16.4415 12 17.2045 12 18.0002C12 18.2654 11.8946 18.5197 11.7071 18.7073C11.5196 18.8948 11.2652 19.0002 11 19.0002H7C6.73478 19.0002 6.48043 19.1055 6.29289 19.2931C6.10536 19.4806 6 19.735 6 20.0002C6 20.2654 6.10536 20.5197 6.29289 20.7073C6.48043 20.8948 6.73478 21.0002 7 21.0002H11C11.7956 21.0002 12.5587 20.6841 13.1213 20.1215C13.6839 19.5589 14 18.7958 14 18.0002C14 17.735 14.1054 17.4806 14.2929 17.2931C14.4804 17.1055 14.7348 17.0002 15 17.0002H19C19.2652 17.0002 19.5196 16.8948 19.7071 16.7073C19.8946 16.5197 20 16.2654 20 16.0002C20 15.735 19.8946 15.4806 19.7071 15.2931C19.5196 15.1055 19.2652 15.0002 19 15.0002ZM17 13.0002C17.1316 13.0009 17.2621 12.9757 17.3839 12.9259C17.5057 12.8762 17.6166 12.8029 17.71 12.7102C18 12.3702 21 9.34017 21 6.80017C20.966 5.76834 20.5274 4.79132 19.7789 4.08026C19.0304 3.36921 18.0322 2.98123 17 3.00017C15.9678 2.98123 14.9696 3.36921 14.2211 4.08026C13.4726 4.79132 13.034 5.76834 13 6.80017C13 9.34017 16 12.3702 16.29 12.7102C16.3834 12.8029 16.4943 12.8762 16.6161 12.9259C16.7379 12.9757 16.8684 13.0009 17 13.0002ZM16 7.00017C16 6.80239 16.0586 6.60905 16.1685 6.4446C16.2784 6.28016 16.4346 6.15198 16.6173 6.07629C16.8 6.00061 17.0011 5.9808 17.1951 6.01939C17.3891 6.05797 17.5673 6.15322 17.7071 6.29307C17.847 6.43292 17.9422 6.6111 17.9808 6.80508C18.0194 6.99907 17.9996 7.20013 17.9239 7.38286C17.8482 7.56558 17.72 7.72176 17.5556 7.83164C17.3911 7.94153 17.1978 8.00017 17 8.00017C16.7348 8.00017 16.4804 7.89482 16.2929 7.70728C16.1054 7.51974 16 7.26539 16 7.00017ZM7 17.0002C7.13161 17.0009 7.26207 16.9757 7.38391 16.9259C7.50574 16.8762 7.61656 16.8029 7.71 16.7102C8 16.3702 11 13.3402 11 10.8002C10.966 9.76834 10.5274 8.79132 9.77891 8.08027C9.03043 7.36921 8.03222 6.98123 7 7.00017C5.96778 6.98123 4.96957 7.36921 4.22109 8.08027C3.4726 8.79132 3.03398 9.76834 3 10.8002C3 13.3402 6 16.3702 6.29 16.7102C6.38344 16.8029 6.49426 16.8762 6.61609 16.9259C6.73793 16.9757 6.86839 17.0009 7 17.0002ZM6 11.0002C6 10.8024 6.05865 10.6091 6.16853 10.4446C6.27841 10.2802 6.43459 10.152 6.61732 10.0763C6.80004 10.0006 7.00111 9.9808 7.19509 10.0194C7.38907 10.058 7.56725 10.1532 7.70711 10.2931C7.84696 10.4329 7.9422 10.6111 7.98079 10.8051C8.01937 10.9991 7.99957 11.2001 7.92388 11.3829C7.84819 11.5656 7.72002 11.7218 7.55557 11.8316C7.39112 11.9415 7.19778 12.0002 7 12.0002C6.73478 12.0002 6.48043 11.8948 6.29289 11.7073C6.10536 11.5197 6 11.2654 6 11.0002Z" fill="currentColor"/>
  </symbol>
  <symbol id="ic_routes_traffic" viewBox="0 0 24 24">
    <path d="M21.7102 7.29006L19.7102 5.29006C19.6169 5.19682 19.5063 5.12286 19.3844 5.0724C19.2626 5.02194 19.132 4.99597 19.0002 4.99597C18.7339 4.99597 18.4785 5.10175 18.2902 5.29006C18.1019 5.47836 17.9961 5.73376 17.9961 6.00006C17.9961 6.26636 18.1019 6.52175 18.2902 6.71006L18.5902 7.00006H17.0002C15.8635 7.00275 14.7405 7.24761 13.7059 7.71835C12.6713 8.18909 11.7489 8.87489 11.0002 9.73006V5.41006L11.2902 5.71006C11.3831 5.80379 11.4937 5.87818 11.6156 5.92895C11.7375 5.97972 11.8682 6.00586 12.0002 6.00586C12.1322 6.00586 12.2629 5.97972 12.3848 5.92895C12.5066 5.87818 12.6172 5.80379 12.7102 5.71006C12.8039 5.61709 12.8783 5.50649 12.9291 5.38463C12.9798 5.26277 13.006 5.13207 13.006 5.00006C13.006 4.86805 12.9798 4.73734 12.9291 4.61548C12.8783 4.49362 12.8039 4.38302 12.7102 4.29006L10.7102 2.29006C10.6247 2.20631 10.5224 2.14156 10.4102 2.10006C10.2841 2.03279 10.1431 1.99839 10.0002 2.00006H9.93019C9.84844 2.00682 9.76783 2.02361 9.69019 2.05006H9.59019C9.47965 2.09499 9.37805 2.15933 9.29019 2.24006L7.29019 4.24006C7.09525 4.42836 6.9831 4.68639 6.97842 4.95738C6.97373 5.22837 7.07688 5.49012 7.26519 5.68506C7.45349 5.87999 7.71152 5.99214 7.98251 5.99683C8.2535 6.00152 8.51525 5.89836 8.71019 5.71006L9.00019 5.41006V14.3501C8.53295 14.1218 8.02017 14.0022 7.50019 14.0001C7.10236 14.0001 6.72083 13.842 6.43953 13.5607C6.15822 13.2794 6.00019 12.8979 6.00019 12.5001V10.4101L6.29019 10.7101C6.38315 10.8038 6.49375 10.8782 6.61561 10.9289C6.73747 10.9797 6.86817 11.0059 7.00019 11.0059C7.1322 11.0059 7.2629 10.9797 7.38476 10.9289C7.50662 10.8782 7.61722 10.8038 7.71019 10.7101C7.80391 10.6171 7.87831 10.5065 7.92908 10.3846C7.97985 10.2628 8.00598 10.1321 8.00598 10.0001C8.00598 9.86805 7.97985 9.73734 7.92908 9.61548C7.87831 9.49362 7.80391 9.38302 7.71019 9.29006L5.71019 7.29006C5.61722 7.19633 5.50662 7.12194 5.38476 7.07117C5.2629 7.0204 5.1322 6.99426 5.00019 6.99426C4.86817 6.99426 4.73747 7.0204 4.61561 7.07117C4.49375 7.12194 4.38315 7.19633 4.29019 7.29006L2.29019 9.29006C2.10188 9.47836 1.99609 9.73376 1.99609 10.0001C1.99609 10.2664 2.10188 10.5218 2.29019 10.7101C2.47849 10.8984 2.73388 11.0041 3.00019 11.0041C3.26649 11.0041 3.52188 10.8984 3.71019 10.7101L4.00019 10.4101V12.5001C4.00019 13.4283 4.36893 14.3186 5.02531 14.9749C5.68169 15.6313 6.57193 16.0001 7.50019 16.0001C7.89801 16.0001 8.27954 16.1581 8.56085 16.4394C8.84215 16.7207 9.00019 17.1022 9.00019 17.5001V21.0001C9.00019 21.2653 9.10554 21.5196 9.29308 21.7072C9.48062 21.8947 9.73497 22.0001 10.0002 22.0001C10.2654 22.0001 10.5198 21.8947 10.7073 21.7072C10.8948 21.5196 11.0002 21.2653 11.0002 21.0001V15.0001C11.0002 13.4088 11.6323 11.8826 12.7575 10.7574C13.8828 9.6322 15.4089 9.00006 17.0002 9.00006H18.5902L18.2902 9.29006C18.1965 9.38302 18.1221 9.49362 18.0713 9.61548C18.0205 9.73734 17.9944 9.86805 17.9944 10.0001C17.9944 10.1321 18.0205 10.2628 18.0713 10.3846C18.1221 10.5065 18.1965 10.6171 18.2902 10.7101C18.3831 10.8038 18.4937 10.8782 18.6156 10.9289C18.7375 10.9797 18.8682 11.0059 19.0002 11.0059C19.1322 11.0059 19.2629 10.9797 19.3848 10.9289C19.5066 10.8782 19.6172 10.8038 19.7102 10.7101L21.7102 8.71006C21.8039 8.61709 21.8783 8.50649 21.9291 8.38463C21.9798 8.26278 22.006 8.13207 22.006 8.00006C22.006 7.86805 21.9798 7.73734 21.9291 7.61548C21.8783 7.49362 21.8039 7.38302 21.7102 7.29006ZM17.0002 12.0001C15.968 11.9811 14.9698 12.3691 14.2213 13.0801C13.4728 13.7912 13.0342 14.7682 13.0002 15.8001C13.0002 18.3401 16.0002 21.3701 16.2902 21.7101C16.3831 21.8038 16.4937 21.8782 16.6156 21.9289C16.7375 21.9797 16.8682 22.0059 17.0002 22.0059C17.1322 22.0059 17.2629 21.9797 17.3848 21.9289C17.5066 21.8782 17.6172 21.8038 17.7102 21.7101C18.0002 21.3701 21.0002 18.3401 21.0002 15.8001C20.9662 14.7682 20.5276 13.7912 19.7791 13.0801C19.0306 12.3691 18.0324 11.9811 17.0002 12.0001ZM17.0002 17.0001C16.8024 17.0001 16.6091 16.9414 16.4446 16.8315C16.2802 16.7216 16.152 16.5655 16.0763 16.3827C16.0006 16.2 15.9808 15.9989 16.0194 15.805C16.058 15.611 16.1532 15.4328 16.2931 15.293C16.4329 15.1531 16.6111 15.0579 16.8051 15.0193C16.9991 14.9807 17.2001 15.0005 17.3829 15.0762C17.5656 15.1519 17.7218 15.28 17.8317 15.4445C17.9415 15.6089 18.0002 15.8023 18.0002 16.0001C18.0002 16.2653 17.8948 16.5196 17.7073 16.7072C17.5198 16.8947 17.2654 17.0001 17.0002 17.0001Z" fill="currentColor"/>
  </symbol>
</svg>
