<!-- JioGames DLS — rupee icons (3 icons) -->
<svg xmlns="http://www.w3.org/2000/svg" style="display:none">
  <symbol id="ic_rupee" viewBox="0 0 24 24">
    <path d="M17 8H14.9C14.75 7.26 14.43 6.58 13.99 6H17C17.55 6 18 5.55 18 5C18 4.45 17.55 4 17 4H6.99999C6.44999 4 5.99999 4.45 5.99999 5C5.99999 5.55 6.44999 6 6.99999 6H9.99999C11.3 6 12.41 6.84 12.82 8H6.99999C6.44999 8 5.99999 8.45 5.99999 9C5.99999 9.55 6.44999 10 6.99999 10H12.83C12.42 11.16 11.32 11.99 10.02 12C10.02 12 10.01 12 9.99999 12H6.99999C6.99999 12 6.92999 12 6.88999 12.01C6.86999 12.01 6.85999 12.01 6.83999 12.01C6.78999 12.01 6.74999 12.03 6.69999 12.04C6.67999 12.04 6.66999 12.04 6.64999 12.05C6.60999 12.07 6.55999 12.09 6.51999 12.11C6.49999 12.11 6.48999 12.13 6.46999 12.14C6.42999 12.16 6.38999 12.19 6.35999 12.22C6.33999 12.23 6.32999 12.24 6.30999 12.26C6.27999 12.29 6.23999 12.33 6.20999 12.36C6.20999 12.37 6.18999 12.38 6.17999 12.39C6.17999 12.39 6.17999 12.39 6.17999 12.4C6.14999 12.44 6.12999 12.48 6.10999 12.52C6.09999 12.54 6.08999 12.56 6.07999 12.58C6.06999 12.61 6.04999 12.65 6.03999 12.68C6.03999 12.71 6.01999 12.74 6.00999 12.77C6.00999 12.8 6.00999 12.82 5.99999 12.85C5.99999 12.89 5.98999 12.93 5.98999 12.97C5.98999 12.97 5.98999 12.98 5.98999 12.99C5.98999 13.01 5.98999 13.02 5.98999 13.04C5.98999 13.08 5.98999 13.13 5.99999 13.17C5.99999 13.19 6.00999 13.21 6.01999 13.23C6.02999 13.27 6.03999 13.31 6.05999 13.36C6.05999 13.38 6.07999 13.4 6.07999 13.41C6.09999 13.45 6.11999 13.49 6.14999 13.53C6.14999 13.54 6.16999 13.56 6.17999 13.57C6.20999 13.61 6.23999 13.65 6.26999 13.68C6.27999 13.69 6.28999 13.7 6.30999 13.71C6.33999 13.73 6.35999 13.76 6.38999 13.78L14.39 19.78C14.57 19.92 14.78 19.98 14.99 19.98C15.29 19.98 15.59 19.84 15.79 19.58C16.12 19.14 16.03 18.51 15.59 18.18L9.98999 13.98C12.4 13.98 14.42 12.26 14.89 9.98H16.99C17.54 9.98 17.99 9.53 17.99 8.98C17.99 8.43 17.54 7.98 16.99 7.98L17 8Z" fill="currentColor"/>
  </symbol>
  <symbol id="ic_rupee_coin" viewBox="0 0 24 24">
    <path d="M12 2C10.0222 2 8.08879 2.58649 6.4443 3.6853C4.79981 4.78412 3.51809 6.3459 2.76121 8.17317C2.00433 10.0004 1.8063 12.0111 2.19215 13.9509C2.578 15.8907 3.53041 17.6725 4.92894 19.0711C6.32746 20.4696 8.10929 21.422 10.0491 21.8079C11.9889 22.1937 13.9996 21.9957 15.8268 21.2388C17.6541 20.4819 19.2159 19.2002 20.3147 17.5557C21.4135 15.9112 22 13.9778 22 12C22 10.6868 21.7413 9.38642 21.2388 8.17317C20.7363 6.95991 19.9997 5.85752 19.0711 4.92893C18.1425 4.00035 17.0401 3.26375 15.8268 2.7612C14.6136 2.25866 13.3132 2 12 2ZM16 10C16.2652 10 16.5196 10.1054 16.7071 10.2929C16.8946 10.4804 17 10.7348 17 11C17 11.2652 16.8946 11.5196 16.7071 11.7071C16.5196 11.8946 16.2652 12 16 12H14.86C14.6907 12.644 14.3634 13.2356 13.9076 13.721C13.4518 14.2065 12.8821 14.5705 12.25 14.78L14.51 16.14C14.6984 16.2518 14.8449 16.4224 14.9269 16.6255C15.009 16.8287 15.022 17.0531 14.9641 17.2644C14.9062 17.4757 14.7805 17.6621 14.6063 17.795C14.4321 17.9279 14.2191 17.9999 14 18C13.8205 17.9999 13.6444 17.9516 13.49 17.86L8.49 14.86C8.49 14.86 8.43 14.8 8.4 14.78C8.34311 14.7413 8.29252 14.6941 8.25 14.64L8.14 14.49C8.10748 14.4328 8.08068 14.3725 8.06 14.31C8.05434 14.2435 8.05434 14.1765 8.06 14.11L8 14C8 14 8 14 8 13.93C7.99533 13.8668 7.99533 13.8032 8 13.74C8.01728 13.6746 8.04072 13.611 8.07 13.55C8.07 13.55 8.07 13.55 8.07 13.49C8.07 13.43 8.13 13.43 8.15 13.4C8.18869 13.3431 8.23591 13.2925 8.29 13.25C8.33926 13.2077 8.3929 13.1709 8.45 13.14L8.61 13.06H8.82L9 13H11C11.349 12.9979 11.6914 12.9045 11.9932 12.7291C12.2949 12.5536 12.5455 12.3023 12.72 12H8C7.73479 12 7.48043 11.8946 7.2929 11.7071C7.10536 11.5196 7 11.2652 7 11C7 10.7348 7.10536 10.4804 7.2929 10.2929C7.48043 10.1054 7.73479 10 8 10H12.72C12.5455 9.69772 12.2949 9.44638 11.9932 9.27095C11.6914 9.09552 11.349 9.00211 11 9H8C7.73479 9 7.48043 8.89464 7.2929 8.70711C7.10536 8.51957 7 8.26522 7 8C7 7.73478 7.10536 7.48043 7.2929 7.29289C7.48043 7.10536 7.73479 7 8 7H16C16.2652 7 16.5196 7.10536 16.7071 7.29289C16.8946 7.48043 17 7.73478 17 8C17 8.26522 16.8946 8.51957 16.7071 8.70711C16.5196 8.89464 16.2652 9 16 9H14.44C14.6265 9.31184 14.7679 9.64852 14.86 10H16Z" fill="currentColor"/>
  </symbol>
  <symbol id="ic_rupee_coin_off" viewBox="0 0 24 24">
    <path d="M19.74 5.67976L20.74 4.67976C20.8332 4.58652 20.9072 4.47583 20.9577 4.35401C21.0081 4.23219 21.0341 4.10162 21.0341 3.96976C21.0341 3.8379 21.0081 3.70733 20.9577 3.58551C20.9072 3.46369 20.8332 3.353 20.74 3.25976C20.6468 3.16652 20.5361 3.09256 20.4143 3.0421C20.2924 2.99164 20.1619 2.96567 20.03 2.96567C19.8981 2.96567 19.7676 2.99164 19.6458 3.0421C19.5239 3.09256 19.4132 3.16652 19.32 3.25976L3.32 19.2598C3.22628 19.3527 3.15188 19.4633 3.10111 19.5852C3.05034 19.707 3.02421 19.8377 3.02421 19.9698C3.02421 20.1018 3.05034 20.2325 3.10111 20.3543C3.15188 20.4762 3.22628 20.5868 3.32 20.6798C3.41297 20.7735 3.52357 20.8479 3.64543 20.8987C3.76729 20.9494 3.89799 20.9756 4.03 20.9756C4.16202 20.9756 4.29272 20.9494 4.41458 20.8987C4.53644 20.8479 4.64704 20.7735 4.74 20.6798L5.74 19.6798C5.84 19.7598 5.93 19.8598 6.04 19.9398H6C7.72753 21.2445 9.83513 21.9471 12 21.9398C13.8801 21.9288 15.7191 21.3881 17.3059 20.3796C18.8927 19.3711 20.163 17.9356 20.9711 16.238C21.7792 14.5403 22.0924 12.6493 21.8746 10.7817C21.6569 8.91423 20.917 7.14593 19.74 5.67976ZM16 11.9998H14.86C14.6907 12.6438 14.3634 13.2353 13.9076 13.7208C13.4518 14.2062 12.8821 14.5702 12.25 14.7798L14.51 16.1398C14.6984 16.2516 14.8449 16.4221 14.9269 16.6253C15.009 16.8284 15.022 17.0529 14.9641 17.2642C14.9062 17.4755 14.7805 17.6619 14.6063 17.7948C14.4321 17.9277 14.2191 17.9997 14 17.9998C13.8205 17.9997 13.6444 17.9514 13.49 17.8598L9.78 15.6298L15.41 9.99976H16C16.2652 9.99976 16.5196 10.1051 16.7071 10.2927C16.8946 10.4802 17 10.7345 17 10.9998C17 11.265 16.8946 11.5193 16.7071 11.7069C16.5196 11.8944 16.2652 11.9998 16 11.9998ZM7.8 11.9998C7.53479 11.9732 7.29097 11.8424 7.12219 11.6362C7.03861 11.534 6.97598 11.4164 6.93786 11.2901C6.89973 11.1637 6.88687 11.0311 6.9 10.8998C6.91314 10.7684 6.95201 10.641 7.01439 10.5247C7.07678 10.4084 7.16146 10.3055 7.26361 10.2219C7.4699 10.0532 7.73479 9.97324 8 9.99976H9.76L10.76 8.99976H8C7.73479 8.99976 7.48043 8.8944 7.2929 8.70687C7.10536 8.51933 7 8.26498 7 7.99976C7 7.73454 7.10536 7.48019 7.2929 7.29265C7.48043 7.10512 7.73479 6.99976 8 6.99976H12.76L16.62 3.13976C14.7346 2.16252 12.5869 1.81089 10.4883 2.13582C8.38963 2.46075 6.44891 3.44535 4.94725 4.94701C3.4456 6.44866 2.46099 8.38939 2.13606 10.488C1.81114 12.5867 2.16276 14.7343 3.14 16.6198L7.8 11.9998Z" fill="currentColor"/>
  </symbol>
</svg>
