<!-- JioGames DLS — scan icons (6 icons) -->
<svg xmlns="http://www.w3.org/2000/svg" style="display:none">
  <symbol id="ic_scan" viewBox="0 0 24 24">
    <path d="M7 20H5C4.73478 20 4.48043 19.8946 4.29289 19.7071C4.10536 19.5196 4 19.2652 4 19V17C4 16.7348 3.89464 16.4804 3.70711 16.2929C3.51957 16.1054 3.26522 16 3 16C2.73478 16 2.48043 16.1054 2.29289 16.2929C2.10536 16.4804 2 16.7348 2 17V19C2 19.7956 2.31607 20.5587 2.87868 21.1213C3.44129 21.6839 4.20435 22 5 22H7C7.26522 22 7.51957 21.8946 7.70711 21.7071C7.89464 21.5196 8 21.2652 8 21C8 20.7348 7.89464 20.4804 7.70711 20.2929C7.51957 20.1054 7.26522 20 7 20ZM3 8C3.26522 8 3.51957 7.89464 3.70711 7.70711C3.89464 7.51957 4 7.26522 4 7V5C4 4.73478 4.10536 4.48043 4.29289 4.29289C4.48043 4.10536 4.73478 4 5 4H7C7.26522 4 7.51957 3.89464 7.70711 3.70711C7.89464 3.51957 8 3.26522 8 3C8 2.73478 7.89464 2.48043 7.70711 2.29289C7.51957 2.10536 7.26522 2 7 2H5C4.20435 2 3.44129 2.31607 2.87868 2.87868C2.31607 3.44129 2 4.20435 2 5V7C2 7.26522 2.10536 7.51957 2.29289 7.70711C2.48043 7.89464 2.73478 8 3 8ZM21 11H3C2.73478 11 2.48043 11.1054 2.29289 11.2929C2.10536 11.4804 2 11.7348 2 12C2 12.2652 2.10536 12.5196 2.29289 12.7071C2.48043 12.8946 2.73478 13 3 13H21C21.2652 13 21.5196 12.8946 21.7071 12.7071C21.8946 12.5196 22 12.2652 22 12C22 11.7348 21.8946 11.4804 21.7071 11.2929C21.5196 11.1054 21.2652 11 21 11ZM21 16C20.7348 16 20.4804 16.1054 20.2929 16.2929C20.1054 16.4804 20 16.7348 20 17V19C20 19.2652 19.8946 19.5196 19.7071 19.7071C19.5196 19.8946 19.2652 20 19 20H17C16.7348 20 16.4804 20.1054 16.2929 20.2929C16.1054 20.4804 16 20.7348 16 21C16 21.2652 16.1054 21.5196 16.2929 21.7071C16.4804 21.8946 16.7348 22 17 22H19C19.7956 22 20.5587 21.6839 21.1213 21.1213C21.6839 20.5587 22 19.7956 22 19V17C22 16.7348 21.8946 16.4804 21.7071 16.2929C21.5196 16.1054 21.2652 16 21 16ZM19 2H17C16.7348 2 16.4804 2.10536 16.2929 2.29289C16.1054 2.48043 16 2.73478 16 3C16 3.26522 16.1054 3.51957 16.2929 3.70711C16.4804 3.89464 16.7348 4 17 4H19C19.2652 4 19.5196 4.10536 19.7071 4.29289C19.8946 4.48043 20 4.73478 20 5V7C20 7.26522 20.1054 7.51957 20.2929 7.70711C20.4804 7.89464 20.7348 8 21 8C21.2652 8 21.5196 7.89464 21.7071 7.70711C21.8946 7.51957 22 7.26522 22 7V5C22 4.20435 21.6839 3.44129 21.1213 2.87868C20.5587 2.31607 19.7956 2 19 2Z" fill="currentColor"/>
  </symbol>
  <symbol id="ic_scan_body" viewBox="0 0 24 24">
    <path d="M3 8C3.27 8 3.52 7.89 3.71 7.71C3.9 7.52 4 7.27 4 7V5C4 4.73 4.11 4.48 4.29 4.29C4.48 4.1 4.73 4 5 4H7C7.27 4 7.52 3.89 7.71 3.71C7.9 3.52 8 3.27 8 3C8 2.73 7.89 2.48 7.71 2.29C7.52 2.1 7.27 2 7 2H5C4.2 2 3.44 2.32 2.88 2.88C2.32 3.44 2 4.21 2 5V7C2 7.27 2.11 7.52 2.29 7.71C2.48 7.9 2.73 8 3 8Z" fill="currentColor"/>
<path d="M19 2H17C16.73 2 16.48 2.11 16.29 2.29C16.1 2.48 16 2.73 16 3C16 3.27 16.11 3.52 16.29 3.71C16.48 3.9 16.73 4 17 4H19C19.27 4 19.52 4.11 19.71 4.29C19.9 4.48 20 4.73 20 5V7C20 7.27 20.11 7.52 20.29 7.71C20.48 7.9 20.73 8 21 8C21.27 8 21.52 7.89 21.71 7.71C21.9 7.52 22 7.27 22 7V5C22 4.2 21.68 3.44 21.12 2.88C20.56 2.32 19.79 2 19 2Z" fill="currentColor"/>
<path d="M7 20H5C4.73 20 4.48 19.89 4.29 19.71C4.1 19.52 4 19.27 4 19V17C4 16.73 3.89 16.48 3.71 16.29C3.52 16.1 3.27 16 3 16C2.73 16 2.48 16.11 2.29 16.29C2.1 16.48 2 16.73 2 17V19C2 19.8 2.32 20.56 2.88 21.12C3.44 21.68 4.21 22 5 22H7C7.27 22 7.52 21.89 7.71 21.71C7.9 21.52 8 21.27 8 21C8 20.73 7.89 20.48 7.71 20.29C7.52 20.1 7.27 20 7 20Z" fill="currentColor"/>
<path d="M21 16C20.73 16 20.48 16.11 20.29 16.29C20.1 16.47 20 16.73 20 17V19C20 19.27 19.89 19.52 19.71 19.71C19.53 19.9 19.27 20 19 20H17C16.73 20 16.48 20.11 16.29 20.29C16.1 20.47 16 20.73 16 21C16 21.27 16.11 21.52 16.29 21.71C16.47 21.9 16.73 22 17 22H19C19.8 22 20.56 21.68 21.12 21.12C21.68 20.56 22 19.79 22 19V17C22 16.73 21.89 16.48 21.71 16.29C21.53 16.1 21.27 16 21 16Z" fill="currentColor"/>
<path d="M12 7.80002C12.28 7.80002 12.55 7.72002 12.78 7.56002C13.01 7.41002 13.19 7.19002 13.3 6.93002C13.41 6.67002 13.43 6.39002 13.38 6.12002C13.33 5.85002 13.19 5.60002 13 5.40002C12.8 5.20002 12.55 5.07002 12.28 5.02002C12.01 4.97002 11.73 4.99002 11.47 5.10002C11.21 5.21002 11 5.39002 10.84 5.62002C10.69 5.85002 10.6 6.12002 10.6 6.40002C10.6 6.77002 10.75 7.13002 11.01 7.39002C11.27 7.65002 11.63 7.80002 12 7.80002Z" fill="currentColor"/>
<path d="M16.1 17.64C15.25 15.83 14.18 14.13 12.94 12.57V10.99C13.53 11.26 14.31 11.51 15.25 11.52C15.76 11.52 16.19 11.11 16.19 10.59C16.19 10.07 15.78 9.65 15.26 9.65C14.49 9.65 13.85 9.38 13.44 9.16C12.81 8.82 12.09 8.73 11.42 8.9C9.29999 9.46 8.08999 10.85 8.03999 10.91C7.70999 11.3 7.74999 11.88 8.13999 12.22C8.31999 12.37 8.52999 12.45 8.74999 12.45C9.00999 12.45 9.26999 12.34 9.44999 12.13C9.44999 12.13 10.05 11.47 11.08 11V12.85C10.82 14.52 10.1 16.1 9.01999 17.4C8.92999 17.49 8.85999 17.59 8.81999 17.7C8.76999 17.81 8.74999 17.94 8.74999 18.06C8.74999 18.18 8.76999 18.31 8.81999 18.42C8.86999 18.53 8.93999 18.64 9.01999 18.72C9.10999 18.81 9.20999 18.88 9.31999 18.92C9.42999 18.97 9.55999 18.99 9.67999 18.99C9.79999 18.99 9.92999 18.97 10.04 18.92C10.15 18.87 10.26 18.8 10.34 18.72C11.32 17.65 12.04 16.38 12.45 14.99C13.19 16.1 13.86 17.25 14.45 18.44C14.52 18.6 14.64 18.74 14.79 18.84C14.94 18.94 15.11 18.99 15.28 19C15.43 19 15.57 18.97 15.7 18.9C15.92 18.79 16.09 18.59 16.16 18.36C16.24 18.13 16.22 17.87 16.11 17.65L16.1 17.64Z" fill="currentColor"/>
  </symbol>
  <symbol id="ic_scan_face" viewBox="0 0 24 24">
    <path d="M10.77 14H13C13.2652 14 13.5196 13.8946 13.7071 13.7071C13.8946 13.5196 14 13.2652 14 13C14 12.7348 13.8946 12.4804 13.7071 12.2929C13.5196 12.1054 13.2652 12 13 12H10.77L12.86 8.51C12.962 8.28441 12.9766 8.02902 12.9011 7.79325C12.8256 7.55748 12.6654 7.35808 12.4514 7.23366C12.2373 7.10923 11.9848 7.06861 11.7425 7.11965C11.5003 7.1707 11.2856 7.30979 11.14 7.51L9.05 11C8.87497 11.3032 8.78256 11.6469 8.78203 11.997C8.7815 12.3471 8.87286 12.6911 9.04697 12.9948C9.22108 13.2985 9.47185 13.5512 9.77422 13.7276C10.0766 13.9039 10.4199 13.9979 10.77 14ZM7 7C6.80222 7 6.60888 7.05865 6.44443 7.16853C6.27998 7.27841 6.15181 7.43459 6.07612 7.61732C6.00043 7.80004 5.98063 8.00111 6.01921 8.19509C6.0578 8.38907 6.15304 8.56725 6.29289 8.70711C6.43275 8.84696 6.61093 8.9422 6.80491 8.98079C6.99889 9.01937 7.19996 8.99957 7.38268 8.92388C7.56541 8.84819 7.72159 8.72002 7.83147 8.55557C7.94135 8.39112 8 8.19778 8 8C8 7.73478 7.89464 7.48043 7.70711 7.29289C7.51957 7.10536 7.26522 7 7 7ZM16 9C16.1978 9 16.3911 8.94135 16.5556 8.83147C16.72 8.72159 16.8482 8.56541 16.9239 8.38268C16.9996 8.19996 17.0194 7.99889 16.9808 7.80491C16.9422 7.61093 16.847 7.43275 16.7071 7.29289C16.5673 7.15304 16.3891 7.0578 16.1951 7.01921C16.0011 6.98063 15.8 7.00043 15.6173 7.07612C15.4346 7.15181 15.2784 7.27998 15.1685 7.44443C15.0586 7.60888 15 7.80222 15 8C15 8.26522 15.1054 8.51957 15.2929 8.70711C15.4804 8.89464 15.7348 9 16 9ZM7 20H5C4.73478 20 4.48043 19.8946 4.29289 19.7071C4.10536 19.5196 4 19.2652 4 19V17C4 16.7348 3.89464 16.4804 3.70711 16.2929C3.51957 16.1054 3.26522 16 3 16C2.73478 16 2.48043 16.1054 2.29289 16.2929C2.10536 16.4804 2 16.7348 2 17V19C2 19.7956 2.31607 20.5587 2.87868 21.1213C3.44129 21.6839 4.20435 22 5 22H7C7.26522 22 7.51957 21.8946 7.70711 21.7071C7.89464 21.5196 8 21.2652 8 21C8 20.7348 7.89464 20.4804 7.70711 20.2929C7.51957 20.1054 7.26522 20 7 20ZM7 2H5C4.20435 2 3.44129 2.31607 2.87868 2.87868C2.31607 3.44129 2 4.20435 2 5V7C2 7.26522 2.10536 7.51957 2.29289 7.70711C2.48043 7.89464 2.73478 8 3 8C3.26522 8 3.51957 7.89464 3.70711 7.70711C3.89464 7.51957 4 7.26522 4 7V5C4 4.73478 4.10536 4.48043 4.29289 4.29289C4.48043 4.10536 4.73478 4 5 4H7C7.26522 4 7.51957 3.89464 7.70711 3.70711C7.89464 3.51957 8 3.26522 8 3C8 2.73478 7.89464 2.48043 7.70711 2.29289C7.51957 2.10536 7.26522 2 7 2ZM21 16C20.7348 16 20.4804 16.1054 20.2929 16.2929C20.1054 16.4804 20 16.7348 20 17V19C20 19.2652 19.8946 19.5196 19.7071 19.7071C19.5196 19.8946 19.2652 20 19 20H17C16.7348 20 16.4804 20.1054 16.2929 20.2929C16.1054 20.4804 16 20.7348 16 21C16 21.2652 16.1054 21.5196 16.2929 21.7071C16.4804 21.8946 16.7348 22 17 22H19C19.7956 22 20.5587 21.6839 21.1213 21.1213C21.6839 20.5587 22 19.7956 22 19V17C22 16.7348 21.8946 16.4804 21.7071 16.2929C21.5196 16.1054 21.2652 16 21 16ZM19 2H17C16.7348 2 16.4804 2.10536 16.2929 2.29289C16.1054 2.48043 16 2.73478 16 3C16 3.26522 16.1054 3.51957 16.2929 3.70711C16.4804 3.89464 16.7348 4 17 4H19C19.2652 4 19.5196 4.10536 19.7071 4.29289C19.8946 4.48043 20 4.73478 20 5V7C20 7.26522 20.1054 7.51957 20.2929 7.70711C20.4804 7.89464 20.7348 8 21 8C21.2652 8 21.5196 7.89464 21.7071 7.70711C21.8946 7.51957 22 7.26522 22 7V5C22 4.20435 21.6839 3.44129 21.1213 2.87868C20.5587 2.31607 19.7956 2 19 2ZM14.4 16.2C13.7008 16.7029 12.8613 16.9735 12 16.9735C11.1387 16.9735 10.2992 16.7029 9.6 16.2C9.49494 16.1212 9.37539 16.0639 9.24818 16.0313C9.12097 15.9987 8.98858 15.9915 8.85858 16.01C8.59603 16.0476 8.35913 16.1878 8.2 16.4C8.04087 16.6122 7.97254 16.8789 8.01005 17.1414C8.04756 17.404 8.18783 17.6409 8.4 17.8C9.48046 18.5712 10.7726 18.9903 12.1 19C13.3662 19.0017 14.5972 18.5831 15.6 17.81C15.8122 17.6509 15.9524 17.414 15.9899 17.1514C16.0275 16.8889 15.9591 16.6222 15.8 16.41C15.6409 16.1978 15.404 16.0576 15.1414 16.0201C14.8789 15.9825 14.6122 16.0509 14.4 16.21V16.2Z" fill="currentColor"/>
  </symbol>
  <symbol id="ic_scan_picture" viewBox="0 0 24 24">
    <path d="M10 11C10.1978 11 10.3911 10.9414 10.5556 10.8315C10.72 10.7216 10.8482 10.5654 10.9239 10.3827C10.9996 10.2 11.0194 9.99889 10.9808 9.80491C10.9422 9.61093 10.847 9.43275 10.7071 9.29289C10.5673 9.15304 10.3891 9.0578 10.1951 9.01921C10.0011 8.98063 9.80004 9.00043 9.61732 9.07612C9.43459 9.15181 9.27841 9.27998 9.16853 9.44443C9.05865 9.60888 9 9.80222 9 10C9 10.2652 9.10536 10.5196 9.29289 10.7071C9.48043 10.8946 9.73478 11 10 11ZM3 8C3.26522 8 3.51957 7.89464 3.70711 7.70711C3.89464 7.51957 4 7.26522 4 7V5C4 4.73478 4.10536 4.48043 4.29289 4.29289C4.48043 4.10536 4.73478 4 5 4H7C7.26522 4 7.51957 3.89464 7.70711 3.70711C7.89464 3.51957 8 3.26522 8 3C8 2.73478 7.89464 2.48043 7.70711 2.29289C7.51957 2.10536 7.26522 2 7 2H5C4.20435 2 3.44129 2.31607 2.87868 2.87868C2.31607 3.44129 2 4.20435 2 5V7C2 7.26522 2.10536 7.51957 2.29289 7.70711C2.48043 7.89464 2.73478 8 3 8ZM7 20H5C4.73478 20 4.48043 19.8946 4.29289 19.7071C4.10536 19.5196 4 19.2652 4 19V17C4 16.7348 3.89464 16.4804 3.70711 16.2929C3.51957 16.1054 3.26522 16 3 16C2.73478 16 2.48043 16.1054 2.29289 16.2929C2.10536 16.4804 2 16.7348 2 17V19C2 19.7956 2.31607 20.5587 2.87868 21.1213C3.44129 21.6839 4.20435 22 5 22H7C7.26522 22 7.51957 21.8946 7.70711 21.7071C7.89464 21.5196 8 21.2652 8 21C8 20.7348 7.89464 20.4804 7.70711 20.2929C7.51957 20.1054 7.26522 20 7 20ZM6 7.25V16.75C6 17.0815 6.1317 17.3995 6.36612 17.6339C6.60054 17.8683 6.91848 18 7.25 18H16.75C17.0815 18 17.3995 17.8683 17.6339 17.6339C17.8683 17.3995 18 17.0815 18 16.75V7.25C18 6.91848 17.8683 6.60054 17.6339 6.36612C17.3995 6.1317 17.0815 6 16.75 6H7.25C6.91848 6 6.60054 6.1317 6.36612 6.36612C6.1317 6.60054 6 6.91848 6 7.25ZM8 8H16V12.09L15.21 11.29C15.1115 11.1912 14.9934 11.114 14.8632 11.0636C14.7331 11.0131 14.5939 10.9905 14.4545 10.9971C14.3151 11.0037 14.1786 11.0394 14.0538 11.1019C13.9291 11.1644 13.8187 11.2523 13.73 11.36L11.93 13.52L10.71 12.29C10.6166 12.1973 10.5057 12.124 10.3839 12.0742C10.2621 12.0245 10.1316 11.9992 10 12C9.85988 12.0055 9.72248 12.0403 9.59672 12.1024C9.47095 12.1644 9.35964 12.2522 9.27 12.36L8 13.84V8ZM19 2H17C16.7348 2 16.4804 2.10536 16.2929 2.29289C16.1054 2.48043 16 2.73478 16 3C16 3.26522 16.1054 3.51957 16.2929 3.70711C16.4804 3.89464 16.7348 4 17 4H19C19.2652 4 19.5196 4.10536 19.7071 4.29289C19.8946 4.48043 20 4.73478 20 5V7C20 7.26522 20.1054 7.51957 20.2929 7.70711C20.4804 7.89464 20.7348 8 21 8C21.2652 8 21.5196 7.89464 21.7071 7.70711C21.8946 7.51957 22 7.26522 22 7V5C22 4.20435 21.6839 3.44129 21.1213 2.87868C20.5587 2.31607 19.7956 2 19 2ZM21 16C20.7348 16 20.4804 16.1054 20.2929 16.2929C20.1054 16.4804 20 16.7348 20 17V19C20 19.2652 19.8946 19.5196 19.7071 19.7071C19.5196 19.8946 19.2652 20 19 20H17C16.7348 20 16.4804 20.1054 16.2929 20.2929C16.1054 20.4804 16 20.7348 16 21C16 21.2652 16.1054 21.5196 16.2929 21.7071C16.4804 21.8946 16.7348 22 17 22H19C19.7956 22 20.5587 21.6839 21.1213 21.1213C21.6839 20.5587 22 19.7956 22 19V17C22 16.7348 21.8946 16.4804 21.7071 16.2929C21.5196 16.1054 21.2652 16 21 16Z" fill="currentColor"/>
  </symbol>
  <symbol id="ic_scan_qr_code" viewBox="0 0 24 24">
    <path d="M6 7V9C6 9.26522 6.10536 9.51957 6.29289 9.70711C6.48043 9.89464 6.73478 10 7 10H9C9.26522 10 9.51957 9.89464 9.70711 9.70711C9.89464 9.51957 10 9.26522 10 9V7C10 6.73478 9.89464 6.48043 9.70711 6.29289C9.51957 6.10536 9.26522 6 9 6H7C6.73478 6 6.48043 6.10536 6.29289 6.29289C6.10536 6.48043 6 6.73478 6 7ZM3 8C3.26522 8 3.51957 7.89464 3.70711 7.70711C3.89464 7.51957 4 7.26522 4 7V5C4 4.73478 4.10536 4.48043 4.29289 4.29289C4.48043 4.10536 4.73478 4 5 4H7C7.26522 4 7.51957 3.89464 7.70711 3.70711C7.89464 3.51957 8 3.26522 8 3C8 2.73478 7.89464 2.48043 7.70711 2.29289C7.51957 2.10536 7.26522 2 7 2H5C4.20435 2 3.44129 2.31607 2.87868 2.87868C2.31607 3.44129 2 4.20435 2 5V7C2 7.26522 2.10536 7.51957 2.29289 7.70711C2.48043 7.89464 2.73478 8 3 8ZM12 10C12.2652 10 12.5196 9.89464 12.7071 9.70711C12.8946 9.51957 13 9.26522 13 9V7C13 6.73478 12.8946 6.48043 12.7071 6.29289C12.5196 6.10536 12.2652 6 12 6C11.7348 6 11.4804 6.10536 11.2929 6.29289C11.1054 6.48043 11 6.73478 11 7V9C11 9.26522 11.1054 9.51957 11.2929 9.70711C11.4804 9.89464 11.7348 10 12 10ZM15 15H17C17.2652 15 17.5196 14.8946 17.7071 14.7071C17.8946 14.5196 18 14.2652 18 14V12C18 11.7348 17.8946 11.4804 17.7071 11.2929C17.5196 11.1054 17.2652 11 17 11H15C14.7348 11 14.4804 11.1054 14.2929 11.2929C14.1054 11.4804 14 11.7348 14 12V14C14 14.2652 14.1054 14.5196 14.2929 14.7071C14.4804 14.8946 14.7348 15 15 15ZM15 10H17C17.2652 10 17.5196 9.89464 17.7071 9.70711C17.8946 9.51957 18 9.26522 18 9V7C18 6.73478 17.8946 6.48043 17.7071 6.29289C17.5196 6.10536 17.2652 6 17 6H15C14.7348 6 14.4804 6.10536 14.2929 6.29289C14.1054 6.48043 14 6.73478 14 7V9C14 9.26522 14.1054 9.51957 14.2929 9.70711C14.4804 9.89464 14.7348 10 15 10ZM21 16C20.7348 16 20.4804 16.1054 20.2929 16.2929C20.1054 16.4804 20 16.7348 20 17V19C20 19.2652 19.8946 19.5196 19.7071 19.7071C19.5196 19.8946 19.2652 20 19 20H17C16.7348 20 16.4804 20.1054 16.2929 20.2929C16.1054 20.4804 16 20.7348 16 21C16 21.2652 16.1054 21.5196 16.2929 21.7071C16.4804 21.8946 16.7348 22 17 22H19C19.7956 22 20.5587 21.6839 21.1213 21.1213C21.6839 20.5587 22 19.7956 22 19V17C22 16.7348 21.8946 16.4804 21.7071 16.2929C21.5196 16.1054 21.2652 16 21 16ZM19 2H17C16.7348 2 16.4804 2.10536 16.2929 2.29289C16.1054 2.48043 16 2.73478 16 3C16 3.26522 16.1054 3.51957 16.2929 3.70711C16.4804 3.89464 16.7348 4 17 4H19C19.2652 4 19.5196 4.10536 19.7071 4.29289C19.8946 4.48043 20 4.73478 20 5V7C20 7.26522 20.1054 7.51957 20.2929 7.70711C20.4804 7.89464 20.7348 8 21 8C21.2652 8 21.5196 7.89464 21.7071 7.70711C21.8946 7.51957 22 7.26522 22 7V5C22 4.20435 21.6839 3.44129 21.1213 2.87868C20.5587 2.31607 19.7956 2 19 2ZM18 17C18 16.7348 17.8946 16.4804 17.7071 16.2929C17.5196 16.1054 17.2652 16 17 16H13V12C13 11.7348 12.8946 11.4804 12.7071 11.2929C12.5196 11.1054 12.2652 11 12 11H7C6.73478 11 6.48043 11.1054 6.29289 11.2929C6.10536 11.4804 6 11.7348 6 12C6 12.2652 6.10536 12.5196 6.29289 12.7071C6.48043 12.8946 6.73478 13 7 13H11V17C11 17.2652 11.1054 17.5196 11.2929 17.7071C11.4804 17.8946 11.7348 18 12 18H17C17.2652 18 17.5196 17.8946 17.7071 17.7071C17.8946 17.5196 18 17.2652 18 17ZM9 14H7C6.73478 14 6.48043 14.1054 6.29289 14.2929C6.10536 14.4804 6 14.7348 6 15V17C6 17.2652 6.10536 17.5196 6.29289 17.7071C6.48043 17.8946 6.73478 18 7 18H9C9.26522 18 9.51957 17.8946 9.70711 17.7071C9.89464 17.5196 10 17.2652 10 17V15C10 14.7348 9.89464 14.4804 9.70711 14.2929C9.51957 14.1054 9.26522 14 9 14ZM7 20H5C4.73478 20 4.48043 19.8946 4.29289 19.7071C4.10536 19.5196 4 19.2652 4 19V17C4 16.7348 3.89464 16.4804 3.70711 16.2929C3.51957 16.1054 3.26522 16 3 16C2.73478 16 2.48043 16.1054 2.29289 16.2929C2.10536 16.4804 2 16.7348 2 17V19C2 19.7956 2.31607 20.5587 2.87868 21.1213C3.44129 21.6839 4.20435 22 5 22H7C7.26522 22 7.51957 21.8946 7.70711 21.7071C7.89464 21.5196 8 21.2652 8 21C8 20.7348 7.89464 20.4804 7.70711 20.2929C7.51957 20.1054 7.26522 20 7 20Z" fill="currentColor"/>
  </symbol>
  <symbol id="ic_scan_text" viewBox="0 0 24 24">
    <path d="M17 7H7C6.73478 7 6.48043 7.10536 6.29289 7.29289C6.10536 7.48043 6 7.73478 6 8C6 8.26522 6.10536 8.51957 6.29289 8.70711C6.48043 8.89464 6.73478 9 7 9H17C17.2652 9 17.5196 8.89464 17.7071 8.70711C17.8946 8.51957 18 8.26522 18 8C18 7.73478 17.8946 7.48043 17.7071 7.29289C17.5196 7.10536 17.2652 7 17 7ZM17 11H7C6.73478 11 6.48043 11.1054 6.29289 11.2929C6.10536 11.4804 6 11.7348 6 12C6 12.2652 6.10536 12.5196 6.29289 12.7071C6.48043 12.8946 6.73478 13 7 13H17C17.2652 13 17.5196 12.8946 17.7071 12.7071C17.8946 12.5196 18 12.2652 18 12C18 11.7348 17.8946 11.4804 17.7071 11.2929C17.5196 11.1054 17.2652 11 17 11ZM3 8C3.26522 8 3.51957 7.89464 3.70711 7.70711C3.89464 7.51957 4 7.26522 4 7V5C4 4.73478 4.10536 4.48043 4.29289 4.29289C4.48043 4.10536 4.73478 4 5 4H7C7.26522 4 7.51957 3.89464 7.70711 3.70711C7.89464 3.51957 8 3.26522 8 3C8 2.73478 7.89464 2.48043 7.70711 2.29289C7.51957 2.10536 7.26522 2 7 2H5C4.20435 2 3.44129 2.31607 2.87868 2.87868C2.31607 3.44129 2 4.20435 2 5V7C2 7.26522 2.10536 7.51957 2.29289 7.70711C2.48043 7.89464 2.73478 8 3 8ZM7 20H5C4.73478 20 4.48043 19.8946 4.29289 19.7071C4.10536 19.5196 4 19.2652 4 19V17C4 16.7348 3.89464 16.4804 3.70711 16.2929C3.51957 16.1054 3.26522 16 3 16C2.73478 16 2.48043 16.1054 2.29289 16.2929C2.10536 16.4804 2 16.7348 2 17V19C2 19.7956 2.31607 20.5587 2.87868 21.1213C3.44129 21.6839 4.20435 22 5 22H7C7.26522 22 7.51957 21.8946 7.70711 21.7071C7.89464 21.5196 8 21.2652 8 21C8 20.7348 7.89464 20.4804 7.70711 20.2929C7.51957 20.1054 7.26522 20 7 20ZM13 15H7C6.73478 15 6.48043 15.1054 6.29289 15.2929C6.10536 15.4804 6 15.7348 6 16C6 16.2652 6.10536 16.5196 6.29289 16.7071C6.48043 16.8946 6.73478 17 7 17H13C13.2652 17 13.5196 16.8946 13.7071 16.7071C13.8946 16.5196 14 16.2652 14 16C14 15.7348 13.8946 15.4804 13.7071 15.2929C13.5196 15.1054 13.2652 15 13 15ZM19 2H17C16.7348 2 16.4804 2.10536 16.2929 2.29289C16.1054 2.48043 16 2.73478 16 3C16 3.26522 16.1054 3.51957 16.2929 3.70711C16.4804 3.89464 16.7348 4 17 4H19C19.2652 4 19.5196 4.10536 19.7071 4.29289C19.8946 4.48043 20 4.73478 20 5V7C20 7.26522 20.1054 7.51957 20.2929 7.70711C20.4804 7.89464 20.7348 8 21 8C21.2652 8 21.5196 7.89464 21.7071 7.70711C21.8946 7.51957 22 7.26522 22 7V5C22 4.20435 21.6839 3.44129 21.1213 2.87868C20.5587 2.31607 19.7956 2 19 2ZM21 16C20.7348 16 20.4804 16.1054 20.2929 16.2929C20.1054 16.4804 20 16.7348 20 17V19C20 19.2652 19.8946 19.5196 19.7071 19.7071C19.5196 19.8946 19.2652 20 19 20H17C16.7348 20 16.4804 20.1054 16.2929 20.2929C16.1054 20.4804 16 20.7348 16 21C16 21.2652 16.1054 21.5196 16.2929 21.7071C16.4804 21.8946 16.7348 22 17 22H19C19.7956 22 20.5587 21.6839 21.1213 21.1213C21.6839 20.5587 22 19.7956 22 19V17C22 16.7348 21.8946 16.4804 21.7071 16.2929C21.5196 16.1054 21.2652 16 21 16Z" fill="currentColor"/>
  </symbol>
</svg>
