<!-- JioGames DLS — screen icons (4 icons) -->
<svg xmlns="http://www.w3.org/2000/svg" style="display:none">
  <symbol id="ic_screen" viewBox="0 0 24 24">
    <path d="M20 4H4C3.46957 4 2.96086 4.21071 2.58579 4.58579C2.21071 4.96086 2 5.46957 2 6V15C2 15.5304 2.21071 16.0391 2.58579 16.4142C2.96086 16.7893 3.46957 17 4 17H11V19H9C8.73478 19 8.48043 19.1054 8.29289 19.2929C8.10536 19.4804 8 19.7348 8 20C8 20.2652 8.10536 20.5196 8.29289 20.7071C8.48043 20.8946 8.73478 21 9 21H15C15.2652 21 15.5196 20.8946 15.7071 20.7071C15.8946 20.5196 16 20.2652 16 20C16 19.7348 15.8946 19.4804 15.7071 19.2929C15.5196 19.1054 15.2652 19 15 19H13V17H20C20.5304 17 21.0391 16.7893 21.4142 16.4142C21.7893 16.0391 22 15.5304 22 15V6C22 5.46957 21.7893 4.96086 21.4142 4.58579C21.0391 4.21071 20.5304 4 20 4Z" fill="currentColor"/>
  </symbol>
  <symbol id="ic_screen_full" viewBox="0 0 24 24">
    <path d="M18 3H6C5.20435 3 4.44129 3.31607 3.87868 3.87868C3.31607 4.44129 3 5.20435 3 6V18C3 18.7956 3.31607 19.5587 3.87868 20.1213C4.44129 20.6839 5.20435 21 6 21H18C18.7956 21 19.5587 20.6839 20.1213 20.1213C20.6839 19.5587 21 18.7956 21 18V6C21 5.20435 20.6839 4.44129 20.1213 3.87868C19.5587 3.31607 18.7956 3 18 3ZM18 10C18 10.2652 17.8946 10.5196 17.7071 10.7071C17.5196 10.8946 17.2652 11 17 11C16.7348 11 16.4804 10.8946 16.2929 10.7071C16.1054 10.5196 16 10.2652 16 10V9.41L9.41 16H10C10.2652 16 10.5196 16.1054 10.7071 16.2929C10.8946 16.4804 11 16.7348 11 17C11 17.2652 10.8946 17.5196 10.7071 17.7071C10.5196 17.8946 10.2652 18 10 18H7C6.86932 17.9984 6.74022 17.9712 6.62 17.92C6.37565 17.8185 6.18147 17.6243 6.08 17.38C6.02876 17.2598 6.00158 17.1307 6 17V14C6 13.7348 6.10536 13.4804 6.29289 13.2929C6.48043 13.1054 6.73478 13 7 13C7.26522 13 7.51957 13.1054 7.70711 13.2929C7.89464 13.4804 8 13.7348 8 14V14.59L14.59 8H14C13.7348 8 13.4804 7.89464 13.2929 7.70711C13.1054 7.51957 13 7.26522 13 7C13 6.73478 13.1054 6.48043 13.2929 6.29289C13.4804 6.10536 13.7348 6 14 6H17C17.1307 6.00158 17.2598 6.02876 17.38 6.08C17.6243 6.18147 17.8185 6.37565 17.92 6.62C17.9712 6.74022 17.9984 6.86932 18 7V10Z" fill="currentColor"/>
  </symbol>
  <symbol id="ic_screen_minimise" viewBox="0 0 24 24">
    <path d="M18 3H6C5.20435 3 4.44129 3.31607 3.87868 3.87868C3.31607 4.44129 3 5.20435 3 6V18C3 18.7956 3.31607 19.5587 3.87868 20.1213C4.44129 20.6839 5.20435 21 6 21H18C18.7956 21 19.5587 20.6839 20.1213 20.1213C20.6839 19.5587 21 18.7956 21 18V6C21 5.20435 20.6839 4.44129 20.1213 3.87868C19.5587 3.31607 18.7956 3 18 3ZM11 17C11 17.2652 10.8946 17.5196 10.7071 17.7071C10.5196 17.8946 10.2652 18 10 18C9.73478 18 9.48043 17.8946 9.29289 17.7071C9.10536 17.5196 9 17.2652 9 17V16.41L6.71 18.71C6.61704 18.8037 6.50644 18.8781 6.38458 18.9289C6.26272 18.9797 6.13201 19.0058 6 19.0058C5.86799 19.0058 5.73728 18.9797 5.61542 18.9289C5.49356 18.8781 5.38296 18.8037 5.29 18.71C5.19627 18.617 5.12188 18.5064 5.07111 18.3846C5.02034 18.2627 4.9942 18.132 4.9942 18C4.9942 17.868 5.02034 17.7373 5.07111 17.6154C5.12188 17.4936 5.19627 17.383 5.29 17.29L7.59 15H7C6.73478 15 6.48043 14.8946 6.29289 14.7071C6.10536 14.5196 6 14.2652 6 14C6 13.7348 6.10536 13.4804 6.29289 13.2929C6.48043 13.1054 6.73478 13 7 13H10C10.1307 13.0016 10.2598 13.0288 10.38 13.08C10.6243 13.1815 10.8185 13.3757 10.92 13.62C10.9712 13.7402 10.9984 13.8693 11 14V17ZM18.71 6.71L16.41 9H17C17.2652 9 17.5196 9.10536 17.7071 9.29289C17.8946 9.48043 18 9.73478 18 10C18 10.2652 17.8946 10.5196 17.7071 10.7071C17.5196 10.8946 17.2652 11 17 11H14C13.8693 10.9984 13.7402 10.9712 13.62 10.92C13.3757 10.8185 13.1815 10.6243 13.08 10.38C13.0288 10.2598 13.0016 10.1307 13 10V7C13 6.73478 13.1054 6.48043 13.2929 6.29289C13.4804 6.10536 13.7348 6 14 6C14.2652 6 14.5196 6.10536 14.7071 6.29289C14.8946 6.48043 15 6.73478 15 7V7.59L17.29 5.29C17.4783 5.1017 17.7337 4.99591 18 4.99591C18.2663 4.99591 18.5217 5.1017 18.71 5.29C18.8983 5.4783 19.0041 5.7337 19.0041 6C19.0041 6.2663 18.8983 6.5217 18.71 6.71Z" fill="currentColor"/>
  </symbol>
  <symbol id="ic_screen_reduce" viewBox="0 0 24 24">
    <path d="M18 13H16C15.2044 13 14.4413 13.3161 13.8787 13.8787C13.3161 14.4413 13 15.2044 13 16V18C13 18.7956 13.3161 19.5587 13.8787 20.1213C14.4413 20.6839 15.2044 21 16 21H18C18.7956 21 19.5587 20.6839 20.1213 20.1213C20.6839 19.5587 21 18.7956 21 18V16C21 15.2044 20.6839 14.4413 20.1213 13.8787C19.5587 13.3161 18.7956 13 18 13ZM18 3H6C5.20435 3 4.44129 3.31607 3.87868 3.87868C3.31607 4.44129 3 5.20435 3 6V18C3 18.7956 3.31607 19.5587 3.87868 20.1213C4.44129 20.6839 5.20435 21 6 21H12C11.3456 20.1373 10.9941 19.0828 11 18V16C11 14.6739 11.5268 13.4021 12.4645 12.4645C13.4021 11.5268 14.6739 11 16 11H18C19.0828 10.9941 20.1373 11.3456 21 12V6C21 5.20435 20.6839 4.44129 20.1213 3.87868C19.5587 3.31607 18.7956 3 18 3ZM11 10C10.9984 10.1307 10.9712 10.2598 10.92 10.38C10.8185 10.6243 10.6243 10.8185 10.38 10.92C10.2598 10.9712 10.1307 10.9984 10 11H7C6.73478 11 6.48043 10.8946 6.29289 10.7071C6.10536 10.5196 6 10.2652 6 10C6 9.73478 6.10536 9.48043 6.29289 9.29289C6.48043 9.10536 6.73478 9 7 9H7.59L5.29 6.71C5.1017 6.5217 4.99591 6.2663 4.99591 6C4.99591 5.7337 5.1017 5.4783 5.29 5.29C5.4783 5.1017 5.7337 4.99591 6 4.99591C6.2663 4.99591 6.5217 5.1017 6.71 5.29L9 7.59V7C9 6.73478 9.10536 6.48043 9.29289 6.29289C9.48043 6.10536 9.73478 6 10 6C10.2652 6 10.5196 6.10536 10.7071 6.29289C10.8946 6.48043 11 6.73478 11 7V10Z" fill="currentColor"/>
  </symbol>
</svg>
