<!-- JioGames DLS — sd icons (2 icons) -->
<svg xmlns="http://www.w3.org/2000/svg" style="display:none">
  <symbol id="ic_sd" viewBox="0 0 24 24">
    <path d="M15.67 9.77H14.67C14.59 9.77 14.56 9.79 14.56 9.88V14.13C14.56 14.21 14.58 14.24 14.67 14.24H15.67C16.03 14.24 16.38 14.12 16.57 13.8C16.75 13.49 16.77 12.77 16.77 12.01C16.77 11.25 16.76 10.55 16.57 10.22C16.39 9.91 16.03 9.78 15.67 9.78V9.77ZM19 4H5C3.34 4 2 5.34 2 7V17C2 18.66 3.34 20 5 20H19C20.66 20 22 18.66 22 17V7C22 5.34 20.66 4 19 4ZM8.32 16.22C7.11 16.22 6.02 15.82 5.43 15.16C5.3 15 5.12 14.8 5.12 14.49C5.12 14.01 5.61 13.51 6.12 13.51C6.35 13.51 6.56 13.65 6.78 13.81C7.31 14.17 7.8 14.28 8.33 14.28C8.91 14.28 9.3 14.05 9.3 13.67C9.3 13.39 9.02 13.26 8.54 13.09L7.47 12.73C6.1 12.27 5.25 11.6 5.25 10.22C5.25 8.84 6.46 7.77 8.32 7.77C9.42 7.77 10.14 8.12 10.68 8.51C10.96 8.71 11.1 8.95 11.1 9.25C11.1 9.74 10.58 10.27 10.15 10.27C9.9 10.27 9.77 10.17 9.61 10.09C9.2 9.86 8.7 9.71 8.31 9.71C7.73 9.71 7.35 9.91 7.35 10.21C7.35 10.44 7.61 10.63 8.07 10.79L9.14 11.15C10.6 11.64 11.39 12.4 11.39 13.66C11.39 15.24 10.13 16.21 8.31 16.21L8.32 16.22ZM18.28 15.15C17.62 15.97 16.72 16.17 15.76 16.17H13.49C12.99 16.17 12.53 15.95 12.53 15.27V8.75C12.53 8.07 12.99 7.83 13.49 7.83H15.76C16.72 7.83 17.62 8.03 18.28 8.85C18.78 9.46 18.89 10.55 18.89 12C18.89 13.45 18.78 14.54 18.28 15.15Z" fill="currentColor"/>
  </symbol>
  <symbol id="ic_sd_card" viewBox="0 0 24 24">
    <path d="M17 2H9C8.20435 2 7.44129 2.31607 6.87868 2.87868C6.31607 3.44129 6 4.20435 6 5V10.59L4.88 11.71C4.31723 12.2721 4.0007 13.0346 4 13.83V19C4 19.7956 4.31607 20.5587 4.87868 21.1213C5.44129 21.6839 6.20435 22 7 22H17C17.7956 22 18.5587 21.6839 19.1213 21.1213C19.6839 20.5587 20 19.7956 20 19V5C20 4.20435 19.6839 3.44129 19.1213 2.87868C18.5587 2.31607 17.7956 2 17 2ZM10 7C10 7.26522 9.89464 7.51957 9.70711 7.70711C9.51957 7.89464 9.26522 8 9 8C8.73478 8 8.48043 7.89464 8.29289 7.70711C8.10536 7.51957 8 7.26522 8 7V5C8 4.73478 8.10536 4.48043 8.29289 4.29289C8.48043 4.10536 8.73478 4 9 4C9.26522 4 9.51957 4.10536 9.70711 4.29289C9.89464 4.48043 10 4.73478 10 5V7ZM14 7C14 7.26522 13.8946 7.51957 13.7071 7.70711C13.5196 7.89464 13.2652 8 13 8C12.7348 8 12.4804 7.89464 12.2929 7.70711C12.1054 7.51957 12 7.26522 12 7V5C12 4.73478 12.1054 4.48043 12.2929 4.29289C12.4804 4.10536 12.7348 4 13 4C13.2652 4 13.5196 4.10536 13.7071 4.29289C13.8946 4.48043 14 4.73478 14 5V7ZM18 7C18 7.26522 17.8946 7.51957 17.7071 7.70711C17.5196 7.89464 17.2652 8 17 8C16.7348 8 16.4804 7.89464 16.2929 7.70711C16.1054 7.51957 16 7.26522 16 7V5C16 4.73478 16.1054 4.48043 16.2929 4.29289C16.4804 4.10536 16.7348 4 17 4C17.2652 4 17.5196 4.10536 17.7071 4.29289C17.8946 4.48043 18 4.73478 18 5V7Z" fill="currentColor"/>
  </symbol>
</svg>
