<!-- JioGames DLS — security icons (4 icons) -->
<svg xmlns="http://www.w3.org/2000/svg" style="display:none">
  <symbol id="ic_security_camera_ball" viewBox="0 0 24 24">
    <path d="M17.6401 8.34014C16.3321 7.03096 14.6106 6.21577 12.769 6.03343C10.9274 5.85109 9.07947 6.31288 7.54012 7.34014C6.55818 7.99765 5.73411 8.86453 5.12713 9.87848C4.52015 10.8924 4.14534 12.0283 4.02964 13.2043C3.91395 14.3804 4.06024 15.5675 4.45801 16.6803C4.85577 17.793 5.49513 18.8039 6.33012 19.6401C7.44661 20.7643 8.87497 21.5272 10.4301 21.8301C12.1122 22.1617 13.8562 21.9442 15.4053 21.2096C16.9544 20.475 18.2265 19.2622 19.0341 17.75C19.8418 16.2377 20.1423 14.506 19.8913 12.8101C19.6403 11.1141 18.8512 9.54366 17.6401 8.33014V8.34014ZM14.1101 16.1201C13.7594 16.4676 13.3283 16.7232 12.8551 16.8641C12.382 17.0051 11.8813 17.0271 11.3976 16.9281C10.9139 16.8292 10.4621 16.6125 10.0823 16.2971C9.70242 15.9817 9.40628 15.5774 9.22012 15.1201C8.99288 14.5719 8.93335 13.9686 9.04905 13.3865C9.16475 12.8045 9.45049 12.2698 9.87012 11.8501C10.2898 11.4305 10.8244 11.1448 11.4065 11.0291C11.9886 10.9134 12.5919 10.9729 13.1401 11.2001C13.5974 11.3863 14.0017 11.6824 14.317 12.0623C14.6324 12.4421 14.8492 12.8939 14.9481 13.3777C15.047 13.8614 15.025 14.362 14.8841 14.8352C14.7432 15.3083 14.4876 15.7394 14.1401 16.0901L14.1101 16.1201ZM12.0001 13.0001C11.8023 13.0001 11.609 13.0588 11.4445 13.1687C11.2801 13.2786 11.1519 13.4347 11.0762 13.6175C11.0006 13.8002 10.9807 14.0012 11.0193 14.1952C11.0579 14.3892 11.1532 14.5674 11.293 14.7072C11.4329 14.8471 11.611 14.9423 11.805 14.9809C11.999 15.0195 12.2001 14.9997 12.3828 14.924C12.5655 14.8483 12.7217 14.7202 12.8316 14.5557C12.9415 14.3913 13.0001 14.1979 13.0001 14.0001C13.0001 13.7349 12.8948 13.4806 12.7072 13.293C12.5197 13.1055 12.2653 13.0001 12.0001 13.0001ZM7.25012 4.49014C7.34457 4.5892 7.46106 4.66457 7.59012 4.71014C7.71628 4.76399 7.85317 4.78794 7.99012 4.78014C8.12849 4.78027 8.26514 4.74952 8.39012 4.69014C10.7306 3.77546 13.3296 3.77546 15.6701 4.69014C15.7848 4.73547 15.9068 4.7592 16.0301 4.76014C16.2616 4.75547 16.4842 4.67065 16.6601 4.52014C16.8411 4.37533 16.9622 4.16878 17.0001 3.94014C17.0422 3.71314 17.0044 3.47858 16.8933 3.27626C16.7821 3.07393 16.6043 2.91631 16.3901 2.83014C13.5876 1.7298 10.4726 1.7298 7.67012 2.83014C7.53882 2.8589 7.41574 2.91702 7.31012 3.00014C7.20227 3.08922 7.11668 3.20221 7.06012 3.33014C6.99776 3.45092 6.96357 3.58426 6.96012 3.72014C6.94197 3.86468 6.95563 4.01143 7.00012 4.15014C7.06028 4.27881 7.14524 4.39435 7.25012 4.49014Z" fill="currentColor"/>
  </symbol>
  <symbol id="ic_security_camera_ceiling" viewBox="0 0 24 24">
    <path d="M20.4099 3.59C20.0366 3.21441 19.5295 3.00223 18.9999 3H4.9999C4.60557 3.00166 4.22052 3.11985 3.89316 3.33972C3.5658 3.5596 3.31075 3.87134 3.16007 4.23576C3.00939 4.60018 2.9698 5.00101 3.04628 5.38786C3.12275 5.77472 3.31189 6.13033 3.5899 6.41C3.96325 6.78559 4.47033 6.99777 4.9999 7H18.9999C19.3942 6.99834 19.7793 6.88015 20.1066 6.66028C20.434 6.4404 20.6891 6.12866 20.8397 5.76424C20.9904 5.39982 21.03 4.99899 20.9535 4.61214C20.8771 4.22528 20.6879 3.86967 20.4099 3.59ZM17.9999 9H5.9999C5.73469 9 5.48033 9.10536 5.2928 9.29289C5.10526 9.48043 4.9999 9.73478 4.9999 10V14C4.9999 14.9193 5.18096 15.8295 5.53275 16.6788C5.88453 17.5281 6.40015 18.2997 7.05016 18.9497C7.70017 19.5998 8.47184 20.1154 9.32112 20.4672C10.1704 20.8189 11.0807 21 11.9999 21C12.9192 21 13.8294 20.8189 14.6787 20.4672C15.528 20.1154 16.2996 19.5998 16.9497 18.9497C17.5997 18.2997 18.1153 17.5281 18.4671 16.6788C18.8188 15.8295 18.9999 14.9193 18.9999 14V10C18.9999 9.73478 18.8945 9.48043 18.707 9.29289C18.5195 9.10536 18.2651 9 17.9999 9ZM14.1199 17.12C13.5578 17.6828 12.7953 17.9993 11.9999 18C11.405 17.9993 10.8237 17.8218 10.3299 17.49C9.83935 17.1613 9.45671 16.6952 9.2299 16.15C9.0027 15.6018 8.94319 14.9985 9.05891 14.4164C9.17463 13.8344 9.46038 13.2997 9.88 12.8801C10.2996 12.4605 10.8343 12.1747 11.4163 12.059C11.9984 11.9433 12.6017 12.0028 13.1499 12.23C13.6951 12.4568 14.1612 12.8394 14.4899 13.33C14.8217 13.8238 14.9993 14.4051 14.9999 15C14.9992 15.7954 14.6827 16.5579 14.1199 17.12ZM11.9999 14C11.8021 14 11.6088 14.0586 11.4443 14.1685C11.2799 14.2784 11.1517 14.4346 11.076 14.6173C11.0003 14.8 10.9805 15.0011 11.0191 15.1951C11.0577 15.3891 11.1529 15.5673 11.2928 15.7071C11.4327 15.847 11.6108 15.9422 11.8048 15.9808C11.9988 16.0194 12.1999 15.9996 12.3826 15.9239C12.5653 15.8482 12.7215 15.72 12.8314 15.5556C12.9413 15.3911 12.9999 15.1978 12.9999 15C12.9999 14.7348 12.8945 14.4804 12.707 14.2929C12.5195 14.1054 12.2651 14 11.9999 14Z" fill="currentColor"/>
  </symbol>
  <symbol id="ic_security_sensor" viewBox="0 0 24 24">
    <path d="M18.67 4.56016C16.8362 2.91847 14.4613 2.01074 12 2.01074C9.53869 2.01074 7.16383 2.91847 5.33001 4.56016C5.13242 4.73786 5.01352 4.98677 4.99945 5.25213C4.98539 5.5175 5.07731 5.77758 5.25501 5.97516C5.4327 6.17275 5.68161 6.29166 5.94698 6.30572C6.21234 6.31979 6.47242 6.22786 6.67001 6.05017C8.13632 4.74013 10.0337 4.01599 12 4.01599C13.9663 4.01599 15.8637 4.74013 17.33 6.05017C17.5149 6.21323 17.7535 6.30227 18 6.30017C18.1373 6.30367 18.2739 6.27885 18.4013 6.22723C18.5286 6.17562 18.6439 6.09832 18.74 6.00016C18.8324 5.90226 18.9041 5.7867 18.9507 5.66041C18.9974 5.53413 19.0181 5.39973 19.0116 5.26526C19.005 5.1308 18.9714 4.99903 18.9127 4.87787C18.854 4.75671 18.7715 4.64865 18.67 4.56016ZM16.29 11.2102C14.9682 11.0715 13.6815 10.699 12.49 10.1102C12.3341 10.0349 12.1632 9.99578 11.99 9.99578C11.8169 9.99578 11.6459 10.0349 11.49 10.1102C10.306 10.7001 9.02569 11.0727 7.71001 11.2102C7.40729 11.2372 7.12557 11.3763 6.92001 11.6002C6.71031 11.8179 6.59219 12.1079 6.59001 12.4102V15.4102C6.59001 19.4102 10.59 22.0002 11.98 22.0002C13.37 22.0002 17.37 19.4502 17.37 15.4102V12.4102C17.3675 12.1158 17.2531 11.8333 17.05 11.6202C16.8563 11.3939 16.5854 11.2478 16.29 11.2102ZM9.61001 8.82016C10.3006 8.30559 11.1388 8.02764 12 8.02764C12.8612 8.02764 13.6994 8.30559 14.39 8.82016C14.6009 8.98195 14.8673 9.05334 15.1308 9.01865C15.3943 8.98396 15.6332 8.84601 15.795 8.63517C15.9568 8.42432 16.0282 8.15784 15.9935 7.89435C15.9588 7.63086 15.8209 7.39195 15.61 7.23017C14.5696 6.44649 13.3025 6.02265 12 6.02265C10.6975 6.02265 9.43038 6.44649 8.39001 7.23017C8.28561 7.31027 8.19801 7.41016 8.13221 7.52412C8.06641 7.63808 8.0237 7.76388 8.00652 7.89435C7.98934 8.02482 7.99803 8.15739 8.03209 8.2845C8.06614 8.41161 8.1249 8.53076 8.20501 8.63517C8.36679 8.84601 8.60571 8.98396 8.86919 9.01865C8.99966 9.03583 9.13223 9.02714 9.25934 8.99309C9.38645 8.95903 9.50561 8.90027 9.61001 8.82016Z" fill="currentColor"/>
  </symbol>
  <symbol id="ic_security_vehicle" viewBox="0 0 24 24">
    <path d="M9 8C8.80222 8 8.60888 8.05865 8.44443 8.16853C8.27998 8.27841 8.15181 8.43459 8.07612 8.61732C8.00043 8.80004 7.98063 9.00111 8.01921 9.19509C8.0578 9.38907 8.15304 9.56725 8.29289 9.70711C8.43275 9.84696 8.61093 9.9422 8.80491 9.98079C8.99889 10.0194 9.19996 9.99957 9.38268 9.92388C9.56541 9.84819 9.72159 9.72002 9.83147 9.55557C9.94135 9.39112 10 9.19778 10 9C10 8.73478 9.89464 8.48043 9.70711 8.29289C9.51957 8.10536 9.26522 8 9 8ZM20.78 12.16L19.4 7.05C19.1926 6.46323 18.8077 5.9555 18.2989 5.59716C17.7901 5.23882 17.1824 5.0476 16.56 5.05H16.5V4C16.5 3.73478 16.3946 3.48043 16.2071 3.29289C16.0196 3.10536 15.7652 3 15.5 3H14.5C14.2348 3 13.9804 3.10536 13.7929 3.29289C13.6054 3.48043 13.5 3.73478 13.5 4V5H7.41C6.76769 4.99958 6.14221 5.20532 5.62557 5.58695C5.10893 5.96858 4.72841 6.50595 4.54 7.12L3.21 12.17C2.85194 12.324 2.54666 12.5792 2.33169 12.9043C2.11672 13.2294 2.00144 13.6102 2 14V16C2.00211 16.349 2.09552 16.6914 2.27095 16.9932C2.44638 17.2949 2.69772 17.5455 3 17.72V19C3 19.2652 3.10536 19.5196 3.29289 19.7071C3.48043 19.8946 3.73478 20 4 20C4.26522 20 4.51957 19.8946 4.70711 19.7071C4.89464 19.5196 5 19.2652 5 19V18H19V19C19 19.2652 19.1054 19.5196 19.2929 19.7071C19.4804 19.8946 19.7348 20 20 20C20.2652 20 20.5196 19.8946 20.7071 19.7071C20.8946 19.5196 21 19.2652 21 19V17.72C21.3023 17.5455 21.5536 17.2949 21.7291 16.9932C21.9045 16.6914 21.9979 16.349 22 16V14C21.9997 13.6074 21.8838 13.2236 21.6669 12.8964C21.4499 12.5692 21.1415 12.3131 20.78 12.16ZM6.71 15.71C6.54541 15.8748 6.32847 15.9769 6.09662 15.9988C5.86477 16.0207 5.63254 15.961 5.44 15.83C5.27585 15.7214 5.14993 15.564 5.08 15.38C4.99607 15.199 4.9682 14.997 5 14.8C5.03698 14.6015 5.13319 14.4188 5.27599 14.276C5.41879 14.1332 5.60147 14.037 5.8 14C5.995 13.9619 6.19692 13.9828 6.38 14.06C6.56399 14.1299 6.72139 14.2558 6.83 14.42C6.96101 14.6125 7.02071 14.8448 6.9988 15.0766C6.97689 15.3085 6.87475 15.5254 6.71 15.69V15.71ZM15 11C14.651 11.0021 14.3086 11.0955 14.0068 11.2709C13.7051 11.4464 13.4545 11.6977 13.28 12H10.72C10.5429 11.7016 10.2912 11.4543 9.98965 11.2826C9.68809 11.1109 9.34703 11.0206 9 11.0206C8.65297 11.0206 8.31191 11.1109 8.01035 11.2826C7.70878 11.4543 7.45709 11.7016 7.28 12H5.28L6.46 7.69C6.52781 7.48115 6.66247 7.30043 6.8432 7.17572C7.02393 7.05102 7.24068 6.98927 7.46 7H16.61C16.8103 6.99981 17.006 7.05975 17.1718 7.17208C17.3376 7.28441 17.4659 7.44393 17.54 7.63L18.67 12H16.67C16.4998 11.7049 16.2571 11.4581 15.9649 11.2831C15.6726 11.1081 15.3405 11.0107 15 11ZM18.71 15.71C18.5454 15.8748 18.3285 15.9769 18.0966 15.9988C17.8648 16.0207 17.6325 15.961 17.44 15.83C17.2758 15.7214 17.1499 15.564 17.08 15.38C16.9961 15.199 16.9682 14.997 17 14.8C17.037 14.6015 17.1332 14.4188 17.276 14.276C17.4188 14.1332 17.6015 14.037 17.8 14C17.995 13.9619 18.1969 13.9828 18.38 14.06C18.564 14.1299 18.7214 14.2558 18.83 14.42C18.961 14.6125 19.0207 14.8448 18.9988 15.0766C18.9769 15.3085 18.8748 15.5254 18.71 15.69V15.71ZM15 8C14.8022 8 14.6089 8.05865 14.4444 8.16853C14.28 8.27841 14.1518 8.43459 14.0761 8.61732C14.0004 8.80004 13.9806 9.00111 14.0192 9.19509C14.0578 9.38907 14.153 9.56725 14.2929 9.70711C14.4327 9.84696 14.6109 9.9422 14.8049 9.98079C14.9989 10.0194 15.2 9.99957 15.3827 9.92388C15.5654 9.84819 15.7216 9.72002 15.8315 9.55557C15.9414 9.39112 16 9.19778 16 9C16 8.73478 15.8946 8.48043 15.7071 8.29289C15.5196 8.10536 15.2652 8 15 8Z" fill="currentColor"/>
  </symbol>
</svg>
