<!-- JioGames DLS — seismic icons (1 icons) -->
<svg xmlns="http://www.w3.org/2000/svg" style="display:none">
  <symbol id="ic_seismic_sensor" viewBox="0 0 24 24">
    <path d="M5 14.7301H7.21C7.29 14.7301 7.36 14.6901 7.39 14.6201L8.66 12.0701C8.74 11.9001 8.99 11.9201 9.04 12.1001L11.04 18.8301C11.1 19.0201 11.36 19.0301 11.43 18.8401L14.88 9.1101C14.95 8.9201 15.22 8.9301 15.27 9.1301L16.62 14.5701C16.64 14.6601 16.73 14.7301 16.82 14.7301H18.99" stroke="currentColor" stroke-width="24" stroke-miterlimit="10" stroke-linecap="round"/>
<path d="M14.3799 2.57999C14.2699 2.49999 14.1499 2.43999 14.0199 2.39999C11.6499 1.74999 9.11994 1.98999 6.90994 3.08999C4.69994 4.18999 2.97994 6.05999 2.06994 8.33999C1.96994 8.58999 1.97994 8.85999 2.07994 9.10999C2.18994 9.34999 2.37994 9.54999 2.62994 9.63999C2.87994 9.73999 3.14994 9.72999 3.39994 9.62999C3.63994 9.51999 3.83994 9.32999 3.92994 9.07999C4.65994 7.24999 6.03994 5.75999 7.79994 4.87999C9.55994 3.99999 11.5799 3.80999 13.4799 4.32999C13.7199 4.38999 13.9699 4.36999 14.1899 4.25999C14.3099 4.19999 14.4299 4.11999 14.5199 4.01999C14.6099 3.91999 14.6799 3.79999 14.7199 3.66999C14.7599 3.53999 14.7699 3.40999 14.7599 3.26999C14.7499 3.13999 14.6999 3.00999 14.6399 2.88999C14.5699 2.76999 14.4899 2.66999 14.3799 2.58999V2.57999Z" fill="currentColor"/>
<path d="M8.25997 5.78983C7.08997 6.36983 6.14997 7.30983 5.56997 8.47983C5.50997 8.59983 5.47997 8.72983 5.46997 8.85983C5.46997 8.98983 5.46997 9.11983 5.51997 9.24983C5.55997 9.36983 5.62997 9.48983 5.71997 9.58983C5.80997 9.68983 5.90997 9.76983 6.02997 9.82983C6.26997 9.94983 6.53997 9.95983 6.79997 9.87983C6.91997 9.83983 7.03997 9.76983 7.13997 9.67983C7.23997 9.58983 7.31997 9.48983 7.37997 9.36983C7.76997 8.59983 8.39997 7.97983 9.16997 7.59983C9.93997 7.21983 10.82 7.08983 11.66 7.24983C11.92 7.29983 12.19 7.24983 12.41 7.09983C12.63 6.94983 12.78 6.71983 12.83 6.45983C12.88 6.19983 12.83 5.92983 12.68 5.70983C12.53 5.48983 12.3 5.33983 12.04 5.28983C10.76 5.04983 9.43997 5.23983 8.26997 5.81983L8.25997 5.78983Z" fill="currentColor"/>
  </symbol>
</svg>
