<!-- JioGames DLS — server icons (6 icons) -->
<svg xmlns="http://www.w3.org/2000/svg" style="display:none">
  <symbol id="ic_server" viewBox="0 0 24 24">
    <path d="M6 11H18C19.0609 11 20.0783 10.5786 20.8284 9.82843C21.5786 9.07828 22 8.06087 22 7C22 5.93913 21.5786 4.92172 20.8284 4.17157C20.0783 3.42143 19.0609 3 18 3H6C4.93913 3 3.92172 3.42143 3.17157 4.17157C2.42143 4.92172 2 5.93913 2 7C2 8.06087 2.42143 9.07828 3.17157 9.82843C3.92172 10.5786 4.93913 11 6 11ZM6 5.5C6.29667 5.5 6.58668 5.58797 6.83336 5.7528C7.08003 5.91762 7.27229 6.15189 7.38582 6.42597C7.49935 6.70006 7.52906 7.00166 7.47118 7.29264C7.4133 7.58361 7.27044 7.85088 7.06066 8.06066C6.85088 8.27044 6.58361 8.4133 6.29264 8.47118C6.00166 8.52906 5.70006 8.49935 5.42597 8.38582C5.15189 8.27229 4.91762 8.08003 4.7528 7.83336C4.58797 7.58668 4.5 7.29667 4.5 7C4.5 6.60218 4.65804 6.22064 4.93934 5.93934C5.22064 5.65804 5.60218 5.5 6 5.5ZM18 13H6C4.93913 13 3.92172 13.4214 3.17157 14.1716C2.42143 14.9217 2 15.9391 2 17C2 18.0609 2.42143 19.0783 3.17157 19.8284C3.92172 20.5786 4.93913 21 6 21H18C19.0609 21 20.0783 20.5786 20.8284 19.8284C21.5786 19.0783 22 18.0609 22 17C22 15.9391 21.5786 14.9217 20.8284 14.1716C20.0783 13.4214 19.0609 13 18 13ZM6 18.5C5.70333 18.5 5.41332 18.412 5.16664 18.2472C4.91997 18.0824 4.72771 17.8481 4.61418 17.574C4.50065 17.2999 4.47094 16.9983 4.52882 16.7074C4.5867 16.4164 4.72956 16.1491 4.93934 15.9393C5.14912 15.7296 5.41639 15.5867 5.70736 15.5288C5.99834 15.4709 6.29994 15.5006 6.57403 15.6142C6.84811 15.7277 7.08238 15.92 7.2472 16.1666C7.41203 16.4133 7.5 16.7033 7.5 17C7.5 17.3978 7.34196 17.7794 7.06066 18.0607C6.77936 18.342 6.39782 18.5 6 18.5Z" fill="currentColor"/>
  </symbol>
  <symbol id="ic_server_cloud" viewBox="0 0 24 24">
    <path d="M19 9C18.6409 9.00179 18.2889 9.10023 17.981 9.28499C17.6731 9.46974 17.4206 9.734 17.25 10.05C17.1032 9.99832 16.9459 9.9839 16.7921 10.008C16.6384 10.0322 16.493 10.0941 16.3691 10.1883C16.2452 10.2824 16.1466 10.4059 16.0822 10.5476C16.0177 10.6893 15.9895 10.8447 16 11C15.4696 11 14.9609 11.2107 14.5858 11.5858C14.2107 11.9609 14 12.4696 14 13C14 13.5304 14.2107 14.0391 14.5858 14.4142C14.9609 14.7893 15.4696 15 16 15H20C20.4428 15.0031 20.8742 14.8591 21.2264 14.5907C21.5786 14.3222 21.8317 13.9445 21.9461 13.5167C22.0605 13.0888 22.0297 12.6352 21.8584 12.2268C21.6872 11.8184 21.3853 11.4783 21 11.26C21.0104 11.1736 21.0104 11.0864 21 11C21 10.4696 20.7893 9.96086 20.4142 9.58579C20.0391 9.21071 19.5304 9 19 9ZM5.5 11H12.09C12.3261 9.60294 13.0491 8.33452 14.1308 7.41939C15.2125 6.50425 16.5831 6.00144 18 6H21.65C21.368 5.40272 20.9223 4.89773 20.3647 4.54369C19.8071 4.18966 19.1605 4.00113 18.5 4H5.5C4.57174 4 3.6815 4.36875 3.02513 5.02513C2.36875 5.6815 2 6.57174 2 7.5C2 8.42826 2.36875 9.3185 3.02513 9.97487C3.6815 10.6313 4.57174 11 5.5 11ZM9.5 6.5C9.69778 6.5 9.89112 6.55865 10.0556 6.66853C10.22 6.77841 10.3482 6.93459 10.4239 7.11732C10.4996 7.30004 10.5194 7.50111 10.4808 7.69509C10.4422 7.88907 10.347 8.06725 10.2071 8.20711C10.0673 8.34696 9.88907 8.4422 9.69509 8.48079C9.50111 8.51937 9.30004 8.49957 9.11732 8.42388C8.93459 8.34819 8.77841 8.22002 8.66853 8.05557C8.55865 7.89112 8.5 7.69778 8.5 7.5C8.5 7.23478 8.60536 6.98043 8.79289 6.79289C8.98043 6.60536 9.23478 6.5 9.5 6.5ZM5.5 6.5C5.69778 6.5 5.89112 6.55865 6.05557 6.66853C6.22002 6.77841 6.34819 6.93459 6.42388 7.11732C6.49957 7.30004 6.51937 7.50111 6.48079 7.69509C6.4422 7.88907 6.34696 8.06725 6.20711 8.20711C6.06725 8.34696 5.88907 8.4422 5.69509 8.48079C5.50111 8.51937 5.30004 8.49957 5.11732 8.42388C4.93459 8.34819 4.77841 8.22002 4.66853 8.05557C4.55865 7.89112 4.5 7.69778 4.5 7.5C4.5 7.23478 4.60536 6.98043 4.79289 6.79289C4.98043 6.60536 5.23478 6.5 5.5 6.5ZM12.09 13H5.5C4.57174 13 3.6815 13.3687 3.02513 14.0251C2.36875 14.6815 2 15.5717 2 16.5C2 17.4283 2.36875 18.3185 3.02513 18.9749C3.6815 19.6313 4.57174 20 5.5 20H18.5C19.1605 19.9989 19.8071 19.8103 20.3647 19.4563C20.9223 19.1023 21.368 18.5973 21.65 18H18C16.5831 17.9986 15.2125 17.4958 14.1308 16.5806C13.0491 15.6655 12.3261 14.3971 12.09 13ZM5.5 17.5C5.30222 17.5 5.10888 17.4414 4.94443 17.3315C4.77998 17.2216 4.65181 17.0654 4.57612 16.8827C4.50043 16.7 4.48063 16.4989 4.51921 16.3049C4.5578 16.1109 4.65304 15.9327 4.79289 15.7929C4.93275 15.653 5.11093 15.5578 5.30491 15.5192C5.49889 15.4806 5.69996 15.5004 5.88268 15.5761C6.06541 15.6518 6.22159 15.78 6.33147 15.9444C6.44135 16.1089 6.5 16.3022 6.5 16.5C6.5 16.7652 6.39464 17.0196 6.20711 17.2071C6.01957 17.3946 5.76522 17.5 5.5 17.5ZM9.5 17.5C9.30222 17.5 9.10888 17.4414 8.94443 17.3315C8.77998 17.2216 8.65181 17.0654 8.57612 16.8827C8.50043 16.7 8.48063 16.4989 8.51921 16.3049C8.5578 16.1109 8.65304 15.9327 8.79289 15.7929C8.93275 15.653 9.11093 15.5578 9.30491 15.5192C9.49889 15.4806 9.69996 15.5004 9.88268 15.5761C10.0654 15.6518 10.2216 15.78 10.3315 15.9444C10.4414 16.1089 10.5 16.3022 10.5 16.5C10.5 16.7652 10.3946 17.0196 10.2071 17.2071C10.0196 17.3946 9.76522 17.5 9.5 17.5Z" fill="currentColor"/>
  </symbol>
  <symbol id="ic_server_home" viewBox="0 0 24 24">
    <path d="M5.5 11H12.09C12.3261 9.60294 13.0491 8.33452 14.1308 7.41939C15.2125 6.50425 16.5831 6.00144 18 6H21.65C21.368 5.40272 20.9223 4.89773 20.3647 4.54369C19.8071 4.18966 19.1605 4.00113 18.5 4H5.5C4.57174 4 3.6815 4.36875 3.02513 5.02513C2.36875 5.6815 2 6.57174 2 7.5C2 8.42826 2.36875 9.3185 3.02513 9.97487C3.6815 10.6313 4.57174 11 5.5 11ZM9.5 6.5C9.69778 6.5 9.89112 6.55865 10.0556 6.66853C10.22 6.77841 10.3482 6.93459 10.4239 7.11732C10.4996 7.30004 10.5194 7.50111 10.4808 7.69509C10.4422 7.88907 10.347 8.06725 10.2071 8.20711C10.0673 8.34696 9.88907 8.4422 9.69509 8.48079C9.50111 8.51937 9.30004 8.49957 9.11732 8.42388C8.93459 8.34819 8.77841 8.22002 8.66853 8.05557C8.55865 7.89112 8.5 7.69778 8.5 7.5C8.5 7.23478 8.60536 6.98043 8.79289 6.79289C8.98043 6.60536 9.23478 6.5 9.5 6.5ZM5.5 6.5C5.69778 6.5 5.89112 6.55865 6.05557 6.66853C6.22002 6.77841 6.34819 6.93459 6.42388 7.11732C6.49957 7.30004 6.51937 7.50111 6.48079 7.69509C6.4422 7.88907 6.34696 8.06725 6.20711 8.20711C6.06725 8.34696 5.88907 8.4422 5.69509 8.48079C5.50111 8.51937 5.30004 8.49957 5.11732 8.42388C4.93459 8.34819 4.77841 8.22002 4.66853 8.05557C4.55865 7.89112 4.5 7.69778 4.5 7.5C4.5 7.23478 4.60536 6.98043 4.79289 6.79289C4.98043 6.60536 5.23478 6.5 5.5 6.5ZM12.09 13H5.5C4.57174 13 3.6815 13.3687 3.02513 14.0251C2.36875 14.6815 2 15.5717 2 16.5C2 17.4283 2.36875 18.3185 3.02513 18.9749C3.6815 19.6313 4.57174 20 5.5 20H18.5C19.1605 19.9989 19.8071 19.8103 20.3647 19.4563C20.9223 19.1023 21.368 18.5973 21.65 18H18C16.5831 17.9986 15.2125 17.4958 14.1308 16.5806C13.0491 15.6655 12.3261 14.3971 12.09 13ZM5.5 17.5C5.30222 17.5 5.10888 17.4414 4.94443 17.3315C4.77998 17.2216 4.65181 17.0654 4.57612 16.8827C4.50043 16.7 4.48063 16.4989 4.51921 16.3049C4.5578 16.1109 4.65304 15.9327 4.79289 15.7929C4.93275 15.653 5.11093 15.5578 5.30491 15.5192C5.49889 15.4806 5.69996 15.5004 5.88268 15.5761C6.06541 15.6518 6.22159 15.78 6.33147 15.9444C6.44135 16.1089 6.5 16.3022 6.5 16.5C6.5 16.7652 6.39464 17.0196 6.20711 17.2071C6.01957 17.3946 5.76522 17.5 5.5 17.5ZM9.5 17.5C9.30222 17.5 9.10888 17.4414 8.94443 17.3315C8.77998 17.2216 8.65181 17.0654 8.57612 16.8827C8.50043 16.7 8.48063 16.4989 8.51921 16.3049C8.5578 16.1109 8.65304 15.9327 8.79289 15.7929C8.93275 15.653 9.11093 15.5578 9.30491 15.5192C9.49889 15.4806 9.69996 15.5004 9.88268 15.5761C10.0654 15.6518 10.2216 15.78 10.3315 15.9444C10.4414 16.1089 10.5 16.3022 10.5 16.5C10.5 16.7652 10.3946 17.0196 10.2071 17.2071C10.0196 17.3946 9.76522 17.5 9.5 17.5ZM21.71 11.29L18.71 8.29C18.617 8.19627 18.5064 8.12188 18.3846 8.07111C18.2627 8.02034 18.132 7.9942 18 7.9942C17.868 7.9942 17.7373 8.02034 17.6154 8.07111C17.4936 8.12188 17.383 8.19627 17.29 8.29L14.29 11.29C14.1512 11.4306 14.0572 11.6092 14.0199 11.8032C13.9825 11.9972 14.0034 12.1979 14.08 12.38C14.155 12.5626 14.2824 12.7189 14.4461 12.8293C14.6099 12.9396 14.8026 12.999 15 13V15C15 15.2652 15.1054 15.5196 15.2929 15.7071C15.4804 15.8946 15.7348 16 16 16H20C20.2652 16 20.5196 15.8946 20.7071 15.7071C20.8946 15.5196 21 15.2652 21 15V13C21.1974 12.999 21.3901 12.9396 21.5539 12.8293C21.7176 12.7189 21.845 12.5626 21.92 12.38C21.9966 12.1979 22.0175 11.9972 21.9801 11.8032C21.9428 11.6092 21.8488 11.4306 21.71 11.29Z" fill="currentColor"/>
  </symbol>
  <symbol id="ic_server_internet" viewBox="0 0 24 24">
    <path d="M16 13H14.14C14.3834 13.9427 14.9622 14.7642 15.768 15.3106C16.5738 15.857 17.5512 16.0908 18.517 15.9681C19.4828 15.8454 20.3707 15.3747 21.0143 14.6442C21.6579 13.9137 22.013 12.9736 22.013 12C22.013 11.0264 21.6579 10.0863 21.0143 9.35577C20.3707 8.62526 19.4828 8.15456 18.517 8.03188C17.5512 7.90921 16.5738 8.14299 15.768 8.6894C14.9622 9.23581 14.3834 10.0573 14.14 11H16C16.2652 11 16.5196 11.1054 16.7071 11.2929C16.8946 11.4804 17 11.7348 17 12C17 12.2652 16.8946 12.5196 16.7071 12.7071C16.5196 12.8946 16.2652 13 16 13ZM12.09 13H5.5C4.57174 13 3.6815 13.3687 3.02513 14.0251C2.36875 14.6815 2 15.5717 2 16.5C2 17.4283 2.36875 18.3185 3.02513 18.9749C3.6815 19.6313 4.57174 20 5.5 20H18.5C19.1605 19.9989 19.8071 19.8103 20.3647 19.4563C20.9223 19.1023 21.368 18.5973 21.65 18H18C16.5831 17.9986 15.2125 17.4958 14.1308 16.5806C13.0491 15.6655 12.3261 14.3971 12.09 13ZM5.5 17.5C5.30222 17.5 5.10888 17.4414 4.94443 17.3315C4.77998 17.2216 4.65181 17.0654 4.57612 16.8827C4.50043 16.7 4.48063 16.4989 4.51921 16.3049C4.5578 16.1109 4.65304 15.9327 4.79289 15.7929C4.93275 15.653 5.11093 15.5578 5.30491 15.5192C5.49889 15.4806 5.69996 15.5004 5.88268 15.5761C6.06541 15.6518 6.22159 15.78 6.33147 15.9444C6.44135 16.1089 6.5 16.3022 6.5 16.5C6.5 16.7652 6.39464 17.0196 6.20711 17.2071C6.01957 17.3946 5.76522 17.5 5.5 17.5ZM9.5 17.5C9.30222 17.5 9.10888 17.4414 8.94443 17.3315C8.77998 17.2216 8.65181 17.0654 8.57612 16.8827C8.50043 16.7 8.48063 16.4989 8.51921 16.3049C8.5578 16.1109 8.65304 15.9327 8.79289 15.7929C8.93275 15.653 9.11093 15.5578 9.30491 15.5192C9.49889 15.4806 9.69996 15.5004 9.88268 15.5761C10.0654 15.6518 10.2216 15.78 10.3315 15.9444C10.4414 16.1089 10.5 16.3022 10.5 16.5C10.5 16.7652 10.3946 17.0196 10.2071 17.2071C10.0196 17.3946 9.76522 17.5 9.5 17.5ZM5.5 11H12.09C12.3261 9.60294 13.0491 8.33452 14.1308 7.41939C15.2125 6.50425 16.5831 6.00144 18 6H21.65C21.368 5.40272 20.9223 4.89773 20.3647 4.54369C19.8071 4.18966 19.1605 4.00113 18.5 4H5.5C4.57174 4 3.6815 4.36875 3.02513 5.02513C2.36875 5.6815 2 6.57174 2 7.5C2 8.42826 2.36875 9.3185 3.02513 9.97487C3.6815 10.6313 4.57174 11 5.5 11ZM9.5 6.5C9.69778 6.5 9.89112 6.55865 10.0556 6.66853C10.22 6.77841 10.3482 6.93459 10.4239 7.11732C10.4996 7.30004 10.5194 7.50111 10.4808 7.69509C10.4422 7.88907 10.347 8.06725 10.2071 8.20711C10.0673 8.34696 9.88907 8.4422 9.69509 8.48079C9.50111 8.51937 9.30004 8.49957 9.11732 8.42388C8.93459 8.34819 8.77841 8.22002 8.66853 8.05557C8.55865 7.89112 8.5 7.69778 8.5 7.5C8.5 7.23478 8.60536 6.98043 8.79289 6.79289C8.98043 6.60536 9.23478 6.5 9.5 6.5ZM5.5 6.5C5.69778 6.5 5.89112 6.55865 6.05557 6.66853C6.22002 6.77841 6.34819 6.93459 6.42388 7.11732C6.49957 7.30004 6.51937 7.50111 6.48079 7.69509C6.4422 7.88907 6.34696 8.06725 6.20711 8.20711C6.06725 8.34696 5.88907 8.4422 5.69509 8.48079C5.50111 8.51937 5.30004 8.49957 5.11732 8.42388C4.93459 8.34819 4.77841 8.22002 4.66853 8.05557C4.55865 7.89112 4.5 7.69778 4.5 7.5C4.5 7.23478 4.60536 6.98043 4.79289 6.79289C4.98043 6.60536 5.23478 6.5 5.5 6.5Z" fill="currentColor"/>
  </symbol>
  <symbol id="ic_server_shared" viewBox="0 0 24 24">
    <path d="M20.5 13C20.3113 13.0008 20.1245 13.0381 19.95 13.11L17.74 12L20 10.89C20.1745 10.9619 20.3613 10.9992 20.55 11C20.8297 11.0011 21.1041 10.9239 21.3423 10.7772C21.5804 10.6306 21.7728 10.4202 21.8977 10.17C22.0227 9.91975 22.0751 9.63957 22.0492 9.36108C22.0233 9.08259 21.9201 8.81689 21.7511 8.59398C21.5822 8.37108 21.3543 8.19984 21.0932 8.09962C20.8321 7.9994 20.5481 7.97418 20.2734 8.02681C19.9987 8.07944 19.7442 8.20782 19.5386 8.39746C19.3331 8.5871 19.1846 8.83044 19.11 9.1L16.11 10.61C15.9355 10.5381 15.7487 10.5008 15.56 10.5C15.1622 10.5 14.7806 10.658 14.4993 10.9393C14.218 11.2206 14.06 11.6022 14.06 12C14.06 12.3978 14.218 12.7794 14.4993 13.0607C14.7806 13.342 15.1622 13.5 15.56 13.5C15.7487 13.4992 15.9355 13.4619 16.11 13.39L19.11 14.9C19.1853 15.1715 19.3356 15.4163 19.5436 15.6064C19.7516 15.7964 20.009 15.924 20.2861 15.9746C20.5633 16.0252 20.8492 15.9967 21.1109 15.8923C21.3726 15.788 21.5997 15.612 21.766 15.3846C21.9324 15.1572 22.0313 14.8876 22.0515 14.6065C22.0717 14.3255 22.0124 14.0445 21.8803 13.7956C21.7481 13.5467 21.5486 13.3401 21.3045 13.1994C21.0604 13.0587 20.7816 12.9896 20.5 13ZM5.5 11H12.09C12.3261 9.60294 13.0491 8.33452 14.1308 7.41939C15.2125 6.50425 16.5831 6.00144 18 6H21.65C21.368 5.40272 20.9223 4.89773 20.3647 4.54369C19.8071 4.18966 19.1605 4.00113 18.5 4H5.5C4.57174 4 3.6815 4.36875 3.02513 5.02513C2.36875 5.6815 2 6.57174 2 7.5C2 8.42826 2.36875 9.3185 3.02513 9.97487C3.6815 10.6313 4.57174 11 5.5 11ZM9.5 6.5C9.69778 6.5 9.89112 6.55865 10.0556 6.66853C10.22 6.77841 10.3482 6.93459 10.4239 7.11732C10.4996 7.30004 10.5194 7.50111 10.4808 7.69509C10.4422 7.88907 10.347 8.06725 10.2071 8.20711C10.0673 8.34696 9.88907 8.4422 9.69509 8.48079C9.50111 8.51937 9.30004 8.49957 9.11732 8.42388C8.93459 8.34819 8.77841 8.22002 8.66853 8.05557C8.55865 7.89112 8.5 7.69778 8.5 7.5C8.5 7.23478 8.60536 6.98043 8.79289 6.79289C8.98043 6.60536 9.23478 6.5 9.5 6.5ZM5.5 6.5C5.69778 6.5 5.89112 6.55865 6.05557 6.66853C6.22002 6.77841 6.34819 6.93459 6.42388 7.11732C6.49957 7.30004 6.51937 7.50111 6.48079 7.69509C6.4422 7.88907 6.34696 8.06725 6.20711 8.20711C6.06725 8.34696 5.88907 8.4422 5.69509 8.48079C5.50111 8.51937 5.30004 8.49957 5.11732 8.42388C4.93459 8.34819 4.77841 8.22002 4.66853 8.05557C4.55865 7.89112 4.5 7.69778 4.5 7.5C4.5 7.23478 4.60536 6.98043 4.79289 6.79289C4.98043 6.60536 5.23478 6.5 5.5 6.5ZM12.09 13H5.5C4.57174 13 3.6815 13.3687 3.02513 14.0251C2.36875 14.6815 2 15.5717 2 16.5C2 17.4283 2.36875 18.3185 3.02513 18.9749C3.6815 19.6313 4.57174 20 5.5 20H18.5C19.1605 19.9989 19.8071 19.8103 20.3647 19.4563C20.9223 19.1023 21.368 18.5973 21.65 18H18C16.5831 17.9986 15.2125 17.4958 14.1308 16.5806C13.0491 15.6655 12.3261 14.3971 12.09 13ZM5.5 17.5C5.30222 17.5 5.10888 17.4414 4.94443 17.3315C4.77998 17.2216 4.65181 17.0654 4.57612 16.8827C4.50043 16.7 4.48063 16.4989 4.51921 16.3049C4.5578 16.1109 4.65304 15.9327 4.79289 15.7929C4.93275 15.653 5.11093 15.5578 5.30491 15.5192C5.49889 15.4806 5.69996 15.5004 5.88268 15.5761C6.06541 15.6518 6.22159 15.78 6.33147 15.9444C6.44135 16.1089 6.5 16.3022 6.5 16.5C6.5 16.7652 6.39464 17.0196 6.20711 17.2071C6.01957 17.3946 5.76522 17.5 5.5 17.5ZM9.5 17.5C9.30222 17.5 9.10888 17.4414 8.94443 17.3315C8.77998 17.2216 8.65181 17.0654 8.57612 16.8827C8.50043 16.7 8.48063 16.4989 8.51921 16.3049C8.5578 16.1109 8.65304 15.9327 8.79289 15.7929C8.93275 15.653 9.11093 15.5578 9.30491 15.5192C9.49889 15.4806 9.69996 15.5004 9.88268 15.5761C10.0654 15.6518 10.2216 15.78 10.3315 15.9444C10.4414 16.1089 10.5 16.3022 10.5 16.5C10.5 16.7652 10.3946 17.0196 10.2071 17.2071C10.0196 17.3946 9.76522 17.5 9.5 17.5Z" fill="currentColor"/>
  </symbol>
  <symbol id="ic_server_wifi" viewBox="0 0 24 24">
    <path d="M20.23 12.77C20.3479 12.5326 20.3667 12.2581 20.2823 12.0069C20.198 11.7556 20.0173 11.5481 19.78 11.43L19.38 11.25C18.868 11.0585 18.3218 10.9756 17.7761 11.0065C17.2303 11.0375 16.697 11.1817 16.21 11.43C15.9726 11.5493 15.7924 11.7581 15.7089 12.0103C15.6255 12.2626 15.6457 12.5376 15.765 12.775C15.8843 13.0124 16.0931 13.1926 16.3453 13.2761C16.5976 13.3595 16.8726 13.3393 17.11 13.22C17.3479 13.0927 17.6107 13.0188 17.8801 13.0032C18.1495 12.9877 18.419 13.0309 18.67 13.13C18.7457 13.1539 18.8193 13.184 18.89 13.22C19.0293 13.2914 19.1835 13.3291 19.34 13.33C19.5257 13.3285 19.7074 13.2753 19.8645 13.1764C20.0217 13.0775 20.1483 12.9368 20.23 12.77ZM18 14C17.8022 14 17.6089 14.0586 17.4444 14.1685C17.28 14.2784 17.1518 14.4346 17.0761 14.6173C17.0004 14.8 16.9806 15.0011 17.0192 15.1951C17.0578 15.3891 17.153 15.5673 17.2929 15.7071C17.4327 15.847 17.6109 15.9422 17.8049 15.9808C17.9989 16.0194 18.2 15.9996 18.3827 15.9239C18.5654 15.8482 18.7216 15.72 18.8315 15.5556C18.9414 15.3911 19 15.1978 19 15C19 14.7348 18.8946 14.4804 18.7071 14.2929C18.5196 14.1054 18.2652 14 18 14ZM5.5 11H12.09C12.3261 9.60294 13.0491 8.33452 14.1308 7.41939C15.2125 6.50425 16.5831 6.00144 18 6H21.65C21.368 5.40272 20.9223 4.89773 20.3647 4.54369C19.8071 4.18966 19.1605 4.00113 18.5 4H5.5C4.57174 4 3.6815 4.36875 3.02513 5.02513C2.36875 5.6815 2 6.57174 2 7.5C2 8.42826 2.36875 9.3185 3.02513 9.97487C3.6815 10.6313 4.57174 11 5.5 11ZM9.5 6.5C9.69778 6.5 9.89112 6.55865 10.0556 6.66853C10.22 6.77841 10.3482 6.93459 10.4239 7.11732C10.4996 7.30004 10.5194 7.50111 10.4808 7.69509C10.4422 7.88907 10.347 8.06725 10.2071 8.20711C10.0673 8.34696 9.88907 8.4422 9.69509 8.48079C9.50111 8.51937 9.30004 8.49957 9.11732 8.42388C8.93459 8.34819 8.77841 8.22002 8.66853 8.05557C8.55865 7.89112 8.5 7.69778 8.5 7.5C8.5 7.23478 8.60536 6.98043 8.79289 6.79289C8.98043 6.60536 9.23478 6.5 9.5 6.5ZM5.5 6.5C5.69778 6.5 5.89112 6.55865 6.05557 6.66853C6.22002 6.77841 6.34819 6.93459 6.42388 7.11732C6.49957 7.30004 6.51937 7.50111 6.48079 7.69509C6.4422 7.88907 6.34696 8.06725 6.20711 8.20711C6.06725 8.34696 5.88907 8.4422 5.69509 8.48079C5.50111 8.51937 5.30004 8.49957 5.11732 8.42388C4.93459 8.34819 4.77841 8.22002 4.66853 8.05557C4.55865 7.89112 4.5 7.69778 4.5 7.5C4.5 7.23478 4.60536 6.98043 4.79289 6.79289C4.98043 6.60536 5.23478 6.5 5.5 6.5ZM12.09 13H5.5C4.57174 13 3.6815 13.3687 3.02513 14.0251C2.36875 14.6815 2 15.5717 2 16.5C2 17.4283 2.36875 18.3185 3.02513 18.9749C3.6815 19.6313 4.57174 20 5.5 20H18.5C19.1605 19.9989 19.8071 19.8103 20.3647 19.4563C20.9223 19.1023 21.368 18.5973 21.65 18H18C16.5831 17.9986 15.2125 17.4958 14.1308 16.5806C13.0491 15.6655 12.3261 14.3971 12.09 13ZM5.5 17.5C5.30222 17.5 5.10888 17.4414 4.94443 17.3315C4.77998 17.2216 4.65181 17.0654 4.57612 16.8827C4.50043 16.7 4.48063 16.4989 4.51921 16.3049C4.5578 16.1109 4.65304 15.9327 4.79289 15.7929C4.93275 15.653 5.11093 15.5578 5.30491 15.5192C5.49889 15.4806 5.69996 15.5004 5.88268 15.5761C6.06541 15.6518 6.22159 15.78 6.33147 15.9444C6.44135 16.1089 6.5 16.3022 6.5 16.5C6.5 16.7652 6.39464 17.0196 6.20711 17.2071C6.01957 17.3946 5.76522 17.5 5.5 17.5ZM9.5 17.5C9.30222 17.5 9.10888 17.4414 8.94443 17.3315C8.77998 17.2216 8.65181 17.0654 8.57612 16.8827C8.50043 16.7 8.48063 16.4989 8.51921 16.3049C8.5578 16.1109 8.65304 15.9327 8.79289 15.7929C8.93275 15.653 9.11093 15.5578 9.30491 15.5192C9.49889 15.4806 9.69996 15.5004 9.88268 15.5761C10.0654 15.6518 10.2216 15.78 10.3315 15.9444C10.4414 16.1089 10.5 16.3022 10.5 16.5C10.5 16.7652 10.3946 17.0196 10.2071 17.2071C10.0196 17.3946 9.76522 17.5 9.5 17.5ZM21.58 10.09C21.6399 9.97197 21.6758 9.84322 21.6856 9.71121C21.6954 9.5792 21.6789 9.44656 21.6371 9.32098C21.5952 9.1954 21.5288 9.07938 21.4418 8.97965C21.3547 8.87991 21.2488 8.79846 21.13 8.74C20.1581 8.25417 19.0865 8.00124 18 8.00124C16.9135 8.00124 15.8419 8.25417 14.87 8.74C14.7525 8.79909 14.6477 8.88076 14.5618 8.98034C14.4758 9.07991 14.4103 9.19544 14.3689 9.32034C14.3276 9.44523 14.3113 9.57704 14.3209 9.70824C14.3305 9.83945 14.3659 9.96747 14.425 10.085C14.4841 10.2025 14.5658 10.3073 14.6653 10.3932C14.7649 10.4792 14.8804 10.5447 15.0053 10.5861C15.1302 10.6274 15.262 10.6437 15.3932 10.6341C15.5244 10.6245 15.6525 10.5891 15.77 10.53C16.4627 10.1848 17.2261 10.0052 18 10.0052C18.7739 10.0052 19.5373 10.1848 20.23 10.53C20.3701 10.5994 20.5237 10.637 20.68 10.64C20.8664 10.6413 21.0494 10.5905 21.2084 10.4933C21.3674 10.3961 21.4961 10.2564 21.58 10.09Z" fill="currentColor"/>
  </symbol>
</svg>
