<!-- JioGames DLS — shadow2 icons (1 icons) -->
<svg xmlns="http://www.w3.org/2000/svg" style="display:none">
  <symbol id="ic_shadow2" viewBox="0 0 24 24">
    <path d="M16.49 15.33C17.59 13.93 18.25 12.17 18.25 10.25C18.25 5.7 14.55 2 10 2C5.45 2 1.75 5.7 1.75 10.25C1.75 12.76 2.88 15.01 4.66 16.53C3.62 17.09 3 17.77 3 18.5C3 20.43 7.25 22 12.5 22C17.75 22 22 20.43 22 18.5C22 17.09 19.74 15.88 16.49 15.33ZM3.75 10.25C3.75 6.8 6.55 4 10 4C13.45 4 16.25 6.8 16.25 10.25C16.25 13.7 13.45 16.5 10 16.5C6.55 16.5 3.75 13.7 3.75 10.25Z" fill="currentColor"/>
  </symbol>
</svg>
