<!-- JioGames DLS — shopping icons (5 icons) -->
<svg xmlns="http://www.w3.org/2000/svg" style="display:none">
  <symbol id="ic_shopping" viewBox="0 0 24 24">
    <path d="M19.4801 7.65C19.2925 7.44522 19.0643 7.28175 18.8101 7.17C18.5544 7.05912 18.2788 7.00129 18.0001 7H16.0001V6C16.0001 4.93913 15.5787 3.92172 14.8285 3.17157C14.0784 2.42143 13.0609 2 12.0001 2C10.9392 2 9.9218 2.42143 9.17166 3.17157C8.42151 3.92172 8.00008 4.93913 8.00008 6V7H6.00008C5.72136 7.00129 5.4458 7.05912 5.19008 7.17C4.9357 7.28176 4.7074 7.4453 4.51973 7.65018C4.33206 7.85507 4.18914 8.09681 4.10008 8.36C4.01172 8.62378 3.97771 8.90272 4.00008 9.18L5.00008 20.18C5.04605 20.6795 5.27805 21.1435 5.65008 21.48C6.01943 21.8157 6.50096 22.0012 7.00008 22H17.0001C17.4992 22.0012 17.9807 21.8157 18.3501 21.48C18.7221 21.1435 18.9541 20.6795 19.0001 20.18L20.0001 9.18C20.0225 8.90272 19.9884 8.62378 19.9001 8.36C19.8109 8.09672 19.6679 7.85491 19.4801 7.65ZM14.0001 7H10.0001V6C10.0001 5.46957 10.2108 4.96086 10.5859 4.58579C10.9609 4.21071 11.4696 4 12.0001 4C12.5305 4 13.0392 4.21071 13.4143 4.58579C13.7894 4.96086 14.0001 5.46957 14.0001 6V7Z" fill="currentColor"/>
  </symbol>
  <symbol id="ic_shopping_bag" viewBox="0 0 24 24">
    <path d="M18 6H16C16 4.93913 15.5786 3.92172 14.8284 3.17157C14.0783 2.42143 13.0609 2 12 2C10.9391 2 9.92172 2.42143 9.17157 3.17157C8.42143 3.92172 8 4.93913 8 6H6C5.46957 6 4.96086 6.21071 4.58579 6.58579C4.21071 6.96086 4 7.46957 4 8V19C4 19.7956 4.31607 20.5587 4.87868 21.1213C5.44129 21.6839 6.20435 22 7 22H17C17.7956 22 18.5587 21.6839 19.1213 21.1213C19.6839 20.5587 20 19.7956 20 19V8C20 7.46957 19.7893 6.96086 19.4142 6.58579C19.0391 6.21071 18.5304 6 18 6ZM10 6C10 5.46957 10.2107 4.96086 10.5858 4.58579C10.9609 4.21071 11.4696 4 12 4C12.5304 4 13.0391 4.21071 13.4142 4.58579C13.7893 4.96086 14 5.46957 14 6H10Z" fill="currentColor"/>
  </symbol>
  <symbol id="ic_shopping_bag_favorite" viewBox="0 0 24 24">
    <path d="M18 6H16C16 4.93913 15.5786 3.92172 14.8284 3.17157C14.0783 2.42143 13.0609 2 12 2C10.9391 2 9.92172 2.42143 9.17157 3.17157C8.42143 3.92172 8 4.93913 8 6H6C5.46957 6 4.96086 6.21071 4.58579 6.58579C4.21071 6.96086 4 7.46957 4 8V19C4 19.7956 4.31607 20.5587 4.87868 21.1213C5.44129 21.6839 6.20435 22 7 22H17C17.7956 22 18.5587 21.6839 19.1213 21.1213C19.6839 20.5587 20 19.7956 20 19V8C20 7.46957 19.7893 6.96086 19.4142 6.58579C19.0391 6.21071 18.5304 6 18 6ZM12 4C12.5304 4 13.0391 4.21071 13.4142 4.58579C13.7893 4.96086 14 5.46957 14 6H10C10 5.46957 10.2107 4.96086 10.5858 4.58579C10.9609 4.21071 11.4696 4 12 4ZM12.76 17.1L12.56 17.28C12.4081 17.422 12.2079 17.501 12 17.501C11.7921 17.501 11.5919 17.422 11.44 17.28L11.24 17.1C9.38 15.39 8.24 14.1 8.24 12.74C8.23599 12.4456 8.29086 12.1533 8.40138 11.8804C8.5119 11.6075 8.67585 11.3594 8.8836 11.1507C9.09134 10.942 9.33869 10.777 9.61112 10.6652C9.88355 10.5535 10.1756 10.4973 10.47 10.5C11.019 10.5177 11.5437 10.7304 11.95 11.1C12.3563 10.7304 12.881 10.5177 13.43 10.5C13.7244 10.4973 14.0165 10.5535 14.2889 10.6652C14.5613 10.777 14.8087 10.942 15.0164 11.1507C15.2241 11.3594 15.3881 11.6075 15.4986 11.8804C15.6091 12.1533 15.664 12.4456 15.66 12.74C15.71 14.12 14.62 15.39 12.76 17.1Z" fill="currentColor"/>
  </symbol>
  <symbol id="ic_shopping_bags" viewBox="0 0 24 24">
    <path d="M17 6H16C16 4.93913 15.5786 3.92172 14.8284 3.17157C14.0783 2.42143 13.0609 2 12 2C10.9391 2 9.92172 2.42143 9.17157 3.17157C8.42143 3.92172 8 4.93913 8 6H7C6.20435 6 5.44129 6.31607 4.87868 6.87868C4.31607 7.44129 4 8.20435 4 9V19C4 19.7956 4.31607 20.5587 4.87868 21.1213C5.44129 21.6839 6.20435 22 7 22H8.56C8.19645 21.396 8.00295 20.705 8 20V15C8.00213 14.2461 8.21731 13.5081 8.62071 12.8711C9.02411 12.2342 9.59931 11.7242 10.28 11.4C10.6222 10.421 11.2603 9.57269 12.1059 8.97243C12.9516 8.37218 13.963 8.04973 15 8.04973C16.037 8.04973 17.0484 8.37218 17.8941 8.97243C18.7397 9.57269 19.3778 10.421 19.72 11.4C19.81 11.45 19.91 11.49 20 11.55V9C20 8.20435 19.6839 7.44129 19.1213 6.87868C18.5587 6.31607 17.7956 6 17 6ZM10 6C10 5.46957 10.2107 4.96086 10.5858 4.58579C10.9609 4.21071 11.4696 4 12 4C12.5304 4 13.0391 4.21071 13.4142 4.58579C13.7893 4.96086 14 5.46957 14 6H10ZM18 13C18 12.2044 17.6839 11.4413 17.1213 10.8787C16.5587 10.3161 15.7956 10 15 10C14.2044 10 13.4413 10.3161 12.8787 10.8787C12.3161 11.4413 12 12.2044 12 13C11.4696 13 10.9609 13.2107 10.5858 13.5858C10.2107 13.9609 10 14.4696 10 15V20C10 20.5304 10.2107 21.0391 10.5858 21.4142C10.9609 21.7893 11.4696 22 12 22H18C18.5304 22 19.0391 21.7893 19.4142 21.4142C19.7893 21.0391 20 20.5304 20 20V15C20 14.4696 19.7893 13.9609 19.4142 13.5858C19.0391 13.2107 18.5304 13 18 13ZM14 13C14 12.7348 14.1054 12.4804 14.2929 12.2929C14.4804 12.1054 14.7348 12 15 12C15.2652 12 15.5196 12.1054 15.7071 12.2929C15.8946 12.4804 16 12.7348 16 13H14Z" fill="currentColor"/>
  </symbol>
  <symbol id="ic_shopping_basket" viewBox="0 0 24 24">
    <path d="M21.5701 9.75996C21.3828 9.52294 21.1442 9.33142 20.8723 9.19979C20.6004 9.06816 20.3022 8.99984 20.0001 8.99996H18.6001L15.8601 4.48996C15.7145 4.28975 15.4998 4.15067 15.2576 4.09962C15.0153 4.04857 14.7628 4.08919 14.5487 4.21362C14.3347 4.33805 14.1745 4.53744 14.099 4.77321C14.0235 5.00898 14.0381 5.26437 14.1401 5.48996L16.2301 8.99996H7.7701L9.8601 5.50996C9.96206 5.28437 9.97671 5.02898 9.90123 4.79321C9.82574 4.55744 9.66548 4.35805 9.45147 4.23362C9.23745 4.10919 8.98488 4.06857 8.74264 4.11962C8.5004 4.17067 8.28571 4.30975 8.1401 4.50996L5.4301 8.99996H4.0001C3.69295 8.99526 3.38885 9.06138 3.11138 9.19318C2.83391 9.32498 2.59052 9.51892 2.4001 9.75996C2.2156 9.99399 2.08573 10.2663 2.01998 10.557C1.95424 10.8476 1.95428 11.1493 2.0201 11.44L3.4401 17.66C3.59251 18.3367 3.97473 18.9397 4.52171 19.3664C5.06869 19.793 5.74662 20.0169 6.4401 20H17.5401C18.2336 20.0169 18.9115 19.793 19.4585 19.3664C20.0055 18.9397 20.3877 18.3367 20.5401 17.66L22.0001 11.44C22.0591 11.1456 22.0511 10.8418 21.9767 10.5509C21.9022 10.2601 21.7633 9.98977 21.5701 9.75996Z" fill="currentColor"/>
  </symbol>
</svg>
