<!-- JioGames DLS — shutter icons (3 icons) -->
<svg xmlns="http://www.w3.org/2000/svg" style="display:none">
  <symbol id="ic_shutter_10s" viewBox="0 0 24 24">
    <path d="M12 2C6.48 2 2 6.48 2 12C2 17.52 6.48 22 12 22C17.52 22 22 17.52 22 12C22 6.48 17.52 2 12 2ZM7.81 15.38C7.81 16.04 7.33 16.25 6.83 16.25C6.33 16.25 5.85 16.04 5.85 15.38V11.27C5.85 11.27 5.85 11.16 5.79 11.16C5.75 11.16 5.72 11.18 5.68 11.22C5.46 11.44 5.25 11.52 5.04 11.52C4.56 11.52 4 11.04 4 10.52C4 10.3 4.1 10.06 4.34 9.82L6.13 8.06C6.4 7.79 6.7 7.75 6.84 7.75C7.32 7.75 7.81 8 7.81 8.78V15.38ZM11.71 16.25C9.22 16.25 8.88 14.33 8.88 12C8.88 9.67 9.22 7.75 11.71 7.75C14.2 7.75 14.53 9.67 14.53 12C14.53 14.33 14.19 16.25 11.71 16.25ZM17.63 16.25C16.72 16.25 15.98 15.98 15.52 15.56C15.3 15.37 15.22 15.16 15.22 14.97C15.22 14.52 15.63 14.03 16.11 14.03C16.26 14.03 16.41 14.09 16.58 14.2C16.92 14.43 17.26 14.54 17.63 14.54C17.9 14.54 18.09 14.43 18.09 14.23C18.09 14.05 17.93 13.96 17.63 13.87L17.14 13.71C15.98 13.35 15.33 12.67 15.33 11.8C15.33 10.52 16.25 9.82 17.64 9.82C18.15 9.82 18.8 9.94 19.27 10.24C19.55 10.41 19.69 10.66 19.69 10.92C19.69 11.4 19.36 11.84 18.87 11.84C18.75 11.84 18.63 11.8 18.48 11.74C18.11 11.57 17.89 11.53 17.63 11.53C17.37 11.53 17.22 11.66 17.22 11.81C17.22 11.93 17.34 12.03 17.63 12.12L18.11 12.29C19.43 12.75 19.98 13.26 19.98 14.22C19.98 15.54 19.01 16.25 17.63 16.25Z" fill="currentColor"/>
<path d="M11.72 9.62988C10.96 9.62988 10.9 10.3799 10.9 11.9399V12.0599C10.9 13.6199 10.96 14.3699 11.72 14.3699C12.48 14.3699 12.54 13.6199 12.54 12.0599V11.9499C12.54 10.3799 12.48 9.62988 11.72 9.62988Z" fill="currentColor"/>
  </symbol>
  <symbol id="ic_shutter_3s" viewBox="0 0 24 24">
    <path d="M12 2C6.48 2 2 6.48 2 12C2 17.52 6.48 22 12 22C17.52 22 22 17.52 22 12C22 6.48 17.52 2 12 2ZM8.98 17C7.33 17 6.58 16.15 6.25 15.79C6.11 15.63 5.94 15.34 5.94 15.04C5.94 14.59 6.51 13.92 7.12 13.92C7.35 13.92 7.53 13.96 7.9 14.32C8.1 14.52 8.47 14.82 8.98 14.82C9.55 14.82 9.92 14.45 9.92 13.87C9.92 13.29 9.51 12.9 8.94 12.9H8.8C8.15 12.9 7.85 12.47 7.85 11.86C7.85 11.25 8.18 10.85 8.82 10.85H8.96C9.43 10.85 9.77 10.49 9.77 10.01C9.77 9.5 9.46 9.19 8.99 9.19C8.55 9.19 8.31 9.43 7.95 9.69C7.77 9.86 7.57 10 7.2 10C6.67 10 6.03 9.52 6.03 8.91C6.03 8.53 6.31 8.17 6.54 7.93C7.08 7.39 7.79 7.01 8.98 7.01C10.91 7.01 12.08 8.18 12.08 9.86C12.08 10.73 11.73 11.35 11.27 11.75C11.23 11.78 11.2 11.82 11.2 11.86C11.2 11.9 11.23 11.93 11.27 11.97C11.74 12.35 12.25 12.98 12.25 14C12.25 15.66 11.07 17 8.98 17ZM15.68 17C14.77 17 14.01 16.73 13.55 16.31C13.33 16.12 13.25 15.91 13.25 15.71C13.25 15.26 13.66 14.76 14.15 14.76C14.3 14.76 14.45 14.82 14.62 14.93C14.96 15.16 15.3 15.27 15.68 15.27C15.95 15.27 16.14 15.16 16.14 14.95C16.14 14.77 15.98 14.68 15.68 14.58L15.18 14.42C14.01 14.05 13.36 13.37 13.36 12.5C13.36 11.21 14.28 10.51 15.68 10.51C16.19 10.51 16.85 10.63 17.32 10.94C17.6 11.11 17.75 11.37 17.75 11.62C17.75 12.11 17.42 12.54 16.92 12.54C16.8 12.54 16.68 12.5 16.53 12.44C16.15 12.27 15.93 12.23 15.68 12.23C15.43 12.23 15.27 12.36 15.27 12.51C15.27 12.63 15.39 12.73 15.68 12.83L16.17 13C17.5 13.46 18.06 13.97 18.06 14.95C18.06 16.28 17.09 16.99 15.69 16.99L15.68 17Z" fill="currentColor"/>
  </symbol>
  <symbol id="ic_shutter_5s" viewBox="0 0 24 24">
    <path d="M12 2C6.48 2 2 6.48 2 12C2 17.52 6.48 22 12 22C17.52 22 22 17.52 22 12C22 6.48 17.52 2 12 2ZM8.95 17C7.31 17 6.59 16.3 6.24 15.86C6.11 15.69 5.93 15.4 5.93 15.1C5.93 14.64 6.5 13.97 7.13 13.97C7.37 13.97 7.59 14.07 7.92 14.38C8.13 14.58 8.45 14.79 8.96 14.79C9.47 14.79 9.86 14.49 9.86 13.48C9.86 12.97 9.77 12.28 8.96 12.28C8.67 12.28 8.42 12.38 8.12 12.62C7.91 12.79 7.72 12.95 7.28 12.95C6.58 12.95 6.01 12.64 6.01 11.82V8.06C6.01 7.39 6.44 6.99 7.05 6.99H10.49C11.36 6.99 11.59 7.55 11.59 8.1C11.59 8.7 11.36 9.21 10.49 9.21H8.45C8.34 9.21 8.32 9.25 8.32 9.34V10.41C8.32 10.47 8.35 10.51 8.42 10.51C8.48 10.51 8.52 10.48 8.71 10.42C9.05 10.32 9.27 10.29 9.61 10.29C11.41 10.29 12.2 11.71 12.2 13.42C12.2 15.83 10.9 16.98 8.97 16.98L8.95 17ZM15.7 17C14.78 17 14.02 16.73 13.56 16.3C13.34 16.1 13.25 15.9 13.25 15.7C13.25 15.25 13.67 14.75 14.16 14.75C14.31 14.75 14.47 14.81 14.64 14.92C14.98 15.15 15.33 15.26 15.7 15.26C15.97 15.26 16.17 15.15 16.17 14.94C16.17 14.76 16.01 14.67 15.7 14.57L15.2 14.41C14.03 14.04 13.37 13.36 13.37 12.48C13.37 11.18 14.3 10.47 15.71 10.47C16.22 10.47 16.88 10.59 17.36 10.9C17.64 11.07 17.79 11.33 17.79 11.59C17.79 12.08 17.46 12.52 16.96 12.52C16.84 12.52 16.71 12.48 16.57 12.42C16.19 12.25 15.97 12.21 15.71 12.21C15.45 12.21 15.29 12.34 15.29 12.49C15.29 12.61 15.41 12.71 15.71 12.81L16.2 12.98C17.53 13.45 18.1 13.96 18.1 14.94C18.1 16.27 17.12 16.99 15.71 16.99L15.7 17Z" fill="currentColor"/>
  </symbol>
</svg>
