<!-- JioGames DLS — sign icons (3 icons) -->
<svg xmlns="http://www.w3.org/2000/svg" style="display:none">
  <symbol id="ic_sign" viewBox="0 0 24 24">
    <path d="M20.2998 3.69998C17.5633 2.74975 14.5863 2.74975 11.8498 3.69998C8.56506 4.8236 5.86063 7.20513 4.33062 10.3214C2.8006 13.4377 2.57012 17.0339 3.68982 20.32C3.75691 20.5186 3.88472 20.6911 4.05519 20.8131C4.22567 20.9352 4.43018 21.0005 4.63982 21C4.75919 21.0174 4.88045 21.0174 4.99982 21C5.25034 20.9136 5.45635 20.7314 5.5726 20.4933C5.68885 20.2551 5.70583 19.9806 5.61982 19.73C5.394 19.0364 5.23331 18.3234 5.13982 17.6C5.93097 17.7508 6.73443 17.8278 7.53982 17.83C10.1194 17.835 12.6462 17.0992 14.8198 15.71C15.002 15.5876 15.1389 15.4088 15.2094 15.201C15.2798 14.9931 15.28 14.7679 15.2098 14.56L13.9998 11L18.0598 11.68C18.2532 11.7095 18.4511 11.6817 18.6288 11.5999C18.8066 11.5182 18.9564 11.3861 19.0598 11.22C20.2561 9.23853 20.9241 6.98331 20.9998 4.66998C21.0033 4.45445 20.937 4.24357 20.8109 4.06877C20.6847 3.89398 20.5055 3.76462 20.2998 3.69998Z" fill="currentColor"/>
  </symbol>
  <symbol id="ic_sign_in" viewBox="0 0 24 24">
    <path d="M10.29 14.29C10.1963 14.383 10.1219 14.4936 10.0711 14.6154C10.0203 14.7373 9.9942 14.868 9.9942 15C9.9942 15.132 10.0203 15.2627 10.0711 15.3846C10.1219 15.5064 10.1963 15.617 10.29 15.71C10.383 15.8037 10.4936 15.8781 10.6154 15.9289C10.7373 15.9797 10.868 16.0058 11 16.0058C11.132 16.0058 11.2627 15.9797 11.3846 15.9289C11.5064 15.8781 11.617 15.8037 11.71 15.71L14.71 12.71C14.8037 12.617 14.8781 12.5064 14.9289 12.3846C14.9797 12.2627 15.0058 12.132 15.0058 12C15.0058 11.868 14.9797 11.7373 14.9289 11.6154C14.8781 11.4936 14.8037 11.383 14.71 11.29L11.71 8.29C11.5217 8.1017 11.2663 7.99591 11 7.99591C10.7337 7.99591 10.4783 8.1017 10.29 8.29C10.1017 8.47831 9.99591 8.7337 9.99591 9C9.99591 9.2663 10.1017 9.5217 10.29 9.71L11.59 11H3C2.73478 11 2.48043 11.1054 2.29289 11.2929C2.10536 11.4804 2 11.7348 2 12C2 12.2652 2.10536 12.5196 2.29289 12.7071C2.48043 12.8946 2.73478 13 3 13H11.59L10.29 14.29ZM12 2C10.4221 2.00572 8.8677 2.38253 7.46234 3.09997C6.05699 3.81741 4.8401 4.85538 3.91 6.13C3.83225 6.23627 3.77626 6.35685 3.74523 6.48482C3.7142 6.61279 3.70875 6.74562 3.72919 6.8757C3.74963 7.00578 3.79556 7.13054 3.86434 7.24282C3.93312 7.35511 4.0234 7.4527 4.13 7.53C4.23627 7.60775 4.35685 7.66375 4.48482 7.69478C4.61278 7.7258 4.74562 7.73125 4.8757 7.71081C5.00578 7.69037 5.13054 7.64444 5.24282 7.57566C5.3551 7.50688 5.4527 7.4166 5.53 7.31C6.52119 5.94029 7.92085 4.91982 9.52809 4.39507C11.1353 3.87032 12.8675 3.86827 14.476 4.38921C16.0844 4.91015 17.4865 5.92729 18.4809 7.29465C19.4754 8.66201 20.011 10.3093 20.011 12C20.011 13.6907 19.4754 15.338 18.4809 16.7054C17.4865 18.0727 16.0844 19.0899 14.476 19.6108C12.8675 20.1317 11.1353 20.1297 9.52809 19.6049C7.92085 19.0802 6.52119 18.0597 5.53 16.69C5.37352 16.4752 5.13811 16.3313 4.87556 16.2901C4.61301 16.2488 4.34483 16.3135 4.13 16.47C3.91517 16.6265 3.77131 16.8619 3.73005 17.1244C3.68879 17.387 3.75352 17.6552 3.91 17.87C4.91474 19.2557 6.25836 20.3604 7.81223 21.0782C9.3661 21.796 11.0782 22.1029 12.7847 21.9696C14.4911 21.8363 16.1348 21.2672 17.5584 20.3168C18.9819 19.3664 20.1377 18.0666 20.9151 16.5416C21.6924 15.0167 22.0654 13.3177 21.9982 11.6074C21.931 9.89704 21.4259 8.23258 20.5312 6.77333C19.6366 5.31408 18.3824 4.10889 16.8887 3.27312C15.3949 2.43736 13.7117 1.999 12 2Z" fill="currentColor"/>
  </symbol>
  <symbol id="ic_sign_out" viewBox="0 0 24 24">
    <path d="M21.9 11.6102C21.8518 11.4883 21.7766 11.3789 21.68 11.2902L18.68 8.29018C18.4987 8.11021 18.2554 8.00644 18 8.00018C17.8694 8.00176 17.7403 8.02894 17.62 8.08018C17.4965 8.13075 17.3843 8.20555 17.29 8.30018C17.1053 8.48644 17.0012 8.73784 17 9.00018C17.0066 9.26436 17.1098 9.51697 17.29 9.71018L18.56 11.0002H10C9.73771 11.0013 9.48631 11.1054 9.30005 11.2902C9.20542 11.3844 9.13061 11.4966 9.08005 11.6202C9.0288 11.7404 9.00163 11.8695 9.00005 12.0002C8.99928 12.1318 9.02451 12.2623 9.07427 12.3841C9.12404 12.5059 9.19736 12.6167 9.29005 12.7102C9.38349 12.8029 9.4943 12.8762 9.61614 12.926C9.73798 12.9757 9.86844 13.0009 10 13.0002H18.59L17.28 14.2902C17.1901 14.3823 17.1188 14.491 17.07 14.6102C17.0209 14.7342 16.9971 14.8668 17 15.0002C17.0016 15.1309 17.0288 15.26 17.08 15.3802C17.1276 15.5029 17.199 15.6151 17.29 15.7102C17.387 15.8015 17.4985 15.8758 17.62 15.9302C17.741 15.978 17.87 16.0018 18 16.0002C18.1334 16.0031 18.266 15.9793 18.39 15.9302C18.5119 15.8819 18.6213 15.8067 18.71 15.7102L21.71 12.7102C21.809 12.6196 21.8845 12.5063 21.93 12.3802C21.9779 12.2593 22.0016 12.1302 22 12.0002C21.9912 11.8651 21.9573 11.7328 21.9 11.6102ZM18.19 18.1702C18.0105 18.0489 17.7964 17.9893 17.58 18.0002C17.3498 18.002 17.1273 18.0833 16.95 18.2302C16.2114 18.8417 15.3629 19.3066 14.45 19.6002C13.2487 19.997 11.9704 20.1032 10.72 19.9102C9.47107 19.7095 8.28625 19.2199 7.26005 18.4802C5.71443 17.3605 4.62003 15.7252 4.17441 13.8694C3.7288 12.0136 3.96134 10.0596 4.83005 8.36018C5.69149 6.65435 7.13511 5.31324 8.89965 4.57954C10.6642 3.84584 12.6331 3.76803 14.45 4.36018C15.3822 4.66315 16.2478 5.14176 17 5.77018C17.1693 5.91077 17.3802 5.99161 17.6 6.00018C17.807 6.01045 18.0114 5.95055 18.18 5.83018C18.3522 5.71646 18.4849 5.5523 18.56 5.36018C18.6198 5.16124 18.6198 4.94913 18.56 4.75018C18.5083 4.55135 18.3966 4.37327 18.24 4.24018C17.6006 3.71049 16.8946 3.26672 16.14 2.92018C14.523 2.17466 12.7363 1.87441 10.9644 2.05047C9.19248 2.22653 7.49974 2.87251 6.06104 3.92166C4.62234 4.97081 3.48987 6.38509 2.78063 8.01835C2.07139 9.65162 1.81111 11.4446 2.02669 13.2122C2.24226 14.9797 2.92587 16.6576 4.00689 18.0725C5.0879 19.4874 6.5271 20.588 8.1758 21.2606C9.82449 21.9332 11.6229 22.1534 13.3851 21.8984C15.1474 21.6434 16.8096 20.9225 18.2 19.8102C18.3802 19.6897 18.5114 19.5088 18.57 19.3002C18.6379 19.0957 18.6379 18.8747 18.57 18.6702C18.5004 18.467 18.3671 18.2917 18.19 18.1702Z" fill="currentColor"/>
  </symbol>
</svg>
