<!-- JioGames DLS — sim icons (5 icons) -->
<svg xmlns="http://www.w3.org/2000/svg" style="display:none">
  <symbol id="ic_sim" viewBox="0 0 24 24">
    <path d="M15.9999 2.00019H10.9999C10.5434 1.99502 10.0917 2.09412 9.67926 2.28995C9.26682 2.48577 8.90451 2.77315 8.61995 3.13019L5.61995 6.83019C5.20866 7.36596 4.99021 8.02484 4.99995 8.70019V19.0002C4.99995 19.7958 5.31602 20.5589 5.87863 21.1215C6.44123 21.6841 7.2043 22.0002 7.99995 22.0002H15.9999C16.7956 22.0002 17.5587 21.6841 18.1213 21.1215C18.6839 20.5589 18.9999 19.7958 18.9999 19.0002V5.00019C18.9999 4.20454 18.6839 3.44148 18.1213 2.87887C17.5587 2.31626 16.7956 2.00019 15.9999 2.00019ZM6.99995 12.0002H9.99995V15.0002H6.99995V12.0002ZM11.9999 20.0002H7.99995C7.73473 20.0002 7.48038 19.8948 7.29284 19.7073C7.1053 19.5198 6.99995 19.2654 6.99995 19.0002V17.0002H11.9999V20.0002ZM16.9999 19.0002C16.9999 19.2654 16.8946 19.5198 16.7071 19.7073C16.5195 19.8948 16.2652 20.0002 15.9999 20.0002H13.9999V17.0002H16.9999V19.0002ZM16.9999 15.0002H11.9999V12.0002H16.9999V15.0002Z" fill="currentColor"/>
  </symbol>
  <symbol id="ic_sim_1" viewBox="0 0 24 24">
    <path d="M18.12 2.88019C17.5579 2.31742 16.7954 2.00089 16 2.00019H11C10.5435 1.99502 10.0918 2.09412 9.67932 2.28995C9.26688 2.48577 8.90457 2.77315 8.62001 3.13019L5.62001 6.83019C5.20873 7.36596 4.99027 8.02484 5.00001 8.70019V19.0002C5.00001 19.7958 5.31608 20.5589 5.87869 21.1215C6.4413 21.6841 7.20436 22.0002 8.00001 22.0002H16C16.7957 22.0002 17.5587 21.6841 18.1213 21.1215C18.6839 20.5589 19 19.7958 19 19.0002V5.00019C18.9993 4.20481 18.6828 3.44226 18.12 2.88019ZM13.5 16.0002C13.5 16.2654 13.3946 16.5198 13.2071 16.7073C13.0196 16.8948 12.7652 17.0002 12.5 17.0002C12.2348 17.0002 11.9804 16.8948 11.7929 16.7073C11.6054 16.5198 11.5 16.2654 11.5 16.0002V11.0002L10.62 11.7002C10.4118 11.8646 10.1468 11.9396 9.88333 11.9087C9.61985 11.8777 9.37944 11.7434 9.21501 11.5352C9.05057 11.327 8.97558 11.062 9.00652 10.7985C9.03746 10.535 9.17181 10.2946 9.38001 10.1302L11.88 8.13019C12.033 8.00801 12.2186 7.93345 12.4136 7.91577C12.6086 7.89808 12.8045 7.93803 12.9771 8.03068C13.1496 8.12333 13.2911 8.26459 13.3841 8.43694C13.477 8.60929 13.5173 8.80514 13.5 9.00019V16.0002Z" fill="currentColor"/>
  </symbol>
  <symbol id="ic_sim_2" viewBox="0 0 24 24">
    <path d="M18.12 2.88019C17.5579 2.31742 16.7954 2.00089 16 2.00019H11C10.5435 1.99502 10.0918 2.09412 9.67932 2.28995C9.26688 2.48577 8.90457 2.77315 8.62001 3.13019L5.62001 6.83019C5.20873 7.36596 4.99027 8.02484 5.00001 8.70019V19.0002C5.00001 19.7958 5.31608 20.5589 5.87869 21.1215C6.4413 21.6841 7.20436 22.0002 8.00001 22.0002H16C16.7957 22.0002 17.5587 21.6841 18.1213 21.1215C18.6839 20.5589 19 19.7958 19 19.0002V5.00019C18.9993 4.20481 18.6828 3.44226 18.12 2.88019ZM14.5 17.0002H10C9.81162 16.999 9.62742 16.9445 9.46861 16.8432C9.30981 16.7418 9.18286 16.5977 9.1024 16.4273C9.02193 16.257 8.99121 16.0674 9.01379 15.8804C9.03637 15.6933 9.11132 15.5165 9.23001 15.3702L12.49 11.3702C12.5755 11.2984 12.6454 11.21 12.6955 11.1103C12.7456 11.0106 12.7748 10.9017 12.7814 10.7903C12.788 10.6789 12.7717 10.5673 12.7336 10.4624C12.6956 10.3575 12.6365 10.2615 12.56 10.1802C12.4866 10.1064 12.3993 10.0479 12.3032 10.0079C12.2071 9.96798 12.1041 9.94742 12 9.94742C11.8959 9.94742 11.7929 9.96798 11.6968 10.0079C11.6007 10.0479 11.5134 10.1064 11.44 10.1802C11.3915 10.2266 11.3509 10.2806 11.32 10.3402C11.2722 10.417 11.2384 10.5016 11.22 10.5902C11.2147 10.6401 11.2147 10.6903 11.22 10.7402C11.22 11.0054 11.1146 11.2598 10.9271 11.4473C10.7396 11.6348 10.4852 11.7402 10.22 11.7402C9.95479 11.7402 9.70044 11.6348 9.5129 11.4473C9.32536 11.2598 9.22001 11.0054 9.22001 10.7402C9.20427 10.5706 9.20427 10.3998 9.22001 10.2302C9.26907 9.91587 9.37768 9.6138 9.54001 9.34019C9.66758 9.13377 9.82229 8.94542 10 8.78019C10.5304 8.25772 11.2467 7.96735 11.9912 7.97298C12.7357 7.9786 13.4475 8.27976 13.97 8.81019C14.4925 9.34063 14.7828 10.0569 14.7772 10.8014C14.7716 11.5459 14.4704 12.2577 13.94 12.7802L12.11 15.0002H14.5C14.7652 15.0002 15.0196 15.1055 15.2071 15.2931C15.3946 15.4806 15.5 15.735 15.5 16.0002C15.5 16.2654 15.3946 16.5198 15.2071 16.7073C15.0196 16.8948 14.7652 17.0002 14.5 17.0002Z" fill="currentColor"/>
  </symbol>
  <symbol id="ic_sim_off" viewBox="0 0 24 24">
    <path d="M20.7099 3.29022C20.617 3.19649 20.5064 3.1221 20.3845 3.07133C20.2627 3.02056 20.132 2.99442 19.9999 2.99442C19.8679 2.99442 19.7372 3.02056 19.6154 3.07133C19.4935 3.1221 19.3829 3.19649 19.2899 3.29022L3.28994 19.2902C3.19621 19.3832 3.12182 19.4938 3.07105 19.6156C3.02028 19.7375 2.99414 19.8682 2.99414 20.0002C2.99414 20.1322 3.02028 20.2629 3.07105 20.3848C3.12182 20.5067 3.19621 20.6173 3.28994 20.7102C3.3829 20.8039 3.4935 20.8783 3.61536 20.9291C3.73722 20.9799 3.86793 21.006 3.99994 21.006C4.13195 21.006 4.26266 20.9799 4.38452 20.9291C4.50638 20.8783 4.61698 20.8039 4.70994 20.7102L5.23994 20.1702C5.38799 20.5263 5.60557 20.8493 5.87994 21.1202C6.44201 21.683 7.20456 21.9995 7.99994 22.0002H15.9999C16.7956 22.0002 17.5587 21.6842 18.1213 21.1215C18.6839 20.5589 18.9999 19.7959 18.9999 19.0002V6.41022L20.7099 4.71022C20.8037 4.61726 20.8781 4.50666 20.9288 4.3848C20.9796 4.26294 21.0057 4.13223 21.0057 4.00022C21.0057 3.86821 20.9796 3.7375 20.9288 3.61564C20.8781 3.49378 20.8037 3.38318 20.7099 3.29022ZM11.9999 20.0002H7.99994C7.73472 20.0002 7.48037 19.8949 7.29283 19.7073C7.1053 19.5198 6.99994 19.2654 6.99994 19.0002V18.4102L8.40994 17.0002H11.9999V20.0002ZM16.9999 19.0002C16.9999 19.2654 16.8946 19.5198 16.707 19.7073C16.5195 19.8949 16.2652 20.0002 15.9999 20.0002H13.9999V17.0002H16.9999V19.0002ZM16.9999 15.0002H11.9999V13.4102L13.4099 12.0002H16.9999V15.0002ZM6.99994 12.0002H7.75994L17.3999 2.36022C16.9696 2.1279 16.489 2.00432 15.9999 2.00022H10.9999C10.5431 1.99005 10.0905 2.08949 9.67994 2.29022C9.26727 2.48589 8.90473 2.77319 8.61994 3.13022L5.61994 6.83022C5.20866 7.36599 4.99021 8.02487 4.99994 8.70022V14.7602L6.99994 12.7602V12.0002Z" fill="currentColor"/>
  </symbol>
  <symbol id="ic_sim_post_paid" viewBox="0 0 24 24">
    <path d="M8.00007 20.0002C7.73485 20.0002 7.4805 19.8948 7.29296 19.7073C7.10542 19.5198 7.00007 19.2654 7.00007 19.0002V17.0002H10.0001C10.0001 15.1437 10.7376 13.3632 12.0503 12.0504C13.3631 10.7377 15.1436 10.0002 17.0001 10.0002C17.6773 9.99832 18.3512 10.096 19.0001 10.2902V5.00019C19.0001 4.20454 18.684 3.44148 18.1214 2.87887C17.5588 2.31626 16.7957 2.00019 16.0001 2.00019H11.0001C10.5435 1.99502 10.0918 2.09412 9.67938 2.28995C9.26694 2.48577 8.90463 2.77315 8.62007 3.13019L5.62007 6.83019C5.20879 7.36596 4.99033 8.02484 5.00007 8.70019V19.0002C5.00007 19.7958 5.31614 20.5589 5.87875 21.1215C6.44136 21.6841 7.20442 22.0002 8.00007 22.0002H12.1101C11.5191 21.4231 11.035 20.746 10.6801 20.0002H8.00007ZM7.00007 12.0002H10.0001V15.0002H7.00007V12.0002ZM17.0001 12.0002C16.0112 12.0002 15.0445 12.2934 14.2222 12.8428C13.4 13.3923 12.7591 14.1731 12.3807 15.0868C12.0022 16.0004 11.9032 17.0057 12.0961 17.9756C12.2891 18.9456 12.7653 19.8365 13.4645 20.5357C14.1638 21.235 15.0547 21.7112 16.0246 21.9041C16.9945 22.097 17.9999 21.998 18.9135 21.6196C19.8271 21.2412 20.608 20.6003 21.1574 19.778C21.7068 18.9558 22.0001 17.9891 22.0001 17.0002C22.0001 15.6741 21.4733 14.4023 20.5356 13.4647C19.5979 12.527 18.3261 12.0002 17.0001 12.0002ZM18.5001 18.0002C18.5001 18.2654 18.3947 18.5198 18.2072 18.7073C18.0196 18.8948 17.7653 19.0002 17.5001 19.0002H15.5001C15.2349 19.0002 14.9805 18.8948 14.793 18.7073C14.6054 18.5198 14.5001 18.2654 14.5001 18.0002C14.5001 17.735 14.6054 17.4806 14.793 17.2931C14.9805 17.1055 15.2349 17.0002 15.5001 17.0002H16.5001V15.5002C16.5001 15.235 16.6054 14.9806 16.793 14.7931C16.9805 14.6055 17.2349 14.5002 17.5001 14.5002C17.7653 14.5002 18.0196 14.6055 18.2072 14.7931C18.3947 14.9806 18.5001 15.235 18.5001 15.5002V18.0002Z" fill="currentColor"/>
  </symbol>
</svg>
