<!-- JioGames DLS — sleep icons (3 icons) -->
<svg xmlns="http://www.w3.org/2000/svg" style="display:none">
  <symbol id="ic_sleep_apnea" viewBox="0 0 24 24">
    <path d="M9.99982 17H4.99982C4.99982 18.1 5.89982 19 6.99982 19H8.99982V20C8.99982 21.1 9.89982 22 10.9998 22H11.9998V19C11.9998 17.9 11.0998 17 9.99982 17ZM12.9998 2.01003C8.67982 2.00003 5.14982 5.45003 5.00982 9.74003L3.09982 13.56C2.84982 14.05 3.04982 14.65 3.54982 14.9L3.75982 15.01H9.99982C12.2098 15.01 13.9998 16.8 13.9998 19.01V22.01H15.9998C17.0998 22.01 17.9998 21.11 17.9998 20.01V16.25C19.8298 14.78 20.9998 12.53 20.9998 10.01C20.9998 5.60003 17.4098 2.01003 12.9998 2.01003ZM13.2998 10C13.4198 10 13.5398 10.05 13.6298 10.15C13.7198 10.25 13.7698 10.37 13.7698 10.5C13.7698 10.63 13.7198 10.76 13.6298 10.85C13.5398 10.94 13.4298 11 13.2998 11H11.4498C11.3598 11 11.2698 10.97 11.1898 10.91C11.1098 10.85 11.0598 10.78 11.0198 10.69C10.9798 10.6 10.9698 10.5 10.9898 10.4C11.0098 10.3 11.0498 10.21 11.1198 10.15L12.1698 9.00003H11.4398C11.3198 9.00003 11.1998 8.95003 11.1098 8.85003C11.0198 8.76003 10.9698 8.63003 10.9698 8.50003C10.9698 8.37003 11.0198 8.24003 11.1098 8.15003C11.1998 8.06003 11.3098 8.00003 11.4398 8.00003H13.2898C13.3898 8.00003 13.4798 8.02003 13.5698 8.07003C13.6498 8.13003 13.7198 8.21003 13.7498 8.31003C13.7798 8.40003 13.7898 8.51003 13.7598 8.60003C13.7398 8.70003 13.6798 8.78003 13.6098 8.85003L12.5598 10H13.2898H13.2998ZM16.8598 7.85003C16.7698 7.94003 16.6598 8.00003 16.5298 8.00003H14.6798C14.5898 8.00003 14.4998 7.97003 14.4198 7.91003C14.3398 7.85003 14.2898 7.78003 14.2498 7.69003C14.2098 7.60003 14.1998 7.50003 14.2198 7.40003C14.2398 7.30003 14.2798 7.21003 14.3498 7.15003L15.3998 6.00003H14.6698C14.5498 6.00003 14.4298 5.95003 14.3398 5.85003C14.2498 5.75003 14.1998 5.63003 14.1998 5.50003C14.1998 5.37003 14.2498 5.24003 14.3398 5.15003C14.4298 5.06003 14.5398 5.00003 14.6698 5.00003H16.5198C16.6098 5.00003 16.6998 5.03003 16.7798 5.09003C16.8598 5.15003 16.9098 5.22003 16.9498 5.31003C16.9898 5.40003 16.9998 5.50003 16.9798 5.60003C16.9598 5.70003 16.9198 5.79003 16.8498 5.85003L15.7998 7.00003H16.5298C16.6498 7.00003 16.7698 7.05003 16.8598 7.15003C16.9498 7.24003 16.9998 7.37003 16.9998 7.50003C16.9998 7.63003 16.9498 7.76003 16.8598 7.85003Z" fill="currentColor"/>
  </symbol>
  <symbol id="ic_sleep_disorder" viewBox="0 0 24 24">
    <path d="M13.24 7H14.03L12.89 8.15C12.82 8.22 12.77 8.31 12.75 8.4C12.73 8.5 12.75 8.6 12.78 8.69C12.82 8.78 12.88 8.86 12.96 8.91C13.04 8.96 13.14 8.99 13.24 9H15.24C15.37 9 15.5 8.95 15.59 8.85C15.68 8.75 15.74 8.63 15.74 8.5C15.74 8.37 15.69 8.24 15.59 8.15C15.49 8.06 15.37 8 15.24 8H14.45L15.59 6.85C15.67 6.79 15.73 6.7 15.75 6.6C15.78 6.5 15.77 6.4 15.74 6.31C15.7 6.21 15.63 6.13 15.54 6.07C15.45 6.01 15.34 5.99 15.24 6H13.24C13.11 6 12.98 6.05 12.89 6.15C12.8 6.25 12.74 6.37 12.74 6.5C12.74 6.63 12.79 6.76 12.89 6.85C12.99 6.94 13.11 7 13.24 7ZM15.74 3H16.53L15.39 4.15C15.32 4.22 15.27 4.31 15.25 4.4C15.23 4.5 15.25 4.6 15.28 4.69C15.32 4.78 15.38 4.86 15.46 4.91C15.54 4.96 15.64 4.99 15.74 5H17.74C17.87 5 18 4.95 18.09 4.85C18.18 4.75 18.24 4.63 18.24 4.5C18.24 4.37 18.19 4.24 18.09 4.15C17.99 4.06 17.87 4 17.74 4H16.95L18.09 2.85C18.16 2.78 18.21 2.69 18.23 2.6C18.25 2.5 18.23 2.4 18.2 2.31C18.16 2.22 18.1 2.14 18.02 2.09C17.94 2.04 17.84 2.01 17.74 2H15.74C15.61 2 15.48 2.05 15.39 2.15C15.3 2.25 15.24 2.37 15.24 2.5C15.24 2.63 15.29 2.76 15.39 2.85C15.49 2.94 15.61 3 15.74 3ZM9 9C9.4 9 9.78 8.88 10.11 8.66C10.44 8.44 10.7 8.13 10.85 7.76C11 7.39 11.04 6.99 10.96 6.6C10.88 6.21 10.69 5.86 10.41 5.58C10.13 5.3 9.77 5.11 9.39 5.03C9.01 4.95 8.6 4.99 8.23 5.14C7.86 5.29 7.55 5.55 7.33 5.88C7.11 6.21 6.99 6.6 6.99 6.99C6.99 7.52 7.2 8.03 7.58 8.4C7.96 8.78 8.46 8.99 8.99 8.99L9 9ZM20.63 14H9V11C9 9.9 8.1 9 7 9C5.9 9 5 9.9 5 11V14H4V8C4 7.45 3.55 7 3 7C2.45 7 2 7.45 2 8V20C2 20.55 2.45 21 3 21C3.55 21 4 20.55 4 20V19H20V20C20 20.55 20.45 21 21 21C21.55 21 22 20.55 22 20V15.37C22 14.61 21.39 14 20.63 14Z" fill="currentColor"/>
  </symbol>
  <symbol id="ic_sleep_mode" viewBox="0 0 24 24">
    <path d="M18.82 14.7499C17.5084 15.0971 16.1242 15.0557 14.8357 14.6306C13.5473 14.2056 12.4101 13.4153 11.5626 12.3559C10.715 11.2964 10.1936 10.0135 10.0618 8.66316C9.92992 7.31282 10.1934 5.95327 10.82 4.7499C10.9121 4.57648 10.9511 4.37978 10.9322 4.18433C10.9132 3.98888 10.8372 3.80334 10.7135 3.65084C10.5898 3.49834 10.4239 3.38563 10.2365 3.32678C10.0492 3.26793 9.84869 3.26554 9.66 3.3199C8.21869 3.71299 6.8979 4.45869 5.81677 5.48974C4.73564 6.52078 3.92817 7.80474 3.46721 9.22581C3.00625 10.6469 2.90629 12.1603 3.17634 13.6297C3.4464 15.099 4.07798 16.478 5.01411 17.6423C5.95025 18.8066 7.16149 19.7195 8.53858 20.2988C9.91567 20.878 11.4153 21.1053 12.9022 20.9602C14.3891 20.8151 15.8165 20.3022 17.0556 19.4676C18.2947 18.6331 19.3066 17.5032 20 16.1799C20.0908 16.0073 20.1292 15.812 20.1105 15.6179C20.0917 15.4238 20.0166 15.2394 19.8944 15.0874C19.7722 14.9355 19.6082 14.8226 19.4226 14.7626C19.2371 14.7026 19.038 14.6982 18.85 14.7499H18.82ZM14.5 7.9999H15.29L14.15 9.1499C14.0772 9.21687 14.0273 9.30513 14.0076 9.40209C13.9878 9.49905 13.9992 9.59977 14.04 9.6899C14.0775 9.78121 14.1412 9.85938 14.2231 9.91454C14.3049 9.96971 14.4013 9.99941 14.5 9.9999H16.5C16.6326 9.9999 16.7598 9.94722 16.8536 9.85346C16.9473 9.75969 17 9.63251 17 9.4999C17 9.36729 16.9473 9.24012 16.8536 9.14635C16.7598 9.05258 16.6326 8.9999 16.5 8.9999H15.71L16.85 7.8499C16.9297 7.78793 16.9873 7.70196 17.0143 7.60471C17.0413 7.50745 17.0363 7.40409 17 7.3099C16.9601 7.21201 16.8903 7.12928 16.8004 7.07358C16.7106 7.01789 16.6054 6.99209 16.5 6.9999H14.5C14.3674 6.9999 14.2402 7.05258 14.1464 7.14635C14.0527 7.24012 14 7.36729 14 7.4999C14 7.63251 14.0527 7.75969 14.1464 7.85346C14.2402 7.94722 14.3674 7.9999 14.5 7.9999ZM20.5 4.9999H19.71L20.85 3.8499C20.9297 3.78793 20.9873 3.70196 21.0143 3.60471C21.0413 3.50745 21.0363 3.40409 21 3.3099C20.9601 3.21201 20.8903 3.12928 20.8004 3.07358C20.7106 3.01789 20.6054 2.99209 20.5 2.9999H18.5C18.3674 2.9999 18.2402 3.05258 18.1464 3.14635C18.0527 3.24012 18 3.36729 18 3.4999C18 3.63251 18.0527 3.75969 18.1464 3.85346C18.2402 3.94722 18.3674 3.9999 18.5 3.9999H19.29L18.15 5.1499C18.0772 5.21687 18.0273 5.30513 18.0076 5.40209C17.9878 5.49905 17.9992 5.59977 18.04 5.6899C18.0775 5.78121 18.1412 5.85938 18.2231 5.91454C18.3049 5.96971 18.4013 5.99941 18.5 5.9999H20.5C20.6326 5.9999 20.7598 5.94722 20.8536 5.85346C20.9473 5.75969 21 5.63251 21 5.4999C21 5.36729 20.9473 5.24012 20.8536 5.14635C20.7598 5.05258 20.6326 4.9999 20.5 4.9999Z" fill="currentColor"/>
  </symbol>
</svg>
