<!-- JioGames DLS — smart icons (12 icons) -->
<svg xmlns="http://www.w3.org/2000/svg" style="display:none">
  <symbol id="ic_smart_bulb" viewBox="0 0 24 24">
    <path d="M14.0001 19.9998H10.0001C9.73484 19.9998 9.48049 20.1052 9.29295 20.2927C9.10541 20.4802 9.00006 20.7346 9.00006 20.9998C9.00006 21.265 9.10541 21.5194 9.29295 21.7069C9.48049 21.8944 9.73484 21.9998 10.0001 21.9998H14.0001C14.2653 21.9998 14.5196 21.8944 14.7072 21.7069C14.8947 21.5194 15.0001 21.265 15.0001 20.9998C15.0001 20.7346 14.8947 20.4802 14.7072 20.2927C14.5196 20.1052 14.2653 19.9998 14.0001 19.9998ZM11.8801 1.9998C10.096 2.05285 8.39744 2.77586 7.12249 4.02487C5.84754 5.27388 5.08977 6.95725 5.00006 8.7398C4.9594 9.87945 5.19779 11.0118 5.69449 12.0383C6.19119 13.0648 6.93117 13.9544 7.85006 14.6298C8.21523 14.906 8.5098 15.2648 8.70969 15.6767C8.90957 16.0886 9.00907 16.542 9.00006 16.9998C9.00006 17.265 9.10541 17.5194 9.29295 17.7069C9.48049 17.8944 9.73484 17.9998 10.0001 17.9998H14.0001C14.2653 17.9998 14.5196 17.8944 14.7072 17.7069C14.8947 17.5194 15.0001 17.265 15.0001 16.9998C14.9903 16.5482 15.0875 16.1008 15.284 15.6941C15.4804 15.2873 15.7703 14.9329 16.1301 14.6598C17.3346 13.7838 18.2283 12.5465 18.6813 11.1278C19.1343 9.70899 19.123 8.1827 18.6491 6.77079C18.1751 5.35888 17.2631 4.13495 16.0458 3.27693C14.8284 2.4189 13.3691 1.97151 11.8801 1.9998Z" fill="currentColor"/>
  </symbol>
  <symbol id="ic_smart_bulb_connect" viewBox="0 0 24 24">
    <path d="M11.8801 1.9998C10.096 2.05285 8.39744 2.77586 7.12249 4.02487C5.84754 5.27388 5.08977 6.95725 5.00006 8.7398C4.9594 9.87945 5.19779 11.0118 5.69449 12.0383C6.19119 13.0648 6.93117 13.9544 7.85006 14.6298C8.21523 14.906 8.5098 15.2648 8.70969 15.6767C8.90957 16.0886 9.00907 16.542 9.00006 16.9998C9.00006 17.265 9.10541 17.5194 9.29295 17.7069C9.48049 17.8944 9.73484 17.9998 10.0001 17.9998H14.0001C14.2653 17.9998 14.5196 17.8944 14.7072 17.7069C14.8947 17.5194 15.0001 17.265 15.0001 16.9998C14.9903 16.5482 15.0875 16.1008 15.284 15.6941C15.4804 15.2873 15.7703 14.9329 16.1301 14.6598C17.3346 13.7838 18.2283 12.5465 18.6813 11.1278C19.1343 9.70899 19.123 8.1827 18.6491 6.77079C18.1751 5.35888 17.2631 4.13495 16.0458 3.27693C14.8284 2.4189 13.3691 1.97151 11.8801 1.9998ZM14.8801 12.0698C14.7915 12.2191 14.6657 12.3428 14.5149 12.4287C14.3641 12.5146 14.1936 12.5598 14.0201 12.5598C13.841 12.557 13.6655 12.5088 13.5101 12.4198C13.0595 12.1409 12.54 11.9931 12.0101 11.9931C11.4801 11.9931 10.9607 12.1409 10.5101 12.4198C10.2845 12.5218 10.0291 12.5364 9.7933 12.4609C9.55753 12.3854 9.35814 12.2252 9.23371 12.0112C9.10928 11.7971 9.06866 11.5446 9.11971 11.3023C9.17076 11.0601 9.30984 10.8454 9.51006 10.6998C10.2702 10.261 11.1324 10.0299 12.0101 10.0299C12.8877 10.0299 13.75 10.261 14.5101 10.6998C14.7381 10.8351 14.9031 11.0554 14.9687 11.3123C15.0344 11.5692 14.9953 11.8417 14.8601 12.0698H14.8801ZM16.0201 9.0698C15.8436 9.09863 15.6626 9.07426 15.5001 8.9998C14.4343 8.39027 13.2278 8.06964 12.0001 8.06964C10.7723 8.06964 9.56583 8.39027 8.50006 8.9998C8.27447 9.10175 8.01907 9.11641 7.7833 9.04092C7.54753 8.96543 7.34814 8.80518 7.22371 8.59116C7.09928 8.37714 7.05866 8.12458 7.10971 7.88234C7.16076 7.6401 7.29984 7.4254 7.50006 7.2798C8.86823 6.48988 10.4202 6.07403 12.0001 6.07403C13.5799 6.07403 15.1319 6.48988 16.5001 7.2798C16.6666 7.39896 16.7926 7.5664 16.861 7.75949C16.9293 7.95257 16.9367 8.16199 16.8822 8.35942C16.8276 8.55685 16.7138 8.73277 16.556 8.86339C16.3983 8.99402 16.2042 9.07305 16.0001 9.0898L16.0201 9.0698ZM14.0001 19.9998H10.0001C9.73484 19.9998 9.48049 20.1052 9.29295 20.2927C9.10541 20.4802 9.00006 20.7346 9.00006 20.9998C9.00006 21.265 9.10541 21.5194 9.29295 21.7069C9.48049 21.8944 9.73484 21.9998 10.0001 21.9998H14.0001C14.2653 21.9998 14.5196 21.8944 14.7072 21.7069C14.8947 21.5194 15.0001 21.265 15.0001 20.9998C15.0001 20.7346 14.8947 20.4802 14.7072 20.2927C14.5196 20.1052 14.2653 19.9998 14.0001 19.9998Z" fill="currentColor"/>
  </symbol>
  <symbol id="ic_smart_bulb_dimmable" viewBox="0 0 24 24">
    <path d="M14.0001 19.9998H10.0001C9.73484 19.9998 9.48049 20.1052 9.29295 20.2927C9.10541 20.4802 9.00006 20.7346 9.00006 20.9998C9.00006 21.265 9.10541 21.5194 9.29295 21.7069C9.48049 21.8944 9.73484 21.9998 10.0001 21.9998H14.0001C14.2653 21.9998 14.5196 21.8944 14.7072 21.7069C14.8947 21.5194 15.0001 21.265 15.0001 20.9998C15.0001 20.7346 14.8947 20.4802 14.7072 20.2927C14.5196 20.1052 14.2653 19.9998 14.0001 19.9998ZM11.8801 1.9998C10.096 2.05285 8.39744 2.77586 7.12249 4.02487C5.84754 5.27388 5.08977 6.95725 5.00006 8.7398C4.9594 9.87945 5.19779 11.0118 5.69449 12.0383C6.19119 13.0648 6.93117 13.9544 7.85006 14.6298C8.21523 14.906 8.5098 15.2648 8.70969 15.6767C8.90957 16.0886 9.00907 16.542 9.00006 16.9998C9.00006 17.265 9.10541 17.5194 9.29295 17.7069C9.48049 17.8944 9.73484 17.9998 10.0001 17.9998H14.0001C14.2653 17.9998 14.5196 17.8944 14.7072 17.7069C14.8947 17.5194 15.0001 17.265 15.0001 16.9998C14.9903 16.5482 15.0875 16.1008 15.284 15.6941C15.4804 15.2873 15.7703 14.9329 16.1301 14.6598C17.3346 13.7838 18.2283 12.5465 18.6813 11.1278C19.1343 9.70899 19.123 8.1827 18.6491 6.77079C18.1751 5.35888 17.2631 4.13495 16.0458 3.27693C14.8284 2.4189 13.3691 1.97151 11.8801 1.9998ZM14.7101 11.7098L12.7101 13.7098C12.6166 13.8025 12.5058 13.8758 12.384 13.9256C12.2621 13.9753 12.1317 14.0006 12.0001 13.9998C11.8689 14.0032 11.7387 13.9758 11.6201 13.9198C11.4374 13.8448 11.2811 13.7174 11.1708 13.5537C11.0604 13.3899 11.001 13.1972 11.0001 12.9998V8.4098L10.7101 8.7098C10.5218 8.8981 10.2664 9.00389 10.0001 9.00389C9.73376 9.00389 9.47836 8.8981 9.29006 8.7098C9.10175 8.52149 8.99597 8.2661 8.99597 7.9998C8.99597 7.7335 9.10175 7.4781 9.29006 7.2898L11.2901 5.2898C11.4307 5.15104 11.6093 5.05704 11.8032 5.01967C11.9972 4.9823 12.1979 5.00322 12.3801 5.0798C12.5627 5.15482 12.719 5.28222 12.8293 5.44594C12.9397 5.60966 12.9991 5.80237 13.0001 5.9998V10.5898L13.2901 10.2898C13.4784 10.1015 13.7338 9.99571 14.0001 9.99571C14.2664 9.99571 14.5218 10.1015 14.7101 10.2898C14.8984 10.4781 15.0041 10.7335 15.0041 10.9998C15.0041 11.2661 14.8984 11.5215 14.7101 11.7098Z" fill="currentColor"/>
  </symbol>
  <symbol id="ic_smart_bulb_rgb" viewBox="0 0 24 24">
    <path d="M14.0001 19.9998H10.0001C9.73484 19.9998 9.48049 20.1052 9.29295 20.2927C9.10541 20.4802 9.00006 20.7346 9.00006 20.9998C9.00006 21.265 9.10541 21.5194 9.29295 21.7069C9.48049 21.8944 9.73484 21.9998 10.0001 21.9998H14.0001C14.2653 21.9998 14.5196 21.8944 14.7072 21.7069C14.8947 21.5194 15.0001 21.265 15.0001 20.9998C15.0001 20.7346 14.8947 20.4802 14.7072 20.2927C14.5196 20.1052 14.2653 19.9998 14.0001 19.9998ZM11.8801 1.9998C10.096 2.05285 8.39744 2.77586 7.12249 4.02487C5.84754 5.27388 5.08977 6.95725 5.00006 8.7398C4.9594 9.87945 5.19779 11.0118 5.69449 12.0383C6.19119 13.0648 6.93117 13.9544 7.85006 14.6298C8.21523 14.906 8.5098 15.2648 8.70969 15.6767C8.90957 16.0886 9.00907 16.542 9.00006 16.9998C9.00006 17.265 9.10541 17.5194 9.29295 17.7069C9.48049 17.8944 9.73484 17.9998 10.0001 17.9998H14.0001C14.2653 17.9998 14.5196 17.8944 14.7072 17.7069C14.8947 17.5194 15.0001 17.265 15.0001 16.9998C14.9903 16.5482 15.0875 16.1008 15.284 15.6941C15.4804 15.2873 15.7703 14.9329 16.1301 14.6598C17.3346 13.7838 18.2283 12.5465 18.6813 11.1278C19.1343 9.70899 19.123 8.1827 18.6491 6.77079C18.1751 5.35888 17.2631 4.13495 16.0458 3.27693C14.8284 2.4189 13.3691 1.97151 11.8801 1.9998ZM10.0001 10.9998C9.80228 10.9998 9.60894 10.9411 9.44449 10.8313C9.28004 10.7214 9.15186 10.5652 9.07618 10.3825C9.00049 10.1998 8.98069 9.99869 9.01927 9.80471C9.05786 9.61073 9.1531 9.43254 9.29295 9.29269C9.4328 9.15284 9.61099 9.0576 9.80497 9.01901C9.99895 8.98043 10.2 9.00023 10.3827 9.07592C10.5655 9.15161 10.7216 9.27978 10.8315 9.44423C10.9414 9.60868 11.0001 9.80202 11.0001 9.9998C11.0001 10.265 10.8947 10.5194 10.7072 10.7069C10.5196 10.8944 10.2653 10.9998 10.0001 10.9998ZM12.0001 7.9998C11.8023 7.9998 11.6089 7.94115 11.4445 7.83127C11.28 7.72139 11.1519 7.56521 11.0762 7.38248C11.0005 7.19976 10.9807 6.99869 11.0193 6.80471C11.0579 6.61073 11.1531 6.43254 11.293 6.29269C11.4328 6.15284 11.611 6.0576 11.805 6.01901C11.9989 5.98043 12.2 6.00023 12.3827 6.07592C12.5655 6.15161 12.7216 6.27978 12.8315 6.44423C12.9414 6.60868 13.0001 6.80202 13.0001 6.9998C13.0001 7.26501 12.8947 7.51937 12.7072 7.7069C12.5196 7.89444 12.2653 7.9998 12.0001 7.9998ZM14.0001 10.9998C13.8023 10.9998 13.6089 10.9411 13.4445 10.8313C13.28 10.7214 13.1519 10.5652 13.0762 10.3825C13.0005 10.1998 12.9807 9.99869 13.0193 9.80471C13.0579 9.61073 13.1531 9.43254 13.2929 9.29269C13.4328 9.15284 13.611 9.0576 13.805 9.01901C13.9989 8.98043 14.2 9.00023 14.3827 9.07592C14.5655 9.15161 14.7216 9.27978 14.8315 9.44423C14.9414 9.60868 15.0001 9.80202 15.0001 9.9998C15.0001 10.265 14.8947 10.5194 14.7072 10.7069C14.5196 10.8944 14.2653 10.9998 14.0001 10.9998Z" fill="currentColor"/>
  </symbol>
  <symbol id="ic_smart_cleaner" viewBox="0 0 24 24">
    <path d="M12.0001 4.00008C13.7767 3.99787 15.5025 4.5931 16.9001 5.69008L18.3201 4.26008C16.5354 2.80463 14.303 2.00977 12.0001 2.00977C9.69715 2.00977 7.46478 2.80463 5.68008 4.26008L7.10008 5.69008C8.49763 4.5931 10.2234 3.99787 12.0001 4.00008ZM12.0001 6.00008C10.8134 6.00008 9.65336 6.35198 8.66666 7.01126C7.67997 7.67055 6.91093 8.60763 6.4568 9.70398C6.00268 10.8003 5.88386 12.0067 6.11537 13.1706C6.34688 14.3345 6.91833 15.4036 7.75744 16.2427C8.59656 17.0818 9.66565 17.6533 10.8295 17.8848C11.9934 18.1163 13.1998 17.9975 14.2962 17.5434C15.3925 17.0892 16.3296 16.3202 16.9889 15.3335C17.6482 14.3468 18.0001 13.1868 18.0001 12.0001C18.0001 10.4088 17.3679 8.88266 16.2427 7.75744C15.1175 6.63222 13.5914 6.00008 12.0001 6.00008ZM13.0001 11.0001C13.0001 11.2653 12.8947 11.5197 12.7072 11.7072C12.5197 11.8947 12.2653 12.0001 12.0001 12.0001C11.7349 12.0001 11.4805 11.8947 11.293 11.7072C11.1054 11.5197 11.0001 11.2653 11.0001 11.0001V9.00008C11.0001 8.73487 11.1054 8.48051 11.293 8.29298C11.4805 8.10544 11.7349 8.00008 12.0001 8.00008C12.2653 8.00008 12.5197 8.10544 12.7072 8.29298C12.8947 8.48051 13.0001 8.73487 13.0001 9.00008V11.0001ZM4.00008 12.0001C3.99787 10.2234 4.5931 8.49763 5.69008 7.10008L4.26008 5.68008C2.80463 7.46478 2.00977 9.69715 2.00977 12.0001C2.00977 14.303 2.80463 16.5354 4.26008 18.3201L5.69008 16.9001C4.5931 15.5025 3.99787 13.7767 4.00008 12.0001ZM19.7401 5.68008L18.3101 7.10008C19.4049 8.4988 19.9997 10.2239 19.9997 12.0001C19.9997 13.7763 19.4049 15.5014 18.3101 16.9001L19.7401 18.3201C21.1955 16.5354 21.9904 14.303 21.9904 12.0001C21.9904 9.69715 21.1955 7.46478 19.7401 5.68008ZM12.0001 20.0001C10.2234 20.0023 8.49763 19.4071 7.10008 18.3101L5.68008 19.7401C7.46478 21.1955 9.69715 21.9904 12.0001 21.9904C14.303 21.9904 16.5354 21.1955 18.3201 19.7401L16.9001 18.3101C15.5025 19.4071 13.7767 20.0023 12.0001 20.0001Z" fill="currentColor"/>
  </symbol>
  <symbol id="ic_smart_doorlock" viewBox="0 0 24 24">
    <path d="M19 8H15V6C15 5.20435 14.6839 4.44129 14.1213 3.87868C13.5587 3.31607 12.7956 3 12 3H6C5.20435 3 4.44129 3.31607 3.87868 3.87868C3.31607 4.44129 3 5.20435 3 6V18C3 18.7956 3.31607 19.5587 3.87868 20.1213C4.44129 20.6839 5.20435 21 6 21H12C12.7956 21 13.5587 20.6839 14.1213 20.1213C14.6839 19.5587 15 18.7956 15 18V12H19C19.5304 12 20.0391 11.7893 20.4142 11.4142C20.7893 11.0391 21 10.5304 21 10C21 9.46957 20.7893 8.96086 20.4142 8.58579C20.0391 8.21071 19.5304 8 19 8ZM9 12H12.44C11.9997 12.7626 11.3201 13.3586 10.5066 13.6955C9.69312 14.0325 8.79116 14.0916 7.94062 13.8637C7.09009 13.6358 6.33852 13.1336 5.80248 12.435C5.26645 11.7365 4.9759 10.8805 4.9759 10C4.9759 9.11946 5.26645 8.26353 5.80248 7.56495C6.33852 6.86638 7.09009 6.3642 7.94062 6.1363C8.79116 5.9084 9.69312 5.96751 10.5066 6.30448C11.3201 6.64145 11.9997 7.23743 12.44 8H9C8.46957 8 7.96086 8.21071 7.58579 8.58579C7.21071 8.96086 7 9.46957 7 10C7 10.5304 7.21071 11.0391 7.58579 11.4142C7.96086 11.7893 8.46957 12 9 12Z" fill="currentColor"/>
  </symbol>
  <symbol id="ic_smart_fridge" viewBox="0 0 24 24">
    <path d="M5 19C5 19.7956 5.31607 20.5587 5.87868 21.1213C6.44129 21.6839 7.20435 22 8 22H16C16.7956 22 17.5587 21.6839 18.1213 21.1213C18.6839 20.5587 19 19.7956 19 19V12H5V19ZM7 15C7 14.7348 7.10536 14.4804 7.29289 14.2929C7.48043 14.1054 7.73478 14 8 14C8.26522 14 8.51957 14.1054 8.70711 14.2929C8.89464 14.4804 9 14.7348 9 15V19C9 19.2652 8.89464 19.5196 8.70711 19.7071C8.51957 19.8946 8.26522 20 8 20C7.73478 20 7.48043 19.8946 7.29289 19.7071C7.10536 19.5196 7 19.2652 7 19V15ZM16 2H8C7.20435 2 6.44129 2.31607 5.87868 2.87868C5.31607 3.44129 5 4.20435 5 5V10H19V5C19 4.20435 18.6839 3.44129 18.1213 2.87868C17.5587 2.31607 16.7956 2 16 2ZM9 7C9 7.26522 8.89464 7.51957 8.70711 7.70711C8.51957 7.89464 8.26522 8 8 8C7.73478 8 7.48043 7.89464 7.29289 7.70711C7.10536 7.51957 7 7.26522 7 7V5C7 4.73478 7.10536 4.48043 7.29289 4.29289C7.48043 4.10536 7.73478 4 8 4C8.26522 4 8.51957 4.10536 8.70711 4.29289C8.89464 4.48043 9 4.73478 9 5V7Z" fill="currentColor"/>
  </symbol>
  <symbol id="ic_smart_hoover" viewBox="0 0 24 24">
    <path d="M11.9998 3.99979C13.9471 4.00155 15.8269 4.71351 17.2868 6.00218C18.7466 7.29086 19.6864 9.06777 19.9298 10.9998H21.9298C21.6822 8.53293 20.527 6.24601 18.6885 4.58276C16.8499 2.91951 14.459 1.99854 11.9798 1.99854C9.50053 1.99854 7.10967 2.91951 5.27112 4.58276C3.43256 6.24601 2.2774 8.53293 2.02979 10.9998H4.02979C4.27404 9.06092 5.21953 7.27851 6.68781 5.98893C8.15609 4.69935 10.0456 3.99179 11.9998 3.99979ZM17.9998 12.2098C18.0196 10.7275 17.5033 9.28795 16.546 8.15609C15.5887 7.02423 14.2548 6.27623 12.7898 6.04979C12.5281 6.01341 12.264 5.9967 11.9998 5.99979C11.7368 5.9801 11.4728 5.9801 11.2098 5.99979C9.7361 6.22736 8.3953 6.9826 7.43689 8.12496C6.47849 9.26732 5.96777 10.719 5.99979 12.2098C5.99979 12.4193 5.91655 12.6202 5.7684 12.7684C5.62025 12.9166 5.41931 12.9998 5.20979 12.9998H2.04979C2.22856 15.5233 3.35715 17.8853 5.20814 19.6098C7.05913 21.3343 9.49495 22.2931 12.0248 22.2931C14.5546 22.2931 16.9904 21.3343 18.8414 19.6098C20.6924 17.8853 21.821 15.5233 21.9998 12.9998H18.7898C18.5803 12.9998 18.3793 12.9166 18.2312 12.7684C18.083 12.6202 17.9998 12.4193 17.9998 12.2098ZM7.99979 18.9998C7.802 18.9998 7.60866 18.9411 7.44421 18.8313C7.27977 18.7214 7.15159 18.5652 7.07591 18.3825C7.00022 18.1997 6.98041 17.9987 7.019 17.8047C7.05759 17.6107 7.15283 17.4325 7.29268 17.2927C7.43253 17.1528 7.61071 17.0576 7.8047 17.019C7.99868 16.9804 8.19974 17.0002 8.38247 17.0759C8.5652 17.1516 8.72137 17.2798 8.83125 17.4442C8.94114 17.6087 8.99979 17.802 8.99979 17.9998C8.99979 18.265 8.89443 18.5194 8.70689 18.7069C8.51936 18.8944 8.265 18.9998 7.99979 18.9998ZM11.9998 19.9998C11.802 19.9998 11.6087 19.9411 11.4442 19.8313C11.2798 19.7214 11.1516 19.5652 11.0759 19.3825C11.0002 19.1997 10.9804 18.9987 11.019 18.8047C11.0576 18.6107 11.1528 18.4325 11.2927 18.2927C11.4325 18.1528 11.6107 18.0576 11.8047 18.019C11.9987 17.9804 12.1997 18.0002 12.3825 18.0759C12.5652 18.1516 12.7214 18.2798 12.8313 18.4442C12.9411 18.6087 12.9998 18.802 12.9998 18.9998C12.9998 19.265 12.8944 19.5194 12.7069 19.7069C12.5194 19.8944 12.265 19.9998 11.9998 19.9998ZM13.9998 12.9998H9.99979C9.73457 12.9998 9.48022 12.8944 9.29268 12.7069C9.10514 12.5194 8.99979 12.265 8.99979 11.9998C8.99979 11.7346 9.10514 11.4802 9.29268 11.2927C9.48022 11.1051 9.73457 10.9998 9.99979 10.9998H13.9998C14.265 10.9998 14.5194 11.1051 14.7069 11.2927C14.8944 11.4802 14.9998 11.7346 14.9998 11.9998C14.9998 12.265 14.8944 12.5194 14.7069 12.7069C14.5194 12.8944 14.265 12.9998 13.9998 12.9998ZM15.9998 18.9998C15.802 18.9998 15.6087 18.9411 15.4442 18.8313C15.2798 18.7214 15.1516 18.5652 15.0759 18.3825C15.0002 18.1997 14.9804 17.9987 15.019 17.8047C15.0576 17.6107 15.1528 17.4325 15.2927 17.2927C15.4325 17.1528 15.6107 17.0576 15.8047 17.019C15.9987 16.9804 16.1997 17.0002 16.3825 17.0759C16.5652 17.1516 16.7214 17.2798 16.8313 17.4442C16.9411 17.6087 16.9998 17.802 16.9998 17.9998C16.9998 18.265 16.8944 18.5194 16.7069 18.7069C16.5194 18.8944 16.265 18.9998 15.9998 18.9998Z" fill="currentColor"/>
  </symbol>
  <symbol id="ic_smart_outlet" viewBox="0 0 24 24">
    <path d="M18 3H6C5.20435 3 4.44129 3.31607 3.87868 3.87868C3.31607 4.44129 3 5.20435 3 6V18C3 18.7956 3.31607 19.5587 3.87868 20.1213C4.44129 20.6839 5.20435 21 6 21H18C18.7956 21 19.5587 20.6839 20.1213 20.1213C20.6839 19.5587 21 18.7956 21 18V6C21 5.20435 20.6839 4.44129 20.1213 3.87868C19.5587 3.31607 18.7956 3 18 3ZM9 12C9 12.2652 8.89464 12.5196 8.70711 12.7071C8.51957 12.8946 8.26522 13 8 13C7.73478 13 7.48043 12.8946 7.29289 12.7071C7.10536 12.5196 7 12.2652 7 12V8C7 7.73478 7.10536 7.48043 7.29289 7.29289C7.48043 7.10536 7.73478 7 8 7C8.26522 7 8.51957 7.10536 8.70711 7.29289C8.89464 7.48043 9 7.73478 9 8V12ZM12 18C11.7033 18 11.4133 17.912 11.1666 17.7472C10.92 17.5824 10.7277 17.3481 10.6142 17.074C10.5006 16.7999 10.4709 16.4983 10.5288 16.2074C10.5867 15.9164 10.7296 15.6491 10.9393 15.4393C11.1491 15.2296 11.4164 15.0867 11.7074 15.0288C11.9983 14.9709 12.2999 15.0006 12.574 15.1142C12.8481 15.2277 13.0824 15.42 13.2472 15.6666C13.412 15.9133 13.5 16.2033 13.5 16.5C13.5 16.8978 13.342 17.2794 13.0607 17.5607C12.7794 17.842 12.3978 18 12 18ZM17 12C17 12.2652 16.8946 12.5196 16.7071 12.7071C16.5196 12.8946 16.2652 13 16 13C15.7348 13 15.4804 12.8946 15.2929 12.7071C15.1054 12.5196 15 12.2652 15 12V8C15 7.73478 15.1054 7.48043 15.2929 7.29289C15.4804 7.10536 15.7348 7 16 7C16.2652 7 16.5196 7.10536 16.7071 7.29289C16.8946 7.48043 17 7.73478 17 8V12Z" fill="currentColor"/>
  </symbol>
  <symbol id="ic_smart_plug" viewBox="0 0 24 24">
    <path d="M18 6H17V3C17 2.73478 16.8946 2.48043 16.7071 2.29289C16.5196 2.10536 16.2652 2 16 2C15.7348 2 15.4804 2.10536 15.2929 2.29289C15.1054 2.48043 15 2.73478 15 3V6H9V3C9 2.73478 8.89464 2.48043 8.70711 2.29289C8.51957 2.10536 8.26522 2 8 2C7.73478 2 7.48043 2.10536 7.29289 2.29289C7.10536 2.48043 7 2.73478 7 3V6H6C5.46957 6 4.96086 6.21071 4.58579 6.58579C4.21071 6.96086 4 7.46957 4 8V18C4 19.0609 4.42143 20.0783 5.17157 20.8284C5.92172 21.5786 6.93913 22 8 22H16C17.0609 22 18.0783 21.5786 18.8284 20.8284C19.5786 20.0783 20 19.0609 20 18V8C20 7.46957 19.7893 6.96086 19.4142 6.58579C19.0391 6.21071 18.5304 6 18 6ZM12 17C11.4067 17 10.8266 16.8241 10.3333 16.4944C9.83994 16.1648 9.45542 15.6962 9.22836 15.1481C9.0013 14.5999 8.94189 13.9967 9.05764 13.4147C9.1734 12.8328 9.45912 12.2982 9.87868 11.8787C10.2982 11.4591 10.8328 11.1734 11.4147 11.0576C11.9967 10.9419 12.5999 11.0013 13.1481 11.2284C13.6962 11.4554 14.1648 11.8399 14.4944 12.3333C14.8241 12.8266 15 13.4067 15 14C15 14.7956 14.6839 15.5587 14.1213 16.1213C13.5587 16.6839 12.7956 17 12 17Z" fill="currentColor"/>
  </symbol>
  <symbol id="ic_smart_switch_plug" viewBox="0 0 24 24">
    <path d="M16 6H13V18H16C17.5913 18 19.1174 17.3679 20.2426 16.2426C21.3679 15.1174 22 13.5913 22 12C22 10.4087 21.3679 8.88258 20.2426 7.75736C19.1174 6.63214 17.5913 6 16 6ZM18 13C18 13.2652 17.8946 13.5196 17.7071 13.7071C17.5196 13.8946 17.2652 14 17 14C16.7348 14 16.4804 13.8946 16.2929 13.7071C16.1054 13.5196 16 13.2652 16 13V11C16 10.7348 16.1054 10.4804 16.2929 10.2929C16.4804 10.1054 16.7348 10 17 10C17.2652 10 17.5196 10.1054 17.7071 10.2929C17.8946 10.4804 18 10.7348 18 11V13ZM2 12C2 13.5913 2.63214 15.1174 3.75736 16.2426C4.88258 17.3679 6.4087 18 8 18H11V6H8C6.4087 6 4.88258 6.63214 3.75736 7.75736C2.63214 8.88258 2 10.4087 2 12ZM8.5 12C8.5 12.2967 8.41203 12.5867 8.2472 12.8334C8.08238 13.08 7.84811 13.2723 7.57403 13.3858C7.29994 13.4994 6.99834 13.5291 6.70736 13.4712C6.41639 13.4133 6.14912 13.2704 5.93934 13.0607C5.72956 12.8509 5.5867 12.5836 5.52882 12.2926C5.47094 12.0017 5.50065 11.7001 5.61418 11.426C5.72771 11.1519 5.91997 10.9176 6.16664 10.7528C6.41332 10.588 6.70333 10.5 7 10.5C7.39782 10.5 7.77936 10.658 8.06066 10.9393C8.34196 11.2206 8.5 11.6022 8.5 12Z" fill="currentColor"/>
  </symbol>
  <symbol id="ic_smart_watch" viewBox="0 0 24 24">
    <path d="M15 19H9C8.82954 19.0005 8.66203 19.0446 8.5134 19.1281C8.36477 19.2115 8.23994 19.3316 8.15076 19.4769C8.06159 19.6222 8.01104 19.7878 8.0039 19.9581C7.99677 20.1285 8.03329 20.2978 8.11 20.45L8.61 21.45C8.6931 21.6149 8.82024 21.7536 8.97733 21.8507C9.13443 21.9478 9.31533 21.9994 9.5 22H14.5C14.6847 21.9994 14.8656 21.9478 15.0227 21.8507C15.1798 21.7536 15.3069 21.6149 15.39 21.45L15.89 20.45C15.9667 20.2978 16.0032 20.1285 15.9961 19.9581C15.989 19.7878 15.9384 19.6222 15.8492 19.4769C15.7601 19.3316 15.6352 19.2115 15.4866 19.1281C15.338 19.0446 15.1705 19.0005 15 19ZM9 5H15C15.1705 4.99948 15.338 4.9554 15.4866 4.87194C15.6352 4.78847 15.7601 4.6684 15.8492 4.52312C15.9384 4.37784 15.989 4.21217 15.9961 4.04186C16.0032 3.87154 15.9667 3.70223 15.89 3.55L15.39 2.55C15.3069 2.38509 15.1798 2.2464 15.0227 2.14932C14.8656 2.05224 14.6847 2.00056 14.5 2H9.5C9.31533 2.00056 9.13443 2.05224 8.97733 2.14932C8.82024 2.2464 8.6931 2.38509 8.61 2.55L8.11 3.55C8.03329 3.70223 7.99677 3.87154 8.0039 4.04186C8.01104 4.21217 8.06159 4.37784 8.15076 4.52312C8.23994 4.6684 8.36477 4.78847 8.5134 4.87194C8.66203 4.9554 8.82954 4.99948 9 5ZM15 6H9C8.20435 6 7.44129 6.31607 6.87868 6.87868C6.31607 7.44129 6 8.20435 6 9V15C6 15.7956 6.31607 16.5587 6.87868 17.1213C7.44129 17.6839 8.20435 18 9 18H15C15.7956 18 16.5587 17.6839 17.1213 17.1213C17.6839 16.5587 18 15.7956 18 15V9C18 8.20435 17.6839 7.44129 17.1213 6.87868C16.5587 6.31607 15.7956 6 15 6ZM13.5 12.5C13.5 12.7652 13.3946 13.0196 13.2071 13.2071C13.0196 13.3946 12.7652 13.5 12.5 13.5H10.5C10.2348 13.5 9.98043 13.3946 9.79289 13.2071C9.60536 13.0196 9.5 12.7652 9.5 12.5C9.5 12.2348 9.60536 11.9804 9.79289 11.7929C9.98043 11.6054 10.2348 11.5 10.5 11.5H11.5V9.5C11.5 9.23478 11.6054 8.98043 11.7929 8.79289C11.9804 8.60536 12.2348 8.5 12.5 8.5C12.7652 8.5 13.0196 8.60536 13.2071 8.79289C13.3946 8.98043 13.5 9.23478 13.5 9.5V12.5Z" fill="currentColor"/>
  </symbol>
</svg>
