<!-- JioGames DLS — smiley icons (7 icons) -->
<svg xmlns="http://www.w3.org/2000/svg" style="display:none">
  <symbol id="ic_smiley_delighted" viewBox="0 0 24 24">
    <path d="M12 2C10.0222 2 8.08879 2.58649 6.4443 3.6853C4.79981 4.78412 3.51809 6.3459 2.76121 8.17317C2.00433 10.0004 1.8063 12.0111 2.19215 13.9509C2.578 15.8907 3.53041 17.6725 4.92894 19.0711C6.32746 20.4696 8.10929 21.422 10.0491 21.8079C11.9889 22.1937 13.9996 21.9957 15.8268 21.2388C17.6541 20.4819 19.2159 19.2002 20.3147 17.5557C21.4135 15.9112 22 13.9778 22 12C22 10.6868 21.7413 9.38642 21.2388 8.17317C20.7363 6.95991 19.9997 5.85752 19.0711 4.92893C18.1425 4.00035 17.0401 3.26375 15.8268 2.7612C14.6136 2.25866 13.3132 2 12 2ZM15.5 8C15.7967 8 16.0867 8.08797 16.3334 8.2528C16.58 8.41762 16.7723 8.65189 16.8858 8.92597C16.9994 9.20006 17.0291 9.50166 16.9712 9.79264C16.9133 10.0836 16.7704 10.3509 16.5607 10.5607C16.3509 10.7704 16.0836 10.9133 15.7926 10.9712C15.5017 11.0291 15.2001 10.9994 14.926 10.8858C14.6519 10.7723 14.4176 10.58 14.2528 10.3334C14.088 10.0867 14 9.79667 14 9.5C14 9.10218 14.158 8.72064 14.4393 8.43934C14.7206 8.15804 15.1022 8 15.5 8ZM8.5 8C8.79668 8 9.08669 8.08797 9.33336 8.2528C9.58003 8.41762 9.77229 8.65189 9.88582 8.92597C9.99936 9.20006 10.0291 9.50166 9.97118 9.79264C9.9133 10.0836 9.77044 10.3509 9.56066 10.5607C9.35089 10.7704 9.08361 10.9133 8.79264 10.9712C8.50167 11.0291 8.20007 10.9994 7.92598 10.8858C7.65189 10.7723 7.41762 10.58 7.2528 10.3334C7.08798 10.0867 7 9.79667 7 9.5C7 9.10218 7.15804 8.72064 7.43934 8.43934C7.72065 8.15804 8.10218 8 8.5 8ZM17.5 14.4C17.0333 15.4705 16.2643 16.3816 15.2873 17.0214C14.3103 17.6613 13.1679 18.0021 12 18.0021C10.8322 18.0021 9.68969 17.6613 8.71272 17.0214C7.73575 16.3816 6.96674 15.4705 6.5 14.4C6.43347 14.2475 6.40601 14.0809 6.42012 13.9152C6.43423 13.7494 6.48946 13.5898 6.58081 13.4508C6.67216 13.3118 6.79674 13.1978 6.94328 13.1191C7.08981 13.0403 7.25367 12.9994 7.42 13H16.58C16.7455 13.0011 16.9081 13.0432 17.0533 13.1226C17.1985 13.202 17.3217 13.3162 17.4119 13.455C17.5021 13.5937 17.5565 13.7527 17.5701 13.9177C17.5837 14.0826 17.5562 14.2483 17.49 14.4H17.5Z" fill="currentColor"/>
  </symbol>
  <symbol id="ic_smiley_happy" viewBox="0 0 24 24">
    <path d="M12 2C10.0222 2 8.08879 2.58649 6.4443 3.6853C4.79981 4.78412 3.51809 6.3459 2.76121 8.17317C2.00433 10.0004 1.8063 12.0111 2.19215 13.9509C2.578 15.8907 3.53041 17.6725 4.92894 19.0711C6.32746 20.4696 8.10929 21.422 10.0491 21.8079C11.9889 22.1937 13.9996 21.9957 15.8268 21.2388C17.6541 20.4819 19.2159 19.2002 20.3147 17.5557C21.4135 15.9112 22 13.9778 22 12C22 10.6868 21.7413 9.38642 21.2388 8.17317C20.7363 6.95991 19.9997 5.85752 19.0711 4.92893C18.1425 4.00035 17.0401 3.26375 15.8268 2.7612C14.6136 2.25866 13.3132 2 12 2ZM15.5 8C15.7967 8 16.0867 8.08797 16.3334 8.2528C16.58 8.41762 16.7723 8.65189 16.8858 8.92597C16.9994 9.20006 17.0291 9.50166 16.9712 9.79264C16.9133 10.0836 16.7704 10.3509 16.5607 10.5607C16.3509 10.7704 16.0836 10.9133 15.7926 10.9712C15.5017 11.0291 15.2001 10.9994 14.926 10.8858C14.6519 10.7723 14.4176 10.58 14.2528 10.3334C14.088 10.0867 14 9.79667 14 9.5C14 9.10218 14.158 8.72064 14.4393 8.43934C14.7206 8.15804 15.1022 8 15.5 8ZM8.5 8C8.79668 8 9.08669 8.08797 9.33336 8.2528C9.58003 8.41762 9.77229 8.65189 9.88582 8.92597C9.99936 9.20006 10.0291 9.50166 9.97118 9.79264C9.9133 10.0836 9.77044 10.3509 9.56066 10.5607C9.35089 10.7704 9.08361 10.9133 8.79264 10.9712C8.50167 11.0291 8.20007 10.9994 7.92598 10.8858C7.65189 10.7723 7.41762 10.58 7.2528 10.3334C7.08798 10.0867 7 9.79667 7 9.5C7 9.10218 7.15804 8.72064 7.43934 8.43934C7.72065 8.15804 8.10218 8 8.5 8ZM17.08 15.16C16.8575 15.521 16.596 15.8563 16.3 16.16C16.2835 16.1922 16.2634 16.2224 16.24 16.25C16.0231 16.4654 15.789 16.6627 15.54 16.84C14.9551 17.2736 14.2935 17.5925 13.59 17.78H13.43C13.2557 17.8272 13.0787 17.864 12.9 17.89H12.71C12.48 17.89 12.25 17.89 12.01 17.89C11.77 17.89 11.54 17.89 11.31 17.89H11.12C10.9413 17.864 10.7643 17.8272 10.59 17.78H10.43C9.72652 17.5925 9.06488 17.2736 8.48 16.84C8.23099 16.6627 7.99687 16.4654 7.78 16.25C7.75661 16.2224 7.73647 16.1922 7.72 16.16C7.42405 15.8563 7.16247 15.521 6.94 15.16C6.84582 15.0513 6.77619 14.9236 6.73586 14.7855C6.69553 14.6475 6.68546 14.5023 6.70633 14.36C6.7272 14.2177 6.77851 14.0816 6.85678 13.9609C6.93505 13.8403 7.03842 13.7379 7.15985 13.6608C7.28128 13.5838 7.4179 13.5338 7.56041 13.5143C7.70291 13.4949 7.84793 13.5064 7.98558 13.5481C8.12323 13.5897 8.25027 13.6606 8.35803 13.7559C8.46579 13.8511 8.55174 13.9685 8.61 14.1C8.79308 14.3923 9.01139 14.661 9.26 14.9C9.40853 15.0405 9.56915 15.1677 9.74 15.28L9.84 15.35C10.4903 15.7477 11.2377 15.9581 12 15.9581C12.7623 15.9581 13.5097 15.7477 14.16 15.35L14.26 15.28C14.4309 15.1677 14.5915 15.0405 14.74 14.9C14.9886 14.661 15.2069 14.3923 15.39 14.1C15.4545 13.9788 15.5433 13.8721 15.6508 13.7867C15.7583 13.7013 15.8823 13.6389 16.015 13.6035C16.1476 13.5681 16.2862 13.5604 16.422 13.5808C16.5578 13.6013 16.6879 13.6495 16.8042 13.7225C16.9205 13.7955 17.0206 13.8916 17.0981 14.0049C17.1757 14.1183 17.2291 14.2464 17.2549 14.3812C17.2808 14.5161 17.2786 14.6548 17.2485 14.7888C17.2184 14.9228 17.1611 15.0492 17.08 15.16Z" fill="currentColor"/>
  </symbol>
  <symbol id="ic_smiley_neutral" viewBox="0 0 24 24">
    <path d="M12 2C10.0222 2 8.08879 2.58649 6.4443 3.6853C4.79981 4.78412 3.51809 6.3459 2.76121 8.17317C2.00433 10.0004 1.8063 12.0111 2.19215 13.9509C2.578 15.8907 3.53041 17.6725 4.92894 19.0711C6.32746 20.4696 8.10929 21.422 10.0491 21.8079C11.9889 22.1937 13.9996 21.9957 15.8268 21.2388C17.6541 20.4819 19.2159 19.2002 20.3147 17.5557C21.4135 15.9112 22 13.9778 22 12C22 10.6868 21.7413 9.38642 21.2388 8.17317C20.7363 6.95991 19.9997 5.85752 19.0711 4.92893C18.1425 4.00035 17.0401 3.26375 15.8268 2.7612C14.6136 2.25866 13.3132 2 12 2ZM7 9.5C7 9.20333 7.08798 8.91332 7.2528 8.66665C7.41762 8.41997 7.65189 8.22771 7.92598 8.11418C8.20007 8.00065 8.50167 7.97094 8.79264 8.02882C9.08361 8.0867 9.35089 8.22956 9.56066 8.43934C9.77044 8.64912 9.9133 8.91639 9.97118 9.20736C10.0291 9.49834 9.99936 9.79994 9.88582 10.074C9.77229 10.3481 9.58003 10.5824 9.33336 10.7472C9.08669 10.912 8.79668 11 8.5 11C8.10218 11 7.72065 10.842 7.43934 10.5607C7.15804 10.2794 7 9.89782 7 9.5ZM14 17H10C9.73479 17 9.48043 16.8946 9.2929 16.7071C9.10536 16.5196 9 16.2652 9 16C9 15.7348 9.10536 15.4804 9.2929 15.2929C9.48043 15.1054 9.73479 15 10 15H14C14.2652 15 14.5196 15.1054 14.7071 15.2929C14.8946 15.4804 15 15.7348 15 16C15 16.2652 14.8946 16.5196 14.7071 16.7071C14.5196 16.8946 14.2652 17 14 17ZM15.5 11C15.2033 11 14.9133 10.912 14.6666 10.7472C14.42 10.5824 14.2277 10.3481 14.1142 10.074C14.0007 9.79994 13.9709 9.49834 14.0288 9.20736C14.0867 8.91639 14.2296 8.64912 14.4393 8.43934C14.6491 8.22956 14.9164 8.0867 15.2074 8.02882C15.4983 7.97094 15.7999 8.00065 16.074 8.11418C16.3481 8.22771 16.5824 8.41997 16.7472 8.66665C16.912 8.91332 17 9.20333 17 9.5C17 9.89782 16.842 10.2794 16.5607 10.5607C16.2794 10.842 15.8978 11 15.5 11Z" fill="currentColor"/>
  </symbol>
  <symbol id="ic_smiley_outraged" viewBox="0 0 24 24">
    <path d="M12 2C10.0222 2 8.08879 2.58649 6.4443 3.6853C4.79981 4.78412 3.51809 6.3459 2.76121 8.17317C2.00433 10.0004 1.8063 12.0111 2.19215 13.9509C2.578 15.8907 3.53041 17.6725 4.92894 19.0711C6.32746 20.4696 8.10929 21.422 10.0491 21.8079C11.9889 22.1937 13.9996 21.9957 15.8268 21.2388C17.6541 20.4819 19.2159 19.2002 20.3147 17.5557C21.4135 15.9112 22 13.9778 22 12C22 10.6868 21.7413 9.38642 21.2388 8.17317C20.7363 6.95991 19.9997 5.85752 19.0711 4.92893C18.1425 4.00035 17.0401 3.26375 15.8268 2.7612C14.6136 2.25866 13.3132 2 12 2ZM15.5 8C15.7967 8 16.0867 8.08797 16.3334 8.2528C16.58 8.41762 16.7723 8.65189 16.8858 8.92597C16.9994 9.20006 17.0291 9.50166 16.9712 9.79264C16.9133 10.0836 16.7704 10.3509 16.5607 10.5607C16.3509 10.7704 16.0836 10.9133 15.7926 10.9712C15.5017 11.0291 15.2001 10.9994 14.926 10.8858C14.6519 10.7723 14.4176 10.58 14.2528 10.3334C14.088 10.0867 14 9.79667 14 9.5C14 9.10218 14.158 8.72064 14.4393 8.43934C14.7206 8.15804 15.1022 8 15.5 8ZM8.5 8C8.79668 8 9.08669 8.08797 9.33336 8.2528C9.58003 8.41762 9.77229 8.65189 9.88582 8.92597C9.99936 9.20006 10.0291 9.50166 9.97118 9.79264C9.9133 10.0836 9.77044 10.3509 9.56066 10.5607C9.35089 10.7704 9.08361 10.9133 8.79264 10.9712C8.50167 11.0291 8.20007 10.9994 7.92598 10.8858C7.65189 10.7723 7.41762 10.58 7.2528 10.3334C7.08798 10.0867 7 9.79667 7 9.5C7 9.10218 7.15804 8.72064 7.43934 8.43934C7.72065 8.15804 8.10218 8 8.5 8ZM6.5 16.6C6.96674 15.5295 7.73575 14.6184 8.71272 13.9786C9.68969 13.3387 10.8322 12.9979 12 12.9979C13.1679 12.9979 14.3103 13.3387 15.2873 13.9786C16.2643 14.6184 17.0333 15.5295 17.5 16.6C17.5662 16.7517 17.5937 16.9174 17.5801 17.0823C17.5665 17.2473 17.5121 17.4063 17.4219 17.545C17.3317 17.6838 17.2085 17.798 17.0633 17.8774C16.9181 17.9568 16.7555 17.9989 16.59 18H7.42C7.25451 17.9989 7.09188 17.9568 6.94668 17.8774C6.80148 17.798 6.67826 17.6838 6.58807 17.545C6.49787 17.4063 6.44353 17.2473 6.4299 17.0823C6.41628 16.9174 6.4438 16.7517 6.51 16.6H6.5Z" fill="currentColor"/>
  </symbol>
  <symbol id="ic_smiley_satisfied" viewBox="0 0 24 24">
    <path d="M12 2C10.0222 2 8.08879 2.58649 6.4443 3.6853C4.79981 4.78412 3.51809 6.3459 2.76121 8.17317C2.00433 10.0004 1.8063 12.0111 2.19215 13.9509C2.578 15.8907 3.53041 17.6725 4.92894 19.0711C6.32746 20.4696 8.10929 21.422 10.0491 21.8079C11.9889 22.1937 13.9996 21.9957 15.8268 21.2388C17.6541 20.4819 19.2159 19.2002 20.3147 17.5557C21.4135 15.9112 22 13.9778 22 12C22 10.6868 21.7413 9.38642 21.2388 8.17317C20.7363 6.95991 19.9997 5.85752 19.0711 4.92893C18.1425 4.00035 17.0401 3.26375 15.8268 2.7612C14.6136 2.25866 13.3132 2 12 2ZM7 9.5C7 9.20333 7.08798 8.91332 7.2528 8.66665C7.41762 8.41997 7.65189 8.22771 7.92598 8.11418C8.20007 8.00065 8.50167 7.97094 8.79264 8.02882C9.08361 8.0867 9.35089 8.22956 9.56066 8.43934C9.77044 8.64912 9.9133 8.91639 9.97118 9.20736C10.0291 9.49834 9.99936 9.79994 9.88582 10.074C9.77229 10.3481 9.58003 10.5824 9.33336 10.7472C9.08669 10.912 8.79668 11 8.5 11C8.10218 11 7.72065 10.842 7.43934 10.5607C7.15804 10.2794 7 9.89782 7 9.5ZM16.24 16.24C15.115 17.3636 13.59 17.9947 12 17.9947C10.41 17.9947 8.88501 17.3636 7.76 16.24C7.59618 16.0487 7.51057 15.8026 7.52029 15.5509C7.53001 15.2993 7.63435 15.0605 7.81244 14.8824C7.99054 14.7043 8.22927 14.6 8.48095 14.5903C8.73263 14.5806 8.9787 14.6662 9.17 14.83C9.93261 15.5575 10.9461 15.9633 12 15.9633C13.0539 15.9633 14.0674 15.5575 14.83 14.83C15.0213 14.6662 15.2674 14.5806 15.5191 14.5903C15.7707 14.6 16.0095 14.7043 16.1876 14.8824C16.3657 15.0605 16.47 15.2993 16.4797 15.5509C16.4894 15.8026 16.4038 16.0487 16.24 16.24ZM15.5 11C15.2033 11 14.9133 10.912 14.6666 10.7472C14.42 10.5824 14.2277 10.3481 14.1142 10.074C14.0007 9.79994 13.9709 9.49834 14.0288 9.20736C14.0867 8.91639 14.2296 8.64912 14.4393 8.43934C14.6491 8.22956 14.9164 8.0867 15.2074 8.02882C15.4983 7.97094 15.7999 8.00065 16.074 8.11418C16.3481 8.22771 16.5824 8.41997 16.7472 8.66665C16.912 8.91332 17 9.20333 17 9.5C17 9.89782 16.842 10.2794 16.5607 10.5607C16.2794 10.842 15.8978 11 15.5 11Z" fill="currentColor"/>
  </symbol>
  <symbol id="ic_smiley_unhappy" viewBox="0 0 24 24">
    <path d="M12 2C10.0222 2 8.08879 2.58649 6.4443 3.6853C4.79981 4.78412 3.51809 6.3459 2.76121 8.17317C2.00433 10.0004 1.8063 12.0111 2.19215 13.9509C2.578 15.8907 3.53041 17.6725 4.92894 19.0711C6.32746 20.4696 8.10929 21.422 10.0491 21.8079C11.9889 22.1937 13.9996 21.9957 15.8268 21.2388C17.6541 20.4819 19.2159 19.2002 20.3147 17.5557C21.4135 15.9112 22 13.9778 22 12C22 10.6868 21.7413 9.38642 21.2388 8.17317C20.7363 6.95991 19.9997 5.85752 19.0711 4.92893C18.1425 4.00035 17.0401 3.26375 15.8268 2.7612C14.6136 2.25866 13.3132 2 12 2ZM15.5 8C15.7967 8 16.0867 8.08797 16.3334 8.2528C16.58 8.41762 16.7723 8.65189 16.8858 8.92597C16.9994 9.20006 17.0291 9.50166 16.9712 9.79264C16.9133 10.0836 16.7704 10.3509 16.5607 10.5607C16.3509 10.7704 16.0836 10.9133 15.7926 10.9712C15.5017 11.0291 15.2001 10.9994 14.926 10.8858C14.6519 10.7723 14.4176 10.58 14.2528 10.3334C14.088 10.0867 14 9.79667 14 9.5C14 9.10218 14.158 8.72064 14.4393 8.43934C14.7206 8.15804 15.1022 8 15.5 8ZM8.5 8C8.79668 8 9.08669 8.08797 9.33336 8.2528C9.58003 8.41762 9.77229 8.65189 9.88582 8.92597C9.99936 9.20006 10.0291 9.50166 9.97118 9.79264C9.9133 10.0836 9.77044 10.3509 9.56066 10.5607C9.35089 10.7704 9.08361 10.9133 8.79264 10.9712C8.50167 11.0291 8.20007 10.9994 7.92598 10.8858C7.65189 10.7723 7.41762 10.58 7.2528 10.3334C7.08798 10.0867 7 9.79667 7 9.5C7 9.10218 7.15804 8.72064 7.43934 8.43934C7.72065 8.15804 8.10218 8 8.5 8ZM16.76 16.85C16.6038 16.9468 16.4238 16.9987 16.24 17C16.0701 17.0003 15.9028 16.9574 15.7541 16.8751C15.6054 16.7929 15.4801 16.6741 15.39 16.53C15.0302 15.9556 14.5304 15.482 13.9374 15.1537C13.3445 14.8254 12.6778 14.6532 12 14.6532C11.3222 14.6532 10.6555 14.8254 10.0626 15.1537C9.4696 15.482 8.96977 15.9556 8.61 16.53C8.54551 16.6512 8.45674 16.7579 8.34922 16.8433C8.2417 16.9287 8.11774 16.9911 7.98506 17.0265C7.85238 17.0619 7.71383 17.0696 7.57804 17.0492C7.44225 17.0287 7.31214 16.9805 7.1958 16.9075C7.07947 16.8345 6.97941 16.7384 6.90186 16.6251C6.82431 16.5117 6.77094 16.3836 6.74506 16.2488C6.71919 16.1139 6.72137 15.9752 6.75147 15.8412C6.78156 15.7072 6.83894 15.5808 6.92 15.47C7.46016 14.6106 8.20952 13.9022 9.09798 13.4112C9.98643 12.9203 10.9849 12.6627 12 12.6627C13.0151 12.6627 14.0136 12.9203 14.902 13.4112C15.7905 13.9022 16.5399 14.6106 17.08 15.47C17.1498 15.5816 17.1969 15.7058 17.2187 15.8356C17.2404 15.9654 17.2362 16.0982 17.2065 16.2264C17.1768 16.3546 17.122 16.4757 17.0454 16.5827C16.9688 16.6897 16.8718 16.7806 16.76 16.85Z" fill="currentColor"/>
  </symbol>
  <symbol id="ic_smiley_unsatisfied" viewBox="0 0 24 24">
    <path d="M12 2C10.0222 2 8.08879 2.58649 6.4443 3.6853C4.79981 4.78412 3.51809 6.3459 2.76121 8.17317C2.00433 10.0004 1.8063 12.0111 2.19215 13.9509C2.578 15.8907 3.53041 17.6725 4.92894 19.0711C6.32746 20.4696 8.10929 21.422 10.0491 21.8079C11.9889 22.1937 13.9996 21.9957 15.8268 21.2388C17.6541 20.4819 19.2159 19.2002 20.3147 17.5557C21.4135 15.9112 22 13.9778 22 12C22 10.6868 21.7413 9.38642 21.2388 8.17317C20.7363 6.95991 19.9997 5.85752 19.0711 4.92893C18.1425 4.00035 17.0401 3.26375 15.8268 2.7612C14.6136 2.25866 13.3132 2 12 2ZM7 9.5C7 9.20333 7.08798 8.91332 7.2528 8.66665C7.41762 8.41997 7.65189 8.22771 7.92598 8.11418C8.20007 8.00065 8.50167 7.97094 8.79264 8.02882C9.08361 8.0867 9.35089 8.22956 9.56066 8.43934C9.77044 8.64912 9.9133 8.91639 9.97118 9.20736C10.0291 9.49834 9.99936 9.79994 9.88582 10.074C9.77229 10.3481 9.58003 10.5824 9.33336 10.7472C9.08669 10.912 8.79668 11 8.5 11C8.10218 11 7.72065 10.842 7.43934 10.5607C7.15804 10.2794 7 9.89782 7 9.5ZM16.24 16.71C16.0526 16.8962 15.7992 17.0008 15.535 17.0008C15.2708 17.0008 15.0174 16.8962 14.83 16.71C14.0674 15.9825 13.0539 15.5767 12 15.5767C10.9461 15.5767 9.93261 15.9825 9.17 16.71C8.98264 16.8962 8.72919 17.0008 8.465 17.0008C8.20082 17.0008 7.94737 16.8962 7.76 16.71C7.66628 16.617 7.59188 16.5064 7.54111 16.3846C7.49034 16.2627 7.46421 16.132 7.46421 16C7.46421 15.868 7.49034 15.7373 7.54111 15.6154C7.59188 15.4936 7.66628 15.383 7.76 15.29C8.88501 14.1664 10.41 13.5353 12 13.5353C13.59 13.5353 15.115 14.1664 16.24 15.29C16.3337 15.383 16.4081 15.4936 16.4589 15.6154C16.5097 15.7373 16.5358 15.868 16.5358 16C16.5358 16.132 16.5097 16.2627 16.4589 16.3846C16.4081 16.5064 16.3337 16.617 16.24 16.71ZM15.5 11C15.2033 11 14.9133 10.912 14.6666 10.7472C14.42 10.5824 14.2277 10.3481 14.1142 10.074C14.0007 9.79994 13.9709 9.49834 14.0288 9.20736C14.0867 8.91639 14.2296 8.64912 14.4393 8.43934C14.6491 8.22956 14.9164 8.0867 15.2074 8.02882C15.4983 7.97094 15.7999 8.00065 16.074 8.11418C16.3481 8.22771 16.5824 8.41997 16.7472 8.66665C16.912 8.91332 17 9.20333 17 9.5C17 9.89782 16.842 10.2794 16.5607 10.5607C16.2794 10.842 15.8978 11 15.5 11Z" fill="currentColor"/>
  </symbol>
</svg>
