<!-- JioGames DLS — sms icons (4 icons) -->
<svg xmlns="http://www.w3.org/2000/svg" style="display:none">
  <symbol id="ic_sms" viewBox="0 0 24 24">
    <path d="M15.0001 4H9.00006C7.23973 4.01356 5.54913 4.68987 4.26515 5.89418C2.98118 7.09849 2.1981 8.74235 2.07196 10.4982C1.94582 12.2541 2.48588 13.993 3.58453 15.3685C4.68318 16.7439 6.25974 17.655 8.00006 17.92V20C8.00006 20.2786 8.07763 20.5516 8.22408 20.7886C8.37053 21.0256 8.58008 21.2171 8.82924 21.3416C9.07839 21.4662 9.35732 21.519 9.63476 21.4939C9.91221 21.4689 10.1772 21.3671 10.4001 21.2L14.6701 18H15.0001C16.8566 18 18.637 17.2625 19.9498 15.9497C21.2626 14.637 22.0001 12.8565 22.0001 11C22.0001 9.14348 21.2626 7.36301 19.9498 6.05025C18.637 4.7375 16.8566 4 15.0001 4Z" fill="currentColor"/>
  </symbol>
  <symbol id="ic_sms_group" viewBox="0 0 24 24">
    <path d="M15.0001 4H9.00006C7.23973 4.01356 5.54913 4.68987 4.26515 5.89418C2.98118 7.09849 2.1981 8.74235 2.07196 10.4982C1.94582 12.2541 2.48588 13.993 3.58453 15.3685C4.68318 16.7439 6.25974 17.655 8.00006 17.92V20C8.00006 20.2786 8.07763 20.5516 8.22408 20.7886C8.37053 21.0256 8.58008 21.2171 8.82924 21.3416C9.07839 21.4662 9.35732 21.519 9.63476 21.4939C9.91221 21.4689 10.1772 21.3671 10.4001 21.2L14.6701 18H15.0001C16.8566 18 18.637 17.2625 19.9498 15.9497C21.2626 14.637 22.0001 12.8565 22.0001 11C22.0001 9.14348 21.2626 7.36301 19.9498 6.05025C18.637 4.7375 16.8566 4 15.0001 4ZM13.3301 7C13.5959 6.99802 13.8564 7.07518 14.0783 7.22166C14.3001 7.36814 14.4734 7.57731 14.5761 7.82257C14.6788 8.06783 14.7061 8.33808 14.6548 8.59894C14.6034 8.8598 14.4755 9.09948 14.2875 9.28749C14.0995 9.47549 13.8599 9.60331 13.599 9.6547C13.3381 9.70608 13.0679 9.67871 12.8226 9.57605C12.5774 9.47339 12.3682 9.30009 12.2217 9.0782C12.0752 8.85631 11.9981 8.59587 12.0001 8.33C12.0027 7.97807 12.1436 7.6413 12.3925 7.39244C12.6414 7.14358 12.9781 7.00262 13.3301 7ZM9.78006 7.89C10.0455 7.89001 10.305 7.96886 10.5255 8.11654C10.7461 8.26423 10.9179 8.4741 11.019 8.71954C11.1201 8.96498 11.146 9.23492 11.0935 9.49512C11.041 9.75532 10.9124 9.99407 10.724 10.1811C10.5356 10.3681 10.2959 10.4949 10.0353 10.5455C9.7747 10.596 9.50496 10.5681 9.26029 10.4651C9.01562 10.3621 8.80704 10.1888 8.66101 9.96717C8.51498 9.7455 8.43808 9.48544 8.44006 9.22C8.4427 8.86635 8.58504 8.52807 8.83605 8.27893C9.08706 8.02979 9.42639 7.88999 9.78006 7.89ZM15.1101 14.11H12.4401C12.4414 14.2264 12.4196 14.3419 12.376 14.4498C12.3323 14.5578 12.2677 14.656 12.1859 14.7387C12.104 14.8215 12.0066 14.8872 11.8991 14.9321C11.7917 14.9769 11.6765 15 11.5601 15H8.00006C7.76401 15 7.53764 14.9062 7.37073 14.7393C7.20382 14.5724 7.11006 14.346 7.11006 14.11C7.11269 13.4027 7.39484 12.7251 7.89499 12.2249C8.39514 11.7248 9.07274 11.4426 9.78006 11.44C10.2376 11.4426 10.6863 11.5668 11.0801 11.8C11.3902 11.3146 11.8489 10.9425 12.3879 10.7392C12.9268 10.5359 13.5171 10.5124 14.0705 10.6721C14.6239 10.8318 15.1109 11.1663 15.4586 11.6255C15.8064 12.0847 15.9963 12.644 16.0001 13.22C16.0001 13.456 15.9063 13.6824 15.7394 13.8493C15.5725 14.0162 15.3461 14.11 15.1101 14.11Z" fill="currentColor"/>
  </symbol>
  <symbol id="ic_sms_receive" viewBox="0 0 24 24">
    <path d="M15.0001 4H9.00006C7.23973 4.01356 5.54913 4.68987 4.26515 5.89418C2.98118 7.09849 2.1981 8.74235 2.07196 10.4982C1.94582 12.2541 2.48588 13.993 3.58453 15.3685C4.68318 16.7439 6.25974 17.655 8.00006 17.92V20C8.00006 20.2786 8.07763 20.5516 8.22408 20.7886C8.37053 21.0256 8.58008 21.2171 8.82924 21.3416C9.07839 21.4662 9.35732 21.519 9.63476 21.4939C9.91221 21.4689 10.1772 21.3671 10.4001 21.2L14.6701 18H15.0001C16.8566 18 18.637 17.2625 19.9498 15.9497C21.2626 14.637 22.0001 12.8565 22.0001 11C22.0001 9.14348 21.2626 7.36301 19.9498 6.05025C18.637 4.7375 16.8566 4 15.0001 4ZM17.7101 9.71L15.4101 12H16.0001C16.2653 12 16.5196 12.1054 16.7072 12.2929C16.8947 12.4804 17.0001 12.7348 17.0001 13C17.0001 13.2652 16.8947 13.5196 16.7072 13.7071C16.5196 13.8946 16.2653 14 16.0001 14H13.0001C12.8694 13.9984 12.7403 13.9712 12.6201 13.92C12.3757 13.8185 12.1815 13.6243 12.0801 13.38C12.0288 13.2598 12.0016 13.1307 12.0001 13V10C12.0001 9.73478 12.1054 9.48043 12.2929 9.29289C12.4805 9.10536 12.7348 9 13.0001 9C13.2653 9 13.5196 9.10536 13.7072 9.29289C13.8947 9.48043 14.0001 9.73478 14.0001 10V10.59L16.2901 8.29C16.4784 8.1017 16.7338 7.99591 17.0001 7.99591C17.2664 7.99591 17.5218 8.1017 17.7101 8.29C17.8984 8.4783 18.0041 8.7337 18.0041 9C18.0041 9.2663 17.8984 9.5217 17.7101 9.71Z" fill="currentColor"/>
  </symbol>
  <symbol id="ic_sms_send" viewBox="0 0 24 24">
    <path d="M15.0001 4H9.00006C7.23973 4.01356 5.54913 4.68987 4.26515 5.89418C2.98118 7.09849 2.1981 8.74235 2.07196 10.4982C1.94582 12.2541 2.48588 13.993 3.58453 15.3685C4.68318 16.7439 6.25974 17.655 8.00006 17.92V20C8.00006 20.2786 8.07763 20.5516 8.22408 20.7886C8.37053 21.0256 8.58008 21.2171 8.82924 21.3416C9.07839 21.4662 9.35732 21.519 9.63476 21.4939C9.91221 21.4689 10.1772 21.3671 10.4001 21.2L14.6701 18H15.0001C16.8566 18 18.637 17.2625 19.9498 15.9497C21.2626 14.637 22.0001 12.8565 22.0001 11C22.0001 9.14348 21.2626 7.36301 19.9498 6.05025C18.637 4.7375 16.8566 4 15.0001 4ZM18.0001 12C18.0001 12.2652 17.8947 12.5196 17.7072 12.7071C17.5196 12.8946 17.2653 13 17.0001 13C16.7348 13 16.4805 12.8946 16.2929 12.7071C16.1054 12.5196 16.0001 12.2652 16.0001 12V11.41L13.7101 13.71C13.5218 13.8983 13.2664 14.0041 13.0001 14.0041C12.7338 14.0041 12.4784 13.8983 12.2901 13.71C12.1018 13.5217 11.996 13.2663 11.996 13C11.996 12.7337 12.1018 12.4783 12.2901 12.29L14.5901 10H14.0001C13.7348 10 13.4805 9.89464 13.2929 9.70711C13.1054 9.51957 13.0001 9.26522 13.0001 9C13.0001 8.73478 13.1054 8.48043 13.2929 8.29289C13.4805 8.10536 13.7348 8 14.0001 8H17.0001C17.1307 8.00158 17.2598 8.02876 17.3801 8.08C17.6244 8.18147 17.8186 8.37565 17.9201 8.62C17.9713 8.74022 17.9985 8.86932 18.0001 9V12Z" fill="currentColor"/>
  </symbol>
</svg>
