<!-- JioGames DLS — sort icons (4 icons) -->
<svg xmlns="http://www.w3.org/2000/svg" style="display:none">
  <symbol id="ic_sort" viewBox="0 0 24 24">
    <path d="M10.2902 14.2899L8.00019 16.5899V5.99994C8.00019 5.73472 7.89483 5.48037 7.70729 5.29283C7.51976 5.1053 7.2654 4.99994 7.00019 4.99994C6.73497 4.99994 6.48062 5.1053 6.29308 5.29283C6.10554 5.48037 6.00019 5.73472 6.00019 5.99994V16.5899L3.71019 14.2899C3.52188 14.1016 3.26649 13.9958 3.00019 13.9958C2.73388 13.9958 2.47849 14.1016 2.29019 14.2899C2.10188 14.4782 1.99609 14.7336 1.99609 14.9999C1.99609 15.2662 2.10188 15.5216 2.29019 15.7099L6.29019 19.7099C6.38315 19.8037 6.49375 19.8781 6.61561 19.9288C6.73747 19.9796 6.86817 20.0057 7.00019 20.0057C7.1322 20.0057 7.2629 19.9796 7.38476 19.9288C7.50662 19.8781 7.61722 19.8037 7.71019 19.7099L11.7102 15.7099C11.8039 15.617 11.8783 15.5064 11.9291 15.3845C11.9798 15.2627 12.006 15.132 12.006 14.9999C12.006 14.8679 11.9798 14.7372 11.9291 14.6154C11.8783 14.4935 11.8039 14.3829 11.7102 14.2899C11.6172 14.1962 11.5066 14.1218 11.3848 14.071C11.2629 14.0203 11.1322 13.9941 11.0002 13.9941C10.8682 13.9941 10.7375 14.0203 10.6156 14.071C10.4937 14.1218 10.3831 14.1962 10.2902 14.2899ZM21.7102 8.28994L17.7102 4.28994C17.6172 4.19621 17.5066 4.12182 17.3848 4.07105C17.2629 4.02028 17.1322 3.99414 17.0002 3.99414C16.8682 3.99414 16.7375 4.02028 16.6156 4.07105C16.4937 4.12182 16.3831 4.19621 16.2902 4.28994L12.2902 8.28994C12.1965 8.3829 12.1221 8.4935 12.0713 8.61536C12.0205 8.73722 11.9944 8.86793 11.9944 8.99994C11.9944 9.13195 12.0205 9.26266 12.0713 9.38452C12.1221 9.50637 12.1965 9.61698 12.2902 9.70994C12.3831 9.80367 12.4937 9.87806 12.6156 9.92883C12.7375 9.9796 12.8682 10.0057 13.0002 10.0057C13.1322 10.0057 13.2629 9.9796 13.3848 9.92883C13.5066 9.87806 13.6172 9.80367 13.7102 9.70994L16.0002 7.40994V17.9999C16.0002 18.2652 16.1055 18.5195 16.2931 18.707C16.4806 18.8946 16.735 18.9999 17.0002 18.9999C17.2654 18.9999 17.5198 18.8946 17.7073 18.707C17.8948 18.5195 18.0002 18.2652 18.0002 17.9999V7.40994L20.2902 9.70994C20.4785 9.89824 20.7339 10.004 21.0002 10.004C21.2665 10.004 21.5219 9.89824 21.7102 9.70994C21.8985 9.52164 22.0043 9.26624 22.0043 8.99994C22.0043 8.73364 21.8985 8.47824 21.7102 8.28994Z" fill="currentColor"/>
  </symbol>
  <symbol id="ic_sort_handle" viewBox="0 0 24 24">
    <path d="M4 9H20C20.2652 9 20.5196 8.89464 20.7071 8.70711C20.8946 8.51957 21 8.26522 21 8C21 7.73478 20.8946 7.48043 20.7071 7.29289C20.5196 7.10536 20.2652 7 20 7H4C3.73478 7 3.48043 7.10536 3.29289 7.29289C3.10536 7.48043 3 7.73478 3 8C3 8.26522 3.10536 8.51957 3.29289 8.70711C3.48043 8.89464 3.73478 9 4 9ZM20 11H4C3.73478 11 3.48043 11.1054 3.29289 11.2929C3.10536 11.4804 3 11.7348 3 12C3 12.2652 3.10536 12.5196 3.29289 12.7071C3.48043 12.8946 3.73478 13 4 13H20C20.2652 13 20.5196 12.8946 20.7071 12.7071C20.8946 12.5196 21 12.2652 21 12C21 11.7348 20.8946 11.4804 20.7071 11.2929C20.5196 11.1054 20.2652 11 20 11ZM20 15H4C3.73478 15 3.48043 15.1054 3.29289 15.2929C3.10536 15.4804 3 15.7348 3 16C3 16.2652 3.10536 16.5196 3.29289 16.7071C3.48043 16.8946 3.73478 17 4 17H20C20.2652 17 20.5196 16.8946 20.7071 16.7071C20.8946 16.5196 21 16.2652 21 16C21 15.7348 20.8946 15.4804 20.7071 15.2929C20.5196 15.1054 20.2652 15 20 15Z" fill="currentColor"/>
  </symbol>
  <symbol id="ic_sort_list" viewBox="0 0 24 24">
    <path d="M10 17H4C3.73478 17 3.48043 17.1054 3.29289 17.2929C3.10536 17.4804 3 17.7348 3 18C3 18.2652 3.10536 18.5196 3.29289 18.7071C3.48043 18.8946 3.73478 19 4 19H10C10.2652 19 10.5196 18.8946 10.7071 18.7071C10.8946 18.5196 11 18.2652 11 18C11 17.7348 10.8946 17.4804 10.7071 17.2929C10.5196 17.1054 10.2652 17 10 17ZM10 11H4C3.73478 11 3.48043 11.1054 3.29289 11.2929C3.10536 11.4804 3 11.7348 3 12C3 12.2652 3.10536 12.5196 3.29289 12.7071C3.48043 12.8946 3.73478 13 4 13H10C10.2652 13 10.5196 12.8946 10.7071 12.7071C10.8946 12.5196 11 12.2652 11 12C11 11.7348 10.8946 11.4804 10.7071 11.2929C10.5196 11.1054 10.2652 11 10 11ZM18.79 14.29L17.5 15.59V11.5C17.5 11.2348 17.3946 10.9804 17.2071 10.7929C17.0196 10.6054 16.7652 10.5 16.5 10.5C16.2348 10.5 15.9804 10.6054 15.7929 10.7929C15.6054 10.9804 15.5 11.2348 15.5 11.5V15.59L14.21 14.29C14.0217 14.1017 13.7663 13.9959 13.5 13.9959C13.2337 13.9959 12.9783 14.1017 12.79 14.29C12.6017 14.4783 12.4959 14.7337 12.4959 15C12.4959 15.2663 12.6017 15.5217 12.79 15.71L15.79 18.71C15.883 18.8037 15.9936 18.8781 16.1154 18.9289C16.2373 18.9797 16.368 19.0058 16.5 19.0058C16.632 19.0058 16.7627 18.9797 16.8846 18.9289C17.0064 18.8781 17.117 18.8037 17.21 18.71L20.21 15.71C20.3032 15.6168 20.3772 15.5061 20.4277 15.3842C20.4781 15.2624 20.5041 15.1319 20.5041 15C20.5041 14.8681 20.4781 14.7376 20.4277 14.6158C20.3772 14.4939 20.3032 14.3832 20.21 14.29C20.1168 14.1968 20.0061 14.1228 19.8842 14.0723C19.7624 14.0219 19.6319 13.9959 19.5 13.9959C19.3681 13.9959 19.2376 14.0219 19.1158 14.0723C18.9939 14.1228 18.8832 14.1968 18.79 14.29ZM20 5H4C3.73478 5 3.48043 5.10536 3.29289 5.29289C3.10536 5.48043 3 5.73478 3 6C3 6.26522 3.10536 6.51957 3.29289 6.70711C3.48043 6.89464 3.73478 7 4 7H20C20.2652 7 20.5196 6.89464 20.7071 6.70711C20.8946 6.51957 21 6.26522 21 6C21 5.73478 20.8946 5.48043 20.7071 5.29289C20.5196 5.10536 20.2652 5 20 5Z" fill="currentColor"/>
  </symbol>
  <symbol id="ic_sort_up" viewBox="0 0 24 24">
    <path d="M10 17H4C3.73 17 3.48 17.11 3.29 17.29C3.1 17.48 3 17.73 3 18C3 18.27 3.11 18.52 3.29 18.71C3.48 18.9 3.73 19 4 19H10C10.27 19 10.52 18.89 10.71 18.71C10.9 18.53 11 18.27 11 18C11 17.73 10.89 17.48 10.71 17.29C10.53 17.1 10.27 17 10 17ZM10 11H4C3.73 11 3.48 11.11 3.29 11.29C3.1 11.48 3 11.73 3 12C3 12.27 3.11 12.52 3.29 12.71C3.48 12.9 3.73 13 4 13H10C10.27 13 10.52 12.89 10.71 12.71C10.9 12.53 11 12.27 11 12C11 11.73 10.89 11.48 10.71 11.29C10.53 11.1 10.27 11 10 11ZM14.21 15.22L15.5 13.92V18.01C15.5 18.28 15.61 18.53 15.79 18.72C15.97 18.91 16.23 19.01 16.5 19.01C16.77 19.01 17.02 18.9 17.21 18.72C17.4 18.54 17.5 18.28 17.5 18.01V13.92L18.79 15.22C18.98 15.41 19.23 15.51 19.5 15.51C19.77 15.51 20.02 15.4 20.21 15.22C20.4 15.04 20.5 14.78 20.5 14.51C20.5 14.24 20.39 13.99 20.21 13.8L17.21 10.8C17.12 10.71 17.01 10.63 16.88 10.58C16.76 10.53 16.63 10.5 16.5 10.5C16.37 10.5 16.24 10.53 16.12 10.58C16 10.63 15.89 10.71 15.79 10.8L12.79 13.8C12.7 13.89 12.62 14 12.57 14.13C12.52 14.25 12.49 14.38 12.49 14.51C12.49 14.64 12.52 14.77 12.57 14.89C12.62 15.01 12.69 15.12 12.79 15.22C12.88 15.31 12.99 15.39 13.12 15.44C13.24 15.49 13.37 15.52 13.5 15.52C13.63 15.52 13.76 15.49 13.88 15.44C14 15.39 14.11 15.32 14.21 15.22ZM20 5H4C3.73 5 3.48 5.11 3.29 5.29C3.1 5.48 3 5.73 3 6C3 6.27 3.11 6.52 3.29 6.71C3.48 6.9 3.73 7 4 7H20C20.27 7 20.52 6.89 20.71 6.71C20.9 6.52 21 6.27 21 6C21 5.73 20.89 5.48 20.71 5.29C20.52 5.1 20.27 5 20 5Z" fill="currentColor"/>
  </symbol>
</svg>
