<!-- JioGames DLS — sos icons (2 icons) -->
<svg xmlns="http://www.w3.org/2000/svg" style="display:none">
  <symbol id="ic_sos" viewBox="0 0 24 24">
    <path d="M5.5 11H4.5C4.36739 11 4.24021 10.9473 4.14645 10.8536C4.05268 10.7598 4 10.6326 4 10.5C4 10.3674 4.05268 10.2402 4.14645 10.1464C4.24021 10.0527 4.36739 10 4.5 10H6.5C6.76522 10 7.01957 9.89464 7.20711 9.70711C7.39464 9.51957 7.5 9.26522 7.5 9C7.5 8.73478 7.39464 8.48043 7.20711 8.29289C7.01957 8.10536 6.76522 8 6.5 8H4.5C3.83696 8 3.20107 8.26339 2.73223 8.73223C2.26339 9.20107 2 9.83696 2 10.5C2 11.163 2.26339 11.7989 2.73223 12.2678C3.20107 12.7366 3.83696 13 4.5 13H5.5C5.63261 13 5.75979 13.0527 5.85355 13.1464C5.94732 13.2402 6 13.3674 6 13.5C6 13.6326 5.94732 13.7598 5.85355 13.8536C5.75979 13.9473 5.63261 14 5.5 14H3.5C3.23478 14 2.98043 14.1054 2.79289 14.2929C2.60536 14.4804 2.5 14.7348 2.5 15C2.5 15.2652 2.60536 15.5196 2.79289 15.7071C2.98043 15.8946 3.23478 16 3.5 16H5.5C6.16304 16 6.79893 15.7366 7.26777 15.2678C7.73661 14.7989 8 14.163 8 13.5C8 12.837 7.73661 12.2011 7.26777 11.7322C6.79893 11.2634 6.16304 11 5.5 11ZM12 8C11.2044 8 10.4413 8.31607 9.87868 8.87868C9.31607 9.44129 9 10.2044 9 11V13C9 13.7956 9.31607 14.5587 9.87868 15.1213C10.4413 15.6839 11.2044 16 12 16C12.7956 16 13.5587 15.6839 14.1213 15.1213C14.6839 14.5587 15 13.7956 15 13V11C15 10.2044 14.6839 9.44129 14.1213 8.87868C13.5587 8.31607 12.7956 8 12 8ZM13 13C13 13.2652 12.8946 13.5196 12.7071 13.7071C12.5196 13.8946 12.2652 14 12 14C11.7348 14 11.4804 13.8946 11.2929 13.7071C11.1054 13.5196 11 13.2652 11 13V11C11 10.7348 11.1054 10.4804 11.2929 10.2929C11.4804 10.1054 11.7348 10 12 10C12.2652 10 12.5196 10.1054 12.7071 10.2929C12.8946 10.4804 13 10.7348 13 11V13ZM19.5 11H18.5C18.3674 11 18.2402 10.9473 18.1464 10.8536C18.0527 10.7598 18 10.6326 18 10.5C18 10.3674 18.0527 10.2402 18.1464 10.1464C18.2402 10.0527 18.3674 10 18.5 10H20.5C20.7652 10 21.0196 9.89464 21.2071 9.70711C21.3946 9.51957 21.5 9.26522 21.5 9C21.5 8.73478 21.3946 8.48043 21.2071 8.29289C21.0196 8.10536 20.7652 8 20.5 8H18.5C17.837 8 17.2011 8.26339 16.7322 8.73223C16.2634 9.20107 16 9.83696 16 10.5C16 11.163 16.2634 11.7989 16.7322 12.2678C17.2011 12.7366 17.837 13 18.5 13H19.5C19.6326 13 19.7598 13.0527 19.8536 13.1464C19.9473 13.2402 20 13.3674 20 13.5C20 13.6326 19.9473 13.7598 19.8536 13.8536C19.7598 13.9473 19.6326 14 19.5 14H17.5C17.2348 14 16.9804 14.1054 16.7929 14.2929C16.6054 14.4804 16.5 14.7348 16.5 15C16.5 15.2652 16.6054 15.5196 16.7929 15.7071C16.9804 15.8946 17.2348 16 17.5 16H19.5C20.163 16 20.7989 15.7366 21.2678 15.2678C21.7366 14.7989 22 14.163 22 13.5C22 12.837 21.7366 12.2011 21.2678 11.7322C20.7989 11.2634 20.163 11 19.5 11Z" fill="currentColor"/>
  </symbol>
  <symbol id="ic_sos_circle" viewBox="0 0 24 24">
    <path d="M12 2C10.0222 2 8.08879 2.58649 6.4443 3.6853C4.79981 4.78412 3.51809 6.3459 2.76121 8.17317C2.00433 10.0004 1.8063 12.0111 2.19215 13.9509C2.578 15.8907 3.53041 17.6725 4.92894 19.0711C6.32746 20.4696 8.10929 21.422 10.0491 21.8079C11.9889 22.1937 13.9996 21.9957 15.8268 21.2388C17.6541 20.4819 19.2159 19.2002 20.3147 17.5557C21.4135 15.9112 22 13.9778 22 12C22 10.6868 21.7413 9.38642 21.2388 8.17317C20.7363 6.95991 19.9997 5.85752 19.0711 4.92893C18.1425 4.00035 17.0401 3.26375 15.8268 2.7612C14.6136 2.25866 13.3132 2 12 2ZM7.75 14H6.25C6.1174 14 5.99022 13.9473 5.89645 13.8536C5.80268 13.7598 5.75 13.6326 5.75 13.5C5.75 13.3674 5.80268 13.2402 5.89645 13.1464C5.99022 13.0527 6.1174 13 6.25 13H7.75C7.81631 13 7.8799 12.9737 7.92678 12.9268C7.97367 12.8799 8 12.8163 8 12.75C8 12.6837 7.97367 12.6201 7.92678 12.5732C7.8799 12.5263 7.81631 12.5 7.75 12.5H6.75C6.41848 12.5 6.10054 12.3683 5.86612 12.1339C5.6317 11.8995 5.5 11.5815 5.5 11.25C5.5 10.9185 5.6317 10.6005 5.86612 10.3661C6.10054 10.1317 6.41848 10 6.75 10H8.25C8.38261 10 8.50979 10.0527 8.60356 10.1464C8.69733 10.2402 8.75 10.3674 8.75 10.5C8.75 10.6326 8.69733 10.7598 8.60356 10.8536C8.50979 10.9473 8.38261 11 8.25 11H6.75C6.6837 11 6.62011 11.0263 6.57323 11.0732C6.52634 11.1201 6.5 11.1837 6.5 11.25C6.5 11.3163 6.52634 11.3799 6.57323 11.4268C6.62011 11.4737 6.6837 11.5 6.75 11.5H7.75C8.08152 11.5 8.39947 11.6317 8.63389 11.8661C8.86831 12.1005 9 12.4185 9 12.75C9 13.0815 8.86831 13.3995 8.63389 13.6339C8.39947 13.8683 8.08152 14 7.75 14ZM12 14C11.6044 14 11.2178 13.8827 10.8889 13.6629C10.56 13.4432 10.3036 13.1308 10.1522 12.7654C10.0009 12.3999 9.96126 11.9978 10.0384 11.6098C10.1156 11.2219 10.3061 10.8655 10.5858 10.5858C10.8655 10.3061 11.2219 10.1156 11.6098 10.0384C11.9978 9.96126 12.3999 10.0009 12.7654 10.1522C13.1308 10.3036 13.4432 10.56 13.6629 10.8889C13.8827 11.2178 14 11.6044 14 12C14 12.5304 13.7893 13.0391 13.4142 13.4142C13.0391 13.7893 12.5304 14 12 14ZM17.25 14H15.75C15.6174 14 15.4902 13.9473 15.3965 13.8536C15.3027 13.7598 15.25 13.6326 15.25 13.5C15.25 13.3674 15.3027 13.2402 15.3965 13.1464C15.4902 13.0527 15.6174 13 15.75 13H17.25C17.3163 13 17.3799 12.9737 17.4268 12.9268C17.4737 12.8799 17.5 12.8163 17.5 12.75C17.5 12.6837 17.4737 12.6201 17.4268 12.5732C17.3799 12.5263 17.3163 12.5 17.25 12.5H16.25C15.9185 12.5 15.6005 12.3683 15.3661 12.1339C15.1317 11.8995 15 11.5815 15 11.25C15 10.9185 15.1317 10.6005 15.3661 10.3661C15.6005 10.1317 15.9185 10 16.25 10H17.75C17.8826 10 18.0098 10.0527 18.1036 10.1464C18.1973 10.2402 18.25 10.3674 18.25 10.5C18.25 10.6326 18.1973 10.7598 18.1036 10.8536C18.0098 10.9473 17.8826 11 17.75 11H16.25C16.1837 11 16.1201 11.0263 16.0732 11.0732C16.0263 11.1201 16 11.1837 16 11.25C16 11.3163 16.0263 11.3799 16.0732 11.4268C16.1201 11.4737 16.1837 11.5 16.25 11.5H17.25C17.5815 11.5 17.8995 11.6317 18.1339 11.8661C18.3683 12.1005 18.5 12.4185 18.5 12.75C18.5 13.0815 18.3683 13.3995 18.1339 13.6339C17.8995 13.8683 17.5815 14 17.25 14ZM12 11C11.8022 11 11.6089 11.0586 11.4444 11.1685C11.28 11.2784 11.1518 11.4346 11.0761 11.6173C11.0004 11.8 10.9806 12.0011 11.0192 12.1951C11.0578 12.3891 11.153 12.5673 11.2929 12.7071C11.4328 12.847 11.6109 12.9422 11.8049 12.9808C11.9989 13.0194 12.2 12.9996 12.3827 12.9239C12.5654 12.8482 12.7216 12.72 12.8315 12.5556C12.9414 12.3911 13 12.1978 13 12C13 11.7348 12.8946 11.4804 12.7071 11.2929C12.5196 11.1054 12.2652 11 12 11Z" fill="currentColor"/>
  </symbol>
</svg>
