<!-- JioGames DLS — sound icons (5 icons) -->
<svg xmlns="http://www.w3.org/2000/svg" style="display:none">
  <symbol id="ic_sound" viewBox="0 0 24 24">
    <path fill-rule="evenodd" clip-rule="evenodd" d="M11.06 4.0372C11.6425 3.4547 12.4775 3.2922 13.2375 3.6072C13.9975 3.9222 14.47 4.6297 14.4725 5.4522V18.6672C14.4725 19.4747 14.0125 20.1772 13.2725 20.4997C13.0075 20.6147 12.7325 20.6722 12.4625 20.6722C11.9725 20.6722 11.4925 20.4872 11.1125 20.1347L6.8275 16.1622H3.7475C2.535 16.1622 1.55 15.1772 1.55 13.9672L1.5 10.8372C1.5 9.5047 2.325 8.5447 3.4625 8.5447H6.5275L11.06 4.0372ZM18.8574 18.622C18.6424 18.622 18.4274 18.5295 18.2799 18.3495C18.0149 18.0295 18.0599 17.557 18.3799 17.2945C19.9699 15.977 20.9999 13.932 20.9999 12.087C20.9999 10.237 19.9724 8.19449 18.3799 6.87949C18.0599 6.61699 18.0149 6.14199 18.2799 5.82449C18.5424 5.50449 19.0174 5.45949 19.3349 5.72449C21.2574 7.31199 22.4999 9.80949 22.4999 12.087C22.4999 14.362 21.2574 16.8595 19.3349 18.4495C19.1949 18.567 19.0274 18.622 18.8574 18.622ZM16.9299 16.2121C16.6974 16.2121 16.4699 16.1046 16.3224 15.9021C16.0799 15.5671 16.1524 15.0971 16.4899 14.8546C17.2274 14.3171 18.11 13.4021 18.11 12.0871C18.11 10.7721 17.2299 9.85714 16.4899 9.31964C16.1549 9.07714 16.0799 8.60714 16.325 8.27214C16.5674 7.93714 17.0374 7.86214 17.3724 8.10714C18.8149 9.15714 19.61 10.5696 19.61 12.0896C19.61 13.6096 18.8149 15.0221 17.3724 16.0721C17.2374 16.1671 17.0824 16.2121 16.9299 16.2121Z" fill="currentColor"/>
  </symbol>
  <symbol id="ic_sound_disabled" viewBox="0 0 24 24">
    <path d="M11.6 3.8L6 8H4C3.46957 8 2.96086 8.21071 2.58579 8.58579C2.21071 8.96086 2 9.46957 2 10V14C2 14.5304 2.21071 15.0391 2.58579 15.4142C2.96086 15.7893 3.46957 16 4 16H6L11.6 20.2C11.8229 20.3671 12.0878 20.4689 12.3653 20.4939C12.6427 20.519 12.9217 20.4662 13.1708 20.3416C13.42 20.2171 13.6295 20.0256 13.776 19.7886C13.9224 19.5516 14 19.2786 14 19V5C14 4.72143 13.9224 4.44837 13.776 4.2114C13.6295 3.97444 13.42 3.78294 13.1708 3.65836C12.9217 3.53378 12.6427 3.48104 12.3653 3.50606C12.0878 3.53108 11.8229 3.63286 11.6 3.8ZM20.41 12L21.71 10.71C21.8032 10.6168 21.8772 10.5061 21.9277 10.3843C21.9781 10.2624 22.0041 10.1319 22.0041 10C22.0041 9.86814 21.9781 9.73757 21.9277 9.61575C21.8772 9.49393 21.8032 9.38324 21.71 9.29C21.6168 9.19676 21.5061 9.1228 21.3842 9.07234C21.2624 9.02188 21.1319 8.99591 21 8.99591C20.8681 8.99591 20.7376 9.02188 20.6158 9.07234C20.4939 9.1228 20.3832 9.19676 20.29 9.29L19 10.59L17.71 9.29C17.5217 9.1017 17.2663 8.99591 17 8.99591C16.7337 8.99591 16.4783 9.1017 16.29 9.29C16.1017 9.4783 15.9959 9.7337 15.9959 10C15.9959 10.2663 16.1017 10.5217 16.29 10.71L17.59 12L16.29 13.29C16.1963 13.383 16.1219 13.4936 16.0711 13.6154C16.0203 13.7373 15.9942 13.868 15.9942 14C15.9942 14.132 16.0203 14.2627 16.0711 14.3846C16.1219 14.5064 16.1963 14.617 16.29 14.71C16.383 14.8037 16.4936 14.8781 16.6154 14.9289C16.7373 14.9797 16.868 15.0058 17 15.0058C17.132 15.0058 17.2627 14.9797 17.3846 14.9289C17.5064 14.8781 17.617 14.8037 17.71 14.71L19 13.41L20.29 14.71C20.383 14.8037 20.4936 14.8781 20.6154 14.9289C20.7373 14.9797 20.868 15.0058 21 15.0058C21.132 15.0058 21.2627 14.9797 21.3846 14.9289C21.5064 14.8781 21.617 14.8037 21.71 14.71C21.8037 14.617 21.8781 14.5064 21.9289 14.3846C21.9797 14.2627 22.0058 14.132 22.0058 14C22.0058 13.868 21.9797 13.7373 21.9289 13.6154C21.8781 13.4936 21.8037 13.383 21.71 13.29L20.41 12Z" fill="currentColor"/>
  </symbol>
  <symbol id="ic_sound_loud" viewBox="0 0 24 24">
    <path d="M11.6 3.8L6 8H4C3.46957 8 2.96086 8.21071 2.58579 8.58579C2.21071 8.96086 2 9.46957 2 10V14C2 14.5304 2.21071 15.0391 2.58579 15.4142C2.96086 15.7893 3.46957 16 4 16H6L11.6 20.2C11.8229 20.3671 12.0878 20.4689 12.3653 20.4939C12.6427 20.519 12.9217 20.4662 13.1708 20.3416C13.42 20.2171 13.6295 20.0256 13.776 19.7886C13.9224 19.5516 14 19.2786 14 19V5C14 4.72143 13.9224 4.44837 13.776 4.2114C13.6295 3.97444 13.42 3.78294 13.1708 3.65836C12.9217 3.53378 12.6427 3.48104 12.3653 3.50606C12.0878 3.53108 11.8229 3.63286 11.6 3.8ZM15.71 9.88C15.5237 10.0674 15.4192 10.3208 15.4192 10.585C15.4192 10.8492 15.5237 11.1026 15.71 11.29C15.8037 11.383 15.8781 11.4936 15.9289 11.6154C15.9797 11.7373 16.0058 11.868 16.0058 12C16.0058 12.132 15.9797 12.2627 15.9289 12.3846C15.8781 12.5064 15.8037 12.617 15.71 12.71C15.5237 12.8974 15.4192 13.1508 15.4192 13.415C15.4192 13.6792 15.5237 13.9326 15.71 14.12C15.8974 14.3063 16.1508 14.4108 16.415 14.4108C16.6792 14.4108 16.9326 14.3063 17.12 14.12C17.6818 13.5575 17.9974 12.795 17.9974 12C17.9974 11.205 17.6818 10.4425 17.12 9.88C16.9326 9.69375 16.6792 9.58921 16.415 9.58921C16.1508 9.58921 15.8974 9.69375 15.71 9.88ZM20 7.05C19.8126 6.86375 19.5592 6.75921 19.295 6.75921C19.0308 6.75921 18.7774 6.86375 18.59 7.05C18.4037 7.23736 18.2992 7.49081 18.2992 7.755C18.2992 8.01919 18.4037 8.27264 18.59 8.46C19.0556 8.92446 19.4251 9.47621 19.6771 10.0837C19.9292 10.6911 20.0589 11.3423 20.0589 12C20.0589 12.6577 19.9292 13.3089 19.6771 13.9163C19.4251 14.5238 19.0556 15.0755 18.59 15.54C18.4037 15.7274 18.2992 15.9808 18.2992 16.245C18.2992 16.5092 18.4037 16.7626 18.59 16.95C18.7763 17.1347 19.0277 17.2389 19.29 17.24C19.5488 17.2551 19.8034 17.169 20 17C20.6501 16.35 21.1658 15.5783 21.5176 14.7289C21.8694 13.8796 22.0505 12.9693 22.0505 12.05C22.0505 11.1307 21.8694 10.2204 21.5176 9.37105C21.1658 8.52173 20.6501 7.75002 20 7.1V7.05Z" fill="currentColor"/>
  </symbol>
  <symbol id="ic_sound_medium" viewBox="0 0 24 24">
    <path d="M11.6 3.8L6 8H4C3.46957 8 2.96086 8.21071 2.58579 8.58579C2.21071 8.96086 2 9.46957 2 10V14C2 14.5304 2.21071 15.0391 2.58579 15.4142C2.96086 15.7893 3.46957 16 4 16H6L11.6 20.2C11.8229 20.3671 12.0878 20.4689 12.3653 20.4939C12.6427 20.519 12.9217 20.4662 13.1708 20.3416C13.42 20.2171 13.6295 20.0256 13.776 19.7886C13.9224 19.5516 14 19.2786 14 19V5C14 4.72143 13.9224 4.44837 13.776 4.2114C13.6295 3.97444 13.42 3.78294 13.1708 3.65836C12.9217 3.53378 12.6427 3.48104 12.3653 3.50606C12.0878 3.53108 11.8229 3.63286 11.6 3.8ZM17.12 9.88C17.0304 9.77532 16.92 9.6903 16.796 9.63028C16.6719 9.57025 16.5368 9.53652 16.3991 9.5312C16.2613 9.52588 16.124 9.54909 15.9957 9.59936C15.8674 9.64964 15.7508 9.7259 15.6533 9.82335C15.5559 9.9208 15.4796 10.0374 15.4294 10.1657C15.3791 10.294 15.3559 10.4313 15.3612 10.5691C15.3665 10.7068 15.4003 10.8419 15.4603 10.966C15.5203 11.09 15.6053 11.2004 15.71 11.29C15.8037 11.383 15.8781 11.4936 15.9289 11.6154C15.9797 11.7373 16.0058 11.868 16.0058 12C16.0058 12.132 15.9797 12.2627 15.9289 12.3846C15.8781 12.5064 15.8037 12.617 15.71 12.71C15.5237 12.8974 15.4192 13.1508 15.4192 13.415C15.4192 13.6792 15.5237 13.9326 15.71 14.12C15.8974 14.3063 16.1508 14.4108 16.415 14.4108C16.6792 14.4108 16.9326 14.3063 17.12 14.12C17.6818 13.5575 17.9974 12.795 17.9974 12C17.9974 11.205 17.6818 10.4425 17.12 9.88Z" fill="currentColor"/>
  </symbol>
  <symbol id="ic_sound_quiet" viewBox="0 0 24 24">
    <path d="M13.8 4.4L9 8H7C6.46957 8 5.96086 8.21071 5.58579 8.58579C5.21071 8.96086 5 9.46957 5 10V14C5 14.5304 5.21071 15.0391 5.58579 15.4142C5.96086 15.7893 6.46957 16 7 16H9L13.8 19.6C14.0971 19.8229 14.4505 19.9586 14.8204 19.9919C15.1903 20.0253 15.5622 19.955 15.8944 19.7889C16.2266 19.6227 16.506 19.3674 16.7013 19.0515C16.8966 18.7355 17 18.3714 17 18V6C17 5.62858 16.8966 5.26449 16.7013 4.94854C16.506 4.63259 16.2266 4.37725 15.8944 4.21115C15.5622 4.04504 15.1903 3.97473 14.8204 4.00808C14.4505 4.04144 14.0971 4.17715 13.8 4.4Z" fill="currentColor"/>
  </symbol>
</svg>
