<!-- JioGames DLS — speaker icons (2 icons) -->
<svg xmlns="http://www.w3.org/2000/svg" style="display:none">
  <symbol id="ic_speaker" viewBox="0 0 24 24">
    <path d="M17 2H7C6.20435 2 5.44129 2.31607 4.87868 2.87868C4.31607 3.44129 4 4.20435 4 5V19C4 19.7956 4.31607 20.5587 4.87868 21.1213C5.44129 21.6839 6.20435 22 7 22H17C17.7956 22 18.5587 21.6839 19.1213 21.1213C19.6839 20.5587 20 19.7956 20 19V5C20 4.20435 19.6839 3.44129 19.1213 2.87868C18.5587 2.31607 17.7956 2 17 2ZM12 4C12.3956 4 12.7822 4.1173 13.1111 4.33706C13.44 4.55682 13.6964 4.86918 13.8478 5.23463C13.9991 5.60009 14.0387 6.00222 13.9616 6.39018C13.8844 6.77814 13.6939 7.13451 13.4142 7.41421C13.1345 7.69392 12.7781 7.8844 12.3902 7.96157C12.0022 8.03874 11.6001 7.99913 11.2346 7.84776C10.8692 7.69638 10.5568 7.44004 10.3371 7.11114C10.1173 6.78224 10 6.39556 10 6C10 5.46957 10.2107 4.96086 10.5858 4.58579C10.9609 4.21071 11.4696 4 12 4ZM12 20C11.0111 20 10.0444 19.7068 9.22215 19.1573C8.3999 18.6079 7.75904 17.827 7.3806 16.9134C7.00216 15.9998 6.90315 14.9945 7.09607 14.0245C7.289 13.0546 7.7652 12.1637 8.46447 11.4645C9.16373 10.7652 10.0546 10.289 11.0245 10.0961C11.9945 9.90315 12.9998 10.0022 13.9134 10.3806C14.827 10.759 15.6079 11.3999 16.1573 12.2221C16.7068 13.0444 17 14.0111 17 15C17 16.3261 16.4732 17.5979 15.5355 18.5355C14.5979 19.4732 13.3261 20 12 20ZM12 12C11.4067 12 10.8266 12.1759 10.3333 12.5056C9.83994 12.8352 9.45542 13.3038 9.22836 13.8519C9.0013 14.4001 8.94189 15.0033 9.05764 15.5853C9.1734 16.1672 9.45912 16.7018 9.87868 17.1213C10.2982 17.5409 10.8328 17.8266 11.4147 17.9424C11.9967 18.0581 12.5999 17.9987 13.1481 17.7716C13.6962 17.5446 14.1648 17.1601 14.4944 16.6667C14.8241 16.1734 15 15.5933 15 15C15 14.2044 14.6839 13.4413 14.1213 12.8787C13.5587 12.3161 12.7956 12 12 12Z" fill="currentColor"/>
  </symbol>
  <symbol id="ic_speaker_megaphone" viewBox="0 0 24 24">
    <path d="M19.1 4.21001L3.91 9.90001C3.36 10.11 3 10.63 3 11.22V13.71C3 14.33 3.4 14.87 3.99 15.05L4.56 15.23C4.31 16.09 4.41 17 4.85 17.79C5.29 18.58 6 19.15 6.86 19.39C7.17 19.48 7.48 19.52 7.79 19.52C8.35 19.52 8.91 19.38 9.41 19.1C10.15 18.69 10.69 18.02 10.96 17.22L19.17 19.79C20.08 20.07 21 19.4 21 18.45V5.53001C21 4.55001 20.02 3.87001 19.1 4.21001ZM8.33 17.14C8.07 17.29 7.77 17.32 7.48 17.24C7.19 17.16 6.96 16.97 6.81 16.71C6.67 16.46 6.64 16.18 6.71 15.91L8.81 16.57C8.72 16.81 8.55 17.02 8.32 17.15L8.33 17.14Z" fill="currentColor"/>
  </symbol>
</svg>
