<!-- JioGames DLS — star icons (2 icons) -->
<svg xmlns="http://www.w3.org/2000/svg" style="display:none">
  <symbol id="ic_star" viewBox="0 0 24 24">
    <path d="M21.3697 9.60947C21.2557 9.27681 21.0563 8.98217 20.7904 8.75405C20.5246 8.52594 20.2017 8.38337 19.8504 8.32635L15.6155 7.68003L13.7164 3.59303C13.5645 3.26988 13.3176 2.99424 13.0137 2.79464C12.7099 2.60455 12.3586 2.5 11.9977 2.5C11.6369 2.5 11.2856 2.60455 10.9817 2.79464C10.6779 2.98474 10.431 3.26037 10.2791 3.59303L8.37999 7.68003L4.10708 8.32635C3.76524 8.38337 3.43291 8.52594 3.16704 8.75405C2.90117 8.98217 2.70176 9.27681 2.58782 9.60947C2.48337 9.93263 2.47387 10.2843 2.54984 10.617C2.6258 10.9496 2.79672 11.2633 3.0341 11.5104L6.15808 14.723L5.41744 19.2757C5.36047 19.6274 5.40794 19.9885 5.54088 20.3117C5.67381 20.6349 5.9017 20.92 6.19606 21.1291C6.50941 21.3667 6.89872 21.4998 7.29752 21.5093C7.62986 21.5093 7.9527 21.4332 8.24706 21.2717L12.0357 19.1806L15.8244 21.2717C16.1092 21.4332 16.4416 21.5188 16.7739 21.5093C17.1727 21.5093 17.5525 21.3857 17.8754 21.1576C18.1602 20.9485 18.3881 20.6729 18.5305 20.3402C18.6635 20.0171 18.711 19.6559 18.654 19.3042L17.9133 14.7515L21.0373 11.5389C21.2652 11.2823 21.4076 10.9591 21.4741 10.617C21.5311 10.2748 21.4931 9.92312 21.3697 9.60947Z" fill="currentColor"/>
  </symbol>
  <symbol id="ic_star_add" viewBox="0 0 24 24">
    <path d="M21.8998 9.48015C21.7839 9.12928 21.573 8.81739 21.2906 8.57909C21.0082 8.34079 20.6652 8.1854 20.2998 8.13015L15.8298 7.45015L13.8298 3.15015C13.6683 2.80656 13.4124 2.51604 13.0918 2.31254C12.7713 2.10904 12.3995 2.00098 12.0198 2.00098C11.6402 2.00098 11.2684 2.10904 10.9478 2.31254C10.6273 2.51604 10.3714 2.80656 10.2098 3.15015L8.20984 7.45015L3.69984 8.13015C3.33447 8.1854 2.99154 8.34079 2.70911 8.57909C2.42668 8.81739 2.21579 9.12928 2.09984 9.48015C1.98996 9.82486 1.97564 10.1929 2.05841 10.5451C2.14118 10.8973 2.31793 11.2205 2.56984 11.4802L5.85984 14.8602L5.07984 19.6502C5.02057 20.0193 5.06599 20.3978 5.21093 20.7424C5.35588 21.0871 5.59454 21.3843 5.89984 21.6002C6.23505 21.8517 6.64082 21.9917 7.05984 22.0002C7.40962 22.0085 7.75515 21.9221 8.05984 21.7502L12.0598 19.5502L16.0598 21.7502C16.3645 21.9221 16.7101 22.0085 17.0598 22.0002C17.4756 22.0004 17.881 21.871 18.2198 21.6302C18.5251 21.4143 18.7638 21.1171 18.9088 20.7724C19.0537 20.4278 19.0991 20.0493 19.0398 19.6802L18.2598 14.8902L21.5498 11.5102C21.7869 11.2354 21.9446 10.9013 22.0063 10.5437C22.068 10.1861 22.0312 9.81844 21.8998 9.48015ZM13.9998 14.0002H12.9998V15.0002C12.9998 15.2654 12.8945 15.5197 12.707 15.7073C12.5194 15.8948 12.2651 16.0002 11.9998 16.0002C11.7346 16.0002 11.4803 15.8948 11.2927 15.7073C11.1052 15.5197 10.9998 15.2654 10.9998 15.0002V14.0002H9.99984C9.73463 14.0002 9.48027 13.8948 9.29274 13.7073C9.1052 13.5197 8.99984 13.2654 8.99984 13.0002C8.99984 12.7349 9.1052 12.4806 9.29274 12.293C9.48027 12.1055 9.73463 12.0002 9.99984 12.0002H10.9998V11.0002C10.9998 10.7349 11.1052 10.4806 11.2927 10.293C11.4803 10.1055 11.7346 10.0002 11.9998 10.0002C12.2651 10.0002 12.5194 10.1055 12.707 10.293C12.8945 10.4806 12.9998 10.7349 12.9998 11.0002V12.0002H13.9998C14.2651 12.0002 14.5194 12.1055 14.707 12.293C14.8945 12.4806 14.9998 12.7349 14.9998 13.0002C14.9998 13.2654 14.8945 13.5197 14.707 13.7073C14.5194 13.8948 14.2651 14.0002 13.9998 14.0002Z" fill="currentColor"/>
  </symbol>
</svg>
