<!-- JioGames DLS — store icons (2 icons) -->
<svg xmlns="http://www.w3.org/2000/svg" style="display:none">
  <symbol id="ic_store" viewBox="0 0 24 24">
    <path d="M21.1201 5.88L18.5701 3.53C18.2023 3.19065 17.7206 3.00154 17.2201 3H6.78012C6.27966 3.00154 5.79796 3.19065 5.43012 3.53L2.88012 5.88C2.3502 6.4487 2.06171 7.20089 2.07542 7.97809C2.08913 8.75529 2.40398 9.49683 2.95363 10.0465C3.50328 10.5961 4.24482 10.911 5.02203 10.9247C5.79923 10.9384 6.55142 10.6499 7.12012 10.12C7.19552 10.0378 7.26566 9.951 7.33012 9.86C7.61131 10.2086 7.96698 10.4898 8.37103 10.683C8.77508 10.8762 9.21726 10.9764 9.66512 10.9764C10.113 10.9764 10.5552 10.8762 10.9592 10.683C11.3633 10.4898 11.7189 10.2086 12.0001 9.86C12.2813 10.2086 12.637 10.4898 13.041 10.683C13.4451 10.8762 13.8873 10.9764 14.3351 10.9764C14.783 10.9764 15.2252 10.8762 15.6292 10.683C16.0333 10.4898 16.3889 10.2086 16.6701 9.86C16.7346 9.951 16.8047 10.0378 16.8801 10.12C17.1548 10.4147 17.486 10.6512 17.854 10.8151C18.222 10.9791 18.6192 11.0673 19.022 11.0744C19.4248 11.0815 19.825 11.0074 20.1985 10.8565C20.5721 10.7056 20.9114 10.481 21.1963 10.1962C21.4811 9.91128 21.7057 9.57194 21.8566 9.19839C22.0075 8.82484 22.0816 8.42472 22.0745 8.02191C22.0674 7.6191 21.9792 7.22185 21.8152 6.85385C21.6513 6.48585 21.4149 6.15465 21.1201 5.88ZM7.34012 12.42C6.6191 12.8013 5.81575 13.0004 5.00012 13C4.31165 12.9992 3.63076 12.8562 3.00012 12.58V18C3.00012 18.7956 3.31619 19.5587 3.8788 20.1213C4.44141 20.6839 5.20447 21 6.00012 21H11.0001V12.81C10.5674 12.9329 10.12 12.9968 9.67012 13C8.85742 13.0025 8.05682 12.8032 7.34012 12.42ZM16.6601 12.42C15.9434 12.8032 15.1428 13.0025 14.3301 13C13.8803 12.9968 13.4329 12.9329 13.0001 12.81V15H15.0001C15.2653 15 15.5197 15.1054 15.7072 15.2929C15.8948 15.4804 16.0001 15.7348 16.0001 16C16.0001 16.2652 15.8948 16.5196 15.7072 16.7071C15.5197 16.8946 15.2653 17 15.0001 17H13.0001V21H18.0001C18.7958 21 19.5588 20.6839 20.1214 20.1213C20.684 19.5587 21.0001 18.7956 21.0001 18V12.58C20.3695 12.8562 19.6886 12.9992 19.0001 13C18.1845 13.0004 17.3811 12.8013 16.6601 12.42Z" fill="currentColor"/>
  </symbol>
  <symbol id="ic_store_room" viewBox="0 0 24 24">
    <path d="M7 8H10C10.2652 8 10.5196 7.89464 10.7071 7.70711C10.8946 7.51957 11 7.26522 11 7V5C11 4.73478 10.8946 4.48043 10.7071 4.29289C10.5196 4.10536 10.2652 4 10 4H7C6.73478 4 6.48043 4.10536 6.29289 4.29289C6.10536 4.48043 6 4.73478 6 5V7C6 7.26522 6.10536 7.51957 6.29289 7.70711C6.48043 7.89464 6.73478 8 7 8ZM14 16H17C17.2652 16 17.5196 15.8946 17.7071 15.7071C17.8946 15.5196 18 15.2652 18 15V13C18 12.7348 17.8946 12.4804 17.7071 12.2929C17.5196 12.1054 17.2652 12 17 12H14C13.7348 12 13.4804 12.1054 13.2929 12.2929C13.1054 12.4804 13 12.7348 13 13V15C13 15.2652 13.1054 15.5196 13.2929 15.7071C13.4804 15.8946 13.7348 16 14 16ZM7 16H10C10.2652 16 10.5196 15.8946 10.7071 15.7071C10.8946 15.5196 11 15.2652 11 15V13C11 12.7348 10.8946 12.4804 10.7071 12.2929C10.5196 12.1054 10.2652 12 10 12H7C6.73478 12 6.48043 12.1054 6.29289 12.2929C6.10536 12.4804 6 12.7348 6 13V15C6 15.2652 6.10536 15.5196 6.29289 15.7071C6.48043 15.8946 6.73478 16 7 16ZM20 3C19.7348 3 19.4804 3.10536 19.2929 3.29289C19.1054 3.48043 19 3.73478 19 4V9H5V4C5 3.73478 4.89464 3.48043 4.70711 3.29289C4.51957 3.10536 4.26522 3 4 3C3.73478 3 3.48043 3.10536 3.29289 3.29289C3.10536 3.48043 3 3.73478 3 4V20C3 20.2652 3.10536 20.5196 3.29289 20.7071C3.48043 20.8946 3.73478 21 4 21C4.26522 21 4.51957 20.8946 4.70711 20.7071C4.89464 20.5196 5 20.2652 5 20V19H19V20C19 20.2652 19.1054 20.5196 19.2929 20.7071C19.4804 20.8946 19.7348 21 20 21C20.2652 21 20.5196 20.8946 20.7071 20.7071C20.8946 20.5196 21 20.2652 21 20V4C21 3.73478 20.8946 3.48043 20.7071 3.29289C20.5196 3.10536 20.2652 3 20 3ZM19 17H5V11H19V17Z" fill="currentColor"/>
  </symbol>
</svg>
