<!-- JioGames DLS — sunny icons (15 icons) -->
<svg xmlns="http://www.w3.org/2000/svg" style="display:none">
  <symbol id="ic_sunny_clear" viewBox="0 0 24 24">
    <path d="M6.34 16.24L4.93 17.65C4.54 18.04 4.54 18.67 4.93 19.06C5.32 19.45 5.95 19.45 6.34 19.06L7.75 17.65C8.14 17.26 8.14 16.63 7.75 16.24C7.36 15.85 6.73 15.85 6.34 16.24ZM6.34 7.74999C6.73 8.13999 7.36 8.13999 7.75 7.74999C8.14 7.35999 8.14 6.72999 7.75 6.33999L6.34 4.92999C5.95 4.53999 5.32 4.53999 4.93 4.92999C4.54 5.31999 4.54 5.94999 4.93 6.33999L6.34 7.74999ZM6 11.99C6 11.44 5.55 10.99 5 10.99H3C2.45 10.99 2 11.44 2 11.99C2 12.54 2.45 12.99 3 12.99H5C5.55 12.99 6 12.54 6 11.99ZM12 5.98999C12.55 5.98999 13 5.53999 13 4.98999V2.98999C13 2.43999 12.55 1.98999 12 1.98999C11.45 1.98999 11 2.43999 11 2.98999V4.98999C11 5.53999 11.45 5.98999 12 5.98999ZM17.66 7.74999L19.07 6.33999C19.46 5.94999 19.46 5.31999 19.07 4.92999C18.68 4.53999 18.05 4.53999 17.66 4.92999L16.25 6.33999C15.86 6.72999 15.86 7.35999 16.25 7.74999C16.64 8.13999 17.27 8.13999 17.66 7.74999ZM21 10.99H19C18.45 10.99 18 11.44 18 11.99C18 12.54 18.45 12.99 19 12.99H21C21.55 12.99 22 12.54 22 11.99C22 11.44 21.55 10.99 21 10.99ZM17.66 16.23C17.27 15.84 16.64 15.84 16.25 16.23C15.86 16.62 15.86 17.25 16.25 17.64L17.66 19.05C18.05 19.44 18.68 19.44 19.07 19.05C19.46 18.66 19.46 18.03 19.07 17.64L17.66 16.23ZM12 17.99C11.45 17.99 11 18.44 11 18.99V20.99C11 21.54 11.45 21.99 12 21.99C12.55 21.99 13 21.54 13 20.99V18.99C13 18.44 12.55 17.99 12 17.99ZM12 6.98999C9.24 6.98999 7 9.22999 7 11.99C7 14.75 9.24 16.99 12 16.99C14.76 16.99 17 14.75 17 11.99C17 9.22999 14.76 6.98999 12 6.98999Z" fill="currentColor"/>
  </symbol>
  <symbol id="ic_sunny_hazy" viewBox="0 0 24 24">
    <path d="M21 19C20.25 19 19.92 18.7 19.41 18.25C18.82 17.72 18 17 16.5 17C15 17 14.18 17.72 13.59 18.25C13.08 18.7 12.75 19 12 19C11.25 19 10.92 18.7 10.41 18.25C9.82 17.72 9 17 7.5 17C6 17 5.18 17.72 4.59 18.25C4.08 18.7 3.75 19 3 19C2.45 19 2 19.45 2 20C2 20.55 2.45 21 3 21C4.5 21 5.32 20.28 5.91 19.75C6.42 19.3 6.75 19 7.5 19C8.25 19 8.58 19.3 9.09 19.75C9.68 20.28 10.5 21 12 21C13.5 21 14.32 20.28 14.91 19.75C15.42 19.3 15.75 19 16.5 19C17.25 19 17.58 19.3 18.09 19.75C18.68 20.28 19.5 21 21 21C21.55 21 22 20.55 22 20C22 19.45 21.55 19 21 19ZM12 6C12.55 6 13 5.55 13 5V3C13 2.45 12.55 2 12 2C11.45 2 11 2.45 11 3V5C11 5.55 11.45 6 12 6ZM3 13H5C5.55 13 6 12.55 6 12C6 11.45 5.55 11 5 11H3C2.45 11 2 11.45 2 12C2 12.55 2.45 13 3 13ZM6.34 7.76C6.73 8.15 7.36 8.15 7.75 7.76C8.14 7.37 8.14 6.74 7.75 6.35L6.34 4.94C5.95 4.55 5.32 4.55 4.93 4.94C4.54 5.33 4.54 5.96 4.93 6.35L6.34 7.76ZM17.65 7.76L19.06 6.35C19.45 5.96 19.45 5.33 19.06 4.94C18.67 4.55 18.04 4.55 17.65 4.94L16.24 6.35C15.85 6.74 15.85 7.37 16.24 7.76C16.63 8.15 17.26 8.15 17.65 7.76ZM13.62 14.22C13 14.72 12.61 15 11.99 15C11.44 15 10.99 15.45 10.99 16C10.99 16.55 11.44 17 11.99 17C13.34 17 14.19 16.32 14.86 15.78C15.48 15.28 15.87 15 16.49 15C17.11 15 17.49 15.28 18.12 15.78C18.8 16.32 19.64 17 20.99 17C21.54 17 21.99 16.55 21.99 16C21.99 15.45 21.54 15 20.99 15C20.37 15 19.99 14.72 19.36 14.22C18.68 13.68 17.84 13 16.49 13C15.14 13 14.29 13.68 13.62 14.22ZM8.05 15.04C8.42 15.08 8.78 15.14 9.1 15.23C9.43 13.97 10.56 13.03 11.91 12.99C12.03 12.91 12.26 12.73 12.36 12.65C13.13 12.03 14.43 10.99 16.48 10.99C16.62 10.99 16.75 11.01 16.88 11.02C16.43 8.73 14.41 6.99 11.98 6.99C9.22 6.99 6.98 9.23 6.98 11.99C6.98 13.14 7.38 14.19 8.04 15.03L8.05 15.04Z" fill="currentColor"/>
  </symbol>
  <symbol id="ic_sunny_intermittent_clouds" viewBox="0 0 24 24">
    <path d="M12 6C12.55 6 13 5.55 13 5V3C13 2.45 12.55 2 12 2C11.45 2 11 2.45 11 3V5C11 5.55 11.45 6 12 6ZM3 13H5C5.55 13 6 12.55 6 12C6 11.45 5.55 11 5 11H3C2.45 11 2 11.45 2 12C2 12.55 2.45 13 3 13ZM18 12C18 12.55 18.45 13 19 13H21C21.55 13 22 12.55 22 12C22 11.45 21.55 11 21 11H19C18.45 11 18 11.45 18 12ZM6.34 7.76C6.73 8.15 7.36 8.15 7.75 7.76C8.14 7.37 8.14 6.74 7.75 6.35L6.34 4.94C5.95 4.55 5.32 4.55 4.93 4.94C4.54 5.33 4.54 5.96 4.93 6.35L6.34 7.76ZM17.65 7.76L19.06 6.35C19.45 5.96 19.45 5.33 19.06 4.94C18.67 4.55 18.04 4.55 17.65 4.94L16.24 6.35C15.85 6.74 15.85 7.37 16.24 7.76C16.63 8.15 17.26 8.15 17.65 7.76ZM20.49 18.07C20.49 18.07 20.49 18.02 20.49 18C20.49 16.62 19.37 15.5 17.99 15.5C17.12 15.5 16.36 15.94 15.91 16.61C15.7 16.54 15.47 16.5 15.24 16.5C14 16.5 12.99 17.51 12.99 18.75C12.99 18.84 13.01 18.92 13.02 19C13.02 19 13 19 12.99 19C12.16 19 11.49 19.67 11.49 20.5C11.49 21.33 12.16 22 12.99 22H19.99C21.09 22 21.99 21.1 21.99 20C21.99 19.07 21.35 18.29 20.48 18.07H20.49ZM8.5 14C7.63 14 6.87 14.44 6.42 15.11C6.21 15.04 5.98 15 5.75 15C4.51 15 3.5 16.01 3.5 17.25C3.5 17.34 3.52 17.42 3.53 17.5C3.53 17.5 3.51 17.5 3.5 17.5C2.67 17.5 2 18.17 2 19C2 19.83 2.67 20.5 3.5 20.5H9.5C9.5 19.23 10.18 18.12 11.19 17.51C11.27 17.25 11.38 17.01 11.5 16.78C11.5 15.4 9.89 14 8.51 14H8.5ZM7.02 12.25C7.25 12.17 7.5 12.11 7.74 12.06C7.99 12.02 8.24 12 8.49 12C8.71 12 8.92 12.02 9.13 12.05C9.2 12.06 9.27 12.07 9.34 12.08C9.53 12.12 9.73 12.16 9.91 12.23C9.95 12.24 9.99 12.26 10.04 12.28C11.39 12.76 12.54 13.83 13.11 15.09C13.72 14.73 14.41 14.51 15.16 14.5C15.61 14.14 16.12 13.88 16.67 13.71C16.87 13.17 16.99 12.6 16.99 12C16.99 9.24 14.75 7 11.99 7C9.23 7 6.99 9.24 6.99 12C6.99 12.09 7.01 12.17 7.01 12.25H7.02Z" fill="currentColor"/>
  </symbol>
  <symbol id="ic_sunny_mostly_clear" viewBox="0 0 24 24">
    <path d="M12 6C12.55 6 13 5.55 13 5V3C13 2.45 12.55 2 12 2C11.45 2 11 2.45 11 3V5C11 5.55 11.45 6 12 6ZM6 12C6 11.45 5.55 11 5 11H3C2.45 11 2 11.45 2 12C2 12.55 2.45 13 3 13H5C5.55 13 6 12.55 6 12ZM18 12C18 12.55 18.45 13 19 13H21C21.55 13 22 12.55 22 12C22 11.45 21.55 11 21 11H19C18.45 11 18 11.45 18 12ZM6.34 7.76C6.73 8.15 7.36 8.15 7.75 7.76C8.14 7.37 8.14 6.74 7.75 6.35L6.34 4.94C5.95 4.55 5.32 4.55 4.93 4.94C4.54 5.33 4.54 5.96 4.93 6.35L6.34 7.76ZM6.34 16.25L4.93 17.66C4.54 18.05 4.54 18.68 4.93 19.07C5.32 19.46 5.95 19.46 6.34 19.07L7.75 17.66C8.14 17.27 8.14 16.64 7.75 16.25C7.36 15.86 6.73 15.86 6.34 16.25ZM17.65 7.76L19.06 6.35C19.45 5.96 19.45 5.33 19.06 4.94C18.67 4.55 18.04 4.55 17.65 4.94L16.24 6.35C15.85 6.74 15.85 7.37 16.24 7.76C16.63 8.15 17.26 8.15 17.65 7.76ZM15.16 13.5C15.67 13.08 16.28 12.8 16.92 12.64C16.95 12.43 16.98 12.22 16.98 12C16.98 9.24 14.74 7 11.98 7C9.22 7 6.98 9.24 6.98 12C6.98 14.33 8.58 16.27 10.73 16.82C10.87 16.71 11.01 16.6 11.16 16.5C11.68 14.78 13.27 13.53 15.15 13.49L15.16 13.5ZM20.48 17.07C20.48 17.07 20.48 17.02 20.48 17C20.48 15.62 19.36 14.5 17.98 14.5C17.11 14.5 16.35 14.94 15.9 15.61C15.69 15.54 15.46 15.5 15.23 15.5C13.99 15.5 12.98 16.51 12.98 17.75C12.98 17.84 13 17.92 13.01 18C13.01 18 12.99 18 12.98 18C12.15 18 11.48 18.67 11.48 19.5C11.48 20.33 12.15 21 12.98 21H19.98C21.08 21 21.98 20.1 21.98 19C21.98 18.07 21.34 17.29 20.47 17.07H20.48Z" fill="currentColor"/>
  </symbol>
  <symbol id="ic_sunny_mostly_clear_showers" viewBox="0 0 24 24">
    <path d="M12 6C12.55 6 13 5.55 13 5V3C13 2.45 12.55 2 12 2C11.45 2 11 2.45 11 3V5C11 5.55 11.45 6 12 6ZM6 12C6 11.45 5.55 11 5 11H3C2.45 11 2 11.45 2 12C2 12.55 2.45 13 3 13H5C5.55 13 6 12.55 6 12ZM6.34 7.76C6.73 8.15 7.36 8.15 7.75 7.76C8.14 7.37 8.14 6.74 7.75 6.35L6.34 4.94C5.95 4.55 5.32 4.55 4.93 4.94C4.54 5.33 4.54 5.96 4.93 6.35L6.34 7.76ZM6.34 16.25L4.93 17.66C4.54 18.05 4.54 18.68 4.93 19.07C5.32 19.46 5.95 19.46 6.34 19.07L7.75 17.66C8.14 17.27 8.14 16.64 7.75 16.25C7.36 15.86 6.73 15.86 6.34 16.25ZM17.65 7.76L19.06 6.35C19.45 5.96 19.45 5.33 19.06 4.94C18.67 4.55 18.04 4.55 17.65 4.94L16.24 6.35C15.85 6.74 15.85 7.37 16.24 7.76C16.63 8.15 17.26 8.15 17.65 7.76ZM13.19 18.4L11.69 20.4C11.36 20.84 11.45 21.47 11.89 21.8C12.07 21.93 12.28 22 12.49 22C12.79 22 13.09 21.86 13.29 21.6L14.79 19.6C15.12 19.16 15.03 18.53 14.59 18.2C14.15 17.87 13.52 17.96 13.19 18.4ZM17.19 18.4L15.69 20.4C15.36 20.84 15.45 21.47 15.89 21.8C16.07 21.93 16.28 22 16.49 22C16.79 22 17.09 21.86 17.29 21.6L18.79 19.6C19.12 19.16 19.03 18.53 18.59 18.2C18.15 17.87 17.52 17.96 17.19 18.4ZM15.16 9.5C15.41 9.3 15.68 9.14 15.96 8.99C15.05 7.79 13.61 6.99 11.99 6.99C9.23 6.99 6.99 9.23 6.99 11.99C6.99 13.89 8.06 15.52 9.61 16.36C9.54 16.08 9.49 15.79 9.49 15.49C9.49 14.22 10.17 13.11 11.18 12.5C11.7 10.78 13.29 9.53 15.17 9.49L15.16 9.5ZM20.48 13.07C20.48 13.07 20.48 13.02 20.48 13C20.48 11.62 19.36 10.5 17.98 10.5C17.11 10.5 16.35 10.94 15.9 11.61C15.69 11.54 15.46 11.5 15.23 11.5C13.99 11.5 12.98 12.51 12.98 13.75C12.98 13.84 13 13.92 13.01 14C13.01 14 12.99 14 12.98 14C12.15 14 11.48 14.67 11.48 15.5C11.48 16.33 12.15 17 12.98 17H19.98C21.08 17 21.98 16.1 21.98 15C21.98 14.07 21.34 13.29 20.47 13.07H20.48Z" fill="currentColor"/>
  </symbol>
  <symbol id="ic_sunny_mostly_cloudy" viewBox="0 0 24 24">
    <path d="M12.0002 6C12.5502 6 13.0002 5.55 13.0002 5V3C13.0002 2.45 12.5502 2 12.0002 2C11.4502 2 11.0002 2.45 11.0002 3V5C11.0002 5.55 11.4502 6 12.0002 6ZM18.0002 12C18.0002 12.55 18.4502 13 19.0002 13H21.0002C21.5502 13 22.0002 12.55 22.0002 12C22.0002 11.45 21.5502 11 21.0002 11H19.0002C18.4502 11 18.0002 11.45 18.0002 12ZM6.34023 7.76C6.73023 8.15 7.36023 8.15 7.75023 7.76C8.14023 7.37 8.14023 6.74 7.75023 6.35L6.34023 4.94C5.95023 4.55 5.32023 4.55 4.93023 4.94C4.54023 5.33 4.54023 5.96 4.93023 6.35L6.34023 7.76ZM17.6502 7.76L19.0602 6.35C19.4502 5.96 19.4502 5.33 19.0602 4.94C18.6702 4.55 18.0402 4.55 17.6502 4.94L16.2402 6.35C15.8502 6.74 15.8502 7.37 16.2402 7.76C16.6302 8.15 17.2602 8.15 17.6502 7.76ZM19.9002 16.16C19.5102 14.36 17.9102 13.01 15.9902 13.01C14.4902 13.01 13.2002 13.84 12.5202 15.06C12.3502 15.03 12.1702 15.01 11.9902 15.01C10.3302 15.01 8.99023 16.35 8.99023 18.01C7.89023 18.01 6.99023 18.91 6.99023 20.01C6.99023 21.11 7.89023 22.01 8.99023 22.01H18.9902C20.6502 22.01 21.9902 20.67 21.9902 19.01C21.9902 17.67 21.1102 16.55 19.9002 16.16ZM12.8502 11.92C13.7802 11.34 14.8702 11.01 16.0002 11.01C16.3102 11.01 16.6102 11.03 16.9102 11.08C16.4702 8.76 14.4502 7.01 12.0002 7.01C10.6002 7.01 9.34023 7.59 8.43023 8.52C8.45023 8.52 8.48023 8.52 8.50023 8.52C10.6002 8.52 12.3602 9.98 12.8502 11.93V11.92ZM11.0802 13.11C11.0802 13.11 11.0202 13.09 10.9902 13.08C10.9902 13.06 10.9902 13.03 10.9902 13.01C10.9902 11.63 9.87023 10.51 8.49023 10.51C7.62023 10.51 6.86023 10.95 6.41023 11.62C6.20023 11.55 5.97023 11.51 5.74023 11.51C4.50023 11.51 3.49023 12.52 3.49023 13.76C3.49023 13.85 3.51023 13.93 3.52023 14.01C3.52023 14.01 3.50023 14.01 3.49023 14.01C2.66023 14.01 1.99023 14.68 1.99023 15.51C1.99023 16.34 2.66023 17.01 3.49023 17.01H6.35023C6.62023 16.77 6.93023 16.57 7.25023 16.41C7.82023 14.72 9.28024 13.45 11.0602 13.11H11.0802Z" fill="currentColor"/>
  </symbol>
  <symbol id="ic_sunny_mostly_cloudy_flurries" viewBox="0 0 24 24">
    <path d="M6.93983 4.33008C7.05983 4.87008 7.58983 5.21008 8.12983 5.09008C8.66983 4.97008 9.00983 4.44008 8.88983 3.90008L8.66983 2.92008C8.54983 2.38008 8.01983 2.04008 7.47983 2.16008C6.93983 2.28008 6.59983 2.81008 6.71983 3.35008L6.93983 4.33008ZM3.89983 9.10008L2.91983 9.32008C2.37983 9.44008 2.03983 9.97008 2.15983 10.5101C2.27983 11.0501 2.80983 11.3901 3.34983 11.2701L4.32983 11.0501C4.86983 10.9301 5.20983 10.4001 5.08983 9.86008C4.96983 9.32008 4.43983 8.98008 3.89983 9.10008ZM5.31983 5.46008L4.47983 4.92008C4.00983 4.62008 3.39983 4.76008 3.09983 5.23008C2.79983 5.70008 2.93983 6.31008 3.40983 6.61008L4.24983 7.15008C4.71983 7.45008 5.32983 7.31008 5.62983 6.84008C5.92983 6.37008 5.78983 5.76008 5.31983 5.46008ZM11.1498 5.62008C11.6198 5.92008 12.2298 5.78008 12.5298 5.31008L13.0698 4.47008C13.3698 4.00008 13.2298 3.39008 12.7598 3.09008C12.2898 2.79008 11.6798 2.93008 11.3798 3.40008L10.8398 4.24008C10.5398 4.71008 10.6798 5.32008 11.1498 5.62008ZM10.8698 7.24008C10.9598 7.13008 11.0598 7.03008 11.1598 6.93008C10.6098 6.36008 9.84983 6.00008 8.99983 6.00008C7.33983 6.00008 5.99983 7.34008 5.99983 9.00008C5.99983 9.61008 6.17983 10.1701 6.48983 10.6401C7.18983 8.78008 8.85983 7.42008 10.8698 7.24008ZM19.7698 10.5001C19.3598 8.50008 17.6498 6.99008 15.5998 6.99008C13.9998 6.99008 12.6298 7.92008 11.8898 9.27008C11.7098 9.24008 11.5198 9.21008 11.3298 9.21008C9.55983 9.21008 8.12983 10.7001 8.12983 12.5401C6.94983 12.5401 5.99983 13.5301 5.99983 14.7601C5.99983 15.9901 6.95983 16.9801 8.12983 16.9801H18.7998C20.5698 16.9801 21.9998 15.4901 21.9998 13.6501C21.9998 12.1601 21.0598 10.9201 19.7698 10.4901V10.5001ZM13.2498 18.4901C12.2798 18.4901 11.4998 19.2701 11.4998 20.2401C11.4998 21.2101 12.2798 21.9901 13.2498 21.9901C14.2198 21.9901 14.9998 21.2101 14.9998 20.2401C14.9998 19.2701 14.2198 18.4901 13.2498 18.4901ZM18.2498 18.4901C17.2798 18.4901 16.4998 19.2701 16.4998 20.2401C16.4998 21.2101 17.2798 21.9901 18.2498 21.9901C19.2198 21.9901 19.9998 21.2101 19.9998 20.2401C19.9998 19.2701 19.2198 18.4901 18.2498 18.4901ZM8.24983 18.4901C7.27983 18.4901 6.49983 19.2701 6.49983 20.2401C6.49983 21.2101 7.27983 21.9901 8.24983 21.9901C9.21983 21.9901 9.99983 21.2101 9.99983 20.2401C9.99983 19.2701 9.21983 18.4901 8.24983 18.4901Z" fill="currentColor"/>
  </symbol>
  <symbol id="ic_sunny_mostly_cloudy_showers" viewBox="0 0 24 24">
    <path d="M6.93983 4.33008C7.05983 4.87008 7.58983 5.21008 8.12983 5.09008C8.66983 4.97008 9.00983 4.44008 8.88983 3.90008L8.66983 2.92008C8.54983 2.38008 8.01983 2.04008 7.47983 2.16008C6.93983 2.28008 6.59983 2.81008 6.71983 3.35008L6.93983 4.33008ZM3.89983 9.10008L2.91983 9.32008C2.37983 9.44008 2.03983 9.97008 2.15983 10.5101C2.27983 11.0501 2.80983 11.3901 3.34983 11.2701L4.32983 11.0501C4.86983 10.9301 5.20983 10.4001 5.08983 9.86008C4.96983 9.32008 4.43983 8.98008 3.89983 9.10008ZM5.31983 5.46008L4.47983 4.92008C4.00983 4.62008 3.39983 4.76008 3.09983 5.23008C2.79983 5.70008 2.93983 6.31008 3.40983 6.61008L4.24983 7.15008C4.71983 7.45008 5.32983 7.31008 5.62983 6.84008C5.92983 6.37008 5.78983 5.76008 5.31983 5.46008ZM11.1498 5.62008C11.6198 5.92008 12.2298 5.78008 12.5298 5.31008L13.0698 4.47008C13.3698 4.00008 13.2298 3.39008 12.7598 3.09008C12.2898 2.79008 11.6798 2.93008 11.3798 3.40008L10.8398 4.24008C10.5398 4.71008 10.6798 5.32008 11.1498 5.62008ZM10.8698 7.24008C10.9598 7.13008 11.0598 7.03008 11.1598 6.93008C10.6098 6.36008 9.84983 6.00008 8.99983 6.00008C7.33983 6.00008 5.99983 7.34008 5.99983 9.00008C5.99983 9.61008 6.17983 10.1701 6.48983 10.6401C7.18983 8.78008 8.85983 7.42008 10.8698 7.24008ZM19.7698 10.5001C19.3598 8.50008 17.6498 6.99008 15.5998 6.99008C13.9998 6.99008 12.6298 7.92008 11.8898 9.27008C11.7098 9.24008 11.5198 9.21008 11.3298 9.21008C9.55983 9.21008 8.12983 10.7001 8.12983 12.5401C6.94983 12.5401 5.99983 13.5301 5.99983 14.7601C5.99983 15.9901 6.95983 16.9801 8.12983 16.9801H18.7998C20.5698 16.9801 21.9998 15.4901 21.9998 13.6501C21.9998 12.1601 21.0598 10.9201 19.7698 10.4901V10.5001ZM9.19983 18.4001L7.69983 20.4001C7.36983 20.8401 7.45983 21.4701 7.89983 21.8001C8.07983 21.9301 8.28983 22.0001 8.49983 22.0001C8.79983 22.0001 9.09983 21.8601 9.29983 21.6001L10.7998 19.6001C11.1298 19.1601 11.0398 18.5301 10.5998 18.2001C10.1598 17.8701 9.52983 17.9601 9.19983 18.4001ZM13.1998 18.4001L11.6998 20.4001C11.3698 20.8401 11.4598 21.4701 11.8998 21.8001C12.0798 21.9301 12.2898 22.0001 12.4998 22.0001C12.7998 22.0001 13.0998 21.8601 13.2998 21.6001L14.7998 19.6001C15.1298 19.1601 15.0398 18.5301 14.5998 18.2001C14.1598 17.8701 13.5298 17.9601 13.1998 18.4001ZM17.1998 18.4001L15.6998 20.4001C15.3698 20.8401 15.4598 21.4701 15.8998 21.8001C16.0798 21.9301 16.2898 22.0001 16.4998 22.0001C16.7998 22.0001 17.0998 21.8601 17.2998 21.6001L18.7998 19.6001C19.1298 19.1601 19.0398 18.5301 18.5998 18.2001C18.1598 17.8701 17.5298 17.9601 17.1998 18.4001Z" fill="currentColor"/>
  </symbol>
  <symbol id="ic_sunny_mostly_cloudy_snow" viewBox="0 0 24 24">
    <path d="M6.93983 4.33008C7.05983 4.87008 7.58983 5.21008 8.12983 5.09008C8.66983 4.97008 9.00983 4.44008 8.88983 3.90008L8.66983 2.92008C8.54983 2.38008 8.01983 2.04008 7.47983 2.16008C6.93983 2.28008 6.59983 2.81008 6.71983 3.35008L6.93983 4.33008ZM5.08983 9.86008C4.96983 9.32008 4.43983 8.98008 3.89983 9.10008L2.91983 9.32008C2.37983 9.44008 2.03983 9.97008 2.15983 10.5101C2.27983 11.0501 2.80983 11.3901 3.34983 11.2701L4.32983 11.0501C4.86983 10.9301 5.20983 10.4001 5.08983 9.86008ZM3.39983 6.61008L4.23983 7.15008C4.70983 7.45008 5.31983 7.31008 5.61983 6.84008C5.91983 6.37008 5.77983 5.76008 5.30983 5.46008L4.46983 4.92008C3.99983 4.62008 3.38983 4.76008 3.08983 5.23008C2.78983 5.70008 2.92983 6.31008 3.39983 6.61008ZM11.1498 5.62008C11.6198 5.92008 12.2298 5.78008 12.5298 5.31008L13.0698 4.47008C13.3698 4.00008 13.2298 3.39008 12.7598 3.09008C12.2898 2.79008 11.6798 2.93008 11.3798 3.40008L10.8398 4.24008C10.5398 4.71008 10.6798 5.32008 11.1498 5.62008ZM10.8698 7.24008C10.9598 7.13008 11.0598 7.03008 11.1598 6.93008C10.6098 6.36008 9.84983 6.00008 8.99983 6.00008C7.33983 6.00008 5.99983 7.34008 5.99983 9.00008C5.99983 9.61008 6.17983 10.1701 6.48983 10.6401C7.18983 8.78008 8.85983 7.42008 10.8698 7.24008ZM19.7698 10.5001C19.3598 8.50008 17.6498 6.99008 15.5998 6.99008C13.9998 6.99008 12.6298 7.92008 11.8898 9.27008C11.7098 9.24008 11.5198 9.21008 11.3298 9.21008C9.55983 9.21008 8.12983 10.7001 8.12983 12.5401C6.94983 12.5401 5.99983 13.5301 5.99983 14.7601C5.99983 15.9901 6.95983 16.9801 8.12983 16.9801H18.7998C20.5698 16.9801 21.9998 15.4901 21.9998 13.6501C21.9998 12.1601 21.0598 10.9201 19.7698 10.4901V10.5001ZM20.7098 18.2901C20.3198 17.9001 19.6898 17.9001 19.2998 18.2901L19.0098 18.5801L18.7198 18.2901C18.3298 17.9001 17.6998 17.9001 17.3098 18.2901C16.9198 18.6801 16.9198 19.3101 17.3098 19.7001L17.5998 19.9901L17.3098 20.2801C16.9198 20.6701 16.9198 21.3001 17.3098 21.6901C17.5098 21.8901 17.7598 21.9801 18.0198 21.9801C18.2798 21.9801 18.5298 21.8801 18.7298 21.6901L19.0198 21.4001L19.3098 21.6901C19.5098 21.8901 19.7598 21.9801 20.0198 21.9801C20.2798 21.9801 20.5298 21.8801 20.7298 21.6901C21.1198 21.3001 21.1198 20.6701 20.7298 20.2801L20.4398 19.9901L20.7298 19.7001C21.1198 19.3101 21.1198 18.6801 20.7298 18.2901H20.7098ZM14.7098 18.2901C14.3198 17.9001 13.6898 17.9001 13.2998 18.2901L13.0098 18.5801L12.7198 18.2901C12.3298 17.9001 11.6998 17.9001 11.3098 18.2901C10.9198 18.6801 10.9198 19.3101 11.3098 19.7001L11.5998 19.9901L11.3098 20.2801C10.9198 20.6701 10.9198 21.3001 11.3098 21.6901C11.5098 21.8901 11.7598 21.9801 12.0198 21.9801C12.2798 21.9801 12.5298 21.8801 12.7298 21.6901L13.0198 21.4001L13.3098 21.6901C13.5098 21.8901 13.7598 21.9801 14.0198 21.9801C14.2798 21.9801 14.5298 21.8801 14.7298 21.6901C15.1198 21.3001 15.1198 20.6701 14.7298 20.2801L14.4398 19.9901L14.7298 19.7001C15.1198 19.3101 15.1198 18.6801 14.7298 18.2901H14.7098ZM8.70983 18.2901C8.31983 17.9001 7.68983 17.9001 7.29983 18.2901L7.00983 18.5801L6.71983 18.2901C6.32983 17.9001 5.69983 17.9001 5.30983 18.2901C4.91983 18.6801 4.91983 19.3101 5.30983 19.7001L5.59983 19.9901L5.30983 20.2801C4.91983 20.6701 4.91983 21.3001 5.30983 21.6901C5.50983 21.8901 5.75983 21.9801 6.01983 21.9801C6.27983 21.9801 6.52983 21.8801 6.72983 21.6901L7.01983 21.4001L7.30983 21.6901C7.50983 21.8901 7.75983 21.9801 8.01983 21.9801C8.27983 21.9801 8.52983 21.8801 8.72983 21.6901C9.11983 21.3001 9.11983 20.6701 8.72983 20.2801L8.43983 19.9901L8.72983 19.7001C9.11983 19.3101 9.11983 18.6801 8.72983 18.2901H8.70983Z" fill="currentColor"/>
  </symbol>
  <symbol id="ic_sunny_mostly_cloudy_thunderstorms" viewBox="0 0 24 24">
    <path d="M6.93983 4.33008C7.05983 4.87008 7.58983 5.21008 8.12983 5.09008C8.66983 4.97008 9.00983 4.44008 8.88983 3.90008L8.66983 2.92008C8.54983 2.38008 8.01983 2.04008 7.47983 2.16008C6.93983 2.28008 6.59983 2.81008 6.71983 3.35008L6.93983 4.33008ZM5.08983 9.86008C4.96983 9.32008 4.43983 8.98008 3.89983 9.10008L2.91983 9.32008C2.37983 9.44008 2.03983 9.97008 2.15983 10.5101C2.27983 11.0501 2.80983 11.3901 3.34983 11.2701L4.32983 11.0501C4.86983 10.9301 5.20983 10.4001 5.08983 9.86008ZM3.39983 6.61008L4.23983 7.15008C4.70983 7.45008 5.31983 7.31008 5.61983 6.84008C5.91983 6.37008 5.77983 5.76008 5.30983 5.46008L4.46983 4.92008C3.99983 4.62008 3.38983 4.76008 3.08983 5.23008C2.78983 5.70008 2.92983 6.31008 3.39983 6.61008ZM11.1498 5.62008C11.6198 5.92008 12.2298 5.78008 12.5298 5.31008L13.0698 4.47008C13.3698 4.00008 13.2298 3.39008 12.7598 3.09008C12.2898 2.79008 11.6798 2.93008 11.3798 3.40008L10.8398 4.24008C10.5398 4.71008 10.6798 5.32008 11.1498 5.62008ZM10.8698 7.24008C10.9598 7.13008 11.0598 7.03008 11.1598 6.93008C10.6098 6.36008 9.84983 6.00008 8.99983 6.00008C7.33983 6.00008 5.99983 7.34008 5.99983 9.00008C5.99983 9.61008 6.17983 10.1701 6.48983 10.6401C7.18983 8.78008 8.85983 7.42008 10.8698 7.24008ZM6.69983 18.4001L5.19983 20.4001C4.86983 20.8401 4.95983 21.4701 5.39983 21.8001C5.57983 21.9301 5.78983 22.0001 5.99983 22.0001C6.29983 22.0001 6.59983 21.8601 6.79983 21.6001L8.29983 19.6001C8.62983 19.1601 8.53983 18.5301 8.09983 18.2001C7.65983 17.8701 7.02983 17.9601 6.69983 18.4001ZM10.6998 18.4001L9.19983 20.4001C8.86983 20.8401 8.95983 21.4701 9.39983 21.8001C9.57983 21.9301 9.78983 22.0001 9.99983 22.0001C10.2998 22.0001 10.5998 21.8601 10.7998 21.6001L12.2998 19.6001C12.6298 19.1601 12.5398 18.5301 12.0998 18.2001C11.6598 17.8701 11.0298 17.9601 10.6998 18.4001ZM14.6998 18.4001L13.1998 20.4001C12.8698 20.8401 12.9598 21.4701 13.3998 21.8001C13.5798 21.9301 13.7898 22.0001 13.9998 22.0001C14.2998 22.0001 14.5998 21.8601 14.7998 21.6001L16.2998 19.6001C16.6298 19.1601 16.5398 18.5301 16.0998 18.2001C15.6598 17.8701 15.0298 17.9601 14.6998 18.4001ZM8.12983 17.0001H14.9998C14.9998 16.3601 15.1998 15.7301 15.5998 15.2001L18.5998 11.2001C18.8898 10.8101 19.2798 10.5101 19.7098 10.3001C19.2198 8.40008 17.5798 7.00008 15.5998 7.00008C13.9998 7.00008 12.6298 7.93008 11.8898 9.28008C11.7098 9.25008 11.5198 9.22008 11.3298 9.22008C9.55983 9.22008 8.12983 10.7101 8.12983 12.5501C6.94983 12.5501 5.99983 13.5401 5.99983 14.7701C5.99983 16.0001 6.95983 16.9901 8.12983 16.9901V17.0001ZM22.3898 16.5501C22.2198 16.2101 21.8698 16.0001 21.4998 16.0001H19.9998L21.7998 13.6001C22.1298 13.1601 22.0398 12.5301 21.5998 12.2001C21.1598 11.8701 20.5298 11.9601 20.1998 12.4001L17.1998 16.4001C16.9698 16.7001 16.9398 17.1101 17.1098 17.4501C17.2798 17.7901 17.6298 18.0001 17.9998 18.0001H19.4998L17.6998 20.4001C17.3698 20.8401 17.4598 21.4701 17.8998 21.8001C18.0798 21.9301 18.2898 22.0001 18.4998 22.0001C18.7998 22.0001 19.0998 21.8601 19.2998 21.6001L22.2998 17.6001C22.5298 17.3001 22.5598 16.8901 22.3898 16.5501Z" fill="currentColor"/>
  </symbol>
  <symbol id="ic_sunny_partly_cloudy" viewBox="0 0 24 24">
    <path d="M8.40005 5.92005C8.61005 6.43005 9.20005 6.67005 9.71005 6.46005C10.22 6.25005 10.46 5.66005 10.25 5.15005L9.48005 3.30005C9.27005 2.79005 8.68005 2.55005 8.17005 2.76005C7.66005 2.97005 7.42005 3.56005 7.63005 4.07005L8.40005 5.92005ZM5.15005 13.76L3.30005 14.53C2.79005 14.74 2.55005 15.33 2.76005 15.84C2.97005 16.35 3.56005 16.59 4.07005 16.38L5.92005 15.61C6.43005 15.4 6.67005 14.81 6.46005 14.3C6.25005 13.79 5.66005 13.55 5.15005 13.76ZM18.85 10.25L20.7 9.48005C21.21 9.27005 21.45 8.68005 21.24 8.17005C21.03 7.66005 20.44 7.42005 19.93 7.63005L18.08 8.40005C17.57 8.61005 17.33 9.20005 17.54 9.71005C17.75 10.22 18.34 10.46 18.85 10.25ZM5.92005 8.40005L4.07005 7.63005C3.56005 7.42005 2.97005 7.66005 2.76005 8.17005C2.55005 8.68005 2.79005 9.27005 3.30005 9.48005L5.15005 10.25C5.66005 10.46 6.25005 10.22 6.46005 9.71005C6.67005 9.20005 6.43005 8.61005 5.92005 8.40005ZM14.3 6.46005C14.81 6.67005 15.4 6.43005 15.61 5.92005L16.38 4.07005C16.59 3.56005 16.35 2.97005 15.84 2.76005C15.33 2.55005 14.74 2.79005 14.53 3.30005L13.76 5.15005C13.55 5.66005 13.79 6.25005 14.3 6.46005ZM11.53 13.02C12.66 11.75 14.28 11 16 11C16.31 11 16.61 11.02 16.91 11.07C16.47 8.75005 14.45 7.00005 12 7.00005C9.24005 7.00005 7.00005 9.24005 7.00005 12C7.00005 13.13 7.39005 14.16 8.02005 14.99C8.84005 13.9 10.1 13.15 11.53 13.02ZM19.91 16.15C19.52 14.35 17.92 13 16 13C14.5 13 13.21 13.83 12.53 15.05C12.36 15.02 12.18 15 12 15C10.34 15 9.00005 16.34 9.00005 18C7.90005 18 7.00005 18.9 7.00005 20C7.00005 21.1 7.90005 22 9.00005 22H19C20.66 22 22 20.66 22 19C22 17.66 21.12 16.54 19.91 16.15Z" fill="currentColor"/>
  </symbol>
  <symbol id="ic_sunny_partly_cloudy_flurries" viewBox="0 0 24 24">
    <path d="M10 5C10.55 5 11 4.55 11 4V3C11 2.45 10.55 2 10 2C9.45 2 9 2.45 9 3V4C9 4.55 9.45 5 10 5ZM5 10C5 9.45 4.55 9 4 9H3C2.45 9 2 9.45 2 10C2 10.55 2.45 11 3 11H4C4.55 11 5 10.55 5 10ZM5.05 6.46C5.44 6.85 6.07 6.85 6.46 6.46C6.85 6.07 6.85 5.44 6.46 5.05L5.75 4.34C5.36 3.95 4.73 3.95 4.34 4.34C3.95 4.73 3.95 5.36 4.34 5.75L5.05 6.46ZM5.05 13.53L4.34 14.24C3.95 14.63 3.95 15.26 4.34 15.65C4.73 16.04 5.36 16.04 5.75 15.65L6.46 14.94C6.85 14.55 6.85 13.92 6.46 13.53C6.07 13.14 5.44 13.14 5.05 13.53ZM13.54 6.46C13.93 6.85 14.56 6.85 14.95 6.46L15.66 5.75C16.05 5.36 16.05 4.73 15.66 4.34C15.27 3.95 14.64 3.95 14.25 4.34L13.54 5.05C13.15 5.44 13.15 6.07 13.54 6.46ZM12.79 8.81C13.01 8.56 13.26 8.34 13.53 8.13C12.86 6.87 11.54 6 10.01 6C7.8 6 6.01 7.79 6.01 10C6.01 11.3 6.64 12.45 7.61 13.18C7.96 12.63 8.44 12.18 9.01 11.88C9.59 10.24 11.04 9.03 12.79 8.81ZM20.19 11.8C19.85 10.2 18.47 9 16.8 9C15.5 9 14.38 9.74 13.79 10.82C13.64 10.79 13.49 10.77 13.33 10.77C11.89 10.77 10.73 11.96 10.73 13.44C9.77 13.44 9 14.24 9 15.22C9 16.2 9.78 17 10.73 17H19.4C20.84 17 22 15.81 22 14.33C22 13.14 21.23 12.14 20.19 11.8ZM12.75 18.5C11.78 18.5 11 19.28 11 20.25C11 21.22 11.78 22 12.75 22C13.72 22 14.5 21.22 14.5 20.25C14.5 19.28 13.72 18.5 12.75 18.5ZM17.75 18.5C16.78 18.5 16 19.28 16 20.25C16 21.22 16.78 22 17.75 22C18.72 22 19.5 21.22 19.5 20.25C19.5 19.28 18.72 18.5 17.75 18.5Z" fill="currentColor"/>
  </symbol>
  <symbol id="ic_sunny_partly_cloudy_showers" viewBox="0 0 24 24">
    <path d="M10 5C10.55 5 11 4.55 11 4V3C11 2.45 10.55 2 10 2C9.45 2 9 2.45 9 3V4C9 4.55 9.45 5 10 5ZM5 10C5 9.45 4.55 9 4 9H3C2.45 9 2 9.45 2 10C2 10.55 2.45 11 3 11H4C4.55 11 5 10.55 5 10ZM5.05 6.46C5.44 6.85 6.07 6.85 6.46 6.46C6.85 6.07 6.85 5.44 6.46 5.05L5.75 4.34C5.36 3.95 4.73 3.95 4.34 4.34C3.95 4.73 3.95 5.36 4.34 5.75L5.05 6.46ZM5.05 13.53L4.34 14.24C3.95 14.63 3.95 15.26 4.34 15.65C4.73 16.04 5.36 16.04 5.75 15.65L6.46 14.94C6.85 14.55 6.85 13.92 6.46 13.53C6.07 13.14 5.44 13.14 5.05 13.53ZM13.54 6.46C13.93 6.85 14.56 6.85 14.95 6.46L15.66 5.75C16.05 5.36 16.05 4.73 15.66 4.34C15.27 3.95 14.64 3.95 14.25 4.34L13.54 5.05C13.15 5.44 13.15 6.07 13.54 6.46ZM12.79 8.81C13.01 8.56 13.26 8.34 13.53 8.13C12.86 6.87 11.54 6 10.01 6C7.8 6 6.01 7.79 6.01 10C6.01 11.3 6.64 12.45 7.61 13.18C7.96 12.63 8.44 12.18 9.01 11.88C9.59 10.24 11.04 9.03 12.79 8.81ZM20.19 11.8C19.85 10.2 18.47 9 16.8 9C15.5 9 14.38 9.74 13.79 10.82C13.64 10.79 13.49 10.77 13.33 10.77C11.89 10.77 10.73 11.96 10.73 13.44C9.77 13.44 9 14.24 9 15.22C9 16.2 9.78 17 10.73 17H19.4C20.84 17 22 15.81 22 14.33C22 13.14 21.23 12.14 20.19 11.8ZM10.2 18.4L8.7 20.4C8.37 20.84 8.46 21.47 8.9 21.8C9.08 21.93 9.29 22 9.5 22C9.8 22 10.1 21.86 10.3 21.6L11.8 19.6C12.13 19.16 12.04 18.53 11.6 18.2C11.16 17.87 10.53 17.96 10.2 18.4ZM14.2 18.4L12.7 20.4C12.37 20.84 12.46 21.47 12.9 21.8C13.08 21.93 13.29 22 13.5 22C13.8 22 14.1 21.86 14.3 21.6L15.8 19.6C16.13 19.16 16.04 18.53 15.6 18.2C15.16 17.87 14.53 17.96 14.2 18.4ZM18.2 18.4L16.7 20.4C16.37 20.84 16.46 21.47 16.9 21.8C17.08 21.93 17.29 22 17.5 22C17.8 22 18.1 21.86 18.3 21.6L19.8 19.6C20.13 19.16 20.04 18.53 19.6 18.2C19.16 17.87 18.53 17.96 18.2 18.4Z" fill="currentColor"/>
  </symbol>
  <symbol id="ic_sunny_partly_cloudy_snow" viewBox="0 0 24 24">
    <path d="M10 5C10.55 5 11 4.55 11 4V3C11 2.45 10.55 2 10 2C9.45 2 9 2.45 9 3V4C9 4.55 9.45 5 10 5ZM5 10C5 9.45 4.55 9 4 9H3C2.45 9 2 9.45 2 10C2 10.55 2.45 11 3 11H4C4.55 11 5 10.55 5 10ZM5.05 6.46C5.44 6.85 6.07 6.85 6.46 6.46C6.85 6.07 6.85 5.44 6.46 5.05L5.75 4.34C5.36 3.95 4.73 3.95 4.34 4.34C3.95 4.73 3.95 5.36 4.34 5.75L5.05 6.46ZM5.05 13.53L4.34 14.24C3.95 14.63 3.95 15.26 4.34 15.65C4.73 16.04 5.36 16.04 5.75 15.65L6.46 14.94C6.85 14.55 6.85 13.92 6.46 13.53C6.07 13.14 5.44 13.14 5.05 13.53ZM13.54 6.46C13.93 6.85 14.56 6.85 14.95 6.46L15.66 5.75C16.05 5.36 16.05 4.73 15.66 4.34C15.27 3.95 14.64 3.95 14.25 4.34L13.54 5.05C13.15 5.44 13.15 6.07 13.54 6.46ZM12.79 8.81C13.01 8.56 13.26 8.34 13.53 8.13C12.86 6.87 11.54 6 10.01 6C7.8 6 6.01 7.79 6.01 10C6.01 11.3 6.64 12.45 7.61 13.18C7.96 12.63 8.44 12.18 9.01 11.88C9.59 10.24 11.04 9.03 12.79 8.81ZM20.19 11.8C19.85 10.2 18.47 9 16.8 9C15.5 9 14.38 9.74 13.79 10.82C13.64 10.79 13.49 10.77 13.33 10.77C11.89 10.77 10.73 11.96 10.73 13.44C9.77 13.44 9 14.24 9 15.22C9 16.2 9.78 17 10.73 17H19.4C20.84 17 22 15.81 22 14.33C22 13.14 21.23 12.14 20.19 11.8ZM19.71 18.29C19.32 17.9 18.69 17.9 18.3 18.29L18.01 18.58L17.72 18.29C17.33 17.9 16.7 17.9 16.31 18.29C15.92 18.68 15.92 19.31 16.31 19.7L16.6 19.99L16.31 20.28C15.92 20.67 15.92 21.3 16.31 21.69C16.51 21.89 16.76 21.98 17.02 21.98C17.28 21.98 17.53 21.88 17.73 21.69L18.02 21.4L18.31 21.69C18.51 21.89 18.76 21.98 19.02 21.98C19.28 21.98 19.53 21.88 19.73 21.69C20.12 21.3 20.12 20.67 19.73 20.28L19.44 19.99L19.73 19.7C20.12 19.31 20.12 18.68 19.73 18.29H19.71ZM13.71 18.29C13.32 17.9 12.69 17.9 12.3 18.29L12.01 18.58L11.72 18.29C11.33 17.9 10.7 17.9 10.31 18.29C9.92 18.68 9.92 19.31 10.31 19.7L10.6 19.99L10.31 20.28C9.92 20.67 9.92 21.3 10.31 21.69C10.51 21.89 10.76 21.98 11.02 21.98C11.28 21.98 11.53 21.88 11.73 21.69L12.02 21.4L12.31 21.69C12.51 21.89 12.76 21.98 13.02 21.98C13.28 21.98 13.53 21.88 13.73 21.69C14.12 21.3 14.12 20.67 13.73 20.28L13.44 19.99L13.73 19.7C14.12 19.31 14.12 18.68 13.73 18.29H13.71Z" fill="currentColor"/>
  </symbol>
  <symbol id="ic_sunny_partly_cloudy_thunderstorms" viewBox="0 0 24 24">
    <path d="M10 5C10.55 5 11 4.55 11 4V3C11 2.45 10.55 2 10 2C9.45 2 9 2.45 9 3V4C9 4.55 9.45 5 10 5ZM5 10C5 9.45 4.55 9 4 9H3C2.45 9 2 9.45 2 10C2 10.55 2.45 11 3 11H4C4.55 11 5 10.55 5 10ZM5.05 6.46C5.44 6.85 6.07 6.85 6.46 6.46C6.85 6.07 6.85 5.44 6.46 5.05L5.75 4.34C5.36 3.95 4.73 3.95 4.34 4.34C3.95 4.73 3.95 5.36 4.34 5.75L5.05 6.46ZM5.05 13.53L4.34 14.24C3.95 14.63 3.95 15.26 4.34 15.65C4.73 16.04 5.36 16.04 5.75 15.65L6.46 14.94C6.85 14.55 6.85 13.92 6.46 13.53C6.07 13.14 5.44 13.14 5.05 13.53ZM13.54 6.46C13.93 6.85 14.56 6.85 14.95 6.46L15.66 5.75C16.05 5.36 16.05 4.73 15.66 4.34C15.27 3.95 14.64 3.95 14.25 4.34L13.54 5.05C13.15 5.44 13.15 6.07 13.54 6.46ZM12.79 8.81C13.01 8.56 13.26 8.34 13.53 8.13C12.86 6.87 11.54 6 10.01 6C7.8 6 6.01 7.79 6.01 10C6.01 11.3 6.64 12.45 7.61 13.18C7.96 12.63 8.44 12.18 9.01 11.88C9.59 10.24 11.04 9.03 12.79 8.81ZM10.21 18.4L8.71 20.4C8.38 20.84 8.47 21.47 8.91 21.8C9.09 21.93 9.3 22 9.51 22C9.81 22 10.11 21.86 10.31 21.6L11.81 19.6C12.14 19.16 12.05 18.53 11.61 18.2C11.17 17.87 10.54 17.96 10.21 18.4ZM14.21 18.4L12.71 20.4C12.38 20.84 12.47 21.47 12.91 21.8C13.09 21.93 13.3 22 13.51 22C13.81 22 14.11 21.86 14.31 21.6L15.81 19.6C16.14 19.16 16.05 18.53 15.61 18.2C15.17 17.87 14.54 17.96 14.21 18.4ZM13.8 10.82C13.65 10.79 13.5 10.77 13.34 10.77C11.9 10.77 10.74 11.96 10.74 13.44C9.78 13.44 9.01 14.24 9.01 15.22C9.01 16.2 9.79 17 10.74 17H15.01C15.01 16.36 15.21 15.73 15.61 15.2L18.61 11.2C18.86 10.86 19.19 10.6 19.55 10.4C18.92 9.56 17.93 9 16.81 9C15.51 9 14.39 9.74 13.8 10.82ZM22.41 16.55C22.24 16.21 21.89 16 21.52 16H20.02L21.82 13.6C22.15 13.16 22.06 12.53 21.62 12.2C21.18 11.87 20.55 11.96 20.22 12.4L17.22 16.4C16.99 16.7 16.96 17.11 17.13 17.45C17.3 17.79 17.65 18 18.02 18H19.52L17.72 20.4C17.39 20.84 17.48 21.47 17.92 21.8C18.1 21.93 18.31 22 18.52 22C18.82 22 19.12 21.86 19.32 21.6L22.32 17.6C22.55 17.3 22.58 16.89 22.41 16.55Z" fill="currentColor"/>
  </symbol>
</svg>
