<!-- JioGames DLS — target icons (2 icons) -->
<svg xmlns="http://www.w3.org/2000/svg" style="display:none">
  <symbol id="ic_target" viewBox="0 0 24 24">
    <path d="M12 10C11.6044 10 11.2178 10.1173 10.8889 10.3371C10.56 10.5568 10.3036 10.8692 10.1522 11.2346C10.0009 11.6001 9.96126 12.0022 10.0384 12.3902C10.1156 12.7781 10.3061 13.1345 10.5858 13.4142C10.8655 13.6939 11.2219 13.8844 11.6098 13.9616C11.9978 14.0387 12.3999 13.9991 12.7654 13.8478C13.1308 13.6964 13.4432 13.44 13.6629 13.1111C13.8827 12.7822 14 12.3956 14 12C14 11.4696 13.7893 10.9609 13.4142 10.5858C13.0391 10.2107 12.5304 10 12 10ZM12 6C10.8133 6 9.65328 6.35189 8.66658 7.01118C7.67989 7.67047 6.91085 8.60754 6.45673 9.7039C6.0026 10.8003 5.88378 12.0067 6.11529 13.1705C6.3468 14.3344 6.91825 15.4035 7.75736 16.2426C8.59648 17.0818 9.66558 17.6532 10.8295 17.8847C11.9933 18.1162 13.1997 17.9974 14.2961 17.5433C15.3925 17.0892 16.3295 16.3201 16.9888 15.3334C17.6481 14.3467 18 13.1867 18 12C18 10.4087 17.3679 8.88258 16.2426 7.75736C15.1174 6.63214 13.5913 6 12 6ZM12 16C11.2089 16 10.4355 15.7654 9.77772 15.3259C9.11993 14.8864 8.60724 14.2616 8.30449 13.5307C8.00174 12.7998 7.92252 11.9956 8.07686 11.2196C8.2312 10.4437 8.61217 9.73098 9.17158 9.17157C9.73099 8.61216 10.4437 8.2312 11.2196 8.07686C11.9956 7.92252 12.7998 8.00173 13.5307 8.30448C14.2616 8.60723 14.8864 9.11992 15.3259 9.77772C15.7654 10.4355 16 11.2089 16 12C16 13.0609 15.5786 14.0783 14.8284 14.8284C14.0783 15.5786 13.0609 16 12 16ZM12 2C10.0222 2 8.08879 2.58649 6.4443 3.6853C4.79981 4.78412 3.51809 6.3459 2.76121 8.17317C2.00433 10.0004 1.8063 12.0111 2.19215 13.9509C2.578 15.8907 3.53041 17.6725 4.92894 19.0711C6.32746 20.4696 8.10929 21.422 10.0491 21.8079C11.9889 22.1937 13.9996 21.9957 15.8268 21.2388C17.6541 20.4819 19.2159 19.2002 20.3147 17.5557C21.4135 15.9112 22 13.9778 22 12C22 10.6868 21.7413 9.38642 21.2388 8.17317C20.7363 6.95991 19.9997 5.85752 19.0711 4.92893C18.1425 4.00035 17.0401 3.26375 15.8268 2.7612C14.6136 2.25866 13.3132 2 12 2ZM12 20C10.4178 20 8.87104 19.5308 7.55544 18.6518C6.23985 17.7727 5.21447 16.5233 4.60897 15.0615C4.00347 13.5997 3.84504 11.9911 4.15372 10.4393C4.4624 8.88743 5.22433 7.46197 6.34315 6.34315C7.46197 5.22433 8.88743 4.4624 10.4393 4.15372C11.9911 3.84504 13.5997 4.00346 15.0615 4.60896C16.5233 5.21447 17.7727 6.23984 18.6518 7.55544C19.5308 8.87103 20 10.4177 20 12C20 14.1217 19.1572 16.1566 17.6569 17.6569C16.1566 19.1571 14.1217 20 12 20Z" fill="currentColor"/>
  </symbol>
  <symbol id="ic_target_aim" viewBox="0 0 24 24">
    <path d="M12 9.5C11.5055 9.5 11.0222 9.64662 10.6111 9.92133C10.2 10.196 9.87952 10.5865 9.6903 11.0433C9.50108 11.5001 9.45157 12.0028 9.54804 12.4877C9.6445 12.9727 9.8826 13.4181 10.2322 13.7678C10.5819 14.1174 11.0273 14.3555 11.5123 14.452C11.9972 14.5484 12.4999 14.4989 12.9567 14.3097C13.4135 14.1205 13.804 13.8 14.0787 13.3889C14.3534 12.9778 14.5 12.4945 14.5 12C14.5 11.337 14.2366 10.7011 13.7678 10.2322C13.2989 9.76339 12.663 9.5 12 9.5ZM21 11H19.93C19.7068 9.23998 18.9049 7.60408 17.6504 6.34959C16.3959 5.0951 14.76 4.29319 13 4.07V3C13 2.73478 12.8946 2.48043 12.7071 2.29289C12.5196 2.10536 12.2652 2 12 2C11.7348 2 11.4804 2.10536 11.2929 2.29289C11.1054 2.48043 11 2.73478 11 3V4.07C9.23998 4.29319 7.60408 5.0951 6.34959 6.34959C5.0951 7.60408 4.29319 9.23998 4.07 11H3C2.73478 11 2.48043 11.1054 2.29289 11.2929C2.10536 11.4804 2 11.7348 2 12C2 12.2652 2.10536 12.5196 2.29289 12.7071C2.48043 12.8946 2.73478 13 3 13H4.07C4.29319 14.76 5.0951 16.3959 6.34959 17.6504C7.60408 18.9049 9.23998 19.7068 11 19.93V21C11 21.2652 11.1054 21.5196 11.2929 21.7071C11.4804 21.8946 11.7348 22 12 22C12.2652 22 12.5196 21.8946 12.7071 21.7071C12.8946 21.5196 13 21.2652 13 21V19.93C14.76 19.7068 16.3959 18.9049 17.6504 17.6504C18.9049 16.3959 19.7068 14.76 19.93 13H21C21.2652 13 21.5196 12.8946 21.7071 12.7071C21.8946 12.5196 22 12.2652 22 12C22 11.7348 21.8946 11.4804 21.7071 11.2929C21.5196 11.1054 21.2652 11 21 11ZM17 13H17.91C17.7016 14.2264 17.1171 15.3578 16.2374 16.2374C15.3578 17.1171 14.2264 17.7016 13 17.91V17C13 16.7348 12.8946 16.4804 12.7071 16.2929C12.5196 16.1054 12.2652 16 12 16C11.7348 16 11.4804 16.1054 11.2929 16.2929C11.1054 16.4804 11 16.7348 11 17V17.91C9.77356 17.7016 8.64222 17.1171 7.76256 16.2374C6.8829 15.3578 6.29842 14.2264 6.09 13H7C7.26522 13 7.51957 12.8946 7.70711 12.7071C7.89464 12.5196 8 12.2652 8 12C8 11.7348 7.89464 11.4804 7.70711 11.2929C7.51957 11.1054 7.26522 11 7 11H6.09C6.29842 9.77356 6.8829 8.64222 7.76256 7.76256C8.64222 6.8829 9.77356 6.29842 11 6.09V7C11 7.26522 11.1054 7.51957 11.2929 7.70711C11.4804 7.89464 11.7348 8 12 8C12.2652 8 12.5196 7.89464 12.7071 7.70711C12.8946 7.51957 13 7.26522 13 7V6.09C14.2264 6.29842 15.3578 6.8829 16.2374 7.76256C17.1171 8.64222 17.7016 9.77356 17.91 11H17C16.7348 11 16.4804 11.1054 16.2929 11.2929C16.1054 11.4804 16 11.7348 16 12C16 12.2652 16.1054 12.5196 16.2929 12.7071C16.4804 12.8946 16.7348 13 17 13Z" fill="currentColor"/>
  </symbol>
</svg>
