<!-- JioGames DLS — team icons (2 icons) -->
<svg xmlns="http://www.w3.org/2000/svg" style="display:none">
  <symbol id="ic_team" viewBox="0 0 24 24">
    <path d="M7.00001 11C7.23266 10.996 7.46412 10.9658 7.69001 10.91C7.03406 10.0858 6.62955 9.09002 6.52491 8.04186C6.42027 6.99371 6.61994 5.93761 7.10001 5H7.00001C6.20436 5 5.4413 5.31607 4.87869 5.87868C4.31608 6.44129 4.00001 7.20435 4.00001 8C4.00001 8.79565 4.31608 9.55871 4.87869 10.1213C5.4413 10.6839 6.20436 11 7.00001 11ZM12 11C12.6922 11 13.3689 10.7947 13.9445 10.4101C14.5201 10.0256 14.9687 9.47893 15.2336 8.83939C15.4985 8.19985 15.5678 7.49612 15.4328 6.81719C15.2977 6.13825 14.9644 5.51461 14.4749 5.02513C13.9854 4.53564 13.3618 4.2023 12.6828 4.06725C12.0039 3.9322 11.3002 4.00152 10.6606 4.26642C10.0211 4.53133 9.47445 4.97993 9.08987 5.55551C8.70528 6.13108 8.50001 6.80777 8.50001 7.5C8.50001 8.42826 8.86876 9.3185 9.52514 9.97487C10.1815 10.6313 11.0718 11 12 11ZM17 11C17.7957 11 18.5587 10.6839 19.1213 10.1213C19.6839 9.55871 20 8.79565 20 8C20 7.20435 19.6839 6.44129 19.1213 5.87868C18.5587 5.31607 17.7957 5 17 5H16.9C17.378 5.93641 17.5765 6.99056 17.4719 8.03669C17.3673 9.08282 16.964 10.0768 16.31 10.9C16.5355 10.9592 16.767 10.9927 17 11ZM12 12C10.4087 12 8.88259 12.6321 7.75737 13.7574C6.63215 14.8826 6.00001 16.4087 6.00001 18C6.00001 18.5304 6.21072 19.0391 6.5858 19.4142C6.96087 19.7893 7.46958 20 8.00001 20H16C16.5304 20 17.0392 19.7893 17.4142 19.4142C17.7893 19.0391 18 18.5304 18 18C18 16.4087 17.3679 14.8826 16.2427 13.7574C15.1174 12.6321 13.5913 12 12 12ZM17.31 12C18.1579 12.7524 18.8362 13.6765 19.2999 14.7109C19.7637 15.7453 20.0023 16.8664 20 18C19.9948 18.3378 19.9478 18.6737 19.86 19H20C20.5304 19 21.0392 18.7893 21.4142 18.4142C21.7893 18.0391 22 17.5304 22 17C22.0025 15.7259 21.5184 14.499 20.6468 13.5697C19.7752 12.6404 18.5816 12.079 17.31 12ZM6.69001 12C5.41838 12.079 4.22487 12.6404 3.35322 13.5697C2.48158 14.499 1.99756 15.7259 2.00001 17C2.00001 17.5304 2.21072 18.0391 2.5858 18.4142C2.96087 18.7893 3.46958 19 4.00001 19H4.14001C4.05222 18.6737 4.00519 18.3378 4.00001 18C3.99769 16.8664 4.23632 15.7453 4.70007 14.7109C5.16383 13.6765 5.84212 12.7524 6.69001 12Z" fill="currentColor"/>
  </symbol>
  <symbol id="ic_team_members" viewBox="0 0 24 24">
    <path d="M12 5C12.2967 5 12.5867 4.91203 12.8334 4.7472C13.08 4.58238 13.2723 4.34811 13.3858 4.07403C13.4994 3.79994 13.5291 3.49834 13.4712 3.20737C13.4133 2.91639 13.2704 2.64912 13.0607 2.43934C12.8509 2.22956 12.5836 2.0867 12.2926 2.02882C12.0017 1.97094 11.7001 2.00065 11.426 2.11418C11.1519 2.22771 10.9176 2.41997 10.7528 2.66665C10.588 2.91332 10.5 3.20333 10.5 3.5C10.5 3.89783 10.658 4.27936 10.9393 4.56066C11.2206 4.84197 11.6022 5 12 5ZM18 16C18.2967 16 18.5867 15.912 18.8334 15.7472C19.08 15.5824 19.2723 15.3481 19.3858 15.074C19.4993 14.7999 19.5291 14.4983 19.4712 14.2074C19.4133 13.9164 19.2704 13.6491 19.0607 13.4393C18.8509 13.2296 18.5836 13.0867 18.2926 13.0288C18.0017 12.9709 17.7001 13.0007 17.426 13.1142C17.1519 13.2277 16.9176 13.42 16.7528 13.6666C16.588 13.9133 16.5 14.2033 16.5 14.5C16.5 14.8978 16.658 15.2794 16.9393 15.5607C17.2206 15.842 17.6022 16 18 16ZM6 16C6.29667 16 6.58668 15.912 6.83336 15.7472C7.08003 15.5824 7.27229 15.3481 7.38582 15.074C7.49935 14.7999 7.52906 14.4983 7.47118 14.2074C7.4133 13.9164 7.27044 13.6491 7.06066 13.4393C6.85088 13.2296 6.58361 13.0867 6.29264 13.0288C6.00166 12.9709 5.70006 13.0007 5.42597 13.1142C5.15189 13.2277 4.91762 13.42 4.7528 13.6666C4.58797 13.9133 4.5 14.2033 4.5 14.5C4.5 14.8978 4.65804 15.2794 4.93934 15.5607C5.22064 15.842 5.60218 16 6 16ZM18 17C17.2044 17 16.4413 17.3161 15.8787 17.8787C15.3161 18.4413 15 19.2044 15 20C15 20.2652 15.1054 20.5196 15.2929 20.7071C15.4804 20.8946 15.7348 21 16 21H20C20.2652 21 20.5196 20.8946 20.7071 20.7071C20.8946 20.5196 21 20.2652 21 20C21 19.2044 20.6839 18.4413 20.1213 17.8787C19.5587 17.3161 18.7956 17 18 17ZM6 17C5.20435 17 4.44129 17.3161 3.87868 17.8787C3.31607 18.4413 3 19.2044 3 20C3 20.2652 3.10536 20.5196 3.29289 20.7071C3.48043 20.8946 3.73478 21 4 21H8C8.26522 21 8.51957 20.8946 8.70711 20.7071C8.89464 20.5196 9 20.2652 9 20C9 19.2044 8.68393 18.4413 8.12132 17.8787C7.55871 17.3161 6.79565 17 6 17ZM14.45 15.11L13 14.38V13C13 12.7348 12.8946 12.4804 12.7071 12.2929C12.5196 12.1054 12.2652 12 12 12C11.7348 12 11.4804 12.1054 11.2929 12.2929C11.1054 12.4804 11 12.7348 11 13V14.38L9.55 15.11C9.31448 15.2299 9.13598 15.4381 9.05354 15.6892C8.97109 15.9403 8.99139 16.2138 9.11 16.45C9.1931 16.6149 9.32024 16.7536 9.47733 16.8507C9.63443 16.9478 9.81533 16.9994 10 17C10.1569 17.0019 10.3117 16.964 10.45 16.89L12 16.12L13.55 16.89C13.6883 16.964 13.8431 17.0019 14 17C14.1847 16.9994 14.3656 16.9478 14.5227 16.8507C14.6798 16.7536 14.8069 16.6149 14.89 16.45C15.0086 16.2138 15.0289 15.9403 14.9465 15.6892C14.864 15.4381 14.6855 15.2299 14.45 15.11ZM10 10H14C14.2652 10 14.5196 9.89464 14.7071 9.70711C14.8946 9.51957 15 9.26522 15 9C15 8.20435 14.6839 7.44129 14.1213 6.87868C13.5587 6.31607 12.7956 6 12 6C11.2044 6 10.4413 6.31607 9.87868 6.87868C9.31607 7.44129 9 8.20435 9 9C9 9.26522 9.10536 9.51957 9.29289 9.70711C9.48043 9.89464 9.73478 10 10 10Z" fill="currentColor"/>
  </symbol>
</svg>
