<!-- JioGames DLS — temperature icons (4 icons) -->
<svg xmlns="http://www.w3.org/2000/svg" style="display:none">
  <symbol id="ic_temperature" viewBox="0 0 24 24">
    <path d="M16 14V6C16 4.93913 15.5786 3.92172 14.8285 3.17157C14.0783 2.42143 13.0609 2 12 2C10.9392 2 9.92176 2.42143 9.17161 3.17157C8.42147 3.92172 8.00004 4.93913 8.00004 6V14C7.347 14.8634 6.99565 15.9174 7.00004 17C7.00004 18.3261 7.52682 19.5979 8.46451 20.5355C9.40219 21.4732 10.674 22 12 22C13.3261 22 14.5979 21.4732 15.5356 20.5355C16.4733 19.5979 17 18.3261 17 17C17.0044 15.9174 16.6531 14.8634 16 14ZM12 19C11.4696 19 10.9609 18.7893 10.5858 18.4142C10.2108 18.0391 10 17.5304 10 17C10.0021 16.651 10.0956 16.3086 10.271 16.0068C10.4464 15.7051 10.6978 15.4545 11 15.28V8C11 7.73478 11.1054 7.48043 11.2929 7.29289C11.4805 7.10536 11.7348 7 12 7C12.2653 7 12.5196 7.10536 12.7071 7.29289C12.8947 7.48043 13 7.73478 13 8V15.28C13.3023 15.4545 13.5537 15.7051 13.7291 16.0068C13.9045 16.3086 13.9979 16.651 14 17C14 17.5304 13.7893 18.0391 13.4143 18.4142C13.0392 18.7893 12.5305 19 12 19Z" fill="currentColor"/>
  </symbol>
  <symbol id="ic_temperature_down" viewBox="0 0 24 24">
    <path d="M20.71 16.29C20.6171 16.1963 20.5065 16.1219 20.3846 16.0711C20.2628 16.0203 20.1321 15.9942 20 15.9942C19.868 15.9942 19.7373 16.0203 19.6155 16.0711C19.4936 16.1219 19.383 16.1963 19.29 16.29L19 16.59V5C19 4.73478 18.8947 4.48043 18.7071 4.29289C18.5196 4.10536 18.2653 4 18 4C17.7348 4 17.4805 4.10536 17.2929 4.29289C17.1054 4.48043 17 4.73478 17 5V16.59L16.71 16.29C16.5217 16.1017 16.2663 15.9959 16 15.9959C15.7337 15.9959 15.4783 16.1017 15.29 16.29C15.1017 16.4783 14.9959 16.7337 14.9959 17C14.9959 17.2663 15.1017 17.5217 15.29 17.71L17.29 19.71C17.383 19.8037 17.4936 19.8781 17.6155 19.9289C17.7373 19.9797 17.868 20.0058 18 20.0058C18.1321 20.0058 18.2628 19.9797 18.3846 19.9289C18.5065 19.8781 18.6171 19.8037 18.71 19.71L20.71 17.71C20.8038 17.617 20.8782 17.5064 20.9289 17.3846C20.9797 17.2627 21.0058 17.132 21.0058 17C21.0058 16.868 20.9797 16.7373 20.9289 16.6154C20.8782 16.4936 20.8038 16.383 20.71 16.29ZM12 7C12 5.93913 11.5786 4.92172 10.8285 4.17157C10.0783 3.42143 9.06091 3 8.00004 3C6.93917 3 5.92176 3.42143 5.17161 4.17157C4.42147 4.92172 4.00004 5.93913 4.00004 7V13C3.347 13.8634 2.99565 14.9174 3.00004 16C3.00004 17.3261 3.52682 18.5979 4.46451 19.5355C5.40219 20.4732 6.67396 21 8.00004 21C9.32612 21 10.5979 20.4732 11.5356 19.5355C12.4733 18.5979 13 17.3261 13 16C13.0044 14.9174 12.6531 13.8634 12 13V7ZM8.00004 18C7.46961 18 6.9609 17.7893 6.58583 17.4142C6.21075 17.0391 6.00004 16.5304 6.00004 16C6.00215 15.651 6.09556 15.3086 6.27099 15.0068C6.44642 14.7051 6.69776 14.4545 7.00004 14.28V8C7.00004 7.73478 7.1054 7.48043 7.29293 7.29289C7.48047 7.10536 7.73482 7 8.00004 7C8.26526 7 8.51961 7.10536 8.70715 7.29289C8.89468 7.48043 9.00004 7.73478 9.00004 8V14.28C9.30232 14.4545 9.55366 14.7051 9.72909 15.0068C9.90452 15.3086 9.99793 15.651 10 16C10 16.5304 9.78933 17.0391 9.41425 17.4142C9.03918 17.7893 8.53047 18 8.00004 18Z" fill="currentColor"/>
  </symbol>
  <symbol id="ic_temperature_off" viewBox="0 0 24 24">
    <path d="M20.7141 19.29L4.71409 3.28998C4.52579 3.10167 4.27039 2.99588 4.00409 2.99588C3.73779 2.99588 3.4824 3.10167 3.29409 3.28998C3.10579 3.47828 3 3.73367 3 3.99998C3 4.26628 3.10579 4.52167 3.29409 4.70998L8.00409 9.40998V14C7.23061 15.011 6.87186 16.2789 7.00099 17.5453C7.13012 18.8117 7.7374 19.9812 8.69902 20.8152C9.66064 21.6493 10.9042 22.0852 12.1761 22.0341C13.448 21.9829 14.6526 21.4486 15.5441 20.54C16.1666 19.8999 16.6082 19.1063 16.8241 18.24L19.2941 20.71C19.3871 20.8037 19.4977 20.8781 19.6195 20.9289C19.7414 20.9796 19.8721 21.0058 20.0041 21.0058C20.1361 21.0058 20.2668 20.9796 20.3887 20.9289C20.5105 20.8781 20.6211 20.8037 20.7141 20.71C20.8078 20.617 20.8822 20.5064 20.933 20.3846C20.9838 20.2627 21.0099 20.132 21.0099 20C21.0099 19.868 20.9838 19.7373 20.933 19.6154C20.8822 19.4935 20.8078 19.3829 20.7141 19.29ZM13.4141 17.54C13.3073 17.8273 13.111 18.0727 12.8541 18.24C12.603 18.4094 12.307 18.4999 12.0041 18.4999C11.7012 18.4999 11.4052 18.4094 11.1541 18.24C10.9 18.071 10.7047 17.8272 10.5954 17.5423C10.4861 17.2574 10.4682 16.9455 10.5441 16.65C10.6154 16.3553 10.776 16.0898 11.0041 15.89V12.41L13.0041 14.41V15.89C13.2321 16.0898 13.3928 16.3553 13.4641 16.65C13.5434 16.9443 13.5259 17.2564 13.4141 17.54ZM11.0041 5.99998C11.0041 5.73476 11.1094 5.48041 11.297 5.29287C11.4845 5.10533 11.7389 4.99998 12.0041 4.99998C12.2693 4.99998 12.5237 5.10533 12.7112 5.29287C12.8987 5.48041 13.0041 5.73476 13.0041 5.99998V8.75998L16.0041 11.76V5.99998C16.0047 5.20839 15.7705 4.43442 15.331 3.77605C14.8915 3.11767 14.2665 2.6045 13.5353 2.30149C12.804 1.99848 11.9992 1.91926 11.2229 2.07386C10.4465 2.22846 9.73351 2.60993 9.17409 3.16998C8.88473 3.46484 8.64195 3.80203 8.45409 4.16998L11.0041 6.75998V5.99998Z" fill="currentColor"/>
  </symbol>
  <symbol id="ic_temperature_up" viewBox="0 0 24 24">
    <path d="M20.71 6.29L18.71 4.29C18.6171 4.19627 18.5065 4.12188 18.3846 4.07111C18.2628 4.02034 18.1321 3.9942 18 3.9942C17.868 3.9942 17.7373 4.02034 17.6155 4.07111C17.4936 4.12188 17.383 4.19627 17.29 4.29L15.29 6.29C15.1017 6.4783 14.9959 6.7337 14.9959 7C14.9959 7.13186 15.0219 7.26243 15.0724 7.38425C15.1228 7.50607 15.1968 7.61676 15.29 7.71C15.3833 7.80324 15.494 7.8772 15.6158 7.92766C15.7376 7.97812 15.8682 8.00409 16 8.00409C16.2663 8.00409 16.5217 7.8983 16.71 7.71L17 7.41V19C17 19.2652 17.1054 19.5196 17.2929 19.7071C17.4805 19.8946 17.7348 20 18 20C18.2653 20 18.5196 19.8946 18.7071 19.7071C18.8947 19.5196 19 19.2652 19 19V7.41L19.29 7.71C19.383 7.80373 19.4936 7.87812 19.6155 7.92889C19.7373 7.97966 19.868 8.0058 20 8.0058C20.1321 8.0058 20.2628 7.97966 20.3846 7.92889C20.5065 7.87812 20.6171 7.80373 20.71 7.71C20.8038 7.61704 20.8782 7.50644 20.9289 7.38458C20.9797 7.26272 21.0058 7.13201 21.0058 7C21.0058 6.86799 20.9797 6.73728 20.9289 6.61542C20.8782 6.49356 20.8038 6.38296 20.71 6.29ZM12 7C12 5.93913 11.5786 4.92172 10.8285 4.17157C10.0783 3.42143 9.06091 3 8.00004 3C6.93917 3 5.92176 3.42143 5.17161 4.17157C4.42147 4.92172 4.00004 5.93913 4.00004 7V13C3.347 13.8634 2.99565 14.9174 3.00004 16C3.00004 17.3261 3.52682 18.5979 4.46451 19.5355C5.40219 20.4732 6.67396 21 8.00004 21C9.32612 21 10.5979 20.4732 11.5356 19.5355C12.4733 18.5979 13 17.3261 13 16C13.0044 14.9174 12.6531 13.8634 12 13V7ZM8.00004 18C7.46961 18 6.9609 17.7893 6.58583 17.4142C6.21075 17.0391 6.00004 16.5304 6.00004 16C6.00215 15.651 6.09556 15.3086 6.27099 15.0068C6.44642 14.7051 6.69776 14.4545 7.00004 14.28V8C7.00004 7.73478 7.1054 7.48043 7.29293 7.29289C7.48047 7.10536 7.73482 7 8.00004 7C8.26526 7 8.51961 7.10536 8.70715 7.29289C8.89468 7.48043 9.00004 7.73478 9.00004 8V14.28C9.30232 14.4545 9.55366 14.7051 9.72909 15.0068C9.90452 15.3086 9.99793 15.651 10 16C10 16.5304 9.78933 17.0391 9.41425 17.4142C9.03918 17.7893 8.53047 18 8.00004 18Z" fill="currentColor"/>
  </symbol>
</svg>
