<!-- JioGames DLS — text icons (5 icons) -->
<svg xmlns="http://www.w3.org/2000/svg" style="display:none">
  <symbol id="ic_text" viewBox="0 0 24 24">
    <path d="M20 3H4C3.45 3 3 3.45 3 4V7C3 7.55 3.45 8 4 8C4.55 8 5 7.55 5 7V5H11V19H9C8.45 19 8 19.45 8 20C8 20.55 8.45 21 9 21H15C15.55 21 16 20.55 16 20C16 19.45 15.55 19 15 19H13V5H19V7C19 7.55 19.45 8 20 8C20.55 8 21 7.55 21 7V4C21 3.45 20.55 3 20 3Z" fill="currentColor"/>
  </symbol>
  <symbol id="ic_text_align_center" viewBox="0 0 24 24">
    <path d="M4 7H20C20.55 7 21 6.55 21 6C21 5.45 20.55 5 20 5H4C3.45 5 3 5.45 3 6C3 6.55 3.45 7 4 7ZM20 17H4C3.45 17 3 17.45 3 18C3 18.55 3.45 19 4 19H20C20.55 19 21 18.55 21 18C21 17.45 20.55 17 20 17ZM8 11C7.45 11 7 11.45 7 12C7 12.55 7.45 13 8 13H16C16.55 13 17 12.55 17 12C17 11.45 16.55 11 16 11H8Z" fill="currentColor"/>
  </symbol>
  <symbol id="ic_text_align_justify" viewBox="0 0 24 24">
    <path d="M4 7H20C20.55 7 21 6.55 21 6C21 5.45 20.55 5 20 5H4C3.45 5 3 5.45 3 6C3 6.55 3.45 7 4 7ZM20 17H4C3.45 17 3 17.45 3 18C3 18.55 3.45 19 4 19H20C20.55 19 21 18.55 21 18C21 17.45 20.55 17 20 17ZM20 11H4C3.45 11 3 11.45 3 12C3 12.55 3.45 13 4 13H20C20.55 13 21 12.55 21 12C21 11.45 20.55 11 20 11Z" fill="currentColor"/>
  </symbol>
  <symbol id="ic_text_align_left" viewBox="0 0 24 24">
    <path d="M4 7H20C20.55 7 21 6.55 21 6C21 5.45 20.55 5 20 5H4C3.45 5 3 5.45 3 6C3 6.55 3.45 7 4 7ZM20 17H4C3.45 17 3 17.45 3 18C3 18.55 3.45 19 4 19H20C20.55 19 21 18.55 21 18C21 17.45 20.55 17 20 17ZM4 13H12C12.55 13 13 12.55 13 12C13 11.45 12.55 11 12 11H4C3.45 11 3 11.45 3 12C3 12.55 3.45 13 4 13Z" fill="currentColor"/>
  </symbol>
  <symbol id="ic_text_align_right" viewBox="0 0 24 24">
    <path d="M20 17H4C3.45 17 3 17.45 3 18C3 18.55 3.45 19 4 19H20C20.55 19 21 18.55 21 18C21 17.45 20.55 17 20 17ZM4 7H20C20.55 7 21 6.55 21 6C21 5.45 20.55 5 20 5H4C3.45 5 3 5.45 3 6C3 6.55 3.45 7 4 7ZM20 11H12C11.45 11 11 11.45 11 12C11 12.55 11.45 13 12 13H20C20.55 13 21 12.55 21 12C21 11.45 20.55 11 20 11Z" fill="currentColor"/>
  </symbol>
</svg>
