<!-- JioGames DLS — thinking icons (3 icons) -->
<svg xmlns="http://www.w3.org/2000/svg" style="display:none">
  <symbol id="ic_thinking" viewBox="0 0 24 24">
    <path d="M9 16.5001C9 16.0056 8.85338 15.5223 8.57868 15.1112C8.30397 14.7 7.91353 14.3796 7.45671 14.1904C6.99989 14.0012 6.49723 13.9517 6.01228 14.0481C5.52732 14.1446 5.08187 14.3827 4.73223 14.7323C4.3826 15.0819 4.1445 15.5274 4.04804 16.0124C3.95157 16.4973 4.00108 17 4.1903 17.4568C4.37952 17.9136 4.69995 18.3041 5.11108 18.5788C5.5222 18.8535 6.00555 19.0001 6.5 19.0001C7.16304 19.0001 7.79893 18.7367 8.26777 18.2679C8.73661 17.799 9 17.1631 9 16.5001ZM9.5 19.0001C9.20333 19.0001 8.91332 19.0881 8.66665 19.2529C8.41997 19.4177 8.22771 19.652 8.11418 19.9261C8.00065 20.2001 7.97095 20.5017 8.02882 20.7927C8.0867 21.0837 8.22956 21.351 8.43934 21.5607C8.64912 21.7705 8.91639 21.9134 9.20737 21.9713C9.49834 22.0291 9.79994 21.9994 10.074 21.8859C10.3481 21.7724 10.5824 21.5801 10.7472 21.3334C10.912 21.0868 11 20.7968 11 20.5001C11 20.1023 10.842 19.7207 10.5607 19.4394C10.2794 19.1581 9.89783 19.0001 9.5 19.0001ZM17.5 4.00008C17.3402 3.98972 17.1798 3.98972 17.02 4.00008C16.4972 3.29138 15.7965 2.73333 14.9888 2.38239C14.181 2.03146 13.295 1.90009 12.4202 2.00157C11.5453 2.10306 10.7129 2.4338 10.0069 2.96033C9.301 3.48687 8.74666 4.19051 8.4 5.00008C8.27 5.00008 8.14 5.00008 8 5.00008C6.93914 5.00008 5.92172 5.42151 5.17157 6.17166C4.42143 6.9218 4 7.93922 4 9.00008C4 10.0609 4.42143 11.0784 5.17157 11.8285C5.92172 12.5787 6.93914 13.0001 8 13.0001C8.45342 12.9928 8.90262 12.9117 9.33 12.7601C9.68878 13.6991 10.3223 14.5082 11.1478 15.0817C11.9733 15.6553 12.9525 15.9667 13.9577 15.9753C14.9629 15.9839 15.9473 15.6894 16.7826 15.1301C17.6179 14.5708 18.2651 13.7728 18.64 12.8401C19.702 12.5686 20.628 11.9179 21.2434 11.0109C21.8588 10.1038 22.1212 9.00288 21.981 7.91573C21.8408 6.82857 21.3077 5.83026 20.4823 5.10898C19.6569 4.3877 18.5961 3.99328 17.5 4.00008Z" fill="currentColor"/>
  </symbol>
  <symbol id="ic_thinking_brain" viewBox="0 0 24 24">
    <path d="M20.8899 13.54L18.8899 9.68002C18.669 8.34964 18.1153 7.09669 17.2803 6.03765C16.4454 4.9786 15.3562 4.14783 14.1141 3.62253C12.872 3.09724 11.5173 2.89448 10.1758 3.03309C8.83431 3.17171 7.54965 3.6472 6.44121 4.41538C5.33276 5.18356 4.43649 6.21948 3.83571 7.42689C3.23493 8.63429 2.94914 9.97397 3.00489 11.3214C3.06064 12.6689 3.45612 13.9804 4.15459 15.134C4.85305 16.2877 5.83183 17.246 6.99995 17.92V20C6.99995 20.2652 7.1053 20.5196 7.29284 20.7071C7.48038 20.8947 7.73473 21 7.99995 21H13.9999C14.2652 21 14.5195 20.8947 14.7071 20.7071C14.8946 20.5196 14.9999 20.2652 14.9999 20V19H15.9999C16.7956 19 17.5587 18.684 18.1213 18.1213C18.6839 17.5587 18.9999 16.7957 18.9999 16V15H19.9999C20.1718 15.0004 20.3408 14.9564 20.4908 14.8725C20.6407 14.7885 20.7664 14.6673 20.8559 14.5205C20.9453 14.3738 20.9955 14.2065 21.0014 14.0347C21.0074 13.863 20.969 13.6926 20.8899 13.54ZM14.5699 9.08002L7.50995 13.17C7.36357 13.254 7.20012 13.3037 7.03181 13.3156C6.86349 13.3276 6.69466 13.3013 6.53793 13.2388C6.3812 13.1763 6.24061 13.0792 6.12667 12.9547C6.01274 12.8302 5.9284 12.6817 5.87995 12.52C5.61514 11.5953 5.61514 10.6148 5.87995 9.69002C6.17904 8.66652 6.77286 7.75374 7.58734 7.06553C8.40181 6.37731 9.40089 5.94413 10.4599 5.82002C11.2479 5.7328 12.0455 5.82414 12.7933 6.08728C13.5412 6.35042 14.2202 6.77859 14.7799 7.34002C14.9019 7.45808 14.9949 7.60276 15.0516 7.76274C15.1083 7.92271 15.1273 8.09365 15.1069 8.26216C15.0866 8.43067 15.0275 8.59219 14.9344 8.73408C14.8412 8.87597 14.7165 8.99437 14.5699 9.08002Z" fill="currentColor"/>
  </symbol>
  <symbol id="ic_thinking_critical" viewBox="0 0 24 24">
    <path d="M19.1699 8.66C19.3677 8.66 19.561 8.60135 19.7255 8.49147C19.8899 8.38159 20.0181 8.22541 20.0938 8.04268C20.1695 7.85996 20.1893 7.65889 20.1507 7.46491C20.1121 7.27093 20.0169 7.09275 19.877 6.95289C19.7371 6.81304 19.559 6.7178 19.365 6.67921C19.171 6.64063 18.9699 6.66043 18.7872 6.73612C18.6045 6.81181 18.4483 6.93998 18.3384 7.10443C18.2285 7.26888 18.1699 7.46222 18.1699 7.66C18.1699 7.92522 18.2752 8.17957 18.4628 8.36711C18.6503 8.55464 18.9047 8.66 19.1699 8.66ZM20.9999 9H17.3499C17.0847 9 16.8303 9.10536 16.6428 9.29289C16.4552 9.48043 16.3499 9.73478 16.3499 10C16.3499 10.2652 16.4552 10.5196 16.6428 10.7071C16.8303 10.8946 17.0847 11 17.3499 11H20.9999C21.2651 11 21.5195 10.8946 21.707 10.7071C21.8945 10.5196 21.9999 10.2652 21.9999 10C21.9999 9.73478 21.8945 9.48043 21.707 9.29289C21.5195 9.10536 21.2651 9 20.9999 9ZM12.0899 5.75H12.8399V6.5C12.8399 6.76522 12.9452 7.01957 13.1328 7.20711C13.3203 7.39464 13.5747 7.5 13.8399 7.5C14.1051 7.5 14.3595 7.39464 14.547 7.20711C14.7345 7.01957 14.8399 6.76522 14.8399 6.5V5.75H15.5899C15.8551 5.75 16.1095 5.64464 16.297 5.45711C16.4845 5.26957 16.5899 5.01522 16.5899 4.75C16.5899 4.48478 16.4845 4.23043 16.297 4.04289C16.1095 3.85536 15.8551 3.75 15.5899 3.75H14.8399V3C14.8399 2.73478 14.7345 2.48043 14.547 2.29289C14.3595 2.10536 14.1051 2 13.8399 2C13.5747 2 13.3203 2.10536 13.1328 2.29289C12.9452 2.48043 12.8399 2.73478 12.8399 3V3.75H12.0899C11.8247 3.75 11.5703 3.85536 11.3828 4.04289C11.1952 4.23043 11.0899 4.48478 11.0899 4.75C11.0899 5.01522 11.1952 5.26957 11.3828 5.45711C11.5703 5.64464 11.8247 5.75 12.0899 5.75ZM19.1699 11.34C18.9047 11.34 18.6503 11.4454 18.4628 11.6329C18.2752 11.8204 18.1699 12.0748 18.1699 12.34C18.1699 12.6052 18.2752 12.8596 18.4628 13.0471C18.6503 13.2346 18.9047 13.34 19.1699 13.34C19.4351 13.34 19.6895 13.2346 19.877 13.0471C20.0645 12.8596 20.1699 12.6052 20.1699 12.34C20.1699 12.0748 20.0645 11.8204 19.877 11.6329C19.6895 11.4454 19.4351 11.34 19.1699 11.34ZM16.1699 12.78C15.6264 12.5475 15.1637 12.1596 14.8399 11.665C14.5161 11.1704 14.3456 10.5911 14.3499 10C14.34 9.89022 14.34 9.77978 14.3499 9.67C14.3499 9.6 14.3499 9.52 14.3499 9.44H14.1299C14.0171 9.45524 13.9027 9.45524 13.7899 9.44C13.1902 9.44138 12.6039 9.26301 12.1066 8.9279C11.6092 8.59279 11.2238 8.11633 10.9999 7.56C10.5201 7.37174 10.097 7.06305 9.77116 6.6637C9.44538 6.26435 9.22797 5.7878 9.13989 5.28C7.87552 5.62426 6.73466 6.31994 5.84967 7.28635C4.96468 8.25276 4.37183 9.45029 4.13989 10.74L3.05989 13.66C3.00578 13.8102 2.98844 13.9713 3.00932 14.1296C3.03019 14.2879 3.08868 14.4389 3.17989 14.57C3.27179 14.7025 3.39435 14.8107 3.53713 14.8856C3.67991 14.9605 3.83867 14.9997 3.99989 15H4.49989V16C4.48988 16.7161 4.73642 17.4122 5.19493 17.9625C5.65345 18.5127 6.29368 18.8807 6.99989 19V20C6.99989 20.2652 7.10525 20.5196 7.29278 20.7071C7.48032 20.8946 7.73467 21 7.99989 21H14.9999C15.2651 21 15.5195 20.8946 15.707 20.7071C15.8945 20.5196 15.9999 20.2652 15.9999 20V16.89C16.6022 16.2733 17.0809 15.5468 17.4099 14.75C17.0892 14.5185 16.8186 14.2248 16.6141 13.8863C16.4096 13.5478 16.2756 13.1715 16.2199 12.78H16.1699Z" fill="currentColor"/>
  </symbol>
</svg>
