<!-- JioGames DLS — ticket icons (5 icons) -->
<svg xmlns="http://www.w3.org/2000/svg" style="display:none">
  <symbol id="ic_ticket" viewBox="0 0 24 24">
    <path d="M19 4H5C4.20435 4 3.44129 4.31607 2.87868 4.87868C2.31607 5.44129 2 6.20435 2 7V17C2 17.7956 2.31607 18.5587 2.87868 19.1213C3.44129 19.6839 4.20435 20 5 20H19C19.7956 20 20.5587 19.6839 21.1213 19.1213C21.6839 18.5587 22 17.7956 22 17V7C22 6.20435 21.6839 5.44129 21.1213 4.87868C20.5587 4.31607 19.7956 4 19 4ZM12 16C12 16.2652 11.8946 16.5196 11.7071 16.7071C11.5196 16.8946 11.2652 17 11 17C10.7348 17 10.4804 16.8946 10.2929 16.7071C10.1054 16.5196 10 16.2652 10 16V11L9.12 11.7C8.91181 11.8644 8.64682 11.9394 8.38333 11.9085C8.11984 11.8775 7.87943 11.7432 7.715 11.535C7.55057 11.3268 7.47557 11.0618 7.50652 10.7983C7.53746 10.5348 7.67181 10.2944 7.88 10.13L10.38 8.13C10.533 8.00782 10.7186 7.93326 10.9136 7.91557C11.1086 7.89788 11.3045 7.93784 11.4771 8.03049C11.6496 8.12314 11.7911 8.2644 11.8841 8.43675C11.977 8.6091 12.0173 8.80495 12 9V16ZM17 17C16.8022 17 16.6089 16.9414 16.4444 16.8315C16.28 16.7216 16.1518 16.5654 16.0761 16.3827C16.0004 16.2 15.9806 15.9989 16.0192 15.8049C16.0578 15.6109 16.153 15.4327 16.2929 15.2929C16.4327 15.153 16.6109 15.0578 16.8049 15.0192C16.9989 14.9806 17.2 15.0004 17.3827 15.0761C17.5654 15.1518 17.7216 15.28 17.8315 15.4444C17.9414 15.6089 18 15.8022 18 16C18 16.2652 17.8946 16.5196 17.7071 16.7071C17.5196 16.8946 17.2652 17 17 17ZM17 13C16.8022 13 16.6089 12.9414 16.4444 12.8315C16.28 12.7216 16.1518 12.5654 16.0761 12.3827C16.0004 12.2 15.9806 11.9989 16.0192 11.8049C16.0578 11.6109 16.153 11.4327 16.2929 11.2929C16.4327 11.153 16.6109 11.0578 16.8049 11.0192C16.9989 10.9806 17.2 11.0004 17.3827 11.0761C17.5654 11.1518 17.7216 11.28 17.8315 11.4444C17.9414 11.6089 18 11.8022 18 12C18 12.2652 17.8946 12.5196 17.7071 12.7071C17.5196 12.8946 17.2652 13 17 13ZM17 9C16.8022 9 16.6089 8.94135 16.4444 8.83147C16.28 8.72159 16.1518 8.56541 16.0761 8.38268C16.0004 8.19996 15.9806 7.99889 16.0192 7.80491C16.0578 7.61093 16.153 7.43275 16.2929 7.29289C16.4327 7.15304 16.6109 7.0578 16.8049 7.01921C16.9989 6.98063 17.2 7.00043 17.3827 7.07612C17.5654 7.15181 17.7216 7.27998 17.8315 7.44443C17.9414 7.60888 18 7.80222 18 8C18 8.26522 17.8946 8.51957 17.7071 8.70711C17.5196 8.89464 17.2652 9 17 9Z" fill="currentColor"/>
  </symbol>
  <symbol id="ic_ticket_details" viewBox="0 0 24 24">
    <path d="M19 4H5C4.20435 4 3.44129 4.31607 2.87868 4.87868C2.31607 5.44129 2 6.20435 2 7V17C2 17.7956 2.31607 18.5587 2.87868 19.1213C3.44129 19.6839 4.20435 20 5 20H19C19.7956 20 20.5587 19.6839 21.1213 19.1213C21.6839 18.5587 22 17.7956 22 17V7C22 6.20435 21.6839 5.44129 21.1213 4.87868C20.5587 4.31607 19.7956 4 19 4ZM6 7H8C8.26522 7 8.51957 7.10536 8.70711 7.29289C8.89464 7.48043 9 7.73478 9 8C9 8.26522 8.89464 8.51957 8.70711 8.70711C8.51957 8.89464 8.26522 9 8 9H6C5.73478 9 5.48043 8.89464 5.29289 8.70711C5.10536 8.51957 5 8.26522 5 8C5 7.73478 5.10536 7.48043 5.29289 7.29289C5.48043 7.10536 5.73478 7 6 7ZM12 17H6C5.73478 17 5.48043 16.8946 5.29289 16.7071C5.10536 16.5196 5 16.2652 5 16C5 15.7348 5.10536 15.4804 5.29289 15.2929C5.48043 15.1054 5.73478 15 6 15H12C12.2652 15 12.5196 15.1054 12.7071 15.2929C12.8946 15.4804 13 15.7348 13 16C13 16.2652 12.8946 16.5196 12.7071 16.7071C12.5196 16.8946 12.2652 17 12 17ZM12 13H6C5.73478 13 5.48043 12.8946 5.29289 12.7071C5.10536 12.5196 5 12.2652 5 12C5 11.7348 5.10536 11.4804 5.29289 11.2929C5.48043 11.1054 5.73478 11 6 11H12C12.2652 11 12.5196 11.1054 12.7071 11.2929C12.8946 11.4804 13 11.7348 13 12C13 12.2652 12.8946 12.5196 12.7071 12.7071C12.5196 12.8946 12.2652 13 12 13ZM17 17C16.8022 17 16.6089 16.9414 16.4444 16.8315C16.28 16.7216 16.1518 16.5654 16.0761 16.3827C16.0004 16.2 15.9806 15.9989 16.0192 15.8049C16.0578 15.6109 16.153 15.4327 16.2929 15.2929C16.4327 15.153 16.6109 15.0578 16.8049 15.0192C16.9989 14.9806 17.2 15.0004 17.3827 15.0761C17.5654 15.1518 17.7216 15.28 17.8315 15.4444C17.9414 15.6089 18 15.8022 18 16C18 16.2652 17.8946 16.5196 17.7071 16.7071C17.5196 16.8946 17.2652 17 17 17ZM17 13C16.8022 13 16.6089 12.9414 16.4444 12.8315C16.28 12.7216 16.1518 12.5654 16.0761 12.3827C16.0004 12.2 15.9806 11.9989 16.0192 11.8049C16.0578 11.6109 16.153 11.4327 16.2929 11.2929C16.4327 11.153 16.6109 11.0578 16.8049 11.0192C16.9989 10.9806 17.2 11.0004 17.3827 11.0761C17.5654 11.1518 17.7216 11.28 17.8315 11.4444C17.9414 11.6089 18 11.8022 18 12C18 12.2652 17.8946 12.5196 17.7071 12.7071C17.5196 12.8946 17.2652 13 17 13ZM17 9C16.8022 9 16.6089 8.94135 16.4444 8.83147C16.28 8.72159 16.1518 8.56541 16.0761 8.38268C16.0004 8.19996 15.9806 7.99889 16.0192 7.80491C16.0578 7.61093 16.153 7.43275 16.2929 7.29289C16.4327 7.15304 16.6109 7.0578 16.8049 7.01921C16.9989 6.98063 17.2 7.00043 17.3827 7.07612C17.5654 7.15181 17.7216 7.27998 17.8315 7.44443C17.9414 7.60888 18 7.80222 18 8C18 8.26522 17.8946 8.51957 17.7071 8.70711C17.5196 8.89464 17.2652 9 17 9Z" fill="currentColor"/>
  </symbol>
  <symbol id="ic_ticket_pnr_number" viewBox="0 0 24 24">
    <path d="M7.78 13H9.72L10.22 11H8.28L7.78 13ZM19 4H5C4.20435 4 3.44129 4.31607 2.87868 4.87868C2.31607 5.44129 2 6.20435 2 7V17C2 17.7956 2.31607 18.5587 2.87868 19.1213C3.44129 19.6839 4.20435 20 5 20H19C19.7956 20 20.5587 19.6839 21.1213 19.1213C21.6839 18.5587 22 17.7956 22 17V7C22 6.20435 21.6839 5.44129 21.1213 4.87868C20.5587 4.31607 19.7956 4 19 4ZM13 11H12.28L11.78 13H12C12.2652 13 12.5196 13.1054 12.7071 13.2929C12.8946 13.4804 13 13.7348 13 14C13 14.2652 12.8946 14.5196 12.7071 14.7071C12.5196 14.8946 12.2652 15 12 15H11.28L11 16.24C10.9363 16.5052 10.7699 16.7343 10.5374 16.8768C10.3049 17.0193 10.0252 17.0637 9.76 17C9.49478 16.9363 9.26572 16.7699 9.12319 16.5374C8.98066 16.3049 8.93635 16.0252 9 15.76L9.22 15H7.28L7 16.24C6.93635 16.5052 6.76995 16.7343 6.5374 16.8768C6.30486 17.0193 6.02522 17.0637 5.76 17C5.49478 16.9363 5.26572 16.7699 5.12319 16.5374C4.98066 16.3049 4.93635 16.0252 5 15.76L5.22 15H5C4.73478 15 4.48043 14.8946 4.29289 14.7071C4.10536 14.5196 4 14.2652 4 14C4 13.7348 4.10536 13.4804 4.29289 13.2929C4.48043 13.1054 4.73478 13 5 13H5.72L6.22 11H6C5.73478 11 5.48043 10.8946 5.29289 10.7071C5.10536 10.5196 5 10.2652 5 10C5 9.73478 5.10536 9.48043 5.29289 9.29289C5.48043 9.10536 5.73478 9 6 9H6.72L7 7.76C7.06365 7.49478 7.23005 7.26572 7.4626 7.12319C7.69514 6.98066 7.97478 6.93635 8.24 7C8.50522 7.06365 8.73428 7.23005 8.87681 7.4626C9.01934 7.69514 9.06365 7.97478 9 8.24L8.78 9H10.72L11 7.76C11.0637 7.49478 11.2301 7.26572 11.4626 7.12319C11.6951 6.98066 11.9748 6.93635 12.24 7C12.5052 7.06365 12.7343 7.23005 12.8768 7.4626C13.0193 7.69514 13.0637 7.97478 13 8.24L12.78 9H13C13.2652 9 13.5196 9.10536 13.7071 9.29289C13.8946 9.48043 14 9.73478 14 10C14 10.2652 13.8946 10.5196 13.7071 10.7071C13.5196 10.8946 13.2652 11 13 11ZM17 17C16.8022 17 16.6089 16.9414 16.4444 16.8315C16.28 16.7216 16.1518 16.5654 16.0761 16.3827C16.0004 16.2 15.9806 15.9989 16.0192 15.8049C16.0578 15.6109 16.153 15.4327 16.2929 15.2929C16.4327 15.153 16.6109 15.0578 16.8049 15.0192C16.9989 14.9806 17.2 15.0004 17.3827 15.0761C17.5654 15.1518 17.7216 15.28 17.8315 15.4444C17.9414 15.6089 18 15.8022 18 16C18 16.2652 17.8946 16.5196 17.7071 16.7071C17.5196 16.8946 17.2652 17 17 17ZM17 13C16.8022 13 16.6089 12.9414 16.4444 12.8315C16.28 12.7216 16.1518 12.5654 16.0761 12.3827C16.0004 12.2 15.9806 11.9989 16.0192 11.8049C16.0578 11.6109 16.153 11.4327 16.2929 11.2929C16.4327 11.153 16.6109 11.0578 16.8049 11.0192C16.9989 10.9806 17.2 11.0004 17.3827 11.0761C17.5654 11.1518 17.7216 11.28 17.8315 11.4444C17.9414 11.6089 18 11.8022 18 12C18 12.2652 17.8946 12.5196 17.7071 12.7071C17.5196 12.8946 17.2652 13 17 13ZM17 9C16.8022 9 16.6089 8.94135 16.4444 8.83147C16.28 8.72159 16.1518 8.56541 16.0761 8.38268C16.0004 8.19996 15.9806 7.99889 16.0192 7.80491C16.0578 7.61093 16.153 7.43275 16.2929 7.29289C16.4327 7.15304 16.6109 7.0578 16.8049 7.01921C16.9989 6.98063 17.2 7.00043 17.3827 7.07612C17.5654 7.15181 17.7216 7.27998 17.8315 7.44443C17.9414 7.60888 18 7.80222 18 8C18 8.26522 17.8946 8.51957 17.7071 8.70711C17.5196 8.89464 17.2652 9 17 9Z" fill="currentColor"/>
  </symbol>
  <symbol id="ic_ticket_raise" viewBox="0 0 24 24">
    <path d="M7 16H6V15C6 14.7348 5.89464 14.4804 5.70711 14.2929C5.51957 14.1054 5.26522 14 5 14C4.73478 14 4.48043 14.1054 4.29289 14.2929C4.10536 14.4804 4 14.7348 4 15V16H3C2.73478 16 2.48043 16.1054 2.29289 16.2929C2.10536 16.4804 2 16.7348 2 17C2 17.2652 2.10536 17.5196 2.29289 17.7071C2.48043 17.8946 2.73478 18 3 18H4V19C4 19.2652 4.10536 19.5196 4.29289 19.7071C4.48043 19.8946 4.73478 20 5 20C5.26522 20 5.51957 19.8946 5.70711 19.7071C5.89464 19.5196 6 19.2652 6 19V18H7C7.26522 18 7.51957 17.8946 7.70711 17.7071C7.89464 17.5196 8 17.2652 8 17C8 16.7348 7.89464 16.4804 7.70711 16.2929C7.51957 16.1054 7.26522 16 7 16ZM19 4H5C4.20435 4 3.44129 4.31607 2.87868 4.87868C2.31607 5.44129 2 6.20435 2 7V13C2.96286 12.2779 4.1539 11.9273 5.35444 12.0126C6.55499 12.0979 7.68448 12.6134 8.53553 13.4645C9.38659 14.3155 9.9021 15.445 9.98742 16.6456C10.0727 17.8461 9.72215 19.0371 9 20H19C19.7956 20 20.5587 19.6839 21.1213 19.1213C21.6839 18.5587 22 17.7956 22 17V7C22 6.20435 21.6839 5.44129 21.1213 4.87868C20.5587 4.31607 19.7956 4 19 4ZM17 17C16.8022 17 16.6089 16.9414 16.4444 16.8315C16.28 16.7216 16.1518 16.5654 16.0761 16.3827C16.0004 16.2 15.9806 15.9989 16.0192 15.8049C16.0578 15.6109 16.153 15.4327 16.2929 15.2929C16.4327 15.153 16.6109 15.0578 16.8049 15.0192C16.9989 14.9806 17.2 15.0004 17.3827 15.0761C17.5654 15.1518 17.7216 15.28 17.8315 15.4444C17.9414 15.6089 18 15.8022 18 16C18 16.2652 17.8946 16.5196 17.7071 16.7071C17.5196 16.8946 17.2652 17 17 17ZM17 13C16.8022 13 16.6089 12.9414 16.4444 12.8315C16.28 12.7216 16.1518 12.5654 16.0761 12.3827C16.0004 12.2 15.9806 11.9989 16.0192 11.8049C16.0578 11.6109 16.153 11.4327 16.2929 11.2929C16.4327 11.153 16.6109 11.0578 16.8049 11.0192C16.9989 10.9806 17.2 11.0004 17.3827 11.0761C17.5654 11.1518 17.7216 11.28 17.8315 11.4444C17.9414 11.6089 18 11.8022 18 12C18 12.2652 17.8946 12.5196 17.7071 12.7071C17.5196 12.8946 17.2652 13 17 13ZM17 9C16.8022 9 16.6089 8.94135 16.4444 8.83147C16.28 8.72159 16.1518 8.56541 16.0761 8.38268C16.0004 8.19996 15.9806 7.99889 16.0192 7.80491C16.0578 7.61093 16.153 7.43275 16.2929 7.29289C16.4327 7.15304 16.6109 7.0578 16.8049 7.01921C16.9989 6.98063 17.2 7.00043 17.3827 7.07612C17.5654 7.15181 17.7216 7.27998 17.8315 7.44443C17.9414 7.60888 18 7.80222 18 8C18 8.26522 17.8946 8.51957 17.7071 8.70711C17.5196 8.89464 17.2652 9 17 9Z" fill="currentColor"/>
  </symbol>
  <symbol id="ic_ticket_status" viewBox="0 0 24 24">
    <path d="M19 4H5C4.20435 4 3.44129 4.31607 2.87868 4.87868C2.31607 5.44129 2 6.20435 2 7V17C2 17.7956 2.31607 18.5587 2.87868 19.1213C3.44129 19.6839 4.20435 20 5 20H19C19.7956 20 20.5587 19.6839 21.1213 19.1213C21.6839 18.5587 22 17.7956 22 17V7C22 6.20435 21.6839 5.44129 21.1213 4.87868C20.5587 4.31607 19.7956 4 19 4ZM12.71 10.71L8.71 14.71C8.61704 14.8037 8.50644 14.8781 8.38458 14.9289C8.26272 14.9797 8.13201 15.0058 8 15.0058C7.86799 15.0058 7.73728 14.9797 7.61542 14.9289C7.49356 14.8781 7.38296 14.8037 7.29 14.71L5.29 12.71C5.1017 12.5217 4.99591 12.2663 4.99591 12C4.99591 11.7337 5.1017 11.4783 5.29 11.29C5.4783 11.1017 5.7337 10.9959 6 10.9959C6.2663 10.9959 6.5217 11.1017 6.71 11.29L8 12.59L11.29 9.29C11.4783 9.1017 11.7337 8.99591 12 8.99591C12.2663 8.99591 12.5217 9.1017 12.71 9.29C12.8983 9.4783 13.0041 9.7337 13.0041 10C13.0041 10.2663 12.8983 10.5217 12.71 10.71ZM17 17C16.8022 17 16.6089 16.9414 16.4444 16.8315C16.28 16.7216 16.1518 16.5654 16.0761 16.3827C16.0004 16.2 15.9806 15.9989 16.0192 15.8049C16.0578 15.6109 16.153 15.4327 16.2929 15.2929C16.4327 15.153 16.6109 15.0578 16.8049 15.0192C16.9989 14.9806 17.2 15.0004 17.3827 15.0761C17.5654 15.1518 17.7216 15.28 17.8315 15.4444C17.9414 15.6089 18 15.8022 18 16C18 16.2652 17.8946 16.5196 17.7071 16.7071C17.5196 16.8946 17.2652 17 17 17ZM17 13C16.8022 13 16.6089 12.9414 16.4444 12.8315C16.28 12.7216 16.1518 12.5654 16.0761 12.3827C16.0004 12.2 15.9806 11.9989 16.0192 11.8049C16.0578 11.6109 16.153 11.4327 16.2929 11.2929C16.4327 11.153 16.6109 11.0578 16.8049 11.0192C16.9989 10.9806 17.2 11.0004 17.3827 11.0761C17.5654 11.1518 17.7216 11.28 17.8315 11.4444C17.9414 11.6089 18 11.8022 18 12C18 12.2652 17.8946 12.5196 17.7071 12.7071C17.5196 12.8946 17.2652 13 17 13ZM17 9C16.8022 9 16.6089 8.94135 16.4444 8.83147C16.28 8.72159 16.1518 8.56541 16.0761 8.38268C16.0004 8.19996 15.9806 7.99889 16.0192 7.80491C16.0578 7.61093 16.153 7.43275 16.2929 7.29289C16.4327 7.15304 16.6109 7.0578 16.8049 7.01921C16.9989 6.98063 17.2 7.00043 17.3827 7.07612C17.5654 7.15181 17.7216 7.27998 17.8315 7.44443C17.9414 7.60888 18 7.80222 18 8C18 8.26522 17.8946 8.51957 17.7071 8.70711C17.5196 8.89464 17.2652 9 17 9Z" fill="currentColor"/>
  </symbol>
</svg>
