<!-- JioGames DLS — tilt icons (1 icons) -->
<svg xmlns="http://www.w3.org/2000/svg" style="display:none">
  <symbol id="ic_tilt_sensor" viewBox="0 0 24 24">
    <path d="M12 15C13.6569 15 15 13.6569 15 12C15 10.3431 13.6569 9 12 9C10.3431 9 9 10.3431 9 12C9 13.6569 10.3431 15 12 15Z" fill="currentColor"/>
<path d="M5.00006 19.9901C4.74006 19.9901 4.49006 19.8901 4.29006 19.7001C3.90006 19.3101 3.90006 18.6801 4.29006 18.2901L7.29006 15.2901C7.68006 14.9001 8.31006 14.9001 8.70006 15.2901C9.09006 15.6801 9.09006 16.3101 8.70006 16.7001L5.70006 19.7001C5.50006 19.9001 5.25006 19.9901 4.99006 19.9901H5.00006Z" fill="currentColor"/>
<path d="M16.0301 8.95978C15.7701 8.95978 15.5201 8.85979 15.3201 8.66979C14.9301 8.27979 14.9301 7.64979 15.3201 7.25979L18.3201 4.25979C18.7101 3.86979 19.3401 3.86979 19.7301 4.25979C20.1201 4.64979 20.1201 5.27979 19.7301 5.66979L16.7301 8.66979C16.5301 8.86978 16.2801 8.95978 16.0201 8.95978H16.0301Z" fill="currentColor"/>
<path d="M2.04003 12.3501C2.00003 12.2201 1.98003 12.0801 2.00003 11.9501C2.21003 9.43009 3.33003 7.02009 5.16003 5.19009C6.99003 3.36009 9.40003 2.23009 11.92 2.03009C12.19 2.01009 12.46 2.10009 12.65 2.27009C12.85 2.45009 12.96 2.70009 12.97 2.97009C12.97 3.24009 12.88 3.51009 12.69 3.72009C12.5 3.93009 12.24 4.06009 11.97 4.08009C9.96003 4.25009 8.03003 5.15009 6.57003 6.61009C5.11003 8.07009 4.21003 9.99009 4.04003 12.0101C4.02003 12.2601 3.90003 12.5001 3.72003 12.6801C3.62003 12.7801 3.50003 12.8701 3.37003 12.9301C3.24003 12.9901 3.10003 13.0201 2.96003 13.0201C2.82003 13.0201 2.69003 12.9901 2.56003 12.9401C2.44003 12.8901 2.33003 12.8101 2.24003 12.7101C2.15003 12.6101 2.08003 12.4901 2.04003 12.3601V12.3501Z" fill="currentColor"/>
<path d="M7.28 7.30993C8.25 6.33993 9.49 5.69993 10.82 5.47993C10.95 5.45993 11.09 5.45993 11.22 5.49993C11.35 5.52993 11.47 5.58993 11.57 5.66993C11.67 5.74993 11.76 5.84993 11.83 5.95993C11.89 6.07993 11.93 6.19993 11.95 6.33993C11.98 6.60993 11.9 6.87993 11.73 7.09993C11.65 7.20993 11.54 7.29993 11.42 7.36993C11.3 7.43993 11.17 7.48993 11.04 7.50993C10.16 7.65993 9.34 8.08993 8.7 8.72993C8.06 9.36993 7.63 10.1899 7.48 11.0699C7.44 11.3399 7.29 11.5899 7.07 11.7599C6.85 11.9299 6.57 12.0099 6.31 11.9799C6.04 11.9499 5.8 11.8199 5.64 11.6099C5.48 11.3999 5.41 11.1299 5.46 10.8599C5.68 9.52993 6.32 8.28993 7.29 7.31993L7.28 7.30993Z" fill="currentColor"/>
<path d="M12.3301 21.9799C12.4601 22.0099 12.6001 22.0199 12.7401 21.9999C15.2401 21.6399 17.5701 20.3699 19.2901 18.4299C21.0101 16.4899 21.9801 14.0199 22.0201 11.4899C22.0201 11.2199 21.9201 10.9599 21.7301 10.7699C21.5401 10.5799 21.2801 10.4799 21.0101 10.4899C20.7401 10.4899 20.4801 10.6199 20.2801 10.8199C20.0801 11.0199 19.9701 11.2899 19.9701 11.5599C19.9301 13.5799 19.1501 15.5499 17.7801 17.0999C16.4101 18.6499 14.5501 19.6699 12.5501 19.9599C12.3001 19.9999 12.0701 20.1299 11.9001 20.3199C11.8001 20.4299 11.7301 20.5499 11.6801 20.6799C11.6301 20.8099 11.6101 20.9599 11.6101 21.0999C11.6101 21.2399 11.6601 21.3699 11.7201 21.4899C11.7801 21.6099 11.8701 21.7199 11.9701 21.7999C12.0701 21.8799 12.2001 21.9399 12.3301 21.9799Z" fill="currentColor"/>
<path d="M17.0302 16.4399C17.9402 15.4099 18.5002 14.1399 18.6402 12.7999C18.6502 12.6599 18.6402 12.5299 18.6002 12.3999C18.5602 12.2699 18.5002 12.1599 18.4102 12.0599C18.3202 11.9599 18.2202 11.8799 18.1002 11.8199C17.9802 11.7599 17.8502 11.7299 17.7202 11.7199C17.4502 11.7099 17.1802 11.8099 16.9702 11.9899C16.8702 12.0799 16.7802 12.1899 16.7202 12.3099C16.6602 12.4299 16.6202 12.5699 16.6102 12.6999C16.5102 13.5799 16.1402 14.4299 15.5402 15.1099C14.9402 15.7899 14.1502 16.2699 13.2802 16.4699C13.0102 16.5299 12.7702 16.6899 12.6202 16.9199C12.4602 17.1499 12.4002 17.4299 12.4402 17.6999C12.4902 17.9699 12.6302 18.1999 12.8602 18.3499C13.0902 18.4999 13.3602 18.5499 13.6202 18.4899C14.9302 18.1899 16.1302 17.4699 17.0302 16.4399Z" fill="currentColor"/>
  </symbol>
</svg>
