<!-- JioGames DLS — toll icons (2 icons) -->
<svg xmlns="http://www.w3.org/2000/svg" style="display:none">
  <symbol id="ic_toll" viewBox="0 0 24 24">
    <path d="M11 3.00008C11 2.73487 10.8946 2.48051 10.7071 2.29298C10.5196 2.10544 10.2652 2.00008 10 2.00008H8C7.76031 1.997 7.52749 2.08012 7.34394 2.2343C7.16039 2.38848 7.03833 2.60346 7 2.84008L6.15 8.00008H11V3.00008ZM21 10.0001H3C2.73478 10.0001 2.48043 10.1054 2.29289 10.293C2.10536 10.4805 2 10.7349 2 11.0001V13.0001C2 13.2653 2.10536 13.5197 2.29289 13.7072C2.48043 13.8947 2.73478 14.0001 3 14.0001C3.26522 14.0001 3.51957 13.8947 3.70711 13.7072C3.89464 13.5197 4 13.2653 4 13.0001V12.0001H20V13.0001C20 13.2653 20.1054 13.5197 20.2929 13.7072C20.4804 13.8947 20.7348 14.0001 21 14.0001C21.2652 14.0001 21.5196 13.8947 21.7071 13.7072C21.8946 13.5197 22 13.2653 22 13.0001V11.0001C22 10.7349 21.8946 10.4805 21.7071 10.293C21.5196 10.1054 21.2652 10.0001 21 10.0001ZM17 2.84008C16.9617 2.60346 16.8396 2.38848 16.6561 2.2343C16.4725 2.08012 16.2397 1.997 16 2.00008H14C13.7348 2.00008 13.4804 2.10544 13.2929 2.29298C13.1054 2.48051 13 2.73487 13 3.00008V8.00008H17.85L17 2.84008ZM4 20.8401C3.97713 20.9837 3.98587 21.1306 4.02559 21.2705C4.06531 21.4104 4.13507 21.5399 4.23 21.6501C4.32498 21.7611 4.44314 21.85 4.57617 21.9105C4.70921 21.971 4.85388 22.0015 5 22.0001H10C10.2652 22.0001 10.5196 21.8947 10.7071 21.7072C10.8946 21.5197 11 21.2653 11 21.0001V14.0001H5.15L4 20.8401ZM13 14.0001V21.0001C13 21.2653 13.1054 21.5197 13.2929 21.7072C13.4804 21.8947 13.7348 22.0001 14 22.0001H19C19.1444 22.0001 19.2872 21.9688 19.4184 21.9084C19.5496 21.848 19.6661 21.7598 19.76 21.6501C19.8549 21.5399 19.9247 21.4104 19.9644 21.2705C20.0041 21.1306 20.0129 20.9837 19.99 20.8401L18.85 14.0001H13Z" fill="currentColor"/>
  </symbol>
  <symbol id="ic_toll_station" viewBox="0 0 24 24">
    <path d="M21 7H18C18 6.73478 17.8946 6.48043 17.7071 6.29289C17.5196 6.10536 17.2652 6 17 6H14C13.7348 6 13.4804 6.10536 13.2929 6.29289C13.1054 6.48043 13 6.73478 13 7H11C11 6.20435 10.6839 5.44129 10.1213 4.87868C9.55871 4.31607 8.79565 4 8 4H6C5.20435 4 4.44129 4.31607 3.87868 4.87868C3.31607 5.44129 3 6.20435 3 7V18C2.73478 18 2.48043 18.1054 2.29289 18.2929C2.10536 18.4804 2 18.7348 2 19C2 19.2652 2.10536 19.5196 2.29289 19.7071C2.48043 19.8946 2.73478 20 3 20H11C11.2652 20 11.5196 19.8946 11.7071 19.7071C11.8946 19.5196 12 19.2652 12 19C12 18.7348 11.8946 18.4804 11.7071 18.2929C11.5196 18.1054 11.2652 18 11 18V9H13C13 9.26522 13.1054 9.51957 13.2929 9.70711C13.4804 9.89464 13.7348 10 14 10H17C17.2652 10 17.5196 9.89464 17.7071 9.70711C17.8946 9.51957 18 9.26522 18 9H20V19C20 19.2652 20.1054 19.5196 20.2929 19.7071C20.4804 19.8946 20.7348 20 21 20C21.2652 20 21.5196 19.8946 21.7071 19.7071C21.8946 19.5196 22 19.2652 22 19V8C22 7.73478 21.8946 7.48043 21.7071 7.29289C21.5196 7.10536 21.2652 7 21 7ZM7 9C6.80222 9 6.60888 8.94135 6.44443 8.83147C6.27998 8.72159 6.15181 8.56541 6.07612 8.38268C6.00043 8.19996 5.98063 7.99889 6.01921 7.80491C6.0578 7.61093 6.15304 7.43275 6.29289 7.29289C6.43275 7.15304 6.61093 7.0578 6.80491 7.01921C6.99889 6.98063 7.19996 7.00043 7.38268 7.07612C7.56541 7.15181 7.72159 7.27998 7.83147 7.44443C7.94135 7.60888 8 7.80222 8 8C8 8.26522 7.89464 8.51957 7.70711 8.70711C7.51957 8.89464 7.26522 9 7 9Z" fill="currentColor"/>
  </symbol>
</svg>
