<!-- JioGames DLS — track icons (2 icons) -->
<svg xmlns="http://www.w3.org/2000/svg" style="display:none">
  <symbol id="ic_track_ecg" viewBox="0 0 24 24">
    <path d="M18 3H6C5.20435 3 4.44129 3.31607 3.87868 3.87868C3.31607 4.44129 3 5.20435 3 6V18C3 18.7956 3.31607 19.5587 3.87868 20.1213C4.44129 20.6839 5.20435 21 6 21H18C18.7956 21 19.5587 20.6839 20.1213 20.1213C20.6839 19.5587 21 18.7956 21 18V6C21 5.20435 20.6839 4.44129 20.1213 3.87868C19.5587 3.31607 18.7956 3 18 3ZM18 16H12.62L11.89 17.45C11.8061 17.6138 11.6786 17.7513 11.5216 17.8473C11.3645 17.9432 11.184 17.994 11 17.994C10.816 17.994 10.6355 17.9432 10.4784 17.8473C10.3214 17.7513 10.1939 17.6138 10.11 17.45L9 15.24L8.89 15.45C8.8069 15.6149 8.67976 15.7536 8.52267 15.8507C8.36557 15.9478 8.18467 15.9994 8 16H6C5.73478 16 5.48043 15.8946 5.29289 15.7071C5.10536 15.5196 5 15.2652 5 15C5 14.7348 5.10536 14.4804 5.29289 14.2929C5.48043 14.1054 5.73478 14 6 14H7.38L8.11 12.55C8.19392 12.3862 8.32141 12.2487 8.47845 12.1527C8.63548 12.0568 8.81595 12.006 9 12.006C9.18405 12.006 9.36452 12.0568 9.52155 12.1527C9.67859 12.2487 9.80608 12.3862 9.89 12.55L11 14.76L11.11 14.55C11.1931 14.3851 11.3202 14.2464 11.4773 14.1493C11.6344 14.0522 11.8153 14.0006 12 14H18C18.2652 14 18.5196 14.1054 18.7071 14.2929C18.8946 14.4804 19 14.7348 19 15C19 15.2652 18.8946 15.5196 18.7071 15.7071C18.5196 15.8946 18.2652 16 18 16ZM18 10H16.62L15.89 11.45C15.8061 11.6138 15.6786 11.7513 15.5216 11.8473C15.3645 11.9432 15.184 11.994 15 11.994C14.816 11.994 14.6355 11.9432 14.4784 11.8473C14.3214 11.7513 14.1939 11.6138 14.11 11.45L13 9.24L12.89 9.45C12.8069 9.61491 12.6798 9.7536 12.5227 9.85068C12.3656 9.94776 12.1847 9.99944 12 10H6C5.73478 10 5.48043 9.89464 5.29289 9.70711C5.10536 9.51957 5 9.26522 5 9C5 8.73478 5.10536 8.48043 5.29289 8.29289C5.48043 8.10536 5.73478 8 6 8H11.38L12.11 6.55C12.1939 6.3862 12.3214 6.24873 12.4784 6.15274C12.6355 6.05675 12.816 6.00596 13 6.00596C13.184 6.00596 13.3645 6.05675 13.5216 6.15274C13.6786 6.24873 13.8061 6.3862 13.89 6.55L15 8.76L15.11 8.55C15.1931 8.38509 15.3202 8.2464 15.4773 8.14932C15.6344 8.05224 15.8153 8.00056 16 8H18C18.2652 8 18.5196 8.10536 18.7071 8.29289C18.8946 8.48043 19 8.73478 19 9C19 9.26522 18.8946 9.51957 18.7071 9.70711C18.5196 9.89464 18.2652 10 18 10Z" fill="currentColor"/>
  </symbol>
  <symbol id="ic_track_vitals" viewBox="0 0 24 24">
    <path d="M15.6 3.99991C14.2642 4.04142 12.9873 4.55927 12 5.45991C11.0126 4.55927 9.73576 4.04142 8.39999 3.99991C7.68596 3.9945 6.97805 4.13181 6.31783 4.40379C5.65761 4.67576 5.05838 5.07691 4.55534 5.58367C4.0523 6.09044 3.65558 6.69261 3.38849 7.35483C3.1214 8.01704 2.98931 8.72594 2.99999 9.43991C2.99999 12.8099 5.62999 15.8699 10.16 19.9999L10.65 20.4499C11.0187 20.7872 11.5003 20.9743 12 20.9743C12.4997 20.9743 12.9813 20.7872 13.35 20.4499L13.84 20.0099C18.37 15.8599 21 12.7999 21 9.43991C21.0107 8.72594 20.8786 8.01704 20.6115 7.35483C20.3444 6.69261 19.9477 6.09044 19.4446 5.58367C18.9416 5.07691 18.3424 4.67576 17.6822 4.40379C17.0219 4.13181 16.314 3.9945 15.6 3.99991ZM17 11.9999H16V12.9999C16 13.2651 15.8946 13.5195 15.7071 13.707C15.5196 13.8946 15.2652 13.9999 15 13.9999C14.7348 13.9999 14.4804 13.8946 14.2929 13.707C14.1053 13.5195 14 13.2651 14 12.9999V11.9999H13C12.7348 11.9999 12.4804 11.8946 12.2929 11.707C12.1053 11.5195 12 11.2651 12 10.9999C12 10.7347 12.1053 10.4803 12.2929 10.2928C12.4804 10.1053 12.7348 9.99991 13 9.99991H14V8.99991C14 8.73469 14.1053 8.48034 14.2929 8.2928C14.4804 8.10527 14.7348 7.99991 15 7.99991C15.2652 7.99991 15.5196 8.10527 15.7071 8.2928C15.8946 8.48034 16 8.73469 16 8.99991V9.99991H17C17.2652 9.99991 17.5196 10.1053 17.7071 10.2928C17.8946 10.4803 18 10.7347 18 10.9999C18 11.2651 17.8946 11.5195 17.7071 11.707C17.5196 11.8946 17.2652 11.9999 17 11.9999Z" fill="currentColor"/>
  </symbol>
</svg>
