<!-- JioGames DLS — triangle icons (2 icons) -->
<svg xmlns="http://www.w3.org/2000/svg" style="display:none">
  <symbol id="ic_triangle" viewBox="0 0 24 24">
    <path d="M20.73 16.99L13.73 4.99C13.37 4.38 12.71 4 12 4C11.29 4 10.63 4.38 10.27 4.99L3.27 16.99C2.91 17.61 2.91 18.37 3.27 18.99C3.63 19.61 4.29 19.99 5 19.99H19C19.72 19.99 20.38 19.61 20.73 18.99C21.08 18.37 21.08 17.6 20.73 16.99Z" fill="currentColor"/>
  </symbol>
  <symbol id="ic_triangle_down" viewBox="0 0 24 24">
    <path d="M3.26995 7.00977L10.2699 19.0098C10.6299 19.6198 11.2899 19.9998 11.9999 19.9998C12.7099 19.9998 13.3699 19.6198 13.7299 19.0098L20.7299 7.00977C21.0899 6.38977 21.0899 5.62977 20.7299 5.00977C20.3699 4.38977 19.7099 4.00977 18.9999 4.00977H4.99995C4.27995 4.00977 3.61995 4.38977 3.26995 5.00977C2.91995 5.62977 2.91995 6.39977 3.26995 7.00977Z" fill="currentColor"/>
  </symbol>
</svg>
