<!-- JioGames DLS — tv icons (7 icons) -->
<svg xmlns="http://www.w3.org/2000/svg" style="display:none">
  <symbol id="ic_tv" viewBox="0 0 24 24">
    <path d="M15 19H9C8.73478 19 8.48043 19.1054 8.29289 19.2929C8.10536 19.4804 8 19.7348 8 20C8 20.2652 8.10536 20.5196 8.29289 20.7071C8.48043 20.8946 8.73478 21 9 21H15C15.2652 21 15.5196 20.8946 15.7071 20.7071C15.8946 20.5196 16 20.2652 16 20C16 19.7348 15.8946 19.4804 15.7071 19.2929C15.5196 19.1054 15.2652 19 15 19ZM20 5H4C3.46957 5 2.96086 5.21071 2.58579 5.58579C2.21071 5.96086 2 6.46957 2 7V16C2 16.5304 2.21071 17.0391 2.58579 17.4142C2.96086 17.7893 3.46957 18 4 18H20C20.5304 18 21.0391 17.7893 21.4142 17.4142C21.7893 17.0391 22 16.5304 22 16V7C22 6.46957 21.7893 5.96086 21.4142 5.58579C21.0391 5.21071 20.5304 5 20 5Z" fill="currentColor"/>
  </symbol>
  <symbol id="ic_tv_call" viewBox="0 0 24 24">
    <path d="M15 19H9C8.73478 19 8.48043 19.1054 8.29289 19.2929C8.10536 19.4804 8 19.7348 8 20C8 20.2652 8.10536 20.5196 8.29289 20.7071C8.48043 20.8946 8.73478 21 9 21H15C15.2652 21 15.5196 20.8946 15.7071 20.7071C15.8946 20.5196 16 20.2652 16 20C16 19.7348 15.8946 19.4804 15.7071 19.2929C15.5196 19.1054 15.2652 19 15 19ZM21.41 5.59C21.0366 5.21441 20.5296 5.00223 20 5H4C3.46957 5 2.96086 5.21071 2.58579 5.58579C2.21071 5.96086 2 6.46957 2 7V16C2 16.5304 2.21071 17.0391 2.58579 17.4142C2.96086 17.7893 3.46957 18 4 18H20C20.5304 18 21.0391 17.7893 21.4142 17.4142C21.7893 17.0391 22 16.5304 22 16V7C21.9978 6.47042 21.7856 5.96335 21.41 5.59ZM17.5 13C17.4986 13.1309 17.464 13.2592 17.3992 13.3729C17.3345 13.4867 17.2418 13.582 17.13 13.65C17.0132 13.7133 16.8828 13.7476 16.75 13.75C16.6245 13.7498 16.5009 13.7189 16.39 13.66L15 12.9V13C15 13.3978 14.842 13.7794 14.5607 14.0607C14.2794 14.342 13.8978 14.5 13.5 14.5H8.5C8.10218 14.5 7.72064 14.342 7.43934 14.0607C7.15804 13.7794 7 13.3978 7 13V10C7 9.60218 7.15804 9.22064 7.43934 8.93934C7.72064 8.65804 8.10218 8.5 8.5 8.5H13.5C13.8978 8.5 14.2794 8.65804 14.5607 8.93934C14.842 9.22064 15 9.60218 15 10V10.1L16.39 9.34C16.5028 9.27602 16.6303 9.24238 16.76 9.24238C16.8897 9.24238 17.0172 9.27602 17.13 9.34C17.2418 9.40797 17.3345 9.50333 17.3992 9.61706C17.464 9.73079 17.4986 9.85914 17.5 9.99V13Z" fill="currentColor"/>
  </symbol>
  <symbol id="ic_tv_cam" viewBox="0 0 24 24">
    <path d="M12 7C12.1978 7 12.3911 6.94135 12.5556 6.83147C12.72 6.72159 12.8482 6.56541 12.9239 6.38268C12.9996 6.19996 13.0194 5.99889 12.9808 5.80491C12.9422 5.61093 12.847 5.43275 12.7071 5.29289C12.5673 5.15304 12.3891 5.0578 12.1951 5.01922C12.0011 4.98063 11.8 5.00043 11.6173 5.07612C11.4346 5.15181 11.2784 5.27998 11.1685 5.44443C11.0586 5.60888 11 5.80222 11 6C11 6.26522 11.1054 6.51957 11.2929 6.70711C11.4804 6.89464 11.7348 7 12 7ZM20 5H15V6C15 6.79565 14.6839 7.55871 14.1213 8.12132C13.5587 8.68393 12.7956 9 12 9C11.4071 8.99595 10.8276 8.82246 10.33 8.5C9.91961 8.22501 9.58349 7.85293 9.35147 7.4168C9.11945 6.98067 8.99872 6.494 9 6V5H4C3.46957 5 2.96086 5.21071 2.58579 5.58579C2.21071 5.96086 2 6.46957 2 7V16C2 16.5304 2.21071 17.0391 2.58579 17.4142C2.96086 17.7893 3.46957 18 4 18H20C20.5304 18 21.0391 17.7893 21.4142 17.4142C21.7893 17.0391 22 16.5304 22 16V7C22 6.46957 21.7893 5.96086 21.4142 5.58579C21.0391 5.21071 20.5304 5 20 5ZM15 19H9C8.73478 19 8.48043 19.1054 8.29289 19.2929C8.10536 19.4804 8 19.7348 8 20C8 20.2652 8.10536 20.5196 8.29289 20.7071C8.48043 20.8946 8.73478 21 9 21H15C15.2652 21 15.5196 20.8946 15.7071 20.7071C15.8946 20.5196 16 20.2652 16 20C16 19.7348 15.8946 19.4804 15.7071 19.2929C15.5196 19.1054 15.2652 19 15 19Z" fill="currentColor"/>
  </symbol>
  <symbol id="ic_tv_channels" viewBox="0 0 24 24">
    <path d="M15 19H9C8.73478 19 8.48043 19.1054 8.29289 19.2929C8.10536 19.4804 8 19.7348 8 20C8 20.2652 8.10536 20.5196 8.29289 20.7071C8.48043 20.8946 8.73478 21 9 21H15C15.2652 21 15.5196 20.8946 15.7071 20.7071C15.8946 20.5196 16 20.2652 16 20C16 19.7348 15.8946 19.4804 15.7071 19.2929C15.5196 19.1054 15.2652 19 15 19ZM20 5H4C3.46957 5 2.96086 5.21071 2.58579 5.58579C2.21071 5.96086 2 6.46957 2 7V16C2 16.5304 2.21071 17.0391 2.58579 17.4142C2.96086 17.7893 3.46957 18 4 18H20C20.5304 18 21.0391 17.7893 21.4142 17.4142C21.7893 17.0391 22 16.5304 22 16V7C22 6.46957 21.7893 5.96086 21.4142 5.58579C21.0391 5.21071 20.5304 5 20 5ZM15.08 15.3C14.9237 15.3968 14.7438 15.4487 14.56 15.45C14.3902 15.4542 14.2222 15.4151 14.0717 15.3363C13.9213 15.2576 13.7933 15.1419 13.7 15C13.5206 14.7106 13.2703 14.4717 12.9728 14.3061C12.6754 14.1405 12.3405 14.0536 12 14.0536C11.6595 14.0536 11.3246 14.1405 11.0272 14.3061C10.7297 14.4717 10.4794 14.7106 10.3 15C10.1608 15.2268 9.93715 15.3889 9.67835 15.4508C9.41955 15.5127 9.14676 15.4692 8.92 15.33C8.69324 15.1908 8.53108 14.9671 8.46919 14.7083C8.40731 14.4495 8.45076 14.1768 8.59 13.95C8.94766 13.3667 9.44896 12.8849 10.046 12.5507C10.643 12.2164 11.3158 12.0409 12 12.0409C12.6842 12.0409 13.357 12.2164 13.954 12.5507C14.551 12.8849 15.0523 13.3667 15.41 13.95C15.5407 14.1739 15.5794 14.4398 15.5178 14.6917C15.4563 14.9436 15.2993 15.1617 15.08 15.3ZM18.08 12.3C17.9001 12.4491 17.6737 12.5305 17.44 12.53C17.2923 12.529 17.1466 12.4953 17.0135 12.4314C16.8804 12.3674 16.7631 12.2747 16.67 12.16C16.1073 11.47 15.3981 10.9138 14.5938 10.5319C13.7896 10.1499 12.9104 9.95177 12.02 9.95177C11.1296 9.95177 10.2504 10.1499 9.44615 10.5319C8.64187 10.9138 7.93268 11.47 7.37 12.16C7.1986 12.3372 6.9678 12.4448 6.72191 12.4622C6.47601 12.4796 6.23236 12.4056 6.03771 12.2543C5.84306 12.103 5.71114 11.8852 5.66726 11.6427C5.62339 11.4001 5.67066 11.1499 5.8 10.94C6.55023 10.02 7.49583 9.27842 8.5682 8.76916C9.64058 8.2599 10.8128 7.99569 12 7.99569C13.1872 7.99569 14.3594 8.2599 15.4318 8.76916C16.5042 9.27842 17.4498 10.02 18.2 10.94C18.2836 11.0417 18.3464 11.1588 18.3846 11.2848C18.4228 11.4108 18.4358 11.5431 18.4228 11.6741C18.4098 11.8051 18.3711 11.9322 18.3088 12.0482C18.2465 12.1642 18.162 12.2668 18.06 12.35L18.08 12.3Z" fill="currentColor"/>
  </symbol>
  <symbol id="ic_tv_online" viewBox="0 0 24 24">
    <path d="M20 5H4C3.46957 5 2.96086 5.21071 2.58579 5.58579C2.21071 5.96086 2 6.46957 2 7V16C2 16.5304 2.21071 17.0391 2.58579 17.4142C2.96086 17.7893 3.46957 18 4 18H20C20.5304 18 21.0391 17.7893 21.4142 17.4142C21.7893 17.0391 22 16.5304 22 16V7C22 6.46957 21.7893 5.96086 21.4142 5.58579C21.0391 5.21071 20.5304 5 20 5ZM20 11C20 11.2652 19.8946 11.5196 19.7071 11.7071C19.5196 11.8946 19.2652 12 19 12C18.7348 12 18.4804 11.8946 18.2929 11.7071C18.1054 11.5196 18 11.2652 18 11V10.41L15.71 12.71C15.617 12.8037 15.5064 12.8781 15.3846 12.9289C15.2627 12.9797 15.132 13.0058 15 13.0058C14.868 13.0058 14.7373 12.9797 14.6154 12.9289C14.4936 12.8781 14.383 12.8037 14.29 12.71C14.1963 12.617 14.1219 12.5064 14.0711 12.3846C14.0203 12.2627 13.9942 12.132 13.9942 12C13.9942 11.868 14.0203 11.7373 14.0711 11.6154C14.1219 11.4936 14.1963 11.383 14.29 11.29L16.59 9H16C15.7348 9 15.4804 8.89464 15.2929 8.70711C15.1054 8.51957 15 8.26522 15 8C15 7.73478 15.1054 7.48043 15.2929 7.29289C15.4804 7.10536 15.7348 7 16 7H19C19.1307 7.00158 19.2598 7.02876 19.38 7.08C19.6243 7.18147 19.8185 7.37565 19.92 7.62C19.9712 7.74022 19.9984 7.86932 20 8V11ZM15 19H9C8.73478 19 8.48043 19.1054 8.29289 19.2929C8.10536 19.4804 8 19.7348 8 20C8 20.2652 8.10536 20.5196 8.29289 20.7071C8.48043 20.8946 8.73478 21 9 21H15C15.2652 21 15.5196 20.8946 15.7071 20.7071C15.8946 20.5196 16 20.2652 16 20C16 19.7348 15.8946 19.4804 15.7071 19.2929C15.5196 19.1054 15.2652 19 15 19Z" fill="currentColor"/>
  </symbol>
  <symbol id="ic_tv_play" viewBox="0 0 24 24">
    <path d="M15 19H9C8.73478 19 8.48043 19.1054 8.29289 19.2929C8.10536 19.4804 8 19.7348 8 20C8 20.2652 8.10536 20.5196 8.29289 20.7071C8.48043 20.8946 8.73478 21 9 21H15C15.2652 21 15.5196 20.8946 15.7071 20.7071C15.8946 20.5196 16 20.2652 16 20C16 19.7348 15.8946 19.4804 15.7071 19.2929C15.5196 19.1054 15.2652 19 15 19ZM20 5H4C3.46957 5 2.96086 5.21071 2.58579 5.58579C2.21071 5.96086 2 6.46957 2 7V16C2 16.5304 2.21071 17.0391 2.58579 17.4142C2.96086 17.7893 3.46957 18 4 18H20C20.5304 18 21.0391 17.7893 21.4142 17.4142C21.7893 17.0391 22 16.5304 22 16V7C22 6.46957 21.7893 5.96086 21.4142 5.58579C21.0391 5.21071 20.5304 5 20 5ZM14.55 12.33L11.55 14.33C11.3996 14.429 11.2252 14.4856 11.0453 14.4938C10.8654 14.502 10.6867 14.4614 10.5279 14.3764C10.3692 14.2914 10.2363 14.1651 10.1434 14.0108C10.0505 13.8566 10.0009 13.6801 10 13.5V9.5C10.0005 9.3191 10.05 9.14171 10.1434 8.98674C10.2367 8.83177 10.3703 8.70502 10.53 8.62C10.6864 8.53971 10.8611 8.50205 11.0367 8.51083C11.2123 8.51961 11.3824 8.57451 11.53 8.67L14.53 10.67C14.6661 10.7615 14.7777 10.885 14.8548 11.0298C14.9319 11.1745 14.9722 11.336 14.9722 11.5C14.9722 11.664 14.9319 11.8255 14.8548 11.9702C14.7777 12.115 14.6661 12.2385 14.53 12.33H14.55Z" fill="currentColor"/>
  </symbol>
  <symbol id="ic_tv_plus" viewBox="0 0 24 24">
    <path d="M15 19H9C8.73478 19 8.48043 19.1054 8.29289 19.2929C8.10536 19.4804 8 19.7348 8 20C8 20.2652 8.10536 20.5196 8.29289 20.7071C8.48043 20.8946 8.73478 21 9 21H15C15.2652 21 15.5196 20.8946 15.7071 20.7071C15.8946 20.5196 16 20.2652 16 20C16 19.7348 15.8946 19.4804 15.7071 19.2929C15.5196 19.1054 15.2652 19 15 19ZM21.41 5.59C21.0366 5.21441 20.5296 5.00223 20 5H4C3.46957 5 2.96086 5.21071 2.58579 5.58579C2.21071 5.96086 2 6.46957 2 7V16C2 16.5304 2.21071 17.0391 2.58579 17.4142C2.96086 17.7893 3.46957 18 4 18H20C20.5304 18 21.0391 17.7893 21.4142 17.4142C21.7893 17.0391 22 16.5304 22 16V7C21.9978 6.47042 21.7856 5.96335 21.41 5.59ZM19.71 10.71C19.6166 10.8027 19.5057 10.876 19.3839 10.9258C19.2621 10.9755 19.1316 11.0008 19 11H18V12C18 12.2652 17.8946 12.5196 17.7071 12.7071C17.5196 12.8946 17.2652 13 17 13C16.7348 13 16.4804 12.8946 16.2929 12.7071C16.1054 12.5196 16 12.2652 16 12V11H15C14.7348 11 14.4804 10.8946 14.2929 10.7071C14.1054 10.5196 14 10.2652 14 10C14 9.73478 14.1054 9.48043 14.2929 9.29289C14.4804 9.10536 14.7348 9 15 9H16V8C16 7.73478 16.1054 7.48043 16.2929 7.29289C16.4804 7.10536 16.7348 7 17 7C17.2652 7 17.5196 7.10536 17.7071 7.29289C17.8946 7.48043 18 7.73478 18 8V9H19C19.1986 8.99884 19.3931 9.05687 19.5586 9.16667C19.7241 9.27647 19.8532 9.43307 19.9294 9.61652C20.0055 9.79996 20.0254 10.0019 19.9863 10.1967C19.9472 10.3914 19.851 10.5701 19.71 10.71Z" fill="currentColor"/>
  </symbol>
</svg>
