<!-- JioGames DLS — usb icons (4 icons) -->
<svg xmlns="http://www.w3.org/2000/svg" style="display:none">
  <symbol id="ic_usb" viewBox="0 0 24 24">
    <path d="M18 5.9998H16C15.7347 5.9998 15.4804 6.10516 15.2928 6.29269C15.1053 6.48023 15 6.73458 15 6.9998V8.9998C15 9.26502 15.1053 9.51937 15.2928 9.70691C15.4804 9.89444 15.7347 9.9998 16 9.9998C16 10.8998 15.23 11.3998 14 12.1398C13.69 12.3298 13.36 12.5298 13 12.7398V5.9998H13.25C13.4286 6.00016 13.6041 5.95264 13.7582 5.86218C13.9123 5.77172 14.0393 5.64163 14.1261 5.48544C14.2129 5.32925 14.2562 5.15267 14.2516 4.97405C14.247 4.79544 14.1947 4.62131 14.1 4.4698L12.85 2.4698C12.7603 2.32509 12.6351 2.20567 12.4864 2.12286C12.3376 2.04005 12.1702 1.99658 12 1.99658C11.8297 1.99658 11.6623 2.04005 11.5135 2.12286C11.3648 2.20567 11.2396 2.32509 11.15 2.4698L9.89995 4.4698C9.80525 4.62131 9.75288 4.79544 9.74828 4.97405C9.74368 5.15267 9.78702 5.32925 9.87379 5.48544C9.96056 5.64163 10.0876 5.77172 10.2417 5.86218C10.3958 5.95264 10.5713 6.00016 10.75 5.9998H11V14.0598L10.25 13.6698C9.05995 13.0698 8.30995 12.6698 8.07995 11.6698C8.45196 11.4345 8.73593 11.083 8.88786 10.6698C9.03978 10.2567 9.05116 9.80498 8.92023 9.38472C8.7893 8.96445 8.52337 8.59912 8.16369 8.34536C7.804 8.0916 7.37065 7.9636 6.93081 7.98119C6.49097 7.99879 6.06922 8.16099 5.73095 8.44267C5.39268 8.72434 5.15679 9.10975 5.05985 9.53913C4.9629 9.96851 5.01033 10.4179 5.19476 10.8176C5.3792 11.2173 5.69034 11.5449 6.07995 11.7498C6.39995 13.9398 8.07995 14.8098 9.35995 15.4398C9.85603 15.654 10.3177 15.9405 10.73 16.2898C10.0988 16.5811 9.58834 17.0826 9.28591 17.7086C8.98348 18.3345 8.90783 19.046 9.07187 19.7216C9.23591 20.3971 9.62947 20.9947 10.1853 21.4123C10.7411 21.8298 11.4247 22.0414 12.1192 22.0108C12.8137 21.9802 13.476 21.7093 13.9929 21.2445C14.5099 20.7797 14.8494 20.1498 14.9534 19.4625C15.0574 18.7751 14.9195 18.073 14.5632 17.4761C14.2069 16.8792 13.6543 16.4245 13 16.1898V15.9098C13 15.0798 13.75 14.5898 15 13.9098C16.25 13.2298 18 12.1198 18 10.0398C18.2652 10.0398 18.5195 9.93444 18.7071 9.74691C18.8946 9.55937 19 9.30502 19 9.0398V6.9998C19 6.73458 18.8946 6.48023 18.7071 6.29269C18.5195 6.10516 18.2652 5.9998 18 5.9998Z" fill="currentColor"/>
  </symbol>
  <symbol id="ic_usb_cable" viewBox="0 0 24 24">
    <path d="M19 17H17.72C17.5455 16.6977 17.2949 16.4464 16.9932 16.2709C16.6914 16.0955 16.349 16.0021 16 16H14C13.4696 16 12.9609 16.2107 12.5858 16.5858C12.2107 16.9609 12 17.4696 12 18H8.5C7.83696 18 7.20107 17.7366 6.73223 17.2678C6.26339 16.7989 6 16.163 6 15.5C6 14.837 6.26339 14.2011 6.73223 13.7322C7.20107 13.2634 7.83696 13 8.5 13H15.5C16.6935 13 17.8381 12.5259 18.682 11.682C19.5259 10.8381 20 9.69347 20 8.5C20 7.30653 19.5259 6.16193 18.682 5.31802C17.8381 4.47411 16.6935 4 15.5 4H12C12 3.46957 11.7893 2.96086 11.4142 2.58579C11.0391 2.21071 10.5304 2 10 2H8C7.65097 2.00211 7.30857 2.09552 7.00683 2.27095C6.70509 2.44638 6.45451 2.69772 6.28 3H5C4.73478 3 4.48043 3.10536 4.29289 3.29289C4.10536 3.48043 4 3.73478 4 4V6C4 6.26522 4.10536 6.51957 4.29289 6.70711C4.48043 6.89464 4.73478 7 5 7H6.28C6.45451 7.30228 6.70509 7.55362 7.00683 7.72905C7.30857 7.90448 7.65097 7.99789 8 8H10C10.5304 8 11.0391 7.78929 11.4142 7.41421C11.7893 7.03914 12 6.53043 12 6H15.5C16.163 6 16.7989 6.26339 17.2678 6.73223C17.7366 7.20107 18 7.83696 18 8.5C18 9.16304 17.7366 9.79893 17.2678 10.2678C16.7989 10.7366 16.163 11 15.5 11H8.5C7.30653 11 6.16193 11.4741 5.31802 12.318C4.47411 13.1619 4 14.3065 4 15.5C4 16.6935 4.47411 17.8381 5.31802 18.682C6.16193 19.5259 7.30653 20 8.5 20H12C12 20.5304 12.2107 21.0391 12.5858 21.4142C12.9609 21.7893 13.4696 22 14 22H16C16.349 21.9979 16.6914 21.9045 16.9932 21.7291C17.2949 21.5536 17.5455 21.3023 17.72 21H19C19.2652 21 19.5196 20.8946 19.7071 20.7071C19.8946 20.5196 20 20.2652 20 20V18C20 17.7348 19.8946 17.4804 19.7071 17.2929C19.5196 17.1054 19.2652 17 19 17Z" fill="currentColor"/>
  </symbol>
  <symbol id="ic_usb_dongle" viewBox="0 0 24 24">
    <path d="M8 8H16C16.2652 8 16.5196 7.89464 16.7071 7.70711C16.8946 7.51957 17 7.26522 17 7V3C17 2.73478 16.8946 2.48043 16.7071 2.29289C16.5196 2.10536 16.2652 2 16 2H8C7.73478 2 7.48043 2.10536 7.29289 2.29289C7.10536 2.48043 7 2.73478 7 3V7C7 7.26522 7.10536 7.51957 7.29289 7.70711C7.48043 7.89464 7.73478 8 8 8ZM13 4.5C13 4.36739 13.0527 4.24021 13.1464 4.14645C13.2402 4.05268 13.3674 4 13.5 4H14.5C14.6326 4 14.7598 4.05268 14.8536 4.14645C14.9473 4.24021 15 4.36739 15 4.5V5.5C15 5.63261 14.9473 5.75979 14.8536 5.85355C14.7598 5.94732 14.6326 6 14.5 6H13.5C13.3674 6 13.2402 5.94732 13.1464 5.85355C13.0527 5.75979 13 5.63261 13 5.5V4.5ZM9 4.5C9 4.36739 9.05268 4.24021 9.14645 4.14645C9.24021 4.05268 9.36739 4 9.5 4H10.5C10.6326 4 10.7598 4.05268 10.8536 4.14645C10.9473 4.24021 11 4.36739 11 4.5V5.5C11 5.63261 10.9473 5.75979 10.8536 5.85355C10.7598 5.94732 10.6326 6 10.5 6H9.5C9.36739 6 9.24021 5.94732 9.14645 5.85355C9.05268 5.75979 9 5.63261 9 5.5V4.5ZM18 10H6C5.73478 10 5.48043 10.1054 5.29289 10.2929C5.10536 10.4804 5 10.7348 5 11V15C5 16.8565 5.7375 18.637 7.05025 19.9497C8.36301 21.2625 10.1435 22 12 22C13.8565 22 15.637 21.2625 16.9497 19.9497C18.2625 18.637 19 16.8565 19 15V11C19 10.7348 18.8946 10.4804 18.7071 10.2929C18.5196 10.1054 18.2652 10 18 10Z" fill="currentColor"/>
  </symbol>
  <symbol id="ic_usb_stick" viewBox="0 0 24 24">
    <path d="M18 8H17V3C17 2.73478 16.8946 2.48043 16.7071 2.29289C16.5196 2.10536 16.2652 2 16 2H8C7.73478 2 7.48043 2.10536 7.29289 2.29289C7.10536 2.48043 7 2.73478 7 3V8H6C5.73478 8 5.48043 8.10536 5.29289 8.29289C5.10536 8.48043 5 8.73478 5 9V19C5 19.7956 5.31607 20.5587 5.87868 21.1213C6.44129 21.6839 7.20435 22 8 22H16C16.7956 22 17.5587 21.6839 18.1213 21.1213C18.6839 20.5587 19 19.7956 19 19V9C19 8.73478 18.8946 8.48043 18.7071 8.29289C18.5196 8.10536 18.2652 8 18 8ZM11 5.5C11 5.63261 10.9473 5.75979 10.8536 5.85355C10.7598 5.94732 10.6326 6 10.5 6H9.5C9.36739 6 9.24021 5.94732 9.14645 5.85355C9.05268 5.75979 9 5.63261 9 5.5V4.5C9 4.36739 9.05268 4.24021 9.14645 4.14645C9.24021 4.05268 9.36739 4 9.5 4H10.5C10.6326 4 10.7598 4.05268 10.8536 4.14645C10.9473 4.24021 11 4.36739 11 4.5V5.5ZM15 5.5C15 5.63261 14.9473 5.75979 14.8536 5.85355C14.7598 5.94732 14.6326 6 14.5 6H13.5C13.3674 6 13.2402 5.94732 13.1464 5.85355C13.0527 5.75979 13 5.63261 13 5.5V4.5C13 4.36739 13.0527 4.24021 13.1464 4.14645C13.2402 4.05268 13.3674 4 13.5 4H14.5C14.6326 4 14.7598 4.05268 14.8536 4.14645C14.9473 4.24021 15 4.36739 15 4.5V5.5Z" fill="currentColor"/>
  </symbol>
</svg>
