<!-- JioGames DLS — ut icons (3 icons) -->
<svg xmlns="http://www.w3.org/2000/svg" style="display:none">
  <symbol id="ic_cut" viewBox="0 0 24 24">
    <path d="M20.9999 2.99987C20.9066 2.90309 20.7948 2.82611 20.6711 2.77353C20.5474 2.72095 20.4143 2.69385 20.2799 2.69385C20.1455 2.69385 20.0124 2.72095 19.8887 2.77353C19.765 2.82611 19.6532 2.90309 19.5599 2.99987L2.99989 19.5599C2.90534 19.6544 2.83034 19.7667 2.77917 19.8902C2.728 20.0138 2.70166 20.1462 2.70166 20.2799C2.70166 20.4136 2.728 20.546 2.77917 20.6695C2.83034 20.7931 2.90534 20.9053 2.99989 20.9999C3.09445 21.0944 3.20669 21.1694 3.33023 21.2206C3.45377 21.2718 3.58618 21.2981 3.71989 21.2981C3.85361 21.2981 3.98602 21.2718 4.10956 21.2206C4.23309 21.1694 4.34534 21.0944 4.43989 20.9999L20.9999 4.43987C21.0967 4.34659 21.1737 4.23475 21.2262 4.11104C21.2788 3.98733 21.3059 3.85429 21.3059 3.71987C21.3059 3.58545 21.2788 3.45241 21.2262 3.3287C21.1737 3.205 21.0967 3.09316 20.9999 2.99987ZM5.99989 2.99987C5.20424 2.99987 4.44118 3.31594 3.87857 3.87855C3.31596 4.44116 2.99989 5.20422 2.99989 5.99987V16.7599L16.7599 2.99987H5.99989ZM17.9999 20.9999C18.7955 20.9999 19.5586 20.6838 20.1212 20.1212C20.6838 19.5586 20.9999 18.7955 20.9999 17.9999V7.23987L7.23989 20.9999H17.9999Z" fill="currentColor"/>
  </symbol>
  <symbol id="ic_cut_out" viewBox="0 0 24 24">
    <path d="M11 5.0002H13C13.2652 5.0002 13.5196 4.89484 13.7071 4.7073C13.8946 4.51977 14 4.26541 14 4.0002C14 3.73498 13.8946 3.48063 13.7071 3.29309C13.5196 3.10556 13.2652 3.0002 13 3.0002H11C10.7348 3.0002 10.4804 3.10556 10.2929 3.29309C10.1054 3.48063 10 3.73498 10 4.0002C10 4.26541 10.1054 4.51977 10.2929 4.7073C10.4804 4.89484 10.7348 5.0002 11 5.0002ZM4 14.0002C4.26522 14.0002 4.51957 13.8948 4.70711 13.7073C4.89464 13.5198 5 13.2654 5 13.0002V11.0002C5 10.735 4.89464 10.4806 4.70711 10.2931C4.51957 10.1056 4.26522 10.0002 4 10.0002C3.73478 10.0002 3.48043 10.1056 3.29289 10.2931C3.10536 10.4806 3 10.735 3 11.0002V13.0002C3 13.2654 3.10536 13.5198 3.29289 13.7073C3.48043 13.8948 3.73478 14.0002 4 14.0002ZM13 19.0002H11C10.7348 19.0002 10.4804 19.1056 10.2929 19.2931C10.1054 19.4806 10 19.735 10 20.0002C10 20.2654 10.1054 20.5198 10.2929 20.7073C10.4804 20.8948 10.7348 21.0002 11 21.0002H13C13.2652 21.0002 13.5196 20.8948 13.7071 20.7073C13.8946 20.5198 14 20.2654 14 20.0002C14 19.735 13.8946 19.4806 13.7071 19.2931C13.5196 19.1056 13.2652 19.0002 13 19.0002ZM16.6 15.2002L12.34 12.0002L16.6 8.8002C16.8122 8.64107 16.9524 8.40417 16.99 8.14162C17.0275 7.87907 16.9591 7.61237 16.8 7.4002C16.6409 7.18803 16.404 7.04776 16.1414 7.01025C15.8789 6.97274 15.6122 7.04107 15.4 7.2002L10.68 10.7502L7.68 8.4902C7.84107 8.38098 7.99171 8.25712 8.13 8.1202C8.54993 7.70079 8.83602 7.16625 8.95208 6.5842C9.06814 6.00216 9.00895 5.39877 8.782 4.85037C8.55504 4.30197 8.17053 3.83322 7.6771 3.50341C7.18367 3.1736 6.6035 2.99756 6.01 2.99756C5.4165 2.99756 4.83633 3.1736 4.3429 3.50341C3.84947 3.83322 3.46496 4.30197 3.238 4.85037C3.01105 5.39877 2.95186 6.00216 3.06792 6.5842C3.18398 7.16625 3.47007 7.70079 3.89 8.1202C4.05061 8.27935 4.22836 8.42021 4.42 8.5402L9 12.0002L4.41 15.4602C4.21836 15.5802 4.04061 15.721 3.88 15.8802C3.3182 16.4427 3.00264 17.2052 3.00264 18.0002C3.00264 18.7952 3.3182 19.5577 3.88 20.1202C4.4425 20.682 5.205 20.9976 6 20.9976C6.795 20.9976 7.5575 20.682 8.12 20.1202C8.6818 19.5577 8.99736 18.7952 8.99736 18.0002C8.99736 17.2052 8.6818 16.4427 8.12 15.8802C7.98171 15.7433 7.83107 15.6194 7.67 15.5102L10.67 13.2502L15.4 16.8002C15.5731 16.93 15.7836 17.0002 16 17.0002C16.1552 17.0002 16.3084 16.9641 16.4472 16.8946C16.5861 16.8252 16.7069 16.7244 16.8 16.6002C16.8788 16.4951 16.9361 16.3756 16.9687 16.2484C17.0013 16.1212 17.0085 15.9888 16.99 15.8588C16.9714 15.7288 16.9274 15.6037 16.8605 15.4907C16.7936 15.3777 16.7051 15.279 16.6 15.2002ZM6.71 6.7102C6.5217 6.8985 6.2663 7.00429 6 7.00429C5.7337 7.00429 5.4783 6.8985 5.29 6.7102C5.1017 6.52189 4.99591 6.2665 4.99591 6.0002C4.99591 5.7339 5.1017 5.4785 5.29 5.2902C5.38296 5.19647 5.49356 5.12208 5.61542 5.07131C5.73728 5.02054 5.86799 4.9944 6 4.9944C6.13201 4.9944 6.26272 5.02054 6.38458 5.07131C6.50644 5.12208 6.61704 5.19647 6.71 5.2902C6.80373 5.38316 6.87812 5.49376 6.92889 5.61562C6.97966 5.73748 7.0058 5.86819 7.0058 6.0002C7.0058 6.13221 6.97966 6.26292 6.92889 6.38478C6.87812 6.50663 6.80373 6.61724 6.71 6.7102ZM6.71 18.7102C6.5217 18.8985 6.2663 19.0043 6 19.0043C5.7337 19.0043 5.4783 18.8985 5.29 18.7102C5.1017 18.5219 4.99591 18.2665 4.99591 18.0002C4.99591 17.7339 5.1017 17.4785 5.29 17.2902C5.38296 17.1965 5.49356 17.1221 5.61542 17.0713C5.73728 17.0205 5.86799 16.9944 6 16.9944C6.13201 16.9944 6.26272 17.0205 6.38458 17.0713C6.50644 17.1221 6.61704 17.1965 6.71 17.2902C6.80373 17.3832 6.87812 17.4938 6.92889 17.6156C6.97966 17.7375 7.0058 17.8682 7.0058 18.0002C7.0058 18.1322 6.97966 18.2629 6.92889 18.3848C6.87812 18.5066 6.80373 18.6172 6.71 18.7102ZM18 3.0002H17C16.7348 3.0002 16.4804 3.10556 16.2929 3.29309C16.1054 3.48063 16 3.73498 16 4.0002C16 4.26541 16.1054 4.51977 16.2929 4.7073C16.4804 4.89484 16.7348 5.0002 17 5.0002H18C18.2652 5.0002 18.5196 5.10556 18.7071 5.29309C18.8946 5.48063 19 5.73498 19 6.0002V7.0002C19 7.26541 19.1054 7.51977 19.2929 7.7073C19.4804 7.89484 19.7348 8.0002 20 8.0002C20.2652 8.0002 20.5196 7.89484 20.7071 7.7073C20.8946 7.51977 21 7.26541 21 7.0002V6.0002C21 5.20455 20.6839 4.44149 20.1213 3.87888C19.5587 3.31627 18.7956 3.0002 18 3.0002ZM20 16.0002C19.7348 16.0002 19.4804 16.1056 19.2929 16.2931C19.1054 16.4806 19 16.735 19 17.0002V18.0002C19 18.2654 18.8946 18.5198 18.7071 18.7073C18.5196 18.8948 18.2652 19.0002 18 19.0002H17C16.7348 19.0002 16.4804 19.1056 16.2929 19.2931C16.1054 19.4806 16 19.735 16 20.0002C16 20.2654 16.1054 20.5198 16.2929 20.7073C16.4804 20.8948 16.7348 21.0002 17 21.0002H18C18.7956 21.0002 19.5587 20.6841 20.1213 20.1215C20.6839 19.5589 21 18.7958 21 18.0002V17.0002C21 16.735 20.8946 16.4806 20.7071 16.2931C20.5196 16.1056 20.2652 16.0002 20 16.0002ZM20 10.0002C19.7348 10.0002 19.4804 10.1056 19.2929 10.2931C19.1054 10.4806 19 10.735 19 11.0002V13.0002C19 13.2654 19.1054 13.5198 19.2929 13.7073C19.4804 13.8948 19.7348 14.0002 20 14.0002C20.2652 14.0002 20.5196 13.8948 20.7071 13.7073C20.8946 13.5198 21 13.2654 21 13.0002V11.0002C21 10.735 20.8946 10.4806 20.7071 10.2931C20.5196 10.1056 20.2652 10.0002 20 10.0002Z" fill="currentColor"/>
  </symbol>
  <symbol id="ic_cut_scissor" viewBox="0 0 24 24">
    <path d="M19.6901 5.72002C19.8589 5.53236 19.9504 5.28784 19.9464 5.03549C19.9424 4.78314 19.8432 4.54164 19.6686 4.35943C19.4939 4.17721 19.2569 4.06776 19.0049 4.05304C18.753 4.03831 18.5048 4.11939 18.3101 4.28002L14.8201 7.61002L16.0001 3.25002C16.0664 2.9848 16.0246 2.70411 15.884 2.46969C15.7433 2.23527 15.5153 2.06632 15.2501 2.00002C14.9849 1.93371 14.7042 1.97548 14.4698 2.11613C14.2354 2.25679 14.0664 2.4848 14.0001 2.75002L12.0001 10.26L9.81011 12.41C9.65703 11.8819 9.37922 11.3983 9.00011 11C8.33145 10.3477 7.43428 9.98252 6.50011 9.98252C5.56594 9.98252 4.66877 10.3477 4.00011 11C3.50028 11.4896 3.15865 12.1178 3.01932 12.8034C2.87999 13.489 2.94935 14.2007 3.21845 14.8465C3.48755 15.4924 3.94404 16.0427 4.52899 16.4266C5.11395 16.8105 5.80053 17.0102 6.50011 17C6.96213 17.0061 7.4208 16.9209 7.84981 16.7493C8.27882 16.5777 8.66973 16.323 9.00011 16L11.1301 14L10.1301 17.68C9.89469 18.5737 10.0223 19.5242 10.485 20.3241C10.9477 21.1241 11.7081 21.7085 12.6001 21.95C12.9004 22.0292 13.2096 22.0695 13.5201 22.07C14.2882 22.0679 15.0343 21.8132 15.6433 21.3451C16.2523 20.8771 16.6904 20.2217 16.8901 19.48C17.1288 18.5837 17.003 17.6293 16.5402 16.8254C16.0773 16.0216 15.3151 15.4336 14.4201 15.19C13.907 15.0706 13.3732 15.0706 12.8601 15.19L13.8601 11.38L19.6901 5.72002ZM5.44011 14.56C5.15921 14.2788 5.00143 13.8975 5.00143 13.5C5.00143 13.1025 5.15921 12.7213 5.44011 12.44C5.57743 12.2926 5.74303 12.1744 5.92703 12.0925C6.11103 12.0105 6.30966 11.9664 6.51106 11.9628C6.71247 11.9593 6.91253 11.9963 7.0993 12.0718C7.28608 12.1472 7.45575 12.2595 7.59819 12.4019C7.74062 12.5444 7.85291 12.714 7.92835 12.9008C8.0038 13.0876 8.04084 13.2877 8.03729 13.4891C8.03374 13.6905 7.98965 13.8891 7.90767 14.0731C7.82569 14.2571 7.70748 14.4227 7.56011 14.56C7.27514 14.8338 6.89529 14.9867 6.50011 14.9867C6.10493 14.9867 5.72508 14.8338 5.44011 14.56ZM13.8901 17.09C14.2487 17.2249 14.5426 17.491 14.7123 17.8345C14.882 18.178 14.9148 18.5731 14.8041 18.9399C14.6933 19.3066 14.4473 19.6176 14.1159 19.8097C13.7844 20.0019 13.3923 20.0608 13.019 19.9747C12.6457 19.8886 12.3191 19.6637 12.1054 19.3458C11.8917 19.0278 11.8068 18.6405 11.8679 18.2623C11.9291 17.8841 12.1317 17.5433 12.4348 17.3089C12.7379 17.0745 13.1187 16.9641 13.5001 17C13.6331 17.0149 13.764 17.0451 13.8901 17.09Z" fill="currentColor"/>
  </symbol>
</svg>
