<!-- JioGames DLS — v icons (3 icons) -->
<svg xmlns="http://www.w3.org/2000/svg" style="display:none">
  <symbol id="ic_ccv" viewBox="0 0 24 24">
    <path d="M20 5H4C3.46957 5 2.96086 5.21071 2.58579 5.58579C2.21071 5.96086 2 6.46957 2 7V9H22V7C22 6.46957 21.7893 5.96086 21.4142 5.58579C21.0391 5.21071 20.5304 5 20 5ZM2 17C2 17.5304 2.21071 18.0391 2.58579 18.4142C2.96086 18.7893 3.46957 19 4 19H20C20.5304 19 21.0391 18.7893 21.4142 18.4142C21.7893 18.0391 22 17.5304 22 17V11H2V17ZM19 13C19.1978 13 19.3911 13.0586 19.5556 13.1685C19.72 13.2784 19.8482 13.4346 19.9239 13.6173C19.9996 13.8 20.0194 14.0011 19.9808 14.1951C19.9422 14.3891 19.847 14.5673 19.7071 14.7071C19.5673 14.847 19.3891 14.9422 19.1951 14.9808C19.0011 15.0194 18.8 14.9996 18.6173 14.9239C18.4346 14.8482 18.2784 14.72 18.1685 14.5556C18.0586 14.3911 18 14.1978 18 14C18 13.7348 18.1054 13.4804 18.2929 13.2929C18.4804 13.1054 18.7348 13 19 13ZM16 13C16.1978 13 16.3911 13.0586 16.5556 13.1685C16.72 13.2784 16.8482 13.4346 16.9239 13.6173C16.9996 13.8 17.0194 14.0011 16.9808 14.1951C16.9422 14.3891 16.847 14.5673 16.7071 14.7071C16.5673 14.847 16.3891 14.9422 16.1951 14.9808C16.0011 15.0194 15.8 14.9996 15.6173 14.9239C15.4346 14.8482 15.2784 14.72 15.1685 14.5556C15.0586 14.3911 15 14.1978 15 14C15 13.7348 15.1054 13.4804 15.2929 13.2929C15.4804 13.1054 15.7348 13 16 13ZM13 13C13.1978 13 13.3911 13.0586 13.5556 13.1685C13.72 13.2784 13.8482 13.4346 13.9239 13.6173C13.9996 13.8 14.0194 14.0011 13.9808 14.1951C13.9422 14.3891 13.847 14.5673 13.7071 14.7071C13.5673 14.847 13.3891 14.9422 13.1951 14.9808C13.0011 15.0194 12.8 14.9996 12.6173 14.9239C12.4346 14.8482 12.2784 14.72 12.1685 14.5556C12.0586 14.3911 12 14.1978 12 14C12 13.7348 12.1054 13.4804 12.2929 13.2929C12.4804 13.1054 12.7348 13 13 13Z" fill="currentColor"/>
  </symbol>
  <symbol id="ic_ccv_off" viewBox="0 0 24 24">
    <path d="M14.76 5.00015H4C3.46957 5.00015 2.96086 5.21086 2.58579 5.58593C2.21071 5.96101 2 6.46971 2 7.00015V9.00015H10.76L14.76 5.00015ZM22 9.00015V7.00015C22.0086 6.52943 21.8508 6.07078 21.5545 5.70494C21.2581 5.3391 20.8422 5.08952 20.38 5.00015L20.71 4.67015C20.8032 4.57691 20.8772 4.46622 20.9277 4.3444C20.9781 4.22257 21.0041 4.09201 21.0041 3.96015C21.0041 3.82829 20.9781 3.69772 20.9277 3.5759C20.8772 3.45408 20.8032 3.34338 20.71 3.25015C20.6168 3.15691 20.5061 3.08295 20.3842 3.03249C20.2624 2.98203 20.1319 2.95605 20 2.95605C19.8681 2.95605 19.7376 2.98203 19.6158 3.03249C19.4939 3.08295 19.3832 3.15691 19.29 3.25015L3.29 19.2501C3.19627 19.3431 3.12188 19.4537 3.07111 19.5756C3.02034 19.6974 2.9942 19.8281 2.9942 19.9601C2.9942 20.0922 3.02034 20.2229 3.07111 20.3447C3.12188 20.4666 3.19627 20.5772 3.29 20.6701C3.38296 20.7639 3.49356 20.8383 3.61542 20.889C3.73728 20.9398 3.86799 20.9659 4 20.9659C4.13201 20.9659 4.26272 20.9398 4.38458 20.889C4.50644 20.8383 4.61704 20.7639 4.71 20.6701L6.41 19.0001H20C20.5304 19.0001 21.0391 18.7894 21.4142 18.4144C21.7893 18.0393 22 17.5306 22 17.0001V11.0001H14.41L16.41 9.00015H22ZM19 13.0001C19.1978 13.0001 19.3911 13.0588 19.5556 13.1687C19.72 13.2786 19.8482 13.4347 19.9239 13.6175C19.9996 13.8002 20.0194 14.0013 19.9808 14.1952C19.9422 14.3892 19.847 14.5674 19.7071 14.7073C19.5673 14.8471 19.3891 14.9423 19.1951 14.9809C19.0011 15.0195 18.8 14.9997 18.6173 14.924C18.4346 14.8483 18.2784 14.7202 18.1685 14.5557C18.0586 14.3913 18 14.1979 18 14.0001C18 13.7349 18.1054 13.4806 18.2929 13.293C18.4804 13.1055 18.7348 13.0001 19 13.0001ZM16 13.0001C16.1978 13.0001 16.3911 13.0588 16.5556 13.1687C16.72 13.2786 16.8482 13.4347 16.9239 13.6175C16.9996 13.8002 17.0194 14.0013 16.9808 14.1952C16.9422 14.3892 16.847 14.5674 16.7071 14.7073C16.5673 14.8471 16.3891 14.9423 16.1951 14.9809C16.0011 15.0195 15.8 14.9997 15.6173 14.924C15.4346 14.8483 15.2784 14.7202 15.1685 14.5557C15.0586 14.3913 15 14.1979 15 14.0001C15 13.7349 15.1054 13.4806 15.2929 13.293C15.4804 13.1055 15.7348 13.0001 16 13.0001ZM13 15.0001C12.8022 15.0001 12.6089 14.9415 12.4444 14.8316C12.28 14.7217 12.1518 14.5656 12.0761 14.3828C12.0004 14.2001 11.9806 13.999 12.0192 13.8051C12.0578 13.6111 12.153 13.4329 12.2929 13.293C12.4327 13.1532 12.6109 13.0579 12.8049 13.0194C12.9989 12.9808 13.2 13.0006 13.3827 13.0763C13.5654 13.152 13.7216 13.2801 13.8315 13.4446C13.9414 13.609 14 13.8024 14 14.0001C14 14.2654 13.8946 14.5197 13.7071 14.7073C13.5196 14.8948 13.2652 15.0001 13 15.0001ZM2 11.0001V17.0001C2.00481 17.2177 2.04188 17.4334 2.11 17.6401L8.76 11.0001H2Z" fill="currentColor"/>
  </symbol>
  <symbol id="ic_cv" viewBox="0 0 24 24">
    <path d="M18 3.99991H14.82C14.6098 3.42076 14.2264 2.92037 13.7218 2.56676C13.2173 2.21314 12.6161 2.02344 12 2.02344C11.3839 2.02344 10.7827 2.21314 10.2782 2.56676C9.77363 2.92037 9.3902 3.42076 9.18 3.99991H6C5.46957 3.99991 4.96086 4.21063 4.58579 4.5857C4.21071 4.96077 4 5.46948 4 5.99991V19.9999C4 20.5303 4.21071 21.0391 4.58579 21.4141C4.96086 21.7892 5.46957 21.9999 6 21.9999H18C18.5304 21.9999 19.0391 21.7892 19.4142 21.4141C19.7893 21.0391 20 20.5303 20 19.9999V5.99991C20 5.46948 19.7893 4.96077 19.4142 4.5857C19.0391 4.21063 18.5304 3.99991 18 3.99991ZM12 3.99991C12.1978 3.99991 12.3911 4.05856 12.5556 4.16844C12.72 4.27833 12.8482 4.4345 12.9239 4.61723C12.9996 4.79996 13.0194 5.00102 12.9808 5.195C12.9422 5.38899 12.847 5.56717 12.7071 5.70702C12.5673 5.84687 12.3891 5.94211 12.1951 5.9807C12.0011 6.01928 11.8 5.99948 11.6173 5.92379C11.4346 5.84811 11.2784 5.71993 11.1685 5.55548C11.0586 5.39104 11 5.1977 11 4.99991C11 4.7347 11.1054 4.48034 11.2929 4.29281C11.4804 4.10527 11.7348 3.99991 12 3.99991ZM12 8.49991C12.4945 8.49991 12.9778 8.64654 13.3889 8.92124C13.8 9.19594 14.1205 9.58639 14.3097 10.0432C14.4989 10.5 14.5484 11.0027 14.452 11.4876C14.3555 11.9726 14.1174 12.418 13.7678 12.7677C13.4181 13.1173 12.9727 13.3554 12.4877 13.4519C12.0028 13.5483 11.5001 13.4988 11.0433 13.3096C10.5865 13.1204 10.196 12.8 9.92133 12.3888C9.64662 11.9777 9.5 11.4944 9.5 10.9999C9.5 10.3369 9.76339 9.70099 10.2322 9.23215C10.7011 8.76331 11.337 8.49991 12 8.49991ZM16.31 17.9999C16.2227 18.1511 16.0975 18.2767 15.9466 18.3644C15.7957 18.4522 15.6245 18.4989 15.45 18.4999H8.55C8.37497 18.4989 8.20329 18.4519 8.05211 18.3637C7.90093 18.2755 7.77554 18.1492 7.68848 17.9973C7.60143 17.8455 7.55575 17.6734 7.55602 17.4984C7.55628 17.3234 7.60248 17.1515 7.69 16.9999C8.13147 16.2492 8.76137 15.6268 9.51733 15.1944C10.2733 14.7619 11.1291 14.5345 12 14.5345C12.8709 14.5345 13.7267 14.7619 14.4827 15.1944C15.2386 15.6268 15.8685 16.2492 16.31 16.9999C16.3978 17.1519 16.444 17.3244 16.444 17.4999C16.444 17.6755 16.3978 17.8479 16.31 17.9999Z" fill="currentColor"/>
  </symbol>
</svg>
