<!-- JioGames DLS — vibration icons (1 icons) -->
<svg xmlns="http://www.w3.org/2000/svg" style="display:none">
  <symbol id="ic_vibration_sensor" viewBox="0 0 24 24">
    <path d="M4.91988 5.97023C5.01988 6.07023 5.13988 6.14023 5.27988 6.20023C5.40988 6.25023 5.55988 6.28023 5.69988 6.27023C5.95988 6.27023 6.20988 6.18023 6.39988 6.02023C7.93988 4.71023 9.93988 3.99023 11.9999 3.99023C14.0599 3.99023 16.0599 4.71023 17.5999 6.02023C17.8099 6.20023 18.0799 6.29023 18.3599 6.27023C18.6399 6.26023 18.8999 6.14023 19.0899 5.94023C19.2799 5.74023 19.3699 5.48023 19.3599 5.22023C19.3499 4.96023 19.2199 4.71023 19.0099 4.53023C17.0799 2.89023 14.5899 1.99023 11.9999 1.99023C9.40988 1.99023 6.91988 2.90023 4.98988 4.53023C4.87988 4.62023 4.79988 4.73023 4.72988 4.85023C4.66988 4.97023 4.62988 5.10023 4.62988 5.24023C4.62988 5.38023 4.63988 5.51023 4.68988 5.63023C4.73988 5.76023 4.80988 5.87023 4.90988 5.97023H4.91988Z" fill="currentColor"/>
<path d="M15.7999 6.2C14.7099 5.42 13.3699 5 11.9999 5C10.6299 5 9.29994 5.42 8.19994 6.2C7.97994 6.36 7.82994 6.6 7.79994 6.86C7.75994 7.12 7.83994 7.39 8.00994 7.6C8.17994 7.81 8.42994 7.95 8.70994 7.98C8.98994 8.01 9.26994 7.94 9.48994 7.78C10.2199 7.27 11.0999 6.99 11.9999 6.99C12.8999 6.99 13.7899 7.27 14.5099 7.78C14.6199 7.86 14.7399 7.92 14.8799 7.95C15.0099 7.98 15.1499 7.99 15.2899 7.98C15.5699 7.95 15.8199 7.81 15.9899 7.6C16.0699 7.5 16.1399 7.38 16.1699 7.25C16.2099 7.12 16.2099 6.99 16.1999 6.86C16.1799 6.73 16.1399 6.6 16.0699 6.49C15.9999 6.38 15.9099 6.28 15.7999 6.2Z" fill="currentColor"/>
<path d="M13 8.99023H11C9.89543 8.99023 9 9.88566 9 10.9902V18.9902C9 20.0948 9.89543 20.9902 11 20.9902H13C14.1046 20.9902 15 20.0948 15 18.9902V10.9902C15 9.88566 14.1046 8.99023 13 8.99023Z" fill="currentColor"/>
<path d="M6.63008 8.29982C6.24008 7.90982 5.61008 7.90982 5.22008 8.29982L3.37008 10.1498C2.90008 10.6198 2.90008 11.3898 3.37008 11.8698L4.51008 13.0098L3.37008 14.1498C2.90008 14.6198 2.90008 15.3898 3.37008 15.8698L4.51008 17.0098L3.37008 18.1498C2.90008 18.6198 2.90008 19.3898 3.37008 19.8698L5.22008 21.7198C5.42008 21.9198 5.67008 22.0098 5.93008 22.0098C6.19008 22.0098 6.44008 21.9098 6.64008 21.7198C7.03008 21.3298 7.03008 20.6998 6.64008 20.3098L5.35008 19.0198L6.49008 17.8798C6.96008 17.4098 6.96008 16.6398 6.49008 16.1598L5.35008 15.0198L6.49008 13.8798C6.96008 13.4098 6.96008 12.6398 6.49008 12.1598L5.35008 11.0198L6.64008 9.72982C7.03008 9.33982 7.03008 8.70982 6.64008 8.31982L6.63008 8.29982Z" fill="currentColor"/>
<path d="M20.6499 14.1698L19.5099 13.0298L20.6499 11.8898C21.1199 11.4198 21.1199 10.6498 20.6499 10.1698L18.7999 8.31984C18.4099 7.92984 17.7799 7.92984 17.3899 8.31984C16.9999 8.70984 16.9999 9.33984 17.3899 9.72984L18.6799 11.0198L17.5299 12.1698C17.0599 12.6398 17.0599 13.4098 17.5299 13.8798L18.6699 15.0198L17.5199 16.1698C17.0499 16.6398 17.0499 17.4098 17.5199 17.8798L18.6599 19.0198L17.3699 20.3098C16.9799 20.6998 16.9799 21.3298 17.3699 21.7198C17.5699 21.9198 17.8199 22.0098 18.0799 22.0098C18.3399 22.0098 18.5899 21.9098 18.7899 21.7198L20.6399 19.8698C21.1099 19.3998 21.1099 18.6298 20.6399 18.1498L19.4999 17.0098L20.6399 15.8698C21.1099 15.3998 21.1099 14.6298 20.6399 14.1498L20.6499 14.1698Z" fill="currentColor"/>
  </symbol>
</svg>
