<!-- JioGames DLS — video icons (12 icons) -->
<svg xmlns="http://www.w3.org/2000/svg" style="display:none">
  <symbol id="ic_video" viewBox="0 0 24 24">
    <path d="M19 5H5C4.20435 5 3.44129 5.31607 2.87868 5.87868C2.31607 6.44129 2 7.20435 2 8V16C2 16.7956 2.31607 17.5587 2.87868 18.1213C3.44129 18.6839 4.20435 19 5 19H19C19.7956 19 20.5587 18.6839 21.1213 18.1213C21.6839 17.5587 22 16.7956 22 16V8C22 7.20435 21.6839 6.44129 21.1213 5.87868C20.5587 5.31607 19.7956 5 19 5ZM14.55 12.83L11.55 14.83C11.3996 14.929 11.2252 14.9856 11.0453 14.9938C10.8654 15.002 10.6867 14.9614 10.5279 14.8764C10.3692 14.7914 10.2363 14.6651 10.1434 14.5108C10.0505 14.3566 10.0009 14.1801 10 14V10C10.0005 9.8191 10.05 9.64171 10.1434 9.48674C10.2367 9.33177 10.3703 9.20502 10.53 9.12C10.6864 9.03971 10.8611 9.00205 11.0367 9.01083C11.2123 9.01961 11.3824 9.07451 11.53 9.17L14.53 11.17C14.6661 11.2615 14.7777 11.385 14.8548 11.5298C14.9319 11.6745 14.9722 11.836 14.9722 12C14.9722 12.164 14.9319 12.3255 14.8548 12.4702C14.7777 12.615 14.6661 12.7385 14.53 12.83H14.55Z" fill="currentColor"/>
  </symbol>
  <symbol id="ic_video_call" viewBox="0 0 24 24">
    <path d="M19.6 7.8L17 9.8V9C17 8.20435 16.6839 7.44129 16.1213 6.87868C15.5587 6.31607 14.7956 6 14 6H5C4.20435 6 3.44129 6.31607 2.87868 6.87868C2.31607 7.44129 2 8.20435 2 9V15C2 15.7956 2.31607 16.5587 2.87868 17.1213C3.44129 17.6839 4.20435 18 5 18H14C14.7956 18 15.5587 17.6839 16.1213 17.1213C16.6839 16.5587 17 15.7956 17 15V14.25L19.6 16.2C19.8229 16.3671 20.0878 16.4689 20.3653 16.4939C20.6427 16.519 20.9217 16.4662 21.1708 16.3416C21.42 16.2171 21.6295 16.0256 21.776 15.7886C21.9224 15.5516 22 15.2786 22 15V9C22 8.72143 21.9224 8.44837 21.776 8.2114C21.6295 7.97444 21.42 7.78294 21.1708 7.65836C20.9217 7.53378 20.6427 7.48104 20.3653 7.50606C20.0878 7.53108 19.8229 7.63286 19.6 7.8Z" fill="currentColor"/>
  </symbol>
  <symbol id="ic_video_call_group" viewBox="0 0 24 24">
    <path d="M19.6 7.8L17 9.8V8C17 7.20435 16.6839 6.44129 16.1213 5.87868C15.5587 5.31607 14.7956 5 14 5H5C4.20435 5 3.44129 5.31607 2.87868 5.87868C2.31607 6.44129 2 7.20435 2 8V16C2 16.7956 2.31607 17.5587 2.87868 18.1213C3.44129 18.6839 4.20435 19 5 19H14C14.7956 19 15.5587 18.6839 16.1213 18.1213C16.6839 17.5587 17 16.7956 17 16V14.25L19.6 16.2C19.8229 16.3671 20.0878 16.4689 20.3653 16.4939C20.6427 16.519 20.9217 16.4662 21.1708 16.3416C21.42 16.2171 21.6295 16.0256 21.776 15.7886C21.9224 15.5516 22 15.2786 22 15V9C22 8.72143 21.9224 8.44837 21.776 8.2114C21.6295 7.97444 21.42 7.78294 21.1708 7.65836C20.9217 7.53378 20.6427 7.48104 20.3653 7.50606C20.0878 7.53108 19.8229 7.63286 19.6 7.8ZM11.22 8C11.4859 7.99802 11.7463 8.07518 11.9682 8.22166C12.1901 8.36814 12.3634 8.57731 12.466 8.82257C12.5687 9.06782 12.5961 9.33808 12.5447 9.59894C12.4933 9.8598 12.3655 10.0995 12.1775 10.2875C11.9895 10.4755 11.7498 10.6033 11.4889 10.6547C11.2281 10.7061 10.9578 10.6787 10.7126 10.576C10.4673 10.4734 10.2581 10.3001 10.1117 10.0782C9.96518 9.85631 9.88802 9.59587 9.89 9.33C9.89262 8.97807 10.0336 8.6413 10.2824 8.39244C10.5313 8.14358 10.8681 8.00262 11.22 8ZM7.67 8.89C7.93545 8.89001 8.19492 8.96886 8.41549 9.11654C8.63607 9.26423 8.80781 9.4741 8.90893 9.71954C9.01005 9.96498 9.03599 10.2349 8.98347 10.4951C8.93095 10.7553 8.80233 10.9941 8.61393 11.1811C8.42553 11.3681 8.18583 11.4949 7.92524 11.5455C7.66465 11.596 7.39491 11.5681 7.15024 11.4651C6.90557 11.3621 6.69699 11.1888 6.55095 10.9672C6.40492 10.7455 6.32802 10.4854 6.33 10.22C6.33264 9.86635 6.47498 9.52807 6.726 9.27893C6.97701 9.02979 7.31634 8.88999 7.67 8.89ZM13 15.11H10.33C10.33 15.346 10.2362 15.5724 10.0693 15.7393C9.90242 15.9062 9.67604 16 9.44 16H5.89C5.65396 16 5.42758 15.9062 5.26067 15.7393C5.09377 15.5724 5 15.346 5 15.11C5 14.4019 5.2813 13.7227 5.78202 13.222C6.28275 12.7213 6.96187 12.44 7.67 12.44C8.13758 12.4387 8.59692 12.563 9 12.8C9.3101 12.3146 9.76887 11.9425 10.3078 11.7392C10.8468 11.5359 11.437 11.5124 11.9904 11.6721C12.5439 11.8318 13.0308 12.1663 13.3786 12.6255C13.7263 13.0847 13.9162 13.644 13.92 14.22C13.9201 14.3394 13.8961 14.4577 13.8495 14.5677C13.8029 14.6776 13.7347 14.7771 13.6488 14.8602C13.563 14.9432 13.4613 15.0081 13.3498 15.0511C13.2383 15.094 13.1194 15.114 13 15.11Z" fill="currentColor"/>
  </symbol>
  <symbol id="ic_video_calls" viewBox="0 0 24 24">
    <path d="M21.91 10.51C21.8822 10.4151 21.8419 10.3243 21.79 10.24C21.7867 10.2168 21.7867 10.1932 21.79 10.17C21.7208 10.071 21.6402 9.98034 21.55 9.9C21.55 9.9 21.55 9.9 21.49 9.85C21.4174 9.79102 21.3405 9.73754 21.26 9.69H21.17C21.0698 9.64767 20.9661 9.6142 20.86 9.59H20.56L20.27 9.64H20.13C19.9786 9.6891 19.8366 9.76348 19.71 9.86L17 11.75V11C17 10.2044 16.6839 9.44129 16.1213 8.87868C15.5587 8.31607 14.7956 8 14 8H5C4.20435 8 3.44129 8.31607 2.87868 8.87868C2.31607 9.44129 2 10.2044 2 11V17C2 17.7956 2.31607 18.5587 2.87868 19.1213C3.44129 19.6839 4.20435 20 5 20H14C14.7956 20 15.5587 19.6839 16.1213 19.1213C16.6839 18.5587 17 17.7956 17 17V16.25L19.6 18.2C19.7266 18.2965 19.8686 18.3709 20.02 18.42H20.16L20.45 18.47C20.5498 18.4798 20.6502 18.4798 20.75 18.47C20.8561 18.4458 20.9598 18.4123 21.06 18.37L21.15 18.32C21.2305 18.2725 21.3074 18.219 21.38 18.16C21.38 18.16 21.43 18.16 21.44 18.16C21.5303 18.0797 21.6108 17.989 21.68 17.89C21.6767 17.8668 21.6767 17.8432 21.68 17.82C21.7319 17.7357 21.7722 17.6449 21.8 17.55V17.45C21.8963 17.315 21.9643 17.1619 22 17V11C22.0011 10.8676 21.9809 10.7359 21.94 10.61L21.91 10.51ZM20.08 4.51L18 6.12V5.5C18.0066 5.17824 17.9498 4.85833 17.8328 4.55854C17.7157 4.25875 17.5408 3.98496 17.3179 3.7528C17.095 3.52064 16.8286 3.33466 16.5338 3.20549C16.2391 3.07633 15.9218 3.0065 15.6 3H8.4C8.07824 3.0065 7.76091 3.07633 7.46615 3.20549C7.17138 3.33466 6.90495 3.52064 6.68208 3.7528C6.45921 3.98496 6.28426 4.25875 6.16722 4.55854C6.05019 4.85833 5.99337 5.17824 6 5.5V6H14C14.8445 5.99956 15.6753 6.21302 16.415 6.62045C17.1546 7.02788 17.7791 7.61602 18.23 8.33L18.4 8.2C18.9089 7.8142 19.5149 7.5772 20.1505 7.51541C20.7861 7.45361 21.4263 7.56944 22 7.85V5.5C22.0076 5.27376 21.9511 5.04997 21.837 4.85448C21.7229 4.65898 21.5558 4.49976 21.355 4.39519C21.1542 4.29062 20.928 4.24497 20.7024 4.26352C20.4768 4.28207 20.261 4.36405 20.08 4.5V4.51Z" fill="currentColor"/>
  </symbol>
  <symbol id="ic_video_end" viewBox="0 0 24 24">
    <path d="M19.6 7.79976L17 9.79976V8.99976C17.0148 8.83008 17.0148 8.65944 17 8.48976L20.49 4.99976C20.5878 4.90193 20.6654 4.78578 20.7184 4.65795C20.7713 4.53012 20.7986 4.39312 20.7986 4.25476C20.7986 4.1164 20.7713 3.9794 20.7184 3.85157C20.6654 3.72374 20.5878 3.6076 20.49 3.50976C20.3922 3.41193 20.276 3.33432 20.1482 3.28137C20.0204 3.22842 19.8834 3.20117 19.745 3.20117C19.6066 3.20117 19.4696 3.22842 19.3418 3.28137C19.214 3.33432 19.0978 3.41193 19 3.50976L3.51 18.9998C3.41217 19.0976 3.33456 19.2137 3.28161 19.3416C3.22866 19.4694 3.20141 19.6064 3.20141 19.7448C3.20141 19.8831 3.22866 20.0201 3.28161 20.148C3.33456 20.2758 3.41217 20.3919 3.51 20.4898C3.70759 20.6873 3.97557 20.7984 4.255 20.7984C4.39336 20.7984 4.53036 20.7711 4.65819 20.7182C4.78602 20.6652 4.90217 20.5876 5 20.4898L7.44 17.9998H14C14.7956 17.9998 15.5587 17.6837 16.1213 17.1211C16.6839 16.5585 17 15.7954 17 14.9998V14.2498L19.6 16.1998C19.8229 16.3669 20.0878 16.4687 20.3653 16.4937C20.6427 16.5187 20.9217 16.466 21.1708 16.3414C21.42 16.2168 21.6295 16.0253 21.776 15.7884C21.9224 15.5514 22 15.2783 22 14.9998V8.99976C22 8.72119 21.9224 8.44813 21.776 8.21116C21.6295 7.9742 21.42 7.7827 21.1708 7.65812C20.9217 7.53354 20.6427 7.48081 20.3653 7.50582C20.0878 7.53084 19.8229 7.63262 19.6 7.79976ZM5 5.99976C4.20435 5.99976 3.44129 6.31583 2.87868 6.87844C2.31607 7.44105 2 8.20411 2 8.99976V14.9998C2.00167 15.7385 2.27584 16.4506 2.77 16.9998L13.77 5.99976H5Z" fill="currentColor"/>
  </symbol>
  <symbol id="ic_video_in_out" viewBox="0 0 24 24">
    <path d="M19.6 7.8L17 9.8V9C17 8.20435 16.6839 7.44129 16.1213 6.87868C15.5587 6.31607 14.7956 6 14 6H5C4.20435 6 3.44129 6.31607 2.87868 6.87868C2.31607 7.44129 2 8.20435 2 9V15C2 15.7956 2.31607 16.5587 2.87868 17.1213C3.44129 17.6839 4.20435 18 5 18H14C14.7956 18 15.5587 17.6839 16.1213 17.1213C16.6839 16.5587 17 15.7956 17 15V14.25L19.6 16.2C19.8229 16.3671 20.0878 16.4689 20.3653 16.4939C20.6427 16.519 20.9217 16.4662 21.1708 16.3416C21.42 16.2171 21.6295 16.0256 21.776 15.7886C21.9224 15.5516 22 15.2786 22 15V9C22 8.72143 21.9224 8.44837 21.776 8.2114C21.6295 7.97444 21.42 7.78294 21.1708 7.65836C20.9217 7.53378 20.6427 7.48104 20.3653 7.50606C20.0878 7.53108 19.8229 7.63286 19.6 7.8ZM5 14C4.86839 14.0008 4.73793 13.9755 4.61609 13.9258C4.49426 13.876 4.38344 13.8027 4.29 13.71C4.19627 13.617 4.12188 13.5064 4.07111 13.3846C4.02034 13.2627 3.9942 13.132 3.9942 13C3.9942 12.868 4.02034 12.7373 4.07111 12.6154C4.12188 12.4936 4.19627 12.383 4.29 12.29L6.59 10H6C5.73478 10 5.48043 9.89464 5.29289 9.70711C5.10536 9.51957 5 9.26522 5 9C5 8.73478 5.10536 8.48043 5.29289 8.29289C5.48043 8.10536 5.73478 8 6 8H9C9.19743 8.00099 9.39014 8.06039 9.55386 8.17072C9.71758 8.28105 9.84498 8.43738 9.92 8.62C9.99658 8.80211 10.0175 9.00282 9.98013 9.19681C9.94275 9.3908 9.84876 9.56938 9.71 9.71L5.71 13.71C5.61656 13.8027 5.50574 13.876 5.38391 13.9258C5.26207 13.9755 5.13161 14.0008 5 14ZM12 16H9C8.80257 15.999 8.60986 15.9396 8.44614 15.8293C8.28242 15.7189 8.15502 15.5626 8.08 15.38C8.00342 15.1979 7.9825 14.9972 8.01987 14.8032C8.05725 14.6092 8.15124 14.4306 8.29 14.29L12.29 10.29C12.4783 10.1017 12.7337 9.99591 13 9.99591C13.2663 9.99591 13.5217 10.1017 13.71 10.29C13.8983 10.4783 14.0041 10.7337 14.0041 11C14.0041 11.2663 13.8983 11.5217 13.71 11.71L11.41 14H12C12.2652 14 12.5196 14.1054 12.7071 14.2929C12.8946 14.4804 13 14.7348 13 15C13 15.2652 12.8946 15.5196 12.7071 15.7071C12.5196 15.8946 12.2652 16 12 16Z" fill="currentColor"/>
  </symbol>
  <symbol id="ic_video_incoming" viewBox="0 0 24 24">
    <path d="M19.6 7.8L17 9.8V9C17 8.20435 16.6839 7.44129 16.1213 6.87868C15.5587 6.31607 14.7956 6 14 6H5C4.20435 6 3.44129 6.31607 2.87868 6.87868C2.31607 7.44129 2 8.20435 2 9V15C2 15.7956 2.31607 16.5587 2.87868 17.1213C3.44129 17.6839 4.20435 18 5 18H14C14.7956 18 15.5587 17.6839 16.1213 17.1213C16.6839 16.5587 17 15.7956 17 15V14.25L19.6 16.2C19.8229 16.3671 20.0878 16.4689 20.3653 16.4939C20.6427 16.519 20.9217 16.4662 21.1708 16.3416C21.42 16.2171 21.6295 16.0256 21.776 15.7886C21.9224 15.5516 22 15.2786 22 15V9C22 8.72143 21.9224 8.44837 21.776 8.2114C21.6295 7.97444 21.42 7.78294 21.1708 7.65836C20.9217 7.53378 20.6427 7.48104 20.3653 7.50606C20.0878 7.53108 19.8229 7.63286 19.6 7.8ZM9.71 11.71L7.41 14H8C8.26522 14 8.51957 14.1054 8.70711 14.2929C8.89464 14.4804 9 14.7348 9 15C9 15.2652 8.89464 15.5196 8.70711 15.7071C8.51957 15.8946 8.26522 16 8 16H5C4.86932 15.9984 4.74022 15.9712 4.62 15.92C4.37565 15.8185 4.18147 15.6243 4.08 15.38C4.02876 15.2598 4.00158 15.1307 4 15V12C4 11.7348 4.10536 11.4804 4.29289 11.2929C4.48043 11.1054 4.73478 11 5 11C5.26522 11 5.51957 11.1054 5.70711 11.2929C5.89464 11.4804 6 11.7348 6 12V12.59L8.29 10.29C8.4783 10.1017 8.7337 9.99591 9 9.99591C9.2663 9.99591 9.5217 10.1017 9.71 10.29C9.8983 10.4783 10.0041 10.7337 10.0041 11C10.0041 11.2663 9.8983 11.5217 9.71 11.71Z" fill="currentColor"/>
  </symbol>
  <symbol id="ic_video_outgoing" viewBox="0 0 24 24">
    <path d="M19.6 7.8L17 9.8V9C17 8.20435 16.6839 7.44129 16.1213 6.87868C15.5587 6.31607 14.7956 6 14 6H5C4.20435 6 3.44129 6.31607 2.87868 6.87868C2.31607 7.44129 2 8.20435 2 9V15C2 15.7956 2.31607 16.5587 2.87868 17.1213C3.44129 17.6839 4.20435 18 5 18H14C14.7956 18 15.5587 17.6839 16.1213 17.1213C16.6839 16.5587 17 15.7956 17 15V14.25L19.6 16.2C19.8229 16.3671 20.0878 16.4689 20.3653 16.4939C20.6427 16.519 20.9217 16.4662 21.1708 16.3416C21.42 16.2171 21.6295 16.0256 21.776 15.7886C21.9224 15.5516 22 15.2786 22 15V9C22 8.72143 21.9224 8.44837 21.776 8.2114C21.6295 7.97444 21.42 7.78294 21.1708 7.65836C20.9217 7.53378 20.6427 7.48104 20.3653 7.50606C20.0878 7.53108 19.8229 7.63286 19.6 7.8ZM15 12C15 12.2652 14.8946 12.5196 14.7071 12.7071C14.5196 12.8946 14.2652 13 14 13C13.7348 13 13.4804 12.8946 13.2929 12.7071C13.1054 12.5196 13 12.2652 13 12V11.41L10.71 13.71C10.617 13.8037 10.5064 13.8781 10.3846 13.9289C10.2627 13.9797 10.132 14.0058 10 14.0058C9.86799 14.0058 9.73728 13.9797 9.61542 13.9289C9.49356 13.8781 9.38296 13.8037 9.29 13.71C9.19627 13.617 9.12188 13.5064 9.07111 13.3846C9.02034 13.2627 8.9942 13.132 8.9942 13C8.9942 12.868 9.02034 12.7373 9.07111 12.6154C9.12188 12.4936 9.19627 12.383 9.29 12.29L11.59 10H11C10.7348 10 10.4804 9.89464 10.2929 9.70711C10.1054 9.51957 10 9.26522 10 9C10 8.73478 10.1054 8.48043 10.2929 8.29289C10.4804 8.10536 10.7348 8 11 8H14C14.1307 8.00158 14.2598 8.02876 14.38 8.08C14.6243 8.18147 14.8185 8.37565 14.92 8.62C14.9712 8.74022 14.9984 8.86932 15 9V12Z" fill="currentColor"/>
  </symbol>
  <symbol id="ic_video_replay" viewBox="0 0 24 24">
    <path d="M21.78 8.21C21.63 7.97 21.42 7.78 21.17 7.66C20.92 7.54 20.64 7.48 20.36 7.51C20.08 7.54 19.82 7.64 19.59 7.8L16.99 9.8V9C16.99 8.2 16.67 7.44 16.11 6.88C15.55 6.32 14.78 6 13.99 6H5C4.2 6 3.44 6.32 2.88 6.88C2.32 7.44 2 8.21 2 9V15C2 15.8 2.32 16.56 2.88 17.12C3.44 17.68 4.21 18 5 18H14C14.8 18 15.56 17.68 16.12 17.12C16.68 16.56 17 15.79 17 15V14.25L19.6 16.2C19.82 16.37 20.09 16.47 20.37 16.49C20.65 16.52 20.93 16.46 21.18 16.34C21.43 16.22 21.64 16.02 21.79 15.79C21.94 15.55 22.01 15.28 22.01 15V9C22.01 8.72 21.93 8.45 21.79 8.21H21.78ZM9.5 16C8.62 16 7.8 15.71 7.11 15.19C7.11 15.2 7.11 15.22 7.11 15.23C7.11 15.33 7.04 15.42 6.97 15.49C6.77 15.69 6.42 15.68 6.23 15.49C6.13 15.39 6.08 15.26 6.08 15.12V13.96C6.08 13.82 6.14 13.69 6.23 13.59C6.33 13.49 6.46 13.44 6.6 13.44H7.76C7.9 13.44 8.03 13.5 8.13 13.59C8.23 13.69 8.28 13.82 8.28 13.96C8.28 14.1 8.22 14.23 8.13 14.33C8.05 14.4 7.96 14.46 7.86 14.47C7.86 14.47 7.83 14.47 7.82 14.47C8.31 14.81 8.89 14.99 9.51 14.99C11.16 14.99 12.51 13.64 12.51 11.99C12.51 10.34 11.16 8.99 9.51 8.99C8.19 8.99 7.01 9.87 6.63 11.13C6.55 11.39 6.28 11.54 6.01 11.47C5.75 11.39 5.59 11.11 5.67 10.85C6.17 9.17 7.75 7.99 9.5 7.99C11.71 7.99 13.5 9.78 13.5 11.99C13.5 14.2 11.71 15.99 9.5 15.99V16Z" fill="currentColor"/>
  </symbol>
  <symbol id="ic_video_resize" viewBox="0 0 24 24">
    <path d="M10 14H4C3.46957 14 2.96086 14.2107 2.58579 14.5858C2.21071 14.9609 2 15.4696 2 16V18C2 18.5304 2.21071 19.0391 2.58579 19.4142C2.96086 19.7893 3.46957 20 4 20H10C10.5304 20 11.0391 19.7893 11.4142 19.4142C11.7893 19.0391 12 18.5304 12 18V16C12 15.4696 11.7893 14.9609 11.4142 14.5858C11.0391 14.2107 10.5304 14 10 14ZM19 4H5C4.20435 4 3.44129 4.31607 2.87868 4.87868C2.31607 5.44129 2 6.20435 2 7V12.56C2.60399 12.1964 3.29504 12.003 4 12H10C11.0609 12 12.0783 12.4214 12.8284 13.1716C13.5786 13.9217 14 14.9391 14 16V18C13.997 18.705 13.8036 19.396 13.44 20H19C19.7956 20 20.5587 19.6839 21.1213 19.1213C21.6839 18.5587 22 17.7956 22 17V7C22 6.20435 21.6839 5.44129 21.1213 4.87868C20.5587 4.31607 19.7956 4 19 4ZM20 10C20 10.2652 19.8946 10.5196 19.7071 10.7071C19.5196 10.8946 19.2652 11 19 11C18.7348 11 18.4804 10.8946 18.2929 10.7071C18.1054 10.5196 18 10.2652 18 10V9.41L15.71 11.71C15.617 11.8037 15.5064 11.8781 15.3846 11.9289C15.2627 11.9797 15.132 12.0058 15 12.0058C14.868 12.0058 14.7373 11.9797 14.6154 11.9289C14.4936 11.8781 14.383 11.8037 14.29 11.71C14.1963 11.617 14.1219 11.5064 14.0711 11.3846C14.0203 11.2627 13.9942 11.132 13.9942 11C13.9942 10.868 14.0203 10.7373 14.0711 10.6154C14.1219 10.4936 14.1963 10.383 14.29 10.29L16.59 8H16C15.7348 8 15.4804 7.89464 15.2929 7.70711C15.1054 7.51957 15 7.26522 15 7C15 6.73478 15.1054 6.48043 15.2929 6.29289C15.4804 6.10536 15.7348 6 16 6H19C19.1307 6.00158 19.2598 6.02876 19.38 6.08C19.6243 6.18147 19.8185 6.37565 19.92 6.62C19.9712 6.74022 19.9984 6.86932 20 7V10Z" fill="currentColor"/>
  </symbol>
  <symbol id="ic_video_size" viewBox="0 0 24 24">
    <path d="M7 20H5C4.73478 20 4.48043 19.8946 4.29289 19.7071C4.10536 19.5196 4 19.2652 4 19V17C4 16.7348 3.89464 16.4804 3.70711 16.2929C3.51957 16.1054 3.26522 16 3 16C2.73478 16 2.48043 16.1054 2.29289 16.2929C2.10536 16.4804 2 16.7348 2 17V19C2 19.7956 2.31607 20.5587 2.87868 21.1213C3.44129 21.6839 4.20435 22 5 22H7C7.26522 22 7.51957 21.8946 7.70711 21.7071C7.89464 21.5196 8 21.2652 8 21C8 20.7348 7.89464 20.4804 7.70711 20.2929C7.51957 20.1054 7.26522 20 7 20ZM12 5C10.6155 5 9.26215 5.41054 8.11101 6.17971C6.95986 6.94888 6.06266 8.04213 5.53284 9.32122C5.00303 10.6003 4.86441 12.0078 5.1345 13.3656C5.4046 14.7235 6.07128 15.9708 7.05025 16.9497C8.02922 17.9287 9.2765 18.5954 10.6344 18.8655C11.9922 19.1356 13.3997 18.997 14.6788 18.4672C15.9579 17.9373 17.0511 17.0401 17.8203 15.889C18.5895 14.7378 19 13.3845 19 12C19 10.1435 18.2625 8.36301 16.9497 7.05025C15.637 5.7375 13.8565 5 12 5ZM14.13 12.69L11.63 14.36C11.4931 14.4495 11.3335 14.498 11.17 14.5C11.0303 14.5013 10.8926 14.4669 10.77 14.4C10.6375 14.3295 10.5266 14.2243 10.4491 14.0958C10.3717 13.9672 10.3305 13.8201 10.33 13.67V10.33C10.3323 10.1797 10.3749 10.0327 10.4534 9.90442C10.5318 9.77616 10.6433 9.67131 10.7761 9.60082C10.9089 9.53033 11.0582 9.49678 11.2084 9.50367C11.3586 9.51056 11.5042 9.55764 11.63 9.64L14.13 11.31C14.2434 11.3858 14.3364 11.4885 14.4007 11.6088C14.4651 11.7292 14.4987 11.8635 14.4987 12C14.4987 12.1365 14.4651 12.2708 14.4007 12.3912C14.3364 12.5115 14.2434 12.6142 14.13 12.69ZM19 2H17C16.7348 2 16.4804 2.10536 16.2929 2.29289C16.1054 2.48043 16 2.73478 16 3C16 3.26522 16.1054 3.51957 16.2929 3.70711C16.4804 3.89464 16.7348 4 17 4H19C19.2652 4 19.5196 4.10536 19.7071 4.29289C19.8946 4.48043 20 4.73478 20 5V7C20 7.26522 20.1054 7.51957 20.2929 7.70711C20.4804 7.89464 20.7348 8 21 8C21.2652 8 21.5196 7.89464 21.7071 7.70711C21.8946 7.51957 22 7.26522 22 7V5C22 4.20435 21.6839 3.44129 21.1213 2.87868C20.5587 2.31607 19.7956 2 19 2Z" fill="currentColor"/>
  </symbol>
  <symbol id="ic_video_surveillance" viewBox="0 0 24 24">
    <path d="M18.1299 8.05002L8.41985 3.30002C7.71624 2.96739 6.91089 2.9212 6.17387 3.17123C5.43685 3.42126 4.82583 3.94793 4.46985 4.64002L2.29985 9.00002C2.11822 9.34983 2.00904 9.73269 1.97883 10.1257C1.94863 10.5187 1.99802 10.9137 2.12406 11.2872C2.2501 11.6606 2.4502 12.0048 2.71237 12.2991C2.97454 12.5934 3.29339 12.8318 3.64985 13L7.86985 15L6.37985 18H2.99985C2.73464 18 2.48028 18.1054 2.29275 18.2929C2.10521 18.4805 1.99985 18.7348 1.99985 19C1.99985 19.2652 2.10521 19.5196 2.29275 19.7071C2.48028 19.8947 2.73464 20 2.99985 20H6.99985C7.18452 19.9995 7.36543 19.9478 7.52252 19.8507C7.67961 19.7536 7.80675 19.6149 7.88985 19.45L9.66985 15.9L13.3499 17.7C14.0587 18.0481 14.8763 18.1027 15.6251 17.8518C16.374 17.6009 16.9937 17.0649 17.3499 16.36L19.4699 12C19.6439 11.6532 19.7472 11.2752 19.774 10.8881C19.8007 10.501 19.7503 10.1124 19.6256 9.74489C19.501 9.37741 19.3045 9.03835 19.0478 8.7474C18.791 8.45645 18.479 8.21941 18.1299 8.05002ZM21.4499 12.4C21.2146 12.2884 20.945 12.2729 20.6985 12.357C20.452 12.441 20.2479 12.6179 20.1299 12.85L18.3999 16.36C18.2943 16.5931 18.2821 16.8579 18.3658 17.0997C18.4495 17.3415 18.6227 17.5421 18.8499 17.66C19.0829 17.7694 19.3491 17.7847 19.5931 17.7027C19.8371 17.6208 20.0401 17.4479 20.1599 17.22L21.8999 13.71C22.0085 13.4758 22.0223 13.2087 21.9384 12.9645C21.8545 12.7203 21.6795 12.5181 21.4499 12.4Z" fill="currentColor"/>
  </symbol>
</svg>
