<!-- JioGames DLS — visible icons (2 icons) -->
<svg xmlns="http://www.w3.org/2000/svg" style="display:none">
  <symbol id="ic_visible" viewBox="0 0 24 24">
    <path d="M21.6898 10.74C20.7529 8.98954 19.3544 7.5291 17.6462 6.5172C15.9379 5.5053 13.9852 4.9806 11.9998 5.00003C10.0145 4.9806 8.0617 5.5053 6.35346 6.5172C4.64522 7.5291 3.24675 8.98954 2.30982 10.74C2.10818 11.1294 2.00293 11.5615 2.00293 12C2.00293 12.4385 2.10818 12.8706 2.30982 13.26C3.24675 15.0105 4.64522 16.471 6.35346 17.4829C8.0617 18.4948 10.0145 19.0195 11.9998 19C13.9852 19.0195 15.9379 18.4948 17.6462 17.4829C19.3544 16.471 20.7529 15.0105 21.6898 13.26C21.8915 12.8706 21.9967 12.4385 21.9967 12C21.9967 11.5615 21.8915 11.1294 21.6898 10.74ZM12.5898 14.94C11.9583 15.067 11.3028 14.9873 10.7201 14.7128C10.1374 14.4382 9.65851 13.9835 9.35431 13.4157C9.0501 12.8479 8.93671 12.1974 9.0309 11.5602C9.12509 10.923 9.42187 10.333 9.87733 9.87754C10.3328 9.42207 10.9228 9.1253 11.5599 9.03111C12.1971 8.93691 12.8477 9.05031 13.4155 9.35451C13.9833 9.65872 14.438 10.1376 14.7125 10.7203C14.9871 11.303 15.0668 11.9585 14.9398 12.59C14.8233 13.1697 14.5381 13.7021 14.12 14.1202C13.7019 14.5383 13.1695 14.8235 12.5898 14.94Z" fill="currentColor"/>
  </symbol>
  <symbol id="ic_visible_off" viewBox="0 0 24 24">
    <path d="M21.6898 10.7398C20.9106 9.24925 19.7859 7.96687 18.4098 6.99976L14.7098 10.6898C14.9772 11.2496 15.0644 11.8785 14.9595 12.49C14.8546 13.1014 14.5627 13.6653 14.124 14.104C13.6854 14.5427 13.1215 14.8345 12.51 14.9394C11.8986 15.0444 11.2696 14.9571 10.7098 14.6898L20.4898 4.99976C20.5877 4.90193 20.6653 4.78578 20.7182 4.65795C20.7712 4.53012 20.7984 4.39312 20.7984 4.25476C20.7984 4.1164 20.7712 3.9794 20.7182 3.85157C20.6653 3.72374 20.5877 3.6076 20.4898 3.50976C20.392 3.41193 20.2758 3.33432 20.148 3.28137C20.0202 3.22842 19.8832 3.20117 19.7448 3.20117C19.6065 3.20117 19.4695 3.22842 19.3416 3.28137C19.2138 3.33432 19.0977 3.41193 18.9998 3.50976L3.50982 18.9998C3.41199 19.0976 3.33438 19.2137 3.28144 19.3416C3.22849 19.4694 3.20124 19.6064 3.20124 19.7448C3.20124 19.8831 3.22849 20.0201 3.28144 20.148C3.33438 20.2758 3.41199 20.3919 3.50982 20.4898C3.70741 20.6873 3.9754 20.7984 4.25482 20.7984C4.39318 20.7984 4.53019 20.7711 4.65802 20.7182C4.78584 20.6652 4.90199 20.5876 4.99982 20.4898L7.41982 17.9998C8.85886 18.6524 10.4197 18.9932 11.9998 18.9998C13.9852 19.0192 15.9379 18.4945 17.6462 17.4826C19.3544 16.4707 20.7529 15.0102 21.6898 13.2598C21.8915 12.8704 21.9967 12.4383 21.9967 11.9998C21.9967 11.5613 21.8915 11.1292 21.6898 10.7398ZM14.4598 5.28976C13.6534 5.10078 12.8281 5.0035 11.9998 4.99976C10.0145 4.98033 8.0617 5.50503 6.35346 6.51693C4.64522 7.52883 3.24675 8.98927 2.30982 10.7398C2.10818 11.1292 2.00293 11.5613 2.00293 11.9998C2.00293 12.4383 2.10818 12.8704 2.30982 13.2598C2.77865 14.1489 3.37122 14.967 4.06982 15.6898L14.4598 5.28976Z" fill="currentColor"/>
  </symbol>
</svg>
