<!-- JioGames DLS — vo icons (2 icons) -->
<svg xmlns="http://www.w3.org/2000/svg" style="display:none">
  <symbol id="ic_vo_lte" viewBox="0 0 24 24">
    <path d="M10.4999 9.00002C10.4999 10.65 11.8499 12 13.4999 12C15.1499 12 16.4999 10.65 16.4999 9.00002V8.50002C16.4999 6.85002 15.1499 5.50002 13.4999 5.50002C11.8499 5.50002 10.4999 6.85002 10.4999 8.50002V9.00002ZM12.4999 8.50002C12.4999 7.95002 12.9499 7.50002 13.4999 7.50002C14.0499 7.50002 14.4999 7.95002 14.4999 8.50002V9.00002C14.4999 9.55002 14.0499 10 13.4999 10C12.9499 10 12.4999 9.55002 12.4999 9.00002V8.50002ZM6.99994 12C7.39994 12 7.75994 11.76 7.91994 11.39L10.9199 4.39002C11.1399 3.88002 10.8999 3.30002 10.3999 3.08002C9.88994 2.86002 9.29994 3.10002 9.08994 3.61002L7.00994 8.46002L4.92994 3.61002C4.70994 3.10002 4.11994 2.86002 3.61994 3.08002C3.10994 3.30002 2.87994 3.89002 3.09994 4.39002L6.09994 11.39C6.25994 11.76 6.61994 12 7.01994 12H6.99994ZM18.9999 19H16.9999V18H18.2499C18.7999 18 19.2499 17.55 19.2499 17C19.2499 16.45 18.7999 16 18.2499 16H16.9999V15H18.9999C19.5499 15 19.9999 14.55 19.9999 14C19.9999 13.45 19.5499 13 18.9999 13H15.9999C15.4499 13 14.9999 13.45 14.9999 14V20C14.9999 20.55 15.4499 21 15.9999 21H18.9999C19.5499 21 19.9999 20.55 19.9999 20C19.9999 19.45 19.5499 19 18.9999 19ZM13.4999 13H8.49994C7.94994 13 7.49994 13.45 7.49994 14C7.49994 14.55 7.94994 15 8.49994 15H9.99994V20C9.99994 20.55 10.4499 21 10.9999 21C11.5499 21 11.9999 20.55 11.9999 20V15H13.4999C14.0499 15 14.4999 14.55 14.4999 14C14.4999 13.45 14.0499 13 13.4999 13ZM7.99994 19H5.99994V14C5.99994 13.45 5.54994 13 4.99994 13C4.44994 13 3.99994 13.45 3.99994 14V20C3.99994 20.55 4.44994 21 4.99994 21H7.99994C8.54994 21 8.99994 20.55 8.99994 20C8.99994 19.45 8.54994 19 7.99994 19Z" fill="currentColor"/>
  </symbol>
  <symbol id="ic_vo_wifi" viewBox="0 0 24 24">
    <path d="M12.4999 15.5C11.9499 15.5 11.4999 15.95 11.4999 16.5V20C11.4999 20.55 11.9499 21 12.4999 21C13.0499 21 13.4999 20.55 13.4999 20V16.5C13.4999 15.95 13.0499 15.5 12.4999 15.5ZM10.2399 13.03C9.70994 12.9 9.15994 13.22 9.02994 13.76L8.35994 16.43L7.44994 13.69C7.30994 13.28 6.92994 13.01 6.49994 13.01C6.06994 13.01 5.68994 13.29 5.54994 13.69L4.63994 16.41L3.96994 13.76C3.82994 13.22 3.28994 12.9 2.75994 13.04C2.21994 13.18 1.89994 13.72 2.03994 14.25L3.54994 20.21C3.65994 20.64 4.03994 20.95 4.47994 20.96C4.90994 21.01 5.31994 20.7 5.46994 20.28L6.50994 17.16L7.55994 20.32C7.69994 20.73 8.07994 21 8.50994 21C8.51994 21 8.53994 21 8.54994 21C8.98994 20.98 9.36994 20.67 9.47994 20.24L10.9799 14.24C11.1099 13.7 10.7899 13.16 10.2499 13.03H10.2399ZM6.07994 11.39C6.23994 11.76 6.59994 12 6.99994 12C7.39994 12 7.75994 11.76 7.91994 11.39L10.9199 4.39002C11.1399 3.88002 10.8999 3.30002 10.3999 3.08002C9.88994 2.86002 9.29994 3.10002 9.08994 3.61002L7.00994 8.46002L4.92994 3.61002C4.70994 3.10002 4.11994 2.86002 3.61994 3.08002C3.10994 3.30002 2.87994 3.89002 3.09994 4.39002L6.09994 11.39H6.07994ZM20.9999 15C21.5499 15 21.9999 14.55 21.9999 14C21.9999 13.45 21.5499 13 20.9999 13C20.4499 13 19.9999 13.45 19.9999 14C19.9999 14.55 20.4499 15 20.9999 15ZM20.9999 15.5C20.4499 15.5 19.9999 15.95 19.9999 16.5V20C19.9999 20.55 20.4499 21 20.9999 21C21.5499 21 21.9999 20.55 21.9999 20V16.5C21.9999 15.95 21.5499 15.5 20.9999 15.5ZM12.4999 13C11.9499 13 11.4999 13.45 11.4999 14C11.4999 14.55 11.9499 15 12.4999 15C13.0499 15 13.4999 14.55 13.4999 14C13.4999 13.45 13.0499 13 12.4999 13ZM18.4999 13H15.4999C14.9499 13 14.4999 13.45 14.4999 14V20C14.4999 20.55 14.9499 21 15.4999 21C16.0499 21 16.4999 20.55 16.4999 20V18H17.4999C18.0499 18 18.4999 17.55 18.4999 17C18.4999 16.45 18.0499 16 17.4999 16H16.4999V15H18.4999C19.0499 15 19.4999 14.55 19.4999 14C19.4999 13.45 19.0499 13 18.4999 13ZM16.4999 9.00002V8.50002C16.4999 6.85002 15.1499 5.50002 13.4999 5.50002C11.8499 5.50002 10.4999 6.85002 10.4999 8.50002V9.00002C10.4999 10.65 11.8499 12 13.4999 12C15.1499 12 16.4999 10.65 16.4999 9.00002ZM14.4999 9.00002C14.4999 9.55002 14.0499 10 13.4999 10C12.9499 10 12.4999 9.55002 12.4999 9.00002V8.50002C12.4999 7.95002 12.9499 7.50002 13.4999 7.50002C14.0499 7.50002 14.4999 7.95002 14.4999 8.50002V9.00002Z" fill="currentColor"/>
  </symbol>
</svg>
