<!-- JioGames DLS — voice icons (2 icons) -->
<svg xmlns="http://www.w3.org/2000/svg" style="display:none">
  <symbol id="ic_voice" viewBox="0 0 24 24">
    <path d="M12 2C11.7348 2 11.4804 2.10536 11.2929 2.29289C11.1054 2.48043 11 2.73478 11 3V21C11 21.2652 11.1054 21.5196 11.2929 21.7071C11.4804 21.8946 11.7348 22 12 22C12.2652 22 12.5196 21.8946 12.7071 21.7071C12.8946 21.5196 13 21.2652 13 21V3C13 2.73478 12.8946 2.48043 12.7071 2.29289C12.5196 2.10536 12.2652 2 12 2ZM4 9C3.73478 9 3.48043 9.10536 3.29289 9.29289C3.10536 9.48043 3 9.73478 3 10V14C3 14.2652 3.10536 14.5196 3.29289 14.7071C3.48043 14.8946 3.73478 15 4 15C4.26522 15 4.51957 14.8946 4.70711 14.7071C4.89464 14.5196 5 14.2652 5 14V10C5 9.73478 4.89464 9.48043 4.70711 9.29289C4.51957 9.10536 4.26522 9 4 9ZM8 6C7.73478 6 7.48043 6.10536 7.29289 6.29289C7.10536 6.48043 7 6.73478 7 7V17C7 17.2652 7.10536 17.5196 7.29289 17.7071C7.48043 17.8946 7.73478 18 8 18C8.26522 18 8.51957 17.8946 8.70711 17.7071C8.89464 17.5196 9 17.2652 9 17V7C9 6.73478 8.89464 6.48043 8.70711 6.29289C8.51957 6.10536 8.26522 6 8 6ZM20 9C19.7348 9 19.4804 9.10536 19.2929 9.29289C19.1054 9.48043 19 9.73478 19 10V14C19 14.2652 19.1054 14.5196 19.2929 14.7071C19.4804 14.8946 19.7348 15 20 15C20.2652 15 20.5196 14.8946 20.7071 14.7071C20.8946 14.5196 21 14.2652 21 14V10C21 9.73478 20.8946 9.48043 20.7071 9.29289C20.5196 9.10536 20.2652 9 20 9ZM16 6C15.7348 6 15.4804 6.10536 15.2929 6.29289C15.1054 6.48043 15 6.73478 15 7V17C15 17.2652 15.1054 17.5196 15.2929 17.7071C15.4804 17.8946 15.7348 18 16 18C16.2652 18 16.5196 17.8946 16.7071 17.7071C16.8946 17.5196 17 17.2652 17 17V7C17 6.73478 16.8946 6.48043 16.7071 6.29289C16.5196 6.10536 16.2652 6 16 6Z" fill="currentColor"/>
  </symbol>
  <symbol id="ic_voice_recording" viewBox="0 0 24 24">
    <path d="M6.27994 9.18976C6.67994 9.07976 6.97994 8.71976 6.99994 8.28976C7.02994 7.68976 7.34994 7.12976 7.82994 6.77976C8.27994 6.45976 8.37994 5.82976 8.05994 5.38976C7.73994 4.93976 7.11994 4.82976 6.66994 5.15976C5.67994 5.86976 5.06994 6.96976 4.99994 8.17976C4.96994 8.72976 5.38994 9.19976 5.93994 9.23976C6.05994 9.23976 6.16994 9.23976 6.27994 9.19976V9.18976ZM13.9999 19.9998H9.99994C9.44994 19.9998 8.99994 20.4498 8.99994 20.9998C8.99994 21.5498 9.44994 21.9998 9.99994 21.9998H13.9999C14.5499 21.9998 14.9999 21.5498 14.9999 20.9998C14.9999 20.4498 14.5499 19.9998 13.9999 19.9998ZM6.82994 3.89976C7.32994 3.65976 7.53994 3.05976 7.29994 2.56976C7.05994 2.06976 6.45994 1.85976 5.96994 2.09976C3.27994 3.38976 1.69994 6.23976 2.04994 9.19976C2.10994 9.74976 2.60994 10.1398 3.15994 10.0798C3.21994 10.0798 3.26994 10.0598 3.31994 10.0498C3.77994 9.91976 4.08994 9.46976 4.02994 8.96976C3.78994 6.85976 4.90994 4.81976 6.82994 3.89976ZM11.9999 14.9998C13.3799 14.9998 14.4999 13.8798 14.4999 12.4998V6.49976C14.4999 5.11976 13.3799 3.99976 11.9999 3.99976C10.6199 3.99976 9.49994 5.11976 9.49994 6.49976V12.4998C9.49994 13.8798 10.6199 14.9998 11.9999 14.9998ZM17.4999 11.4998C16.9499 11.4998 16.4999 11.9498 16.4999 12.4998C16.4999 14.9798 14.4799 16.9998 11.9999 16.9998C9.51994 16.9998 7.49994 14.9798 7.49994 12.4998C7.49994 11.9498 7.04994 11.4998 6.49994 11.4998C5.94994 11.4998 5.49994 11.9498 5.49994 12.4998C5.49994 16.0798 8.41994 18.9998 11.9999 18.9998C15.5799 18.9998 18.4999 16.0798 18.4999 12.4998C18.4999 11.9498 18.0499 11.4998 17.4999 11.4998ZM18.0299 2.09976C17.5299 1.85976 16.9299 2.06976 16.6999 2.56976C16.4599 3.06976 16.6699 3.66976 17.1699 3.89976C19.0899 4.81976 20.2099 6.85976 19.9699 8.96976C19.9099 9.45976 20.2199 9.90976 20.6799 10.0498C20.7299 10.0698 20.7899 10.0798 20.8399 10.0798C21.3899 10.1398 21.8799 9.74976 21.9499 9.19976C22.2899 6.23976 20.7199 3.37976 18.0299 2.08976V2.09976ZM17.3199 5.14976C16.8699 4.82976 16.2499 4.92976 15.9299 5.37976C15.6099 5.82976 15.7099 6.44976 16.1599 6.76976C16.6499 7.11976 16.9599 7.67976 16.9899 8.27976C17.0199 8.71976 17.3099 9.06976 17.7099 9.17976C17.8199 9.20976 17.9299 9.21976 18.0499 9.21976C18.5999 9.18976 19.0199 8.71976 18.9899 8.15976C18.9199 6.94976 18.3099 5.84976 17.3199 5.13976V5.14976Z" fill="currentColor"/>
  </symbol>
</svg>
