<!-- JioGames DLS — voucher icons (3 icons) -->
<svg xmlns="http://www.w3.org/2000/svg" style="display:none">
  <symbol id="ic_voucher_4g" viewBox="0 0 24 24">
    <path d="M19 5H5C4.20435 5 3.44129 5.31607 2.87868 5.87868C2.31607 6.44129 2 7.20435 2 8V16C2 16.7956 2.31607 17.5587 2.87868 18.1213C3.44129 18.6839 4.20435 19 5 19H19C19.7956 19 20.5587 18.6839 21.1213 18.1213C21.6839 17.5587 22 16.7956 22 16V8C22 7.20435 21.6839 6.44129 21.1213 5.87868C20.5587 5.31607 19.7956 5 19 5ZM6 16C5.80222 16 5.60888 15.9414 5.44443 15.8315C5.27998 15.7216 5.15181 15.5654 5.07612 15.3827C5.00043 15.2 4.98063 14.9989 5.01921 14.8049C5.0578 14.6109 5.15304 14.4327 5.29289 14.2929C5.43275 14.153 5.61093 14.0578 5.80491 14.0192C5.99889 13.9806 6.19996 14.0004 6.38268 14.0761C6.56541 14.1518 6.72159 14.28 6.83147 14.4444C6.94135 14.6089 7 14.8022 7 15C7 15.2652 6.89464 15.5196 6.70711 15.7071C6.51957 15.8946 6.26522 16 6 16ZM11 15C11 15.2652 10.8946 15.5196 10.7071 15.7071C10.5196 15.8946 10.2652 16 10 16C9.73478 16 9.48043 15.8946 9.29289 15.7071C9.10536 15.5196 9 15.2652 9 15V13C9 12.7348 9.10536 12.4804 9.29289 12.2929C9.48043 12.1054 9.73478 12 10 12C10.2652 12 10.5196 12.1054 10.7071 12.2929C10.8946 12.4804 11 12.7348 11 13V15ZM15 15C15 15.2652 14.8946 15.5196 14.7071 15.7071C14.5196 15.8946 14.2652 16 14 16C13.7348 16 13.4804 15.8946 13.2929 15.7071C13.1054 15.5196 13 15.2652 13 15V11C13 10.7348 13.1054 10.4804 13.2929 10.2929C13.4804 10.1054 13.7348 10 14 10C14.2652 10 14.5196 10.1054 14.7071 10.2929C14.8946 10.4804 15 10.7348 15 11V15ZM19 15C19 15.2652 18.8946 15.5196 18.7071 15.7071C18.5196 15.8946 18.2652 16 18 16C17.7348 16 17.4804 15.8946 17.2929 15.7071C17.1054 15.5196 17 15.2652 17 15V9C17 8.73478 17.1054 8.48043 17.2929 8.29289C17.4804 8.10536 17.7348 8 18 8C18.2652 8 18.5196 8.10536 18.7071 8.29289C18.8946 8.48043 19 8.73478 19 9V15Z" fill="currentColor"/>
  </symbol>
  <symbol id="ic_voucher_cashback" viewBox="0 0 24 24">
    <path d="M19 5H5C4.20435 5 3.44129 5.31607 2.87868 5.87868C2.31607 6.44129 2 7.20435 2 8V16C2 16.7956 2.31607 17.5587 2.87868 18.1213C3.44129 18.6839 4.20435 19 5 19H19C19.7956 19 20.5587 18.6839 21.1213 18.1213C21.6839 17.5587 22 16.7956 22 16V8C22 7.20435 21.6839 6.44129 21.1213 5.87868C20.5587 5.31607 19.7956 5 19 5ZM11 11C11 11.4465 10.9004 11.8874 10.7084 12.2905C10.5163 12.6936 10.2367 13.0487 9.89 13.33L11.45 14.11C11.6855 14.2299 11.864 14.4381 11.9465 14.6892C12.0289 14.9403 12.0086 15.2138 11.89 15.45C11.8069 15.6149 11.6798 15.7536 11.5227 15.8507C11.3656 15.9478 11.1847 15.9994 11 16C10.8431 16.0019 10.6883 15.964 10.55 15.89L6.55 13.89C6.3507 13.7879 6.19144 13.6219 6.09772 13.4185C6.004 13.2151 5.98125 12.9862 6.03312 12.7684C6.08499 12.5505 6.20846 12.3564 6.38377 12.2171C6.55908 12.0778 6.77608 12.0013 7 12H8C8.26522 12 8.51957 11.8946 8.70711 11.7071C8.89464 11.5196 9 11.2652 9 11C9 10.7348 8.89464 10.4804 8.70711 10.2929C8.51957 10.1054 8.26522 10 8 10H6C5.73478 10 5.48043 9.89464 5.29289 9.70711C5.10536 9.51957 5 9.26522 5 9C5 8.73478 5.10536 8.48043 5.29289 8.29289C5.48043 8.10536 5.73478 8 6 8H11C11.2652 8 11.5196 8.10536 11.7071 8.29289C11.8946 8.48043 12 8.73478 12 9C12 9.26522 11.8946 9.51957 11.7071 9.70711C11.5196 9.89464 11.2652 10 11 10H10.82C10.9364 10.3207 10.9973 10.6589 11 11ZM17 17C16.8022 17 16.6089 16.9414 16.4444 16.8315C16.28 16.7216 16.1518 16.5654 16.0761 16.3827C16.0004 16.2 15.9806 15.9989 16.0192 15.8049C16.0578 15.6109 16.153 15.4327 16.2929 15.2929C16.4327 15.153 16.6109 15.0578 16.8049 15.0192C16.9989 14.9806 17.2 15.0004 17.3827 15.0761C17.5654 15.1518 17.7216 15.28 17.8315 15.4444C17.9414 15.6089 18 15.8022 18 16C18 16.2652 17.8946 16.5196 17.7071 16.7071C17.5196 16.8946 17.2652 17 17 17ZM17 13C16.8022 13 16.6089 12.9414 16.4444 12.8315C16.28 12.7216 16.1518 12.5654 16.0761 12.3827C16.0004 12.2 15.9806 11.9989 16.0192 11.8049C16.0578 11.6109 16.153 11.4327 16.2929 11.2929C16.4327 11.153 16.6109 11.0578 16.8049 11.0192C16.9989 10.9806 17.2 11.0004 17.3827 11.0761C17.5654 11.1518 17.7216 11.28 17.8315 11.4444C17.9414 11.6089 18 11.8022 18 12C18 12.2652 17.8946 12.5196 17.7071 12.7071C17.5196 12.8946 17.2652 13 17 13ZM17 9C16.8022 9 16.6089 8.94135 16.4444 8.83147C16.28 8.72159 16.1518 8.56541 16.0761 8.38268C16.0004 8.19996 15.9806 7.99889 16.0192 7.80491C16.0578 7.61093 16.153 7.43275 16.2929 7.29289C16.4327 7.15304 16.6109 7.0578 16.8049 7.01921C16.9989 6.98063 17.2 7.00043 17.3827 7.07612C17.5654 7.15181 17.7216 7.27998 17.8315 7.44443C17.9414 7.60888 18 7.80222 18 8C18 8.26522 17.8946 8.51957 17.7071 8.70711C17.5196 8.89464 17.2652 9 17 9Z" fill="currentColor"/>
  </symbol>
  <symbol id="ic_voucher_plan" viewBox="0 0 24 24">
    <path d="M19 5H5C4.20435 5 3.44129 5.31607 2.87868 5.87868C2.31607 6.44129 2 7.20435 2 8V16C2 16.7956 2.31607 17.5587 2.87868 18.1213C3.44129 18.6839 4.20435 19 5 19H19C19.7956 19 20.5587 18.6839 21.1213 18.1213C21.6839 17.5587 22 16.7956 22 16V8C22 7.20435 21.6839 6.44129 21.1213 5.87868C20.5587 5.31607 19.7956 5 19 5ZM5.37 8.37C5.48428 8.25234 5.62111 8.15893 5.77231 8.09536C5.92351 8.03178 6.08598 7.99935 6.25 8C6.49621 8.00082 6.7367 8.07434 6.94129 8.21132C7.14588 8.34831 7.30546 8.54266 7.4 8.77C7.496 8.99714 7.5238 9.24732 7.48 9.49C7.42762 9.73542 7.30532 9.96043 7.12788 10.1379C6.95043 10.3153 6.72542 10.4376 6.48 10.49C6.23732 10.5338 5.98714 10.506 5.76 10.41C5.53296 10.3133 5.33963 10.1515 5.20438 9.94506C5.06914 9.73863 4.99802 9.49678 5 9.25C4.99935 9.08598 5.03178 8.92351 5.09536 8.77231C5.15893 8.62111 5.25234 8.48428 5.37 8.37ZM12.63 15.63C12.5157 15.7477 12.3789 15.8411 12.2277 15.9046C12.0765 15.9682 11.914 16.0006 11.75 16C11.5038 15.9992 11.2633 15.9257 11.0587 15.7887C10.8541 15.6517 10.6945 15.4573 10.6 15.23C10.504 15.0029 10.4762 14.7527 10.52 14.51C10.5724 14.2646 10.6947 14.0396 10.8721 13.8621C11.0496 13.6847 11.2746 13.5624 11.52 13.51C11.7627 13.4662 12.0129 13.494 12.24 13.59C12.467 13.6867 12.6604 13.8485 12.7956 14.0549C12.9309 14.2614 13.002 14.5032 13 14.75C13.0006 14.914 12.9682 15.0765 12.9046 15.2277C12.8411 15.3789 12.7477 15.5157 12.63 15.63ZM12.71 9.71L6.71 15.71C6.61704 15.8037 6.50644 15.8781 6.38458 15.9289C6.26272 15.9797 6.13201 16.0058 6 16.0058C5.86799 16.0058 5.73728 15.9797 5.61542 15.9289C5.49356 15.8781 5.38296 15.8037 5.29 15.71C5.19627 15.617 5.12188 15.5064 5.07111 15.3846C5.02034 15.2627 4.9942 15.132 4.9942 15C4.9942 14.868 5.02034 14.7373 5.07111 14.6154C5.12188 14.4936 5.19627 14.383 5.29 14.29L11.29 8.29C11.4783 8.1017 11.7337 7.99591 12 7.99591C12.2663 7.99591 12.5217 8.1017 12.71 8.29C12.8983 8.4783 13.0041 8.7337 13.0041 9C13.0041 9.2663 12.8983 9.5217 12.71 9.71ZM17 17C16.8022 17 16.6089 16.9414 16.4444 16.8315C16.28 16.7216 16.1518 16.5654 16.0761 16.3827C16.0004 16.2 15.9806 15.9989 16.0192 15.8049C16.0578 15.6109 16.153 15.4327 16.2929 15.2929C16.4327 15.153 16.6109 15.0578 16.8049 15.0192C16.9989 14.9806 17.2 15.0004 17.3827 15.0761C17.5654 15.1518 17.7216 15.28 17.8315 15.4444C17.9414 15.6089 18 15.8022 18 16C18 16.2652 17.8946 16.5196 17.7071 16.7071C17.5196 16.8946 17.2652 17 17 17ZM17 13C16.8022 13 16.6089 12.9414 16.4444 12.8315C16.28 12.7216 16.1518 12.5654 16.0761 12.3827C16.0004 12.2 15.9806 11.9989 16.0192 11.8049C16.0578 11.6109 16.153 11.4327 16.2929 11.2929C16.4327 11.153 16.6109 11.0578 16.8049 11.0192C16.9989 10.9806 17.2 11.0004 17.3827 11.0761C17.5654 11.1518 17.7216 11.28 17.8315 11.4444C17.9414 11.6089 18 11.8022 18 12C18 12.2652 17.8946 12.5196 17.7071 12.7071C17.5196 12.8946 17.2652 13 17 13ZM17 9C16.8022 9 16.6089 8.94135 16.4444 8.83147C16.28 8.72159 16.1518 8.56541 16.0761 8.38268C16.0004 8.19996 15.9806 7.99889 16.0192 7.80491C16.0578 7.61093 16.153 7.43275 16.2929 7.29289C16.4327 7.15304 16.6109 7.0578 16.8049 7.01921C16.9989 6.98063 17.2 7.00043 17.3827 7.07612C17.5654 7.15181 17.7216 7.27998 17.8315 7.44443C17.9414 7.60888 18 7.80222 18 8C18 8.26522 17.8946 8.51957 17.7071 8.70711C17.5196 8.89464 17.2652 9 17 9Z" fill="currentColor"/>
  </symbol>
</svg>
