<!-- JioGames DLS — wallet icons (2 icons) -->
<svg xmlns="http://www.w3.org/2000/svg" style="display:none">
  <symbol id="ic_wallet" viewBox="0 0 24 24">
    <path d="M17 12C17 12.5304 17.2107 13.0391 17.5858 13.4142C17.9609 13.7893 18.4696 14 19 14H22V10H19C18.4696 10 17.9609 10.2107 17.5858 10.5858C17.2107 10.9609 17 11.4696 17 12ZM19 4H5C4.20435 4 3.44129 4.31607 2.87868 4.87868C2.31607 5.44129 2 6.20435 2 7V17C2 17.7956 2.31607 18.5587 2.87868 19.1213C3.44129 19.6839 4.20435 20 5 20H19C19.7956 20 20.5587 19.6839 21.1213 19.1213C21.6839 18.5587 22 17.7956 22 17V16H19C17.9391 16 16.9217 15.5786 16.1716 14.8284C15.4214 14.0783 15 13.0609 15 12C15 10.9391 15.4214 9.92172 16.1716 9.17157C16.9217 8.42143 17.9391 8 19 8H22V7C22 6.20435 21.6839 5.44129 21.1213 4.87868C20.5587 4.31607 19.7956 4 19 4Z" fill="currentColor"/>
  </symbol>
  <symbol id="ic_wallet_sleeve" viewBox="0 0 24 24">
    <path d="M17.28 5H6.72C5.22 5 4 6.22 4 7.72V16.28C4 17.78 5.22 19 6.72 19H17.28C18.78 19 20 17.78 20 16.28V7.72C20 6.22 18.78 5 17.28 5ZM18 13H14.85C14.43 13 14.03 13.24 13.9 13.63C13.64 14.42 12.89 15 12 15C11.11 15 10.37 14.43 10.1 13.63C9.97 13.24 9.56 13 9.15 13H6V12C6 11.45 6.45 11 7 11H17C17.55 11 18 11.45 18 12V13ZM18 9H6V8C6 7.45 6.45 7 7 7H17C17.55 7 18 7.45 18 8V9Z" fill="currentColor"/>
  </symbol>
</svg>
