<!-- JioGames DLS — warranty icons (2 icons) -->
<svg xmlns="http://www.w3.org/2000/svg" style="display:none">
  <symbol id="ic_warranty" viewBox="0 0 24 24">
    <path d="M8.71 11.29C8.5217 11.1017 8.26631 10.9959 8 10.9959C7.7337 10.9959 7.47831 11.1017 7.29 11.29C7.1017 11.4783 6.99591 11.7337 6.99591 12C6.99591 12.1319 7.02188 12.2625 7.07234 12.3843C7.12281 12.5061 7.19677 12.6168 7.29 12.71L10.29 15.71C10.383 15.8038 10.4936 15.8782 10.6154 15.9289C10.7373 15.9797 10.868 16.0058 11 16.0058C11.132 16.0058 11.2627 15.9797 11.3846 15.9289C11.5064 15.8782 11.617 15.8038 11.71 15.71L21.71 5.71004C21.8983 5.52173 22.0041 5.26634 22.0041 5.00004C22.0041 4.73374 21.8983 4.47834 21.71 4.29004C21.5217 4.10173 21.2663 3.99595 21 3.99595C20.7337 3.99595 20.4783 4.10173 20.29 4.29004L11 13.59L8.71 11.29ZM20.83 10C20.5731 10.042 20.3427 10.1824 20.1877 10.3916C20.0327 10.6007 19.9654 10.862 20 11.12C20.0152 11.4132 20.0152 11.7069 20 12C20 13.5823 19.5308 15.129 18.6518 16.4446C17.7727 17.7602 16.5233 18.7856 15.0615 19.3911C13.5997 19.9966 11.9911 20.155 10.4393 19.8463C8.88743 19.5376 7.46197 18.7757 6.34315 17.6569C5.22433 16.5381 4.4624 15.1126 4.15372 13.5608C3.84504 12.0089 4.00347 10.4004 4.60897 8.93857C5.21447 7.47676 6.23985 6.22733 7.55544 5.34828C8.87104 4.46923 10.4178 4.00004 12 4.00004C13.233 3.99625 14.4494 4.28408 15.55 4.84004C15.7874 4.95938 16.0624 4.97955 16.3147 4.8961C16.5669 4.81264 16.7757 4.63241 16.895 4.39504C17.0144 4.15767 17.0345 3.88261 16.9511 3.63037C16.8676 3.37814 16.6874 3.16938 16.45 3.05004C15.0697 2.35549 13.5452 1.99578 12 2.00004C10.0222 2.00004 8.08879 2.58653 6.4443 3.68534C4.79981 4.78416 3.51809 6.34594 2.76121 8.1732C2.00433 10.0005 1.8063 12.0111 2.19215 13.9509C2.578 15.8907 3.53041 17.6726 4.92894 19.0711C6.32746 20.4696 8.10929 21.422 10.0491 21.8079C11.9889 22.1937 13.9996 21.9957 15.8268 21.2388C17.6541 20.482 19.2159 19.2002 20.3147 17.5557C21.4135 15.9112 22 13.9778 22 12C22.0019 11.6256 21.9785 11.2514 21.93 10.88C21.8998 10.6179 21.7673 10.3783 21.5613 10.2135C21.3552 10.0486 21.0924 9.97192 20.83 10Z" fill="currentColor"/>
  </symbol>
  <symbol id="ic_warranty_badge" viewBox="0 0 24 24">
    <path d="M18.9097 6.02999C18.2369 4.84279 17.2773 3.84356 16.1099 3.14113C14.9424 2.4387 13.6068 2.04297 12.2515 2.00339C10.8862 1.96382 9.54068 2.27051 8.33369 2.91358C7.1267 3.54676 6.10768 4.48663 5.36568 5.62436C4.62368 6.77199 4.18837 8.08781 4.10922 9.45309C4.03008 10.8184 4.2972 12.1738 4.90069 13.4005C5.50419 14.6273 6.40448 15.676 7.53233 16.4477L7.06734 19.5443C7.01787 19.9203 7.06734 20.3061 7.23553 20.6524C7.39382 20.9986 7.65105 21.2855 7.97753 21.4933C8.30401 21.6912 8.67996 21.8 9.0559 21.8C9.44174 21.8 9.8078 21.6813 10.1244 21.4636L12.014 20.2171L13.8839 21.4636C14.2103 21.6813 14.5863 21.8 14.982 21.8C15.358 21.8 15.724 21.6912 16.0406 21.4933C16.3671 21.2855 16.6243 20.9887 16.7826 20.6425C16.9409 20.2863 17.0003 19.9005 16.9409 19.5146L16.4957 16.418C17.5543 15.6958 18.415 14.7262 19.0086 13.5984C19.6022 12.4706 19.9188 11.2141 19.9287 9.92797C19.9287 8.56269 19.5824 7.22709 18.9097 6.03988V6.02999ZM16.2088 14.1228C15.0908 15.2407 13.5871 15.864 12.014 15.864C10.8367 15.864 9.68908 15.5177 8.71953 14.8648C7.74009 14.2118 6.9783 13.2818 6.5331 12.2034C6.0879 11.1152 5.96918 9.92797 6.19672 8.77045C6.42427 7.62282 6.98819 6.56423 7.81923 5.73319C8.65027 4.90215 9.70886 4.33823 10.8565 4.11068C12.0041 3.88313 13.2012 4.00185 14.2895 4.44705C15.3778 4.89225 16.2978 5.65404 16.9508 6.63348C17.6038 7.61293 17.95 8.76056 17.95 9.92797C17.95 11.501 17.3267 13.0147 16.2088 14.1228Z" fill="currentColor"/>
<path d="M12.0437 5.96074C11.8656 5.96074 11.6776 6.0201 11.4303 6.25754L9.8078 7.83058C9.6495 7.98887 9.59014 8.14717 9.59014 8.29557C9.59014 8.67152 9.97598 9.02768 10.3223 9.02768C10.4707 9.02768 10.6388 8.95842 10.7971 8.80013L11.1335 8.46375C11.1335 8.46375 11.2127 8.38461 11.2423 8.38461C11.3017 8.38461 11.3017 8.46375 11.3017 8.53301V13.2422C11.3017 13.727 11.6579 13.8853 12.014 13.8853C12.3702 13.8853 12.7164 13.727 12.7164 13.2422V6.74231C12.7164 6.18828 12.3801 5.96074 12.0437 5.96074Z" fill="currentColor"/>
  </symbol>
</svg>
