<!-- JioGames DLS — water icons (9 icons) -->
<svg xmlns="http://www.w3.org/2000/svg" style="display:none">
  <symbol id="ic_water" viewBox="0 0 24 24">
    <path d="M17.7 10.4001L12.85 2.48005C12.7603 2.33534 12.6352 2.21593 12.4864 2.13311C12.3377 2.0503 12.1702 2.00684 12 2.00684C11.8298 2.00684 11.6623 2.0503 11.5136 2.13311C11.3648 2.21593 11.2397 2.33534 11.15 2.48005L6.3 10.4001C5.4515 11.7845 5.00164 13.3763 5 15.0001C5 16.8566 5.7375 18.637 7.05025 19.9498C8.36301 21.2626 10.1435 22.0001 12 22.0001C13.8565 22.0001 15.637 21.2626 16.9497 19.9498C18.2625 18.637 19 16.8566 19 15.0001C18.9984 13.3763 18.5485 11.7845 17.7 10.4001Z" fill="currentColor"/>
  </symbol>
  <symbol id="ic_water_bottle" viewBox="0 0 24 24">
    <path d="M10 5H14C14.2652 5 14.5196 4.89464 14.7071 4.70711C14.8946 4.51957 15 4.26522 15 4V3C15 2.73478 14.8946 2.48043 14.7071 2.29289C14.5196 2.10536 14.2652 2 14 2H10C9.73478 2 9.48043 2.10536 9.29289 2.29289C9.10536 2.48043 9 2.73478 9 3V4C9 4.26522 9.10536 4.51957 9.29289 4.70711C9.48043 4.89464 9.73478 5 10 5ZM17 13C17 12.4696 16.7893 11.9609 16.4142 11.5858C16.0391 11.2107 15.5304 11 15 11C15.5304 11 16.0391 10.7893 16.4142 10.4142C16.7893 10.0391 17 9.53043 17 9C17 8.46957 16.7893 7.96086 16.4142 7.58579C16.0391 7.21071 15.5304 7 15 7H9C8.46957 7 7.96086 7.21071 7.58579 7.58579C7.21071 7.96086 7 8.46957 7 9C7 9.53043 7.21071 10.0391 7.58579 10.4142C7.96086 10.7893 8.46957 11 9 11C8.46957 11 7.96086 11.2107 7.58579 11.5858C7.21071 11.9609 7 12.4696 7 13C7 13.5304 7.21071 14.0391 7.58579 14.4142C7.96086 14.7893 8.46957 15 9 15C8.46957 15 7.96086 15.2107 7.58579 15.5858C7.21071 15.9609 7 16.4696 7 17V20C7 20.5304 7.21071 21.0391 7.58579 21.4142C7.96086 21.7893 8.46957 22 9 22H15C15.5304 22 16.0391 21.7893 16.4142 21.4142C16.7893 21.0391 17 20.5304 17 20V17C17 16.4696 16.7893 15.9609 16.4142 15.5858C16.0391 15.2107 15.5304 15 15 15C15.5304 15 16.0391 14.7893 16.4142 14.4142C16.7893 14.0391 17 13.5304 17 13Z" fill="currentColor"/>
  </symbol>
  <symbol id="ic_water_bottle_reuseable" viewBox="0 0 24 24">
    <path d="M7.00001 11.27C6.99328 11.4386 7.03254 11.6058 7.11357 11.7538C7.1946 11.9017 7.31435 12.0249 7.46001 12.11C7.62381 12.1939 7.76127 12.3214 7.85726 12.4784C7.95325 12.6355 8.00405 12.816 8.00405 13C8.00405 13.184 7.95325 13.3645 7.85726 13.5216C7.76127 13.6786 7.62381 13.8061 7.46001 13.89C7.31435 13.9751 7.1946 14.0983 7.11357 14.2462C7.03254 14.3942 6.99328 14.5614 7.00001 14.73V20C7.00001 20.5304 7.21072 21.0391 7.58579 21.4142C7.96087 21.7893 8.46957 22 9.00001 22H15C15.5304 22 16.0391 21.7893 16.4142 21.4142C16.7893 21.0391 17 20.5304 17 20V14.73C17.0067 14.5614 16.9675 14.3942 16.8864 14.2462C16.8054 14.0983 16.6857 13.9751 16.54 13.89C16.3762 13.8061 16.2387 13.6786 16.1427 13.5216C16.0468 13.3645 15.996 13.184 15.996 13C15.996 12.816 16.0468 12.6355 16.1427 12.4784C16.2387 12.3214 16.3762 12.1939 16.54 12.11C16.6857 12.0249 16.8054 11.9017 16.8864 11.7538C16.9675 11.6058 17.0067 11.4386 17 11.27V10H7.00001V11.27ZM15 5H14V3C14 2.73478 13.8946 2.48043 13.7071 2.29289C13.5196 2.10536 13.2652 2 13 2H11C10.7348 2 10.4804 2.10536 10.2929 2.29289C10.1054 2.48043 10 2.73478 10 3V5H9.00001C8.46957 5 7.96087 5.21071 7.58579 5.58579C7.21072 5.96086 7.00001 6.46957 7.00001 7V8H17V7C17 6.46957 16.7893 5.96086 16.4142 5.58579C16.0391 5.21071 15.5304 5 15 5Z" fill="currentColor"/>
  </symbol>
  <symbol id="ic_water_checked" viewBox="0 0 24 24">
    <path d="M17.7002 10.3901L12.8502 2.46008C12.4902 1.87008 11.5102 1.87008 11.1402 2.46008L6.29023 10.3801C5.44023 11.7601 4.99023 13.3501 4.99023 14.9801C4.99023 18.8401 8.13023 21.9801 11.9902 21.9801C15.8502 21.9801 18.9902 18.8401 18.9902 14.9801C18.9902 13.3601 18.5402 11.7701 17.6902 10.3801L17.7002 10.3901ZM15.7002 13.7101L11.7002 17.7101C11.5002 17.9101 11.2502 18.0001 10.9902 18.0001C10.7302 18.0001 10.4802 17.9001 10.2802 17.7101L8.28023 15.7101C7.89023 15.3201 7.89023 14.6901 8.28023 14.3001C8.67023 13.9101 9.30023 13.9101 9.69023 14.3001L10.9802 15.5901L14.2702 12.3001C14.6602 11.9101 15.2902 11.9101 15.6802 12.3001C16.0702 12.6901 16.0702 13.3201 15.6802 13.7101H15.7002Z" fill="currentColor"/>
  </symbol>
  <symbol id="ic_water_pipe" viewBox="0 0 24 24">
    <path d="M20 17.28V14C20 12.6739 19.4732 11.4021 18.5355 10.4645C17.5979 9.52678 16.3261 9 15 9V8C15 7.73478 14.8946 7.48043 14.7071 7.29289C14.5196 7.10536 14.2652 7 14 7H13V5H14C14.2652 5 14.5196 4.89464 14.7071 4.70711C14.8946 4.51957 15 4.26522 15 4C15 3.73478 14.8946 3.48043 14.7071 3.29289C14.5196 3.10536 14.2652 3 14 3H10C9.73478 3 9.48043 3.10536 9.29289 3.29289C9.10536 3.48043 9 3.73478 9 4C9 4.26522 9.10536 4.51957 9.29289 4.70711C9.48043 4.89464 9.73478 5 10 5H11V7H10C9.73478 7 9.48043 7.10536 9.29289 7.29289C9.10536 7.48043 9 7.73478 9 8V9H6.72C6.54549 8.69772 6.29491 8.44638 5.99317 8.27095C5.69143 8.09552 5.34903 8.00211 5 8C4.46957 8 3.96086 8.21071 3.58579 8.58579C3.21071 8.96086 3 9.46957 3 10V14C3 14.5304 3.21071 15.0391 3.58579 15.4142C3.96086 15.7893 4.46957 16 5 16C5.34903 15.9979 5.69143 15.9045 5.99317 15.7291C6.29491 15.5536 6.54549 15.3023 6.72 15H14V17.28C13.6977 17.4545 13.4464 17.7051 13.2709 18.0068C13.0955 18.3086 13.0021 18.651 13 19C13 19.5304 13.2107 20.0391 13.5858 20.4142C13.9609 20.7893 14.4696 21 15 21H19C19.5304 21 20.0391 20.7893 20.4142 20.4142C20.7893 20.0391 21 19.5304 21 19C20.9979 18.651 20.9045 18.3086 20.7291 18.0068C20.5536 17.7051 20.3023 17.4545 20 17.28Z" fill="currentColor"/>
  </symbol>
  <symbol id="ic_water_pump" viewBox="0 0 24 24">
    <path d="M18.71 15.29C18.617 15.1963 18.5064 15.1219 18.3846 15.0711C18.2627 15.0203 18.132 14.9942 18 14.9942C17.868 14.9942 17.7373 15.0203 17.6154 15.0711C17.4936 15.1219 17.383 15.1963 17.29 15.29L16.7 15.89C16.531 16.0574 16.3971 16.2569 16.3061 16.4766C16.2151 16.6964 16.1689 16.9321 16.17 17.17C16.1667 17.5329 16.2721 17.8885 16.4725 18.1912C16.6728 18.4938 16.9591 18.7296 17.2945 18.8682C17.6299 19.0069 17.9991 19.0422 18.3547 18.9694C18.7103 18.8967 19.036 18.7193 19.29 18.46C19.6265 18.121 19.8153 17.6627 19.8153 17.185C19.8153 16.7073 19.6265 16.249 19.29 15.91L18.71 15.29ZM13 19H12V14H8V19H7C6.73478 19 6.48043 19.1054 6.29289 19.2929C6.10536 19.4804 6 19.7348 6 20C6 20.2652 6.10536 20.5196 6.29289 20.7071C6.48043 20.8946 6.73478 21 7 21H13C13.2652 21 13.5196 20.8946 13.7071 20.7071C13.8946 20.5196 14 20.2652 14 20C14 19.7348 13.8946 19.4804 13.7071 19.2929C13.5196 19.1054 13.2652 19 13 19ZM15 7H13.82C13.6707 6.5806 13.4299 6.19969 13.1151 5.8849C12.8003 5.57011 12.4194 5.32932 12 5.18V5C12 4.46957 11.7893 3.96086 11.4142 3.58579C11.0391 3.21071 10.5304 3 10 3C9.46957 3 8.96086 3.21071 8.58579 3.58579C8.21071 3.96086 8 4.46957 8 5V5.18C7.5806 5.32932 7.19969 5.57011 6.8849 5.8849C6.57011 6.19969 6.32932 6.5806 6.18 7H6C5.46957 7 4.96086 7.21071 4.58579 7.58579C4.21071 7.96086 4 8.46957 4 9C4 9.53043 4.21071 10.0391 4.58579 10.4142C4.96086 10.7893 5.46957 11 6 11H6.18C6.38631 11.5835 6.76807 12.089 7.27293 12.4471C7.7778 12.8051 8.38106 12.9983 9 13H11C11.6189 12.9983 12.2222 12.8051 12.7271 12.4471C13.2319 12.089 13.6137 11.5835 13.82 11H15C15.2652 11 15.5196 11.1054 15.7071 11.2929C15.8946 11.4804 16 11.7348 16 12V13C16 13.2652 16.1054 13.5196 16.2929 13.7071C16.4804 13.8946 16.7348 14 17 14H19C19.2652 14 19.5196 13.8946 19.7071 13.7071C19.8946 13.5196 20 13.2652 20 13V12C20 10.6739 19.4732 9.40215 18.5355 8.46447C17.5979 7.52678 16.3261 7 15 7Z" fill="currentColor"/>
  </symbol>
  <symbol id="ic_water_purifier" viewBox="0 0 24 24">
    <path d="M15 15C15.1978 15 15.3911 14.9414 15.5556 14.8315C15.72 14.7216 15.8482 14.5654 15.9239 14.3827C15.9996 14.2 16.0194 13.9989 15.9808 13.8049C15.9422 13.6109 15.847 13.4327 15.7071 13.2929C15.5673 13.153 15.3891 13.0578 15.1951 13.0192C15.0011 12.9806 14.8 13.0004 14.6173 13.0761C14.4346 13.1518 14.2784 13.28 14.1685 13.4444C14.0586 13.6089 14 13.8022 14 14C14 14.2652 14.1054 14.5196 14.2929 14.7071C14.4804 14.8946 14.7348 15 15 15ZM20.16 13C20.0299 12.9786 19.8969 12.9831 19.7686 13.0133C19.6403 13.0435 19.5193 13.0987 19.4124 13.1759C19.3055 13.253 19.215 13.3505 19.1459 13.4628C19.0768 13.575 19.0307 13.6998 19.01 13.83L18.29 18.15C18.2517 18.3866 18.1296 18.6016 17.9461 18.7558C17.7625 18.91 17.5297 18.9931 17.29 18.99H14.69C14.4503 18.9931 14.2175 18.91 14.0339 18.7558C13.8504 18.6016 13.7283 18.3866 13.69 18.15L13 13.84C12.9576 13.5748 12.8115 13.3373 12.594 13.1798C12.3764 13.0222 12.1052 12.9576 11.84 13C11.5748 13.0424 11.3373 13.1885 11.1798 13.406C11.0222 13.6236 10.9576 13.8948 11 14.16L11.73 18.49C11.8461 19.1912 12.2074 19.8284 12.7495 20.2881C13.2916 20.7478 13.9792 21.0001 14.69 21H17.31C18.0276 21.0096 18.7249 20.7617 19.2753 20.3012C19.8257 19.8406 20.1928 19.198 20.31 18.49L21 14.16C21.0228 14.0285 21.019 13.8937 20.9889 13.7637C20.9587 13.6337 20.9029 13.511 20.8246 13.4029C20.7463 13.2948 20.6472 13.2034 20.533 13.1342C20.4189 13.065 20.2921 13.0194 20.16 13ZM17 17C17.1978 17 17.3911 16.9414 17.5556 16.8315C17.72 16.7216 17.8482 16.5654 17.9239 16.3827C17.9996 16.2 18.0194 15.9989 17.9808 15.8049C17.9422 15.6109 17.847 15.4327 17.7071 15.2929C17.5673 15.153 17.3891 15.0578 17.1951 15.0192C17.0011 14.9806 16.8 15.0004 16.6173 15.0761C16.4346 15.1518 16.2784 15.28 16.1685 15.4444C16.0586 15.6089 16 15.8022 16 16C16 16.2652 16.1054 16.5196 16.2929 16.7071C16.4804 16.8946 16.7348 17 17 17ZM17 13C17.1978 13 17.3911 12.9414 17.5556 12.8315C17.72 12.7216 17.8482 12.5654 17.9239 12.3827C17.9996 12.2 18.0194 11.9989 17.9808 11.8049C17.9422 11.6109 17.847 11.4327 17.7071 11.2929C17.5673 11.153 17.3891 11.0578 17.1951 11.0192C17.0011 10.9806 16.8 11.0004 16.6173 11.0761C16.4346 11.1518 16.2784 11.28 16.1685 11.4444C16.0586 11.6089 16 11.8022 16 12C16 12.2652 16.1054 12.5196 16.2929 12.7071C16.4804 12.8946 16.7348 13 17 13ZM18 3H4C3.73478 3 3.48043 3.10536 3.29289 3.29289C3.10536 3.48043 3 3.73478 3 4V7C3 7.26522 3.10536 7.51957 3.29289 7.70711C3.48043 7.89464 3.73478 8 4 8H13C13 8.53043 13.2107 9.03914 13.5858 9.41421C13.9609 9.78929 14.4696 10 15 10H17C17.5304 10 18.0391 9.78929 18.4142 9.41421C18.7893 9.03914 19 8.53043 19 8H20C20.2652 8 20.5196 7.89464 20.7071 7.70711C20.8946 7.51957 21 7.26522 21 7V6C21 5.20435 20.6839 4.44129 20.1213 3.87868C19.5587 3.31607 18.7956 3 18 3Z" fill="currentColor"/>
  </symbol>
  <symbol id="ic_water_sensor" viewBox="0 0 24 24">
    <path d="M18.67 4.56016C16.8362 2.91847 14.4613 2.01074 12 2.01074C9.53869 2.01074 7.16383 2.91847 5.33001 4.56016C5.13242 4.73786 5.01352 4.98677 4.99945 5.25213C4.98539 5.5175 5.07731 5.77758 5.25501 5.97516C5.4327 6.17275 5.68161 6.29166 5.94698 6.30572C6.21234 6.31979 6.47242 6.22786 6.67001 6.05017C8.13632 4.74013 10.0337 4.01599 12 4.01599C13.9663 4.01599 15.8637 4.74013 17.33 6.05017C17.5149 6.21323 17.7535 6.30227 18 6.30017C18.1373 6.30367 18.2739 6.27885 18.4013 6.22723C18.5286 6.17562 18.6439 6.09832 18.74 6.00016C18.8324 5.90226 18.9041 5.7867 18.9507 5.66041C18.9974 5.53413 19.0181 5.39973 19.0116 5.26526C19.005 5.1308 18.9714 4.99903 18.9127 4.87787C18.854 4.75671 18.7715 4.64865 18.67 4.56016ZM12.67 10.3802C12.5869 10.2625 12.4768 10.1666 12.3489 10.1004C12.221 10.0341 12.079 9.99956 11.935 9.99956C11.791 9.99956 11.6491 10.0341 11.5212 10.1004C11.3933 10.1666 11.2831 10.2625 11.2 10.3802L8.47001 14.9202C7.96014 15.7578 7.69031 16.7195 7.69001 17.7002C7.66194 18.2816 7.75224 18.8627 7.95542 19.4083C8.1586 19.9538 8.47043 20.4524 8.87202 20.8738C9.27361 21.2953 9.75659 21.6308 10.2917 21.86C10.8268 22.0893 11.4029 22.2075 11.985 22.2075C12.5671 22.2075 13.1432 22.0893 13.6783 21.86C14.2134 21.6308 14.6964 21.2953 15.098 20.8738C15.4996 20.4524 15.8114 19.9538 16.0146 19.4083C16.2178 18.8627 16.3081 18.2816 16.28 17.7002C16.2809 16.718 16.0073 15.7551 15.49 14.9202L12.67 10.3802ZM9.61001 8.82016C10.3006 8.30559 11.1388 8.02764 12 8.02764C12.8612 8.02764 13.6994 8.30559 14.39 8.82016C14.6009 8.98195 14.8673 9.05334 15.1308 9.01865C15.3943 8.98396 15.6332 8.84601 15.795 8.63517C15.9568 8.42432 16.0282 8.15784 15.9935 7.89435C15.9588 7.63086 15.8209 7.39195 15.61 7.23017C14.5696 6.44649 13.3025 6.02265 12 6.02265C10.6975 6.02265 9.43038 6.44649 8.39001 7.23017C8.28561 7.31027 8.19801 7.41016 8.13221 7.52412C8.06641 7.63808 8.0237 7.76388 8.00652 7.89435C7.98934 8.02482 7.99803 8.15739 8.03209 8.2845C8.06614 8.41161 8.1249 8.53076 8.20501 8.63517C8.36679 8.84601 8.60571 8.98396 8.86919 9.01865C8.99966 9.03583 9.13223 9.02714 9.25934 8.99309C9.38645 8.95903 9.50561 8.90027 9.61001 8.82016Z" fill="currentColor"/>
  </symbol>
  <symbol id="ic_water_tap" viewBox="0 0 24 24">
    <path d="M9 7H10V5.73C9.99761 5.48735 10.0835 5.25211 10.2418 5.06812C10.4 4.88414 10.6197 4.76396 10.86 4.73L16.14 4C16.4052 3.9695 16.6475 3.8349 16.8134 3.62579C16.9794 3.41669 17.0555 3.15022 17.025 2.885C16.9945 2.61979 16.8599 2.37755 16.6508 2.21158C16.4417 2.04561 16.1752 1.9695 15.91 2L6.73 2.84C5.98376 2.90744 5.28976 3.25168 4.78454 3.80502C4.27932 4.35835 3.99946 5.08072 4 5.83V7H9ZM18 9H4V20C4 20.5304 4.21071 21.0391 4.58579 21.4142C4.96086 21.7893 5.46957 22 6 22H8C8.53043 22 9.03914 21.7893 9.41421 21.4142C9.78929 21.0391 10 20.5304 10 20V13C10 12.7348 10.1054 12.4804 10.2929 12.2929C10.4804 12.1054 10.7348 12 11 12H17V13C17 13.2652 17.1054 13.5196 17.2929 13.7071C17.4804 13.8946 17.7348 14 18 14H19C19.2652 14 19.5196 13.8946 19.7071 13.7071C19.8946 13.5196 20 13.2652 20 13V11C20 10.4696 19.7893 9.96086 19.4142 9.58579C19.0391 9.21072 18.5304 9 18 9ZM18.93 16.25C18.8886 16.1739 18.8261 16.1114 18.75 16.07C18.6736 16.0267 18.5878 16.0027 18.5 16C18.4162 15.9996 18.3337 16.0202 18.26 16.06C18.1809 16.1008 18.115 16.1632 18.07 16.24L17.18 17.74C17.0301 18.0291 16.9709 18.3567 17.01 18.68C17.0584 19.003 17.205 19.3033 17.43 19.54C17.5719 19.6789 17.7379 19.7908 17.92 19.87C18.1031 19.9493 18.3005 19.9902 18.5 19.9902C18.6995 19.9902 18.8969 19.9493 19.08 19.87C19.2635 19.7933 19.43 19.6812 19.57 19.54C19.7952 19.2995 19.9417 18.996 19.99 18.67C20.0314 18.3423 19.9684 18.0098 19.81 17.72L18.93 16.25Z" fill="currentColor"/>
  </symbol>
</svg>
