<!-- JioGames DLS — web icons (4 icons) -->
<svg xmlns="http://www.w3.org/2000/svg" style="display:none">
  <symbol id="ic_web_browser" viewBox="0 0 24 24">
    <path d="M19 4H5C4.20435 4 3.44129 4.31607 2.87868 4.87868C2.31607 5.44129 2 6.20435 2 7V17C2 17.7956 2.31607 18.5587 2.87868 19.1213C3.44129 19.6839 4.20435 20 5 20H19C19.7956 20 20.5587 19.6839 21.1213 19.1213C21.6839 18.5587 22 17.7956 22 17V7C22 6.20435 21.6839 5.44129 21.1213 4.87868C20.5587 4.31607 19.7956 4 19 4ZM11 6C11.1978 6 11.3911 6.05865 11.5556 6.16853C11.72 6.27841 11.8482 6.43459 11.9239 6.61732C11.9996 6.80004 12.0194 7.00111 11.9808 7.19509C11.9422 7.38907 11.847 7.56725 11.7071 7.70711C11.5673 7.84696 11.3891 7.9422 11.1951 7.98079C11.0011 8.01937 10.8 7.99957 10.6173 7.92388C10.4346 7.84819 10.2784 7.72002 10.1685 7.55557C10.0586 7.39112 10 7.19778 10 7C10 6.73478 10.1054 6.48043 10.2929 6.29289C10.4804 6.10536 10.7348 6 11 6ZM8 6C8.19778 6 8.39112 6.05865 8.55557 6.16853C8.72002 6.27841 8.84819 6.43459 8.92388 6.61732C8.99957 6.80004 9.01937 7.00111 8.98079 7.19509C8.9422 7.38907 8.84696 7.56725 8.70711 7.70711C8.56725 7.84696 8.38907 7.9422 8.19509 7.98079C8.00111 8.01937 7.80004 7.99957 7.61732 7.92388C7.43459 7.84819 7.27841 7.72002 7.16853 7.55557C7.05865 7.39112 7 7.19778 7 7C7 6.73478 7.10536 6.48043 7.29289 6.29289C7.48043 6.10536 7.73478 6 8 6ZM5 6C5.19778 6 5.39112 6.05865 5.55557 6.16853C5.72002 6.27841 5.84819 6.43459 5.92388 6.61732C5.99957 6.80004 6.01937 7.00111 5.98079 7.19509C5.9422 7.38907 5.84696 7.56725 5.70711 7.70711C5.56725 7.84696 5.38907 7.9422 5.19509 7.98079C5.00111 8.01937 4.80004 7.99957 4.61732 7.92388C4.43459 7.84819 4.27841 7.72002 4.16853 7.55557C4.05865 7.39112 4 7.19778 4 7C4 6.73478 4.10536 6.48043 4.29289 6.29289C4.48043 6.10536 4.73478 6 5 6Z" fill="currentColor"/>
  </symbol>
  <symbol id="ic_web_browser_cursor" viewBox="0 0 24 24">
    <path d="M21.39 16.08L17.89 14.58C17.7068 14.5027 17.5046 14.4818 17.3095 14.52C17.1143 14.5582 16.9349 14.6537 16.7943 14.7943C16.6537 14.9349 16.5582 15.1143 16.52 15.3095C16.4818 15.5046 16.5027 15.7068 16.58 15.89L18.08 19.39C18.1566 19.5707 18.2846 19.725 18.4482 19.8334C18.6118 19.9419 18.8037 19.9998 19 20H19.2C19.4293 19.9532 19.6349 19.8276 19.7811 19.6449C19.9272 19.4621 20.0047 19.2339 20 19V18H21C21.2303 17.9996 21.4534 17.9196 21.6317 17.7737C21.8099 17.6278 21.9322 17.4248 21.9781 17.1991C22.0239 16.9733 21.9904 16.7387 21.8833 16.5348C21.7762 16.3309 21.6019 16.1703 21.39 16.08ZM19 4H5C4.20435 4 3.44129 4.31607 2.87868 4.87868C2.31607 5.44129 2 6.20435 2 7V17C2 17.7956 2.31607 18.5587 2.87868 19.1213C3.44129 19.6839 4.20435 20 5 20H15C14.2779 19.0371 13.9273 17.8461 14.0126 16.6456C14.0979 15.445 14.6134 14.3155 15.4645 13.4645C16.3155 12.6134 17.445 12.0979 18.6456 12.0126C19.8461 11.9273 21.0371 12.2779 22 13V7C22 6.20435 21.6839 5.44129 21.1213 4.87868C20.5587 4.31607 19.7956 4 19 4ZM5 8C4.80222 8 4.60888 7.94135 4.44443 7.83147C4.27998 7.72159 4.15181 7.56541 4.07612 7.38268C4.00043 7.19996 3.98063 6.99889 4.01921 6.80491C4.0578 6.61093 4.15304 6.43275 4.29289 6.29289C4.43275 6.15304 4.61093 6.0578 4.80491 6.01921C4.99889 5.98063 5.19996 6.00043 5.38268 6.07612C5.56541 6.15181 5.72159 6.27998 5.83147 6.44443C5.94135 6.60888 6 6.80222 6 7C6 7.26522 5.89464 7.51957 5.70711 7.70711C5.51957 7.89464 5.26522 8 5 8ZM8 8C7.80222 8 7.60888 7.94135 7.44443 7.83147C7.27998 7.72159 7.15181 7.56541 7.07612 7.38268C7.00043 7.19996 6.98063 6.99889 7.01921 6.80491C7.0578 6.61093 7.15304 6.43275 7.29289 6.29289C7.43275 6.15304 7.61093 6.0578 7.80491 6.01921C7.99889 5.98063 8.19996 6.00043 8.38268 6.07612C8.56541 6.15181 8.72159 6.27998 8.83147 6.44443C8.94135 6.60888 9 6.80222 9 7C9 7.26522 8.89464 7.51957 8.70711 7.70711C8.51957 7.89464 8.26522 8 8 8ZM11 8C10.8022 8 10.6089 7.94135 10.4444 7.83147C10.28 7.72159 10.1518 7.56541 10.0761 7.38268C10.0004 7.19996 9.98063 6.99889 10.0192 6.80491C10.0578 6.61093 10.153 6.43275 10.2929 6.29289C10.4327 6.15304 10.6109 6.0578 10.8049 6.01921C10.9989 5.98063 11.2 6.00043 11.3827 6.07612C11.5654 6.15181 11.7216 6.27998 11.8315 6.44443C11.9414 6.60888 12 6.80222 12 7C12 7.26522 11.8946 7.51957 11.7071 7.70711C11.5196 7.89464 11.2652 8 11 8Z" fill="currentColor"/>
  </symbol>
  <symbol id="ic_web_browser_mobile" viewBox="0 0 24 24">
    <path d="M19 4H5C4.20435 4 3.44129 4.31607 2.87868 4.87868C2.31607 5.44129 2 6.20435 2 7V17C2 17.7956 2.31607 18.5587 2.87868 19.1213C3.44129 19.6839 4.20435 20 5 20H12V12C12 10.9391 12.4214 9.92172 13.1716 9.17157C13.9217 8.42143 14.9391 8 16 8H20C20.7043 8.00732 21.3943 8.20049 22 8.56V7C22 6.20435 21.6839 5.44129 21.1213 4.87868C20.5587 4.31607 19.7956 4 19 4ZM5 8C4.80222 8 4.60888 7.94135 4.44443 7.83147C4.27998 7.72159 4.15181 7.56541 4.07612 7.38268C4.00043 7.19996 3.98063 6.99889 4.01921 6.80491C4.0578 6.61093 4.15304 6.43275 4.29289 6.29289C4.43275 6.15304 4.61093 6.0578 4.80491 6.01921C4.99889 5.98063 5.19996 6.00043 5.38268 6.07612C5.56541 6.15181 5.72159 6.27998 5.83147 6.44443C5.94135 6.60888 6 6.80222 6 7C6 7.26522 5.89464 7.51957 5.70711 7.70711C5.51957 7.89464 5.26522 8 5 8ZM8 8C7.80222 8 7.60888 7.94135 7.44443 7.83147C7.27998 7.72159 7.15181 7.56541 7.07612 7.38268C7.00043 7.19996 6.98063 6.99889 7.01921 6.80491C7.0578 6.61093 7.15304 6.43275 7.29289 6.29289C7.43275 6.15304 7.61093 6.0578 7.80491 6.01921C7.99889 5.98063 8.19996 6.00043 8.38268 6.07612C8.56541 6.15181 8.72159 6.27998 8.83147 6.44443C8.94135 6.60888 9 6.80222 9 7C9 7.26522 8.89464 7.51957 8.70711 7.70711C8.51957 7.89464 8.26522 8 8 8ZM11 8C10.8022 8 10.6089 7.94135 10.4444 7.83147C10.28 7.72159 10.1518 7.56541 10.0761 7.38268C10.0004 7.19996 9.98063 6.99889 10.0192 6.80491C10.0578 6.61093 10.153 6.43275 10.2929 6.29289C10.4327 6.15304 10.6109 6.0578 10.8049 6.01921C10.9989 5.98063 11.2 6.00043 11.3827 6.07612C11.5654 6.15181 11.7216 6.27998 11.8315 6.44443C11.9414 6.60888 12 6.80222 12 7C12 7.26522 11.8946 7.51957 11.7071 7.70711C11.5196 7.89464 11.2652 8 11 8ZM20 10H16C15.4696 10 14.9609 10.2107 14.5858 10.5858C14.2107 10.9609 14 11.4696 14 12V20C14 20.5304 14.2107 21.0391 14.5858 21.4142C14.9609 21.7893 15.4696 22 16 22H20C20.5304 22 21.0391 21.7893 21.4142 21.4142C21.7893 21.0391 22 20.5304 22 20V12C22 11.4696 21.7893 10.9609 21.4142 10.5858C21.0391 10.2107 20.5304 10 20 10ZM18 20C17.8022 20 17.6089 19.9414 17.4444 19.8315C17.28 19.7216 17.1518 19.5654 17.0761 19.3827C17.0004 19.2 16.9806 18.9989 17.0192 18.8049C17.0578 18.6109 17.153 18.4327 17.2929 18.2929C17.4327 18.153 17.6109 18.0578 17.8049 18.0192C17.9989 17.9806 18.2 18.0004 18.3827 18.0761C18.5654 18.1518 18.7216 18.28 18.8315 18.4444C18.9414 18.6089 19 18.8022 19 19C19 19.2652 18.8946 19.5196 18.7071 19.7071C18.5196 19.8946 18.2652 20 18 20Z" fill="currentColor"/>
  </symbol>
  <symbol id="ic_web_browser_successful" viewBox="0 0 24 24">
    <path d="M19 4H5C4.20435 4 3.44129 4.31607 2.87868 4.87868C2.31607 5.44129 2 6.20435 2 7V17C2 17.7956 2.31607 18.5587 2.87868 19.1213C3.44129 19.6839 4.20435 20 5 20H19C19.7956 20 20.5587 19.6839 21.1213 19.1213C21.6839 18.5587 22 17.7956 22 17V7C22 6.20435 21.6839 5.44129 21.1213 4.87868C20.5587 4.31607 19.7956 4 19 4ZM11 6C11.1978 6 11.3911 6.05865 11.5556 6.16853C11.72 6.27841 11.8482 6.43459 11.9239 6.61732C11.9996 6.80004 12.0194 7.00111 11.9808 7.19509C11.9422 7.38907 11.847 7.56725 11.7071 7.70711C11.5673 7.84696 11.3891 7.9422 11.1951 7.98079C11.0011 8.01937 10.8 7.99957 10.6173 7.92388C10.4346 7.84819 10.2784 7.72002 10.1685 7.55557C10.0586 7.39112 10 7.19778 10 7C10 6.73478 10.1054 6.48043 10.2929 6.29289C10.4804 6.10536 10.7348 6 11 6ZM5 8C4.80222 8 4.60888 7.94135 4.44443 7.83147C4.27998 7.72159 4.15181 7.56541 4.07612 7.38268C4.00043 7.19996 3.98063 6.99889 4.01921 6.80491C4.0578 6.61093 4.15304 6.43275 4.29289 6.29289C4.43275 6.15304 4.61093 6.0578 4.80491 6.01921C4.99889 5.98063 5.19996 6.00043 5.38268 6.07612C5.56541 6.15181 5.72159 6.27998 5.83147 6.44443C5.94135 6.60888 6 6.80222 6 7C6 7.26522 5.89464 7.51957 5.70711 7.70711C5.51957 7.89464 5.26522 8 5 8ZM7 7C7 6.80222 7.05865 6.60888 7.16853 6.44443C7.27841 6.27998 7.43459 6.15181 7.61732 6.07612C7.80004 6.00043 8.00111 5.98063 8.19509 6.01921C8.38907 6.0578 8.56725 6.15304 8.70711 6.29289C8.84696 6.43275 8.9422 6.61093 8.98079 6.80491C9.01937 6.99889 8.99957 7.19996 8.92388 7.38268C8.84819 7.56541 8.72002 7.72159 8.55557 7.83147C8.39112 7.94135 8.19778 8 8 8C7.73478 8 7.48043 7.89464 7.29289 7.70711C7.10536 7.51957 7 7.26522 7 7ZM16.71 11.71L11.71 16.71C11.617 16.8037 11.5064 16.8781 11.3846 16.9289C11.2627 16.9797 11.132 17.0058 11 17.0058C10.868 17.0058 10.7373 16.9797 10.6154 16.9289C10.4936 16.8781 10.383 16.8037 10.29 16.71L8.29 14.71C8.1017 14.5217 7.99591 14.2663 7.99591 14C7.99591 13.7337 8.1017 13.4783 8.29 13.29C8.4783 13.1017 8.7337 12.9959 9 12.9959C9.2663 12.9959 9.5217 13.1017 9.71 13.29L11 14.59L15.29 10.29C15.4783 10.1017 15.7337 9.99591 16 9.99591C16.2663 9.99591 16.5217 10.1017 16.71 10.29C16.8983 10.4783 17.0041 10.7337 17.0041 11C17.0041 11.2663 16.8983 11.5217 16.71 11.71Z" fill="currentColor"/>
  </symbol>
</svg>
