<!-- JioGames DLS — wifi icons (19 icons) -->
<svg xmlns="http://www.w3.org/2000/svg" style="display:none">
  <symbol id="ic_wifi" viewBox="0 0 24 24">
    <path d="M8.41009 14.2102C8.19791 14.3693 8.05764 14.6062 8.02014 14.8688C7.98263 15.1313 8.05096 15.398 8.21009 15.6102C8.36922 15.8224 8.60611 15.9626 8.86867 16.0002C9.13122 16.0377 9.39791 15.9693 9.61009 15.8102C10.3007 15.2956 11.1389 15.0177 12.0001 15.0177C12.8613 15.0177 13.6995 15.2956 14.3901 15.8102C14.5632 15.94 14.7737 16.0102 14.9901 16.0102C15.1453 16.0102 15.2984 15.9741 15.4373 15.9046C15.5762 15.8352 15.6969 15.7344 15.7901 15.6102C15.8689 15.5051 15.9262 15.3856 15.9588 15.2584C15.9914 15.1312 15.9986 14.9988 15.98 14.8688C15.9615 14.7388 15.9175 14.6137 15.8506 14.5007C15.7837 14.3877 15.6951 14.289 15.5901 14.2102C14.5533 13.436 13.294 13.0177 12.0001 13.0177C10.7061 13.0177 9.44686 13.436 8.41009 14.2102ZM12.0001 17.0002C11.7034 17.0002 11.4134 17.0882 11.1667 17.253C10.9201 17.4178 10.7278 17.6521 10.6143 17.9262C10.5007 18.2003 10.471 18.5019 10.5289 18.7928C10.5868 19.0838 10.7296 19.3511 10.9394 19.5609C11.1492 19.7706 11.4165 19.9135 11.7075 19.9714C11.9984 20.0293 12.3 19.9996 12.5741 19.886C12.8482 19.7725 13.0825 19.5802 13.2473 19.3336C13.4121 19.0869 13.5001 18.7969 13.5001 18.5002C13.5001 18.1024 13.3421 17.7208 13.0607 17.4395C12.7794 17.1582 12.3979 17.0002 12.0001 17.0002ZM21.3401 8.5902C18.7786 6.27828 15.4506 4.99854 12.0001 4.99854C8.54953 4.99854 5.2216 6.27828 2.66009 8.5902C2.4625 8.7679 2.3436 9.01681 2.32953 9.28217C2.31547 9.54753 2.40739 9.80762 2.58509 10.0052C2.76278 10.2028 3.01169 10.3217 3.27705 10.3358C3.54242 10.3498 3.8025 10.2579 4.00009 10.0802C6.19307 8.09787 9.04394 7.00034 12.0001 7.00034C14.9562 7.00034 17.8071 8.09787 20.0001 10.0802C20.185 10.2433 20.4236 10.3323 20.6701 10.3302C20.8096 10.3299 20.9476 10.3003 21.075 10.2435C21.2025 10.1867 21.3166 10.1038 21.4101 10.0002C21.5873 9.80374 21.6795 9.54503 21.6664 9.28074C21.6533 9.01646 21.5359 8.76815 21.3401 8.5902ZM12.0001 9.0002C9.62008 9.0024 7.31889 9.85338 5.51009 11.4002C5.30852 11.5726 5.1837 11.818 5.16307 12.0824C5.14244 12.3468 5.2277 12.6086 5.40009 12.8102C5.57248 13.0118 5.81788 13.1366 6.0823 13.1572C6.34673 13.1779 6.60852 13.0926 6.81009 12.9202C8.25774 11.6861 10.0978 11.0082 12.0001 11.0082C13.9024 11.0082 15.7424 11.6861 17.1901 12.9202C17.3917 13.0926 17.6534 13.1779 17.9179 13.1572C18.1823 13.1366 18.4277 13.0118 18.6001 12.8102C18.7725 12.6086 18.8577 12.3468 18.8371 12.0824C18.8165 11.818 18.6917 11.5726 18.4901 11.4002C16.6813 9.85338 14.3801 9.0024 12.0001 9.0002Z" fill="currentColor"/>
  </symbol>
  <symbol id="ic_wifi_connected" viewBox="0 0 24 24">
    <path d="M21.45 10.9398C21.7761 10.597 21.9702 10.1497 21.9977 9.67733C22.0251 9.20495 21.8842 8.73814 21.6 8.35984C20.4194 6.97124 18.9468 5.86044 17.2873 5.10676C15.6279 4.35308 13.8224 3.97511 12 3.99985C10.1756 3.96861 8.36715 4.34467 6.70644 5.10064C5.04573 5.85661 3.57453 6.97346 2.39998 8.36984C2.11841 8.74733 1.97907 9.21206 2.00651 9.68219C2.03395 10.1523 2.22641 10.5977 2.54998 10.9398L10.55 19.3798C10.737 19.5761 10.962 19.7322 11.2113 19.8388C11.4606 19.9454 11.7289 20.0002 12 19.9998C12.2711 20.0002 12.5394 19.9454 12.7887 19.8388C13.0379 19.7322 13.2629 19.5761 13.45 19.3798L13.57 19.2498C13.2025 18.5563 13.007 17.7847 13 16.9998C13 15.6738 13.5268 14.402 14.4644 13.4643C15.4021 12.5266 16.6739 11.9998 18 11.9998C18.6901 12.0049 19.3715 12.1548 20 12.4398L21.45 10.9398ZM17 13.9998C16.7348 13.9998 16.4804 14.1052 16.2929 14.2927C16.1053 14.4803 16 14.7346 16 14.9998V16.9998C15.8684 16.9991 15.7379 17.0243 15.6161 17.0741C15.4942 17.1238 15.3834 17.1972 15.29 17.2898C15.1963 17.3828 15.1219 17.4934 15.0711 17.6153C15.0203 17.7371 14.9942 17.8678 14.9942 17.9998C14.9942 18.1319 15.0203 18.2626 15.0711 18.3844C15.1219 18.5063 15.1963 18.6169 15.29 18.7098L16.29 19.7098C16.3834 19.8025 16.4942 19.8759 16.6161 19.9256C16.7379 19.9754 16.8684 20.0006 17 19.9998C17.1312 20.0032 17.2613 19.9758 17.38 19.9198C17.5626 19.8448 17.7189 19.7174 17.8293 19.5537C17.9396 19.39 17.999 19.1973 18 18.9998V14.9998C18 14.7346 17.8946 14.4803 17.7071 14.2927C17.5196 14.1052 17.2652 13.9998 17 13.9998ZM21.71 15.2898L20.71 14.2898C20.5694 14.1511 20.3908 14.0571 20.1968 14.0197C20.0028 13.9823 19.8021 14.0033 19.62 14.0798C19.4374 14.1549 19.281 14.2823 19.1707 14.446C19.0604 14.6097 19.001 14.8024 19 14.9998V18.9998C19 19.2651 19.1053 19.5194 19.2929 19.707C19.4804 19.8945 19.7348 19.9998 20 19.9998C20.2652 19.9998 20.5196 19.8945 20.7071 19.707C20.8946 19.5194 21 19.2651 21 18.9998V16.9998C21.1316 17.0006 21.2621 16.9754 21.3839 16.9256C21.5057 16.8759 21.6165 16.8025 21.71 16.7098C21.8037 16.6169 21.8781 16.5063 21.9289 16.3844C21.9796 16.2626 22.0058 16.1319 22.0058 15.9998C22.0058 15.8678 21.9796 15.7371 21.9289 15.6153C21.8781 15.4934 21.8037 15.3828 21.71 15.2898Z" fill="currentColor"/>
  </symbol>
  <symbol id="ic_wifi_enable" viewBox="0 0 24 24">
    <path d="M21.6 8.35984C20.4194 6.97124 18.9468 5.86044 17.2873 5.10676C15.6279 4.35308 13.8224 3.97511 12 3.99985C10.1756 3.96861 8.36715 4.34467 6.70644 5.10064C5.04573 5.85661 3.57453 6.97346 2.39998 8.36984C2.11841 8.74733 1.97907 9.21206 2.00651 9.68219C2.03395 10.1523 2.22641 10.5977 2.54998 10.9398L10.55 19.3798C10.737 19.5761 10.962 19.7322 11.2113 19.8388C11.4606 19.9454 11.7289 20.0002 12 19.9998C12.2711 20.0002 12.5394 19.9454 12.7887 19.8388C13.0379 19.7322 13.2629 19.5761 13.45 19.3798L21.45 10.9398C21.7761 10.597 21.9702 10.1497 21.9977 9.67733C22.0251 9.20495 21.8842 8.73814 21.6 8.35984Z" fill="currentColor"/>
  </symbol>
  <symbol id="ic_wifi_locked" viewBox="0 0 24 24">
    <path d="M12.15 17H12C11.7244 16.9974 11.4534 17.0708 11.2168 17.2121C10.9802 17.3533 10.787 17.5571 10.6586 17.8009C10.5302 18.0448 10.4714 18.3193 10.4887 18.5943C10.5061 18.8694 10.5989 19.1344 10.7569 19.3601C10.915 19.5859 11.1322 19.7638 11.3847 19.8742C11.6372 19.9847 11.9152 20.0234 12.1883 19.9862C12.4614 19.949 12.7189 19.8373 12.9327 19.6633C13.1464 19.4893 13.3081 19.2598 13.4 19C12.7918 18.4741 12.3562 17.7772 12.15 17ZM12 13C10.7063 12.9993 9.44705 13.4167 8.40996 14.19C8.19779 14.3491 8.05752 14.586 8.02001 14.8486C7.98251 15.1111 8.05083 15.3778 8.20996 15.59C8.36909 15.8022 8.60599 15.9425 8.86854 15.98C9.13109 16.0175 9.39779 15.9491 9.60996 15.79C10.3009 15.2763 11.139 14.9993 12 15V13ZM12.14 11C12.3027 10.3686 12.6148 9.7856 13.05 9.30001C13.05 9.22001 13.05 9.14001 13.05 9.06001C11.6996 8.90464 10.3316 9.03249 9.03336 9.43539C7.73513 9.83829 6.53514 10.5074 5.50996 11.4C5.3084 11.5724 5.18357 11.8178 5.16294 12.0822C5.14232 12.3467 5.22757 12.6084 5.39996 12.81C5.57236 13.0116 5.81776 13.1364 6.08218 13.157C6.34661 13.1777 6.6084 13.0924 6.80996 12.92C8.25648 11.683 10.0966 11.0022 12 11H12.14ZM21 10.28V10C21 9.20436 20.6839 8.4413 20.1213 7.87869C19.5587 7.31608 18.7956 7.00001 18 7.00001C17.2043 7.00001 16.4413 7.31608 15.8786 7.87869C15.316 8.4413 15 9.20436 15 10V10.28C14.6977 10.4545 14.4463 10.7051 14.2709 11.0068C14.0955 11.3086 14.0021 11.651 14 12V16C14 16.5304 14.2107 17.0391 14.5858 17.4142C14.9608 17.7893 15.4695 18 16 18H20C20.5304 18 21.0391 17.7893 21.4142 17.4142C21.7893 17.0391 22 16.5304 22 16V12C21.9979 11.651 21.9044 11.3086 21.729 11.0068C21.5536 10.7051 21.3022 10.4545 21 10.28ZM18 15C17.8022 15 17.6088 14.9414 17.4444 14.8315C17.2799 14.7216 17.1518 14.5654 17.0761 14.3827C17.0004 14.2 16.9806 13.9989 17.0192 13.8049C17.0578 13.6109 17.153 13.4328 17.2929 13.2929C17.4327 13.153 17.6109 13.0578 17.8049 13.0192C17.9989 12.9806 18.1999 13.0004 18.3826 13.0761C18.5654 13.1518 18.7216 13.28 18.8314 13.4444C18.9413 13.6089 19 13.8022 19 14C19 14.2652 18.8946 14.5196 18.7071 14.7071C18.5195 14.8947 18.2652 15 18 15ZM17 10C17 9.73479 17.1053 9.48044 17.2929 9.2929C17.4804 9.10537 17.7347 9.00001 18 9.00001C18.2652 9.00001 18.5195 9.10537 18.7071 9.2929C18.8946 9.48044 19 9.73479 19 10H17ZM15.8 5.53001C14.5642 5.177 13.2851 4.99861 12 5.00001C8.55069 5.00523 5.22475 6.28362 2.65996 8.59001C2.46238 8.7677 2.34347 9.01661 2.32941 9.28198C2.31534 9.54734 2.40727 9.80742 2.58496 10.005C2.76266 10.2026 3.01157 10.3215 3.27693 10.3356C3.5423 10.3496 3.80238 10.2577 3.99996 10.08C6.19344 8.09846 9.04398 7.001 12 7.00001C12.6398 7.00321 13.2785 7.05671 13.91 7.16001C14.3937 6.4671 15.0435 5.90665 15.8 5.53001Z" fill="currentColor"/>
  </symbol>
  <symbol id="ic_wifi_locked_0" viewBox="0 0 24 24">
    <path opacity="0.2" d="M12 13C10.7063 12.9993 9.44705 13.4167 8.40996 14.19C8.19779 14.3491 8.05752 14.586 8.02001 14.8486C7.98251 15.1111 8.05083 15.3778 8.20996 15.59C8.36909 15.8022 8.60599 15.9425 8.86854 15.98C9.13109 16.0175 9.39779 15.9491 9.60996 15.79C10.3009 15.2763 11.139 14.9993 12 15V13ZM12 5.00001C8.55069 5.00523 5.22475 6.28362 2.65996 8.59001C2.46238 8.7677 2.34347 9.01661 2.32941 9.28198C2.31534 9.54734 2.40727 9.80742 2.58496 10.005C2.76266 10.2026 3.01157 10.3215 3.27693 10.3356C3.5423 10.3496 3.80238 10.2577 3.99996 10.08C6.19344 8.09846 9.04398 7.001 12 7.00001C12.6398 7.00321 13.2785 7.05671 13.91 7.16001C14.3937 6.4671 15.0435 5.90665 15.8 5.53001C14.5642 5.177 13.2851 4.99861 12 5.00001ZM12.14 11C12.3027 10.3686 12.6148 9.7856 13.05 9.30001C13.05 9.22001 13.05 9.14001 13.05 9.06001C11.6996 8.90464 10.3316 9.03249 9.03336 9.43539C7.73513 9.83829 6.53514 10.5074 5.50996 11.4C5.3084 11.5724 5.18357 11.8178 5.16294 12.0822C5.14232 12.3467 5.22757 12.6084 5.39996 12.81C5.57236 13.0116 5.81776 13.1364 6.08218 13.157C6.34661 13.1777 6.6084 13.0924 6.80996 12.92C8.25648 11.683 10.0966 11.0022 12 11H12.14ZM12.14 17H12C11.7244 16.9974 11.4534 17.0708 11.2168 17.2121C10.9802 17.3533 10.787 17.5571 10.6586 17.8009C10.5302 18.0448 10.4714 18.3193 10.4887 18.5943C10.5061 18.8694 10.5989 19.1344 10.7569 19.3601C10.915 19.5859 11.1322 19.7638 11.3847 19.8742C11.6372 19.9847 11.9152 20.0234 12.1883 19.9862C12.4614 19.949 12.7189 19.8373 12.9327 19.6633C13.1464 19.4893 13.3081 19.2598 13.4 19C12.7918 18.4741 12.3562 17.7772 12.15 17H12.14Z" fill="currentColor"/>
<path d="M21 10.28V10C21 9.20435 20.6839 8.44129 20.1213 7.87868C19.5587 7.31607 18.7956 7 18 7C17.2044 7 16.4413 7.31607 15.8787 7.87868C15.3161 8.44129 15 9.20435 15 10V10.28C14.6977 10.4545 14.4464 10.7051 14.2709 11.0068C14.0955 11.3086 14.0021 11.651 14 12V16C14 16.5304 14.2107 17.0391 14.5858 17.4142C14.9609 17.7893 15.4696 18 16 18H20C20.5304 18 21.0391 17.7893 21.4142 17.4142C21.7893 17.0391 22 16.5304 22 16V12C21.9979 11.651 21.9045 11.3086 21.7291 11.0068C21.5536 10.7051 21.3023 10.4545 21 10.28ZM18 15C17.8022 15 17.6089 14.9414 17.4444 14.8315C17.28 14.7216 17.1518 14.5654 17.0761 14.3827C17.0004 14.2 16.9806 13.9989 17.0192 13.8049C17.0578 13.6109 17.153 13.4327 17.2929 13.2929C17.4327 13.153 17.6109 13.0578 17.8049 13.0192C17.9989 12.9806 18.2 13.0004 18.3827 13.0761C18.5654 13.1518 18.7216 13.28 18.8315 13.4444C18.9414 13.6089 19 13.8022 19 14C19 14.2652 18.8946 14.5196 18.7071 14.7071C18.5196 14.8946 18.2652 15 18 15ZM17 10C17 9.73478 17.1054 9.48043 17.2929 9.29289C17.4804 9.10536 17.7348 9 18 9C18.2652 9 18.5196 9.10536 18.7071 9.29289C18.8946 9.48043 19 9.73478 19 10H17Z" fill="currentColor"/>
  </symbol>
  <symbol id="ic_wifi_locked_1" viewBox="0 0 24 24">
    <path opacity="0.2" d="M12 13C10.7063 12.9993 9.44705 13.4167 8.40996 14.19C8.19779 14.3491 8.05752 14.586 8.02001 14.8486C7.98251 15.1111 8.05083 15.3778 8.20996 15.59C8.36909 15.8022 8.60599 15.9425 8.86854 15.98C9.13109 16.0175 9.39779 15.9491 9.60996 15.79C10.3009 15.2763 11.139 14.9993 12 15V13ZM12 5.00001C8.55069 5.00523 5.22475 6.28362 2.65996 8.59001C2.46238 8.7677 2.34347 9.01661 2.32941 9.28198C2.31534 9.54734 2.40727 9.80742 2.58496 10.005C2.76266 10.2026 3.01157 10.3215 3.27693 10.3356C3.5423 10.3496 3.80238 10.2577 3.99996 10.08C6.19344 8.09846 9.04398 7.001 12 7.00001C12.6398 7.00321 13.2785 7.05671 13.91 7.16001C14.3937 6.4671 15.0435 5.90665 15.8 5.53001C14.5642 5.177 13.2851 4.99861 12 5.00001ZM12.14 11C12.3027 10.3686 12.6148 9.7856 13.05 9.30001C13.05 9.22001 13.05 9.14001 13.05 9.06001C11.6996 8.90464 10.3316 9.03249 9.03336 9.43539C7.73513 9.83829 6.53514 10.5074 5.50996 11.4C5.3084 11.5724 5.18357 11.8178 5.16294 12.0822C5.14232 12.3467 5.22757 12.6084 5.39996 12.81C5.57236 13.0116 5.81776 13.1364 6.08218 13.157C6.34661 13.1777 6.6084 13.0924 6.80996 12.92C8.25648 11.683 10.0966 11.0022 12 11H12.14ZM12.14 17H12C11.7244 16.9974 11.4534 17.0708 11.2168 17.2121C10.9802 17.3533 10.787 17.5571 10.6586 17.8009C10.5302 18.0448 10.4714 18.3193 10.4887 18.5943C10.5061 18.8694 10.5989 19.1344 10.7569 19.3601C10.915 19.5859 11.1322 19.7638 11.3847 19.8742C11.6372 19.9847 11.9152 20.0234 12.1883 19.9862C12.4614 19.949 12.7189 19.8373 12.9327 19.6633C13.1464 19.4893 13.3081 19.2598 13.4 19C12.7918 18.4741 12.3562 17.7772 12.15 17H12.14Z" fill="currentColor"/>
<path d="M12.15 17H12C11.7244 16.9974 11.4535 17.0708 11.2168 17.212C10.9802 17.3533 10.7871 17.5571 10.6587 17.8009C10.5302 18.0448 10.4715 18.3193 10.4888 18.5943C10.5062 18.8694 10.5989 19.1343 10.757 19.3601C10.915 19.5859 11.1322 19.7638 11.3847 19.8742C11.6372 19.9847 11.9153 20.0234 12.1884 19.9862C12.4614 19.949 12.719 19.8373 12.9327 19.6633C13.1465 19.4893 13.3082 19.2598 13.4 19C12.7918 18.4741 12.3562 17.7771 12.15 17ZM21 10.28V10C21 9.20435 20.684 8.44129 20.1214 7.87868C19.5587 7.31607 18.7957 7 18 7C17.2044 7 16.4413 7.31607 15.8787 7.87868C15.3161 8.44129 15 9.20435 15 10V10.28C14.6978 10.4545 14.4464 10.7051 14.271 11.0068C14.0955 11.3086 14.0021 11.651 14 12V16C14 16.5304 14.2107 17.0391 14.5858 17.4142C14.9609 17.7893 15.4696 18 16 18H20C20.5305 18 21.0392 17.7893 21.4142 17.4142C21.7893 17.0391 22 16.5304 22 16V12C21.9979 11.651 21.9045 11.3086 21.7291 11.0068C21.5537 10.7051 21.3023 10.4545 21 10.28ZM18 15C17.8022 15 17.6089 14.9414 17.4445 14.8315C17.28 14.7216 17.1518 14.5654 17.0762 14.3827C17.0005 14.2 16.9807 13.9989 17.0192 13.8049C17.0578 13.6109 17.1531 13.4327 17.2929 13.2929C17.4328 13.153 17.611 13.0578 17.8049 13.0192C17.9989 12.9806 18.2 13.0004 18.3827 13.0761C18.5654 13.1518 18.7216 13.28 18.8315 13.4444C18.9414 13.6089 19 13.8022 19 14C19 14.2652 18.8947 14.5196 18.7071 14.7071C18.5196 14.8946 18.2652 15 18 15ZM17 10C17 9.73478 17.1054 9.48043 17.2929 9.29289C17.4805 9.10536 17.7348 9 18 9C18.2652 9 18.5196 9.10536 18.7071 9.29289C18.8947 9.48043 19 9.73478 19 10H17Z" fill="currentColor"/>
  </symbol>
  <symbol id="ic_wifi_locked_2" viewBox="0 0 24 24">
    <path opacity="0.2" d="M12 13C10.7063 12.9993 9.44705 13.4167 8.40996 14.19C8.19779 14.3491 8.05752 14.586 8.02001 14.8486C7.98251 15.1111 8.05083 15.3778 8.20996 15.59C8.36909 15.8022 8.60599 15.9425 8.86854 15.98C9.13109 16.0175 9.39779 15.9491 9.60996 15.79C10.3009 15.2763 11.139 14.9993 12 15V13ZM12 5.00001C8.55069 5.00523 5.22475 6.28362 2.65996 8.59001C2.46238 8.7677 2.34347 9.01661 2.32941 9.28198C2.31534 9.54734 2.40727 9.80742 2.58496 10.005C2.76266 10.2026 3.01157 10.3215 3.27693 10.3356C3.5423 10.3496 3.80238 10.2577 3.99996 10.08C6.19344 8.09846 9.04398 7.001 12 7.00001C12.6398 7.00321 13.2785 7.05671 13.91 7.16001C14.3937 6.4671 15.0435 5.90665 15.8 5.53001C14.5642 5.177 13.2851 4.99861 12 5.00001ZM12.14 11C12.3027 10.3686 12.6148 9.7856 13.05 9.30001C13.05 9.22001 13.05 9.14001 13.05 9.06001C11.6996 8.90464 10.3316 9.03249 9.03336 9.43539C7.73513 9.83829 6.53514 10.5074 5.50996 11.4C5.3084 11.5724 5.18357 11.8178 5.16294 12.0822C5.14232 12.3467 5.22757 12.6084 5.39996 12.81C5.57236 13.0116 5.81776 13.1364 6.08218 13.157C6.34661 13.1777 6.6084 13.0924 6.80996 12.92C8.25648 11.683 10.0966 11.0022 12 11H12.14ZM12.14 17H12C11.7244 16.9974 11.4534 17.0708 11.2168 17.2121C10.9802 17.3533 10.787 17.5571 10.6586 17.8009C10.5302 18.0448 10.4714 18.3193 10.4887 18.5943C10.5061 18.8694 10.5989 19.1344 10.7569 19.3601C10.915 19.5859 11.1322 19.7638 11.3847 19.8742C11.6372 19.9847 11.9152 20.0234 12.1883 19.9862C12.4614 19.949 12.7189 19.8373 12.9327 19.6633C13.1464 19.4893 13.3081 19.2598 13.4 19C12.7918 18.4741 12.3562 17.7772 12.15 17H12.14Z" fill="currentColor"/>
<path d="M11.99 13C10.6963 12.9993 9.43709 13.4167 8.4 14.19C8.18783 14.3491 8.04756 14.586 8.01005 14.8486C7.97255 15.1111 8.04087 15.3778 8.2 15.59C8.35913 15.8022 8.59603 15.9424 8.85858 15.9799C9.12113 16.0175 9.38783 15.9491 9.6 15.79C10.2909 15.2763 11.1291 14.9993 11.99 15V13ZM12.14 17H11.99C11.7144 16.9974 11.4434 17.0708 11.2068 17.212C10.9702 17.3533 10.7771 17.5571 10.6486 17.8009C10.5202 18.0448 10.4614 18.3193 10.4788 18.5943C10.4961 18.8694 10.5889 19.1343 10.747 19.3601C10.905 19.5859 11.1222 19.7638 11.3747 19.8742C11.6272 19.9847 11.9053 20.0234 12.1783 19.9862C12.4514 19.949 12.7089 19.8373 12.9227 19.6633C13.1364 19.4893 13.2981 19.2598 13.39 19C12.7818 18.4741 12.3462 17.7771 12.14 17ZM20.99 10.28V10C20.99 9.20435 20.6739 8.44129 20.1113 7.87868C19.5487 7.31607 18.7857 7 17.99 7C17.1944 7 16.4313 7.31607 15.8687 7.87868C15.3061 8.44129 14.99 9.20435 14.99 10V10.28C14.6877 10.4545 14.4364 10.7051 14.261 11.0068C14.0855 11.3086 13.9921 11.651 13.99 12V16C13.99 16.5304 14.2007 17.0391 14.5758 17.4142C14.9509 17.7893 15.4596 18 15.99 18H19.99C20.5204 18 21.0291 17.7893 21.4042 17.4142C21.7793 17.0391 21.99 16.5304 21.99 16V12C21.9879 11.651 21.8945 11.3086 21.7191 11.0068C21.5436 10.7051 21.2923 10.4545 20.99 10.28ZM17.99 15C17.7922 15 17.5989 14.9414 17.4344 14.8315C17.27 14.7216 17.1418 14.5654 17.0661 14.3827C16.9904 14.2 16.9706 13.9989 17.0092 13.8049C17.0478 13.6109 17.143 13.4327 17.2829 13.2929C17.4227 13.153 17.6009 13.0578 17.7949 13.0192C17.9889 12.9806 18.19 13.0004 18.3727 13.0761C18.5554 13.1518 18.7116 13.28 18.8215 13.4444C18.9314 13.6089 18.99 13.8022 18.99 14C18.99 14.2652 18.8846 14.5196 18.6971 14.7071C18.5096 14.8946 18.2552 15 17.99 15ZM16.99 10C16.99 9.73478 17.0954 9.48043 17.2829 9.29289C17.4704 9.10536 17.7248 9 17.99 9C18.2552 9 18.5096 9.10536 18.6971 9.29289C18.8846 9.48043 18.99 9.73478 18.99 10H16.99Z" fill="currentColor"/>
  </symbol>
  <symbol id="ic_wifi_locked_3" viewBox="0 0 24 24">
    <path opacity="0.2" d="M12 13C10.7063 12.9993 9.44705 13.4167 8.40996 14.19C8.19779 14.3491 8.05752 14.586 8.02001 14.8486C7.98251 15.1111 8.05083 15.3778 8.20996 15.59C8.36909 15.8022 8.60599 15.9425 8.86854 15.98C9.13109 16.0175 9.39779 15.9491 9.60996 15.79C10.3009 15.2763 11.139 14.9993 12 15V13ZM12 5.00001C8.55069 5.00523 5.22475 6.28362 2.65996 8.59001C2.46238 8.7677 2.34347 9.01661 2.32941 9.28198C2.31534 9.54734 2.40727 9.80742 2.58496 10.005C2.76266 10.2026 3.01157 10.3215 3.27693 10.3356C3.5423 10.3496 3.80238 10.2577 3.99996 10.08C6.19344 8.09846 9.04398 7.001 12 7.00001C12.6398 7.00321 13.2785 7.05671 13.91 7.16001C14.3937 6.4671 15.0435 5.90665 15.8 5.53001C14.5642 5.177 13.2851 4.99861 12 5.00001ZM12.14 11C12.3027 10.3686 12.6148 9.7856 13.05 9.30001C13.05 9.22001 13.05 9.14001 13.05 9.06001C11.6996 8.90464 10.3316 9.03249 9.03336 9.43539C7.73513 9.83829 6.53514 10.5074 5.50996 11.4C5.3084 11.5724 5.18357 11.8178 5.16294 12.0822C5.14232 12.3467 5.22757 12.6084 5.39996 12.81C5.57236 13.0116 5.81776 13.1364 6.08218 13.157C6.34661 13.1777 6.6084 13.0924 6.80996 12.92C8.25648 11.683 10.0966 11.0022 12 11H12.14ZM12.14 17H12C11.7244 16.9974 11.4534 17.0708 11.2168 17.2121C10.9802 17.3533 10.787 17.5571 10.6586 17.8009C10.5302 18.0448 10.4714 18.3193 10.4887 18.5943C10.5061 18.8694 10.5989 19.1344 10.7569 19.3601C10.915 19.5859 11.1322 19.7638 11.3847 19.8742C11.6372 19.9847 11.9152 20.0234 12.1883 19.9862C12.4614 19.949 12.7189 19.8373 12.9327 19.6633C13.1464 19.4893 13.3081 19.2598 13.4 19C12.7918 18.4741 12.3562 17.7772 12.15 17H12.14Z" fill="currentColor"/>
<path d="M12.14 11C12.3027 10.3686 12.6148 9.78559 13.05 9.3C13.05 9.22 13.05 9.14 13.05 9.06C11.6996 8.90464 10.3316 9.03248 9.03336 9.43538C7.73513 9.83828 6.53514 10.5074 5.50996 11.4C5.3084 11.5724 5.18357 11.8178 5.16294 12.0822C5.14231 12.3466 5.22757 12.6084 5.39996 12.81C5.57236 13.0116 5.81776 13.1364 6.08218 13.157C6.34661 13.1776 6.6084 13.0924 6.80996 12.92C8.25648 11.683 10.0966 11.0022 12 11H12.14ZM12 13C10.7063 12.9993 9.44705 13.4167 8.40996 14.19C8.19779 14.3491 8.05752 14.586 8.02001 14.8486C7.98251 15.1111 8.05083 15.3778 8.20996 15.59C8.36909 15.8022 8.60599 15.9424 8.86854 15.9799C9.13109 16.0175 9.39779 15.9491 9.60996 15.79C10.3009 15.2763 11.139 14.9993 12 15V13ZM21 10.26V10C21 9.20435 20.6839 8.44129 20.1213 7.87868C19.5587 7.31607 18.7956 7 18 7C17.2043 7 16.4413 7.31607 15.8786 7.87868C15.316 8.44129 15 9.20435 15 10V10.28C14.6977 10.4545 14.4463 10.7051 14.2709 11.0068C14.0955 11.3086 14.0021 11.651 14 12V16C14 16.5304 14.2107 17.0391 14.5858 17.4142C14.9608 17.7893 15.4695 18 16 18H20C20.5304 18 21.0391 17.7893 21.4142 17.4142C21.7892 17.0391 22 16.5304 22 16V12C21.9979 11.651 21.9044 11.3086 21.729 11.0068C21.5536 10.7051 21.3022 10.4545 21 10.28V10.26ZM18 15C17.8022 15 17.6088 14.9414 17.4444 14.8315C17.2799 14.7216 17.1518 14.5654 17.0761 14.3827C17.0004 14.2 16.9806 13.9989 17.0192 13.8049C17.0578 13.6109 17.153 13.4327 17.2929 13.2929C17.4327 13.153 17.6109 13.0578 17.8049 13.0192C17.9989 12.9806 18.1999 13.0004 18.3826 13.0761C18.5654 13.1518 18.7216 13.28 18.8314 13.4444C18.9413 13.6089 19 13.8022 19 14C19 14.2652 18.8946 14.5196 18.7071 14.7071C18.5195 14.8946 18.2652 15 18 15ZM17 10C17 9.73478 17.1053 9.48043 17.2929 9.29289C17.4804 9.10536 17.7347 9 18 9C18.2652 9 18.5195 9.10536 18.7071 9.29289C18.8946 9.48043 19 9.73478 19 10H17ZM12.15 17H12C11.7244 16.9974 11.4534 17.0708 11.2168 17.212C10.9802 17.3533 10.787 17.5571 10.6586 17.8009C10.5302 18.0448 10.4714 18.3193 10.4887 18.5943C10.5061 18.8694 10.5989 19.1343 10.7569 19.3601C10.915 19.5859 11.1322 19.7638 11.3847 19.8742C11.6372 19.9847 11.9152 20.0234 12.1883 19.9862C12.4614 19.949 12.7189 19.8373 12.9327 19.6633C13.1464 19.4893 13.3081 19.2598 13.4 19C12.7918 18.4741 12.3562 17.7771 12.15 17Z" fill="currentColor"/>
  </symbol>
  <symbol id="ic_wifi_network" viewBox="0 0 24 24">
    <path d="M21.6 8.35984C20.4194 6.97124 18.9468 5.86044 17.2873 5.10676C15.6279 4.35308 13.8224 3.97511 12 3.99985C10.1756 3.96861 8.36715 4.34467 6.70644 5.10064C5.04573 5.85661 3.57453 6.97346 2.39998 8.36984C2.11841 8.74733 1.97907 9.21206 2.00651 9.68219C2.03395 10.1523 2.22641 10.5977 2.54998 10.9398L10.55 19.3798C10.737 19.5761 10.962 19.7322 11.2113 19.8388C11.4606 19.9454 11.7289 20.0002 12 19.9998C12.2711 20.0002 12.5394 19.9454 12.7887 19.8388C13.0379 19.7322 13.2629 19.5761 13.45 19.3798L13.57 19.2498C13.2025 18.5563 13.007 17.7847 13 16.9998C13 15.6738 13.5268 14.402 14.4644 13.4643C15.4021 12.5266 16.6739 11.9998 18 11.9998C18.6901 12.0049 19.3715 12.1548 20 12.4398L21.42 10.9398C21.7506 10.6007 21.9502 10.1553 21.9831 9.68285C22.0161 9.2104 21.8803 8.74157 21.6 8.35984ZM20 15.9998H19V14.9998C19 14.7346 18.8946 14.4803 18.7071 14.2927C18.5196 14.1052 18.2652 13.9998 18 13.9998C17.7348 13.9998 17.4804 14.1052 17.2929 14.2927C17.1053 14.4803 17 14.7346 17 14.9998V15.9998H16C15.7348 15.9998 15.4804 16.1052 15.2929 16.2927C15.1053 16.4803 15 16.7346 15 16.9998C15 17.2651 15.1053 17.5194 15.2929 17.707C15.4804 17.8945 15.7348 17.9998 16 17.9998H17V18.9998C17 19.2651 17.1053 19.5194 17.2929 19.707C17.4804 19.8945 17.7348 19.9998 18 19.9998C18.2652 19.9998 18.5196 19.8945 18.7071 19.707C18.8946 19.5194 19 19.2651 19 18.9998V17.9998H20C20.2652 17.9998 20.5196 17.8945 20.7071 17.707C20.8946 17.5194 21 17.2651 21 16.9998C21 16.7346 20.8946 16.4803 20.7071 16.2927C20.5196 16.1052 20.2652 15.9998 20 15.9998Z" fill="currentColor"/>
  </symbol>
  <symbol id="ic_wifi_no_internet" viewBox="0 0 24 24">
    <path d="M20.12 14.8798C19.9326 14.6936 19.6792 14.5891 19.415 14.5891C19.1508 14.5891 18.8973 14.6936 18.71 14.8798L18 15.5898L17.29 14.8798C17.0987 14.716 16.8526 14.6304 16.6009 14.6401C16.3493 14.6499 16.1105 14.7542 15.9324 14.9323C15.7543 15.1104 15.65 15.3491 15.6403 15.6008C15.6305 15.8525 15.7162 16.0985 15.88 16.2898L16.59 16.9998L15.88 17.7098C15.7162 17.9011 15.6305 18.1472 15.6403 18.3989C15.65 18.6506 15.7543 18.8893 15.9324 19.0674C16.1105 19.2455 16.3493 19.3498 16.6009 19.3596C16.8526 19.3693 17.0987 19.2837 17.29 19.1198L18 18.4098L18.71 19.1198C18.9013 19.2837 19.1474 19.3693 19.399 19.3596C19.6507 19.3498 19.8895 19.2455 20.0675 19.0674C20.2456 18.8893 20.35 18.6506 20.3597 18.3989C20.3694 18.1472 20.2838 17.9011 20.12 17.7098L19.41 16.9998L20.12 16.2898C20.3062 16.1025 20.4108 15.849 20.4108 15.5848C20.4108 15.3207 20.3062 15.0672 20.12 14.8798ZM21.6 8.35984C20.4194 6.97124 18.9468 5.86044 17.2873 5.10676C15.6279 4.35308 13.8224 3.97511 12 3.99985C10.1756 3.96861 8.36715 4.34467 6.70644 5.10064C5.04573 5.85661 3.57453 6.97346 2.39998 8.36984C2.11841 8.74733 1.97907 9.21206 2.00651 9.68219C2.03395 10.1523 2.22641 10.5977 2.54998 10.9398L10.55 19.3798C10.737 19.5761 10.962 19.7322 11.2113 19.8388C11.4606 19.9454 11.7289 20.0002 12 19.9998C12.2711 20.0002 12.5394 19.9454 12.7887 19.8388C13.0379 19.7322 13.2629 19.5761 13.45 19.3798L13.57 19.2498C13.2025 18.5563 13.007 17.7847 13 16.9998C13 15.6738 13.5268 14.402 14.4644 13.4643C15.4021 12.5266 16.6739 11.9998 18 11.9998C18.6901 12.0049 19.3715 12.1548 20 12.4398L21.42 10.9398C21.7506 10.6007 21.9502 10.1553 21.9831 9.68285C22.0161 9.2104 21.8803 8.74157 21.6 8.35984Z" fill="currentColor"/>
  </symbol>
  <symbol id="ic_wifi_not_found" viewBox="0 0 24 24">
    <path d="M18 19.9998C17.8022 19.9998 17.6089 20.0585 17.4444 20.1684C17.28 20.2783 17.1518 20.4344 17.0761 20.6172C17.0004 20.7999 16.9806 21.001 17.0192 21.1949C17.0578 21.3889 17.153 21.5671 17.2929 21.707C17.4327 21.8468 17.6109 21.942 17.8049 21.9806C17.9989 22.0192 18.1999 21.9994 18.3827 21.9237C18.5654 21.848 18.7216 21.7199 18.8315 21.5554C18.9413 21.391 19 21.1976 19 20.9998C19 20.7346 18.8946 20.4803 18.7071 20.2927C18.5196 20.1052 18.2652 19.9998 18 19.9998ZM17.5 13.9998C17.2348 13.9998 16.9804 14.1052 16.7929 14.2927C16.6053 14.4803 16.5 14.7346 16.5 14.9998C16.5 15.2651 16.6053 15.5194 16.7929 15.707C16.9804 15.8945 17.2348 15.9998 17.5 15.9998C17.6326 15.9998 17.7598 16.0525 17.8535 16.1463C17.9473 16.2401 18 16.3672 18 16.4998C18 16.6325 17.9473 16.7596 17.8535 16.8534C17.7598 16.9472 17.6326 16.9998 17.5 16.9998C17.2348 16.9998 16.9804 17.1052 16.7929 17.2927C16.6053 17.4803 16.5 17.7346 16.5 17.9998C16.5 18.2651 16.6053 18.5194 16.7929 18.707C16.9804 18.8945 17.2348 18.9998 17.5 18.9998C18.163 18.9998 18.7989 18.7365 19.2677 18.2676C19.7366 17.7988 20 17.1629 20 16.4998C20 15.8368 19.7366 15.2009 19.2677 14.7321C18.7989 14.2632 18.163 13.9998 17.5 13.9998ZM21.6 8.35984C20.4194 6.97124 18.9468 5.86044 17.2873 5.10676C15.6279 4.35308 13.8224 3.97511 12 3.99985C10.1756 3.96861 8.36715 4.34467 6.70644 5.10064C5.04573 5.85661 3.57453 6.97346 2.39998 8.36984C2.11841 8.74733 1.97907 9.21206 2.00651 9.68219C2.03395 10.1523 2.22641 10.5977 2.54998 10.9398L10.55 19.3798C10.737 19.5761 10.962 19.7322 11.2113 19.8388C11.4606 19.9454 11.7289 20.0002 12 19.9998C12.2711 20.0002 12.5394 19.9454 12.7887 19.8388C13.0379 19.7322 13.2629 19.5761 13.45 19.3798L13.57 19.2498C13.2025 18.5563 13.007 17.7847 13 16.9998C13 15.6738 13.5268 14.402 14.4644 13.4643C15.4021 12.5266 16.6739 11.9998 18 11.9998C18.6901 12.0049 19.3715 12.1548 20 12.4398L21.42 10.9398C21.7506 10.6007 21.9502 10.1553 21.9831 9.68285C22.0161 9.2104 21.8803 8.74157 21.6 8.35984Z" fill="currentColor"/>
  </symbol>
  <symbol id="ic_wifi_off" viewBox="0 0 24 24">
    <path d="M5.40009 12.8098C5.48544 12.9096 5.58962 12.9916 5.70668 13.0511C5.82373 13.1107 5.95137 13.1466 6.0823 13.1568C6.21324 13.167 6.3449 13.1513 6.46977 13.1107C6.59465 13.07 6.71029 13.0051 6.81009 12.9198L6.93009 12.8198L10.6601 9.09976C8.75922 9.35966 6.97232 10.1577 5.51009 11.3998C5.41028 11.4851 5.32826 11.5893 5.26871 11.7064C5.20917 11.8234 5.17326 11.951 5.16305 12.082C5.15283 12.2129 5.16851 12.3446 5.20918 12.4694C5.24985 12.5943 5.31472 12.71 5.40009 12.8098ZM4.00009 10.0798C6.19356 8.09821 9.0441 7.00075 12.0001 6.99976H12.7201L14.5301 5.19976C13.6944 5.05803 12.8477 4.9911 12.0001 4.99976C8.55081 5.00499 5.22487 6.28337 2.66009 8.58976C2.4625 8.76746 2.3436 9.01636 2.32953 9.28173C2.31547 9.54709 2.40739 9.80717 2.58509 10.0048C2.76278 10.2023 3.01169 10.3213 3.27705 10.3353C3.54242 10.3494 3.8025 10.2575 4.00009 10.0798ZM21.3401 8.58976C20.538 7.87336 19.6554 7.25253 18.7101 6.73976L20.4901 4.99976C20.5879 4.90193 20.6655 4.78578 20.7185 4.65795C20.7714 4.53012 20.7987 4.39312 20.7987 4.25476C20.7987 4.1164 20.7714 3.9794 20.7185 3.85157C20.6655 3.72374 20.5879 3.6076 20.4901 3.50976C20.3923 3.41193 20.2761 3.33432 20.1483 3.28137C20.0205 3.22842 19.8834 3.20117 19.7451 3.20117C19.6067 3.20117 19.4697 3.22842 19.3419 3.28137C19.2141 3.33432 19.0979 3.41193 19.0001 3.50976L3.51009 18.9998C3.41225 19.0976 3.33465 19.2137 3.2817 19.3416C3.22875 19.4694 3.2015 19.6064 3.2015 19.7448C3.2015 19.8831 3.22875 20.0201 3.2817 20.148C3.33465 20.2758 3.41225 20.3919 3.51009 20.4898C3.70767 20.6873 3.97566 20.7984 4.25509 20.7984C4.39345 20.7984 4.53045 20.7711 4.65828 20.7182C4.78611 20.6652 4.90225 20.5876 5.00009 20.4898L9.70009 15.7798C10.3861 15.2769 11.2145 15.0057 12.0651 15.0057C12.9157 15.0057 13.7441 15.2769 14.4301 15.7798C14.6032 15.9096 14.8137 15.9798 15.0301 15.9798C15.1853 15.9798 15.3384 15.9436 15.4773 15.8742C15.6162 15.8048 15.7369 15.704 15.8301 15.5798C15.9089 15.4747 15.9662 15.3552 15.9988 15.2279C16.0314 15.1007 16.0386 14.9683 16.02 14.8383C16.0015 14.7083 15.9575 14.5833 15.8906 14.4703C15.8237 14.3573 15.7351 14.2586 15.6301 14.1798C14.6978 13.4923 13.5864 13.0894 12.4301 13.0198L14.1901 11.2698C15.2949 11.5879 16.3181 12.1405 17.1901 12.8898C17.3917 13.0622 17.6534 13.1474 17.9179 13.1268C18.1823 13.1062 18.4277 12.9813 18.6001 12.7798C18.7725 12.5782 18.8577 12.3164 18.8371 12.052C18.8165 11.7876 18.6917 11.5422 18.4901 11.3698C17.6621 10.6633 16.7227 10.099 15.7101 9.69976L17.2301 8.17976C18.2383 8.6794 19.1709 9.31906 20.0001 10.0798C20.185 10.2428 20.4236 10.3319 20.6701 10.3298C20.8096 10.3294 20.9476 10.2999 21.075 10.2431C21.2025 10.1862 21.3166 10.1034 21.4101 9.99976C21.5873 9.8033 21.6795 9.54458 21.6664 9.2803C21.6533 9.01601 21.5359 8.7677 21.3401 8.58976ZM12.0001 16.9998C11.7034 16.9998 11.4134 17.0877 11.1667 17.2526C10.9201 17.4174 10.7278 17.6516 10.6143 17.9257C10.5007 18.1998 10.471 18.5014 10.5289 18.7924C10.5868 19.0834 10.7296 19.3506 10.9394 19.5604C11.1492 19.7702 11.4165 19.9131 11.7075 19.9709C11.9984 20.0288 12.3 19.9991 12.5741 19.8856C12.8482 19.772 13.0825 19.5798 13.2473 19.3331C13.4121 19.0864 13.5001 18.7964 13.5001 18.4998C13.5001 18.1019 13.3421 17.7204 13.0607 17.4391C12.7794 17.1578 12.3979 16.9998 12.0001 16.9998Z" fill="currentColor"/>
  </symbol>
  <symbol id="ic_wifi_ok" viewBox="0 0 24 24">
    <path d="M18.29 15.2898L17 16.5898L16.71 16.2898C16.5217 16.1015 16.2663 15.9958 16 15.9958C15.7337 15.9958 15.4783 16.1015 15.29 16.2898C15.1017 16.4781 14.9959 16.7335 14.9959 16.9998C14.9959 17.2661 15.1017 17.5215 15.29 17.7098L16.29 18.7098C16.383 18.8036 16.4936 18.878 16.6155 18.9287C16.7373 18.9795 16.868 19.0056 17 19.0056C17.1321 19.0056 17.2628 18.9795 17.3846 18.9287C17.5065 18.878 17.6171 18.8036 17.71 18.7098L19.71 16.7098C19.8983 16.5215 20.0041 16.2661 20.0041 15.9998C20.0041 15.7335 19.8983 15.4781 19.71 15.2898C19.5217 15.1015 19.2663 14.9958 19 14.9958C18.7337 14.9958 18.4783 15.1015 18.29 15.2898ZM21.6 8.35984C20.4195 6.97124 18.9469 5.86044 17.2874 5.10676C15.6279 4.35308 13.8225 3.97511 12 3.99985C10.1756 3.96861 8.36722 4.34467 6.7065 5.10064C5.04579 5.85661 3.57459 6.97346 2.40004 8.36984C2.11847 8.74733 1.97913 9.21206 2.00657 9.68219C2.03401 10.1523 2.22647 10.5977 2.55004 10.9398L10.55 19.3798C10.7371 19.5761 10.9621 19.7322 11.2114 19.8388C11.4606 19.9454 11.7289 20.0002 12 19.9998C12.2711 20.0002 12.5395 19.9454 12.7887 19.8388C13.038 19.7322 13.263 19.5761 13.45 19.3798L13.57 19.2498C13.2026 18.5563 13.0071 17.7847 13 16.9998C13 15.6738 13.5268 14.402 14.4645 13.4643C15.4022 12.5266 16.674 11.9998 18 11.9998C18.6902 12.0049 19.3715 12.1548 20 12.4398L21.42 10.9398C21.7507 10.6007 21.9502 10.1553 21.9832 9.68285C22.0161 9.2104 21.8804 8.74157 21.6 8.35984Z" fill="currentColor"/>
  </symbol>
  <symbol id="ic_wifi_router" viewBox="0 0 24 24">
    <path d="M19.92 9.86C20.0731 9.95451 20.2501 10.0031 20.43 10C20.6035 9.99997 20.7741 9.95478 20.9249 9.86886C21.0757 9.78295 21.2015 9.65928 21.29 9.51C21.7505 8.75742 21.9942 7.89228 21.9942 7.01C21.9942 6.12772 21.7505 5.26258 21.29 4.51C21.1444 4.30979 20.9297 4.1707 20.6875 4.11965C20.4452 4.06861 20.1927 4.10923 19.9786 4.23366C19.7646 4.35808 19.6044 4.55748 19.5289 4.79325C19.4534 5.02902 19.468 5.28441 19.57 5.51C19.8441 5.95923 19.9926 6.4738 20 7C19.9926 7.5262 19.8441 8.04077 19.57 8.49C19.4348 8.7181 19.3957 8.99056 19.4613 9.24747C19.527 9.50438 19.6919 9.72471 19.92 9.86ZM19 12H18V5C18 4.73478 17.8946 4.48043 17.7071 4.29289C17.5196 4.10536 17.2652 4 17 4C16.7348 4 16.4804 4.10536 16.2929 4.29289C16.1054 4.48043 16 4.73478 16 5V12H5C4.20435 12 3.44129 12.3161 2.87868 12.8787C2.31607 13.4413 2 14.2044 2 15V17C2 17.7956 2.31607 18.5587 2.87868 19.1213C3.44129 19.6839 4.20435 20 5 20H19C19.7956 20 20.5587 19.6839 21.1213 19.1213C21.6839 18.5587 22 17.7956 22 17V15C22 14.2044 21.6839 13.4413 21.1213 12.8787C20.5587 12.3161 19.7956 12 19 12ZM6 17C5.80222 17 5.60888 16.9414 5.44443 16.8315C5.27998 16.7216 5.15181 16.5654 5.07612 16.3827C5.00043 16.2 4.98063 15.9989 5.01921 15.8049C5.0578 15.6109 5.15304 15.4327 5.29289 15.2929C5.43275 15.153 5.61093 15.0578 5.80491 15.0192C5.99889 14.9806 6.19996 15.0004 6.38268 15.0761C6.56541 15.1518 6.72159 15.28 6.83147 15.4444C6.94135 15.6089 7 15.8022 7 16C7 16.2652 6.89464 16.5196 6.70711 16.7071C6.51957 16.8946 6.26522 17 6 17ZM10 17C9.80222 17 9.60888 16.9414 9.44443 16.8315C9.27998 16.7216 9.15181 16.5654 9.07612 16.3827C9.00043 16.2 8.98063 15.9989 9.01921 15.8049C9.0578 15.6109 9.15304 15.4327 9.29289 15.2929C9.43275 15.153 9.61093 15.0578 9.80491 15.0192C9.99889 14.9806 10.2 15.0004 10.3827 15.0761C10.5654 15.1518 10.7216 15.28 10.8315 15.4444C10.9414 15.6089 11 15.8022 11 16C11 16.2652 10.8946 16.5196 10.7071 16.7071C10.5196 16.8946 10.2652 17 10 17ZM13.57 10C13.7499 10.0031 13.9269 9.95451 14.08 9.86C14.3081 9.72471 14.473 9.50438 14.5387 9.24747C14.6043 8.99056 14.5652 8.7181 14.43 8.49C14.1559 8.04077 14.0074 7.5262 14 7C14.0074 6.4738 14.1559 5.95923 14.43 5.51C14.532 5.28441 14.5466 5.02902 14.4711 4.79325C14.3956 4.55748 14.2354 4.35808 14.0214 4.23366C13.8073 4.10923 13.5548 4.06861 13.3125 4.11965C13.0703 4.1707 12.8556 4.30979 12.71 4.51C12.2495 5.26258 12.0058 6.12772 12.0058 7.01C12.0058 7.89228 12.2495 8.75742 12.71 9.51C12.7985 9.65928 12.9243 9.78295 13.0751 9.86886C13.2259 9.95478 13.3965 9.99997 13.57 10Z" fill="currentColor"/>
  </symbol>
  <symbol id="ic_wifi_sign_in_required" viewBox="0 0 24 24">
    <path d="M18 13.9998C17.7348 13.9998 17.4805 14.1052 17.2929 14.2927C17.1054 14.4803 17 14.7346 17 14.9998V16.9998C17 17.2651 17.1054 17.5194 17.2929 17.707C17.4805 17.8945 17.7348 17.9998 18 17.9998C18.2653 17.9998 18.5196 17.8945 18.7071 17.707C18.8947 17.5194 19 17.2651 19 16.9998V14.9998C19 14.7346 18.8947 14.4803 18.7071 14.2927C18.5196 14.1052 18.2653 13.9998 18 13.9998ZM18 18.9998C17.8023 18.9998 17.6089 19.0585 17.4445 19.1684C17.28 19.2783 17.1518 19.4344 17.0762 19.6172C17.0005 19.7999 16.9807 20.001 17.0193 20.1949C17.0578 20.3889 17.1531 20.5671 17.2929 20.707C17.4328 20.8468 17.611 20.942 17.8049 20.9806C17.9989 21.0192 18.2 20.9994 18.3827 20.9237C18.5655 20.848 18.7216 20.7199 18.8315 20.5554C18.9414 20.391 19 20.1976 19 19.9998C19 19.7346 18.8947 19.4803 18.7071 19.2927C18.5196 19.1052 18.2653 18.9998 18 18.9998ZM21.6 8.35984C20.4195 6.97124 18.9469 5.86044 17.2874 5.10676C15.6279 4.35308 13.8225 3.97511 12 3.99985C10.1756 3.96861 8.36722 4.34467 6.7065 5.10064C5.04579 5.85661 3.57459 6.97346 2.40004 8.36984C2.11847 8.74733 1.97913 9.21206 2.00657 9.68219C2.03401 10.1523 2.22647 10.5977 2.55004 10.9398L10.55 19.3798C10.7371 19.5761 10.9621 19.7322 11.2114 19.8388C11.4606 19.9454 11.7289 20.0002 12 19.9998C12.2711 20.0002 12.5395 19.9454 12.7887 19.8388C13.038 19.7322 13.263 19.5761 13.45 19.3798L13.57 19.2498C13.2026 18.5563 13.0071 17.7847 13 16.9998C13 15.6738 13.5268 14.402 14.4645 13.4643C15.4022 12.5266 16.674 11.9998 18 11.9998C18.6902 12.0049 19.3715 12.1548 20 12.4398L21.42 10.9398C21.7507 10.6007 21.9502 10.1553 21.9832 9.68285C22.0161 9.2104 21.8804 8.74157 21.6 8.35984Z" fill="currentColor"/>
  </symbol>
  <symbol id="ic_wifi_strength_0" viewBox="0 0 24 24">
    <path opacity="0.2" d="M21.34 8.5902C18.7785 6.27828 15.4505 4.99854 12 4.99854C8.54941 4.99854 5.22148 6.27828 2.65996 8.5902C2.46238 8.7679 2.34347 9.01681 2.32941 9.28217C2.31534 9.54753 2.40727 9.80762 2.58496 10.0052C2.76266 10.2028 3.01157 10.3217 3.27693 10.3358C3.5423 10.3498 3.80238 10.2579 3.99996 10.0802C6.19295 8.09787 9.04382 7.00034 12 7.00034C14.9561 7.00034 17.807 8.09787 20 10.0802C20.1848 10.2433 20.4235 10.3323 20.67 10.3302C20.8095 10.3299 20.9474 10.3003 21.0749 10.2435C21.2023 10.1867 21.3165 10.1038 21.41 10.0002C21.5872 9.80374 21.6794 9.54503 21.6663 9.28074C21.6531 9.01646 21.5358 8.76815 21.34 8.5902ZM12 17.0002C11.7033 17.0002 11.4133 17.0882 11.1666 17.253C10.9199 17.4178 10.7277 17.6521 10.6141 17.9262C10.5006 18.2003 10.4709 18.5019 10.5288 18.7928C10.5867 19.0838 10.7295 19.3511 10.9393 19.5609C11.1491 19.7706 11.4164 19.9135 11.7073 19.9714C11.9983 20.0293 12.2999 19.9996 12.574 19.886C12.8481 19.7725 13.0823 19.5802 13.2472 19.3336C13.412 19.0869 13.5 18.7969 13.5 18.5002C13.5 18.1024 13.3419 17.7208 13.0606 17.4395C12.7793 17.1582 12.3978 17.0002 12 17.0002ZM8.40996 14.2102C8.19779 14.3693 8.05752 14.6062 8.02001 14.8688C7.98251 15.1313 8.05083 15.398 8.20996 15.6102C8.36909 15.8224 8.60599 15.9626 8.86854 16.0002C9.13109 16.0377 9.39779 15.9693 9.60996 15.8102C10.3005 15.2956 11.1388 15.0177 12 15.0177C12.8612 15.0177 13.6994 15.2956 14.39 15.8102C14.5631 15.94 14.7736 16.0102 14.99 16.0102C15.1452 16.0102 15.2983 15.9741 15.4372 15.9046C15.576 15.8352 15.6968 15.7344 15.79 15.6102C15.8688 15.5051 15.9261 15.3856 15.9587 15.2584C15.9913 15.1312 15.9985 14.9988 15.9799 14.8688C15.9613 14.7388 15.9173 14.6137 15.8504 14.5007C15.7835 14.3877 15.695 14.289 15.59 14.2102C14.5532 13.436 13.2939 13.0177 12 13.0177C10.706 13.0177 9.44674 13.436 8.40996 14.2102ZM12 9.0002C9.61996 9.0024 7.31877 9.85338 5.50996 11.4002C5.3084 11.5726 5.18357 11.818 5.16294 12.0824C5.14232 12.3468 5.22757 12.6086 5.39996 12.8102C5.57236 13.0118 5.81776 13.1366 6.08218 13.1572C6.34661 13.1779 6.6084 13.0926 6.80996 12.9202C8.25762 11.6861 10.0977 11.0082 12 11.0082C13.9023 11.0082 15.7423 11.6861 17.19 12.9202C17.3915 13.0926 17.6533 13.1779 17.9177 13.1572C18.1822 13.1366 18.4276 13.0118 18.6 12.8102C18.7724 12.6086 18.8576 12.3468 18.837 12.0824C18.8164 11.818 18.6915 11.5726 18.49 11.4002C16.6812 9.85338 14.38 9.0024 12 9.0002Z" fill="currentColor"/>
  </symbol>
  <symbol id="ic_wifi_strength_1" viewBox="0 0 24 24">
    <path opacity="0.2" d="M21.34 8.5902C18.7785 6.27828 15.4505 4.99854 12 4.99854C8.54941 4.99854 5.22148 6.27828 2.65996 8.5902C2.46238 8.7679 2.34347 9.01681 2.32941 9.28217C2.31534 9.54753 2.40727 9.80762 2.58496 10.0052C2.76266 10.2028 3.01157 10.3217 3.27693 10.3358C3.5423 10.3498 3.80238 10.2579 3.99996 10.0802C6.19295 8.09787 9.04382 7.00034 12 7.00034C14.9561 7.00034 17.807 8.09787 20 10.0802C20.1848 10.2433 20.4235 10.3323 20.67 10.3302C20.8095 10.3299 20.9474 10.3003 21.0749 10.2435C21.2023 10.1867 21.3165 10.1038 21.41 10.0002C21.5872 9.80374 21.6794 9.54503 21.6663 9.28074C21.6531 9.01646 21.5358 8.76815 21.34 8.5902ZM12 17.0002C11.7033 17.0002 11.4133 17.0882 11.1666 17.253C10.9199 17.4178 10.7277 17.6521 10.6141 17.9262C10.5006 18.2003 10.4709 18.5019 10.5288 18.7928C10.5867 19.0838 10.7295 19.3511 10.9393 19.5609C11.1491 19.7706 11.4164 19.9135 11.7073 19.9714C11.9983 20.0293 12.2999 19.9996 12.574 19.886C12.8481 19.7725 13.0823 19.5802 13.2472 19.3336C13.412 19.0869 13.5 18.7969 13.5 18.5002C13.5 18.1024 13.3419 17.7208 13.0606 17.4395C12.7793 17.1582 12.3978 17.0002 12 17.0002ZM8.40996 14.2102C8.19779 14.3693 8.05752 14.6062 8.02001 14.8688C7.98251 15.1313 8.05083 15.398 8.20996 15.6102C8.36909 15.8224 8.60599 15.9626 8.86854 16.0002C9.13109 16.0377 9.39779 15.9693 9.60996 15.8102C10.3005 15.2956 11.1388 15.0177 12 15.0177C12.8612 15.0177 13.6994 15.2956 14.39 15.8102C14.5631 15.94 14.7736 16.0102 14.99 16.0102C15.1452 16.0102 15.2983 15.9741 15.4372 15.9046C15.576 15.8352 15.6968 15.7344 15.79 15.6102C15.8688 15.5051 15.9261 15.3856 15.9587 15.2584C15.9913 15.1312 15.9985 14.9988 15.9799 14.8688C15.9613 14.7388 15.9173 14.6137 15.8504 14.5007C15.7835 14.3877 15.695 14.289 15.59 14.2102C14.5532 13.436 13.2939 13.0177 12 13.0177C10.706 13.0177 9.44674 13.436 8.40996 14.2102ZM12 9.0002C9.61996 9.0024 7.31877 9.85338 5.50996 11.4002C5.3084 11.5726 5.18357 11.818 5.16294 12.0824C5.14232 12.3468 5.22757 12.6086 5.39996 12.8102C5.57236 13.0118 5.81776 13.1366 6.08218 13.1572C6.34661 13.1779 6.6084 13.0926 6.80996 12.9202C8.25762 11.6861 10.0977 11.0082 12 11.0082C13.9023 11.0082 15.7423 11.6861 17.19 12.9202C17.3915 13.0926 17.6533 13.1779 17.9177 13.1572C18.1822 13.1366 18.4276 13.0118 18.6 12.8102C18.7724 12.6086 18.8576 12.3468 18.837 12.0824C18.8164 11.818 18.6915 11.5726 18.49 11.4002C16.6812 9.85338 14.38 9.0024 12 9.0002Z" fill="currentColor"/>
<path d="M12 20C12.8284 20 13.5 19.3284 13.5 18.5C13.5 17.6716 12.8284 17 12 17C11.1716 17 10.5 17.6716 10.5 18.5C10.5 19.3284 11.1716 20 12 20Z" fill="currentColor"/>
  </symbol>
  <symbol id="ic_wifi_strength_2" viewBox="0 0 24 24">
    <path opacity="0.2" d="M21.34 8.5902C18.7785 6.27828 15.4505 4.99854 12 4.99854C8.54941 4.99854 5.22148 6.27828 2.65996 8.5902C2.46238 8.7679 2.34347 9.01681 2.32941 9.28217C2.31534 9.54753 2.40727 9.80762 2.58496 10.0052C2.76266 10.2028 3.01157 10.3217 3.27693 10.3358C3.5423 10.3498 3.80238 10.2579 3.99996 10.0802C6.19295 8.09787 9.04382 7.00034 12 7.00034C14.9561 7.00034 17.807 8.09787 20 10.0802C20.1848 10.2433 20.4235 10.3323 20.67 10.3302C20.8095 10.3299 20.9474 10.3003 21.0749 10.2435C21.2023 10.1867 21.3165 10.1038 21.41 10.0002C21.5872 9.80374 21.6794 9.54503 21.6663 9.28074C21.6531 9.01646 21.5358 8.76815 21.34 8.5902ZM12 17.0002C11.7033 17.0002 11.4133 17.0882 11.1666 17.253C10.9199 17.4178 10.7277 17.6521 10.6141 17.9262C10.5006 18.2003 10.4709 18.5019 10.5288 18.7928C10.5867 19.0838 10.7295 19.3511 10.9393 19.5609C11.1491 19.7706 11.4164 19.9135 11.7073 19.9714C11.9983 20.0293 12.2999 19.9996 12.574 19.886C12.8481 19.7725 13.0823 19.5802 13.2472 19.3336C13.412 19.0869 13.5 18.7969 13.5 18.5002C13.5 18.1024 13.3419 17.7208 13.0606 17.4395C12.7793 17.1582 12.3978 17.0002 12 17.0002ZM8.40996 14.2102C8.19779 14.3693 8.05752 14.6062 8.02001 14.8688C7.98251 15.1313 8.05083 15.398 8.20996 15.6102C8.36909 15.8224 8.60599 15.9626 8.86854 16.0002C9.13109 16.0377 9.39779 15.9693 9.60996 15.8102C10.3005 15.2956 11.1388 15.0177 12 15.0177C12.8612 15.0177 13.6994 15.2956 14.39 15.8102C14.5631 15.94 14.7736 16.0102 14.99 16.0102C15.1452 16.0102 15.2983 15.9741 15.4372 15.9046C15.576 15.8352 15.6968 15.7344 15.79 15.6102C15.8688 15.5051 15.9261 15.3856 15.9587 15.2584C15.9913 15.1312 15.9985 14.9988 15.9799 14.8688C15.9613 14.7388 15.9173 14.6137 15.8504 14.5007C15.7835 14.3877 15.695 14.289 15.59 14.2102C14.5532 13.436 13.2939 13.0177 12 13.0177C10.706 13.0177 9.44674 13.436 8.40996 14.2102ZM12 9.0002C9.61996 9.0024 7.31877 9.85338 5.50996 11.4002C5.3084 11.5726 5.18357 11.818 5.16294 12.0824C5.14232 12.3468 5.22757 12.6086 5.39996 12.8102C5.57236 13.0118 5.81776 13.1366 6.08218 13.1572C6.34661 13.1779 6.6084 13.0926 6.80996 12.9202C8.25762 11.6861 10.0977 11.0082 12 11.0082C13.9023 11.0082 15.7423 11.6861 17.19 12.9202C17.3915 13.0926 17.6533 13.1779 17.9177 13.1572C18.1822 13.1366 18.4276 13.0118 18.6 12.8102C18.7724 12.6086 18.8576 12.3468 18.837 12.0824C18.8164 11.818 18.6915 11.5726 18.49 11.4002C16.6812 9.85338 14.38 9.0024 12 9.0002Z" fill="currentColor"/>
<path d="M15.58 14.2101C14.5432 13.4359 13.284 13.0176 11.99 13.0176C10.6961 13.0176 9.43678 13.4359 8.4 14.2101C8.18783 14.3692 8.04756 14.6061 8.01005 14.8687C7.97255 15.1312 8.04087 15.3979 8.2 15.6101C8.35913 15.8223 8.59603 15.9625 8.85858 16C9.12113 16.0376 9.38783 15.9692 9.6 15.8101C10.2906 15.2955 11.1288 15.0176 11.99 15.0176C12.8512 15.0176 13.6894 15.2955 14.38 15.8101C14.5531 15.9399 14.7636 16.0101 14.98 16.0101C15.1352 16.0101 15.2884 15.9739 15.4272 15.9045C15.5661 15.8351 15.6869 15.7343 15.78 15.6101C15.8588 15.505 15.9161 15.3855 15.9487 15.2583C15.9813 15.1311 15.9885 14.9987 15.97 14.8687C15.9514 14.7387 15.9074 14.6136 15.8405 14.5006C15.7736 14.3876 15.6851 14.2889 15.58 14.2101ZM11.99 17.0001C11.6933 17.0001 11.4033 17.0881 11.1566 17.2529C10.91 17.4177 10.7177 17.652 10.6042 17.9261C10.4907 18.2002 10.4609 18.5018 10.5188 18.7927C10.5767 19.0837 10.7196 19.351 10.9293 19.5608C11.1391 19.7705 11.4064 19.9134 11.6974 19.9713C11.9883 20.0292 12.2899 19.9994 12.564 19.8859C12.8381 19.7724 13.0724 19.5801 13.2372 19.3334C13.402 19.0868 13.49 18.7968 13.49 18.5001C13.49 18.1023 13.332 17.7207 13.0507 17.4394C12.7694 17.1581 12.3878 17.0001 11.99 17.0001Z" fill="currentColor"/>
  </symbol>
  <symbol id="ic_wifi_strength_3" viewBox="0 0 24 24">
    <path opacity="0.2" d="M21.34 8.5902C18.7785 6.27828 15.4505 4.99854 12 4.99854C8.54941 4.99854 5.22148 6.27828 2.65996 8.5902C2.46238 8.7679 2.34347 9.01681 2.32941 9.28217C2.31534 9.54753 2.40727 9.80762 2.58496 10.0052C2.76266 10.2028 3.01157 10.3217 3.27693 10.3358C3.5423 10.3498 3.80238 10.2579 3.99996 10.0802C6.19295 8.09787 9.04382 7.00034 12 7.00034C14.9561 7.00034 17.807 8.09787 20 10.0802C20.1848 10.2433 20.4235 10.3323 20.67 10.3302C20.8095 10.3299 20.9474 10.3003 21.0749 10.2435C21.2023 10.1867 21.3165 10.1038 21.41 10.0002C21.5872 9.80374 21.6794 9.54503 21.6663 9.28074C21.6531 9.01646 21.5358 8.76815 21.34 8.5902ZM12 17.0002C11.7033 17.0002 11.4133 17.0882 11.1666 17.253C10.9199 17.4178 10.7277 17.6521 10.6141 17.9262C10.5006 18.2003 10.4709 18.5019 10.5288 18.7928C10.5867 19.0838 10.7295 19.3511 10.9393 19.5609C11.1491 19.7706 11.4164 19.9135 11.7073 19.9714C11.9983 20.0293 12.2999 19.9996 12.574 19.886C12.8481 19.7725 13.0823 19.5802 13.2472 19.3336C13.412 19.0869 13.5 18.7969 13.5 18.5002C13.5 18.1024 13.3419 17.7208 13.0606 17.4395C12.7793 17.1582 12.3978 17.0002 12 17.0002ZM8.40996 14.2102C8.19779 14.3693 8.05752 14.6062 8.02001 14.8688C7.98251 15.1313 8.05083 15.398 8.20996 15.6102C8.36909 15.8224 8.60599 15.9626 8.86854 16.0002C9.13109 16.0377 9.39779 15.9693 9.60996 15.8102C10.3005 15.2956 11.1388 15.0177 12 15.0177C12.8612 15.0177 13.6994 15.2956 14.39 15.8102C14.5631 15.94 14.7736 16.0102 14.99 16.0102C15.1452 16.0102 15.2983 15.9741 15.4372 15.9046C15.576 15.8352 15.6968 15.7344 15.79 15.6102C15.8688 15.5051 15.9261 15.3856 15.9587 15.2584C15.9913 15.1312 15.9985 14.9988 15.9799 14.8688C15.9613 14.7388 15.9173 14.6137 15.8504 14.5007C15.7835 14.3877 15.695 14.289 15.59 14.2102C14.5532 13.436 13.2939 13.0177 12 13.0177C10.706 13.0177 9.44674 13.436 8.40996 14.2102ZM12 9.0002C9.61996 9.0024 7.31877 9.85338 5.50996 11.4002C5.3084 11.5726 5.18357 11.818 5.16294 12.0824C5.14232 12.3468 5.22757 12.6086 5.39996 12.8102C5.57236 13.0118 5.81776 13.1366 6.08218 13.1572C6.34661 13.1779 6.6084 13.0926 6.80996 12.9202C8.25762 11.6861 10.0977 11.0082 12 11.0082C13.9023 11.0082 15.7423 11.6861 17.19 12.9202C17.3915 13.0926 17.6533 13.1779 17.9177 13.1572C18.1822 13.1366 18.4276 13.0118 18.6 12.8102C18.7724 12.6086 18.8576 12.3468 18.837 12.0824C18.8164 11.818 18.6915 11.5726 18.49 11.4002C16.6812 9.85338 14.38 9.0024 12 9.0002Z" fill="currentColor"/>
<path d="M11.9999 17.0002C11.7033 17.0002 11.4133 17.0881 11.1666 17.253C10.9199 17.4178 10.7277 17.6521 10.6141 17.9261C10.5006 18.2002 10.4709 18.5018 10.5288 18.7928C10.5866 19.0838 10.7295 19.3511 10.9393 19.5608C11.1491 19.7706 11.4163 19.9135 11.7073 19.9713C11.9983 20.0292 12.2999 19.9995 12.574 19.886C12.8481 19.7725 13.0823 19.5802 13.2471 19.3335C13.412 19.0869 13.4999 18.7968 13.4999 18.5002C13.4999 18.1023 13.3419 17.7208 13.0606 17.4395C12.7793 17.1582 12.3978 17.0002 11.9999 17.0002ZM8.40994 14.2102C8.19777 14.3693 8.0575 14.6062 8.01999 14.8687C7.98249 15.1313 8.05081 15.398 8.20994 15.6102C8.36907 15.8223 8.60597 15.9626 8.86852 16.0001C9.13107 16.0376 9.39777 15.9693 9.60994 15.8102C10.3005 15.2956 11.1387 15.0176 11.9999 15.0176C12.8612 15.0176 13.6994 15.2956 14.3899 15.8102C14.563 15.94 14.7736 16.0102 14.9899 16.0102C15.1452 16.0102 15.2983 15.974 15.4372 15.9046C15.576 15.8352 15.6968 15.7344 15.7899 15.6102C15.8687 15.5051 15.9261 15.3856 15.9587 15.2584C15.9913 15.1311 15.9985 14.9988 15.9799 14.8687C15.9613 14.7387 15.9173 14.6137 15.8504 14.5007C15.7835 14.3877 15.695 14.289 15.5899 14.2102C14.5532 13.436 13.2939 13.0177 11.9999 13.0177C10.706 13.0177 9.44672 13.436 8.40994 14.2102ZM18.4899 11.4002C16.6786 9.85088 14.3735 8.99951 11.9899 8.99951C9.60642 8.99951 7.30127 9.85088 5.48994 11.4002C5.28838 11.5726 5.16355 11.818 5.14292 12.0824C5.1223 12.3468 5.20755 12.6086 5.37994 12.8102C5.55234 13.0117 5.79774 13.1366 6.06216 13.1572C6.32659 13.1778 6.58838 13.0926 6.78994 12.9202C8.2376 11.6861 10.0776 11.0082 11.9799 11.0082C13.8822 11.0082 15.7223 11.6861 17.1699 12.9202C17.3715 13.0926 17.6333 13.1778 17.8977 13.1572C18.1622 13.1366 18.4076 13.0117 18.5799 12.8102C18.7523 12.6086 18.8376 12.3468 18.817 12.0824C18.7963 11.818 18.6715 11.5726 18.4699 11.4002H18.4899Z" fill="currentColor"/>
  </symbol>
</svg>
