<!-- JioGames DLS — x icons (2 icons) -->
<svg xmlns="http://www.w3.org/2000/svg" style="display:none">
  <symbol id="ic_x_ray" viewBox="0 0 24 24">
    <path d="M8 3H6C4.34 3 3 4.34 3 6V10.54C4.06 9.59 5.46 9 7 9H11V6.86C9.28 6.41 8 4.86 8 3ZM7 13H9C10.1 13 11 12.1 11 11H7C4.79 11 3 12.79 3 15V18C3 19.66 4.34 21 6 21H11V18.44C10.41 18.78 9.73 19 9 19H7C6.45 19 6 18.55 6 18C6 17.45 6.45 17 7 17H9C10.1 17 11 16.1 11 15V14.44C10.41 14.78 9.73 15 9 15H7C6.45 15 6 14.55 6 14C6 13.45 6.45 13 7 13ZM17 11H13C13 12.1 13.9 13 15 13H17C17.55 13 18 13.45 18 14C18 14.55 17.55 15 17 15H15C14.27 15 13.59 14.79 13 14.44V15C13 16.1 13.9 17 15 17H17C17.55 17 18 17.45 18 18C18 18.55 17.55 19 17 19H15C14.27 19 13.59 18.79 13 18.44V21H18C19.66 21 21 19.66 21 18V15C21 12.79 19.21 11 17 11ZM14 3H10C10 4.1 10.9 5 12 5C13.1 5 14 4.1 14 3ZM18 3H16C16 4.86 14.72 6.41 13 6.86V9H17C18.54 9 19.94 9.59 21 10.54V6C21 4.34 19.66 3 18 3Z" fill="currentColor"/>
  </symbol>
  <symbol id="ic_x_ray_body" viewBox="0 0 24 24">
    <path d="M17 2H7C5.34 2 4 3.34 4 5V19C4 20.66 5.34 22 7 22V19.83C7 19.03 7.31 18.28 7.88 17.71L9.59 16H9C8.45 16 8 15.55 8 15C8 14.45 8.45 14 9 14H11V12H7C6.45 12 6 11.55 6 11C6 10.45 6.45 10 7 10H11V8H9C8.45 8 8 7.55 8 7C8 6.45 8.45 6 9 6H11V5C11 4.45 11.45 4 12 4C12.55 4 13 4.45 13 5V6H15C15.55 6 16 6.45 16 7C16 7.55 15.55 8 15 8H13V10H17C17.55 10 18 10.45 18 11C18 11.55 17.55 12 17 12H13V14H15C15.55 14 16 14.45 16 15C16 15.55 15.55 16 15 16H14.41L16.12 17.71C16.69 18.28 17 19.03 17 19.83V22C18.66 22 20 20.66 20 19V5C20 3.34 18.66 2 17 2ZM12 16.41L9.29 19.12C9.1 19.31 9 19.56 9 19.83V22H15V19.83C15 19.57 14.89 19.31 14.71 19.12L12 16.41Z" fill="currentColor"/>
  </symbol>
</svg>
