<!-- JioGames DLS — yoga icons (2 icons) -->
<svg xmlns="http://www.w3.org/2000/svg" style="display:none">
  <symbol id="ic_yoga" viewBox="0 0 24 24">
    <path d="M6.47005 19.0699L10.1 18.0699L6.26005 16.9999C5.99483 16.931 5.71308 16.9702 5.47679 17.109C5.24049 17.2478 5.069 17.4747 5.00005 17.7399C4.93109 18.0052 4.97032 18.2869 5.10909 18.5232C5.24787 18.7595 5.47483 18.931 5.74005 18.9999L6.33005 19.1699C6.37317 19.1319 6.42008 19.0984 6.47005 19.0699ZM12 7.99994C12.2967 7.99994 12.5867 7.91197 12.8334 7.74715C13.0801 7.58233 13.2723 7.34806 13.3859 7.07397C13.4994 6.79988 13.5291 6.49828 13.4712 6.20731C13.4133 5.91634 13.2705 5.64906 13.0607 5.43928C12.8509 5.22951 12.5837 5.08664 12.2927 5.02877C12.0017 4.97089 11.7001 5.00059 11.426 5.11413C11.1519 5.22766 10.9177 5.41992 10.7528 5.66659C10.588 5.91326 10.5 6.20327 10.5 6.49994C10.5 6.89777 10.6581 7.2793 10.9394 7.56061C11.2207 7.84191 11.6022 7.99994 12 7.99994ZM10 11.6199V16.9999L12 17.5399L14 16.9999V11.5999C15.0276 11.1988 15.9108 10.4981 16.5349 9.58858C17.1591 8.67911 17.4953 7.60298 17.5 6.49994C17.4983 5.6714 17.3072 4.85422 16.9416 4.11073C16.5759 3.36725 16.0452 2.71712 15.39 2.20994C15.1805 2.04684 14.9148 1.97364 14.6513 2.00646C14.3878 2.03928 14.1482 2.17542 13.985 2.38494C13.8219 2.59447 13.7487 2.8602 13.7816 3.12369C13.8144 3.38718 13.9505 3.62684 14.16 3.78994C14.5756 4.10927 14.9124 4.51957 15.1447 4.98935C15.377 5.45912 15.4986 5.97588 15.5 6.49994C15.5 7.4282 15.1313 8.31844 14.4749 8.97482C13.8185 9.6312 12.9283 9.99994 12 9.99994C11.0718 9.99994 10.1816 9.6312 9.52517 8.97482C8.8688 8.31844 8.50005 7.4282 8.50005 6.49994C8.50153 5.97588 8.62308 5.45912 8.85537 4.98935C9.08766 4.51957 9.4245 4.10927 9.84005 3.78994C9.94379 3.70918 10.0306 3.60878 10.0956 3.49446C10.1605 3.38014 10.2023 3.25415 10.2185 3.12369C10.2348 2.99322 10.2252 2.86083 10.1903 2.73408C10.1553 2.60732 10.0958 2.48869 10.015 2.38494C9.93428 2.2812 9.83388 2.19438 9.71956 2.12944C9.60525 2.0645 9.47926 2.02271 9.34879 2.00646C9.21832 1.99021 9.08594 1.99982 8.95918 2.03473C8.83243 2.06964 8.71379 2.12918 8.61005 2.20994C7.95487 2.71712 7.4242 3.36725 7.05852 4.11073C6.69285 4.85422 6.50183 5.6714 6.50005 6.49994C6.50075 7.60639 6.83514 8.6869 7.45955 9.60032C8.08396 10.5137 8.96935 11.2176 10 11.6199ZM19 17.7399C18.9298 17.4861 18.7623 17.2703 18.5339 17.1392C18.3055 17.0081 18.0346 16.9725 17.78 17.0399L6.78005 20.0399C6.64715 20.0658 6.52089 20.1184 6.40892 20.1946C6.29695 20.2707 6.20162 20.3688 6.12868 20.4828C6.05575 20.5969 6.00674 20.7246 5.98463 20.8582C5.96252 20.9918 5.96776 21.1285 6.00005 21.2599C6.05865 21.4781 6.18939 21.67 6.37097 21.8044C6.55255 21.9387 6.77428 22.0077 7.00005 21.9999C7.08605 22.0151 7.17404 22.0151 7.26005 21.9999L18.26 18.9999C18.3937 18.97 18.5199 18.9128 18.6306 18.8321C18.7413 18.7514 18.8342 18.6487 18.9036 18.5306C18.973 18.4124 19.0173 18.2813 19.0339 18.1453C19.0505 18.0093 19.039 17.8713 19 17.7399ZM17.61 20.1899L13.94 21.1899L16.78 21.9599C16.8511 21.9838 16.9252 21.9972 17 21.9999C17.2258 22.0077 17.4475 21.9387 17.6291 21.8044C17.8107 21.67 17.9414 21.4781 18 21.2599C18.0476 21.059 18.0318 20.8483 17.9548 20.6567C17.8778 20.4651 17.7434 20.3021 17.57 20.1899H17.61Z" fill="currentColor"/>
  </symbol>
  <symbol id="ic_yoga_meditation" viewBox="0 0 24 24">
    <path d="M12 6C12.3955 6 12.7822 5.8827 13.1111 5.66294C13.44 5.44318 13.6963 5.13082 13.8477 4.76537C13.9991 4.39992 14.0387 3.99778 13.9615 3.60982C13.8844 3.22186 13.6939 2.86549 13.4142 2.58579C13.1345 2.30608 12.7781 2.1156 12.3901 2.03843C12.0022 1.96126 11.6 2.00087 11.2346 2.15224C10.8691 2.30362 10.5568 2.55996 10.337 2.88886C10.1173 3.21776 9.99996 3.60444 9.99996 4C9.99996 4.53043 10.2107 5.03914 10.5857 5.41421C10.9608 5.78929 11.4695 6 12 6ZM18.76 17L12 18.72L5.23996 17C4.97474 16.9363 4.6951 16.9807 4.46256 17.1232C4.23001 17.2657 4.06361 17.4948 3.99996 17.76C3.93631 18.0252 3.98062 18.3049 4.12315 18.5374C4.26567 18.7699 4.49474 18.9363 4.75996 19L7.87996 19.78L6.75996 20C6.49474 20.0318 6.25303 20.1677 6.088 20.3777C5.92297 20.5878 5.84813 20.8548 5.87996 21.12C5.91178 21.3852 6.04766 21.6269 6.2577 21.792C6.46774 21.957 6.73474 22.0318 6.99996 22C7.07967 22.0096 7.16025 22.0096 7.23996 22L12 20.78L16.76 22C16.8914 22.0356 17.0287 22.0439 17.1635 22.0246C17.2983 22.0052 17.4277 21.9585 17.5438 21.8873C17.6599 21.8162 17.7603 21.7221 17.8387 21.6107C17.9171 21.4994 17.972 21.3733 18 21.24C18.0355 21.1086 18.0439 20.9712 18.0245 20.8364C18.0052 20.7017 17.9585 20.5722 17.8873 20.4561C17.8161 20.34 17.722 20.2397 17.6107 20.1613C17.4994 20.0828 17.3732 20.028 17.24 20L16.12 19.72L19.24 19C19.3713 18.9685 19.4951 18.9114 19.6044 18.832C19.7136 18.7527 19.8062 18.6525 19.8768 18.5374C19.9473 18.4223 19.9945 18.2943 20.0157 18.161C20.0368 18.0276 20.0315 17.8913 20 17.76C19.9684 17.6287 19.9114 17.5049 19.832 17.3956C19.7526 17.2863 19.6525 17.1938 19.5374 17.1232C19.4222 17.0526 19.2943 17.0054 19.1609 16.9843C19.0275 16.9631 18.8913 16.9685 18.76 17ZM4.99996 16C5.15683 16.0019 5.31164 15.964 5.44996 15.89L6.70996 15.26C7.41902 14.9043 7.95835 14.2823 8.20996 13.53L9.48996 9.68C9.55704 9.48138 9.68486 9.30887 9.85533 9.18684C10.0258 9.06482 10.2303 8.99946 10.44 9H11V17.41L12 17.66L13 17.41V9H13.56C13.7696 8.99946 13.9741 9.06482 14.1446 9.18684C14.3151 9.30887 14.4429 9.48138 14.51 9.68L15.79 13.53C16.0416 14.2823 16.5809 14.9043 17.29 15.26L18.55 15.89C18.6883 15.964 18.8431 16.0019 19 16C19.1846 15.9994 19.3655 15.9478 19.5226 15.8507C19.6797 15.7536 19.8069 15.6149 19.89 15.45C20.0086 15.2138 20.0289 14.9403 19.9464 14.6892C19.864 14.4381 19.6855 14.2299 19.45 14.11L18.19 13.48C18.0726 13.4209 17.968 13.3393 17.8822 13.2398C17.7964 13.1402 17.7311 13.0248 17.69 12.9L16.4 9.05C16.2009 8.45389 15.8198 7.93533 15.3102 7.56751C14.8006 7.19968 14.1884 7.00118 13.56 7H10.44C9.81151 7.00118 9.19929 7.19968 8.68972 7.56751C8.18016 7.93533 7.79897 8.45389 7.59996 9.05L6.30996 12.9C6.26881 13.0248 6.20347 13.1402 6.11768 13.2398C6.03188 13.3393 5.92732 13.4209 5.80996 13.48L4.54996 14.11C4.31443 14.2299 4.13594 14.4381 4.05349 14.6892C3.97105 14.9403 3.99135 15.2138 4.10996 15.45C4.19306 15.6149 4.3202 15.7536 4.47729 15.8507C4.63438 15.9478 4.81529 15.9994 4.99996 16Z" fill="currentColor"/>
  </symbol>
</svg>
