<?xml version="1.0" encoding="UTF-8"?>
<svg id="JioHome" xmlns="http://www.w3.org/2000/svg" viewBox="0 0 93.12 32">
  <defs>
    <style>
      .cls-1 {
        fill: #00a859;
      }

      .cls-2 {
        fill: #fff;
      }
    </style>
  </defs>
  <g id="JioDot">
    <path class="cls-1" d="M16,0h0c8.84,0,16,7.16,16,16h0c0,8.84-7.16,16-16,16h0C7.16,32,0,24.84,0,16h0C0,7.16,7.16,0,16,0Z"/>
    <path class="cls-2" d="M11.3,9.65h-.53c-1.01,0-1.57.57-1.57,1.71v5.51c0,1.42-.48,1.91-1.6,1.91-.88,0-1.6-.39-2.17-1.09-.06-.07-1.21.48-1.21,1.84,0,1.47,1.38,2.38,3.94,2.38,3.11,0,4.75-1.57,4.75-4.99v-5.56c0-1.14-.55-1.71-1.6-1.71ZM23.7,12.34c-3.02,0-5.03,1.91-5.03,4.77s1.93,4.81,4.97,4.81,5.01-1.88,5.01-4.79c0-2.87-1.97-4.79-4.95-4.79ZM23.67,19.21c-1.18,0-1.99-.87-1.99-2.1s.83-2.08,1.99-2.08,1.99.87,1.99,2.1c0,1.2-.85,2.08-1.99,2.08h0ZM16.13,12.43h-.37c-.9,0-1.58.42-1.58,1.71v5.89c0,1.31.66,1.71,1.62,1.71h.37c.9,0,1.55-.44,1.55-1.71v-5.89c0-1.33-.63-1.71-1.58-1.71ZM15.92,8.16c-1.14,0-1.86.64-1.86,1.66s.74,1.67,1.91,1.67,1.86-.64,1.86-1.67-.74-1.66-1.91-1.66Z"/>
  </g>
  <path class="cls-2" d="M55.7,12.58c-.62-.26-1.4-.4-2.33-.4s-1.67.11-2.29.32c-.61.21-1.08.53-1.4.96-.32.43-.53.95-.61,1.55h2.66c.06-.34.21-.59.46-.77.25-.18.61-.27,1.09-.27.36,0,.65.06.87.18.22.12.38.3.48.55.1.25.14.57.14.96v.4h-1.49c-.98,0-1.82.11-2.5.33-.68.22-1.2.55-1.56.99s-.53,1.01-.53,1.7c0,.62.13,1.15.39,1.58s.63.76,1.11,1c.48.23,1.05.35,1.71.35.49,0,.93-.06,1.32-.19.39-.13.71-.29.96-.49.25-.2.47-.44.65-.7h.04l.13,1.13h2.5v-5.87c0-.85-.14-1.55-.43-2.1-.29-.55-.74-.95-1.36-1.22ZM54.78,18.19c0,.41-.08.76-.24,1.05-.16.29-.38.52-.65.67-.27.15-.58.22-.94.22-.29,0-.53-.05-.73-.14-.2-.1-.36-.24-.48-.42-.12-.19-.18-.42-.18-.71,0-.32.09-.59.26-.78s.42-.34.75-.43c.32-.09.72-.14,1.19-.14h1.03v.68ZM42.39,17.13h2.64c-.02.39-.1.74-.23,1.03-.2.45-.52.79-.95,1.03s-.94.35-1.54.35c-.73,0-1.34-.17-1.81-.52-.47-.35-.82-.82-1.04-1.42-.22-.6-.32-1.28-.32-2.05s.11-1.45.32-2.05c.22-.6.56-1.07,1.02-1.42.46-.35,1.05-.52,1.77-.52.43,0,.82.07,1.17.21.35.14.64.34.86.61.23.27.38.57.45.91h2.97c-.13-.9-.45-1.67-.95-2.3-.5-.64-1.15-1.12-1.93-1.45-.78-.33-1.66-.49-2.65-.49-1.25,0-2.34.28-3.27.83s-1.65,1.33-2.16,2.32c-.51,1-.76,2.14-.76,3.42s.25,2.34.75,3.31c.5.97,1.21,1.74,2.14,2.3s2.02.84,3.29.84c1.13,0,2.12-.21,2.98-.64.86-.43,1.53-1.08,2.02-1.95.49-.88.73-1.96.73-3.26v-1.17h-5.51v2.11ZM71.69,12.59c-.47-.26-1.04-.39-1.7-.39s-1.2.12-1.68.37c-.49.25-.9.63-1.25,1.16h-.02c-.2-.49-.53-.87-.98-1.13-.45-.26-.99-.4-1.63-.4s-1.19.13-1.66.38c-.47.25-.85.63-1.15,1.13h-.04v-1.28h-2.68v9.32h2.81v-5.38c0-.67.13-1.17.38-1.5.25-.33.62-.5,1.12-.5s.83.17,1.06.5c.23.33.34.83.34,1.5v5.38h2.83v-5.38c0-.44.05-.82.16-1.12s.28-.52.5-.67c.23-.14.5-.22.83-.22.47,0,.82.16,1.04.49.23.32.34.83.34,1.51v5.38h2.83v-6.25c0-.7-.12-1.29-.37-1.79-.25-.5-.61-.88-1.08-1.13ZM81.61,12.83c-.7-.42-1.55-.63-2.56-.63-.95,0-1.78.21-2.49.63s-1.27,1.01-1.66,1.75c-.39.75-.59,1.59-.59,2.53,0,1.01.2,1.88.59,2.62.4.74.95,1.3,1.66,1.69.71.39,1.54.58,2.5.58,1.18,0,2.15-.25,2.92-.76.77-.5,1.28-1.24,1.55-2.2h-2.56c-.11.31-.31.56-.61.74-.3.18-.68.27-1.15.27s-.84-.1-1.16-.29c-.32-.19-.56-.46-.73-.79-.17-.34-.26-.75-.27-1.24h6.66v-.32c0-1.07-.18-2-.53-2.78-.35-.79-.88-1.39-1.58-1.81ZM77.06,16.12c.05-.42.16-.78.33-1.08.17-.3.41-.53.69-.68.29-.15.62-.23.99-.23s.72.08,1,.23c.28.16.5.38.66.68.16.29.25.65.27,1.07h-3.94ZM92.76,17.53c-.24-.37-.58-.68-1.03-.91-.44-.23-1-.42-1.67-.57l-1.17-.23c-.5-.11-.87-.24-1.1-.4s-.34-.37-.34-.62c0-.18.05-.33.16-.46.11-.13.26-.22.46-.29.2-.07.43-.1.69-.1.47,0,.83.09,1.08.26.25.17.39.42.41.75h2.57c-.04-.89-.4-1.57-1.1-2.04s-1.67-.71-2.93-.71c-.78,0-1.48.1-2.1.31-.62.2-1.1.52-1.46.94-.35.43-.53.96-.53,1.59,0,.74.23,1.32.7,1.74.47.41,1.19.74,2.16.98l1.13.25.2.04c.31.08.58.17.8.27.22.1.39.21.51.34s.18.3.18.5c0,.22-.07.4-.21.56-.14.16-.32.27-.55.34-.23.07-.48.11-.76.11-.52,0-.92-.1-1.22-.31-.29-.2-.45-.51-.48-.92h-2.68c.02,1.02.42,1.79,1.2,2.3.77.51,1.82.76,3.14.76.84,0,1.58-.11,2.21-.33.63-.22,1.13-.56,1.5-1.03.37-.46.56-1.05.56-1.77,0-.53-.12-.98-.36-1.35Z"/>
</svg>