<svg width="24" height="24" viewBox="0 0 24 24" fill="none" xmlns="http://www.w3.org/2000/svg">
<path d="M7.81 9.70003C8.36 10.25 9.04 10.64 9.78 10.85C10.55 11.07 11.37 11.07 12.14 10.87C12.91 10.67 13.62 10.26 14.19 9.70003C14.76 9.13003 15.16 8.43003 15.36 7.65003C15.56 6.88003 15.56 6.06003 15.34 5.29003C15.14 4.54003 14.74 3.86003 14.19 3.32003C13.64 2.77003 12.96 2.38003 12.22 2.17003C11.45 1.95003 10.63 1.95003 9.86 2.15003C9.09 2.35003 8.38 2.76003 7.81 3.32003C7.24 3.88003 6.84 4.59003 6.64 5.37003C6.44 6.14003 6.44 6.96003 6.66 7.73003C6.86 8.48003 7.26 9.16003 7.81 9.70003Z" fill="currentColor"/>
<path d="M14.42 12.77C13.38 12.28 12.22 12 11 12C6.58 12 3 15.58 3 20V20.03C3 21.12 3.88 22 4.97 22H12.02C11.38 20.99 11 19.79 11 18.5C11 16.02 12.38 13.87 14.42 12.77Z" fill="currentColor"/>
<path d="M18.92 18.5L20.71 16.71C21.1 16.32 21.1 15.68 20.71 15.29C20.32 14.9 19.69 14.9 19.3 15.29L17.5 17.09L15.71 15.29C15.32 14.9 14.69 14.9 14.3 15.29C13.91 15.68 13.91 16.32 14.3 16.71L16.09 18.5L14.3 20.29C13.91 20.68 13.91 21.32 14.3 21.71C14.49 21.9 14.75 22 15 22C15.25 22 15.52 21.9 15.71 21.71L17.5 19.91L19.3 21.71C19.49 21.9 19.75 22 20 22C20.25 22 20.52 21.9 20.71 21.71C21.1 21.32 21.1 20.68 20.71 20.29L18.92 18.5Z" fill="currentColor"/>
</svg>