<svg width="24" height="24" viewBox="0 0 24 24" fill="none" xmlns="http://www.w3.org/2000/svg">
<path d="M8 11C9.93 11 11.5 9.43 11.5 7.5C11.5 5.57 9.93 4 8 4C6.07 4 4.5 5.57 4.5 7.5C4.5 9.43 6.07 11 8 11ZM8 12C4.69 12 2 14.69 2 18C2 19.1 2.9 20 4 20H12C13.1 20 14 19.1 14 18C14 14.69 11.31 12 8 12ZM21.71 8.29L19.71 6.29C19.32 5.9 18.69 5.9 18.3 6.29C17.91 6.68 17.91 7.31 18.3 7.7L18.59 7.99H16C14.35 7.99 13 9.34 13 10.99V11.99C13 12.54 13.45 12.99 14 12.99C14.55 12.99 15 12.54 15 11.99V10.99C15 10.44 15.45 9.99 16 9.99H18.59L18.3 10.28C17.91 10.67 17.91 11.3 18.3 11.69C18.5 11.89 18.75 11.98 19.01 11.98C19.27 11.98 19.52 11.88 19.72 11.69L21.72 9.69C22.11 9.3 22.11 8.67 21.72 8.28L21.71 8.29Z" fill="currentColor"/>
</svg>