<svg width="24" height="24" viewBox="0 0 24 24" fill="none" xmlns="http://www.w3.org/2000/svg">
<path d="M7.09999 9.47023H7.38999C7.99999 9.47023 8.48999 8.98023 8.48999 8.37023V7.08023C8.48999 7.08023 8.48999 7.05023 8.47999 7.03023C8.47999 7.01023 8.48999 7.00023 8.48999 6.98023C8.48999 6.54023 8.58999 5.67023 9.18999 4.87023C10.23 3.49023 11.92 3.47023 11.99 3.47023C12.06 3.47023 13.75 3.49023 14.79 4.87023C15.39 5.67023 15.49 6.53023 15.49 6.98023C15.49 7.00023 15.49 7.01023 15.5 7.03023C15.5 7.05023 15.49 7.06023 15.49 7.08023V9.32023C15.49 10.1002 15.18 10.5102 15.09 10.5402H13.99C13.71 10.5402 13.49 10.7602 13.49 11.0402C13.49 11.3202 13.71 11.5402 13.99 11.5402H15.09C15.37 11.5402 15.64 11.4202 15.86 11.2002C16.23 10.8302 16.45 10.1802 16.48 9.46023C16.52 9.46023 16.55 9.48023 16.59 9.48023H16.88C17.49 9.48023 17.98 8.99023 17.98 8.38023V7.09023C17.98 6.48023 17.49 5.99023 16.88 5.99023H16.59C16.51 5.99023 16.45 6.02023 16.37 6.03023C16.26 5.50023 16.03 4.88023 15.58 4.29023C14.27 2.54023 12.21 2.49023 11.98 2.49023C11.75 2.49023 9.68999 2.54023 8.37999 4.29023C7.92999 4.89023 7.70999 5.51023 7.58999 6.03023C7.51999 6.02023 7.44999 5.99023 7.36999 5.99023H7.07999C6.46999 5.99023 5.97999 6.48023 5.97999 7.09023V8.38023C5.97999 8.99023 6.46999 9.48023 7.07999 9.48023L7.09999 9.47023ZM15 12.0302C14.96 13.7502 14.51 16.2802 13.48 17.9602L12.48 14.0002C14.01 12.0002 12.33 12.0002 12.01 12.0002C11.66 12.0002 10.01 12.0002 11.54 14.0002L10.54 17.9602C9.49999 16.2802 9.05999 13.7502 9.01999 12.0302C6.12999 12.8902 4.01999 14.8602 4.01999 18.0302V19.0302C4.01999 20.1302 4.90999 21.0302 6.01999 21.0302H18.03C19.13 21.0302 20.03 20.1402 20.03 19.0302V18.0302C20.03 14.8602 17.92 12.8902 15.03 12.0302H15Z" fill="currentColor"/>
</svg>