<svg width="24" height="24" viewBox="0 0 24 24" fill="none" xmlns="http://www.w3.org/2000/svg">
<path d="M17 12.9998V11.9998C17 11.4498 16.55 10.9998 16 10.9998V9.23977C16 8.70977 16.21 8.20977 16.59 7.82977L17.71 6.70977C18.1 6.31977 18.1 5.68977 17.71 5.29977C17.32 4.90977 16.69 4.90977 16.3 5.29977L15.18 6.41977C14.42 7.17977 14.01 8.17977 14.01 9.24977V11.0098H13.01V4.00977C13.01 3.45977 12.56 3.00977 12.01 3.00977C11.46 3.00977 11.01 3.45977 11.01 4.00977V11.0098H10.01V9.24977C10.01 8.17977 9.59002 7.17977 8.84002 6.41977L7.72002 5.29977C7.33002 4.90977 6.70002 4.90977 6.31002 5.29977C5.92002 5.68977 5.92002 6.31977 6.31002 6.70977L7.43002 7.82977C7.81002 8.20977 8.02002 8.70977 8.02002 9.23977V10.9998C7.47002 10.9998 7.02002 11.4498 7.02002 11.9998V12.9998H6.02002C4.92002 12.9998 4.02002 13.8998 4.02002 14.9998V18.9998C4.02002 20.0998 4.92002 20.9998 6.02002 20.9998H18.02C19.12 20.9998 20.02 20.0998 20.02 18.9998V14.9998C20.02 13.8998 19.12 12.9998 18.02 12.9998H17Z" fill="currentColor"/>
</svg>