<svg width="24" height="24" viewBox="0 0 24 24" fill="none" xmlns="http://www.w3.org/2000/svg">
<path d="M16 20.0002H8C7.45 20.0002 7 19.5502 7 19.0002C7 18.4502 7.45 18.0002 8 18.0002H16C16.55 18.0002 17 18.4502 17 19.0002C17 19.5502 16.55 20.0002 16 20.0002Z" fill="currentColor"/>
<path d="M16.71 10.2902C16.32 9.90023 15.69 9.90023 15.3 10.2902L13.01 12.5802V4.99023C13.01 4.44023 12.56 3.99023 12.01 3.99023C11.46 3.99023 11.01 4.44023 11.01 4.99023V12.5802L8.71996 10.2902C8.32996 9.90023 7.69996 9.90023 7.30996 10.2902C6.91996 10.6802 6.91996 11.3102 7.30996 11.7002L11.31 15.7002C11.51 15.9002 11.76 15.9902 12.02 15.9902C12.28 15.9902 12.53 15.8902 12.73 15.7002L16.73 11.7002C17.12 11.3102 17.12 10.6802 16.73 10.2902H16.71Z" fill="currentColor"/>
</svg>