<svg width="24" height="24" viewBox="0 0 24 24" fill="none" xmlns="http://www.w3.org/2000/svg">
<path d="M18 8.99023H12L14 11.9902L12 14.9902L14 17.9902L12.67 19.9902H18C19.1 19.9902 20 19.0902 20 17.9902V10.9902C20 9.89023 19.1 8.99023 18 8.99023Z" fill="currentColor"/>
<path d="M12 11.9902L10 8.99023H6C4.9 8.99023 4 9.89023 4 10.9902V17.9902C4 19.0902 4.9 19.9902 6 19.9902H10.67L12 17.9902L10 14.9902L12 11.9902Z" fill="currentColor"/>
<path d="M18.85 4.87C18.79 4.75 18.71 4.64 18.61 4.55C16.78 2.91 14.4 2 11.94 2C9.47996 2 7.09996 2.91 5.26996 4.55C5.06996 4.73 4.94996 4.98 4.93996 5.24C4.92996 5.51 5.01996 5.77 5.19996 5.96C5.37996 6.16 5.62996 6.28 5.88996 6.29C6.15996 6.3 6.41996 6.21 6.60996 6.03C8.07996 4.72 9.96996 4 11.94 4C13.91 4 15.8 4.72 17.27 6.03C17.45 6.19 17.69 6.28 17.94 6.28C18.08 6.28 18.21 6.26 18.34 6.21C18.47 6.16 18.58 6.08 18.68 5.98C18.77 5.88 18.84 5.77 18.89 5.64C18.94 5.51 18.96 5.38 18.95 5.24C18.95 5.11 18.91 4.97 18.85 4.85V4.87Z" fill="currentColor"/>
<path d="M11.9299 5.00977C10.6299 5.00977 9.35993 5.42977 8.31993 6.21977C8.21993 6.29977 8.12993 6.39977 8.05993 6.50977C7.98993 6.61977 7.94993 6.74977 7.92993 6.87977C7.90993 7.00977 7.92993 7.13977 7.95993 7.26977C7.98993 7.39977 8.04993 7.51977 8.12993 7.61977C8.28993 7.82977 8.52993 7.96977 8.78993 7.99977C8.91993 8.01977 9.04993 7.99977 9.17993 7.96977C9.30993 7.93977 9.42993 7.87977 9.52993 7.79977C10.2199 7.28977 11.0599 7.00977 11.9199 7.00977C12.7799 7.00977 13.6199 7.28977 14.3099 7.79977C14.5199 7.95977 14.7899 8.02977 15.0499 7.99977C15.3099 7.96977 15.5499 7.82977 15.7099 7.61977C15.8699 7.40977 15.9399 7.13977 15.9099 6.87977C15.8799 6.61977 15.7399 6.37977 15.5299 6.21977C14.4899 5.43977 13.2199 5.00977 11.9199 5.00977H11.9299Z" fill="currentColor"/>
</svg>