<svg width="24" height="24" viewBox="0 0 24 24" fill="none" xmlns="http://www.w3.org/2000/svg">
<path d="M16.5 12C18.99 12 21 9.99 21 7.5C21 5.01 18.99 3 16.5 3C14.01 3 12 5.01 12 7.5C12 9.99 14.01 12 16.5 12ZM12 7.5C12 5.01 9.99 3 7.5 3C5.01 3 3 5.01 3 7.5C3 9.99 5.01 12 7.5 12C9.99 12 12 9.99 12 7.5ZM16.5 12C14.01 12 12 14.01 12 16.5C12 18.99 14.01 21 16.5 21C18.99 21 21 18.99 21 16.5C21 14.01 18.99 12 16.5 12ZM7.5 12C5.01 12 3 14.01 3 16.5C3 18.99 5.01 21 7.5 21C9.99 21 12 18.99 12 16.5C12 14.01 9.99 12 7.5 12Z" fill="currentColor"/>
</svg>