<svg width="24" height="24" viewBox="0 0 24 24" fill="none" xmlns="http://www.w3.org/2000/svg">
<path d="M19.23 6H4.77C3.24 6 2 7.24 2 8.77V13.22C2 14.75 3.24 15.99 4.77 15.99H5.59L6.71 17.11C7.27 17.67 8.03 17.99 8.83 17.99H15.17C15.97 17.99 16.73 17.67 17.29 17.11L18.41 15.99H19.23C20.76 15.99 22 14.75 22 13.22V8.77C22 7.24 20.76 6 19.23 6ZM17.71 11.71C17.52 11.9 17.27 12 17 12H7C6.73 12 6.48 11.89 6.29 11.71C6.1 11.52 6 11.27 6 11C6 10.73 6.11 10.48 6.29 10.29C6.48 10.1 6.73 10 7 10H17C17.27 10 17.52 10.11 17.71 10.29C17.9 10.47 18 10.73 18 11C18 11.27 17.89 11.52 17.71 11.71Z" fill="currentColor"/>
</svg>