<svg width="24" height="24" viewBox="0 0 24 24" fill="none" xmlns="http://www.w3.org/2000/svg">
<path d="M7.99995 2.99992C6.75995 2.96992 5.55995 3.42992 4.65995 4.28992C3.75995 5.13992 3.23995 6.31992 3.19995 7.55992C3.19995 10.6099 6.74995 14.2499 7.15995 14.6499C7.37995 14.8699 7.68995 14.9999 8.00995 14.9999C8.32995 14.9999 8.62995 14.8699 8.85995 14.6499C9.26995 14.2499 12.82 10.6099 12.82 7.55992C12.79 6.31992 12.26 5.13992 11.36 4.28992C10.46 3.43992 9.25995 2.96992 8.01995 2.99992H7.99995ZM7.99995 9.59992C7.63995 9.59992 7.29995 9.48992 6.99995 9.29992C6.69995 9.09992 6.46995 8.81991 6.33995 8.48991C6.19995 8.15991 6.16995 7.79991 6.23995 7.44991C6.30995 7.09992 6.47995 6.77992 6.72995 6.52992C6.97995 6.27992 7.29995 6.10992 7.64995 6.03992C7.99995 5.96992 8.35995 6.00992 8.68995 6.13992C9.01995 6.27992 9.29995 6.50992 9.49995 6.79992C9.69995 7.09992 9.79995 7.43992 9.79995 7.79992C9.79995 8.27992 9.60995 8.73991 9.26995 9.06991C8.92995 9.39991 8.46995 9.59992 7.99995 9.59992Z" fill="currentColor"/>
<path d="M20.71 13.96C20.52 13.68 20.26 13.46 19.95 13.34L18.79 9.84996C18.61 9.34996 18.29 8.91996 17.85 8.61996C17.42 8.31996 16.9 8.14996 16.37 8.14996H14.76C14.71 8.70996 14.58 9.25996 14.41 9.80996H16.42C16.61 9.80996 16.79 9.84996 16.94 9.95996C17.09 10.06 17.21 10.22 17.27 10.39L18.12 13.21H12.65C11.65 14.65 10.61 15.72 10.25 16.08C9.64999 16.68 8.83999 17.01 7.98999 17.01C7.13999 17.01 6.33999 16.68 5.73999 16.09C5.47999 15.83 4.83999 15.18 4.12999 14.28C4.04999 14.48 3.98999 14.69 3.98999 14.91V17.46C3.98999 17.76 4.06999 18.05 4.21999 18.3C4.36999 18.56 4.57999 18.77 4.83999 18.92V20.01C4.83999 20.24 4.92999 20.45 5.08999 20.61C5.24999 20.77 5.46999 20.86 5.68999 20.86C5.90999 20.86 6.12999 20.77 6.28999 20.61C6.44999 20.45 6.53999 20.23 6.53999 20.01V19.16H18.44V20.01C18.44 20.24 18.53 20.45 18.69 20.61C18.85 20.77 19.07 20.86 19.29 20.86C19.51 20.86 19.73 20.77 19.89 20.61C20.05 20.45 20.14 20.23 20.14 20.01V18.92C20.4 18.77 20.61 18.56 20.76 18.3C20.91 18.04 20.99 17.75 20.99 17.46V14.91C20.99 14.58 20.89 14.25 20.7 13.97L20.71 13.96ZM18.2 16.34C18.06 16.48 17.88 16.57 17.68 16.59C17.48 16.61 17.29 16.56 17.12 16.45C16.98 16.36 16.87 16.22 16.81 16.07C16.74 15.92 16.72 15.76 16.74 15.59C16.77 15.42 16.85 15.27 16.97 15.14C17.09 15.02 17.25 14.94 17.42 14.91C17.59 14.88 17.76 14.9 17.91 14.96C18.07 15.02 18.2 15.13 18.29 15.27C18.4 15.43 18.45 15.63 18.43 15.83C18.41 16.03 18.32 16.21 18.18 16.35L18.2 16.34Z" fill="currentColor"/>
</svg>