<svg width="24" height="24" viewBox="0 0 24 24" fill="none" xmlns="http://www.w3.org/2000/svg">
<path d="M19.852 4.662H19.863C19.533 4.266 19.093 4.035 18.62 3.991C16.486 3.771 14.418 3.155 12.493 2.187C12.251 2.055 11.965 2 11.701 2C11.437 2 11.151 2.055 10.909 2.187C8.995 3.155 6.938 3.771 4.815 3.991C4.342 4.035 3.869 4.255 3.55 4.618C3.209 4.981 3.011 5.454 3 5.971V10.921C3 17.587 9.523 21.8 11.69 21.8C13.857 21.8 20.38 17.598 20.38 10.921V5.971C20.38 5.498 20.182 5.014 19.852 4.662ZM13.934 11.416C13.989 11.229 14.088 11.053 14.22 10.91C14.352 10.767 14.528 10.668 14.726 10.624C14.913 10.569 15.111 10.58 15.298 10.624C15.485 10.679 15.65 10.767 15.782 10.91C15.914 11.042 16.013 11.207 16.068 11.394C16.123 11.581 16.123 11.779 16.068 11.966C16.013 12.153 15.914 12.329 15.782 12.472C15.639 12.615 15.474 12.714 15.276 12.758C15.089 12.813 14.891 12.802 14.704 12.758C14.517 12.703 14.352 12.615 14.22 12.472C14.088 12.34 13.989 12.175 13.934 11.988C13.879 11.801 13.879 11.614 13.934 11.416ZM7.895 8.05C7.994 7.676 8.192 7.324 8.467 7.049C8.742 6.774 9.094 6.576 9.468 6.477C9.842 6.378 10.249 6.378 10.623 6.477C10.986 6.576 11.316 6.774 11.591 7.038C11.855 7.302 12.053 7.643 12.152 8.006C12.262 8.38 12.262 8.787 12.152 9.161C12.053 9.535 11.855 9.887 11.58 10.162C11.305 10.437 10.953 10.635 10.579 10.734C10.205 10.833 9.798 10.833 9.424 10.734C9.061 10.635 8.731 10.437 8.456 10.173C8.181 9.909 7.994 9.568 7.895 9.205C7.785 8.831 7.785 8.424 7.895 8.05ZM17.036 16.135C16.926 16.245 16.783 16.3 16.629 16.3H7.136C6.883 16.3 6.641 16.201 6.454 16.014C6.278 15.838 6.168 15.585 6.168 15.332C6.168 14.309 6.575 13.341 7.29 12.615C8.005 11.9 8.984 11.493 10.007 11.493C11.03 11.493 11.998 11.9 12.724 12.615C13.076 12.967 13.351 13.385 13.538 13.836C13.934 13.561 14.396 13.396 14.88 13.396C15.496 13.396 16.079 13.638 16.519 14.078C16.959 14.518 17.201 15.101 17.201 15.717C17.201 15.871 17.135 16.025 17.036 16.135Z" fill="currentColor"/>
</svg>