<svg width="24" height="24" viewBox="0 0 24 24" fill="none" xmlns="http://www.w3.org/2000/svg">
<path d="M21.7101 2.29006C21.3201 1.90006 20.6901 1.90006 20.3001 2.29006L2.29006 20.2901C1.90006 20.6801 1.90006 21.3101 2.29006 21.7001C2.49006 21.9001 2.74006 21.9901 3.00006 21.9901C3.26006 21.9901 3.51006 21.8901 3.71006 21.7001L7.00006 18.4101V19.0001C7.00006 19.8001 7.32006 20.5601 7.88006 21.1201C8.44006 21.6801 9.21006 22.0001 10.0001 22.0001H14.0001C14.8001 22.0001 15.5601 21.6801 16.1201 21.1201C16.6801 20.5601 17.0001 19.7901 17.0001 19.0001V8.41006L21.7101 3.70006C22.1001 3.31006 22.1001 2.68006 21.7101 2.29006ZM14.7101 13.7101C14.5201 13.9001 14.2701 14.0001 14.0001 14.0001C13.8001 14.0001 13.6101 13.9401 13.4401 13.8301C13.2801 13.7201 13.1501 13.5601 13.0701 13.3801C12.9901 13.2001 12.9701 13.0001 13.0101 12.8001C13.0501 12.6101 13.1401 12.4301 13.2801 12.2901C13.4201 12.1501 13.6001 12.0501 13.7901 12.0201C13.9801 11.9801 14.1901 12.0001 14.3701 12.0801C14.5501 12.1601 14.7101 12.2801 14.8201 12.4501C14.9301 12.6101 14.9901 12.8101 14.9901 13.0101C14.9901 13.2801 14.8801 13.5301 14.7001 13.7201L14.7101 13.7101Z" fill="currentColor"/>
<path d="M9.44006 9.83006C9.28006 9.72006 9.15006 9.56006 9.07006 9.38006C8.99006 9.20006 8.97006 9.00006 9.01006 8.80006C9.05006 8.61006 9.14006 8.43006 9.28006 8.29006C9.42006 8.15006 9.60006 8.05006 9.79006 8.02006C9.98006 7.98006 10.1901 8.00006 10.3701 8.08006C10.5501 8.16006 10.7101 8.28006 10.8201 8.45006C10.9001 8.57006 10.9401 8.70006 10.9601 8.84006L13.8201 5.98006C13.6801 5.96006 13.5501 5.91006 13.4301 5.84006C13.2701 5.73006 13.1401 5.57006 13.0601 5.39006C12.9801 5.21006 12.9601 5.01006 13.0001 4.81006C13.0401 4.62006 13.1301 4.44006 13.2701 4.30006C13.4101 4.16006 13.5901 4.06006 13.7801 4.03006C13.9701 3.99006 14.1801 4.01006 14.3601 4.09006C14.5401 4.17006 14.7001 4.29006 14.8101 4.46006C14.8901 4.58006 14.9301 4.71006 14.9501 4.85006L16.4601 3.34006C16.3501 3.18006 16.2301 3.03006 16.1001 2.90006C15.5401 2.34006 14.7701 2.02006 13.9801 2.02006H9.98006C9.18006 2.02006 8.42006 2.34006 7.86006 2.90006C7.30006 3.46006 6.98006 4.23006 6.98006 5.02006V12.8301L9.81006 10.0001C9.67006 9.98006 9.54006 9.93006 9.42006 9.86006L9.44006 9.83006ZM9.01006 4.80006C9.05006 4.61006 9.14006 4.43006 9.28006 4.29006C9.42006 4.15006 9.60006 4.05006 9.79006 4.02006C9.98006 3.98006 10.1901 4.00006 10.3701 4.08006C10.5501 4.16006 10.7101 4.28006 10.8201 4.45006C10.9301 4.61006 10.9901 4.81006 10.9901 5.01006C10.9901 5.28006 10.8801 5.53006 10.7001 5.72006C10.5101 5.91006 10.2601 6.01006 9.99006 6.01006C9.79006 6.01006 9.60006 5.95006 9.43006 5.84006C9.26006 5.73006 9.14006 5.57006 9.06006 5.39006C8.98006 5.21006 8.96006 5.01006 9.00006 4.81006L9.01006 4.80006Z" fill="currentColor"/>
</svg>