<svg width="24" height="24" viewBox="0 0 24 24" fill="none" xmlns="http://www.w3.org/2000/svg">
<path d="M17.0001 12.88V12C17.5501 12 18.0001 11.55 18.0001 11V7C18.0001 6.45 17.5501 6 17.0001 6H15.0001V4C15.0001 3.45 14.5501 3 14.0001 3H10.0001C9.45006 3 9.00006 3.45 9.00006 4V6H7.00006C6.45006 6 6.00006 6.45 6.00006 7V11C6.00006 11.55 6.45006 12 7.00006 12V12.88C7.00006 13.46 7.44006 13.91 8.00006 13.98V14.76C8.00006 15.29 7.79006 15.79 7.41006 16.17L6.29006 17.29C5.90006 17.68 5.90006 18.31 6.29006 18.7C6.49006 18.9 6.74006 18.99 7.00006 18.99C7.26006 18.99 7.51006 18.89 7.71006 18.7L8.83006 17.58C9.59006 16.82 10.0001 15.82 10.0001 14.75V13.99H11.0001V19.99C11.0001 20.54 11.4501 20.99 12.0001 20.99C12.5501 20.99 13.0001 20.54 13.0001 19.99V13.99H14.0001V14.75C14.0001 15.82 14.4201 16.82 15.1701 17.58L16.2901 18.7C16.4901 18.9 16.7401 18.99 17.0001 18.99C17.2601 18.99 17.5101 18.89 17.7101 18.7C18.1001 18.31 18.1001 17.68 17.7101 17.29L16.5901 16.17C16.2101 15.79 16.0001 15.29 16.0001 14.76V13.98C16.5601 13.92 17.0001 13.46 17.0001 12.88ZM12.0001 4C12.5501 4 13.0001 4.45 13.0001 5C13.0001 5.55 12.5501 6 12.0001 6C11.4501 6 11.0001 5.55 11.0001 5C11.0001 4.45 11.4501 4 12.0001 4Z" fill="currentColor"/>
</svg>