<svg width="24" height="24" viewBox="0 0 24 24" fill="none" xmlns="http://www.w3.org/2000/svg">
<path d="M21.12 8.88C20.56 8.32 19.8 8 19 8H5C4.2 8 3.44 8.32 2.88 8.88C2.32 9.44 2 10.21 2 11V13C2 13.8 2.32 14.56 2.88 15.12C3.2 15.44 3.58 15.67 4 15.82V16.5C4 16.78 4.23 17 4.5 17H5.49C5.77 17 5.99 16.77 5.99 16.5V16.01H17.99V16.5C17.99 16.78 18.22 17 18.49 17H19.48C19.76 17 19.98 16.77 19.98 16.5V15.82C20.4 15.67 20.78 15.44 21.1 15.12C21.66 14.56 21.98 13.79 21.98 13V11C21.98 10.2 21.66 9.44 21.1 8.88H21.12ZM12.71 12.71C12.52 12.9 12.27 13 12 13C11.8 13 11.61 12.94 11.44 12.83C11.28 12.72 11.15 12.56 11.07 12.38C10.99 12.2 10.97 12 11.01 11.8C11.05 11.61 11.14 11.43 11.28 11.29C11.42 11.15 11.6 11.06 11.79 11.02C11.98 10.98 12.19 11 12.37 11.08C12.55 11.16 12.71 11.28 12.82 11.45C12.93 11.61 12.99 11.81 12.99 12.01C12.99 12.28 12.88 12.53 12.7 12.72L12.71 12.71Z" fill="currentColor"/>
</svg>