<svg width="24" height="24" viewBox="0 0 24 24" fill="none" xmlns="http://www.w3.org/2000/svg">
<path d="M16 17.9979C16.55 17.9979 17 18.4479 17 18.9979C17 19.5479 16.55 19.9979 16 19.9979H7.99996C7.44996 19.9979 6.99996 19.5479 6.99996 18.9979C6.99996 18.4479 7.44996 17.9979 7.99996 17.9979H16Z" fill="currentColor"/>
<path d="M12.0098 16.002C11.4599 16.002 11.0099 15.5518 11.0098 15.002L11.0098 7.41211L8.71975 9.70215C8.3298 10.0919 7.69955 10.0919 7.30959 9.70215H7.29006C6.90006 9.31215 6.90006 8.68199 7.29006 8.29199L11.2901 4.29199C11.49 4.10205 11.7401 4.00195 12 4.00195C12.2599 4.00205 12.5101 4.09209 12.71 4.29199L16.71 8.29199C17.0997 8.68202 17.0999 9.31226 16.71 9.70215C16.3201 10.092 15.6898 10.0918 15.2998 9.70215L13.0098 7.41211L13.0098 15.002C13.0097 15.5518 12.5596 16.0019 12.0098 16.002Z" fill="currentColor"/>
</svg>