<svg width="24" height="24" viewBox="0 0 24 24" fill="none" xmlns="http://www.w3.org/2000/svg">
<path fill-rule="evenodd" clip-rule="evenodd" d="M5 4H19C20.1 4 21 4.9 21 6V10C21 11.1 20.1 12 19 12H5C3.9 12 3 11.1 3 10V6C3 4.9 3.9 4 5 4ZM14 8C14 9.1 13.1 10 12 10C10.9 10 10 9.1 10 8C10 6.9 10.9 6 12 6C13.1 6 14 6.9 14 8Z" fill="currentColor"/>
<path d="M12.77 11H11.23C10.55 11 10 11.55 10 12.23V18.77C10 19.45 10.55 20 11.23 20H12.77C13.45 20 14 19.45 14 18.77V15.5V12.23C14 11.55 13.45 11 12.77 11Z" fill="currentColor"/>
<path d="M15.57 17H8.43C7.64 17 7 17.67 7 18.5C7 19.33 7.64 20 8.43 20H15.57C16.36 20 17 19.33 17 18.5C17 17.67 16.36 17 15.57 17Z" fill="currentColor"/>
</svg>